<svg width="200" height="181" viewBox="0 0 200 181" fill="none" xmlns="http://www.w3.org/2000/svg">
<rect y="0.291016" width="200" height="180" rx="20" fill="white"/>
<g clip-path="url(#clip0_37_1079)">
<path d="M74.1531 66.3892C69.8999 66.3892 66.4416 62.9309 66.4416 58.6778C66.4416 54.4247 69.8999 50.9663 74.1531 50.9663C78.4062 50.9663 81.8645 54.4247 81.8645 58.6778C81.8645 62.9309 78.4062 66.3892 74.1531 66.3892ZM74.1531 54.3671C71.7774 54.3671 69.8424 56.2993 69.8424 58.6778C69.8424 61.0563 71.7745 62.9885 74.1531 62.9885C76.5316 62.9885 78.4638 61.0563 78.4638 58.6778C78.4638 56.2993 76.5316 54.3671 74.1531 54.3671Z" fill="#C3DCD9"/>
<path d="M132.404 72.8109H86.466C85.5273 72.8109 84.7642 72.0507 84.7642 71.1091V53.8317C84.7642 52.893 85.5244 52.1299 86.466 52.1299H115.129C125.594 52.1299 134.106 60.6419 134.106 71.1062C134.106 72.0449 133.345 72.808 132.404 72.808V72.8109ZM88.1679 69.4073H130.613C129.763 61.6152 123.143 55.5335 115.129 55.5335H88.1679V69.4073Z" fill="#C3DCD9"/>
<path d="M80.1656 72.8109H68.1434C67.2047 72.8109 66.4416 72.0507 66.4416 71.109C66.4416 70.1674 67.2018 69.4072 68.1434 69.4072H80.1656C81.1043 69.4072 81.8674 70.1674 81.8674 71.109C81.8674 72.0507 81.1072 72.8109 80.1656 72.8109Z" fill="#C3DCD9"/>
<path d="M61.7018 94.5198C60.7631 94.5198 60 93.7596 60 92.8179V47.7643C60 46.8227 60.7602 46.0625 61.7018 46.0625C62.6434 46.0625 63.4036 46.8227 63.4036 47.7643V92.8208C63.4036 93.7596 62.6434 94.5226 61.7018 94.5226V94.5198Z" fill="#C3DCD9"/>
<path d="M138.298 94.5197C137.359 94.5197 136.596 93.7595 136.596 92.8179V64.339C136.596 63.4003 137.357 62.6372 138.298 62.6372C139.24 62.6372 140 63.3974 140 64.339V92.8208C140 93.7595 139.24 94.5226 138.298 94.5226V94.5197Z" fill="#C3DCD9"/>
<path d="M132.404 81.7806H68.1434C67.2047 81.7806 66.4416 81.0204 66.4416 80.0788C66.4416 79.1372 67.2018 78.377 68.1434 78.377H132.404C133.342 78.377 134.106 79.1372 134.106 80.0788C134.106 81.0204 133.345 81.7806 132.404 81.7806Z" fill="#C3DCD9"/>
</g>
<path d="M33.6 134.531H40.22V135.991H33.6V134.531ZM42.06 135.711H47.8V137.551H42.06V135.711ZM34.78 139.031H38.92V140.211H34.78V139.031ZM34.78 141.051H38.92V142.231H34.78V141.051ZM33.18 136.711H40.46V138.231H33.18V136.711ZM35.82 135.091H37.84V137.191H35.82V135.091ZM33.82 137.131H35.74V144.171H33.82V137.131ZM37.86 137.171H39.8V146.091H37.86V137.171ZM32.5 143.551C33.3267 143.484 34.3133 143.398 35.46 143.291C36.6067 143.184 37.7867 143.071 39 142.951L39.04 144.551C37.9333 144.671 36.8267 144.791 35.72 144.911C34.6267 145.044 33.6333 145.164 32.74 145.271L32.5 143.551ZM41.96 134.091L43.98 134.471C43.74 135.711 43.3933 136.891 42.94 138.011C42.5 139.131 41.9667 140.064 41.34 140.811C41.2333 140.691 41.0867 140.544 40.9 140.371C40.7133 140.184 40.52 140.004 40.32 139.831C40.12 139.658 39.94 139.524 39.78 139.431C40.34 138.791 40.8 138.004 41.16 137.071C41.52 136.124 41.7867 135.131 41.96 134.091ZM45.12 136.631L47.24 136.831C46.8667 139.124 46.1933 141.024 45.22 142.531C44.2467 144.038 42.9 145.238 41.18 146.131C41.1 145.984 40.9733 145.804 40.8 145.591C40.64 145.378 40.4667 145.164 40.28 144.951C40.0933 144.751 39.9267 144.591 39.78 144.471C41.38 143.764 42.6067 142.764 43.46 141.471C44.3133 140.178 44.8667 138.564 45.12 136.631ZM42.96 137.631C43.2667 138.618 43.6667 139.551 44.16 140.431C44.6667 141.311 45.2733 142.084 45.98 142.751C46.7 143.418 47.5133 143.938 48.42 144.311C48.18 144.524 47.9133 144.811 47.62 145.171C47.34 145.544 47.12 145.878 46.96 146.171C46 145.664 45.1533 145.011 44.42 144.211C43.6867 143.411 43.06 142.484 42.54 141.431C42.02 140.364 41.5867 139.218 41.24 137.991L42.96 137.631ZM31.88 131.951H47.76V133.891H31.88V131.951ZM30.78 131.951H32.96V136.591C32.96 137.284 32.9333 138.051 32.88 138.891C32.84 139.718 32.7533 140.564 32.62 141.431C32.4867 142.298 32.2867 143.138 32.02 143.951C31.7667 144.764 31.4267 145.498 31 146.151C30.88 146.018 30.7067 145.858 30.48 145.671C30.2533 145.498 30.02 145.324 29.78 145.151C29.5533 144.991 29.3533 144.871 29.18 144.791C29.6733 143.991 30.0333 143.111 30.26 142.151C30.4867 141.178 30.6267 140.211 30.68 139.251C30.7467 138.278 30.78 137.384 30.78 136.571V131.951ZM33.96 129.211V130.091H36.22V129.211H33.96ZM31.86 127.991H38.44V131.331H31.86V127.991ZM41.9 129.211V130.091H44.22V129.211H41.9ZM39.8 127.991H46.44V131.331H39.8V127.991ZM50.12 143.611H68.34V145.511H50.12V143.611ZM50.24 130.851H68.2V132.731H50.24V130.851ZM51.6 140.751H67.04V142.571H51.6V140.751ZM57.9 129.171H60.32V144.571H57.9V129.171ZM65.24 127.311L66.36 129.171C65.3867 129.331 64.32 129.471 63.16 129.591C62.0133 129.698 60.82 129.791 59.58 129.871C58.34 129.951 57.0933 130.018 55.84 130.071C54.5867 130.111 53.38 130.138 52.22 130.151C52.2067 129.871 52.1467 129.558 52.04 129.211C51.9333 128.851 51.8333 128.544 51.74 128.291C52.9 128.264 54.0933 128.224 55.32 128.171C56.56 128.118 57.7733 128.051 58.96 127.971C60.16 127.891 61.2933 127.798 62.36 127.691C63.44 127.571 64.4 127.444 65.24 127.311ZM54.6 137.391V138.291H63.84V137.391H54.6ZM54.6 135.071V135.951H63.84V135.071H54.6ZM52.26 133.491H66.28V139.871H52.26V133.491ZM71.3 137.671H80.84V139.751H71.3V137.671ZM74.96 135.871H77.24V143.971H74.96V135.871ZM70.62 143.111C71.5 142.991 72.5067 142.844 73.64 142.671C74.7867 142.484 75.9933 142.284 77.26 142.071C78.54 141.858 79.8067 141.644 81.06 141.431L81.2 143.491C80.0133 143.704 78.82 143.924 77.62 144.151C76.4333 144.378 75.2867 144.591 74.18 144.791C73.0733 144.991 72.06 145.171 71.14 145.331L70.62 143.111ZM70.82 128.471H81.28V130.551H70.82V128.471ZM76.7 131.531L78.4 130.511C78.76 130.951 79.12 131.431 79.48 131.951C79.8533 132.471 80.1933 132.978 80.5 133.471C80.82 133.964 81.0667 134.418 81.24 134.831L79.4 136.011C79.2533 135.598 79.0267 135.138 78.72 134.631C78.4267 134.111 78.1 133.584 77.74 133.051C77.3933 132.504 77.0467 131.998 76.7 131.531ZM82.06 129.171H84.26V141.311H82.06V129.171ZM85.88 127.511H88.22V143.071C88.22 143.698 88.1467 144.178 88 144.511C87.8667 144.858 87.6067 145.131 87.22 145.331C86.8333 145.504 86.3533 145.618 85.78 145.671C85.2067 145.738 84.5333 145.771 83.76 145.771C83.7067 145.451 83.5933 145.064 83.42 144.611C83.26 144.171 83.0933 143.798 82.92 143.491C83.4533 143.504 83.96 143.518 84.44 143.531C84.92 143.531 85.2467 143.524 85.42 143.511C85.6067 143.511 85.7267 143.484 85.78 143.431C85.8467 143.364 85.88 143.244 85.88 143.071V127.511ZM71.96 135.811C71.9067 135.651 71.8333 135.444 71.74 135.191C71.66 134.924 71.5667 134.651 71.46 134.371C71.3667 134.091 71.2733 133.851 71.18 133.651C71.34 133.598 71.5 133.498 71.66 133.351C71.82 133.204 71.98 133.018 72.14 132.791C72.2333 132.631 72.3867 132.364 72.6 131.991C72.8267 131.618 73.06 131.178 73.3 130.671C73.54 130.151 73.7467 129.618 73.92 129.071L76.24 129.931C76 130.478 75.7067 131.038 75.36 131.611C75.0267 132.184 74.6733 132.731 74.3 133.251C73.94 133.771 73.5867 134.231 73.24 134.631V134.671C73.24 134.671 73.1733 134.711 73.04 134.791C72.92 134.858 72.7733 134.951 72.6 135.071C72.4267 135.191 72.2733 135.318 72.14 135.451C72.02 135.584 71.96 135.704 71.96 135.811ZM71.96 135.811L71.9 134.151L73 133.471L79.06 133.071C79.1933 133.391 79.3533 133.724 79.54 134.071C79.74 134.418 79.9067 134.711 80.04 134.951C78.7333 135.058 77.6333 135.151 76.74 135.231C75.8467 135.298 75.1133 135.358 74.54 135.411C73.98 135.464 73.5333 135.511 73.2 135.551C72.8667 135.591 72.6067 135.631 72.42 135.671C72.2333 135.711 72.08 135.758 71.96 135.811ZM92.06 128.131H107.84V129.851H92.06V128.131ZM98.76 128.711H101.1V136.431H98.76V128.711ZM91.18 130.771H108.86V135.311H106.46V132.551H93.46V135.311H91.18V130.771ZM93.28 135.351C93.92 135.284 94.6533 135.191 95.48 135.071C96.32 134.938 97.1867 134.804 98.08 134.671L98.16 136.031C97.4133 136.204 96.6733 136.378 95.94 136.551C95.22 136.724 94.5333 136.878 93.88 137.011L93.28 135.351ZM93.94 133.691L94.58 132.511C94.9533 132.578 95.3533 132.658 95.78 132.751C96.22 132.844 96.64 132.951 97.04 133.071C97.44 133.178 97.7733 133.284 98.04 133.391L97.42 134.691C97.1533 134.584 96.82 134.471 96.42 134.351C96.02 134.218 95.6 134.091 95.16 133.971C94.7333 133.851 94.3267 133.758 93.94 133.691ZM105.18 132.351L106.1 133.591C105.74 133.724 105.347 133.858 104.92 133.991C104.493 134.111 104.067 134.224 103.64 134.331C103.227 134.424 102.853 134.498 102.52 134.551L101.76 133.431C102.107 133.351 102.487 133.251 102.9 133.131C103.313 132.998 103.72 132.858 104.12 132.711C104.533 132.564 104.887 132.444 105.18 132.351ZM101.44 135.831L101.9 134.491C102.407 134.544 102.947 134.624 103.52 134.731C104.107 134.838 104.667 134.958 105.2 135.091C105.733 135.224 106.187 135.351 106.56 135.471L106.12 136.971C105.76 136.838 105.307 136.704 104.76 136.571C104.227 136.424 103.667 136.284 103.08 136.151C102.507 136.018 101.96 135.911 101.44 135.831ZM91.1 136.971H108.92V138.831H91.1V136.971ZM96.9 141.131H99.06V145.931H96.9V141.131ZM101.2 141.131H103.36V145.931H101.2V141.131ZM92.58 139.791H106.06V141.671H94.86V146.011H92.58V139.791ZM105.56 139.791H107.86V143.891C107.86 144.371 107.807 144.751 107.7 145.031C107.607 145.324 107.393 145.551 107.06 145.711C106.753 145.871 106.387 145.964 105.96 145.991C105.547 146.031 105.073 146.051 104.54 146.051C104.5 145.744 104.407 145.404 104.26 145.031C104.113 144.671 103.973 144.358 103.84 144.091C104.133 144.104 104.42 144.111 104.7 144.111C104.98 144.111 105.173 144.111 105.28 144.111C105.387 144.111 105.46 144.098 105.5 144.071C105.54 144.031 105.56 143.964 105.56 143.871V139.791ZM98.82 137.711L101.46 137.731C101.26 138.344 101.047 138.931 100.82 139.491C100.607 140.038 100.407 140.518 100.22 140.931L98.12 140.751C98.28 140.298 98.42 139.791 98.54 139.231C98.6733 138.671 98.7667 138.164 98.82 137.711ZM111.28 138.671H129.54V140.651H111.28V138.671ZM111.6 128.011H129.1V130.091H111.6V128.011ZM124.36 137.551L126.7 138.131C126.207 139.584 125.56 140.798 124.76 141.771C123.96 142.731 122.973 143.504 121.8 144.091C120.627 144.678 119.24 145.124 117.64 145.431C116.053 145.738 114.227 145.971 112.16 146.131C112.08 145.771 111.96 145.398 111.8 145.011C111.64 144.638 111.46 144.318 111.26 144.051C113.18 143.971 114.867 143.818 116.32 143.591C117.773 143.351 119.027 142.998 120.08 142.531C121.133 142.051 122.007 141.411 122.7 140.611C123.407 139.798 123.96 138.778 124.36 137.551ZM113.58 142.591L115.4 141.071C116.667 141.284 117.947 141.531 119.24 141.811C120.533 142.078 121.787 142.358 123 142.651C124.227 142.931 125.373 143.218 126.44 143.511C127.507 143.791 128.46 144.064 129.3 144.331L127.14 146.011C126.153 145.651 124.947 145.264 123.52 144.851C122.093 144.451 120.533 144.058 118.84 143.671C117.147 143.271 115.393 142.911 113.58 142.591ZM116.88 128.811H119.14V135.651H116.88V128.811ZM121.4 128.811H123.68V135.651H121.4V128.811ZM114.78 133.111V134.971H126.08V133.111H114.78ZM112.52 131.211H128.46V136.851H112.52V131.211ZM113.58 142.591C114.02 142.084 114.473 141.504 114.94 140.851C115.42 140.198 115.873 139.524 116.3 138.831C116.74 138.124 117.113 137.444 117.42 136.791L119.8 137.331C119.507 137.958 119.153 138.598 118.74 139.251C118.34 139.891 117.927 140.504 117.5 141.091C117.087 141.678 116.707 142.184 116.36 142.611L113.58 142.591ZM142.34 127.631H144.7V146.091H142.34V127.631ZM137.22 132.171H149.96V134.491H137.22V132.171ZM145.2 132.911C145.467 133.751 145.787 134.591 146.16 135.431C146.533 136.271 146.953 137.084 147.42 137.871C147.887 138.658 148.387 139.384 148.92 140.051C149.453 140.718 150 141.291 150.56 141.771C150.373 141.918 150.16 142.104 149.92 142.331C149.693 142.544 149.473 142.771 149.26 143.011C149.06 143.251 148.893 143.484 148.76 143.711C148.187 143.124 147.633 142.451 147.1 141.691C146.567 140.918 146.067 140.084 145.6 139.191C145.133 138.284 144.707 137.344 144.32 136.371C143.947 135.398 143.607 134.418 143.3 133.431L145.2 132.911ZM141.94 132.991L144 133.591C143.573 134.924 143.053 136.231 142.44 137.511C141.84 138.778 141.167 139.951 140.42 141.031C139.687 142.111 138.9 143.038 138.06 143.811C137.927 143.611 137.753 143.391 137.54 143.151C137.327 142.911 137.107 142.684 136.88 142.471C136.667 142.244 136.467 142.058 136.28 141.911C137.08 141.271 137.84 140.471 138.56 139.511C139.28 138.538 139.933 137.491 140.52 136.371C141.107 135.238 141.58 134.111 141.94 132.991ZM136.12 127.411L138.5 128.171C138.033 129.344 137.48 130.518 136.84 131.691C136.2 132.851 135.5 133.944 134.74 134.971C133.993 135.984 133.22 136.878 132.42 137.651C132.34 137.451 132.213 137.191 132.04 136.871C131.88 136.551 131.707 136.231 131.52 135.911C131.333 135.578 131.167 135.311 131.02 135.111C131.7 134.498 132.353 133.784 132.98 132.971C133.62 132.144 134.207 131.258 134.74 130.311C135.287 129.364 135.747 128.398 136.12 127.411ZM134.06 133.171L136.4 130.831L136.44 130.871V146.051H134.06V133.171ZM157.14 133.511V134.451H165.08V133.511H157.14ZM157.14 136.171V137.091H165.08V136.171H157.14ZM157.14 130.891V131.811H165.08V130.891H157.14ZM154.82 129.071H167.5V138.931H154.82V129.071ZM159.96 127.091L162.88 127.451C162.653 127.918 162.42 128.358 162.18 128.771C161.94 129.184 161.727 129.544 161.54 129.851L159.34 129.411C159.46 129.051 159.58 128.658 159.7 128.231C159.82 127.804 159.907 127.424 159.96 127.091ZM156.24 140.151H158.68V142.891C158.68 143.184 158.76 143.371 158.92 143.451C159.08 143.518 159.453 143.551 160.04 143.551C160.133 143.551 160.287 143.551 160.5 143.551C160.727 143.551 160.98 143.551 161.26 143.551C161.54 143.551 161.82 143.551 162.1 143.551C162.38 143.551 162.64 143.551 162.88 143.551C163.12 143.551 163.307 143.551 163.44 143.551C163.76 143.551 164 143.504 164.16 143.411C164.32 143.318 164.433 143.118 164.5 142.811C164.58 142.491 164.633 142.018 164.66 141.391C164.833 141.511 165.047 141.631 165.3 141.751C165.567 141.858 165.84 141.958 166.12 142.051C166.4 142.131 166.647 142.198 166.86 142.251C166.767 143.184 166.607 143.904 166.38 144.411C166.167 144.918 165.84 145.264 165.4 145.451C164.973 145.638 164.38 145.731 163.62 145.731C163.487 145.731 163.293 145.731 163.04 145.731C162.787 145.731 162.5 145.731 162.18 145.731C161.86 145.731 161.54 145.731 161.22 145.731C160.9 145.731 160.607 145.731 160.34 145.731C160.087 145.731 159.907 145.731 159.8 145.731C158.853 145.731 158.12 145.644 157.6 145.471C157.093 145.311 156.74 145.024 156.54 144.611C156.34 144.198 156.24 143.631 156.24 142.911V140.151ZM159.48 139.551L161.32 138.531C161.64 138.811 161.96 139.131 162.28 139.491C162.613 139.851 162.913 140.211 163.18 140.571C163.447 140.931 163.66 141.264 163.82 141.571L161.86 142.711C161.727 142.404 161.527 142.071 161.26 141.711C161.007 141.338 160.72 140.964 160.4 140.591C160.093 140.204 159.787 139.858 159.48 139.551ZM166.04 140.331L168.18 139.451C168.487 139.891 168.787 140.371 169.08 140.891C169.373 141.398 169.633 141.898 169.86 142.391C170.1 142.871 170.28 143.318 170.4 143.731L168.1 144.731C168.007 144.331 167.853 143.878 167.64 143.371C167.427 142.864 167.18 142.351 166.9 141.831C166.62 141.298 166.333 140.798 166.04 140.331ZM153.72 139.831L155.84 140.711C155.68 141.164 155.5 141.658 155.3 142.191C155.1 142.724 154.893 143.244 154.68 143.751C154.467 144.244 154.247 144.698 154.02 145.111L151.8 144.031C152.04 143.658 152.273 143.231 152.5 142.751C152.74 142.271 152.967 141.778 153.18 141.271C153.393 140.764 153.573 140.284 153.72 139.831Z" fill="#264964"/>
<defs>
<clipPath id="clip0_37_1079">
<rect width="80" height="48.4573" fill="white" transform="translate(60 46.0625)"/>
</clipPath>
</defs>
</svg>
