<svg width="250" height="181" viewBox="0 0 250 181" fill="none" xmlns="http://www.w3.org/2000/svg">
<rect y="0.291016" width="250" height="180" rx="20" fill="white"/>
<g clip-path="url(#clip0_37_1101)">
<g clip-path="url(#clip1_37_1101)">
<path d="M34.1097 82.8831C33.4047 82.8831 32.8355 82.3885 32.8355 81.7757V76.7403C32.8355 76.1275 33.4047 75.6328 34.1097 75.6328C34.8148 75.6328 35.3839 76.1275 35.3839 76.7403V81.7757C35.3839 82.3885 34.8148 82.8831 34.1097 82.8831Z" fill="#C3DCD9"/>
<path d="M34.1097 96.2176C33.4047 96.2176 32.8355 95.7229 32.8355 95.1101V90.0748C32.8355 89.462 33.4047 88.9673 34.1097 88.9673C34.8148 88.9673 35.3839 89.462 35.3839 90.0748V95.1101C35.3839 95.7229 34.8148 96.2176 34.1097 96.2176Z" fill="#C3DCD9"/>
<path d="M37.4906 84.0939C37.1678 84.0939 36.8365 83.9831 36.5902 83.769C36.089 83.3334 36.089 82.632 36.5902 82.2038L40.6846 78.6451C41.1858 78.2095 41.9928 78.2095 42.4855 78.6451C42.9781 79.0807 42.9866 79.7821 42.4855 80.2103L38.391 83.769C38.1447 83.9831 37.8134 84.0939 37.4906 84.0939Z" fill="#C3DCD9"/>
<path d="M26.6344 93.5299C26.3116 93.5299 25.9803 93.4192 25.734 93.2051C25.2328 92.7695 25.2328 92.068 25.734 91.6398L29.8284 88.0811C30.3296 87.6455 31.1366 87.6455 31.6293 88.0811C32.122 88.5167 32.1305 89.2181 31.6293 89.6463L27.5349 93.2051C27.2885 93.4192 26.9572 93.5299 26.6344 93.5299Z" fill="#C3DCD9"/>
<path d="M44.6771 87.0328H38.8837C38.1787 87.0328 37.6095 86.5382 37.6095 85.9254C37.6095 85.3125 38.1787 84.8179 38.8837 84.8179H44.6771C45.3821 84.8179 45.9513 85.3125 45.9513 85.9254C45.9513 86.5382 45.3821 87.0328 44.6771 87.0328Z" fill="#C3DCD9"/>
<path d="M29.3357 87.0328H23.5424C22.8373 87.0328 22.2682 86.5382 22.2682 85.9254C22.2682 85.3125 22.8373 84.8179 23.5424 84.8179H29.3357C30.0408 84.8179 30.6099 85.3125 30.6099 85.9254C30.6099 86.5382 30.0408 87.0328 29.3357 87.0328Z" fill="#C3DCD9"/>
<path d="M41.585 93.5301C41.2622 93.5301 40.9309 93.4193 40.6846 93.2052L36.5902 89.6465C36.089 89.2109 36.089 88.5095 36.5902 88.0813C37.0914 87.653 37.8983 87.6457 38.391 88.0813L42.4855 91.64C42.9866 92.0756 42.9866 92.777 42.4855 93.2052C42.2391 93.4193 41.9078 93.5301 41.585 93.5301Z" fill="#C3DCD9"/>
<path d="M30.7289 84.0941C30.4061 84.0941 30.0748 83.9833 29.8284 83.7692L25.734 80.2105C25.2328 79.7749 25.2328 79.0735 25.734 78.6452C26.2352 78.217 27.0422 78.2096 27.5349 78.6452L31.6293 82.2039C32.1305 82.6396 32.1305 83.341 31.6293 83.7692C31.3829 83.9833 31.0517 84.0941 30.7289 84.0941Z" fill="#C3DCD9"/>
<path d="M91.1089 49.0386C90.4038 49.0386 89.8347 48.5439 89.8347 47.9311V43.1837C89.8347 42.5708 90.4038 42.0762 91.1089 42.0762C91.8139 42.0762 92.3831 42.5708 92.3831 43.1837V47.9311C92.3831 48.5439 91.8139 49.0386 91.1089 49.0386Z" fill="#C3DCD9"/>
<path d="M91.1089 61.6269C90.4038 61.6269 89.8347 61.1323 89.8347 60.5194V55.772C89.8347 55.1592 90.4038 54.6646 91.1089 54.6646C91.8139 54.6646 92.3831 55.1592 92.3831 55.772V60.5194C92.3831 61.1323 91.8139 61.6269 91.1089 61.6269Z" fill="#C3DCD9"/>
<path d="M94.3029 50.1904C93.9801 50.1904 93.6488 50.0797 93.4024 49.8656C92.9012 49.43 92.9012 48.7286 93.4024 48.3003L97.2675 44.941C97.7687 44.5054 98.5757 44.5054 99.0684 44.941C99.5611 45.3766 99.5695 46.078 99.0684 46.5062L95.2033 49.8656C94.9569 50.0797 94.6257 50.1904 94.3029 50.1904Z" fill="#C3DCD9"/>
<path d="M84.0583 59.0869C83.7355 59.0869 83.4042 58.9762 83.1579 58.7621C82.6567 58.3265 82.6567 57.625 83.1579 57.1968L87.0229 53.8374C87.5241 53.4018 88.3311 53.4018 88.8238 53.8374C89.3165 54.2731 89.325 54.9745 88.8238 55.4027L84.9587 58.7621C84.7124 58.9762 84.3811 59.0869 84.0583 59.0869Z" fill="#C3DCD9"/>
<path d="M101.082 52.9591H95.6195C94.9145 52.9591 94.3453 52.4644 94.3453 51.8516C94.3453 51.2388 94.9145 50.7441 95.6195 50.7441H101.082C101.787 50.7441 102.356 51.2388 102.356 51.8516C102.356 52.4644 101.787 52.9591 101.082 52.9591Z" fill="#C3DCD9"/>
<path d="M86.5982 52.9591H81.1361C80.4311 52.9591 79.8619 52.4644 79.8619 51.8516C79.8619 51.2388 80.4311 50.7441 81.1361 50.7441H86.5982C87.3033 50.7441 87.8724 51.2388 87.8724 51.8516C87.8724 52.4644 87.3033 52.9591 86.5982 52.9591Z" fill="#C3DCD9"/>
<path d="M98.1594 59.0944C97.8366 59.0944 97.5053 58.9837 97.259 58.7696L93.3939 55.4102C92.8928 54.9746 92.8928 54.2732 93.3939 53.8449C93.8951 53.4167 94.7021 53.4093 95.1948 53.8449L99.0599 57.2043C99.5611 57.6399 99.5611 58.3413 99.0599 58.7696C98.8135 58.9837 98.4822 59.0944 98.1594 59.0944Z" fill="#C3DCD9"/>
<path d="M87.9234 50.1901C87.6006 50.1901 87.2693 50.0794 87.0229 49.8653L83.1579 46.5059C82.6567 46.0703 82.6567 45.3689 83.1579 44.9406C83.6591 44.5124 84.4661 44.505 84.9587 44.9406L88.8238 48.3C89.325 48.7356 89.325 49.437 88.8238 49.8653C88.5775 50.0794 88.2462 50.1901 87.9234 50.1901Z" fill="#C3DCD9"/>
<path d="M52.0929 71.4687C50.2581 71.4687 48.3977 71.07 46.6903 70.2283C42.3326 68.0872 40.795 63.2659 43.2585 59.4857C45.2972 56.3479 49.8843 55.2404 53.4945 57.0123C54.9471 57.7285 56.0005 58.8951 56.4507 60.2979C56.9009 61.7007 56.6885 63.17 55.8645 64.4325C55.1765 65.4957 54.0467 66.2635 52.6875 66.5884C51.3369 66.9133 49.9098 66.7656 48.6866 66.1602C48.0749 65.8575 47.8541 65.1856 48.2024 64.654C48.5506 64.1224 49.3322 63.9378 49.9353 64.2331C50.5639 64.5432 51.3029 64.6245 51.9995 64.4546C52.696 64.2848 53.2822 63.8935 53.6389 63.3398C54.1316 62.5867 54.2506 61.7155 53.9872 60.8885C53.7239 60.0616 53.0953 59.3676 52.2373 58.9394C49.8588 57.7728 46.8177 58.5038 45.4756 60.5711C44.6176 61.8927 44.4053 63.421 44.8725 64.8755C45.3397 66.3374 46.4355 67.5482 47.9475 68.2939C52.0165 70.2948 57.1982 69.0396 59.4918 65.5031C62.4479 60.9476 60.5961 55.1518 55.3634 52.5824C53.503 51.6669 51.4813 51.1501 49.3661 51.0319C48.6611 50.995 48.1259 50.4708 48.1769 49.858C48.2194 49.2452 48.7885 48.7874 49.5275 48.8243C52.0335 48.9572 54.4204 49.5774 56.6206 50.6554C63.0765 53.8302 65.3616 60.9771 61.7174 66.5958C59.6956 69.7115 55.9495 71.4613 52.1014 71.4613L52.0929 71.4687Z" fill="#C3DCD9"/>
<path d="M84.6954 98.5061C77.3985 98.5061 70.3224 95.1098 66.6358 89.1441C62.295 82.1301 65.3361 73.3514 73.4145 69.5786C79.9979 66.5072 88.2292 68.6631 91.763 74.3851C93.1646 76.6517 93.4704 79.2654 92.6124 81.7314C91.7545 84.1974 89.8517 86.2278 87.2353 87.446C82.8011 89.5207 77.2541 88.0662 74.8671 84.2121C72.8963 81.0226 74.281 77.0283 77.9506 75.3153C78.5708 75.0274 79.3438 75.2267 79.6751 75.7657C80.0064 76.3047 79.777 76.9766 79.1569 77.2645C76.7189 78.4015 75.8015 81.0447 77.1097 83.1637C78.8256 85.9398 82.8266 86.9882 86.0291 85.4968C90.1829 83.555 91.746 79.0439 89.5119 75.4335C86.6407 70.7894 79.9554 69.0396 74.6122 71.5351C67.774 74.7247 65.2002 82.1596 68.8784 88.1031C71.1464 91.7652 74.9096 94.4453 79.4882 95.6414C84.0668 96.8375 88.9172 96.4166 93.1306 94.4527C96.1972 93.0203 98.7795 91.0638 100.793 88.6273C101.209 88.1326 101.999 88.0219 102.568 88.3763C103.137 88.738 103.265 89.4247 102.857 89.9194C100.606 92.629 97.7432 94.8071 94.3283 96.4018C91.2533 97.8342 87.9489 98.5134 84.6784 98.5134L84.6954 98.5061Z" fill="#C3DCD9"/>
</g>
<path d="M224.38 53.5206C222.52 52.5306 220.38 52.2506 218.29 52.0006C213.86 51.4506 209.43 50.9106 205 50.3606C197.95 49.4806 190.81 48.6006 183.71 48.6006C176.14 48.6006 168.41 49.8506 160.87 50.5206C156.37 50.9206 151.87 51.3306 147.36 51.7306C145.94 51.8606 144.48 51.9906 143.19 52.5906C141.89 53.1906 140.76 54.3506 140.6 55.7706C140.38 57.6907 141.92 59.3507 142.33 61.2407C142.97 64.1707 140.75 67.0507 138.12 68.4807C135.48 69.9107 132.44 70.3407 129.62 71.3607C126.8 72.3808 123.98 74.2808 123.27 77.2008C122.63 79.8608 124 82.7108 126.12 84.4308C128.24 86.1509 130.99 86.9209 133.7 87.3009C142.25 88.5109 150.98 86.3509 159.57 87.1909C166.28 87.8409 172.68 90.3009 179.33 91.3709C189.97 93.0909 201.17 91.1409 210.6 85.9109C212.71 84.7408 215.01 82.8308 214.59 80.4508C214.22 78.4208 212.07 77.3308 210.27 76.3108C208.47 75.2908 206.59 73.4308 207.25 71.4708C207.71 70.0907 209.23 69.4207 210.59 68.9007C213.97 67.6107 217.36 66.3307 220.74 65.0407C223.92 63.8307 227.66 61.8807 227.73 58.4807C227.77 56.3706 226.24 54.4906 224.38 53.5006V53.5206ZM141.19 81.0008H135.45V75.2208H146.93V78.1008V80.9908H141.19V81.0008ZM161.36 75.2308H153.39V71.2507H161.36V75.2308ZM163.11 62.1907H151.63V59.3007V56.4106H163.11V62.1907ZM173.59 66.3107H181.56V70.2907H173.59V66.3107ZM189.06 84.6308H177.58V78.8608H189.06V84.6308ZM189.44 57.2406H181.47V53.2606H189.44V57.2406ZM202.85 78.4608H194.88V74.4808H202.85V78.4608ZM205.07 61.2807V64.1707H193.59V58.3907H205.07V61.2807Z" fill="#C3DCD9"/>
<path d="M151.632 59.3007C151.632 57.7107 154.202 56.4106 157.372 56.4106C160.542 56.4106 163.112 57.7007 163.112 59.3007C163.112 60.9007 160.552 62.1907 157.382 62.1907H163.112V56.4106H151.632V59.3007Z" fill="#C3DCD9"/>
<path d="M151.632 59.3008V62.1908H157.362C154.202 62.1908 151.632 60.9008 151.632 59.3008Z" fill="#C3DCD9"/>
<path d="M177.581 81.7411C177.581 80.1511 180.141 78.8611 183.291 78.8511H177.571V84.6212H183.291C180.131 84.6212 177.571 83.3211 177.571 81.7311L177.581 81.7411Z" fill="#C3DCD9"/>
<path d="M161.162 72.6107L159.262 74.9208C159.102 75.1108 158.862 75.2208 158.622 75.2208H161.362V71.2407H160.532C161.232 71.2407 161.622 72.0607 161.172 72.6107H161.162Z" fill="#C3DCD9"/>
<path d="M181.571 66.3105H180.731C181.441 66.3105 181.821 67.1306 181.381 67.6806L179.481 69.9906C179.321 70.1806 179.081 70.2906 178.831 70.2906H174.441C173.731 70.2906 173.351 69.4706 173.791 68.9206L175.691 66.6106C175.851 66.4205 176.091 66.3105 176.341 66.3105H173.601V70.2906H181.571V66.3105Z" fill="#C3DCD9"/>
<path d="M141.192 81.0006H146.932V78.1206C146.932 79.7106 144.362 81.0006 141.192 81.0006Z" fill="#C3DCD9"/>
<path d="M146.932 78.111V75.231H141.192C144.362 75.231 146.922 76.521 146.932 78.111Z" fill="#C3DCD9"/>
<path d="M135.452 78.1107C135.452 76.5207 138.022 75.2207 141.192 75.2207H135.452V81.0008H141.192C138.022 81.0008 135.452 79.7108 135.452 78.1107Z" fill="#C3DCD9"/>
<path d="M153.582 73.861L155.482 71.551C155.642 71.361 155.872 71.251 156.122 71.251H153.382V75.231H154.222C153.512 75.231 153.132 74.411 153.582 73.861Z" fill="#C3DCD9"/>
<path d="M189.061 81.7404C189.061 83.3304 186.501 84.6204 183.341 84.6304H189.061V78.8604H183.341C186.501 78.8604 189.061 80.1604 189.061 81.7504V81.7404Z" fill="#C3DCD9"/>
<path d="M205.071 61.2807V58.3906H199.351C202.511 58.3906 205.071 59.6906 205.071 61.2807Z" fill="#C3DCD9"/>
<path d="M193.591 61.2808V64.1708H199.311C196.151 64.1708 193.591 62.8708 193.591 61.2808Z" fill="#C3DCD9"/>
<path d="M199.301 58.3906H193.591V61.2807C193.591 59.6906 196.151 58.4006 199.301 58.3906Z" fill="#C3DCD9"/>
<path d="M199.341 64.1708H205.071V61.2808C205.071 62.8708 202.511 64.1608 199.341 64.1708Z" fill="#C3DCD9"/>
<path d="M202.661 75.8407L200.761 78.1508C200.601 78.3408 200.361 78.4508 200.111 78.4508H202.851V74.4707H202.021C202.721 74.4707 203.111 75.2907 202.661 75.8407Z" fill="#C3DCD9"/>
<path d="M195.071 77.0915L196.971 74.7815C197.131 74.5914 197.361 74.4814 197.611 74.4814H194.871V78.4615H195.711C195.001 78.4615 194.621 77.6415 195.061 77.0915H195.071Z" fill="#C3DCD9"/>
<path d="M189.251 54.6205L187.351 56.9305C187.191 57.1205 186.951 57.2305 186.701 57.2305H182.311C181.601 57.2305 181.221 56.4105 181.661 55.8605L183.561 53.5505C183.721 53.3605 183.951 53.2505 184.201 53.2505H181.461V57.2305H189.431V53.2505H188.591C189.291 53.2505 189.681 54.0705 189.231 54.6205H189.251Z" fill="#C3DCD9"/>
<path d="M163.112 59.3007C163.112 57.7107 160.542 56.4106 157.372 56.4106C154.202 56.4106 151.632 57.7007 151.632 59.3007C151.632 60.9007 154.192 62.1907 157.362 62.1907H157.382C160.552 62.1907 163.112 60.9007 163.112 59.3007Z" fill="white"/>
<path d="M189.061 81.7411C189.061 80.1511 186.501 78.8611 183.341 78.8511H183.291C180.131 78.8511 177.581 80.1511 177.581 81.7411C177.581 83.3311 180.141 84.6212 183.301 84.6312H183.331C186.491 84.6312 189.051 83.3311 189.051 81.7411H189.061Z" fill="white"/>
<path d="M199.351 58.3906H199.301C196.141 58.3906 193.591 59.6906 193.591 61.2807C193.591 62.8707 196.151 64.1607 199.311 64.1707H199.341C202.501 64.1707 205.071 62.8707 205.071 61.2807C205.071 59.6906 202.511 58.4006 199.351 58.3906Z" fill="white"/>
<path d="M146.932 78.121C146.932 76.521 144.362 75.231 141.192 75.231C138.022 75.231 135.452 76.521 135.452 78.121C135.452 79.721 138.022 81.011 141.192 81.011C144.362 81.011 146.922 79.721 146.932 78.131V78.121Z" fill="white"/>
<path d="M161.162 72.6107C161.612 72.0707 161.222 71.2507 160.522 71.2407H156.122C155.872 71.2407 155.642 71.3507 155.482 71.5407L153.582 73.8508C153.132 74.4008 153.522 75.2208 154.222 75.2208H158.622C158.872 75.2208 159.112 75.1108 159.262 74.9208L161.162 72.6107Z" fill="white"/>
<path d="M181.661 55.8708C181.211 56.4208 181.601 57.2408 182.311 57.2408H186.701C186.951 57.2408 187.191 57.1308 187.351 56.9408L189.251 54.6308C189.701 54.0908 189.311 53.2607 188.611 53.2607H184.211C183.961 53.2607 183.721 53.3707 183.571 53.5607L181.671 55.8708H181.661Z" fill="white"/>
<path d="M173.791 68.9206C173.341 69.4706 173.731 70.2906 174.441 70.2906H178.831C179.081 70.2906 179.321 70.1806 179.481 69.9906L181.381 67.6806C181.831 67.1406 181.441 66.3105 180.731 66.3105H176.341C176.091 66.3105 175.851 66.4205 175.691 66.6106L173.791 68.9206Z" fill="white"/>
<path d="M202.661 75.8407C203.111 75.3007 202.721 74.4807 202.021 74.4707H197.621C197.371 74.4707 197.141 74.5807 196.981 74.7707L195.081 77.0807C194.631 77.6307 195.021 78.4508 195.731 78.4508H200.121C200.371 78.4508 200.611 78.3408 200.771 78.1508L202.671 75.8407H202.661Z" fill="white"/>
</g>
<path d="M79.24 134.571V137.071H89.06V134.571H79.24ZM77.24 133.071H91.18V138.551H77.24V133.071ZM80.66 130.831H87.74V132.391H80.66V130.831ZM83.14 133.591H85.08V137.811H83.14V133.591ZM79.94 134.991L81.58 134.551C81.7667 134.884 81.9333 135.251 82.08 135.651C82.2267 136.051 82.3267 136.398 82.38 136.691L80.64 137.211C80.6 136.904 80.5133 136.544 80.38 136.131C80.2467 135.718 80.1 135.338 79.94 134.991ZM86.56 134.471L88.54 134.951C88.3133 135.378 88.1 135.791 87.9 136.191C87.7133 136.591 87.5333 136.931 87.36 137.211L85.74 136.751C85.8867 136.431 86.04 136.051 86.2 135.611C86.36 135.171 86.48 134.791 86.56 134.471ZM78.34 139.211H90.18V146.011H87.7V140.771H80.7V146.071H78.34V139.211ZM79.68 141.571H88.72V143.131H79.68V141.571ZM79.7 143.971H88.72V145.531H79.7V143.971ZM83.78 127.131L85.9 127.891C85.18 128.824 84.2867 129.671 83.22 130.431C82.1667 131.191 81.02 131.858 79.78 132.431C78.54 133.004 77.2733 133.484 75.98 133.871C75.9 133.711 75.7867 133.518 75.64 133.291C75.4933 133.051 75.3333 132.818 75.16 132.591C74.9867 132.351 74.8333 132.158 74.7 132.011C75.94 131.718 77.14 131.338 78.3 130.871C79.46 130.404 80.5133 129.858 81.46 129.231C82.42 128.591 83.1933 127.891 83.78 127.131ZM85.36 128.051C85.8133 128.478 86.3533 128.884 86.98 129.271C87.62 129.658 88.32 130.018 89.08 130.351C89.84 130.684 90.6333 130.978 91.46 131.231C92.2867 131.484 93.1133 131.698 93.94 131.871C93.7 132.084 93.4267 132.378 93.12 132.751C92.8267 133.111 92.6 133.431 92.44 133.711C91.6 133.498 90.76 133.224 89.92 132.891C89.0933 132.558 88.2933 132.178 87.52 131.751C86.7467 131.324 86.0267 130.858 85.36 130.351C84.6933 129.844 84.1 129.311 83.58 128.751L85.36 128.051ZM97.02 128.931H100.82V140.891H97.02V138.751H98.96V131.071H97.02V128.931ZM95.8 128.931H97.64V142.351H95.8V128.931ZM101.56 128.011H113.68V129.971H101.56V128.011ZM101.32 137.471H113.98V139.431H101.32V137.471ZM108.18 128.931H110.32V131.971H108.18V128.931ZM104.76 128.931H106.88V131.971H104.76V128.931ZM106.86 131.371V133.031H104.08V134.271H106.86V135.931H102.1V131.371H106.86ZM108.18 131.371H113.06V135.931H108.18V134.271H111.06V133.031H108.18V131.371ZM104.74 134.891H106.86V138.191H104.74V134.891ZM108.18 134.891H110.32V138.191H108.18V134.891ZM105.3 140.091L106.7 138.851C107.207 139.171 107.727 139.551 108.26 139.991C108.793 140.431 109.2 140.831 109.48 141.191L107.98 142.551C107.807 142.311 107.573 142.044 107.28 141.751C107 141.458 106.68 141.164 106.32 140.871C105.973 140.578 105.633 140.318 105.3 140.091ZM109.98 141.371L111.74 140.491C112.073 140.878 112.4 141.304 112.72 141.771C113.04 142.224 113.32 142.678 113.56 143.131C113.813 143.584 114 144.004 114.12 144.391L112.22 145.371C112.113 145.011 111.94 144.598 111.7 144.131C111.473 143.664 111.207 143.191 110.9 142.711C110.607 142.231 110.3 141.784 109.98 141.371ZM102.1 140.891L104 141.411C103.867 142.224 103.653 143.004 103.36 143.751C103.067 144.484 102.607 145.091 101.98 145.571L100.28 144.371C100.787 143.984 101.187 143.484 101.48 142.871C101.773 142.244 101.98 141.584 102.1 140.891ZM104.16 140.671H106.24V143.231C106.24 143.471 106.28 143.624 106.36 143.691C106.44 143.744 106.627 143.771 106.92 143.771C106.973 143.771 107.073 143.771 107.22 143.771C107.38 143.771 107.547 143.771 107.72 143.771C107.893 143.771 108.053 143.771 108.2 143.771C108.36 143.771 108.48 143.771 108.56 143.771C108.733 143.771 108.86 143.738 108.94 143.671C109.033 143.604 109.1 143.471 109.14 143.271C109.18 143.058 109.207 142.724 109.22 142.271C109.407 142.431 109.693 142.584 110.08 142.731C110.467 142.878 110.8 142.984 111.08 143.051C111.013 143.771 110.893 144.318 110.72 144.691C110.547 145.078 110.307 145.344 110 145.491C109.693 145.638 109.293 145.711 108.8 145.711C108.707 145.711 108.56 145.711 108.36 145.711C108.16 145.711 107.94 145.711 107.7 145.711C107.473 145.711 107.26 145.711 107.06 145.711C106.86 145.711 106.713 145.711 106.62 145.711C105.953 145.711 105.44 145.631 105.08 145.471C104.733 145.324 104.493 145.071 104.36 144.711C104.227 144.364 104.16 143.884 104.16 143.271V140.671ZM120.88 133.031H123.4V142.331C123.4 142.824 123.467 143.138 123.6 143.271C123.733 143.391 124.04 143.451 124.52 143.451C124.64 143.451 124.827 143.451 125.08 143.451C125.347 143.451 125.627 143.451 125.92 143.451C126.227 143.451 126.513 143.451 126.78 143.451C127.047 143.451 127.247 143.451 127.38 143.451C127.727 143.451 127.987 143.358 128.16 143.171C128.333 142.971 128.46 142.604 128.54 142.071C128.62 141.524 128.68 140.724 128.72 139.671C128.907 139.804 129.133 139.944 129.4 140.091C129.667 140.224 129.94 140.344 130.22 140.451C130.513 140.558 130.767 140.638 130.98 140.691C130.887 141.958 130.727 142.958 130.5 143.691C130.287 144.411 129.953 144.924 129.5 145.231C129.047 145.538 128.407 145.691 127.58 145.691C127.46 145.691 127.287 145.691 127.06 145.691C126.833 145.691 126.58 145.691 126.3 145.691C126.02 145.691 125.74 145.691 125.46 145.691C125.193 145.691 124.947 145.691 124.72 145.691C124.493 145.691 124.327 145.691 124.22 145.691C123.353 145.691 122.673 145.584 122.18 145.371C121.7 145.171 121.36 144.824 121.16 144.331C120.973 143.851 120.88 143.184 120.88 142.331V133.031ZM117.26 134.191L119.62 134.651C119.527 135.518 119.407 136.458 119.26 137.471C119.127 138.471 118.967 139.458 118.78 140.431C118.593 141.391 118.387 142.251 118.16 143.011L115.72 142.011C115.96 141.304 116.18 140.518 116.38 139.651C116.593 138.784 116.773 137.884 116.92 136.951C117.08 136.004 117.193 135.084 117.26 134.191ZM129.74 134.471L131.98 133.551C132.353 134.338 132.713 135.184 133.06 136.091C133.407 136.984 133.713 137.864 133.98 138.731C134.247 139.584 134.447 140.358 134.58 141.051L132.14 142.051C132.033 141.371 131.853 140.591 131.6 139.711C131.36 138.831 131.08 137.938 130.76 137.031C130.44 136.111 130.1 135.258 129.74 134.471ZM121.58 129.231L123.2 127.611C123.813 127.984 124.473 128.418 125.18 128.911C125.887 129.404 126.56 129.904 127.2 130.411C127.853 130.904 128.38 131.358 128.78 131.771L127.02 133.651C126.647 133.238 126.153 132.771 125.54 132.251C124.927 131.718 124.267 131.184 123.56 130.651C122.867 130.118 122.207 129.644 121.58 129.231ZM140.62 140.171H143V142.891C143 143.184 143.073 143.371 143.22 143.451C143.38 143.518 143.733 143.551 144.28 143.551C144.413 143.551 144.62 143.551 144.9 143.551C145.18 143.551 145.487 143.551 145.82 143.551C146.167 143.551 146.487 143.551 146.78 143.551C147.087 143.551 147.327 143.551 147.5 143.551C147.807 143.551 148.033 143.504 148.18 143.411C148.34 143.304 148.453 143.084 148.52 142.751C148.587 142.418 148.64 141.918 148.68 141.251C148.84 141.371 149.047 141.491 149.3 141.611C149.567 141.718 149.833 141.818 150.1 141.911C150.38 141.991 150.627 142.058 150.84 142.111C150.747 143.058 150.593 143.784 150.38 144.291C150.167 144.811 149.847 145.171 149.42 145.371C148.993 145.571 148.413 145.671 147.68 145.671C147.56 145.671 147.38 145.671 147.14 145.671C146.9 145.671 146.62 145.671 146.3 145.671C145.993 145.671 145.687 145.671 145.38 145.671C145.087 145.671 144.82 145.671 144.58 145.671C144.34 145.671 144.16 145.671 144.04 145.671C143.133 145.671 142.433 145.584 141.94 145.411C141.447 145.251 141.1 144.971 140.9 144.571C140.713 144.171 140.62 143.618 140.62 142.911V140.171ZM143.52 139.911L145.16 138.591C145.467 138.844 145.787 139.131 146.12 139.451C146.467 139.771 146.8 140.091 147.12 140.411C147.44 140.718 147.7 140.991 147.9 141.231L146.16 142.711C145.987 142.471 145.747 142.184 145.44 141.851C145.133 141.518 144.807 141.184 144.46 140.851C144.127 140.504 143.813 140.191 143.52 139.911ZM150.26 140.471L152.36 139.491C152.64 139.891 152.94 140.338 153.26 140.831C153.58 141.324 153.887 141.804 154.18 142.271C154.473 142.724 154.713 143.124 154.9 143.471L152.66 144.631C152.5 144.271 152.28 143.851 152 143.371C151.733 142.891 151.44 142.398 151.12 141.891C150.813 141.384 150.527 140.911 150.26 140.471ZM137.76 139.751L139.9 140.591C139.767 141.058 139.613 141.558 139.44 142.091C139.267 142.624 139.073 143.144 138.86 143.651C138.66 144.144 138.44 144.584 138.2 144.971L136 143.891C136.253 143.531 136.487 143.118 136.7 142.651C136.927 142.184 137.133 141.704 137.32 141.211C137.507 140.704 137.653 140.218 137.76 139.751ZM136.36 130.151H144.76V132.191H136.36V130.151ZM139.66 127.331H141.94V139.351H139.66V127.331ZM139.6 131.491L141.22 132.011C140.953 132.824 140.62 133.624 140.22 134.411C139.82 135.198 139.38 135.931 138.9 136.611C138.42 137.291 137.92 137.864 137.4 138.331C137.227 138.078 136.987 137.784 136.68 137.451C136.373 137.104 136.1 136.838 135.86 136.651C136.367 136.291 136.853 135.838 137.32 135.291C137.8 134.731 138.233 134.124 138.62 133.471C139.007 132.804 139.333 132.144 139.6 131.491ZM141.8 132.851C141.973 132.944 142.213 133.098 142.52 133.311C142.84 133.511 143.173 133.738 143.52 133.991C143.88 134.231 144.2 134.458 144.48 134.671C144.773 134.871 144.993 135.024 145.14 135.131L143.86 137.051C143.673 136.838 143.433 136.598 143.14 136.331C142.86 136.051 142.56 135.764 142.24 135.471C141.933 135.178 141.627 134.904 141.32 134.651C141.027 134.398 140.78 134.191 140.58 134.031L141.8 132.851ZM147.74 133.111V134.291H151.44V133.111H147.74ZM147.74 136.051V137.251H151.44V136.051H147.74ZM147.74 130.191V131.351H151.44V130.191H147.74ZM145.56 128.311H153.74V139.111H145.56V128.311ZM167.88 127.631H170.4V144.171H167.88V127.631ZM162.54 142.891H175.24V145.271H162.54V142.891ZM163.92 133.291H174.64V135.631H163.92V133.291ZM157.86 129.031H163.22V141.051H157.86V138.711H160.98V131.351H157.86V129.031ZM157.08 129.031H159.28V142.651H157.08V129.031Z" fill="#264964"/>
<defs>
<clipPath id="clip0_37_1101">
<rect width="205.464" height="80" fill="white" transform="translate(22.2682 30.291)"/>
</clipPath>
<clipPath id="clip1_37_1101">
<rect width="80.8436" height="56.43" fill="white" transform="translate(22.2682 42.0762)"/>
</clipPath>
</defs>
</svg>
