<svg width="200" height="191" viewBox="0 0 200 191" fill="none" xmlns="http://www.w3.org/2000/svg">
<rect y="0.291016" width="200" height="190.137" rx="20" fill="white"/>
<g clip-path="url(#clip0_11_4573)">
<path d="M131.863 76.5068H127.427V72.2301C127.427 57.3496 115.367 45.2812 100.487 45.2812C85.6061 45.2812 73.5377 57.3413 73.5377 72.2301V76.5068H69.1021C64.5743 76.5068 60.9002 80.1809 60.9002 84.7086C60.9002 89.2363 64.5743 92.9104 69.1021 92.9104H73.6717C75.0191 106.535 86.51 117.173 100.487 117.173C114.463 117.173 125.954 106.527 127.302 92.9104H131.871C136.399 92.9104 140.073 89.2363 140.073 84.7086C140.073 80.1809 136.399 76.5068 131.871 76.5068" fill="#C3DCD9"/>
<path d="M100.487 118.428C86.3008 118.428 74.4918 108.075 72.5586 94.1658H69.1104C63.8964 94.1658 59.6532 89.9226 59.6532 84.7086C59.6532 79.4946 63.8964 75.2514 69.1104 75.2514H72.2907V72.2301C72.2907 56.6801 84.945 44.0259 100.487 44.0259C116.028 44.0259 128.691 56.6801 128.691 72.2301V75.2514H131.871C137.085 75.2514 141.328 79.4946 141.328 84.7086C141.328 89.9226 137.085 94.1658 131.871 94.1658H128.423C126.49 108.075 114.681 118.428 100.495 118.428H100.487ZM69.1104 77.7622C65.2773 77.7622 62.164 80.8755 62.164 84.7086C62.164 88.5417 65.2773 91.6551 69.1104 91.6551H73.68C74.3245 91.6551 74.8685 92.1405 74.927 92.7849C76.2326 105.975 87.2214 115.917 100.487 115.917C113.752 115.917 124.749 105.975 126.046 92.7849C126.113 92.1405 126.649 91.6551 127.293 91.6551H131.863C135.696 91.6551 138.809 88.5417 138.809 84.7086C138.809 80.8755 135.696 77.7622 131.863 77.7622H127.427C126.732 77.7622 126.172 77.2014 126.172 76.5068V72.2301C126.172 58.061 114.647 46.5366 100.478 46.5366C86.3092 46.5366 74.7931 58.061 74.7931 72.2301V76.5068C74.7931 77.2014 74.2324 77.7622 73.5378 77.7622H69.1021H69.1104Z" fill="white"/>
<path d="M52.9519 51.05L63.148 57.3133L66.9234 51.213L72.9259 56.5365L66.4399 46.5685L62.4744 52.6633L56.2438 44.2109L52.9519 51.05Z" fill="#D7301A"/>
<path d="M63.148 57.5854C63.0991 57.5854 63.0502 57.5746 63.0068 57.5474L52.8106 51.2842C52.6911 51.2135 52.6477 51.0614 52.7074 50.9365L55.9993 44.0974C56.0428 44.0105 56.1242 43.9562 56.2166 43.9453C56.3089 43.9399 56.4013 43.9779 56.461 44.054L62.4581 52.1913L66.2117 46.4224C66.2606 46.3463 66.3475 46.2975 66.4399 46.2975C66.5322 46.2975 66.6191 46.3463 66.668 46.4224L73.154 56.3958C73.2301 56.5099 73.2083 56.662 73.1051 56.7489C73.0019 56.8358 72.8498 56.8358 72.7466 56.7489L66.9885 51.6372L63.3816 57.4605C63.3327 57.542 63.2403 57.5909 63.148 57.5909V57.5854ZM53.305 50.9474L63.0611 56.939L66.6952 51.0723C66.7386 51.0017 66.8093 50.9582 66.8853 50.9474C66.9668 50.9365 67.0428 50.9582 67.1026 51.0125L71.6004 54.9997L66.4399 47.0634L62.6971 52.8106C62.6482 52.8866 62.5668 52.9301 62.4798 52.9355C62.3821 52.9355 62.306 52.8975 62.2517 52.8269L56.2926 44.733L53.305 50.9474Z" fill="#D7301A"/>
<path d="M63.1643 31.6914L67.9826 44.1093L74.7891 41.8549L75.9787 49.7859L77.4019 37.9764L70.4434 40.1058L70.2641 29.562L63.1643 31.6914Z" fill="#D7301A"/>
<path d="M75.9787 50.0572C75.8429 50.0572 75.7288 49.9594 75.7125 49.8236L74.5718 42.2077L68.0695 44.3643C67.9337 44.4078 67.7816 44.3371 67.7327 44.2068L62.9144 31.7889C62.8872 31.7183 62.8927 31.6368 62.9253 31.5716C62.9579 31.5064 63.0176 31.4521 63.0937 31.4304L70.188 29.301C70.2695 29.2738 70.3564 29.2901 70.427 29.3444C70.4977 29.3933 70.5357 29.4748 70.5411 29.5563L70.7149 39.7416L77.3259 37.7154C77.4128 37.6882 77.5105 37.7099 77.5812 37.7643C77.6518 37.824 77.6898 37.9164 77.6789 38.0033L76.2557 49.8127C76.2394 49.9485 76.1254 50.0518 75.9895 50.0518L75.9787 50.0572ZM74.789 41.5831C74.8379 41.5831 74.8868 41.5993 74.9303 41.6211C75.0009 41.6645 75.0444 41.7352 75.0552 41.8112L75.9461 47.7594L77.076 38.3618L70.5194 40.3717C70.4379 40.3934 70.351 40.3826 70.2804 40.3337C70.2098 40.2848 70.1717 40.2033 70.1663 40.1164L69.9925 29.9311L63.5174 31.8758L68.1347 43.7776L74.6967 41.6048C74.7239 41.5939 74.751 41.5885 74.7836 41.5885L74.789 41.5831Z" fill="#D7301A"/>
<path d="M125.979 29.104L119.716 39.3001L125.816 43.0755L120.493 49.078L130.461 42.592L124.366 38.6266L132.818 32.3959L125.979 29.104Z" fill="#D7301A"/>
<path d="M119.445 39.2998C119.445 39.2509 119.456 39.202 119.483 39.1585L125.746 28.9624C125.817 28.8429 125.969 28.7994 126.094 28.8592L132.933 32.151C133.02 32.1945 133.074 32.276 133.085 32.3683C133.09 32.4607 133.052 32.553 132.976 32.6128L124.839 38.6099L130.608 42.3635C130.684 42.4124 130.733 42.4993 130.733 42.5916C130.733 42.684 130.684 42.7709 130.608 42.8198L120.634 49.3058C120.52 49.3818 120.368 49.3601 120.281 49.2569C120.194 49.1537 120.194 49.0016 120.281 48.8984L125.393 43.1403L119.57 39.5333C119.488 39.4844 119.439 39.3921 119.439 39.2998H119.445ZM126.083 29.4567L120.091 39.2128L125.958 42.8469C126.028 42.8904 126.072 42.961 126.083 43.0371C126.094 43.1186 126.072 43.1946 126.018 43.2544L122.03 47.7522L129.967 42.5916L124.22 38.8489C124.143 38.8 124.1 38.7185 124.095 38.6316C124.095 38.5338 124.133 38.4578 124.203 38.4035L132.297 32.4444L126.083 29.4567Z" fill="#D7301A"/>
<path d="M145.34 39.3154L132.922 44.1337L135.176 50.9402L127.245 52.1299L139.055 53.5531L136.925 46.5945L147.469 46.4152L145.34 39.3154Z" fill="#D7301A"/>
<path d="M126.973 52.1305C126.973 51.9947 127.071 51.8807 127.207 51.8644L134.823 50.7236L132.666 44.2213C132.623 44.0855 132.693 43.9334 132.824 43.8845L145.242 39.0662C145.312 39.0391 145.394 39.0445 145.459 39.0771C145.524 39.1097 145.578 39.1694 145.6 39.2455L147.73 46.3399C147.757 46.4213 147.74 46.5083 147.686 46.5789C147.637 46.6495 147.556 46.6875 147.474 46.693L137.289 46.8668L139.315 53.4777C139.342 53.5646 139.321 53.6624 139.266 53.733C139.207 53.8036 139.114 53.8417 139.027 53.8308L127.218 52.4076C127.082 52.3913 126.979 52.2772 126.979 52.1414L126.973 52.1305ZM135.448 50.9409C135.448 50.9898 135.431 51.0387 135.409 51.0821C135.366 51.1527 135.295 51.1962 135.219 51.2071L129.271 52.0979L138.669 53.2278L136.659 46.6712C136.637 46.5897 136.648 46.5028 136.697 46.4322C136.746 46.3616 136.827 46.3236 136.914 46.3181L147.099 46.1443L145.155 39.6692L133.253 44.2865L135.426 50.8485C135.437 50.8757 135.442 50.9029 135.442 50.9355L135.448 50.9409Z" fill="#D7301A"/>
</g>
<path d="M67.6 151.508H77.9V153.668H67.6V151.508ZM66.8 155.408H78.66V157.568H66.8V155.408ZM66.58 147.728H78.78V149.908H66.58V147.728ZM71.58 145.528H73.86V152.768H71.58V145.528ZM74.16 154.048H76.44V161.728C76.44 162.315 76.3733 162.768 76.24 163.088C76.1067 163.422 75.8467 163.682 75.46 163.868C75.0867 164.028 74.6267 164.128 74.08 164.168C73.5467 164.208 72.92 164.228 72.2 164.228C72.16 163.895 72.0733 163.515 71.94 163.088C71.8067 162.662 71.6667 162.295 71.52 161.988C71.9733 162.015 72.4267 162.028 72.88 162.028C73.3333 162.028 73.6333 162.022 73.78 162.008C73.9267 162.008 74.0267 161.988 74.08 161.948C74.1333 161.895 74.16 161.802 74.16 161.668V154.048ZM67.88 158.728L69.76 157.708C70.0133 158.055 70.28 158.435 70.56 158.848C70.8533 159.262 71.1267 159.662 71.38 160.048C71.6467 160.435 71.8533 160.788 72 161.108L69.98 162.268C69.86 161.962 69.68 161.602 69.44 161.188C69.2 160.775 68.94 160.355 68.66 159.928C68.3933 159.488 68.1333 159.088 67.88 158.728ZM59.82 155.588C60.6333 155.402 61.6067 155.162 62.74 154.868C63.8867 154.575 65.0333 154.268 66.18 153.948L66.48 156.108C65.4267 156.415 64.36 156.728 63.28 157.048C62.2133 157.355 61.2333 157.635 60.34 157.888L59.82 155.588ZM60.14 149.228H66.32V151.428H60.14V149.228ZM62.48 145.448H64.66V161.428C64.66 161.975 64.6067 162.408 64.5 162.728C64.3933 163.048 64.1867 163.302 63.88 163.488C63.5733 163.675 63.1933 163.795 62.74 163.848C62.2867 163.915 61.74 163.948 61.1 163.948C61.0733 163.655 61 163.288 60.88 162.848C60.76 162.422 60.6267 162.055 60.48 161.748C60.84 161.762 61.1733 161.768 61.48 161.768C61.8 161.768 62.02 161.762 62.14 161.748C62.26 161.748 62.3467 161.728 62.4 161.688C62.4533 161.635 62.48 161.542 62.48 161.408V145.448ZM87.16 146.308H98.8V147.828H87.16V146.308ZM87.88 148.508H98.18V149.948H87.88V148.508ZM91.92 145.428H94.26V149.348H91.92V145.428ZM89.18 151.968V153.148H96.72V151.968H89.18ZM87.24 150.508H98.78V154.608H87.24V150.508ZM90.08 157.908V158.528H95.9V157.908H90.08ZM90.08 159.388V160.028H95.9V159.388H90.08ZM90.08 156.448V157.028H95.9V156.448H90.08ZM87.94 155.208H98.12V161.248H87.94V155.208ZM93.84 162.468L94.66 160.968C95.4467 161.208 96.2533 161.482 97.08 161.788C97.9067 162.082 98.5933 162.342 99.14 162.568L98.18 164.228C97.66 163.988 97 163.702 96.2 163.368C95.4 163.035 94.6133 162.735 93.84 162.468ZM91.24 160.928L92.74 162.448C91.94 162.782 91.08 163.115 90.16 163.448C89.24 163.795 88.4133 164.095 87.68 164.348C87.5867 164.108 87.46 163.828 87.3 163.508C87.1533 163.202 87 162.928 86.84 162.688C87.28 162.555 87.7667 162.388 88.3 162.188C88.8467 161.988 89.38 161.782 89.9 161.568C90.42 161.342 90.8667 161.128 91.24 160.928ZM90.62 151.048H92.38V154.088H90.62V151.048ZM93.7 151.048H95.46V154.088H93.7V151.048ZM84.96 153.768L86.56 153.328C86.72 153.782 86.8667 154.268 87 154.788C87.1467 155.308 87.2733 155.808 87.38 156.288C87.4867 156.755 87.5667 157.168 87.62 157.528L85.92 158.068C85.88 157.695 85.8133 157.262 85.72 156.768C85.6267 156.275 85.5133 155.768 85.38 155.248C85.2467 154.715 85.1067 154.222 84.96 153.768ZM83.28 158.888L84.88 158.608C84.9867 159.342 85.08 160.135 85.16 160.988C85.2533 161.842 85.3067 162.588 85.32 163.228L83.62 163.528C83.6333 163.102 83.62 162.622 83.58 162.088C83.5533 161.555 83.5133 161.008 83.46 160.448C83.4067 159.888 83.3467 159.368 83.28 158.888ZM81.18 158.648L83 158.928C82.92 159.875 82.8 160.815 82.64 161.748C82.4933 162.682 82.3067 163.468 82.08 164.108C81.8933 164.002 81.6133 163.888 81.24 163.768C80.88 163.648 80.58 163.562 80.34 163.508C80.5667 162.882 80.7467 162.128 80.88 161.248C81.0133 160.368 81.1133 159.502 81.18 158.648ZM80.98 153.388C80.94 153.242 80.88 153.055 80.8 152.828C80.7333 152.588 80.6533 152.348 80.56 152.108C80.48 151.868 80.4 151.662 80.32 151.488C80.4933 151.435 80.6667 151.315 80.84 151.128C81.0133 150.928 81.1933 150.682 81.38 150.388C81.5133 150.202 81.7067 149.855 81.96 149.348C82.2267 148.828 82.5067 148.222 82.8 147.528C83.0933 146.822 83.3467 146.115 83.56 145.408L85.52 146.188C85.24 146.908 84.9133 147.642 84.54 148.388C84.18 149.122 83.8 149.822 83.4 150.488C83 151.155 82.6067 151.755 82.22 152.288V152.348C82.22 152.348 82.1533 152.382 82.02 152.448C81.9 152.515 81.7533 152.602 81.58 152.708C81.42 152.815 81.28 152.928 81.16 153.048C81.04 153.168 80.98 153.282 80.98 153.388ZM80.98 153.388L80.92 151.748L81.88 151.148L85.32 150.888C85.2667 151.168 85.22 151.488 85.18 151.848C85.14 152.208 85.1133 152.508 85.1 152.748C84.0867 152.855 83.3 152.948 82.74 153.028C82.1933 153.095 81.7933 153.155 81.54 153.208C81.3 153.262 81.1133 153.322 80.98 153.388ZM81.14 158.028C81.1 157.895 81.04 157.708 80.96 157.468C80.88 157.228 80.7933 156.982 80.7 156.728C80.62 156.475 80.54 156.262 80.46 156.088C80.7 156.022 80.9333 155.875 81.16 155.648C81.3867 155.408 81.6467 155.102 81.94 154.728C82.1 154.542 82.3267 154.235 82.62 153.808C82.9133 153.368 83.24 152.855 83.6 152.268C83.96 151.668 84.3133 151.028 84.66 150.348C85.02 149.655 85.34 148.962 85.62 148.268L87.44 149.348C87 150.255 86.5 151.162 85.94 152.068C85.3933 152.975 84.8133 153.848 84.2 154.688C83.5867 155.515 82.9733 156.262 82.36 156.928V157.008C82.36 157.008 82.3 157.042 82.18 157.108C82.06 157.175 81.9133 157.262 81.74 157.368C81.58 157.475 81.44 157.588 81.32 157.708C81.2 157.828 81.14 157.935 81.14 158.028ZM81.14 158.028L81.04 156.368L82 155.708L86.56 155.168C86.52 155.448 86.48 155.775 86.44 156.148C86.4133 156.508 86.4067 156.795 86.42 157.008C85.3933 157.155 84.56 157.282 83.92 157.388C83.28 157.495 82.7733 157.588 82.4 157.668C82.04 157.735 81.7667 157.795 81.58 157.848C81.3933 157.902 81.2467 157.962 81.14 158.028ZM85.16 158.508L86.64 158.068C86.84 158.642 87.0333 159.268 87.22 159.948C87.4067 160.615 87.54 161.188 87.62 161.668L86.08 162.188C86 161.695 85.8733 161.108 85.7 160.428C85.5267 159.735 85.3467 159.095 85.16 158.508ZM101.1 146.368H109.18V148.568H101.1V146.368ZM103.66 151.848V153.728H106.6V151.848H103.66ZM101.64 149.968H108.76V155.608H101.64V149.968ZM106.12 155.888L108.44 156.368C108.24 157.102 108.033 157.835 107.82 158.568C107.62 159.302 107.427 159.928 107.24 160.448L105.42 159.968C105.527 159.595 105.62 159.168 105.7 158.688C105.793 158.208 105.873 157.722 105.94 157.228C106.02 156.735 106.08 156.288 106.12 155.888ZM101.9 156.548L103.8 156.068C104.013 156.615 104.187 157.222 104.32 157.888C104.467 158.542 104.553 159.108 104.58 159.588L102.56 160.108C102.547 159.628 102.48 159.055 102.36 158.388C102.24 157.722 102.087 157.108 101.9 156.548ZM100.76 161.108C101.48 160.975 102.307 160.815 103.24 160.628C104.173 160.442 105.16 160.242 106.2 160.028C107.24 159.815 108.273 159.602 109.3 159.388L109.52 161.408C108.093 161.755 106.653 162.095 105.2 162.428C103.76 162.775 102.467 163.075 101.32 163.328L100.76 161.108ZM109.68 146.248H119.38V148.248H109.68V146.248ZM112.34 154.268V155.548H116.64V154.268H112.34ZM112.34 157.188V158.468H116.64V157.188H112.34ZM112.34 151.368V152.628H116.64V151.368H112.34ZM110.16 149.608H118.94V160.228H110.16V149.608ZM113.08 147.348L115.8 147.668C115.613 148.295 115.42 148.908 115.22 149.508C115.02 150.108 114.84 150.622 114.68 151.048L112.58 150.648C112.66 150.328 112.727 149.975 112.78 149.588C112.847 149.202 112.907 148.815 112.96 148.428C113.013 148.042 113.053 147.682 113.08 147.348ZM112.06 160.308L114 161.568C113.64 161.915 113.207 162.255 112.7 162.588C112.207 162.922 111.687 163.228 111.14 163.508C110.593 163.802 110.067 164.048 109.56 164.248C109.387 164.035 109.14 163.775 108.82 163.468C108.513 163.175 108.233 162.922 107.98 162.708C108.473 162.535 108.98 162.315 109.5 162.048C110.02 161.768 110.507 161.482 110.96 161.188C111.413 160.882 111.78 160.588 112.06 160.308ZM114.82 161.608L116.62 160.468C116.98 160.708 117.373 160.975 117.8 161.268C118.227 161.562 118.633 161.862 119.02 162.168C119.42 162.462 119.747 162.728 120 162.968L118.08 164.248C117.867 164.008 117.573 163.728 117.2 163.408C116.827 163.102 116.427 162.788 116 162.468C115.587 162.148 115.193 161.862 114.82 161.608ZM127.82 149.948H137.04V151.608H127.82V149.948ZM128.66 159.348H137.8V161.008H128.66V159.348ZM128.66 156.628H137.8V158.288H128.66V156.628ZM131.94 154.968H134.16V163.948H131.94V154.968ZM127.18 153.848H137.2V155.588H129.38V164.188H127.18V153.848ZM136.74 153.848H138.98V162.168C138.98 162.648 138.92 163.015 138.8 163.268C138.68 163.522 138.46 163.722 138.14 163.868C137.82 164.015 137.427 164.102 136.96 164.128C136.507 164.155 135.973 164.168 135.36 164.168C135.32 163.902 135.24 163.608 135.12 163.288C135 162.968 134.88 162.688 134.76 162.448C135.093 162.462 135.427 162.468 135.76 162.468C136.093 162.468 136.313 162.468 136.42 162.468C136.54 162.468 136.62 162.448 136.66 162.408C136.713 162.355 136.74 162.275 136.74 162.168V153.848ZM136.26 149.948H136.84L137.34 149.828L138.72 151.068C138.24 151.428 137.713 151.802 137.14 152.188C136.567 152.575 135.98 152.942 135.38 153.288C134.78 153.622 134.18 153.928 133.58 154.208C133.447 154.022 133.267 153.808 133.04 153.568C132.813 153.328 132.627 153.135 132.48 152.988C132.933 152.762 133.4 152.495 133.88 152.188C134.373 151.882 134.827 151.568 135.24 151.248C135.667 150.915 136.007 150.622 136.26 150.368V149.948ZM129.16 152.888L130.5 151.628C131.113 151.828 131.76 152.068 132.44 152.348C133.12 152.628 133.767 152.915 134.38 153.208C134.993 153.488 135.52 153.748 135.96 153.988L134.62 155.408C134.193 155.142 133.667 154.855 133.04 154.548C132.427 154.242 131.78 153.942 131.1 153.648C130.433 153.355 129.787 153.102 129.16 152.888ZM125.42 147.148H139.78V149.208H125.42V147.148ZM124.1 147.148H126.34V153.528C126.34 154.328 126.307 155.202 126.24 156.148C126.173 157.082 126.027 158.035 125.8 159.008C125.587 159.968 125.28 160.895 124.88 161.788C124.48 162.668 123.953 163.455 123.3 164.148C123.18 164.002 123.013 163.815 122.8 163.588C122.6 163.375 122.387 163.168 122.16 162.968C121.947 162.768 121.76 162.622 121.6 162.528C122.173 161.902 122.627 161.215 122.96 160.468C123.307 159.722 123.56 158.948 123.72 158.148C123.88 157.348 123.98 156.555 124.02 155.768C124.073 154.968 124.1 154.222 124.1 153.528V147.148ZM121.06 149.768L122.82 148.908C123.14 149.482 123.433 150.122 123.7 150.828C123.98 151.522 124.167 152.122 124.26 152.628L122.38 153.608C122.3 153.102 122.127 152.488 121.86 151.768C121.607 151.035 121.34 150.368 121.06 149.768ZM120.94 156.608C121.42 156.408 121.98 156.155 122.62 155.848C123.26 155.528 123.92 155.195 124.6 154.848L125.16 156.708C124.573 157.082 123.98 157.448 123.38 157.808C122.793 158.155 122.213 158.495 121.64 158.828L120.94 156.608ZM130.04 145.828L132.34 145.228C132.58 145.562 132.82 145.935 133.06 146.348C133.3 146.748 133.48 147.102 133.6 147.408L131.18 148.068C131.073 147.775 130.913 147.415 130.7 146.988C130.487 146.562 130.267 146.175 130.04 145.828Z" fill="#264964"/>
<defs>
<clipPath id="clip0_11_4573">
<rect width="102.64" height="96.1371" fill="white" transform="translate(48.68 22.291)"/>
</clipPath>
</defs>
</svg>
