<svg width="180" height="254" viewBox="0 0 180 254" fill="none" xmlns="http://www.w3.org/2000/svg">
<g clip-path="url(#clip0_49_1084)">
<path d="M176.018 178.628C170.679 156.808 170.336 134.035 157.715 116.103C153.976 110.792 136.792 103.504 136.792 103.504L127.848 88.5174L124.098 88.1574L122.952 79.7561L130.085 73.2267C146.013 70.4853 144.296 52.2649 134.316 54.613L119.994 17.9285L96.6568 17.5796L76.0716 31.9732C76.0716 31.9732 61.1021 70.8896 86.3615 83.9651L88.9865 86.6455L87.7792 93.2359L84.1573 93.7786C84.1573 93.7786 79.1065 100.003 72.5051 103.509C65.9036 107.015 59.2524 107.74 56.2895 112.996C53.3266 118.252 42.0288 143.987 42.0288 143.987L36.6513 128.469L33.3672 130.042C34.3253 128.658 36.3744 114.696 33.7493 109.008C32.9574 105.065 24.1074 81.6335 22.5734 77.3304L18.7078 75.9016L17.8051 77.6128C18.0377 79.9832 21.2885 95.0635 19.9151 97.0461L18.2204 96.4203L16.6864 95.1078C16.5147 95.2905 16.3485 95.4788 16.1768 95.6671L15.7393 95.5065L11.2867 99.4275L7.20509 100.596L5.78733 103.188L1.21838 105.724C1.43437 105.724 5.3609 119.896 6.08085 118.911C6.60144 123.579 13.225 136.666 14.5653 132.833C11.3698 141.982 21.0393 231.761 59.1305 177.127L61.4565 186.614L58.2832 252.579H155.283L150.205 213.934C150.205 213.934 177.884 206.258 178.128 199.009C178.372 191.754 177.043 182.859 176.013 178.639" fill="white"/>
<path d="M119.28 130.663L105.152 134.905C110.12 145.35 101.946 143.223 94.9898 146.153C86.5054 148.268 83.7862 153.817 81.0947 142.215L61.6282 148.124L75.4735 191.46C81.5987 187.761 87.7238 188.071 93.4447 192.136C98.1576 194.694 103.375 196.389 108.414 198.111L110.452 197.519C107.633 193.099 131.054 186.498 134.654 184.261L119.275 130.663H119.28Z" fill="#264964"/>
<path d="M156.419 123.934C157.36 123.541 158.208 123.02 157.809 121.852C157.421 120.705 156.397 120.683 155.438 120.999C154.397 121.348 153.351 121.741 152.404 122.278C144.401 126.808 138.918 133.52 135.54 141.999C134.842 143.749 134.405 145.605 133.928 147.139C133.834 148.091 133.879 148.739 134.571 149.038C135.396 149.398 136.005 148.916 136.293 148.241C136.947 146.723 137.434 145.139 138.082 143.616C141.809 134.838 147.336 127.722 156.419 123.928" fill="#264964"/>
<path d="M178.289 181.065C177.369 175.422 175.498 169.95 174.899 164.252C174.301 158.525 172.911 152.993 171.433 147.466C169.633 140.742 166.913 134.296 165.435 127.478C164.726 124.194 163.441 121.137 161.824 118.246C160.179 115.311 157.454 113.489 154.458 112.099C154.353 112.049 154.248 112.011 154.143 111.977C153.821 111.667 153.351 111.429 152.913 111.185C148.926 108.953 144.955 106.688 140.989 104.412C140.103 103.903 139.134 103.421 138.658 102.468C136.581 98.3037 133.441 94.7814 131.481 90.5392C130.86 89.199 129.996 87.5652 128.518 87.3271C126.253 86.9561 124.68 81.3847 124.53 78.9258C123.65 79.5682 122.298 80.4765 121.329 80.9638C121.385 82.664 122.243 86.6238 122.437 87.46C122.47 87.6095 122.492 87.748 122.509 87.8809C122.675 88.1191 122.736 88.4403 122.603 88.8169C121.196 92.7988 118.964 96.4096 117.059 100.181C115.054 104.152 113.144 108.167 111.338 112.232C110.231 114.724 109.167 117.244 108.143 119.769C107.927 119.769 107.716 119.758 107.5 119.758C107.235 119.758 106.969 119.758 106.703 119.747C105.534 119.72 104.266 119.703 102.71 119.703C101.824 119.703 100.932 119.703 100.046 119.714C99.16 119.725 98.2684 119.725 97.3823 119.725C95.1504 119.725 92.5032 119.703 89.8228 119.515C88.25 119.404 86.6882 119.133 85.1763 118.867C84.0465 118.667 82.8835 118.468 81.7205 118.335C82.7063 114.497 83.825 110.681 85.1098 106.893C85.9184 104.501 86.7823 102.125 87.6961 99.7657C88.3663 98.0378 89.5293 95.806 89.6455 93.8178C90.144 93.3083 90.4375 92.6603 90.6258 91.8573C90.9581 90.4617 91.1962 89.0328 91.4842 87.6262C91.9826 85.1783 88.189 84.3753 87.6906 86.8231C87.5023 87.7425 87.3195 88.6563 87.1312 89.5756C87.0593 89.9189 87.0094 90.6168 86.8543 91.0487C86.5941 91.0764 86.3393 91.1318 86.1012 91.2259C86.1012 91.2647 86.1067 91.3035 86.1122 91.3478C85.2926 91.669 84.5228 91.8684 83.8638 92.2505C83.1936 92.6437 82.5789 93.1698 82.0306 93.7292C79.8375 95.9666 77.5448 98.0434 75.1357 99.9429C70.5778 102.269 66.2138 104.988 61.3679 106.699C58.0063 107.885 55.8519 110.122 54.4342 113.318C50.9839 121.082 47.4285 128.802 43.9671 136.567C43.4078 137.824 41.9236 139.524 43.8619 140.471C45.9276 141.479 46.3541 139.219 47.0186 137.907C50.8455 130.392 53.6533 122.433 57.1756 114.78C58.3275 112.271 59.9335 110.537 62.5531 109.535C65.4052 108.444 68.13 107.093 70.7716 105.592C69.88 106.954 68.9828 108.339 67.8863 109.524C67.0168 110.731 66.0753 111.822 65.2058 112.969C63.7715 114.84 63.9764 115.76 65.9867 116.912C67.2106 117.61 68.3349 118.407 69.4536 119.614C67.3435 120.844 65.4717 121.968 63.5665 123.031C61.8996 123.962 61.1852 125.269 61.1187 127.246C60.8972 133.631 60.8529 140.006 61.0633 146.369C59.8062 146.989 59.5403 148.025 60.0332 149.598C64.2865 163.161 68.501 176.735 72.7211 190.308C72.3112 190.436 71.9014 190.563 71.4861 190.68C69.7083 191.178 68.1909 191.654 67.8863 193.809C67.5761 196.029 68.9164 197.159 70.5335 198.106C71.691 198.782 72.9315 199.325 74.305 200.011C72.9149 200.925 71.5802 200.626 70.395 200.991C68.2075 201.662 66.4962 202.897 66.2027 205.289C65.9313 207.471 66.9005 209.382 69.005 209.958C71.7685 210.716 72.7432 211.99 71.6245 214.715C71.4639 215.097 71.5581 215.712 71.763 216.099C73.2029 218.763 75.0748 221.228 75.3406 224.401C75.3461 224.468 75.4292 224.529 75.4735 224.595C79.6825 230.493 86.6051 232.747 93.6108 230.759C98.6505 229.325 103.38 227.159 108.01 224.816C111.46 223.072 115.547 222.119 117.857 218.752C117.951 219.367 118.034 219.987 118.106 220.613C118.416 223.515 119.917 224.379 122.758 223.565C126.884 222.38 130.977 221.1 135.114 219.954C139.732 218.675 144.207 216.842 149.258 216.138C149.834 220.768 150.388 225.149 150.93 229.529C151.75 236.114 152.902 244.61 153.733 251.189C153.866 252.252 154.126 253.415 155.555 253.205C156.84 253.017 156.817 251.915 156.729 250.901C156.707 250.641 156.673 250.386 156.64 250.126C155.411 240.251 153.838 228.466 152.608 218.592C152.324 216.314 153.24 214.818 155.355 214.106C156.031 213.879 156.69 213.591 157.377 213.386C162.566 211.824 167.273 209.11 172.197 206.939C176.888 204.874 179.967 201.163 180.006 195.381C180.039 190.508 179.07 185.817 178.294 181.087M122.121 96.4207C122.88 94.7593 124.586 89.8082 126.895 89.858C127.554 90.0962 127.942 90.6112 128.224 91.1706C130.085 94.8257 132.068 98.4089 134.443 101.771C135.219 102.867 135.446 104.18 135.318 105.603C135.047 108.588 134.814 111.584 134.798 114.575C134.787 116.264 134.1 116.79 132.577 116.84C128.972 116.956 125.627 118.141 122.32 119.459C121.407 119.825 120.498 120.168 120.388 121.287C120.288 122.306 121.119 122.738 121.794 123.297C124.813 125.795 127.643 128.486 130.318 131.516C129.293 132.856 128.279 134.124 127.316 135.404C127.078 134.634 126.851 133.886 126.629 133.166C124.741 127.041 124.469 126.941 118.355 128.813C114.517 129.987 110.679 131.161 106.841 132.33C108.071 129.151 109.311 125.978 110.524 122.793C113.941 113.821 118.145 105.165 122.127 96.4318M104.261 140.277C97.8475 142.415 91.9383 144.386 86.0292 146.358C84.6114 146.834 84.4785 145.721 84.1351 144.835C83.7308 143.788 83.753 143.024 85.06 142.631C90.5095 140.997 95.9424 139.325 101.375 137.635C103.69 136.915 103.175 138.976 104.261 140.277ZM81.4381 120.966C81.5931 120.999 81.7427 121.032 81.8977 121.076C87.1756 122.505 92.6528 122.705 97.7921 122.705C98.6173 122.705 99.4369 122.705 100.262 122.694H104.831C105.551 122.694 106.271 122.694 106.991 122.694C105.579 126.277 104.239 129.888 102.948 133.521C94.4139 136.129 85.8796 138.737 77.3454 141.34C78.2703 134.462 79.4776 127.639 81.1002 120.894C81.2165 120.921 81.3273 120.949 81.4436 120.971M65.8482 125.269C68.3183 123.868 70.7384 122.383 73.1807 120.944C73.9228 120.506 74.82 120.179 74.748 119.094C74.6816 118.114 73.8121 117.992 73.1143 117.626C71.4528 116.751 69.9243 115.666 68.4567 114.126C74.0724 108.018 78.8019 101.3 84.5948 95.4848C85.0877 94.9919 85.6304 94.4768 86.727 95.0528C79.6437 110.294 75.8778 126.177 73.7733 142.42C70.6387 143.378 67.5041 144.337 64.364 145.289C64.1536 139.629 64.0982 133.958 64.0982 128.282C64.0982 126.803 64.6299 125.956 65.8427 125.263M64.3142 151.719C63.7105 149.808 64.0151 149.022 65.9812 148.49C70.1569 147.355 74.2939 146.053 78.4032 144.697C79.9262 144.193 80.6738 144.569 80.9673 146.103C81.0725 146.651 81.2996 147.178 81.4879 147.704C82.4626 150.445 83.249 150.894 85.9849 149.996C92.3094 147.92 98.6173 145.799 104.92 143.655C107.916 142.636 108.248 141.828 107.135 138.793C106.864 138.051 106.603 137.298 106.188 136.14C111.444 134.54 116.4 132.994 121.385 131.527C122.863 131.089 122.836 132.468 123.09 133.294C125.411 140.72 127.692 148.163 129.98 155.601C131.708 161.228 135.712 174.215 137.899 181.326C128.988 185.645 119.778 189.289 110.635 193.072C108.165 194.091 108.01 194.756 109.843 196.915C109.843 196.915 109.838 196.927 109.832 196.932C109.173 196.506 108.514 196.079 107.855 195.658C107.661 195.531 107.445 195.47 107.224 195.453C106.016 194.994 104.632 194.938 103.463 194.407C103.103 194.318 102.749 194.163 102.416 194.013C100.439 193.166 98.9773 192.601 97.5761 191.915C94.8846 190.596 92.1876 189.312 89.4074 188.182C85.7744 186.703 82.2411 186.648 78.6136 188.149C77.7386 188.509 76.847 188.857 75.9553 189.19C72.0897 176.696 68.2296 164.196 64.2976 151.724M92.2706 227.818C88.2776 229.081 84.8495 228.416 81.7371 225.697C80.9064 224.972 80.048 224.279 79.1674 223.615C78.2647 222.934 77.805 222.136 78.1041 220.967C78.5361 219.284 77.8549 218.088 76.4316 217.168C75.2741 216.421 74.604 215.33 75.0914 213.94C76.2544 210.633 75.2243 209.509 71.8626 207.659C70.9046 207.133 69.5034 206.967 69.7415 205.555C69.9631 204.204 71.3864 204.265 72.4331 204.076C76.642 203.318 80.6018 201.711 84.6889 200.532C86.3393 200.056 86.4944 198.937 85.4753 197.635C83.5149 195.138 80.9396 194.999 78.2038 195.885C75.7393 196.677 73.4632 196.788 71.1427 194.529C75.3295 193.399 78.9016 191.361 82.9057 190.552C85.4477 190.037 87.7515 191.106 89.9668 192.075C95.2391 194.373 100.362 197.01 105.9 198.665C105.983 198.688 106.044 198.726 106.116 198.76C106.166 198.798 106.21 198.837 106.26 198.865C108.01 199.995 109.754 201.119 111.505 202.249C111.549 202.276 111.599 202.298 111.643 202.321C112.114 202.985 112.568 203.661 112.961 204.375C114.977 208.036 116.45 211.874 117.347 215.9C109.372 220.929 101.148 225.016 92.2817 227.818M171.039 204.148C166.769 205.909 162.749 208.186 158.407 209.769C151.313 212.361 143.919 213.94 136.753 216.271C132.178 217.755 127.532 219.018 122.919 220.375C122.005 220.641 121.163 220.923 120.991 219.417C119.989 210.811 116.721 203.174 111.039 196.544C111.842 195.708 112.895 195.32 113.903 194.927C122.564 191.555 131.115 187.944 139.5 183.923C141.394 183.015 142.634 181.824 143.853 180.063C145.348 177.898 144.7 176.269 143.963 174.314C143.554 173.229 143.304 172.055 143.194 170.903C142.895 167.907 142.191 165.016 141.305 162.147C140.303 158.918 139.4 155.656 138.492 152.4C138.198 151.348 137.932 150.196 136.526 150.556C135.186 150.899 135.252 152.112 135.551 153.137C137.733 160.552 139.815 167.99 141.228 175.605C141.499 177.061 141.338 178.352 140.657 179.365C137.224 168.15 132.25 151.58 128.49 139.23C129.769 137.381 131.087 135.553 132.483 133.781C133.591 132.374 133.452 130.923 132.466 129.406C131.469 127.872 130.39 126.465 129.005 125.252C127.897 124.283 126.624 123.441 125.776 121.951C128.357 120.379 131.215 120.296 134.006 120.024C137.91 119.642 138.043 119.553 138.049 115.605C138.054 112.67 138.049 109.734 138.049 106.279C140.225 107.552 141.715 108.427 143.205 109.302C145.924 110.897 148.61 112.542 151.373 114.06C151.8 114.292 152.271 114.475 152.725 114.519C152.869 114.641 153.035 114.752 153.218 114.852C153.904 115.217 154.602 115.566 155.272 115.959C159.287 118.341 160.86 122.361 162.034 126.52C163.203 130.652 164.266 134.8 165.612 138.881C168.564 147.842 171.294 156.864 172.141 166.339C172.285 167.946 172.723 169.535 173.088 171.119C174.645 177.837 175.924 184.604 176.91 191.422C177.824 197.735 176.029 202.094 171.045 204.148" fill="#264964"/>
<path d="M55.6304 146.02C55.4311 144.979 55.1708 143.771 53.7696 144.004C52.3796 144.237 52.5014 145.427 52.662 146.502C52.7174 146.889 52.806 147.266 52.878 147.654C54.257 154.803 55.7246 161.937 56.9873 169.108C58.3386 176.768 59.6733 174.962 53.9967 181.525C53.4983 181.691 53.0331 182.095 52.5956 182.555C51.4049 183.812 50.2917 185.158 49.0235 186.326C45.396 189.671 41.6633 192.85 36.1806 192.097C29.8006 191.217 26.2562 186.93 24.0521 181.442C21.8811 176.031 20.3969 170.382 19.4 164.611C17.8826 155.839 16.2045 147.094 14.6096 138.333C14.521 137.84 14.1665 137.27 14.8034 136.816C22.734 138.466 29.4185 135.492 35.6489 130.779C35.9092 131.333 36.0975 131.599 36.1695 131.892C38.1521 140.017 41.5193 147.709 43.6349 155.795C43.873 156.709 44.1998 157.6 44.5653 158.475C45.0028 159.516 45.7283 160.258 46.9467 159.777C48.1318 159.3 48.2315 158.292 47.8605 157.201C44.6594 147.726 41.4861 138.244 38.2297 128.785C37.3768 126.304 36.5461 125.95 34.6853 127.251C34.7406 127.069 34.8016 126.891 34.8569 126.714C35.0175 126.227 35.1837 125.717 35.3111 125.219C35.671 123.823 35.948 122.422 36.1307 121.049C36.4962 118.302 36.5073 115.544 36.1695 112.852C35.7597 109.596 34.8126 106.306 33.3616 103.077C30.9913 97.7995 28.9256 91.8904 26.8599 84.4748C26.2119 82.1377 25.4144 79.9336 24.5007 77.9232C23.5149 75.7689 21.7593 74.4785 19.9151 74.556C19.8265 74.556 19.7379 74.5671 19.6493 74.5782C19.3779 74.6059 19.1065 74.6668 18.8407 74.7554C17.4617 75.2095 16.7196 76.1399 16.4925 77.674C16.2433 79.4351 16.5479 81.1575 16.8414 82.8245C16.9356 83.3561 17.0297 83.8933 17.1073 84.4305L17.2457 85.4108C17.6666 88.4124 18.0986 91.5193 19.0068 94.7148L19.0345 94.8145L18.9348 94.7813C17.5282 94.2884 16.4427 94.0724 15.5178 94.1111C15.4071 94.1111 15.2963 94.1222 15.1855 94.1388C13.5684 94.3161 12.3445 95.3185 10.9212 97.6278C10.7827 97.6278 10.6553 97.6334 10.528 97.6389C10.1901 97.65 9.88001 97.6777 9.59203 97.7054C6.97803 97.9934 5.75964 99.0179 4.76832 101.77L4.75724 101.798H4.72955C2.59738 102.186 1.11316 103.138 0.426433 104.556C-0.299061 106.062 -0.0719983 107.973 1.09101 110.072C2.31493 112.282 3.15119 114.658 3.88776 118.025C5.25014 124.255 7.91951 128.785 12.0233 131.831C12.0066 131.837 11.9845 131.842 11.9679 131.848C10.9489 132.202 10.827 133.061 10.8879 133.969C10.9267 134.595 11.0042 135.226 11.1095 135.846C12.6048 145.023 14.1554 154.194 15.6009 163.376C16.6088 169.784 18.2592 176.009 20.3471 182.14C21.9088 186.731 24.7333 190.452 28.5989 193.094C33.6995 196.583 39.3927 196.904 44.9363 194.035C49.1065 191.876 52.3076 188.436 55.3868 184.936C55.7301 184.543 56.0292 184.106 56.1566 183.657C57.0814 182.688 57.9675 181.663 59.0973 180.412C59.8173 183.203 60.2492 185.595 60.1274 188.11C59.1804 208.307 58.2721 229.657 57.386 249.86C57.3306 251.111 56.6827 253.055 58.6432 253.199C60.7864 253.354 60.3157 251.283 60.3766 249.976C61.1796 233.09 61.9716 215.053 62.6694 198.161C62.8577 193.559 63.7826 188.896 62.974 184.344C60.6923 171.545 58.1171 158.796 55.6471 146.031M19.616 77.6408C20.9618 78.1503 21.7205 78.9312 22.147 80.2382L22.2522 80.5704C24.0908 86.319 25.9959 92.2669 28.1614 98.0266C28.6044 99.2062 28.9976 100.402 29.4185 101.687L29.9059 103.172L29.784 103.1C28.3663 102.263 26.9097 102.075 25.5031 101.887C24.8329 101.798 24.2016 101.715 23.5869 101.565L23.5536 101.554V101.521C23.1106 99.0844 22.5845 96.6476 22.0694 94.2884C20.9119 88.9496 19.7102 83.4226 19.544 77.6851V77.6075L19.616 77.6352V77.6408ZM14.8588 97.4894C15.1412 97.3454 15.4292 97.2513 15.7227 97.218C15.7726 97.2125 15.828 97.207 15.8778 97.207C16.3652 97.1848 16.8525 97.3288 17.3122 97.6278C18.6912 98.5084 19.6493 99.7102 20.2363 101.305L20.2529 101.355L20.2086 101.377C18.5859 102.058 17.7663 102.789 17.4728 103.831C17.1848 104.866 17.4174 106.217 18.2592 108.344L18.2758 108.388L18.2315 108.411C18.0044 108.532 17.7829 108.61 17.5725 108.632C17.5448 108.632 17.5171 108.632 17.4894 108.638C16.858 108.665 16.5258 108.184 16.3541 107.779C15.3406 105.342 14.5708 102.651 14.0114 99.5662C13.9284 99.1176 13.8508 98.01 14.8477 97.4949M9.35389 100.851C9.42588 100.834 9.49788 100.823 9.56987 100.812C9.60864 100.812 9.64741 100.807 9.68064 100.801C10.4061 100.774 11.0153 101.25 11.2756 102.047C11.6356 103.144 11.9734 104.268 12.3057 105.359L12.3279 105.431C12.638 106.456 12.9481 107.475 13.2804 108.494C13.3081 108.588 13.3413 108.676 13.3746 108.771C13.6072 109.435 13.7899 109.961 13.0589 110.41C12.8595 110.532 12.6601 110.604 12.4663 110.626H12.3888C11.7519 110.659 11.2812 110.111 11.0596 109.784C9.40927 107.364 8.50655 104.789 8.04135 103.05C7.86967 101.82 8.30164 101.1 9.35389 100.851ZM3.21765 107.253L3.1235 107.032C3.07366 106.001 3.3561 105.464 4.0539 105.287C4.16467 105.259 4.27543 105.237 4.38065 105.226C4.42496 105.226 4.46372 105.221 4.50249 105.215C5.09507 105.193 5.49935 105.481 5.77626 106.129C6.38545 107.574 7.08326 108.992 7.75337 110.366L8.0192 110.914C8.06904 111.013 8.12442 111.113 8.1798 111.213C8.45671 111.706 8.65054 112.055 8.1355 112.509C7.9472 112.675 7.75337 112.764 7.54846 112.791H7.48754C7.19402 112.808 6.87835 112.68 6.49068 112.398C4.71294 111.074 3.94868 109.131 3.21211 107.253M7.39893 119.415C7.15525 118.662 6.98357 117.853 6.79527 116.995L6.76204 116.84C6.70113 116.563 6.64021 116.28 6.57375 115.992L6.55713 115.92H6.62913C6.92265 115.948 7.20509 115.953 7.47092 115.942C7.60384 115.937 7.73675 115.926 7.86413 115.915C9.2542 115.76 10.3009 115.106 11.0541 113.915C11.1482 113.771 11.2645 113.694 11.4362 113.677H11.4971C11.6024 113.666 11.7242 113.677 11.835 113.694H11.8903C12.1451 113.727 12.3999 113.733 12.638 113.722C12.7488 113.722 12.854 113.711 12.9592 113.699C14.0613 113.578 15.0028 113.068 15.7504 112.182C15.9719 111.927 16.199 111.8 16.5036 111.767C16.5368 111.767 16.5701 111.761 16.6088 111.756C16.7417 111.756 16.8913 111.756 17.0851 111.789C17.3454 111.828 17.6002 111.844 17.8383 111.833C17.9103 111.833 17.9823 111.828 18.0487 111.817C18.9958 111.711 19.6936 111.169 20.1255 110.205L20.1477 110.155L20.1975 110.177C21.4215 110.759 22.7285 111.03 24.113 111.318C24.401 111.379 24.6945 111.44 24.9935 111.506L25.0545 111.517L25.0323 111.573C23.7198 115.029 23.393 118.451 24.0244 122.045C24.2348 123.203 24.5671 124.394 25.0212 125.584C25.3258 126.398 25.9018 126.869 26.5719 126.841C26.6051 126.841 26.6384 126.841 26.6716 126.836C26.8544 126.814 27.0427 126.758 27.2309 126.67C28.0561 126.293 28.2666 125.546 27.8457 124.455C26.1732 120.052 26.3947 115.743 28.4936 111.656C29.1084 110.454 28.2832 109.723 27.4968 109.219C26.4501 108.566 25.2428 108.333 24.0742 108.106C23.8693 108.067 23.6699 108.028 23.465 107.984C21.6264 107.608 20.7901 106.716 20.5686 104.916V104.872L20.6074 104.861C20.923 104.761 21.2498 104.689 21.5987 104.65C21.7316 104.634 21.87 104.628 22.003 104.623C22.9998 104.584 24.0078 104.778 25.0766 104.982C26.1621 105.193 27.2863 105.409 28.4272 105.365C28.5878 105.359 28.7484 105.348 28.909 105.326C29.4573 105.265 29.9668 105.143 30.4652 104.949L30.504 104.933L30.5261 104.971C32.4036 108.04 33.3893 111.817 33.3838 115.893C33.3727 120.755 32.5642 124.936 30.9193 128.658C30.731 129.079 30.7366 129.566 30.8197 130.054C27.3971 132.296 23.681 133.853 19.3834 134.058C19.0234 133.149 18.6081 132.23 18.2592 131.909C17.8217 131.505 17.2845 131.172 16.6199 130.895C12.2836 129.073 9.35389 125.424 7.39893 119.404" fill="#264964"/>
<path d="M158.678 183.402C155.084 181.497 151.246 180.318 147.541 179.692C146.439 179.664 145.802 179.958 145.63 180.783C145.414 181.829 146.062 182.405 146.965 182.605C148.87 183.02 150.775 183.413 152.597 184.144C154.165 184.776 155.737 185.379 157.327 185.95C158.147 186.243 158.916 186.083 159.315 185.235C159.681 184.471 159.37 183.762 158.678 183.397" fill="#264964"/>
<path d="M96.3467 63.0203C96.7011 63.0978 97.0666 63.1255 97.4211 63.1532L97.5318 63.1643C97.6205 63.1698 97.7146 63.1753 97.8087 63.1809C98.2463 63.203 98.5896 63.1753 98.8887 63.0923C99.4314 62.9427 99.6917 62.7046 99.6197 62.4111C99.5699 62.2505 99.3871 62.1286 99.1877 62.0068L99.1434 61.9791C98.9441 61.8517 98.7281 61.752 98.5675 61.68C98.4401 61.6247 98.3016 61.5748 98.1687 61.525C97.9915 61.464 97.8254 61.4031 97.6758 61.3201C97.41 61.1761 97.1885 60.9822 97.039 60.7552C96.9227 60.5835 96.8617 60.4229 96.8617 60.2734C96.8617 60.0186 97.0334 59.7528 97.1829 59.5257C97.3491 59.2765 97.5042 59.0051 97.6481 58.7171C98.0801 58.0526 98.2186 57.4268 98.0247 57.0003C97.8807 56.6902 97.5706 56.4853 97.1996 56.4521C96.8119 56.4354 96.6402 56.657 96.4851 56.8563L95.8593 57.6483C95.6876 57.8698 95.5104 58.0913 95.3498 58.3129C95.2169 58.4956 95.0951 58.6895 94.9677 58.8777C94.8625 59.0384 94.7572 59.199 94.6188 59.3928C94.3973 59.7085 94.1647 60.0408 94.065 60.4395C93.921 61.0044 94.1037 61.6136 94.5634 62.1065C95.0618 62.6437 95.815 62.8929 96.3522 63.0092" fill="#264964"/>
<path d="M90.0222 48.9312C89.557 48.1724 88.6487 47.6906 87.602 47.6408C86.4667 47.5854 85.4532 48.0395 84.9437 48.8259C84.5948 49.3742 84.329 50.3212 85.0545 51.739L85.0988 51.8276L85.1763 51.8885C85.8464 52.4036 86.6273 52.7082 87.3694 52.7469C88.8592 52.8189 89.9723 51.8608 90.3378 50.1828L90.36 50.072L90.0443 48.9865L90.0111 48.9367L90.0222 48.9312Z" fill="#264964"/>
<path d="M115.464 49.2469C114.418 49.2967 113.515 49.7841 113.044 50.5373L113.011 50.5871L112.695 51.6726L112.717 51.7778C113.083 53.4614 114.196 54.4195 115.686 54.3475C116.433 54.3087 117.214 54.0041 117.879 53.4891L117.956 53.4282L118.001 53.3396C118.726 51.9218 118.46 50.9693 118.111 50.4265C117.608 49.6401 116.588 49.186 115.453 49.2414" fill="#264964"/>
<path d="M88.8037 42.396C89.4185 42.5566 90.0387 42.396 90.2824 41.6871C90.5372 40.9394 90.1772 40.3856 89.5514 40.0423C88.704 39.5715 87.7515 39.4663 86.7546 39.3777C85.4753 39.3278 84.2126 39.5771 83.0939 40.3469C82.5014 40.7567 82.23 41.3659 82.5955 42.0748C82.9112 42.695 83.5038 42.9609 84.1185 42.6895C85.6636 42.0194 87.2032 41.9751 88.8037 42.396Z" fill="#264964"/>
<path d="M120.166 42.0968C119.047 41.316 117.774 40.9117 115.979 40.8452C115.348 40.8452 114.312 40.8397 113.349 41.2218C112.64 41.5043 112.197 42.0248 112.396 42.7891C112.584 43.5146 113.238 43.7306 113.925 43.6475C115.636 43.426 117.248 43.5423 118.798 44.3675C119.551 44.7662 120.316 44.5945 120.731 43.8303C121.119 43.1269 120.781 42.5233 120.166 42.0913" fill="#264964"/>
<path d="M105.629 70.5019C103.879 70.2527 102.095 70.2915 100.323 70.2029C100.323 70.225 100.323 70.2527 100.323 70.2749C98.5509 70.1862 96.7787 69.9924 95.012 70.0422C93.2398 70.0921 92.5088 71.2496 93.2731 72.7615C94.0595 74.3232 94.9234 75.885 95.9978 77.264C97.9251 79.7561 100.484 79.961 102.937 77.995C104.554 76.6991 105.955 75.2259 106.969 73.3928C107.921 71.6705 107.617 70.7844 105.64 70.5075M100.251 76.6825C99.5145 77.0923 98.8887 76.5218 98.3847 76.0456C97.3214 75.0376 96.6568 73.7639 95.732 72.3018C98.7613 72.4513 101.37 72.5842 104.277 72.7282C103.247 74.6057 101.868 75.7742 100.251 76.6769" fill="#264964"/>
<path d="M146.273 31.2813C143.703 21.5952 138.176 13.7975 130.434 7.48402C125.771 3.67933 120.26 1.669 114.323 0.89366C108.049 0.0740177 101.785 0.195856 95.7707 2.42218C84.6502 6.537 76.4095 13.9969 71.1095 24.3808C67.8918 30.6887 65.6655 37.4508 64.2865 44.3734C62.9241 51.202 61.5618 58.8999 62.8854 65.8115C64.8348 76.0072 73.1973 82.6751 82.8946 85.4829C83.9468 85.7875 85.0212 85.9315 86.1067 85.9204C89.4905 88.2575 93.5555 90.2402 98.4456 91.9681C98.7447 92.0733 99.0604 92.1231 99.4203 92.1231C99.8302 92.1231 100.24 92.0567 100.622 91.9847C109.361 90.3122 116.517 87.172 122.265 82.4868C122.708 83.6553 123.533 84.691 124.536 84.9679C126.419 85.494 128.335 85.2115 130.234 85.2392C136.016 85.3223 140.618 82.6474 143.886 78.3332C147.912 73.0221 150.166 66.8361 150.26 60.074C150.399 50.2826 148.771 40.7183 146.267 31.2813M140.391 64.9808C138.796 68.6027 133.735 71.8425 129.625 70.8069C129.526 70.7681 129.426 70.7238 129.332 70.6795C129.26 70.6518 129.188 70.6241 129.116 70.5965C128.717 70.9398 128.357 71.333 128.041 71.7816C123.55 78.2889 117.07 83.1735 108.237 86.7124C105.219 87.9197 102.721 88.4846 100.373 88.4846C97.77 88.4846 95.3941 87.7757 93.1014 86.3136C92.7137 86.0644 92.2872 85.8706 91.8774 85.6823C91.5396 85.5272 91.1852 85.3666 90.864 85.1783C89.7619 84.5359 88.7262 83.8658 87.746 83.168C86.8654 82.4425 85.9683 81.7392 85.0988 81.0026C83.8361 79.9337 82.6952 78.8095 81.6707 77.6465C77.9546 73.1994 75.9719 67.9603 75.6784 61.813C75.6286 60.794 75.6009 59.786 75.5954 58.7781C75.6175 58.5067 75.6341 58.2354 75.6673 57.964C76.5534 50.2106 77.938 42.5791 80.1255 35.0805C80.4357 34.0282 80.9009 33.3747 81.9642 32.9372C87.3749 30.7109 92.1876 27.6096 96.1141 23.2511C96.2581 23.096 96.4021 22.8745 96.7953 23.096C96.3079 24.5802 95.8261 26.0755 94.868 27.3825C94.3696 28.0637 93.8601 28.7726 94.3862 29.642C94.9732 30.6168 95.9203 30.4118 96.7897 30.2014C102.272 28.8778 107.489 26.9394 111.997 23.4615C113.304 22.4536 114.606 21.4401 116.001 20.3491C116.91 21.6505 117.74 22.7914 118.516 23.971C124.979 33.7513 128.983 44.4344 130.489 56.0146C130.617 57.0114 130.5 58.0637 131.619 58.6064C132.832 59.1935 133.596 58.3794 134.493 57.7757C134.51 57.7646 134.526 57.7535 134.549 57.7425C134.942 57.4434 135.374 57.2053 135.828 57.0391C136.282 56.8564 136.753 56.7511 137.229 56.7678C138.259 56.7511 139.273 57.1333 140.004 58.0526C141.505 59.93 141.305 62.8929 140.391 64.9753" fill="#264964"/>
</g>
<defs>
<clipPath id="clip0_49_1084">
<rect width="180" height="252.782" fill="white" transform="translate(0 0.428223)"/>
</clipPath>
</defs>
</svg>
