<svg width="200" height="181" viewBox="0 0 200 181" fill="none" xmlns="http://www.w3.org/2000/svg">
<rect y="0.291016" width="200" height="180" rx="20" fill="white"/>
<g clip-path="url(#clip0_11_4627)">
<path d="M116.508 55.2866C116.508 64.4044 109.113 71.7993 99.9956 71.7993C90.8778 71.7993 83.4829 64.4044 83.4829 55.2866C83.4829 46.1689 90.8778 38.7739 99.9956 38.7739C109.113 38.7739 116.508 46.1689 116.508 55.2866Z" fill="#C3DCD9"/>
<path d="M99.9956 73.5662C89.9148 73.5662 81.7159 65.3673 81.7159 55.2865C81.7159 45.2058 89.9148 37.0068 99.9956 37.0068C110.076 37.0068 118.275 45.2058 118.275 55.2865C118.275 65.3673 110.076 73.5662 99.9956 73.5662ZM99.9956 40.5409C91.8673 40.5409 85.2499 47.1583 85.2499 55.2865C85.2499 63.4148 91.8673 70.0322 99.9956 70.0322C108.124 70.0322 114.741 63.4148 114.741 55.2865C114.741 47.1583 108.124 40.5409 99.9956 40.5409Z" fill="#C3DCD9"/>
<path d="M99.9956 90.291C99.0237 90.291 98.2286 89.4958 98.2286 88.524V77.7983C98.2286 76.8264 99.0237 76.0312 99.9956 76.0312C100.967 76.0312 101.763 76.8264 101.763 77.7983V88.524C101.763 89.4958 100.967 90.291 99.9956 90.291Z" fill="#C3DCD9"/>
<path d="M76.4944 80.5549C76.0438 80.5549 75.5932 80.3782 75.2486 80.0337C74.5595 79.3445 74.5595 78.2225 75.2486 77.5333L82.8291 69.9529C83.5182 69.2638 84.6403 69.2638 85.3294 69.9529C86.0186 70.642 86.0186 71.7641 85.3294 72.4532L77.749 80.0337C77.4044 80.3782 76.9538 80.5549 76.5032 80.5549H76.4944Z" fill="#C3DCD9"/>
<path d="M77.4927 57.0535H66.767C65.7952 57.0535 65 56.2584 65 55.2865C65 54.3147 65.7952 53.5195 66.767 53.5195H77.4927C78.4646 53.5195 79.2597 54.3147 79.2597 55.2865C79.2597 56.2584 78.4646 57.0535 77.4927 57.0535Z" fill="#C3DCD9"/>
<path d="M84.0837 41.1418C83.6331 41.1418 83.1825 40.9651 82.8379 40.6206L75.2575 33.0401C74.5683 32.351 74.5683 31.2289 75.2575 30.5398C75.9466 29.8507 77.0687 29.8507 77.7578 30.5398L85.3383 38.1203C86.0274 38.8094 86.0274 39.9314 85.3383 40.6206C84.9937 40.9651 84.5431 41.1418 84.0925 41.1418H84.0837Z" fill="#C3DCD9"/>
<path d="M100.004 34.5508C99.0326 34.5508 98.2374 33.7556 98.2374 32.7838V22.058C98.2374 21.0862 99.0326 20.291 100.004 20.291C100.976 20.291 101.771 21.0862 101.771 22.058V32.7838C101.771 33.7556 100.976 34.5508 100.004 34.5508Z" fill="#C3DCD9"/>
<path d="M115.916 41.1418C115.466 41.1418 115.015 40.9651 114.671 40.6206C113.981 39.9314 113.981 38.8094 114.671 38.1203L122.251 30.5398C122.94 29.8507 124.062 29.8507 124.751 30.5398C125.44 31.2289 125.44 32.351 124.751 33.0401L117.171 40.6206C116.826 40.9651 116.376 41.1418 115.925 41.1418H115.916Z" fill="#C3DCD9"/>
<path d="M133.233 57.0623H122.507C121.535 57.0623 120.74 56.2672 120.74 55.2953C120.74 54.3235 121.535 53.5283 122.507 53.5283H133.233C134.205 53.5283 135 54.3235 135 55.2953C135 56.2672 134.205 57.0623 133.233 57.0623Z" fill="#C3DCD9"/>
<path d="M123.497 80.555C123.046 80.555 122.596 80.3783 122.251 80.0337L114.671 72.4444C113.981 71.7553 113.981 70.6332 114.671 69.9441C115.36 69.255 116.482 69.255 117.171 69.9441L124.751 77.5334C125.44 78.2225 125.44 79.3446 124.751 80.0337C124.407 80.3783 123.956 80.555 123.506 80.555H123.497Z" fill="#C3DCD9"/>
</g>
<path d="M39.72 113.271H43.76V115.091H39.72V113.271ZM38.16 119.111H44.74V120.731H38.16V119.111ZM31.4 107.991H36.9V109.871H31.4V107.991ZM36.28 107.991H36.68L37.06 107.911L38.54 108.631C38.06 109.804 37.4067 110.844 36.58 111.751C35.7533 112.644 34.82 113.418 33.78 114.071C32.74 114.711 31.6533 115.244 30.52 115.671C30.3733 115.404 30.1733 115.098 29.92 114.751C29.6667 114.391 29.44 114.111 29.24 113.911C29.9867 113.684 30.72 113.391 31.44 113.031C32.1733 112.658 32.8533 112.231 33.48 111.751C34.1067 111.271 34.66 110.744 35.14 110.171C35.62 109.598 36 108.991 36.28 108.351V107.991ZM40.52 107.391C40.9733 108.378 41.5733 109.284 42.32 110.111C43.08 110.924 43.96 111.631 44.96 112.231C45.9733 112.818 47.1 113.278 48.34 113.611C48.0867 113.824 47.82 114.118 47.54 114.491C47.2733 114.864 47.06 115.198 46.9 115.491C45.5933 115.078 44.4133 114.511 43.36 113.791C42.32 113.071 41.4 112.224 40.6 111.251C39.8133 110.264 39.1467 109.164 38.6 107.951L40.52 107.391ZM43.52 107.431L45.26 108.631C44.78 109.044 44.2867 109.451 43.78 109.851C43.2867 110.238 42.8333 110.571 42.42 110.851L41.04 109.771C41.3067 109.571 41.5933 109.338 41.9 109.071C42.2067 108.791 42.5 108.511 42.78 108.231C43.0733 107.938 43.32 107.671 43.52 107.431ZM46.1 109.431L47.84 110.631C47.3733 111.044 46.88 111.451 46.36 111.851C45.84 112.238 45.3667 112.571 44.94 112.851L43.52 111.771C43.8 111.571 44.0933 111.338 44.4 111.071C44.72 110.791 45.0333 110.511 45.34 110.231C45.6467 109.938 45.9 109.671 46.1 109.431ZM32.32 113.391H37.38V118.391H35.26V115.191H32.32V113.391ZM31.7 116.611H33.64C33.5333 117.438 33.4133 118.304 33.28 119.211C33.16 120.104 33.0333 120.864 32.9 121.491H30.92C31.0267 121.051 31.1267 120.558 31.22 120.011C31.3133 119.451 31.4 118.878 31.48 118.291C31.5733 117.704 31.6467 117.144 31.7 116.611ZM35.24 119.751H37.4C37.4 119.751 37.3933 119.858 37.38 120.071C37.38 120.271 37.3667 120.444 37.34 120.591C37.2733 121.498 37.2 122.258 37.12 122.871C37.04 123.484 36.94 123.971 36.82 124.331C36.7 124.704 36.5533 124.978 36.38 125.151C36.1533 125.378 35.9133 125.538 35.66 125.631C35.4067 125.724 35.1067 125.784 34.76 125.811C34.48 125.851 34.1 125.871 33.62 125.871C33.14 125.871 32.6267 125.864 32.08 125.851C32.0667 125.518 31.9933 125.164 31.86 124.791C31.74 124.431 31.5867 124.111 31.4 123.831C31.8933 123.871 32.3667 123.898 32.82 123.911C33.2867 123.924 33.62 123.931 33.82 123.931C33.9933 123.931 34.14 123.924 34.26 123.911C34.38 123.884 34.48 123.824 34.56 123.731C34.72 123.598 34.8533 123.251 34.96 122.691C35.0667 122.118 35.16 121.231 35.24 120.031V119.751ZM38.82 113.271H40.82V114.751C40.82 115.231 40.76 115.738 40.64 116.271C40.52 116.791 40.3 117.291 39.98 117.771C39.6733 118.251 39.2133 118.678 38.6 119.051C38.5067 118.918 38.3667 118.751 38.18 118.551C37.9933 118.351 37.8 118.158 37.6 117.971C37.4 117.784 37.2333 117.651 37.1 117.571C37.6067 117.278 37.98 116.971 38.22 116.651C38.46 116.331 38.62 116.004 38.7 115.671C38.78 115.338 38.82 115.011 38.82 114.691V113.271ZM44.26 119.111H44.68L45.06 119.051L46.36 119.511C45.9333 120.791 45.32 121.864 44.52 122.731C43.72 123.598 42.7733 124.298 41.68 124.831C40.6 125.378 39.3933 125.798 38.06 126.091C37.9667 125.838 37.82 125.538 37.62 125.191C37.4333 124.844 37.24 124.564 37.04 124.351C38.2 124.151 39.26 123.844 40.22 123.431C41.1933 123.004 42.0267 122.458 42.72 121.791C43.4267 121.111 43.94 120.304 44.26 119.371V119.111ZM32.54 116.611H35.98V118.391H32.22L32.54 116.611ZM32 119.751H35.84V121.491H31.64L32 119.751ZM30.74 111.151L32.1 109.891C32.5 110.091 32.9333 110.338 33.4 110.631C33.88 110.911 34.2533 111.171 34.52 111.411L33.08 112.811C32.84 112.558 32.4933 112.278 32.04 111.971C31.5867 111.664 31.1533 111.391 30.74 111.151ZM42.66 113.271H44.62V116.271C44.62 116.511 44.6333 116.678 44.66 116.771C44.7 116.864 44.7867 116.911 44.92 116.911C44.9867 116.911 45.0867 116.911 45.22 116.911C45.3533 116.911 45.48 116.911 45.6 116.911C45.7333 116.911 45.8333 116.911 45.9 116.911C46.0333 116.911 46.2 116.904 46.4 116.891C46.6133 116.864 46.7867 116.838 46.92 116.811C46.9467 117.051 46.9667 117.324 46.98 117.631C47.0067 117.938 47.04 118.211 47.08 118.451C46.9333 118.491 46.7533 118.518 46.54 118.531C46.34 118.544 46.14 118.551 45.94 118.551C45.86 118.551 45.7667 118.551 45.66 118.551C45.5533 118.551 45.4333 118.551 45.3 118.551C45.18 118.551 45.0667 118.551 44.96 118.551C44.8533 118.551 44.76 118.551 44.68 118.551C44.12 118.551 43.6933 118.471 43.4 118.311C43.1067 118.151 42.9067 117.904 42.8 117.571C42.7067 117.224 42.66 116.784 42.66 116.251V113.271ZM37.84 121.691L38.96 120.331C39.56 120.624 40.2 120.958 40.88 121.331C41.5733 121.691 42.2667 122.064 42.96 122.451C43.6533 122.824 44.3067 123.191 44.92 123.551C45.5333 123.911 46.0533 124.231 46.48 124.511L45.28 126.091C44.8667 125.798 44.36 125.464 43.76 125.091C43.1733 124.731 42.5333 124.351 41.84 123.951C41.16 123.551 40.4733 123.158 39.78 122.771C39.0867 122.371 38.44 122.011 37.84 121.691ZM59.06 110.571H68.64V112.851H57.92L59.06 110.571ZM61.68 114.951H68.14V117.151H61.68V114.951ZM61.66 119.391H68.4V121.631H61.66V119.391ZM60.46 111.331H62.94V126.071H60.46V111.331ZM59.52 107.491L61.82 108.091C61.4467 109.171 61.0067 110.244 60.5 111.311C60.0067 112.378 59.4667 113.378 58.88 114.311C58.2933 115.231 57.6933 116.044 57.08 116.751C56.96 116.591 56.7867 116.404 56.56 116.191C56.3333 115.978 56.1 115.771 55.86 115.571C55.6333 115.358 55.4267 115.191 55.24 115.071C55.84 114.471 56.4 113.764 56.92 112.951C57.4533 112.138 57.94 111.264 58.38 110.331C58.8333 109.384 59.2133 108.438 59.52 107.491ZM54.22 107.371L56.54 108.111C56.1133 109.244 55.6067 110.384 55.02 111.531C54.4333 112.678 53.7933 113.764 53.1 114.791C52.4067 115.804 51.6933 116.691 50.96 117.451C50.88 117.251 50.76 116.991 50.6 116.671C50.4533 116.351 50.2933 116.024 50.12 115.691C49.9467 115.358 49.7867 115.091 49.64 114.891C50.2533 114.278 50.84 113.571 51.4 112.771C51.9733 111.971 52.5 111.111 52.98 110.191C53.4733 109.271 53.8867 108.331 54.22 107.371ZM52.2 112.911L54.62 110.491V110.511V126.051H52.2V112.911ZM78.14 113.431H88.38V115.511H78.14V113.431ZM77.5 109.431H88.94V111.531H77.5V109.431ZM77.54 117.071H88.84V119.171H77.54V117.071ZM82.02 107.271H84.4V114.631H82.02V107.271ZM84.56 115.271H86.92V123.551C86.92 124.124 86.8467 124.571 86.7 124.891C86.5533 125.224 86.2867 125.484 85.9 125.671C85.5133 125.844 85.04 125.951 84.48 125.991C83.9333 126.044 83.2867 126.071 82.54 126.071C82.4867 125.738 82.3867 125.351 82.24 124.911C82.0933 124.484 81.94 124.118 81.78 123.811C82.2733 123.824 82.7533 123.838 83.22 123.851C83.6867 123.851 84 123.851 84.16 123.851C84.3067 123.851 84.4067 123.831 84.46 123.791C84.5267 123.738 84.56 123.638 84.56 123.491V115.271ZM78.34 120.531L80.32 119.431C80.5867 119.751 80.8733 120.111 81.18 120.511C81.5 120.898 81.7933 121.284 82.06 121.671C82.34 122.044 82.5667 122.378 82.74 122.671L80.62 123.911C80.4733 123.604 80.2667 123.258 80 122.871C79.7467 122.484 79.4733 122.084 79.18 121.671C78.8867 121.258 78.6067 120.878 78.34 120.531ZM72 108.531H77.14V122.211H72V120.071H74.92V110.671H72V108.531ZM72.12 114.211H76V116.311H72.12V114.211ZM70.86 108.531H73.08V123.991H70.86V108.531ZM95.08 116.151H107.02V126.131H104.62V117.951H97.36V126.131H95.08V116.151ZM91.08 113.411H108.92V115.311H91.08V113.411ZM92.48 110.751H107.82V112.551H92.48V110.751ZM96.62 118.811H105.58V120.311H96.62V118.811ZM96.62 121.191H105.58V122.691H96.62V121.191ZM96.36 123.591H105.6V125.411H96.36V123.591ZM106.36 107.371L107.74 109.071C106.713 109.244 105.587 109.391 104.36 109.511C103.147 109.618 101.88 109.711 100.56 109.791C99.24 109.858 97.9133 109.904 96.58 109.931C95.2467 109.958 93.96 109.964 92.72 109.951C92.7067 109.698 92.6533 109.398 92.56 109.051C92.4667 108.704 92.3667 108.411 92.26 108.171C93.4867 108.171 94.7467 108.158 96.04 108.131C97.3467 108.091 98.6267 108.038 99.88 107.971C101.133 107.904 102.313 107.824 103.42 107.731C104.527 107.624 105.507 107.504 106.36 107.371ZM97.84 109.031L100.32 109.531C99.8667 111.184 99.28 112.791 98.56 114.351C97.8533 115.911 96.96 117.344 95.88 118.651C94.8 119.944 93.4933 121.038 91.96 121.931C91.84 121.744 91.6933 121.531 91.52 121.291C91.3467 121.051 91.1667 120.818 90.98 120.591C90.7933 120.364 90.62 120.178 90.46 120.031C91.8733 119.258 93.0667 118.291 94.04 117.131C95.0267 115.958 95.8267 114.671 96.44 113.271C97.0533 111.871 97.52 110.458 97.84 109.031ZM112.1 117.671H121.64V119.751H112.1V117.671ZM115.76 115.871H118.04V123.971H115.76V115.871ZM111.42 123.111C112.3 122.991 113.307 122.844 114.44 122.671C115.587 122.484 116.793 122.284 118.06 122.071C119.34 121.858 120.607 121.644 121.86 121.431L122 123.491C120.813 123.704 119.62 123.924 118.42 124.151C117.233 124.378 116.087 124.591 114.98 124.791C113.873 124.991 112.86 125.171 111.94 125.331L111.42 123.111ZM111.62 108.471H122.08V110.551H111.62V108.471ZM117.5 111.531L119.2 110.511C119.56 110.951 119.92 111.431 120.28 111.951C120.653 112.471 120.993 112.978 121.3 113.471C121.62 113.964 121.867 114.418 122.04 114.831L120.2 116.011C120.053 115.598 119.827 115.138 119.52 114.631C119.227 114.111 118.9 113.584 118.54 113.051C118.193 112.504 117.847 111.998 117.5 111.531ZM122.86 109.171H125.06V121.311H122.86V109.171ZM126.68 107.511H129.02V123.071C129.02 123.698 128.947 124.178 128.8 124.511C128.667 124.858 128.407 125.131 128.02 125.331C127.633 125.504 127.153 125.618 126.58 125.671C126.007 125.738 125.333 125.771 124.56 125.771C124.507 125.451 124.393 125.064 124.22 124.611C124.06 124.171 123.893 123.798 123.72 123.491C124.253 123.504 124.76 123.518 125.24 123.531C125.72 123.531 126.047 123.524 126.22 123.511C126.407 123.511 126.527 123.484 126.58 123.431C126.647 123.364 126.68 123.244 126.68 123.071V107.511ZM112.76 115.811C112.707 115.651 112.633 115.444 112.54 115.191C112.46 114.924 112.367 114.651 112.26 114.371C112.167 114.091 112.073 113.851 111.98 113.651C112.14 113.598 112.3 113.498 112.46 113.351C112.62 113.204 112.78 113.018 112.94 112.791C113.033 112.631 113.187 112.364 113.4 111.991C113.627 111.618 113.86 111.178 114.1 110.671C114.34 110.151 114.547 109.618 114.72 109.071L117.04 109.931C116.8 110.478 116.507 111.038 116.16 111.611C115.827 112.184 115.473 112.731 115.1 113.251C114.74 113.771 114.387 114.231 114.04 114.631V114.671C114.04 114.671 113.973 114.711 113.84 114.791C113.72 114.858 113.573 114.951 113.4 115.071C113.227 115.191 113.073 115.318 112.94 115.451C112.82 115.584 112.76 115.704 112.76 115.811ZM112.76 115.811L112.7 114.151L113.8 113.471L119.86 113.071C119.993 113.391 120.153 113.724 120.34 114.071C120.54 114.418 120.707 114.711 120.84 114.951C119.533 115.058 118.433 115.151 117.54 115.231C116.647 115.298 115.913 115.358 115.34 115.411C114.78 115.464 114.333 115.511 114 115.551C113.667 115.591 113.407 115.631 113.22 115.671C113.033 115.711 112.88 115.758 112.76 115.811ZM142.1 116.431H144.52V122.931C144.52 123.291 144.567 123.524 144.66 123.631C144.753 123.724 144.96 123.771 145.28 123.771C145.36 123.771 145.48 123.771 145.64 123.771C145.8 123.771 145.98 123.771 146.18 123.771C146.38 123.771 146.56 123.771 146.72 123.771C146.893 123.771 147.027 123.771 147.12 123.771C147.347 123.771 147.513 123.698 147.62 123.551C147.74 123.391 147.82 123.084 147.86 122.631C147.913 122.178 147.953 121.498 147.98 120.591C148.153 120.724 148.373 120.858 148.64 120.991C148.907 121.111 149.173 121.224 149.44 121.331C149.72 121.438 149.967 121.518 150.18 121.571C150.1 122.731 149.96 123.638 149.76 124.291C149.573 124.931 149.287 125.378 148.9 125.631C148.527 125.884 148.007 126.011 147.34 126.011C147.22 126.011 147.047 126.011 146.82 126.011C146.607 126.011 146.373 126.011 146.12 126.011C145.867 126.011 145.633 126.011 145.42 126.011C145.207 126.011 145.047 126.011 144.94 126.011C144.18 126.011 143.593 125.918 143.18 125.731C142.78 125.544 142.5 125.224 142.34 124.771C142.18 124.318 142.1 123.711 142.1 122.951V116.431ZM136.72 116.531H139.28C139.2 117.638 139.06 118.671 138.86 119.631C138.673 120.591 138.353 121.478 137.9 122.291C137.46 123.091 136.827 123.811 136 124.451C135.173 125.104 134.08 125.658 132.72 126.111C132.64 125.898 132.52 125.658 132.36 125.391C132.2 125.124 132.02 124.864 131.82 124.611C131.633 124.371 131.447 124.171 131.26 124.011C132.447 123.651 133.393 123.224 134.1 122.731C134.807 122.238 135.333 121.678 135.68 121.051C136.027 120.411 136.267 119.718 136.4 118.971C136.547 118.211 136.653 117.398 136.72 116.531ZM133.22 108.971L135.4 108.151C135.707 108.644 136.007 109.184 136.3 109.771C136.607 110.358 136.873 110.931 137.1 111.491C137.34 112.038 137.52 112.538 137.64 112.991L135.3 113.931C135.207 113.491 135.053 112.984 134.84 112.411C134.627 111.838 134.373 111.251 134.08 110.651C133.8 110.051 133.513 109.491 133.22 108.971ZM146.18 108.011L148.72 108.871C148.427 109.471 148.12 110.071 147.8 110.671C147.48 111.271 147.167 111.844 146.86 112.391C146.553 112.938 146.253 113.418 145.96 113.831L143.88 113.031C144.147 112.578 144.42 112.064 144.7 111.491C144.993 110.918 145.267 110.331 145.52 109.731C145.787 109.118 146.007 108.544 146.18 108.011ZM131.78 114.631H149.86V116.891H131.78V114.631ZM139.5 107.291H141.94V115.551H139.5V107.291ZM163.64 107.271L166.38 107.771C166.113 108.304 165.84 108.824 165.56 109.331C165.28 109.824 165.02 110.244 164.78 110.591L162.76 110.071C162.933 109.671 163.1 109.211 163.26 108.691C163.42 108.171 163.547 107.698 163.64 107.271ZM162.38 113.911V114.951H167.46V113.911H162.38ZM162.38 111.211V112.231H167.46V111.211H162.38ZM160.16 109.411H169.8V116.751H160.16V109.411ZM163.98 115.931H166.26V123.711C166.26 124.244 166.2 124.664 166.08 124.971C165.96 125.291 165.727 125.551 165.38 125.751C165.047 125.924 164.64 126.031 164.16 126.071C163.693 126.111 163.14 126.131 162.5 126.131C162.46 125.811 162.38 125.438 162.26 125.011C162.14 124.598 162.007 124.238 161.86 123.931C162.22 123.944 162.573 123.958 162.92 123.971C163.28 123.971 163.527 123.964 163.66 123.951C163.78 123.951 163.86 123.931 163.9 123.891C163.953 123.851 163.98 123.778 163.98 123.671V115.931ZM159.46 117.991H162.26V119.931H159.46V117.991ZM161.72 117.991H162.1L162.48 117.911L163.88 118.391C163.667 119.431 163.36 120.384 162.96 121.251C162.573 122.104 162.1 122.858 161.54 123.511C160.993 124.151 160.367 124.691 159.66 125.131C159.513 124.878 159.307 124.584 159.04 124.251C158.787 123.918 158.547 123.651 158.32 123.451C158.88 123.144 159.387 122.724 159.84 122.191C160.307 121.658 160.7 121.064 161.02 120.411C161.34 119.744 161.573 119.044 161.72 118.311V117.991ZM168.66 117.051L170.44 118.551C169.88 119.004 169.32 119.458 168.76 119.911C168.2 120.364 167.687 120.744 167.22 121.051L165.92 119.851C166.213 119.611 166.527 119.331 166.86 119.011C167.207 118.691 167.54 118.358 167.86 118.011C168.18 117.651 168.447 117.331 168.66 117.051ZM166.16 117.051C166.413 117.944 166.753 118.804 167.18 119.631C167.62 120.458 168.133 121.198 168.72 121.851C169.32 122.504 169.987 123.031 170.72 123.431C170.547 123.578 170.36 123.764 170.16 123.991C169.96 124.204 169.773 124.431 169.6 124.671C169.427 124.911 169.28 125.138 169.16 125.351C168.387 124.818 167.7 124.151 167.1 123.351C166.513 122.538 166.007 121.631 165.58 120.631C165.167 119.618 164.813 118.551 164.52 117.431L166.16 117.051ZM156.46 115.531L158.18 115.051C158.34 115.504 158.493 115.991 158.64 116.511C158.787 117.018 158.913 117.511 159.02 117.991C159.14 118.471 159.22 118.891 159.26 119.251L157.4 119.831C157.36 119.458 157.293 119.024 157.2 118.531C157.107 118.038 156.993 117.531 156.86 117.011C156.727 116.478 156.593 115.984 156.46 115.531ZM154.72 120.791L156.4 120.491C156.52 121.158 156.62 121.884 156.7 122.671C156.78 123.458 156.827 124.144 156.84 124.731L155.06 125.071C155.06 124.484 155.027 123.791 154.96 122.991C154.893 122.191 154.813 121.458 154.72 120.791ZM152.58 120.511L154.4 120.791C154.333 121.724 154.22 122.651 154.06 123.571C153.913 124.491 153.733 125.264 153.52 125.891C153.387 125.824 153.207 125.751 152.98 125.671C152.767 125.591 152.547 125.511 152.32 125.431C152.093 125.364 151.9 125.311 151.74 125.271C151.98 124.658 152.16 123.924 152.28 123.071C152.413 122.204 152.513 121.351 152.58 120.511ZM152.38 115.251C152.34 115.104 152.273 114.904 152.18 114.651C152.1 114.398 152.013 114.131 151.92 113.851C151.827 113.571 151.733 113.338 151.64 113.151C151.84 113.111 152.027 113.004 152.2 112.831C152.373 112.644 152.56 112.398 152.76 112.091C152.893 111.904 153.093 111.558 153.36 111.051C153.627 110.544 153.913 109.958 154.22 109.291C154.527 108.611 154.78 107.924 154.98 107.231L157.16 108.131C156.867 108.824 156.527 109.531 156.14 110.251C155.767 110.971 155.367 111.658 154.94 112.311C154.527 112.964 154.113 113.551 153.7 114.071V114.131C153.7 114.131 153.633 114.171 153.5 114.251C153.38 114.331 153.227 114.431 153.04 114.551C152.867 114.658 152.713 114.778 152.58 114.911C152.447 115.031 152.38 115.144 152.38 115.251ZM152.38 115.251L152.32 113.591L153.3 112.951L156.76 112.711C156.707 113.004 156.653 113.331 156.6 113.691C156.56 114.051 156.533 114.358 156.52 114.611C155.747 114.678 155.113 114.744 154.62 114.811C154.127 114.864 153.733 114.918 153.44 114.971C153.16 115.011 152.933 115.058 152.76 115.111C152.6 115.151 152.473 115.198 152.38 115.251ZM152.54 119.891C152.5 119.731 152.433 119.524 152.34 119.271C152.26 119.004 152.167 118.731 152.06 118.451C151.953 118.158 151.853 117.911 151.76 117.711C152.027 117.644 152.28 117.504 152.52 117.291C152.76 117.064 153.047 116.764 153.38 116.391C153.54 116.204 153.773 115.904 154.08 115.491C154.4 115.064 154.753 114.564 155.14 113.991C155.527 113.404 155.913 112.778 156.3 112.111C156.7 111.444 157.047 110.764 157.34 110.071L159.38 111.351C158.9 112.231 158.36 113.111 157.76 113.991C157.16 114.871 156.533 115.718 155.88 116.531C155.227 117.331 154.567 118.058 153.9 118.711V118.771C153.9 118.771 153.833 118.811 153.7 118.891C153.567 118.958 153.407 119.051 153.22 119.171C153.033 119.278 152.873 119.398 152.74 119.531C152.607 119.664 152.54 119.784 152.54 119.891ZM152.54 119.891L152.44 118.171L153.42 117.531L158.2 116.951C158.16 117.244 158.127 117.578 158.1 117.951C158.073 118.311 158.067 118.611 158.08 118.851C157 118.998 156.12 119.124 155.44 119.231C154.773 119.338 154.247 119.431 153.86 119.511C153.487 119.578 153.2 119.644 153 119.711C152.813 119.764 152.66 119.824 152.54 119.891ZM156.72 120.391L158.3 119.891C158.46 120.331 158.613 120.811 158.76 121.331C158.92 121.838 159.04 122.278 159.12 122.651L157.48 123.231C157.413 122.844 157.307 122.384 157.16 121.851C157.027 121.318 156.88 120.831 156.72 120.391ZM70.9 138.631H88.34V141.091H70.9V138.631ZM80.56 145.351L82.42 143.791C82.9533 144.178 83.5267 144.604 84.14 145.071C84.7667 145.524 85.3867 145.998 86 146.491C86.6267 146.984 87.2067 147.471 87.74 147.951C88.2733 148.418 88.7267 148.844 89.1 149.231L87.06 151.091C86.7267 150.691 86.3 150.251 85.78 149.771C85.2733 149.278 84.72 148.771 84.12 148.251C83.5333 147.731 82.9267 147.224 82.3 146.731C81.6867 146.238 81.1067 145.778 80.56 145.351ZM79.76 139.551L82.42 140.491C81.66 141.891 80.7533 143.258 79.7 144.591C78.66 145.924 77.4867 147.158 76.18 148.291C74.8733 149.411 73.4533 150.371 71.92 151.171C71.8 150.958 71.64 150.718 71.44 150.451C71.24 150.184 71.0333 149.924 70.82 149.671C70.62 149.404 70.4333 149.178 70.26 148.991C71.34 148.498 72.36 147.898 73.32 147.191C74.28 146.471 75.1667 145.691 75.98 144.851C76.8067 144.011 77.5333 143.144 78.16 142.251C78.8 141.344 79.3333 140.444 79.76 139.551ZM78.3 144.391L80.92 141.771V156.051H78.3V144.391ZM99.9 144.511H107.64V146.671H99.9V144.511ZM100.4 138.071H106.96V140.171H100.4V138.071ZM103.16 145.971H105.42V153.631C105.42 154.178 105.367 154.618 105.26 154.951C105.153 155.284 104.913 155.538 104.54 155.711C104.207 155.884 103.8 155.991 103.32 156.031C102.84 156.071 102.273 156.091 101.62 156.091C101.58 155.771 101.493 155.398 101.36 154.971C101.24 154.544 101.113 154.178 100.98 153.871C101.367 153.884 101.74 153.898 102.1 153.911C102.46 153.911 102.707 153.911 102.84 153.911C102.96 153.898 103.04 153.871 103.08 153.831C103.133 153.791 103.16 153.718 103.16 153.611V145.971ZM106.44 138.071H107L107.46 137.951L108.92 138.971C108.573 139.504 108.18 140.051 107.74 140.611C107.3 141.171 106.833 141.704 106.34 142.211C105.86 142.704 105.367 143.138 104.86 143.511C104.713 143.311 104.507 143.078 104.24 142.811C103.987 142.544 103.767 142.338 103.58 142.191C103.967 141.884 104.34 141.511 104.7 141.071C105.073 140.631 105.413 140.184 105.72 139.731C106.027 139.278 106.267 138.871 106.44 138.511V138.071ZM107.06 144.511H107.4L107.74 144.431L109.32 144.771C109.147 145.584 108.947 146.411 108.72 147.251C108.493 148.091 108.28 148.804 108.08 149.391L106.14 148.991C106.247 148.631 106.36 148.218 106.48 147.751C106.6 147.284 106.707 146.791 106.8 146.271C106.907 145.751 106.993 145.264 107.06 144.811V144.511ZM100.64 141.911L102.2 140.631C102.72 140.924 103.253 141.271 103.8 141.671C104.347 142.058 104.86 142.458 105.34 142.871C105.82 143.284 106.207 143.671 106.5 144.031L104.8 145.451C104.533 145.091 104.167 144.698 103.7 144.271C103.247 143.844 102.753 143.424 102.22 143.011C101.687 142.598 101.16 142.231 100.64 141.911ZM91.76 149.071H99.5V155.391H97.24V151.031H93.92V155.791H91.76V149.071ZM94.5 143.011H96.74V149.931H94.5V143.011ZM92.86 142.311H98.26V144.271H92.86V142.311ZM91.32 145.631H99.68V147.611H91.32V145.631ZM92.66 152.911H97.88V154.871H92.66V152.911ZM94.98 139.631L96.22 138.051C96.7267 138.384 97.2333 138.758 97.74 139.171C98.2467 139.584 98.72 139.991 99.16 140.391C99.6133 140.791 99.98 141.158 100.26 141.491L98.92 143.331C98.6667 142.984 98.32 142.598 97.88 142.171C97.44 141.731 96.9667 141.291 96.46 140.851C95.9533 140.398 95.46 139.991 94.98 139.631ZM95.02 137.131L97 137.911C96.5867 138.631 96.0867 139.351 95.5 140.071C94.9133 140.778 94.2867 141.444 93.62 142.071C92.9667 142.684 92.3 143.218 91.62 143.671C91.58 143.511 91.4933 143.291 91.36 143.011C91.24 142.718 91.1133 142.424 90.98 142.131C90.8467 141.838 90.72 141.598 90.6 141.411C91.4267 140.918 92.24 140.291 93.04 139.531C93.8533 138.771 94.5133 137.971 95.02 137.131ZM113.16 137.991H117.66V140.211H113.16V137.991ZM113.16 142.531H117.74V144.751H113.16V142.531ZM120.98 144.991H127.98V147.171H120.98V144.991ZM113.14 147.191H117.66V149.451H113.14V147.191ZM112.22 137.991H114.38V145.291C114.38 146.091 114.36 146.964 114.32 147.911C114.293 148.858 114.227 149.818 114.12 150.791C114.013 151.764 113.853 152.711 113.64 153.631C113.427 154.551 113.153 155.378 112.82 156.111C112.687 155.991 112.5 155.858 112.26 155.711C112.02 155.564 111.773 155.424 111.52 155.291C111.28 155.171 111.067 155.078 110.88 155.011C111.2 154.331 111.447 153.584 111.62 152.771C111.793 151.944 111.927 151.098 112.02 150.231C112.113 149.364 112.167 148.511 112.18 147.671C112.207 146.818 112.22 146.024 112.22 145.291V137.991ZM116.32 137.991H118.54V153.471C118.54 154.018 118.487 154.464 118.38 154.811C118.273 155.158 118.06 155.431 117.74 155.631C117.42 155.831 117.033 155.958 116.58 156.011C116.127 156.064 115.573 156.091 114.92 156.091C114.907 155.878 114.867 155.624 114.8 155.331C114.733 155.051 114.653 154.771 114.56 154.491C114.48 154.211 114.387 153.971 114.28 153.771C114.653 153.784 115 153.791 115.32 153.791C115.653 153.791 115.88 153.791 116 153.791C116.12 153.791 116.2 153.764 116.24 153.711C116.293 153.658 116.32 153.564 116.32 153.431V137.991ZM126.6 138.011H128.9V141.891C128.9 142.424 128.827 142.844 128.68 143.151C128.547 143.444 128.273 143.671 127.86 143.831C127.46 143.978 126.967 144.071 126.38 144.111C125.807 144.138 125.14 144.151 124.38 144.151C124.34 143.831 124.247 143.484 124.1 143.111C123.967 142.738 123.827 142.411 123.68 142.131C124.013 142.144 124.353 142.158 124.7 142.171C125.047 142.184 125.353 142.191 125.62 142.191C125.9 142.178 126.087 142.171 126.18 142.171C126.34 142.158 126.447 142.131 126.5 142.091C126.567 142.051 126.6 141.971 126.6 141.851V138.011ZM127.32 144.991H127.72L128.1 144.911L129.52 145.371C129.227 147.104 128.787 148.658 128.2 150.031C127.627 151.391 126.913 152.571 126.06 153.571C125.207 154.571 124.233 155.398 123.14 156.051C122.993 155.784 122.78 155.471 122.5 155.111C122.233 154.764 121.987 154.491 121.76 154.291C122.693 153.798 123.54 153.111 124.3 152.231C125.06 151.351 125.693 150.324 126.2 149.151C126.72 147.978 127.093 146.724 127.32 145.391V144.991ZM123.86 146.451C124.207 147.584 124.673 148.658 125.26 149.671C125.86 150.671 126.56 151.571 127.36 152.371C128.173 153.158 129.087 153.784 130.1 154.251C129.847 154.451 129.573 154.738 129.28 155.111C128.987 155.484 128.76 155.811 128.6 156.091C127.52 155.518 126.56 154.778 125.72 153.871C124.893 152.951 124.167 151.911 123.54 150.751C122.927 149.578 122.407 148.311 121.98 146.951L123.86 146.451ZM119.66 138.011H127.18V140.231H121.92V156.091H119.66V138.011Z" fill="#264964"/>
<defs>
<clipPath id="clip0_11_4627">
<rect width="70" height="70" fill="white" transform="translate(65 20.291)"/>
</clipPath>
</defs>
</svg>
