<svg width="185" height="179" viewBox="0 0 185 179" fill="none" xmlns="http://www.w3.org/2000/svg">
<path d="M51.1517 167.105C44.1389 164.024 37.8336 159.128 31.717 154.623C21.6223 147.194 14.0906 136.745 8.00551 125.656C2.04618 114.769 -0.59542 104.884 0.112152 96.0152C0.583867 89.962 -0.469629 83.7211 1.16565 77.7774C2.83237 71.6304 3.79153 65.1236 6.32306 59.2111C14.7039 39.6907 28.9654 25.9889 49.139 18.1057C57.6142 14.7897 66.105 11.8022 74.5959 9.12754C79.4546 7.59469 86.6246 6.578 96.1218 6.07748C103.072 5.71773 110.226 6.60928 117.569 8.78343C127.617 11.7553 135.62 14.8523 141.611 18.0588C161.517 28.7105 175.087 44.3988 182.32 65.1236C183.499 68.5177 184.222 72.2091 184.458 76.1976C184.851 82.6575 185.04 88.8984 184.993 94.9516C184.946 99.9099 184.348 104.493 183.2 108.7C177.367 130.066 165.087 149.165 146.297 160.473C137.35 165.854 126.988 170.265 115.195 173.69C111.044 174.895 107.113 174.988 102.915 175.661C101.264 175.927 99.5496 176.036 97.8043 175.989C91.5619 175.833 85.1152 176.349 79.2816 175.395C69.5643 173.815 60.1929 171.062 51.1517 167.105Z" fill="white"/>
<g clip-path="url(#clip0_1_239)">
<path d="M117.009 63.4655C115.298 62.1501 110.021 60.9584 108.731 63.2035C108.325 64.0936 108.741 65.0381 109.611 65.4337C110.62 65.8887 111.831 65.4535 112.904 65.7452C113.903 66.0172 114.729 66.8134 115.783 66.8925C117.855 67.0458 118.591 64.687 117.004 63.4705" fill="#F4F0BB"/>
<path d="M87.7882 60.6814C86.2355 58.2732 81.2904 58.832 81.3151 62.0414C81.4931 64.3656 84.475 63.5546 86.0673 63.693C88.1591 64.0392 88.9355 62.3084 87.7932 60.6814" fill="#F4F0BB"/>
<path d="M128.882 23.6574C124.318 19.7508 117.711 16.8035 111.747 18.2771C101.155 17.8766 82.6305 26.3525 82.858 38.6065C84.5096 38.8735 86.1712 39.4125 87.8426 39.4867C89.1976 39.3878 90.0284 38.0427 90.8839 37.0982C92.9707 34.7938 95.3345 32.7811 97.9059 31.1097C103.217 27.8904 107.668 24.9283 113.295 29.2899C117.226 31.7377 119.739 36.0301 121.776 40.09C123.205 43.2746 123.729 46.8351 125.411 49.9011C126.276 51.4835 127.468 52.8978 128.472 54.3962C129.124 55.3704 129.896 56.6413 130.905 57.2743C132.077 58.2039 131.33 60.0831 131.513 61.4084C132.007 61.438 132.477 61.6062 132.898 61.8831C134.846 60.9534 137.595 61.7595 138.283 63.9205C142.377 50.2374 140.948 33.0037 128.882 23.6525" fill="#264964"/>
<path d="M154.112 140.758C153.163 137.86 152.535 135.358 151.877 132.336C152.159 131.931 152.124 131.367 151.758 131.001C151.699 130.942 151.63 130.892 151.56 130.848C151.254 129.394 150.932 127.806 150.566 125.992C150.957 126.179 151.437 126.115 151.758 125.794C152.169 125.383 152.169 124.721 151.758 124.315C151.348 123.91 150.685 123.905 150.28 124.315C150.265 124.33 150.25 124.355 150.235 124.37C150.225 124.31 150.21 124.256 150.2 124.201C149.345 120.517 148.306 118.43 146.932 116.937C145.552 115.444 133.857 105.291 133.857 105.291C133.461 104.945 126.939 99.728 126.563 98.5758C125.252 99.5005 123.69 100.485 121.964 101.513C121.934 101.296 121.84 101.083 121.672 100.915C121.262 100.504 120.599 100.504 120.194 100.915C119.783 101.325 119.783 101.988 120.194 102.393C120.228 102.428 120.268 102.458 120.307 102.487C119.472 102.972 118.606 103.467 117.716 103.961C117.409 103.926 117.088 104.02 116.851 104.258C116.762 104.347 116.692 104.451 116.643 104.564C112.904 106.641 108.84 108.817 104.977 110.968C104.973 110.963 104.968 110.953 104.958 110.948C104.547 110.538 103.885 110.538 103.479 110.948C103.207 111.22 103.118 111.611 103.212 111.962C98.984 114.351 95.1119 116.69 92.3476 118.806C92.3328 117.926 91.8877 115.364 91.502 112.501C91.5317 112.477 91.5614 112.457 91.5861 112.432C91.9965 112.022 91.9965 111.359 91.5861 110.953C91.4971 110.864 91.3883 110.795 91.2795 110.746C91.0866 109.109 90.9432 107.462 90.9284 106.048C91.1707 106.028 91.4031 105.934 91.5861 105.751C91.9965 105.341 91.9965 104.678 91.5861 104.273C91.4278 104.114 91.235 104.02 91.0322 103.986C91.1114 103.422 91.235 102.952 91.418 102.611C93.3812 100.129 95.468 98.4275 95.2158 95.1489C95.2455 94.956 95.2257 94.7582 95.1466 94.5752C95.1367 94.5109 95.1317 94.4516 95.1218 94.3824C95.1218 94.3824 95.0922 94.3824 95.0378 94.3824C95.0032 94.3379 94.9685 94.2884 94.929 94.2488C94.5185 93.8384 93.8559 93.8384 93.4504 94.2488C93.4257 94.2736 93.4059 94.3032 93.3812 94.3329C92.941 94.323 92.4564 94.3181 91.957 94.3181C90.6168 94.3181 89.2025 94.3675 88.441 94.5357C88.3916 94.4318 88.3273 94.3329 88.2432 94.2488C87.8327 93.8384 87.1701 93.8384 86.7646 94.2488C86.4086 94.6049 86.3641 95.1489 86.6261 95.5544C86.275 95.7472 85.7311 95.9648 84.7668 96.2318C80.0046 98.0121 70.515 96.6423 66.6034 96.2862C65.5353 95.9648 64.5759 96.217 64.2297 96.6274C64.0814 96.8005 64.0666 96.9983 64.1407 97.295C63.8589 97.2851 63.577 97.384 63.3644 97.5967C62.9539 98.0071 62.9539 98.6698 63.3644 99.0753C63.7649 99.4758 64.4127 99.4808 64.8232 99.0901C64.8479 99.1495 64.8677 99.2137 64.8924 99.278C65.5353 100.989 66.0149 103.828 66.9743 107.269C66.9891 107.319 66.999 107.363 67.0089 107.413C66.9001 107.462 66.7913 107.531 66.7023 107.62C66.2919 108.031 66.2919 108.694 66.7023 109.099C66.9149 109.312 67.1919 109.411 67.4688 109.401C67.7902 111.072 67.9138 112.615 67.9584 114.138C67.5578 113.911 67.0435 113.96 66.7023 114.301C66.2919 114.712 66.2919 115.374 66.7023 115.78C67.0485 116.126 67.5825 116.175 67.9831 115.933C67.9831 116.096 67.9831 116.255 67.9831 116.418C67.8941 117.985 67.7754 119.41 67.7259 120.73C67.3699 120.626 66.9743 120.71 66.6974 120.992C66.2869 121.402 66.2869 122.065 66.6974 122.471C66.9792 122.752 67.3798 122.837 67.7358 122.728C67.8891 125.512 68.7496 127.772 71.6672 129.829C71.6672 129.829 71.6622 130.373 71.6573 131.194C71.6177 131.129 71.5732 131.075 71.5188 131.021C71.1084 130.61 70.4457 130.61 70.0402 131.021C69.6298 131.431 69.6298 132.094 70.0402 132.499C70.4507 132.91 71.1133 132.91 71.5188 132.499C71.5732 132.445 71.6227 132.381 71.6622 132.321C71.6721 133.647 71.6969 135.273 71.776 136.614C71.6029 138.844 73.3337 143.591 74.7282 147.626C74.3178 147.335 73.7491 147.369 73.3831 147.735C72.9727 148.146 72.9727 148.808 73.3831 149.214C73.7936 149.624 74.4562 149.624 74.8617 149.214C74.9903 149.085 75.0744 148.932 75.1189 148.769C75.8458 150.915 76.4096 152.745 76.4194 153.704C76.642 154.614 76.8299 155.969 76.9881 157.576C76.8942 157.625 76.8002 157.685 76.7211 157.764C76.3106 158.174 76.3106 158.837 76.7211 159.242C76.8447 159.366 76.998 159.45 77.1563 159.5C77.27 160.963 77.364 162.546 77.4381 164.148C77.176 164.153 76.9189 164.252 76.7211 164.455C76.3106 164.865 76.3106 165.528 76.7211 165.933C76.9436 166.156 77.2354 166.25 77.5271 166.235C77.5865 167.842 77.626 169.419 77.6458 170.854C77.3194 170.794 76.9733 170.893 76.7211 171.14C76.3106 171.551 76.3106 172.213 76.7211 172.619C76.9782 172.876 77.3293 172.97 77.6607 172.906C77.6607 174.394 77.6409 175.606 77.5914 176.357H130.212L128.017 162.813C128.135 162.763 128.254 162.689 128.348 162.59C128.758 162.18 128.758 161.517 128.348 161.112C128.165 160.929 127.928 160.83 127.69 160.815L127.008 156.597L127.132 156.092C127.527 156.295 128.017 156.236 128.348 155.904C128.758 155.494 128.758 154.831 128.348 154.426C128.15 154.228 127.888 154.124 127.626 154.119L127.863 153.175C128.699 153.422 129.668 153.254 130.682 152.824C131.033 152.918 131.419 152.834 131.691 152.557C131.8 152.448 131.874 152.324 131.928 152.191C135.083 150.336 138.416 146.642 139.776 145.268C143.114 142.518 147.881 142.741 151.798 142.958C152.915 143.022 153.964 143.082 154.893 143.077C154.854 142.963 154.814 142.854 154.775 142.746C154.888 142.696 154.997 142.622 155.096 142.528C155.507 142.118 155.507 141.455 155.096 141.049C154.829 140.782 154.448 140.693 154.107 140.777L154.112 140.758Z" fill="#F4F0BB"/>
<path d="M147.451 114.059C146.413 106.795 143.436 100.124 140.394 93.512C137.185 85.6889 136.062 76.9855 137.338 68.6134C135.192 71.2195 131.918 73.0788 128.605 73.5783C125.915 79.5718 123.982 86.5048 125.163 93.0917C125.638 95.5692 127.532 97.4978 128.679 99.6044C128.778 100.485 128.951 101.31 129.851 101.696C132.68 103.887 142.372 108.817 143.178 111.725C144.588 113.174 146.22 114.4 147.555 115.923C147.55 114.994 147.491 114.207 147.456 114.054" fill="#264964"/>
<path d="M126.474 99.1445C127.834 100.959 129.574 102.532 131.597 103.946C132.522 104.594 133.382 105.341 134.302 105.993C134.955 106.458 135.721 106.829 136.329 105.993C136.913 105.192 136.285 104.653 135.716 104.169C134.609 103.234 133.387 102.443 132.245 101.563C128.313 98.5165 125.534 94.8126 125.445 89.4867C125.386 85.7284 126.103 82.1828 127.448 78.7163C127.858 77.6629 128.155 76.5602 128.501 75.4822C128.709 74.8343 128.823 74.1519 128.032 73.8701C127.235 73.5882 126.869 74.2508 126.637 74.8343C125.851 76.8173 125.06 78.8003 124.387 80.8229C123.536 83.3795 123.027 86.0103 123.23 88.196C123.096 92.0334 123.957 95.1637 125.569 97.8093C125.302 97.8093 125.02 97.9132 124.743 98.0417C124.268 98.2593 123.799 98.4868 123.339 98.7341C119.536 100.786 115.753 102.878 111.93 104.896C106.97 107.512 102.075 110.227 97.4856 113.475C95.9477 114.563 94.2762 115.458 92.679 116.438C92.2092 115.889 92.2141 115.355 92.1152 114.855C91.5366 111.898 91.7048 108.896 91.5762 105.909C91.4872 103.763 92.0163 102.072 93.396 100.351C96.3235 96.7016 96.818 92.3153 96.4373 87.7905C96.3927 87.2367 96.2246 86.7323 95.562 86.6828C94.7856 86.6284 94.6175 87.2219 94.5433 87.8004C94.4592 88.4581 94.4196 89.1257 94.4246 89.7884C94.4444 93.6357 93.3663 97.0873 90.8542 100.054C90.241 100.781 89.6328 101.597 89.6081 102.571C89.4696 107.784 88.9899 113.02 90.4685 118.154C90.78 119.241 91.418 119.558 92.3823 119.133C93.3367 118.712 94.2614 118.213 95.1416 117.654C97.5895 116.106 99.9878 114.474 102.441 112.941C108.607 109.089 115.125 105.85 121.445 102.27C122.889 101.449 124.352 100.653 125.772 99.7973C126.054 99.6291 126.34 99.4165 126.474 99.1495" fill="#264964"/>
<path d="M134.495 109.861C134.782 109.435 135.049 109.035 134.604 108.604C134.183 108.199 133.713 108.387 133.303 108.669C132.67 109.109 132.21 109.722 131.785 110.355C125.9 119.044 123.982 128.865 123.477 138.419C123.616 141.109 123.7 143.102 123.838 145.09C123.883 145.732 124.135 146.36 124.946 146.301C125.717 146.242 125.93 145.638 125.96 144.976C125.979 144.501 125.945 144.026 125.915 143.552C125.129 131.392 127.542 120.047 134.495 109.856" fill="#264964"/>
<path d="M77.5272 96.9093C80.88 96.845 84.2179 96.5632 87.1553 94.7582C87.9119 94.2934 88.8366 94.2241 89.7366 94.1945C90.4932 94.1697 91.2548 94.1796 92.0163 94.1598C92.5405 94.1499 93.0499 94.0164 93.0894 93.4477C93.124 92.9433 92.674 92.7505 92.2092 92.6714C89.8801 92.2708 87.5855 92.2065 85.469 93.4428C84.663 93.9126 83.7926 94.2538 82.858 94.3725C76.6816 95.1736 70.515 95.4604 64.3781 94.0412C63.6908 93.8829 62.8649 93.6159 62.4199 94.3181C62.3407 94.4417 62.2567 94.5703 62.1726 94.6939C57.3165 93.0324 52.4555 91.3906 47.5994 89.7389C46.6647 89.4224 45.7449 89.0664 44.6372 88.6658C46.7686 85.8075 48.4845 82.8701 50.3142 80.0069C53.4939 75.0272 56.9901 70.275 60.5704 65.5771C61.505 64.3458 62.2765 63.8414 63.849 64.0243C65.9754 64.2716 68.2205 64.1282 70.1738 63.2677C75.0596 61.1117 80.2371 60.0781 85.3948 58.9507C86.7597 58.654 87.1652 57.7539 87.3828 56.7303C87.5855 55.7808 86.7251 55.2863 85.9932 54.8709C84.9498 54.2775 83.8322 53.9314 82.6107 54.0006C81.6316 54.0599 80.6574 54.1292 79.3569 54.2132C79.8217 53.8869 80.0096 53.7138 80.2371 53.6099C82.8184 52.3984 85.108 50.6923 87.5806 49.3027C89.1185 48.4374 90.2509 47.2011 90.8988 45.5445C91.8383 43.1411 90.8839 40.5301 88.7229 39.1702C87.0168 38.0971 85.1476 37.7213 83.219 37.7065C73.8381 37.6422 65.5254 40.5153 58.5083 46.8796C49.078 55.4297 39.88 64.2271 30.242 72.5448C24.6936 77.3316 19.8573 82.791 15.5897 88.7548C14.8133 89.8378 14.3336 91.1582 14.6699 92.3252C15.3276 94.5851 16.3759 96.672 18.5914 97.9972C22.226 100.173 25.7766 102.502 29.3569 104.767C30.4695 105.469 31.6415 106.048 32.8382 106.592C37.452 108.689 42.1597 110.602 46.64 112.951C52.8709 116.215 59.344 118.925 65.7628 121.758C65.7578 121.912 65.7529 122.065 65.7479 122.218C65.6292 125.69 67.2562 128.172 69.5557 130.353C69.2936 134.092 69.1947 137.766 70.7178 141.405C72.0332 144.541 72.8738 147.888 73.7442 151.187C75.3068 157.106 75.6629 163.169 75.6233 169.266C75.6233 171.783 75.6035 174.3 75.6332 176.812C75.6431 177.524 75.9299 178.167 76.7854 178.162C77.631 178.162 77.8733 177.52 77.9623 176.812C77.997 176.531 77.997 176.244 77.992 175.957C77.9277 171.398 77.9623 166.838 77.7596 162.284C77.6013 158.778 77.2354 155.271 76.3354 151.859C75.1684 147.409 73.8233 143.003 72.2804 138.666C71.9936 137.86 71.7068 137.059 71.7068 136.183C71.6969 133.854 71.7117 131.53 71.9639 129.211C72.2507 126.57 72.5623 123.929 72.7897 121.284C72.8491 120.616 72.8887 119.672 71.959 119.553C70.9452 119.419 70.9947 120.359 70.8612 121.041C70.4507 123.168 70.0798 125.299 69.8177 127.45C68.3738 125.383 67.6815 123.044 67.9188 120.245C68.2452 116.393 68.1265 112.491 67.538 108.644C66.8902 104.411 66.2523 100.163 64.027 96.1527C65.1595 96.3505 66.104 96.5483 67.0633 96.672C70.5298 97.122 74.0211 96.9637 77.5024 96.8994M64.7688 105.529C65.7677 110.142 65.916 114.816 65.827 119.484C63.6413 118.549 61.4605 117.61 59.3044 116.606C52.8066 113.594 46.3285 110.533 39.8751 107.428C35.3948 105.272 30.6871 103.57 26.6272 100.574C25.02 99.3868 23.1952 98.4819 21.4743 97.4483C20.3122 96.7511 19.1254 96.0835 18.1315 95.1439C16.4946 93.5961 16.1831 91.5834 17.454 89.8873C20.4655 85.8669 23.5117 81.8861 27.1612 78.38C34.0102 71.8079 41.3537 65.7749 48.1285 59.1237C50.6554 56.6413 53.3159 54.3023 55.7885 51.7605C59.2946 48.1604 63.3396 45.2626 67.726 42.8444C70.8958 41.0988 74.4167 40.5944 77.9475 40.1444C75.4156 40.901 73.2051 42.3598 70.7573 43.2648C69.1353 43.8631 67.8001 44.9016 66.8754 46.2714C65.1496 48.8231 63.5226 51.4094 60.5803 52.7594C60.5407 52.7792 60.516 52.8138 60.4814 52.8434C60.155 53.1402 60.0264 53.4962 60.2193 53.9017C60.4121 54.3023 60.8028 54.4704 61.2034 54.3814C61.6633 54.2775 62.1231 54.0946 62.5385 53.8671C64.7886 52.6358 66.4501 50.811 67.7111 48.6005C68.6161 47.0132 69.7287 45.6928 71.504 44.9609C74.8519 43.5813 78.1107 41.9593 81.7256 41.3263C82.2349 41.2373 82.7393 41.0246 83.1349 40.6587C84.4058 39.4917 85.3701 39.4521 86.8833 40.5252C86.6163 40.9554 86.1218 40.9208 85.7361 41.0741C81.7948 42.6219 77.7645 43.962 73.8876 45.678C73.304 45.9401 72.3101 46.1033 72.676 47.0329C73.0123 47.8934 73.8678 47.4632 74.5304 47.3297C74.6986 47.295 74.8568 47.211 75.0249 47.1467C78.4618 45.856 81.8937 44.5604 85.3355 43.2796C86.463 42.8593 87.6103 42.4884 88.7328 42.1027C89.0938 42.6862 89.2174 43.1659 88.985 43.6455C84.8657 44.8571 80.9937 46.5879 77.0524 48.1308C76.8546 48.2099 76.6618 48.3335 76.4936 48.467C76.1969 48.6994 76.0436 49.011 76.1673 49.3918C76.3057 49.822 76.642 50.0495 77.0722 50C77.4975 49.9506 77.9277 49.8368 78.3332 49.6835C80.7811 48.744 83.2141 47.7797 85.6619 46.8351C86.4135 46.5434 87.185 46.311 88.1542 45.9796C87.7833 46.7659 87.3679 47.1764 86.8685 47.4187C84.7767 48.4225 83.0261 49.9901 80.9096 50.9544C79.2382 51.716 77.6706 52.6753 76.1079 53.6446C75.564 53.9808 75.2079 54.4407 74.8618 54.955C74.2584 55.8501 74.7282 56.2704 75.5244 56.4633C76.3354 56.6611 77.1711 56.6017 77.997 56.4287C79.5398 56.1072 81.0975 55.8649 82.6701 55.8253C83.7283 55.8006 84.7025 56.0677 85.4542 56.9825C81.0778 57.9963 76.6469 58.4463 72.5623 60.1672C69.0661 61.6408 65.5501 62.5655 61.7424 61.7298C61.1885 61.6062 60.7336 61.9375 60.4171 62.4023C57.6726 66.4079 54.4335 70.0425 51.7137 74.0728C47.268 80.6696 43.2922 87.5878 38.2284 93.7593C38.0355 93.9917 37.8971 94.2736 37.7635 94.5456C37.5361 95.0005 37.6597 95.4011 38.0355 95.7175C38.4262 96.0439 38.8712 96.0291 39.2372 95.7126C39.5932 95.4011 39.9048 95.0252 40.2015 94.6494C41.4081 93.1115 42.5999 91.5637 43.8164 89.9961C45.2999 90.8664 46.7834 91.4895 48.3115 92.0235C52.8313 93.601 57.3511 95.1835 61.871 96.761C61.8858 96.7857 61.9006 96.8154 61.9155 96.8401C63.6413 99.5055 64.116 102.537 64.7589 105.514" fill="#264964"/>
<path d="M156.402 140.763C154.968 136.891 154.162 132.905 153.43 128.884C152.851 125.69 151.842 122.624 150.843 119.563C150.156 117.461 148.841 115.666 147.288 114.128C144.835 111.705 142.259 109.406 139.494 107.339C139.203 107.121 138.906 106.913 138.589 106.74C138.09 106.463 137.556 106.275 137.136 106.854C136.7 107.457 137.111 107.873 137.536 108.248C139.811 110.266 142.071 112.294 144.37 114.281C147.031 116.581 148.638 119.449 149.676 122.822C151.046 127.272 151.644 131.876 152.722 136.381C153.187 138.334 153.875 140.199 154.799 142.394C151.283 141.361 148.124 141.712 144.949 142.38C141.917 143.018 139.608 144.738 137.625 147.018C135.85 149.06 133.768 150.727 131.379 151.988C130.41 152.497 129.406 152.878 128.279 152.898C127.74 152.908 127.092 152.992 127.043 153.694C126.983 154.525 127.71 154.535 128.279 154.648C129.391 154.881 130.44 154.589 131.454 154.164C134.173 153.026 136.636 151.395 138.471 149.135C142.481 144.189 147.664 143.215 153.504 144.219C157.356 144.882 157.519 143.764 156.407 140.767" fill="#264964"/>
<path d="M149.014 144.56C148.114 144.56 148.015 145.361 148.01 146.059C147.995 151.192 148.005 156.33 148.005 161.463H147.975C147.975 166.462 147.975 171.462 147.975 176.461C147.975 177.262 147.965 178.167 149.028 178.167C150.022 178.167 150.21 177.327 150.21 176.501C150.22 166.324 150.304 156.142 149.958 145.965C149.933 145.302 149.839 144.56 149.019 144.56" fill="#264964"/>
<path d="M83.1448 51.1522C82.4327 51.5231 81.7008 51.8445 80.959 52.1511C80.8799 53.0858 80.8008 54.0204 80.7167 54.96C81.4338 54.772 82.1854 54.6632 82.9272 54.6682C83.0212 53.4962 83.0953 52.3242 83.1448 51.1522Z" fill="#264964"/>
<path d="M95.74 74.2212C97.1246 73.1876 98.1779 73.8898 99.251 74.7701C99.7208 75.1508 100.275 75.2349 100.695 74.7008C101.11 74.1717 100.888 73.6574 100.458 73.2519C99.617 72.4607 98.6724 71.8525 97.4015 71.8623C96.3285 71.709 95.3839 72.0107 94.7609 73.0145C94.5581 73.336 94.5087 73.7118 94.7609 74.0382C95.018 74.3794 95.468 74.4289 95.7449 74.2261" fill="#264964"/>
<path d="M92.852 64.8057C93.0795 64.9243 93.3218 65.0035 93.5543 65.0826L93.6284 65.1073C93.6878 65.1271 93.7521 65.1469 93.8114 65.1667C94.1032 65.2557 94.3455 65.2853 94.568 65.2705C94.9537 65.2408 95.1763 65.1024 95.1812 64.8798C95.1812 64.7513 95.0823 64.6326 94.9735 64.504L94.9488 64.4743C94.84 64.3458 94.7213 64.232 94.6174 64.143C94.5433 64.0738 94.4592 64.0144 94.3801 63.9551C94.2713 63.876 94.1724 63.8018 94.0883 63.7177C93.935 63.5595 93.8262 63.3666 93.7669 63.1639C93.7224 63.0007 93.7125 62.8573 93.7471 62.7337C93.8015 62.5161 93.9746 62.3331 94.1279 62.1699C94.2861 61.9968 94.4444 61.8089 94.6076 61.6012C95.0279 61.1512 95.2405 60.6864 95.196 60.3303C95.1614 60.0633 94.9933 59.8556 94.746 59.7715C94.4889 59.6924 94.3257 59.8457 94.1823 59.9743L93.5988 60.5034C93.4356 60.6518 93.2724 60.8001 93.1141 60.9534C92.9856 61.077 92.8619 61.2106 92.7433 61.3391C92.6394 61.4479 92.5356 61.5617 92.4317 61.6655L92.407 61.6902C92.1894 61.9078 91.9718 62.1304 91.8235 62.4271C91.6158 62.8523 91.6158 63.337 91.8235 63.8018C92.0559 64.3062 92.5108 64.6276 92.857 64.8057" fill="#264964"/>
<path d="M109.646 59.1584C110.264 59.2523 110.951 59.1386 111.589 58.832L111.643 58.8073L111.683 58.7578C112.509 57.7441 112.45 56.9479 112.257 56.4583C111.98 55.7512 111.223 55.227 110.293 55.0836C109.433 54.9501 108.617 55.1874 108.118 55.7116L108.093 55.7363L107.663 56.5473V56.6166C107.687 58.021 108.429 58.9704 109.651 59.1584" fill="#264964"/>
<path d="M89.3361 55.5484C90.0877 54.9896 90.7009 54.9599 91.2746 55.7907C91.4921 56.1023 91.8828 56.1715 92.2636 56.0281C92.6394 55.8847 92.8125 55.583 92.8718 55.1924C92.8372 54.6237 92.5553 54.1687 92.1399 53.7929C91.1163 52.8731 89.4498 52.9572 88.3025 53.9957C87.8427 54.411 87.4421 54.9204 87.8872 55.5237C88.2927 56.0726 88.8861 55.8896 89.341 55.5484" fill="#264964"/>
<path d="M115.743 51.2561C115.896 50.1533 114.883 50.2324 114.136 50.094C112.707 49.822 111.337 49.3522 110.056 48.645C109.473 48.3236 108.765 47.7895 108.256 48.561C107.712 49.3819 108.484 49.9308 109.062 50.3165C110.511 51.2857 112.133 51.8445 113.859 52.0819C114.635 52.1165 115.6 52.2797 115.743 51.2561Z" fill="#264964"/>
<path d="M92.5158 48.3434C93.0696 48.0022 93.5642 47.5176 93.1389 46.7807C92.7482 46.1082 92.1597 46.2467 91.6009 46.5533C90.6218 47.0923 89.5438 47.2159 88.4608 47.3296C87.7833 47.3989 86.9377 47.3494 87.0119 48.3187C87.0811 49.1989 87.9218 49.1742 88.6635 49.2731C89.9542 49.1692 91.324 49.0852 92.5158 48.3434Z" fill="#264964"/>
<path d="M148.816 103.175C145.631 97.2011 143.638 90.9752 142.714 84.2845C141.665 76.7085 141.705 69.2315 143.361 61.7496C144.296 57.5166 145.369 53.2984 145.033 48.8676C144.889 46.9736 144.642 45.1044 144.345 43.245C143.787 39.6944 143.099 36.1685 141.487 32.9048C138.584 27.03 133.862 23.0096 128.224 19.9585C126.766 19.1673 125.144 18.7568 123.467 18.7271C122.805 18.7172 122.003 18.7321 121.974 19.6321C121.944 20.4085 122.651 20.542 123.284 20.6409C123.794 20.72 124.318 20.7843 124.807 20.9376C129.476 22.3717 133.1 25.3734 136.28 28.9091C138.045 30.8723 139.514 33.1273 140.345 35.679C142.006 40.7873 142.946 46.0241 142.906 51.6912C142.812 52.5517 142.748 53.6891 142.56 54.8017C141.937 58.4759 141.032 62.0908 140.454 65.7799C139.559 71.5261 139.43 77.2278 140.157 83.0037C140.993 89.6647 142.288 96.1775 145.597 102.097C147.342 105.222 148.682 108.486 149.523 111.938C150.309 115.182 150.784 118.421 150.245 121.605C150.532 122.213 150.784 122.841 151.007 123.489C151.229 124.132 151.427 124.785 151.625 125.438C152.129 124.295 152.525 123.113 152.648 121.818C153.281 115.211 151.892 108.941 148.826 103.185" fill="#264964"/>
<path d="M83.6492 38.2504C84.0942 35.3921 84.9547 33.0234 86.8091 30.6992C88.6883 28.3355 91.0273 26.0657 93.6136 24.4931C101.758 19.5431 110.536 17.8815 119.922 19.6617C120.441 19.7606 121.005 19.9288 121.321 19.3749C121.677 18.7518 121.252 18.2722 120.792 17.931C119.897 17.2683 118.848 17.0112 117.751 16.8974C114.254 16.5414 110.783 16.8183 107.307 17.2436C98.0296 18.376 89.4498 22.9156 83.9953 30.6349C82.4129 32.8751 81.6514 35.5207 81.32 38.2306C82.1014 38.2059 82.8876 38.1713 83.6541 38.2455" fill="#264964"/>
<path d="M131.998 61.3589C132.057 60.2908 132.126 59.3562 132.161 58.4463C132.972 57.6204 131.998 56.8787 131.468 56.3743C128.516 53.605 126.874 50.089 125.51 46.3802C124.694 44.1648 123.754 41.9939 122.607 39.9268C120.47 36.0795 118.309 32.252 114.754 29.4679C114.156 28.9981 113.567 28.5382 112.87 28.3701C112.44 28.3553 112.148 28.4838 112.039 28.8498C111.896 29.3492 112.237 29.641 112.563 29.9229C114.947 31.9652 116.979 34.2844 118.557 37.029C120.698 40.7675 122.542 44.6346 123.991 48.6945C125.247 52.2154 126.988 55.4248 129.935 57.838C130.029 57.9171 130.128 58.0061 130.232 58.0952C129.871 60.0732 129.52 62.0611 129.293 64.0589C129.189 64.9886 130.024 65.409 130.835 64.9194C131.478 64.5287 132.037 64.0046 132.645 63.5595C134.119 62.4914 134.999 62.437 135.929 63.337C137.076 64.4447 137.195 65.7502 136.339 67.1892C135.538 68.5392 134.346 69.4293 133.026 70.2057C131.587 71.0513 130.029 71.5656 128.437 72.0255C127.799 72.2085 127.329 72.6536 127.537 73.3953C127.537 73.3953 127.537 73.4052 127.537 73.4102C121.608 78.1674 114.729 81.3619 107.524 84.0273C104.226 85.2487 100.725 85.674 97.2384 86.1488C96.7191 86.218 96.2642 86.1141 95.7993 85.8718C89.8157 82.7564 85.7014 78.0388 83.1398 72.1986C82.1212 69.8744 81.9481 67.2733 82.0915 64.6573C82.2003 62.6595 82.3832 60.6617 82.5712 58.6688C81.8146 58.7776 81.0678 58.916 80.3409 59.1485C80.1728 61.1117 80.0195 63.0749 79.9156 65.043C79.6535 69.9387 81.0184 74.3893 84.1932 78.3553C86.2948 80.9811 88.5053 83.4883 91.1806 85.6246C93.9301 87.8251 96.9367 88.5867 100.547 87.8845C110.447 85.9608 119.249 81.9256 127.176 76.13C127.982 75.5415 128.665 74.7997 129.337 74.058C133.105 73.0986 136.498 71.5211 138.51 67.8766C139.568 65.9579 139.193 63.7078 137.724 62.1056C136.043 60.271 134.124 60.3501 132.002 61.3639" fill="#264964"/>
<path d="M108.464 27.9349C109.295 27.9596 110.531 28.5877 110.669 27.2525C110.808 25.8876 109.468 25.947 108.513 25.8184C106.921 25.6008 105.437 26.0459 103.959 26.5849C96.5461 29.2651 91.7097 35.2339 86.3047 40.4658C85.9437 40.8169 85.6075 41.3411 86.0031 41.8603C86.4481 42.4488 87.0317 42.1917 87.5262 41.8999C88.4707 41.3461 89.2223 40.5548 89.9987 39.7933C93.4652 36.3861 96.7636 32.7663 101.041 30.3234C103.331 29.0179 105.69 27.7717 108.469 27.9399" fill="#264964"/>
<path d="M118.384 20.8585C116.045 21.8228 114.062 23.3409 112.257 25.0964C111.871 25.4723 111.648 26.0014 112.024 26.5058C112.425 27.0399 112.949 26.8223 113.429 26.58C113.636 26.4761 113.839 26.3426 114.032 26.2091C115.881 24.9135 117.578 23.3805 119.669 22.4458C119.996 22.3024 120.194 22.0552 120.248 21.7041C120.283 20.9722 119.343 20.4579 118.379 20.8535" fill="#264964"/>
<path d="M135.944 85.2586C136.176 83.9778 134.233 83.4141 133.971 84.7147C132.566 91.7268 133.377 99.0802 136.394 105.568C136.972 106.809 138.743 105.726 138.214 104.505C135.598 98.4373 134.772 91.7713 135.944 85.2586Z" fill="#264964"/>
<path d="M7 13.6831C7 21.2392 13.127 27.3662 20.6831 27.3662C28.2392 27.3662 34.3662 21.2392 34.3662 13.6831C34.3662 6.12699 28.2392 0 20.6831 0C13.127 0 7 6.12699 7 13.6831Z" fill="#F4F0BB"/>
<path d="M81.4981 3.53576C81.4239 3.55059 81.3497 3.55554 81.2706 3.55554L55.5263 3.31323C54.9132 3.30828 54.4186 2.80388 54.4236 2.19069C54.4285 1.57749 54.9329 1.08298 55.5461 1.08793L81.2904 1.33024C81.9036 1.33518 82.3981 1.83958 82.3931 2.45278C82.3882 2.98685 82.0025 3.43191 81.4981 3.53081" fill="#F4F0BB"/>
<path d="M99.7703 3.70882C99.6961 3.72366 99.6219 3.7286 99.5428 3.7286L86.4877 3.60497C85.8745 3.60003 85.38 3.09563 85.3849 2.48243C85.3899 1.86924 85.8943 1.37473 86.5075 1.37968L99.5626 1.5033C100.176 1.50825 100.67 2.01265 100.665 2.62584C100.66 3.15991 100.275 3.60497 99.7703 3.70388" fill="#F4F0BB"/>
<path d="M82.2448 24.4536C82.0569 24.4931 81.8492 24.4783 81.6563 24.409C72.6364 21.1651 63.2457 18.0397 54.4434 15.1469C53.8599 14.954 53.5434 14.326 53.7362 13.7424C53.9291 13.1589 54.5571 12.8424 55.1406 13.0353C63.9578 15.9381 73.3634 19.0683 82.408 22.3173C82.9865 22.525 83.2882 23.1629 83.0805 23.7415C82.942 24.1222 82.6206 24.3843 82.2497 24.4585" fill="#F4F0BB"/>
<path d="M51.2538 30.5311C50.9571 30.5904 50.6357 30.5311 50.3736 30.3283L46.5807 27.48C46.0911 27.1091 45.9922 26.4168 46.3581 25.9223C46.729 25.4327 47.4213 25.3338 47.9158 25.6997L51.7088 28.5481C52.1983 28.919 52.2972 29.6113 51.9313 30.1058C51.7582 30.3333 51.5159 30.4767 51.2587 30.5311" fill="#F4F0BB"/>
<path d="M58.6665 36.0993C58.3698 36.1586 58.0484 36.0993 57.7863 35.8965L54.7945 33.6515C54.3049 33.2806 54.206 32.5883 54.5719 32.0938C54.9428 31.6042 55.6351 31.5053 56.1297 31.8712L59.1214 34.1163C59.611 34.4872 59.7099 35.1795 59.344 35.674C59.1709 35.9015 58.9286 36.0449 58.6714 36.0993" fill="#F4F0BB"/>
<path d="M46.818 49.2731C46.4026 49.3571 45.9576 49.1939 45.6955 48.8231C42.3229 44.0362 39.3806 39.818 36.9525 36.3268C36.6014 35.8224 36.7251 35.1301 37.2295 34.7789C37.7339 34.4278 38.4262 34.5515 38.7773 35.0559C41.2053 38.5471 44.1427 42.7604 47.5153 47.5423C47.8713 48.0417 47.7477 48.739 47.2482 49.0901C47.1147 49.184 46.9713 49.2434 46.823 49.2731" fill="#F4F0BB"/>
<path d="M32.5415 63.065C31.9827 63.1738 31.419 62.8375 31.2607 62.2787C28.9415 54.1687 26.3651 45.7719 24.1546 38.6263C23.9716 38.0378 24.3029 37.4197 24.8865 37.2367C25.4749 37.0537 26.0931 37.385 26.276 37.9686C28.4915 45.1241 31.0679 53.5358 33.397 61.6655C33.5651 62.254 33.2239 62.8721 32.6355 63.0403C32.6058 63.0502 32.5712 63.0551 32.5415 63.065Z" fill="#F4F0BB"/>
<path d="M13.1814 52.4429C13.1023 52.4577 13.0232 52.4676 12.9391 52.4627C12.3259 52.4478 11.8413 51.9385 11.8512 51.3253L12.0292 43.4774C12.044 42.8642 12.5534 42.3796 13.1666 42.3895C13.7798 42.4043 14.2644 42.9137 14.2545 43.5269L14.0765 51.3748C14.0666 51.9039 13.6809 52.344 13.1814 52.4429Z" fill="#F4F0BB"/>
<path d="M12.6077 77.8261C12.5435 77.841 12.4742 77.8459 12.405 77.8459C11.7918 77.8509 11.2874 77.3613 11.2825 76.7432C11.2281 71.1799 11.3616 65.1667 11.7077 57.8133C11.7374 57.2001 12.2566 56.7254 12.8698 56.755C13.483 56.7847 13.9578 57.3039 13.9281 57.9171C13.5819 65.2309 13.4484 71.2046 13.5028 76.7234C13.5078 77.2673 13.122 77.7223 12.6077 77.8261Z" fill="#F4F0BB"/>
</g>
<defs>
<clipPath id="clip0_1_239">
<rect width="150" height="178.167" fill="white" transform="translate(7)"/>
</clipPath>
</defs>
</svg>
