<svg width="185" height="170" viewBox="0 0 185 170" fill="none" xmlns="http://www.w3.org/2000/svg">
<path d="M51.1517 161.105C44.1389 158.024 37.8336 153.128 31.717 148.623C21.6223 141.194 14.0906 130.745 8.00551 119.656C2.04618 108.769 -0.59542 98.8839 0.112152 90.0152C0.583867 83.962 -0.469629 77.7211 1.16565 71.7774C2.83237 65.6304 3.79153 59.1236 6.32306 53.2111C14.7039 33.6907 28.9654 19.9889 49.139 12.1057C57.6142 8.78971 66.105 5.80221 74.5959 3.12754C79.4546 1.59469 86.6246 0.578002 96.1218 0.0774786C103.072 -0.282272 110.226 0.609284 117.569 2.78343C127.617 5.75529 135.62 8.85227 141.611 12.0588C161.517 22.7105 175.087 38.3988 182.32 59.1236C183.499 62.5177 184.222 66.2091 184.458 70.1976C184.851 76.6575 185.04 82.8984 184.993 88.9516C184.946 93.9099 184.348 98.4928 183.2 102.7C177.367 124.066 165.087 143.165 146.297 154.473C137.35 159.854 126.988 164.265 115.195 167.69C111.044 168.895 107.113 168.988 102.915 169.661C101.264 169.927 99.5496 170.036 97.8043 169.989C91.5619 169.833 85.1152 170.349 79.2816 169.395C69.5643 167.815 60.1929 165.062 51.1517 161.105Z" fill="white"/>
<g clip-path="url(#clip0_1_216)">
<path d="M75.3199 20.895C75.3199 20.895 71.4412 21.7816 70.3381 23.7763C69.2299 25.7711 68.7312 28.4812 67.4568 31.1963C66.1823 33.9113 62.8073 37.0647 62.8073 37.0647C62.8073 37.0647 62.4749 39.6135 63.0844 42.102C63.6939 44.5954 64.1926 47.7488 64.9683 52.2924C65.7441 56.831 65.8549 59.4907 66.8523 62.0395C67.8497 64.5884 68.4592 66.4119 68.4592 66.4119C68.4592 66.4119 66.0211 65.9132 63.6989 66.7997C61.3717 67.6863 59.0495 69.3486 56.6669 70.346C54.2843 71.3434 52.1837 73.0611 50.8539 74.0585C49.5241 75.0558 47.9726 76.6627 47.4739 78.4308C46.9752 80.2039 46.5873 80.2039 47.5293 82.7528C48.4713 85.3017 49.3578 86.7977 50.9093 89.1199C52.4608 91.4472 53.0149 91.3363 53.5136 92.1121C54.0123 92.8878 54.1785 92.6108 53.569 93.996C52.9595 95.3813 52.1031 94.2579 51.8513 95.1596C51.5994 96.0613 51.1864 97.4868 50.9647 98.7059C50.7431 99.9249 49.8565 99.6478 49.5795 99.537C49.3024 99.4262 48.1388 100.091 47.9726 100.978C47.8063 101.864 42.8799 116.593 42.1596 119.973C41.4392 123.353 39.3891 134.536 39.3336 136.863C39.2782 139.19 39.2782 142.51 40.1094 145.281C40.9405 148.051 42.215 149.764 43.8773 151.869C45.5396 153.975 47.4789 154.584 50.0782 155.139C52.6824 155.693 54.783 155.526 57.1656 154.474C59.5482 153.421 62.9786 151.094 64.8071 147.719C66.6357 144.339 67.4668 141.739 67.4668 141.739C67.4668 141.739 68.0763 150.378 68.575 154.645C69.0737 158.911 69.1997 169.067 69.1997 169.067H149.302L149.267 134.279C149.267 134.279 147.68 105.698 147.252 102.398C146.824 99.0988 144.724 88.2989 141.983 84.1884C139.243 80.073 137.485 77.504 127.672 74.5924C117.86 71.6809 116.102 70.351 114.389 68.2505C112.676 66.1499 110.959 61.9942 110.959 61.9942C110.959 61.9942 110.702 58.05 112.46 56.8965C114.218 55.7379 116.832 54.8412 118.071 53.9849C119.316 53.1286 121.371 51.8844 121.885 49.9551C122.398 48.0258 123.255 46.1822 121.582 44.6408C119.91 43.0993 118.882 41.8551 117.124 42.0264C115.366 42.1977 110.097 47.381 110.097 47.381L110.269 35.9817L92.1444 21.3685L75.325 20.9101L75.3199 20.895Z" fill="white"/>
<path d="M144.164 123.328C143.439 117.283 143.515 97.5624 140.613 90.6865C137.717 83.8106 135.687 80.9394 132.574 78.5971C132.538 78.5719 132.503 78.5467 132.468 78.5215C131.138 77.2672 129.556 76.2295 127.899 75.3984C123.678 73.2727 118.777 72.104 115.381 68.6283C114.994 68.2303 114.53 68.185 114.132 68.3361C113.029 67.3287 111.377 69.0363 112.45 70.1747C112.46 70.1848 112.465 70.1949 112.475 70.1999C110.974 73.3583 109.206 76.3555 107.196 79.2368C105.881 81.1207 104.496 82.9493 103.085 84.7627C101.902 86.289 100.37 87.5987 99.5795 89.2459C98.8995 90.6664 97.2221 90.6513 96.1693 89.8453C95.5648 90.3944 95.1215 90.7671 95.1215 90.7671L94.8344 90.5153C94.3156 91.0442 93.7867 91.563 93.2426 92.0667C92.215 93.0137 91.132 93.8902 90.0994 94.8272C89.1272 95.7087 88.3414 96.7363 87.2181 97.4516C86.7395 97.7589 86.1703 97.8294 85.6313 97.7236C84.2813 96.1016 83.1983 94.2277 82.1103 92.4445C81.2539 91.0391 80.4026 89.5682 79.2944 88.3442C79.0073 88.0268 78.5489 87.7397 78.3172 87.3821C78.1258 87.0899 78.1006 86.6517 78.0452 86.3192C77.8789 85.3319 77.7732 84.3345 77.7026 83.3321C77.5868 81.7554 75.1387 81.7302 75.2092 83.2968C75.0581 83.4379 74.912 83.5789 74.7709 83.7351C74.7458 83.7653 74.7155 83.7905 74.6853 83.8157C74.2823 85.3974 73.7685 86.9438 73.1187 88.455C72.081 90.8679 70.5396 93.2304 68.3333 94.7214C69.4163 95.613 69.6178 97.3105 69.376 98.7059C69.2148 99.6428 68.7867 100.449 68.157 101.099C66.1572 101.708 64.0214 101.849 61.9511 102.015C58.9337 102.252 55.8761 102.438 52.9293 101.602C52.8487 101.577 52.7681 101.567 52.6926 101.557C50.4308 100.605 48.6426 99.4363 48.6426 99.4363C48.6426 99.4363 47.7611 99.2297 47.1717 101.174C46.5823 103.113 41.0514 122.986 40.3663 128.038C39.6813 133.095 38.7494 137.13 39.3387 141.422C39.9281 145.714 39.7316 145.865 41.6408 148.827C43.5499 151.789 43.3534 152.962 46.7335 154.393C50.1135 155.824 50.2596 156.69 54.4203 155.209C58.5811 153.728 59.6893 154.469 62.3289 150.993C64.9734 147.517 67.1143 143.815 67.1143 144.021C67.1143 144.228 68.2678 154.287 68.7111 156.841C69.1544 159.395 69.24 169.046 69.24 169.046H144.658C144.658 169.046 144.89 129.373 144.164 123.328Z" fill="#F4F0BB"/>
<path d="M150.995 166.346C150.985 165.535 150.98 164.724 150.97 163.908C150.839 151.693 150.637 139.467 150.144 127.267C150.018 124.144 149.675 120.991 149.675 117.868C149.086 108.11 148.426 98.2273 145.293 88.8932C142.764 81.3524 137.354 76.2849 129.209 73.8318C128.685 73.6756 128.156 73.5194 127.632 73.3633C123.723 72.2148 119.683 71.026 116.354 68.3764C116.026 68.1144 115.699 67.8424 115.381 67.5805C115.094 67.3437 114.807 67.102 114.515 66.8702C114.278 66.6839 114.062 66.5781 113.845 66.5479C113.523 64.9813 112.601 63.4147 111.07 61.7927C110.767 61.4703 110.43 61.1126 109.992 61.1126C109.8 61.1126 109.609 61.1832 109.422 61.3192C108.702 61.8531 109.11 62.5684 109.377 63.0419C109.518 63.2887 109.659 63.5406 109.8 63.7925C110.43 64.9057 111.085 66.0592 111.785 67.1574C112.062 67.5956 112.142 67.8575 111.906 68.3663C108.077 76.6174 103.483 83.2061 97.8517 88.5154C97.8064 88.5608 97.7358 88.6011 97.6502 88.6514C97.6301 88.6615 97.6099 88.6766 97.5897 88.6867C96.955 88.0318 96.3707 87.3014 95.8066 86.5962C94.7437 85.2664 93.6456 83.8962 92.1394 82.9039C93.565 81.4431 95.192 80.1384 96.7687 78.8741C99.7558 76.4814 102.844 74.0081 104.712 70.356L104.778 70.2301L104.662 70.1445C104.36 69.9279 104.058 69.817 103.765 69.817C103.216 69.817 102.808 70.1948 102.511 70.5273C100.34 72.9553 97.7661 75.0004 95.2726 76.9851C93.4592 78.4258 91.5803 79.9218 89.8726 81.5489C89.2883 82.108 89.0415 82.8183 88.7745 83.5688C88.5982 84.0675 88.4219 84.5863 88.1297 85.0598C87.9232 84.6972 87.7217 84.3345 87.5202 83.9768C86.9208 82.914 86.3566 81.9115 85.8076 80.8789C85.4499 80.2039 85.0217 79.544 84.0344 79.544H83.9841C83.0522 79.5642 82.6845 80.2442 82.3621 80.8487L82.3318 80.9041C81.6417 82.1836 80.9466 83.463 80.2565 84.7475L79.6218 85.9212L79.5261 85.9011L79.1634 84.1834C78.8158 82.5362 78.4683 80.889 78.1257 79.2368C78.6043 78.1991 79.1785 77.1967 79.8988 76.2446C81.4302 74.2146 80.0147 71.5851 77.5364 71.3988C76.3274 71.3081 75.7733 70.9001 75.3502 69.8372C74.9573 68.86 74.3276 67.9734 73.7634 67.0667C73.1942 66.1549 72.3731 65.6411 71.275 65.5807C69.2652 65.4699 67.2553 65.2986 65.2454 65.2432C64.1271 65.213 62.9937 65.3288 61.9813 65.9283C59.382 67.4646 56.7878 69.006 54.1684 70.5172C51.0705 72.3004 48.6778 74.7385 46.8493 77.8162C45.9929 79.2619 45.7965 80.5767 46.3204 82.1836C47.4084 85.488 49.1513 88.4298 51.0302 91.3061C51.3778 91.84 51.8563 92.3186 52.35 92.7316C52.5112 92.8626 52.6774 92.9734 52.8487 93.054C52.6976 93.3512 52.5515 93.6434 52.4004 93.9406C52.1989 93.86 51.9974 93.8096 51.806 93.8247C51.7808 93.8197 51.7556 93.8146 51.7254 93.8096C51.1108 93.729 50.9395 94.3335 50.8287 94.8523C50.5567 96.167 50.3048 97.4818 50.0429 98.8116C49.4636 98.8469 48.98 98.4439 48.5267 98.8418C48.4612 100.408 49.4384 101.708 51.3677 102.398C57.3318 104.524 63.3363 104.423 69.3659 102.388C69.7336 102.267 70.1013 102.166 70.8418 101.945C70.0308 109.42 69.3609 116.911 68.3937 124.371C67.895 128.234 67.3157 132.088 66.5954 135.916C65.9506 139.352 65.5174 143.235 63.7745 146.288C61.2156 150.761 57.7852 153.703 52.4155 153.854C45.9577 154.04 40.2454 146.328 40.6434 140.178C40.8146 137.518 40.8952 134.843 41.3184 132.209C42.8648 122.593 45.2575 113.188 47.9877 103.869C48.1942 103.169 48.4209 102.474 48.5519 101.758C48.6526 101.224 48.5368 100.665 47.9776 100.474C47.3983 100.272 47.0659 100.665 46.8442 101.194C46.5219 101.96 46.139 102.705 45.8872 103.496C42.351 114.593 39.3186 125.806 38.2557 137.508C37.7016 143.603 39.3991 148.519 43.4592 152.867C47.1364 156.811 53.564 157.325 57.483 155.486C60.0872 154.267 62.3137 152.564 64.2228 150.318C65.3512 148.988 66.0917 147.331 66.676 145.588C66.6861 145.719 66.6961 145.845 66.7062 145.976C67.4064 153.265 67.7489 159.798 67.764 165.953C67.764 166.533 67.8195 167.152 67.9303 167.787C68.0562 168.533 68.4844 169.051 69.104 169.051C69.1392 169.051 69.1795 169.051 69.2198 169.051C70.3079 168.966 70.3079 167.827 70.3079 167.48C70.3079 165.999 70.3079 164.518 70.3079 163.042V161.319C70.1316 155.97 69.5724 150.575 69.0334 145.356C68.8924 143.976 68.7463 142.591 68.6103 141.21C68.6053 141.145 68.6002 141.079 68.5952 141.014C68.575 140.747 68.5499 140.465 68.4592 140.203C68.4189 140.092 68.4038 139.946 68.3836 139.8C68.3786 139.755 68.3736 139.709 68.3635 139.664C70.6504 130.864 70.9929 122.109 72.1062 113.102C72.5495 109.526 72.7006 105.909 72.9726 102.313C73.0532 101.235 72.892 100.202 71.6478 100.162C70.4338 100.121 70.2827 99.5219 70.5295 98.4489C70.6655 97.8696 70.6353 97.2098 70.0006 97.0032C69.25 96.7564 68.9881 97.4213 68.7463 98.0107C68.6103 98.3482 68.4441 98.6857 68.3786 99.0383C68.1721 100.126 67.5071 100.504 66.5551 100.781C64.1574 101.476 61.7344 101.748 59.2863 101.622C56.7274 101.491 54.1483 101.36 51.7657 100.121C52.1485 98.9577 52.2996 97.8243 52.35 96.701C53.0149 97.1594 53.7655 97.4767 54.5412 97.7387C56.4654 98.3784 58.4552 98.5648 60.1829 98.6152C64.5754 98.8368 66.9883 98.4439 68.9831 97.2601C69.7689 96.7917 70.4993 96.1922 70.0258 95.21C69.8998 94.943 69.7437 94.7717 69.5724 94.6609C70.4741 93.7945 71.3204 92.8979 72.1011 91.9508C73.6778 90.752 74.7356 89.1098 75.4006 87.1654C75.7733 86.0824 76.0957 84.9843 76.4282 83.8912C76.5843 84.7627 76.7455 85.619 76.9067 86.4804C77.0175 87.0798 77.1737 87.7296 77.3953 88.5356C77.5968 89.266 77.8386 90.1525 78.8662 90.2634C78.9266 90.2684 78.9921 90.2734 79.0475 90.2734C79.1886 90.2734 79.3195 90.2533 79.4404 90.218C80.73 93.1749 82.4124 95.8749 84.5281 98.323C84.6389 98.4489 84.7548 98.5396 84.8706 98.6051C85.0167 98.8015 85.2383 98.9527 85.5507 99.0232C85.6514 99.003 85.737 99.0383 85.8076 99.134C86.2861 99.4564 86.9158 99.2902 87.3187 98.9375C90.2504 96.3837 93.1821 93.8348 96.1138 91.2809C96.4664 91.7947 96.8241 92.0415 97.2371 92.0415C97.62 92.0415 98.0179 91.83 98.5015 91.3816C104.853 85.4477 109.427 79.2418 112.475 72.4062C112.515 72.3206 112.55 72.2349 112.581 72.1493C112.651 71.973 112.722 71.8068 112.807 71.6557C113.276 70.8598 113.598 70.079 113.785 69.3032C114.112 69.6508 114.46 69.9581 114.787 70.2452C118.479 73.4791 123.109 74.7788 127.582 76.0381L127.622 76.0482C131.667 77.1815 135.299 79.2216 138.417 82.113C140.865 84.3798 142.059 87.513 142.981 90.5656C145.676 99.4514 146.381 108.574 146.965 117.782C147.786 130.733 148.013 143.704 147.806 156.68C147.756 160.015 147.675 163.344 147.565 166.679C147.549 167.228 147.534 167.797 147.761 168.296C148.376 169.651 150.39 169.192 150.809 167.948C150.98 167.439 150.975 166.89 150.97 166.351M69.0334 67.9029C71.1491 67.5251 72.2523 68.4116 72.9776 70.3762C73.8491 72.7185 73.844 72.9956 71.2901 74.2499C70.5194 71.6305 68.2023 70.1697 66.4644 67.8223C67.5273 67.8676 68.303 68.0339 69.0284 67.9029M64.0818 69.3788C65.7693 70.5172 67.0034 72.1241 68.2375 73.6907C69.1946 74.9097 68.6758 75.9928 67.2502 76.8944C64.8676 74.4564 62.5706 72.0939 59.9512 70.0891C61.6135 68.2001 62.1878 68.0993 64.0868 69.3788M59.5079 72.648C61.2609 74.3859 63.16 75.9726 64.7064 77.9019C63.2506 79.5188 62.9081 79.539 61.4876 78.2444C59.4475 76.3957 57.3923 74.5622 55.3371 72.7236C57.5132 70.6482 57.5132 70.6683 59.5079 72.648ZM72.9222 86.5458C72.081 88.3895 70.6705 89.9158 69.24 91.3262C68.3534 92.2027 65.7945 93.865 66.0614 95.4266C62.1727 96.5348 58.3343 96.2325 54.5563 94.8322C54.9039 93.996 55.2867 93.1749 55.1658 92.2279C55.1104 91.7695 54.9895 91.3313 54.4707 91.2053C54.3548 91.1801 54.2541 91.1751 54.1634 91.1852C54.1181 91.1247 54.0677 91.0693 54.0123 91.0089C52.3097 89.1501 51.3073 86.8531 50.0076 84.7425C48.3101 81.977 48.1539 79.3224 49.8213 76.4663C51.0504 74.3607 53.3373 73.8066 55.0197 75.4387C56.4654 76.839 57.9212 78.2293 59.3619 79.6347C59.7598 80.0226 60.3391 80.3097 59.9663 81.0955C59.1251 82.8586 55.8156 84.2337 54.0072 83.4933C53.3826 83.2364 52.8033 82.9089 53.2567 81.9367C53.569 82.0123 53.8964 82.103 54.2289 82.1684C54.7376 82.2642 55.1809 82.1533 55.4378 81.6597C55.6897 81.1761 55.5839 80.6774 55.2061 80.3601C54.2087 79.5289 53.2164 78.6625 52.1082 78.0077C51.3778 77.5745 50.3351 78.1185 50.7834 78.859C51.5843 80.1888 50.9446 81.156 50.6323 82.2944C50.3351 83.3875 50.8388 84.2438 51.68 84.939C53.7403 86.6567 58.6919 86.7221 60.2182 84.5612C61.7747 82.3548 64.0314 81.5892 66.2226 80.3147C65.8751 82.1634 65.4973 83.8358 65.2706 85.5283C65.1346 86.561 64.5402 88.0973 66.1017 88.3341C67.5172 88.5456 67.5122 86.9639 67.6482 85.9917C68.0764 82.9895 69.1342 80.355 71.1844 78.0328C72.4084 76.6426 74.1563 75.8316 75.1285 74.2347C75.7733 73.1819 76.5843 72.7991 77.622 73.4943C78.7856 74.275 78.1509 75.1566 77.5061 75.892C74.7659 79.005 74.5694 82.924 72.9222 86.5458ZM86.2962 96.5448C84.3971 94.3436 82.8205 91.835 81.6871 89.1552C81.5611 88.858 81.3647 88.6011 81.1179 88.4348C82.0598 86.9236 82.8708 85.3268 83.6869 83.6897C83.7221 83.6141 83.7574 83.5336 83.7876 83.453C83.8732 83.2313 83.9589 83.0248 84.1805 82.8485C85.1981 84.4201 86.2257 86.1177 86.7999 88.0772C86.9409 88.5658 86.7646 88.9839 86.5732 89.4221C86.5329 89.5178 86.4926 89.6135 86.4523 89.7093C86.3113 90.0619 85.8882 91.1298 86.9712 91.5932C87.1727 91.6788 87.3641 91.7242 87.5454 91.7242C87.9232 91.7242 88.4471 91.5328 88.8047 90.621C89.5654 88.6817 90.321 86.5559 90.7743 84.1179C91.2176 84.6821 91.6659 85.2362 92.0991 85.7751C93.026 86.9236 93.9176 88.0318 94.7387 89.1803C91.9228 91.6335 89.1019 94.0867 86.2861 96.5398" fill="#264964"/>
<path d="M127.174 166.558C127.028 160.261 126.831 153.451 126.554 145.124C126.393 140.148 126.217 135.095 126.045 130.204C125.869 125.167 125.688 119.958 125.521 114.84C125.496 113.999 125.416 113.077 125.29 112.019C125.28 111.954 125.275 111.888 125.27 111.818C125.219 111.314 125.149 110.548 124.338 110.548C124.318 110.548 124.302 110.548 124.282 110.548C123.547 110.579 123.481 111.299 123.436 111.773C123.431 111.848 123.421 111.919 123.416 111.984C123.043 114.991 123.088 118.059 123.134 121.021C123.139 121.474 123.149 121.923 123.154 122.376C123.224 128.355 123.436 134.425 123.643 140.299C123.874 146.862 124.111 153.647 124.151 160.327C124.161 162.226 124.237 164.15 124.307 166.014C124.328 166.492 124.343 166.966 124.363 167.445C124.393 168.306 124.836 169.233 125.738 169.233C125.879 169.233 126.025 169.213 126.171 169.167C127.234 168.855 127.199 167.53 127.179 166.654V166.553L127.174 166.558Z" fill="#264964"/>
<path d="M115.447 25.1213C102.128 11.9942 59.7598 15.0518 59.9613 32.516C61.5027 45.1848 87.0417 40.762 100.662 41.5076C118.585 43.4066 125.249 33.9768 115.442 25.1213" fill="#F4F0BB"/>
<path d="M64.8122 44.3939C64.5553 42.9885 64.2984 41.5831 64.0465 40.1727C63.84 39.0191 63.5126 38.6464 62.8023 38.7572H62.7872C62.2079 38.8529 62.0719 39.135 62.0165 39.3667C61.9359 39.7143 62.0165 40.1676 62.087 40.6059C62.5001 43.0137 62.9131 45.4215 63.3262 47.8243L63.7493 50.2875H63.7695L63.8148 50.5444C63.9407 51.2849 64.0717 52.0254 64.1976 52.7659C64.4747 54.3677 64.7618 56.02 65.0338 57.652C65.4066 59.8936 66.5349 63.188 67.3862 65.2986C68.2778 65.354 68.847 64.9561 69.6329 65.218C68.4642 62.5936 67.3812 59.3496 66.9228 56.4935C66.273 52.4536 65.5275 48.3583 64.8071 44.3939" fill="#264964"/>
<path d="M121.839 42.3135C121.93 42.1926 122.016 42.0516 122.091 41.8803C123.713 38.1376 125.421 34.4352 123.088 30.3047C121.139 26.8491 120.907 22.8042 119.487 19.1622C117.361 13.7219 113.523 9.88858 108.218 7.50595C106.773 6.85614 105.181 6.71509 103.68 7.05259C101.816 7.47572 100.35 7.07778 98.7987 6.00988C95.9023 4.01511 92.5525 3.78844 89.1524 4.13097C84.1201 4.6347 80.0903 7.42031 76.0051 10.0246C71.9198 12.6289 67.8951 15.3389 63.8451 18.0036C62.1626 19.1118 60.9184 20.5525 60.1729 22.4616C58.4905 26.7635 58.4754 31.1308 60.2888 35.2765C61.407 37.8253 62.3289 38.8126 63.7192 38.1326C66.6257 37.3518 83.9136 32.4254 93.2074 23.3784C93.9579 23.7461 94.5725 24.265 95.1064 24.9198C97.9323 28.4056 101.05 31.6093 104.405 34.5813C105.367 35.4326 106.445 36.0774 107.705 36.3343C108.526 36.5005 108.883 36.9488 108.944 37.7649C109.186 41.0643 109.634 44.3486 109.342 47.6682C109.286 48.318 109.296 48.9728 109.488 49.6075C109.659 50.1667 110.032 50.479 110.596 50.5243C111.19 50.5696 111.583 50.2271 111.745 49.6932C111.911 49.1642 112.072 48.6051 112.082 48.056C112.102 47.0536 112.415 46.1268 112.938 45.3158C113.236 45.21 113.543 44.8876 113.845 44.5753C114.026 44.3889 114.208 44.1924 114.399 44.0413C115.276 43.3361 116.177 42.9029 117.064 42.7568C118.283 42.5604 119.436 42.913 120.394 43.7895C122.197 45.4367 122.303 47.9855 120.655 49.9954C119.547 51.3403 118.202 52.5191 116.616 53.2898C115.195 53.9799 113.492 54.0151 112.374 55.1989C111.765 55.8437 111.347 56.6295 110.934 57.4103C109.382 60.3571 107.861 63.3391 105.926 66.0643C101.917 71.696 95.4036 75.343 88.7544 77.0355C88.3917 77.1262 88.0341 77.2118 87.6664 77.2874C86.2559 77.5795 85.0268 77.6954 83.9136 77.6299C82.4981 77.5493 81.1179 77.1564 79.9341 76.3706C79.5916 76.1439 79.2642 75.892 78.9468 75.6251C78.8511 75.7762 78.7353 75.9223 78.5942 76.0633C78.4582 76.1993 78.3273 76.3404 78.2013 76.4864C78.1761 76.5217 78.1157 76.6023 78.0905 76.6527C77.9444 76.8945 77.7933 77.1312 77.6523 77.378C78.1006 77.7609 78.5741 78.1135 79.098 78.3905C80.5034 79.1411 82.0951 79.4685 83.6768 79.5592C84.372 79.5995 85.1024 79.5944 85.9084 79.5441C88.6738 79.3829 91.2529 78.5265 93.7967 77.4889C97.2372 76.0885 100.506 74.3607 103.307 71.9025C106.002 69.54 108.249 66.6738 109.876 63.4852C109.901 63.4348 109.921 63.3845 109.931 63.3341C109.961 63.2787 109.992 63.2233 110.022 63.1679C110.505 64.0847 112.072 64.4776 112.671 63.314C113.916 60.881 115.064 58.3724 116.802 56.2114C117.034 55.9243 117.124 55.612 117.109 55.3148C117.542 55.1133 117.971 54.8916 118.379 54.6599C119.91 53.7784 121.24 52.5896 122.333 51.2245C124.544 48.4641 124.438 44.8926 122.071 42.5402C121.99 42.4596 121.91 42.3891 121.829 42.3135H121.839Z" fill="#264964"/>
<path d="M77.8789 59.1632C78.2164 59.2136 78.4884 59.2086 78.7252 59.1531C79.1433 59.0574 79.3649 58.8711 79.3347 58.6293C79.3095 58.4933 79.1836 58.3724 79.0425 58.2515L79.0073 58.2212C78.8662 58.0953 78.7151 57.9946 78.5892 57.914C78.4935 57.8535 78.3927 57.8032 78.297 57.7477C78.1661 57.6823 78.0452 57.6168 77.9343 57.5311C77.7429 57.3851 77.5868 57.1936 77.486 56.977C77.4105 56.8108 77.3752 56.6496 77.3903 56.5086C77.4155 56.2617 77.5767 56.0351 77.7177 55.8336C77.8638 55.622 78.0099 55.3903 78.1509 55.1334C78.5388 54.5743 78.7 54.0302 78.5892 53.6524C78.5086 53.3653 78.287 53.1638 77.9998 53.1135C77.7026 53.0681 77.5465 53.2595 77.4105 53.4258L76.8564 54.0957C76.7002 54.2821 76.5441 54.4735 76.398 54.6649C76.2771 54.8211 76.1663 54.9873 76.0504 55.1485C75.9547 55.2845 75.859 55.4256 75.7633 55.5565L75.7381 55.5868C75.5366 55.8588 75.3301 56.1358 75.2192 56.4834C75.0581 56.9821 75.1387 57.511 75.451 57.9845C75.7885 58.5033 76.3426 58.7753 76.7506 58.9164C77.0176 59.0071 77.2996 59.0574 77.5717 59.1078L77.6573 59.1229C77.7278 59.138 77.7983 59.1481 77.8689 59.1582" fill="#264964"/>
<path d="M89.2833 42.0919C90.4771 42.4949 92.2754 43.0792 93.4542 42.4294C94.5271 41.84 94.0385 40.3036 92.9101 40.2029C91.9077 40.1122 90.9557 40.0669 89.9684 39.7898C89.0717 39.538 88.3867 38.9033 87.5202 38.6413C86.8402 38.4348 86.2811 39.0594 86.3969 39.7092C86.6236 40.9837 88.1852 41.7191 89.2833 42.0868" fill="#264964"/>
<path d="M71.1138 42.5906C71.9349 42.0163 72.8114 41.3262 72.4789 40.2231C72.3077 39.6488 71.537 39.4725 71.0836 39.805C70.0963 40.5253 69.1997 41.0542 67.9756 41.2406C66.6861 41.437 66.5047 43.3865 67.8799 43.588C69.0435 43.7592 70.1719 43.2454 71.1088 42.5906" fill="#264964"/>
<path d="M86.0745 47.4112C86.1602 47.9049 86.5984 48.0157 87.0115 48.1467C88.4824 48.6101 89.9532 49.0836 91.4191 49.5722C92.079 49.7939 92.7288 49.8795 93.1016 49.1844C93.4793 48.4691 93.0058 48.0006 92.4165 47.648C92.0739 47.4415 91.7113 47.2601 91.2226 46.9931C91.54 46.8118 91.7012 46.6808 91.8876 46.6154C92.5273 46.3887 93.167 46.1116 92.8799 45.3006C92.628 44.5853 91.948 44.7264 91.3687 44.8473C89.7971 45.1697 88.2658 45.6079 86.8402 46.3433C86.412 46.565 85.9839 46.842 86.0796 47.4163" fill="#264964"/>
<path d="M73.3453 47.0587C72.3127 46.298 71.1239 45.8094 69.8293 45.6633C69.4515 45.623 69.0737 45.7641 68.9125 46.1469C68.7463 46.5448 68.9377 46.8471 69.2802 47.0838C69.5371 47.2601 69.794 47.4516 70.1416 47.7034C69.4213 48.323 68.4642 48.731 69.0788 49.678C69.6832 50.6099 70.5849 50.207 71.3556 49.8443C72.0205 49.532 72.6854 49.1945 73.2798 48.7713C73.975 48.2777 74.0254 47.5674 73.3403 47.0637" fill="#264964"/>
<path d="M98.6526 41.2456C98.3 41.1096 98.0482 40.7772 98.028 40.3792C97.7711 35.2059 98.0079 38.1024 97.8416 34.3395C97.8165 33.7955 98.2396 33.3371 98.7786 33.317C99.3226 33.2918 99.781 33.7149 99.8011 34.2539C99.9674 38.0117 99.7306 35.1153 99.9875 40.2785C100.013 40.8225 99.5946 41.2809 99.0556 41.3111C98.9146 41.3162 98.7786 41.296 98.6526 41.2456Z" fill="#264964"/>
<path d="M102.083 44.268C101.73 44.132 101.479 43.7995 101.458 43.4016C101.202 38.2283 101.438 41.1247 101.272 37.3619C101.247 36.8179 101.67 36.3595 102.209 36.3393C102.753 36.3141 103.211 36.7373 103.232 37.2763C103.398 41.0341 103.161 38.1376 103.418 43.3008C103.443 43.8449 103.025 44.3033 102.486 44.3335C102.345 44.3385 102.209 44.3184 102.083 44.268Z" fill="#264964"/>
<path d="M105.513 45.7792C105.161 45.6432 104.909 45.3107 104.889 44.9128C104.632 39.7395 104.869 42.6359 104.702 38.8731C104.677 38.3291 105.1 37.8707 105.639 37.8505C106.183 37.8253 106.642 38.2485 106.662 38.7874C106.828 42.5453 106.591 39.6488 106.848 44.812C106.873 45.3561 106.455 45.8144 105.916 45.8447C105.775 45.8497 105.639 45.8296 105.513 45.7792Z" fill="#264964"/>
<path d="M86.8704 70.079C86.7395 70.079 86.6035 70.0538 86.4725 69.9984C84.3266 69.0816 83.0169 67.7266 82.5787 65.9736C81.7777 62.78 84.3065 59.5612 84.4122 59.4252C84.7598 58.992 85.3945 58.9214 85.8277 59.264C86.2609 59.6065 86.3314 60.2462 85.9889 60.6794C85.9486 60.7348 83.974 63.2736 84.5331 65.485C84.8152 66.5932 85.732 67.4848 87.2633 68.1447C87.7771 68.3613 88.0139 68.9557 87.7923 69.4695C87.626 69.8523 87.2583 70.079 86.8654 70.079H86.8704Z" fill="#264964"/>
<path d="M80.725 68.6081C80.3925 68.6081 80.0802 68.4419 79.8888 68.1648L78.9015 66.704C78.4884 67.1775 78.0048 67.4949 77.4407 67.646C75.8993 68.054 74.5543 66.9861 74.4032 66.8652C73.975 66.5076 73.9146 65.8729 74.2722 65.4447C74.6248 65.0165 75.2595 64.9561 75.6877 65.3087C75.864 65.4498 76.4685 65.8225 76.9269 65.6966C77.3853 65.5706 77.7026 64.9511 77.889 64.4524C78.02 64.0998 78.3373 63.8479 78.7151 63.8026C79.0879 63.7623 79.4556 63.9285 79.6671 64.2408L80.594 65.6109L80.8962 65.0065C81.0524 64.6891 81.3647 64.4826 81.7173 64.4524L83.3242 64.3264C83.8833 64.2861 84.3619 64.6992 84.4072 65.2533C84.4526 65.8074 84.0345 66.291 83.4804 66.3363L82.4427 66.4169L81.6266 68.054C81.4655 68.3764 81.1481 68.5829 80.7905 68.6081C80.7703 68.6081 80.7451 68.6081 80.725 68.6081Z" fill="#264964"/>
<path d="M44.9805 62.0697C43.5297 62.0697 42.0588 61.7423 40.6786 61.0472C40.1799 60.7953 39.9784 60.1908 40.2303 59.6972C40.4822 59.1985 41.0866 58.997 41.5803 59.2488C45.3331 61.1328 49.922 59.6065 51.806 55.8537C53.3675 52.7357 52.1032 48.9275 48.9851 47.3659C46.411 46.0713 43.2627 47.1191 41.9732 49.6931C41.4594 50.7157 41.3738 51.8793 41.7365 52.9674C42.0991 54.0554 42.8598 54.9369 43.8823 55.4507C45.6051 56.3121 47.7107 55.617 48.572 53.8942C49.2672 52.5039 48.703 50.8064 47.3127 50.1112C46.7788 49.8392 46.1693 49.7989 45.6 49.9853C45.0308 50.1767 44.5674 50.5747 44.3004 51.1086C44.0889 51.5267 44.0536 52.0052 44.2047 52.4485C44.3508 52.8918 44.6631 53.2545 45.0862 53.4661C45.5849 53.7179 45.7864 54.3224 45.5346 54.816C45.2827 55.3147 44.6782 55.5162 44.1846 55.2644C43.2829 54.811 42.6129 54.0353 42.2956 53.0832C41.9782 52.1261 42.0538 51.1036 42.5021 50.2019C43.5549 48.1014 46.1189 47.2501 48.2194 48.3028C50.6021 49.4967 51.5692 52.4082 50.3754 54.7909C49.0103 57.506 45.6957 58.6091 42.9807 57.249C41.4745 56.4935 40.3562 55.1989 39.8223 53.6021C39.2883 52.0052 39.4143 50.2926 40.1699 48.7915C41.9581 45.2251 46.3153 43.7743 49.8868 45.5626C53.9972 47.6228 55.6645 52.645 53.6043 56.7554C51.9168 60.1203 48.5116 62.0697 44.9754 62.0697H44.9805Z" fill="#264964"/>
<path d="M36.5884 41.704C31.3849 41.704 26.8362 37.8555 26.1108 32.5563C25.194 25.8517 29.8989 19.6559 36.6035 18.734C44.3911 17.6661 51.5944 23.1366 52.6623 30.9242C52.7379 31.4733 52.35 31.9821 51.8009 32.0576C51.2468 32.1332 50.7431 31.7453 50.6675 31.1963C49.7508 24.5068 43.565 19.812 36.8755 20.7288C31.274 21.4945 27.3399 26.6778 28.1056 32.2793C28.7453 36.9589 33.0723 40.2432 37.752 39.6035C39.6409 39.3466 41.3133 38.3693 42.4618 36.8531C43.6154 35.3369 44.104 33.463 43.8471 31.5741C43.4038 28.3452 40.4167 26.0834 37.1928 26.5217C34.5331 26.8844 32.6643 29.3476 33.027 32.0073C33.1731 33.0651 33.7171 33.997 34.5684 34.6418C35.4147 35.2865 36.4675 35.5585 37.5203 35.4175C38.3766 35.3016 39.1372 34.8533 39.6611 34.1683C40.185 33.4781 40.4066 32.6268 40.2908 31.7705C40.1951 31.0804 39.8374 30.4709 39.2833 30.0478C38.7292 29.6297 38.0441 29.4483 37.354 29.544C36.81 29.6196 36.3264 29.9017 35.994 30.3399C35.6615 30.7782 35.5205 31.3222 35.596 31.8662C35.6716 32.4153 35.2837 32.924 34.7346 32.9996C34.1805 33.0752 33.6768 32.6873 33.6013 32.1382C33.4552 31.0603 33.7322 29.9873 34.3921 29.1209C35.052 28.2545 36.0091 27.6954 37.087 27.5493C39.6057 27.2017 41.943 28.9748 42.2906 31.4985C42.482 32.8888 42.1193 34.269 41.268 35.3873C40.4217 36.5055 39.1876 37.2259 37.7973 37.4173C36.2106 37.6339 34.6289 37.2208 33.3544 36.2537C32.08 35.2865 31.2539 33.8761 31.0373 32.2843C30.5235 28.5215 33.163 25.0407 36.9259 24.5269C41.2579 23.9375 45.2575 26.975 45.8519 31.302C46.1844 33.7199 45.5547 36.1278 44.0738 38.0721C42.5978 40.0165 40.452 41.2708 38.029 41.6033C37.5454 41.6688 37.0619 41.704 36.5884 41.704Z" fill="#264964"/>
</g>
<defs>
<clipPath id="clip0_1_216">
<rect width="125" height="165.238" fill="white" transform="translate(26 4)"/>
</clipPath>
</defs>
</svg>
