<svg width="185" height="172" viewBox="0 0 185 172" fill="none" xmlns="http://www.w3.org/2000/svg">
<path d="M51.1517 161.105C44.1389 158.024 37.8336 153.128 31.717 148.623C21.6223 141.194 14.0906 130.745 8.00551 119.656C2.04618 108.769 -0.59542 98.8839 0.112152 90.0152C0.583867 83.962 -0.469629 77.7211 1.16565 71.7774C2.83237 65.6304 3.79153 59.1236 6.32306 53.2111C14.7039 33.6907 28.9654 19.9889 49.139 12.1057C57.6142 8.78971 66.105 5.80221 74.5959 3.12754C79.4546 1.59469 86.6246 0.578002 96.1218 0.0774786C103.072 -0.282272 110.226 0.609284 117.569 2.78343C127.617 5.75529 135.62 8.85227 141.611 12.0588C161.517 22.7105 175.087 38.3988 182.32 59.1236C183.499 62.5177 184.222 66.2091 184.458 70.1976C184.851 76.6575 185.04 82.8984 184.993 88.9516C184.946 93.9099 184.348 98.4928 183.2 102.7C177.367 124.066 165.087 143.165 146.297 154.473C137.35 159.854 126.988 164.265 115.195 167.69C111.044 168.895 107.113 168.988 102.915 169.661C101.264 169.927 99.5496 170.036 97.8043 169.989C91.5619 169.833 85.1152 170.349 79.2816 169.395C69.5643 167.815 60.1929 165.062 51.1517 161.105Z" fill="white"/>
<g clip-path="url(#clip0_1_187)">
<path d="M106.579 51.908C105.909 54.0919 104.533 55.7533 102.256 56.5816C101.817 56.7393 101.28 56.7886 100.969 57.0795C100.619 57.1189 100.259 57.2225 99.8943 57.4049C99.3964 57.6514 98.9379 57.9472 98.5484 58.312C98.1146 58.6324 97.8188 59.0416 97.5378 59.4409C93.3917 65.2238 87.9342 69.7396 82.0528 73.8413C79.4547 75.6556 76.5017 76.819 73.5733 78.0219C73.1345 78.1994 72.7154 78.2142 72.257 78.1057C66.3361 76.75 61.6871 73.5702 58.1326 69.0642C56.7177 67.2697 55.9783 65.0463 55.5099 62.7341C54.445 57.4739 53.9471 52.0953 52.404 46.9336C52.2364 46.3766 52.0491 45.8293 51.847 45.287C52.0442 44.9814 52.1033 44.5426 52.1773 44.1285C52.6653 41.3973 53.395 38.7351 54.4598 36.1962C55.4261 33.9038 56.9297 32.2227 58.7982 30.9606C57.7136 31.7099 64.369 37.1575 65.0099 37.5076C68.4017 39.3612 72.3556 40.2043 76.2059 39.8148C73.4845 37.2019 71.5569 33.7756 70.7336 30.0979C70.9949 31.2663 73.0951 33.0065 73.9085 33.8742C75.1459 35.1905 76.4819 36.423 77.956 37.4731C80.8104 39.4993 84.3008 40.8402 87.8504 40.4705C88.0377 40.4508 88.2251 40.4261 88.4174 40.4064C88.2793 40.2388 88.1462 40.0662 88.0131 39.9134C87.3771 39.1542 86.7954 38.3703 86.3024 37.4977C85.8143 36.6251 85.3805 35.718 84.922 34.8306C84.5276 34.0566 84.1628 33.2629 83.941 32.4149C83.8719 32.2128 83.8177 32.0107 83.7783 31.7987C83.7635 31.7149 83.7684 31.6508 83.7783 31.5966C83.7635 31.3895 83.7783 31.1824 83.8374 30.9803C83.8473 31 83.8571 31.0148 83.867 31.0395C86.3763 35.6884 90.6112 39.381 94.7622 42.5509C95.339 42.9897 95.9306 43.4284 96.3644 44.0053C96.7145 44.4687 96.9462 45.011 97.1532 45.5533C97.5772 46.6822 97.8829 47.8605 98.0603 49.0535C98.1639 49.7437 98.4252 50.636 99.1252 50.6558C99.3273 50.6558 99.5147 50.5818 99.6872 50.4734C100.003 50.4783 100.2 50.2269 100.368 49.9409C101.225 49.2113 102.108 48.3781 103.173 48.0232C103.814 47.8112 104.454 47.8309 105.066 48.0084C106.422 48.807 107.067 50.3156 106.574 51.9277" fill="white"/>
<path d="M51.4427 163.65C51.4427 163.123 51.1025 162.561 50.4321 162.492C47.622 162.201 44.7183 162.842 42.2878 164.291C41.1736 164.957 39.9609 165.815 39.3594 167.003C38.7382 168.235 38.822 170.02 40.5081 170.182C41.8786 170.316 43.397 170.04 44.7232 169.704C46.1036 169.354 47.4495 168.812 48.6869 168.117C49.7863 167.496 51.5265 166.569 51.8618 165.248C52.0047 164.681 51.842 164.064 51.4427 163.645" fill="white"/>
<path d="M33.6357 41.7473C33.6357 43.1967 32.4624 44.3701 31.013 44.3701C29.5636 44.3701 28.3903 43.1967 28.3903 41.7473C28.3903 40.2979 29.5636 39.1246 31.013 39.1246C32.4624 39.1246 33.6357 40.2979 33.6357 41.7473Z" fill="white"/>
<path d="M41.2476 47.8309C41.2476 49.0289 40.2764 50.0001 39.0784 50.0001C37.8804 50.0001 36.9092 49.0289 36.9092 47.8309C36.9092 46.6329 37.8804 45.6617 39.0784 45.6617C40.2764 45.6617 41.2476 46.6329 41.2476 47.8309Z" fill="white"/>
<path d="M133.595 165.967C133.595 165.967 133.6 165.923 133.605 165.898C133.605 165.879 133.605 165.864 133.61 165.844C133.61 165.711 133.591 165.568 133.536 165.415C133.467 165.218 133.359 165.065 133.231 164.952C133.211 164.784 133.191 164.622 133.171 164.454C133.142 164.168 133.112 163.882 133.083 163.596C133.024 162.931 132.974 162.26 132.945 161.595C132.915 161.028 132.481 160.53 131.885 160.539C129.114 160.579 126.334 160.268 123.573 160.594C122.237 160.751 120.94 161.067 119.589 161.102C118.303 161.131 117.011 161.072 115.729 161.008C113.008 160.88 110.297 160.643 107.595 160.283C104.928 159.933 102.374 159.406 99.7809 160.421C99.5344 160.52 99.3569 160.673 99.2435 160.86C99.0414 160.89 98.8492 160.924 98.6717 160.968C96.68 161.304 94.8658 162.62 92.8248 162.536C89.428 163.917 84.0248 164.809 81.2788 161.807C80.9337 161.363 80.8943 161.491 80.3914 161.747C78.4096 162.674 74.9044 162.166 74.1156 159.899C74.0613 159.825 74.0071 159.751 73.948 159.677C73.2676 160.125 72.5133 160.48 71.8182 160.84C70.2308 161.654 68.7123 162.63 67.0115 163.177C66.7305 165.011 66.415 166.84 66.0945 168.654H133.388C133.369 168.62 133.349 168.304 133.605 165.953" fill="#F4F0BB"/>
<path d="M142.1 140.386C141.907 138.68 141.671 136.984 141.395 135.298C140.177 127.716 138.294 120.252 137.046 112.675C135.829 105.294 134.754 97.6579 131.145 91.0419C129.42 87.872 127.122 85.0718 124.317 82.8632C123.948 82.5723 123.558 82.2814 123.109 82.1434C122.173 81.8426 121.162 81.9955 120.211 81.7194C119.106 81.399 118.046 80.901 116.996 80.4278C114.181 79.1657 111.361 77.7952 108.418 76.8782C108.418 76.8831 108.418 76.888 108.418 76.893C101.59 81.1771 96.9413 87.0585 88.8956 88.6263C83.5762 89.4151 66.8242 88.858 63.4225 83.5632C63.3288 83.6372 63.2401 83.716 63.1464 83.79C62.826 83.5829 62.3922 83.5287 62.0865 83.7653C61.8006 83.9823 61.5196 84.2041 61.2336 84.4259C59.6117 85.4957 58.2017 86.8663 56.91 88.3403C55.643 89.7897 53.8584 91.4561 53.4985 93.4576C53.4246 93.8816 53.5478 94.2218 53.7697 94.4485C53.4541 97.2241 51.0483 118.669 51.4477 120.124C51.8766 121.677 52.5175 121.159 51.5167 122.416C50.5159 123.673 49.4461 124.265 46.1677 124.635C42.8843 125.004 43.0273 125.522 40.1729 124.93C36.5543 124.112 34.6119 121.356 31.7525 121.233C31.7525 121.233 29.8249 123.525 30.3277 126.932C30.8257 130.334 30.5397 132.557 31.1116 134.036C31.6835 135.515 32.1124 135.515 33.3251 137.216C34.5379 138.917 35.6077 138.769 37.3924 139.582C39.177 140.396 41.5286 140.322 43.5301 139.878C51.3195 137.704 55.8304 127.356 59.2961 121.307C59.2961 121.307 59.3208 120.341 59.3553 118.842C59.9518 123.097 61.2829 127.169 62.5499 131.241C63.4767 131.497 64.9853 134.189 64.867 135.318C67.7559 141.801 68.2391 148.683 67.7411 155.6C69.0821 155.585 70.4083 155.383 71.7492 155.343C71.7886 155.343 71.833 155.343 71.8725 155.343C71.8527 153.692 70.6252 152.701 71.5027 151.059C85.5038 138.34 82.5409 141.209 99.2189 145.375C100.974 146.553 103.528 145.779 105.5 145.686C110.247 145.35 115.034 144.517 119.447 142.698C122.331 140.711 128.064 146.933 129.538 148.791C131.786 152.099 133.334 157.493 132.935 161.59C132.935 161.565 133.936 159.992 134.202 159.933C136.223 159.499 138.279 159.302 139.842 157.739C141.054 156.531 141.755 154.855 142.095 153.149C142.908 149.058 142.563 144.497 142.1 140.386Z" fill="#F4F0BB"/>
<path d="M59.7398 83.9576C58.0784 85.4119 56.7326 87.1719 55.3916 88.9221C55.0416 89.3805 55.3226 90.1003 55.7712 90.3715C56.3135 90.6968 56.8706 90.4405 57.2206 89.9919C57.8566 89.1636 58.4975 88.3403 59.1778 87.5565C59.1827 87.5565 59.1926 87.5565 59.1975 87.5614C59.2715 87.4628 59.3504 87.3642 59.4292 87.2705C59.6708 86.9994 59.9173 86.7332 60.1737 86.4719C60.6667 85.9937 61.209 85.5598 61.771 85.1359C62.7372 84.2287 63.9254 83.6519 65.2959 83.2822C66.7601 82.8878 69.6441 81.7588 71.1724 81.2165C70.3047 79.9841 67.8496 80.058 66.4741 80.6151C65.7149 80.9207 64.9163 81.1426 64.1226 81.3447C62.3527 81.7983 60.9033 82.6709 59.7448 83.9576" fill="#264964"/>
<path d="M46.6558 85.1063C46.6114 85.6979 47.0304 86.112 47.6565 86.0578C48.3467 86.0035 48.5784 85.4859 48.6277 84.8549C48.8348 82.1138 48.3073 79.5502 46.8135 77.2184C46.5177 76.7599 46.2466 76.1979 45.3592 76.2767C45.3099 76.5035 45.2014 76.7056 45.2458 76.8585C46.0543 79.5502 46.8776 82.2272 46.6558 85.1014" fill="#264964"/>
<path d="M146.122 137.462C144.934 129.801 142.864 122.298 141.991 114.504C141.405 109.258 139.797 104.235 138.639 99.1123C137.712 95.0253 136.075 91.2589 133.625 87.9114C130.105 83.0998 124.825 80.9257 119.412 79.141C110.928 76.3507 103.577 72.1947 99.7513 63.5525C99.5886 63.1828 99.4407 62.7046 98.9182 62.7982C98.3216 62.9067 98.3216 63.4539 98.3414 63.9124C98.4005 65.3865 98.8393 66.7619 99.6527 67.9846C102.068 71.6229 105.12 74.4822 108.675 76.7155C104.159 79.4713 100.022 82.873 95.2108 85.126C92.3416 86.4669 89.2998 87.1374 86.1496 87.3297C83.0782 87.5121 79.9428 87.4677 76.901 86.9895C73.4895 86.4571 70.1913 85.4021 67.258 83.5583C66.0452 82.7941 64.9261 84.7168 66.1389 85.476C71.5619 88.8777 78.1088 89.7749 84.3995 89.6221C87.8159 89.5383 91.2176 89.1193 94.422 87.8671C97.2864 86.748 99.9239 85.1753 102.478 83.4843C105.268 81.6356 107.984 79.6685 110.893 77.9924C111.775 78.4607 112.683 78.8896 113.614 79.2939C116.829 80.6743 120.156 81.7884 123.346 83.228C128.059 85.3528 131.821 88.4192 134.103 93.3492C136.632 98.8214 137.776 104.619 138.747 110.436C139.98 117.802 141.168 125.167 142.726 132.478C144.032 138.621 144.831 144.862 144.407 151.192C144.16 154.905 142.075 157.527 138.451 158.306C136.593 158.706 134.69 158.908 132.802 159.125C131.88 159.228 131.037 159.484 131.155 160.51C131.229 161.136 131.559 161.604 132.112 161.787C132.225 163.941 132.348 165.958 132.496 167.92C132.545 168.62 133.009 169.073 133.674 169.073C133.694 169.073 133.714 169.073 133.734 169.073C134.394 169.049 134.823 168.605 134.912 167.86C134.941 167.614 134.936 167.363 134.927 167.013C134.927 166.82 134.917 166.598 134.917 166.327V166.303C134.838 165.765 134.789 165.184 134.739 164.567C134.665 163.655 134.581 162.654 134.374 161.654C135.868 161.456 137.367 161.289 138.846 161.003C144.88 159.854 146.837 154.826 147 149.24C147.118 145.237 146.739 141.332 146.142 137.467" fill="#264964"/>
<path d="M95.5411 159.894C95.2601 159.894 94.9348 159.982 94.5453 160.165C93.1205 160.825 91.6366 161.23 89.852 161.629C88.2152 161.999 86.825 162.166 85.4692 162.166C84.4635 162.166 83.4775 162.073 82.4718 161.88C82.9057 161.678 83.3198 161.491 83.7191 161.304C84.9812 160.722 86.0756 160.219 87.1799 159.696C87.5546 159.519 88.5554 159.046 88.0772 158.02C87.8899 157.626 87.5891 157.424 87.1799 157.424C86.9482 157.424 86.687 157.483 86.3419 157.621L85.9327 157.784C85.1882 158.079 84.4192 158.385 83.6797 158.73C83.5071 158.809 83.3395 158.893 83.167 158.972C81.7816 159.627 80.347 160.303 78.8138 160.633C78.1532 160.776 77.5715 160.845 77.0489 160.845C75.9791 160.845 75.1509 160.549 74.5248 159.938C74.6234 159.79 74.791 159.731 74.9832 159.662C75.0424 159.642 75.1016 159.618 75.1607 159.598C77.7391 158.533 80.2238 157.187 82.6296 155.886C83.3198 155.511 84.0297 155.126 84.7347 154.752C84.8284 154.702 84.927 154.653 85.0256 154.604C85.4988 154.372 86.0362 154.111 86.189 153.633C86.2728 153.361 86.2235 153.056 86.0362 152.721C85.8045 152.306 85.489 152.094 85.0995 152.094C84.71 152.094 84.2713 152.321 83.9015 152.523C83.7931 152.583 83.6895 152.637 83.586 152.686C82.4866 153.223 81.3823 153.785 80.3125 154.333C79.2822 154.86 78.2124 155.402 77.1573 155.92C76.058 156.457 74.9684 156.921 73.6571 157.468C73.4944 157.537 73.3416 157.572 73.1937 157.572C72.9274 157.572 72.7105 157.458 72.5429 157.227C72.2274 156.788 72.6415 156.418 72.7795 156.315C73.8493 155.491 74.786 154.49 75.6931 153.519C77.1672 151.942 78.6906 150.31 80.8302 149.442C82.4817 148.772 83.8029 147.746 84.7643 146.391L84.8974 146.203L84.498 146.105C84.0642 145.996 83.8276 145.932 83.6008 145.932C83.3247 145.932 83.1029 146.026 82.6937 146.233C82.0922 146.534 81.4711 146.824 80.8696 147.105C78.2321 148.333 75.5058 149.6 73.7113 152.218C73.593 152.385 73.4254 152.528 73.243 152.676C73.1739 152.735 73.1049 152.79 73.0359 152.849C72.7845 153.071 72.5084 153.189 72.2323 153.189C71.976 153.189 71.7245 153.085 71.5027 152.888C71.1477 152.573 71.34 152.173 71.6457 151.641L71.6555 151.626C71.8626 151.271 72.0943 150.995 72.3309 150.837C73.9972 149.703 75.4516 148.298 76.8615 146.933C77.3052 146.504 77.7588 146.065 78.2173 145.636C80.6527 143.359 83.1867 142.254 85.9573 142.254C87.6779 142.254 89.4576 142.673 91.4 143.536C95.4475 145.331 99.6527 146.243 103.907 146.243C104.706 146.243 105.514 146.208 106.308 146.144C112.254 145.646 117.401 144.7 122.04 143.255C122.355 143.156 122.626 143.107 122.873 143.107C123.351 143.107 123.76 143.285 124.204 143.684C128.113 147.204 131.14 151.459 131.904 156.743C132.008 157.473 132.417 158.158 133.078 158.208C133.28 158.222 133.507 158.178 133.753 158.06C134.3 157.794 134.517 157.207 134.552 156.625C134.636 155.181 134.103 153.529 133.635 152.178C133.157 150.803 132.516 149.487 131.752 148.249C130.204 145.745 128.168 143.571 125.895 141.707C125.801 141.633 125.712 141.554 125.619 141.48C124.909 140.908 124.179 140.361 123.435 139.839C122.828 139.41 122.35 139.203 121.961 139.203C120.975 139.203 120.876 140.534 120.856 141.13C117.134 141.924 113.417 142.466 109.823 142.994L108.729 143.156C107.403 143.354 106.047 143.452 104.696 143.452C100.644 143.452 96.3694 142.57 91.6218 140.761C89.4181 139.922 87.4757 139.513 85.6763 139.513C83.231 139.513 81.0619 140.258 79.0455 141.791L78.7103 142.042C78.0645 142.53 77.394 143.038 76.7827 143.585L75.8263 144.438C75.7375 144.517 75.6488 144.596 75.56 144.675C75.6488 143.625 75.9544 142.639 75.7326 141.865C75.2642 136.412 74.8452 131.379 74.3867 126.345C74.1205 123.397 71.976 121.741 69.6293 122.613C68.7961 122.924 68.2193 123.466 68.3672 124.428C68.4954 125.246 69.1363 125.557 69.8659 125.428C71.4238 125.152 71.9069 126.197 72.2323 127.326C72.4345 128.022 72.4492 128.791 72.4443 129.52C72.4049 134.983 72.5183 140.445 72.8634 145.898C72.888 146.267 72.9176 146.637 73.0113 146.957C72.0154 147.865 71.0196 148.786 70.0484 149.718C69.8019 149.955 69.5899 150.201 69.4124 150.458C69.4124 150.413 69.4124 150.364 69.4124 150.32C69.3237 143.142 67.7855 136.54 63.6789 130.536C60.9279 126.513 60.3511 121.706 59.937 117.023C59.5821 113 59.8828 108.918 59.8828 104.861C59.8828 103.988 59.8483 103.115 59.7645 102.248C59.7201 101.804 59.6116 101.252 58.9855 101.301C58.4679 101.341 58.4186 101.829 58.3594 102.233C57.8664 105.635 57.5164 109.061 57.4622 112.497C57.408 115.82 57.6347 119.157 58.246 122.426C57.5066 122.436 56.6685 123.555 56.3875 124.102C54.9972 126.819 53.2964 129.343 51.4871 131.783C49.8257 134.026 47.9178 136.003 45.5021 137.522C43.2343 138.946 40.9271 139.316 38.6939 138.922C38.6643 138.069 38.6248 137.216 38.5755 136.363C38.5312 135.609 38.6347 134.884 39.4432 134.47C39.9017 134.233 40.1433 133.819 39.8918 133.287C39.6601 132.804 39.1967 132.68 38.7136 132.641C37.5057 132.542 36.7514 133.149 36.5247 134.278C36.3127 135.333 36.2239 136.417 36.1796 137.492C36.1697 137.709 36.1648 137.926 36.1549 138.143C35.7605 137.97 35.3711 137.778 34.9816 137.566C31.9152 135.88 29.9284 133.099 30.5446 129.155C30.7073 128.115 30.5052 127.016 30.6432 125.966C30.8404 124.418 30.8897 122.806 31.8708 121.475C31.7968 122.066 32.2701 122.357 32.6201 122.737C36.012 126.39 40.3602 126.572 44.8366 126.01C47.3459 125.695 49.7567 124.881 51.9899 123.639C52.7245 123.23 53.5971 122.534 52.7639 121.78C51.8075 120.913 52.1625 120.04 52.2512 119.157C52.4681 117.038 52.8872 114.937 53.04 112.818C53.6316 104.723 54.1591 96.6227 54.6768 88.5277C54.6915 88.3305 54.7162 88.1481 54.7556 87.9804C55.8994 87.0142 56.9199 85.9345 57.7481 84.6626C59.4539 82.0399 60.6026 79.1509 61.8844 76.3162C62.8605 74.1569 62.9344 72.244 61.6872 70.208C61.0709 69.2023 60.3363 68.0684 60.2969 66.9641C60.2525 65.6724 60.0652 64.5287 59.3405 63.2962C60.2476 62.7637 61.1054 62.4334 61.7808 61.8073C62.5154 61.127 62.8457 60.3234 62.5647 59.3571C62.3034 58.455 61.6428 57.9225 60.7357 57.7155C59.7891 57.5035 58.8229 57.4985 57.8812 57.6662C55.1007 58.1592 52.3005 58.455 49.4904 58.6965C48.9284 58.7458 48.2037 58.7705 47.8537 59.1156C45.9409 60.9692 43.3034 62.0587 41.9378 64.4498C40.8187 66.407 39.527 68.2409 38.3833 70.1685C37.4762 71.6919 36.924 73.3927 36.4507 75.0985C36.1007 76.3507 36.2239 77.5585 36.9979 78.6628C37.5748 79.4861 38.1663 80.3045 38.6741 81.1672C39.7341 82.9667 41.1342 84.5936 41.5779 86.7282C41.6814 87.2163 41.7554 87.8424 42.1004 88.1283C42.135 88.572 41.9427 89.0207 41.5729 89.5038C40.5475 90.8448 39.9855 92.4273 39.3446 93.9802C36.0465 101.947 33.3596 110.146 30.2488 118.181C29.3664 120.459 28.5677 122.796 28.405 125.226C28.1191 129.535 27.636 133.73 31.2299 137.433C32.4427 138.68 34.178 139.651 36.0859 140.268C35.8542 149.275 36.2437 158.262 36.9043 167.244C37.1163 170.104 38.1861 171.233 40.863 171.568C44.9204 172.071 48.4256 170.73 51.6596 168.432C52.3843 167.915 53.1288 167.244 52.9956 166.293C52.7097 164.227 54.3021 163.887 55.574 163.251C56.7523 162.664 57.8418 162.576 58.739 163.867C59.163 164.474 59.9419 164.74 60.6765 164.888C62.2492 165.203 63.7577 165.218 65.2071 165.001C65.074 165.691 64.9459 166.357 64.8374 166.983C64.6846 167.87 64.7191 168.733 65.7889 168.911C66.7749 169.078 67.1298 168.299 67.2679 167.491C67.4404 166.47 67.6277 165.42 67.8151 164.35C69.442 163.793 70.9998 162.975 72.5183 162.004C72.6464 161.925 72.7648 161.831 72.8781 161.733C73.2775 162.157 73.8493 162.398 74.3818 162.62L74.4311 162.64C75.2149 162.97 75.9988 163.014 76.6644 163.014C76.9454 163.014 77.2264 163.004 77.4975 162.995C77.7687 162.985 78.0497 162.975 78.3208 162.975H78.4736C78.587 162.975 78.6955 162.97 78.8089 162.96C78.9124 162.955 79.0159 162.95 79.1195 162.95C79.3857 162.95 79.578 162.995 79.7653 163.098C81.7126 164.153 83.7388 164.666 85.9524 164.666C89.1026 164.666 92.1838 163.636 95.5954 162.388C96.1229 162.196 96.4877 161.89 96.6356 161.53C96.7539 161.235 96.7293 160.914 96.5617 160.574C96.3398 160.125 95.9996 159.899 95.5411 159.899M60.5385 59.9389C59.1926 61.9552 57.3389 62.0785 54.5141 60.3382C56.5354 59.4853 59.306 59.3029 60.5385 59.9389ZM32.4575 118.931C35.5683 110.407 38.6889 101.888 41.8441 93.3837C42.4061 91.8702 43.2935 90.4503 43.5449 88.8432C43.9147 86.4669 42.9731 84.2485 41.7997 82.2321C41.3955 81.537 40.9616 80.8616 40.513 80.196C40.094 79.5749 39.6946 78.7565 39.1671 78.229C38.4178 77.1395 38.2058 76.0647 38.7136 74.8569C40.9173 69.6459 43.2491 64.5287 48.046 61.0629C48.8989 60.4467 49.7715 60.3333 50.5948 60.7868C52.6456 61.9108 54.8887 62.6799 56.8114 64.0505C57.2354 64.3561 57.6347 64.6963 58.0242 65.0463C58.3249 65.3125 58.5418 65.6379 58.3446 66.0569C58.177 66.4168 57.827 66.4168 57.4918 66.4661C56.3283 66.6337 55.3571 66.1013 54.3514 65.6625C52.0688 64.6667 49.732 63.8286 47.2966 63.2912C46.7543 63.1729 46.0543 63.1039 45.8571 63.8434C45.6549 64.6075 46.3057 64.7899 46.8529 64.9822C48.4305 65.5442 49.9834 66.1851 51.5857 66.6485C54.8542 67.5951 56.2494 70.1094 57.0382 73.092C57.265 73.9498 56.8804 74.7731 55.7466 74.9407C55.0761 73.5751 55.0169 71.8792 53.676 71.0362C51.0878 69.4044 48.3763 67.9747 45.4232 67.0972C44.8464 66.9246 44.0823 66.7126 43.8506 67.5458C43.6287 68.3296 44.3337 68.6254 44.9155 68.8424C47.1684 69.6755 49.1601 71.0313 51.3441 72.0025C52.7442 72.6236 53.2471 73.8068 53.5133 75.1626C53.5922 75.5717 53.7154 76.0697 53.2865 76.3556C52.8576 76.6415 52.3548 76.5528 51.916 76.3359C51.6202 76.1929 51.3293 76.0007 51.0927 75.769C48.9186 73.6441 45.936 73.4913 43.2738 72.5793C42.6132 72.3525 41.8589 72.5053 41.6617 73.3385C41.4743 74.1421 42.0955 74.3836 42.7413 74.566C44.2598 74.9949 45.7585 75.483 47.2818 75.8873C48.4256 76.1929 49.5644 76.3704 50.3187 77.4994C50.7476 78.1403 51.5807 78.4311 52.3597 78.3966C52.6703 78.3818 52.9661 78.3473 53.2619 78.2931C53.0844 78.8255 52.9661 79.3826 52.897 79.9594C52.828 80.5362 53.4393 81.0391 53.9767 81.0391C54.6176 81.0391 54.9873 80.5411 55.0564 79.9594C55.155 79.1263 55.5001 78.367 55.9684 77.6867C56.0719 77.5339 56.1212 77.3564 56.1212 77.174C56.8657 76.7303 57.5706 76.2077 58.2658 75.6703C58.8228 75.2365 58.6947 74.4527 58.6552 73.7723C58.5517 71.9926 58.6552 70.1784 57.2699 68.5614C58.1524 68.4578 58.6552 68.3987 59.2665 68.3247C59.5722 69.9122 60.1391 71.3271 60.7505 72.7272C60.9378 73.1561 60.8984 73.5653 60.7258 73.9794C59.8877 75.9859 59.1186 78.0269 58.177 79.989C57.7038 80.975 57.1861 81.9412 56.5994 82.8681C55.9931 83.8196 55.2684 84.6626 54.5535 85.5401C54.2281 85.9345 53.9028 86.3338 53.6464 86.7775C53.0449 87.8227 52.8921 89.0207 52.7393 90.194C52.5667 91.4906 52.4484 92.797 52.3153 94.0985C52.0343 96.7952 51.7582 99.4968 51.5117 102.198C51.0039 107.75 50.9103 113.34 50.013 118.862C49.8503 119.862 49.9144 120.878 50.3532 121.977C49.027 122.771 47.5628 123.161 46.1184 123.501C41.9082 124.487 37.8015 124.6 34.1336 121.726C33.5026 121.233 32.7878 120.789 31.9497 121.356C31.6637 120.459 32.206 119.719 32.4821 118.955M39.6601 168.137C41.4398 164.449 46.3451 162.817 50.6046 164.405C49.589 167.826 42.9977 170.01 39.6601 168.137ZM58.7538 158.76C57.8763 159.627 57.1565 160.239 56.0029 160.702C53.8436 161.57 51.7977 162.181 49.5595 161.121C49.3376 161.013 49.027 161.102 48.7559 161.072C45.4873 160.722 42.5096 161.506 39.7637 163.724C39.6355 162.945 39.5418 162.502 39.4826 162.048C38.6002 155.013 38.896 147.934 38.7432 140.869C41.4694 141.263 44.24 140.948 46.1726 139.735C51.9357 136.126 55.2437 130.639 58.32 124.891C58.4087 124.728 58.5172 124.506 58.6158 124.26C58.8426 125.276 59.1039 126.291 59.4095 127.272C59.8581 128.697 60.5385 130.033 61.273 131.325C62.3773 133.257 63.6789 135.135 64.5564 137.181C66.9425 142.747 67.189 148.535 66.765 154.367C63.7134 154.89 61.0512 156.472 58.744 158.755M62.4513 162.329C61.6526 162.206 60.7258 162.28 60.43 161.328C60.1046 160.288 60.8589 159.711 61.6231 159.228C62.1949 158.873 62.8112 158.592 63.388 158.247C65.4635 157.005 67.8003 156.951 70.0927 156.699C70.0829 157.794 70.2505 158.918 71.3548 159.573C71.2168 159.667 71.0836 159.761 70.9505 159.839C68.3426 161.422 65.6804 162.827 62.4513 162.324" fill="#264964"/>
<path d="M128.158 159.317C127.975 159.317 127.788 159.327 127.611 159.342C127.443 159.351 127.285 159.361 127.142 159.361H127.118C126.536 159.361 125.954 159.356 125.372 159.356C124.283 159.356 123.193 159.361 122.104 159.371C121.014 159.376 119.925 159.386 118.835 159.386C116.045 159.386 112.742 159.351 109.409 159.08C108.803 159.031 108.182 159.006 107.511 159.006C105.929 159.006 104.326 159.144 102.783 159.277C101.57 159.381 100.323 159.489 99.0907 159.529C98.647 159.544 97.7251 159.573 97.6463 160.49C97.5772 161.348 98.3759 161.545 98.9083 161.673L99.0513 161.708C99.6133 161.846 100.195 161.989 100.772 161.989C100.88 161.989 100.984 161.984 101.087 161.974C102.3 161.851 103.592 161.792 105.041 161.792C106.826 161.792 108.606 161.885 110.326 161.969C112.012 162.058 113.605 162.137 115.167 162.137C115.788 162.137 116.36 162.122 116.908 162.097C117.682 162.097 118.431 162.102 119.161 162.107C119.851 162.112 120.516 162.117 121.172 162.117C123.05 162.117 125.062 162.078 127.083 161.806C127.241 161.787 127.413 161.782 127.551 161.782C127.62 161.782 127.694 161.782 127.763 161.782C127.837 161.782 127.911 161.782 127.98 161.782C128.518 161.782 129.513 161.782 129.538 160.584C129.548 160.17 129.449 159.869 129.242 159.657C128.951 159.361 128.513 159.322 128.158 159.322" fill="#264964"/>
<path d="M123.346 131.305C121.557 125.236 119.816 119.157 118.022 113.094C117.829 112.438 117.775 111.654 116.996 111.205C116.277 111.62 116.331 112.191 116.41 112.753C117.539 121.154 120.048 129.2 122.695 137.206C122.966 138.019 123.474 138.818 124.49 138.414C125.52 138.005 125.229 137.078 124.978 136.284C124.45 134.618 123.839 132.976 123.346 131.3" fill="#264964"/>
<path d="M121.349 85.9838C120.566 86.5064 120.013 87.2557 119.476 88.015C116.257 92.5456 114.3 97.4805 114.63 102.514C114.63 104.432 114.595 105.723 114.645 107.005C114.669 107.685 115.064 108.203 115.803 108.203C116.577 108.203 116.863 107.636 116.888 106.961C116.927 105.985 116.952 105.004 116.903 104.027C116.641 98.8165 117.948 94.0394 120.797 89.6764C121.359 88.8136 121.867 87.9213 122.414 87.0487C122.646 86.6789 122.858 86.3043 122.483 85.9444C122.119 85.5944 121.7 85.757 121.349 85.9887" fill="#264964"/>
<path d="M124.894 140.203C124.924 140.687 125.298 140.904 125.712 141.002C126.112 141.096 126.526 141.209 126.925 141.18C130.795 140.908 134.453 141.87 138.077 143.058C138.782 143.29 139.585 143.492 139.896 142.555C140.211 141.608 139.546 141.111 138.747 140.879C135.705 139.987 132.718 138.779 129.44 139.099C128.217 139.153 126.975 138.996 125.762 139.296C125.293 139.415 124.86 139.617 124.894 140.199" fill="#264964"/>
<path d="M68.1257 69.1579C68.1454 69.7051 68.5496 70.0058 69.018 70.0403C69.8659 70.1044 70.7238 70.0502 71.5766 70.0453C71.5766 70.0009 71.5766 69.9565 71.5717 69.9122C72.4246 69.853 73.2873 69.853 74.1254 69.715C74.7219 69.6164 75.1804 69.217 75.0966 68.517C75.0227 67.9106 74.5297 67.5754 74.012 67.6148C72.3112 67.7479 70.6153 67.9648 68.9243 68.1916C68.4313 68.2557 68.1109 68.6205 68.1306 69.1529" fill="#264964"/>
<path d="M77.2905 42.5066C76.4179 42.4622 75.6241 42.1417 74.8353 41.7868C74.3374 41.56 73.7902 41.5008 73.4549 42.0382C73.1394 42.546 73.3711 43.0488 73.7507 43.4383C74.6874 44.4046 75.9002 44.6856 77.2609 44.7645C78.0053 44.7102 78.9617 44.7004 79.0159 43.6454C79.0751 42.5016 78.1088 42.5559 77.2905 42.5115" fill="#264964"/>
<path d="M57.408 48.3683C58.6552 48.0675 59.6955 47.3773 60.0603 45.9427C60.1934 45.4152 60.0899 44.9173 59.5426 44.6314C59.0595 44.3799 58.6454 44.5574 58.3299 44.9272C57.8369 45.4941 57.2601 45.9181 56.5797 46.2435C56.0226 46.5097 55.6874 46.9731 55.9142 47.6288C56.136 48.2845 56.6833 48.3929 57.408 48.3633" fill="#264964"/>
<path d="M66.0206 58.5092C66.3361 57.962 66.415 57.4443 66.2276 57.0943C66.0798 56.8182 65.7938 56.6457 65.4487 56.6358C65.429 56.6358 65.4093 56.6358 65.3896 56.6358C65.3452 56.6358 65.3057 56.6457 65.2663 56.6555C65.0149 56.7196 64.8916 56.8971 64.798 57.0302L64.3838 57.6169C64.2655 57.7796 64.1472 57.9472 64.0387 58.1148C63.95 58.2528 63.8662 58.3958 63.7775 58.5486C63.7134 58.662 63.6444 58.7754 63.5605 58.9134C63.4028 59.1649 63.2401 59.4212 63.1809 59.7417C63.0873 60.2149 63.2598 60.703 63.6493 61.0826C64.0585 61.4819 64.6451 61.6446 65.0592 61.7087C65.3304 61.7482 65.5917 61.758 65.853 61.7679C65.853 61.7679 66.0699 61.7728 66.1389 61.7728C66.2375 61.7728 66.3312 61.7728 66.415 61.763C66.5678 61.7531 66.7009 61.7284 66.8291 61.6989C66.8735 61.689 66.9178 61.6742 66.9622 61.6594C67.6327 61.4376 67.6327 61.0925 67.5735 60.9002C67.5094 60.7277 67.3418 60.6291 67.1643 60.5354L67.1298 60.5157C66.977 60.4269 66.8094 60.3628 66.6861 60.3135C66.5875 60.2741 66.484 60.2445 66.3805 60.215C66.272 60.1854 66.1537 60.1459 66.0502 60.1016C65.8826 60.0227 65.7445 59.9142 65.6459 59.7811C65.5818 59.6924 65.5473 59.6184 65.5424 59.5494C65.5375 59.4212 65.6361 59.2536 65.7199 59.1106C65.8283 58.9233 65.9368 58.7162 66.0206 58.5141" fill="#264964"/>
<path d="M81.1901 48.1563C80.3766 48.0133 79.5484 47.9098 79.1836 47.8555C77.4088 47.8753 76.1171 47.9739 74.9537 48.6443C74.579 48.8613 74.2881 49.1571 74.3621 49.6303C74.4262 50.0642 74.7614 50.2269 75.1509 50.2121C75.9298 50.1776 75.846 50.8283 76.0678 51.2424C76.5263 52.0904 77.2362 52.5291 78.2173 52.4798C79.1491 52.4305 79.79 51.903 80.0808 51.0748C80.3076 50.429 80.4161 49.8275 81.3035 49.7782C81.6584 49.7585 81.9443 49.4183 81.9345 49.0092C81.9296 48.5408 81.6436 48.2401 81.1901 48.1563Z" fill="#264964"/>
<path d="M62.2196 52.5636C62.1161 52.0263 61.697 51.8587 61.1942 51.8291C59.8384 51.9721 58.5468 52.3122 57.4228 53.0912C56.9593 53.4116 56.8312 53.8799 57.0974 54.4124C57.3439 54.9004 57.7728 55.0631 58.2559 54.93C59.3701 54.6293 60.4843 54.3039 61.5688 53.9145C62.1703 53.6975 62.3379 53.1552 62.2245 52.5636" fill="#264964"/>
<path d="M30.1996 37.9168C28.0747 38.3112 26.6697 40.362 27.0641 42.4819C27.4585 44.6067 29.5094 46.0117 31.6292 45.6174C33.754 45.223 35.1591 43.1721 34.7647 41.0522C34.3703 38.9274 32.3194 37.5224 30.1996 37.9168ZM31.2694 43.6503C30.2291 43.8426 29.2284 43.1573 29.0361 42.1171C28.8438 41.0769 29.5291 40.0761 30.5693 39.8838C31.6095 39.6915 32.6103 40.3768 32.8026 41.417C32.9948 42.4572 32.3096 43.458 31.2694 43.6503Z" fill="#264964"/>
<path d="M41.9526 47.2689C41.6568 45.6716 40.1137 44.6166 38.5164 44.9124C36.9191 45.2082 35.8641 46.7512 36.1599 48.3485C36.4557 49.9459 37.9987 51.0009 39.596 50.7051C41.1933 50.4093 42.2484 48.8662 41.9526 47.2689ZM39.2608 48.8908C38.6643 48.9993 38.0924 48.6049 37.979 48.0133C37.8706 47.4168 38.265 46.8449 38.8565 46.7315C39.4531 46.6231 40.0249 47.0175 40.1383 47.6091C40.2468 48.2056 39.8524 48.7775 39.2608 48.8908Z" fill="#264964"/>
<path d="M104.287 25.868C103.986 25.3355 103.671 24.8179 103.34 24.315C97.1483 14.8101 86.4996 10.3189 75.1903 12.5719C61.8696 15.2291 43.6287 28.6485 50.1806 44.3701C50.2349 44.5032 50.2743 44.6708 50.3236 44.8335C50.3137 45.1589 50.4025 45.4941 50.4715 45.8096C51.773 51.6812 52.4928 57.6612 53.6908 63.5476C54.5732 67.8761 56.772 71.4404 60.43 74.1766C62.8555 75.9859 65.3501 77.667 68.1602 78.9241C71.0541 80.2158 73.8444 80.201 76.832 78.7713C84.3649 75.1675 90.6802 70.2178 95.9996 64.1195C96.2806 65.3421 97.1828 66.6683 97.7695 67.6197C98.4202 68.6747 99.1794 69.6607 100.027 70.5629C105.125 75.0738 111.84 76.3408 118.534 76.0056C117.825 75.3795 117.198 74.6449 116.656 73.9301C116.129 73.2349 115.65 72.5053 115.207 71.7461C115.044 71.5686 114.881 71.3813 114.733 71.1792C113.141 69.0445 112.648 66.3281 111.485 63.9716C110.02 61.0037 107.417 58.6817 104.312 57.6563C106.762 56.2217 108.694 53.2243 108.63 50.5966C108.601 49.369 107.871 48.0675 106.836 47.121C107.309 45.6716 107.935 43.6207 107.984 43.3151C108.295 41.486 108.231 39.5979 108.048 37.7491C107.639 33.5833 106.357 29.5013 104.287 25.863M106.579 51.908C105.909 54.0919 104.533 55.7533 102.256 56.5816C101.817 56.7393 101.28 56.7886 100.969 57.0795C100.619 57.1189 100.259 57.2225 99.8943 57.4049C99.3964 57.6514 98.9379 57.9472 98.5484 58.312C98.1146 58.6324 97.8188 59.0416 97.5378 59.4409C93.3917 65.2238 87.9342 69.7396 82.0528 73.8413C79.4547 75.6556 76.5017 76.819 73.5733 78.0219C73.1345 78.1994 72.7155 78.2142 72.257 78.1057C66.3361 76.75 61.6872 73.5702 58.1327 69.0642C56.7178 67.2697 55.9783 65.0463 55.5099 62.7341C54.4451 57.4739 53.9471 52.0953 52.404 46.9336C52.2364 46.3766 52.0491 45.8293 51.847 45.287C52.0442 44.9814 52.1033 44.5426 52.1773 44.1285C52.6653 41.3973 53.395 38.7351 54.4598 36.1962C55.4261 33.9038 56.9297 32.2227 58.7982 30.9606C57.7136 31.7099 64.369 37.1575 65.0099 37.5076C68.4017 39.3612 72.3556 40.2043 76.2059 39.8148C73.4845 37.2019 71.5569 33.7756 70.7336 30.0979C70.9949 31.2663 73.0951 33.0065 73.9085 33.8742C75.1459 35.1905 76.4819 36.423 77.956 37.4731C80.8104 39.4993 84.3008 40.8402 87.8504 40.4705C88.0378 40.4508 88.2251 40.4261 88.4174 40.4064C88.2793 40.2388 88.1462 40.0662 88.0131 39.9134C87.3771 39.1542 86.7954 38.3703 86.3024 37.4977C85.8143 36.6251 85.3805 35.718 84.922 34.8306C84.5276 34.0566 84.1628 33.2629 83.941 32.4149C83.8719 32.2128 83.8177 32.0107 83.7783 31.7987C83.7635 31.7149 83.7684 31.6508 83.7783 31.5966C83.7635 31.3895 83.7783 31.1824 83.8374 30.9803C83.8473 31 83.8572 31.0148 83.867 31.0395C86.3764 35.6884 90.6112 39.381 94.7622 42.5509C95.339 42.9897 95.9306 43.4284 96.3644 44.0053C96.7145 44.4687 96.9462 45.011 97.1532 45.5533C97.5772 46.6822 97.8829 47.8605 98.0603 49.0535C98.1639 49.7437 98.4252 50.636 99.1252 50.6558C99.3273 50.6558 99.5147 50.5818 99.6872 50.4734C100.003 50.4783 100.2 50.2269 100.368 49.9409C101.225 49.2113 102.108 48.3781 103.173 48.0232C103.814 47.8112 104.454 47.8309 105.066 48.0084C106.422 48.807 107.067 50.3156 106.574 51.9277" fill="#264964"/>
<path d="M32.4575 118.931C35.5683 110.407 38.6889 101.888 41.8441 93.3837C42.4061 91.8702 43.2935 90.4503 43.5449 88.8432C43.9147 86.4669 42.9731 84.2485 41.7997 82.2321C41.3955 81.537 40.9616 80.8616 40.513 80.196C40.094 79.5749 39.6946 78.7565 39.1671 78.229C38.4178 77.1395 38.2058 76.0647 38.7136 74.8569C40.9173 69.6459 43.2491 64.5287 48.046 61.0629C48.8989 60.4467 49.7715 60.3333 50.5948 60.7868C52.6456 61.9108 54.8888 62.6799 56.8114 64.0504C57.2354 64.3561 57.6347 64.6963 58.0242 65.0463C58.3249 65.3125 58.5418 65.6379 58.3446 66.0569C58.177 66.4168 57.827 66.4168 57.4918 66.4661C56.3283 66.6337 55.3571 66.1013 54.3514 65.6625C52.0688 64.6667 49.732 63.8286 47.2966 63.2912C46.7543 63.1729 46.0543 63.1039 45.8571 63.8434C45.6549 64.6075 46.3057 64.7899 46.8529 64.9822C48.4305 65.5442 49.9834 66.1851 51.5857 66.6485C54.8542 67.5951 56.2494 70.1094 57.0382 73.092C57.265 73.9498 56.8805 74.7731 55.7466 74.9407C55.0761 73.5751 55.0169 71.8792 53.676 71.0362C51.0878 69.4044 48.3763 67.9747 45.4232 67.0972C44.8464 66.9246 44.0823 66.7126 43.8506 67.5458C43.6287 68.3296 44.3337 68.6254 44.9155 68.8424C47.1684 69.6755 49.1601 71.0313 51.3441 72.0025C52.7442 72.6236 53.2471 73.8068 53.5133 75.1626C53.5922 75.5717 53.7154 76.0697 53.2865 76.3556C52.8576 76.6415 52.3548 76.5528 51.916 76.3359C51.6202 76.1929 51.3293 76.0007 51.0927 75.769C48.9186 73.6441 45.936 73.4913 43.2738 72.5793C42.6132 72.3525 41.8589 72.5053 41.6617 73.3385C41.4743 74.1421 42.0955 74.3836 42.7413 74.566C44.2598 74.9949 45.7585 75.483 47.2818 75.8873C48.4256 76.1929 49.5644 76.3704 50.3187 77.4994C50.7476 78.1403 51.5808 78.4311 52.3597 78.3966C52.6703 78.3818 52.9661 78.3473 53.2619 78.2931C53.0844 78.8255 52.9661 79.3826 52.897 79.9594C52.828 80.5362 53.4393 81.0391 53.9767 81.0391C54.6176 81.0391 54.9873 80.5411 55.0564 79.9594C55.155 79.1262 55.5001 78.367 55.9684 77.6867C56.0719 77.5339 56.1212 77.3564 56.1212 77.174C56.8657 76.7303 57.5706 76.2077 58.2658 75.6703C58.8229 75.2365 58.6947 74.4527 58.6552 73.7723C58.5517 71.9926 58.6552 70.1784 57.2699 68.5614C58.1524 68.4578 58.6552 68.3987 59.2665 68.3247C59.5722 69.9122 60.1392 71.3271 60.7505 72.7272C60.9378 73.1561 60.8984 73.5653 60.7258 73.9794C59.8877 75.9859 59.1187 78.0269 58.177 79.989C57.7038 80.975 57.1861 81.9412 56.5994 82.8681C55.9931 83.8196 55.2684 84.6626 54.5535 85.5401C54.2281 85.9345 53.9028 86.3338 53.6464 86.7775C53.0449 87.8227 52.8921 89.0207 52.7393 90.194C52.5667 91.4906 52.4484 92.797 52.3153 94.0985C52.0343 96.7952 51.7582 99.4968 51.5117 102.198C51.0039 107.75 50.9103 113.34 50.013 118.862C49.8503 119.862 49.9144 120.878 50.3532 121.977C49.027 122.771 47.5628 123.161 46.1184 123.501C41.9082 124.487 37.8015 124.6 34.1336 121.726C33.5026 121.233 32.7878 120.789 31.9497 121.356C31.6637 120.459 32.206 119.719 32.4821 118.955" fill="white"/>
<path d="M83.8769 52.0953C83.9705 52.1988 84.0691 52.3122 84.1727 52.4355C85.0157 53.456 86.0411 55.1174 85.0206 56.2118C84.5326 56.7295 83.941 56.7443 83.3099 56.5372C82.3092 56.2118 82.0774 55.3639 81.9197 54.4765C81.8556 54.1215 81.9493 53.806 82.3387 53.7173C82.7282 53.6285 82.9353 53.8849 83.0634 54.2103C83.1818 54.511 83.2557 54.8314 83.4036 55.1124C83.517 55.3294 83.7635 55.4723 84.0001 55.3589C84.4093 55.1617 84.0346 54.5652 83.8966 54.3138C83.5712 53.7271 83.2458 53.1454 82.8613 52.5982C82.6641 52.3172 82.4324 51.9869 82.7726 51.7157C83.162 51.4051 83.6254 51.8094 83.8818 52.1002" fill="#264964"/>
</g>
<defs>
<clipPath id="clip0_1_187">
<rect width="120" height="159.661" fill="white" transform="translate(27 12)"/>
</clipPath>
</defs>
</svg>
