<svg width="185" height="193" viewBox="0 0 185 193" fill="none" xmlns="http://www.w3.org/2000/svg">
<path d="M51.1517 184.105C44.1389 181.024 37.8336 176.128 31.717 171.623C21.6223 164.194 14.0906 153.745 8.00551 142.656C2.04618 131.769 -0.59542 121.884 0.112152 113.015C0.583867 106.962 -0.469629 100.721 1.16565 94.7774C2.83237 88.6304 3.79153 82.1236 6.32306 76.2111C14.7039 56.6907 28.9654 42.9889 49.139 35.1057C57.6142 31.7897 66.105 28.8022 74.5959 26.1275C79.4546 24.5947 86.6246 23.578 96.1218 23.0775C103.072 22.7177 110.226 23.6093 117.569 25.7834C127.617 28.7553 135.62 31.8523 141.611 35.0588C161.517 45.7105 175.087 61.3988 182.32 82.1236C183.499 85.5177 184.222 89.2091 184.458 93.1976C184.851 99.6575 185.04 105.898 184.993 111.952C184.946 116.91 184.348 121.493 183.2 125.7C177.367 147.066 165.087 166.165 146.297 177.473C137.35 182.854 126.988 187.265 115.195 190.69C111.044 191.895 107.113 191.988 102.915 192.661C101.264 192.927 99.5496 193.036 97.8043 192.989C91.5619 192.833 85.1152 193.349 79.2816 192.395C69.5643 190.815 60.1929 188.062 51.1517 184.105Z" fill="white"/>
<g clip-path="url(#clip0_1_160)">
<path d="M140.816 160.036C140.703 154.118 140.816 144.558 140.816 144.558C139.906 137.839 140.304 111.99 126.081 110.537C126.602 106.707 125.618 106.007 123.864 100.924C121.319 94.8068 124.278 96.2754 124.773 91.1378C124.811 89.6691 125.048 83.3049 125.182 79.6091C125.182 79.4853 126.306 78.7967 126.457 78.6569C128.028 77.2097 128.119 75.3322 127.797 73.3417C127.641 72.3949 126.575 71.604 125.742 71.292C125.026 71.0284 123.52 71.3458 123.477 70.2484C123.407 68.4085 123.918 66.687 124.009 64.8848C124.068 63.6367 124.122 62.3886 124.106 61.1405C124.074 58.2462 123.95 55.1582 123.009 52.3985C121.529 48.0732 120.163 42.8979 115.041 38.9707C109.92 35.0435 108.839 33.3381 105.03 32.4289C101.221 31.5198 100.021 31.2346 97.3474 31.5736C94.6737 31.9125 95.0718 32.4827 93.9313 32.5957C92.7908 32.7087 90.6605 32.0093 90.6605 32.0093C89.4931 31.6005 79.9602 33.3812 78.5668 35.291C76.7754 36.8134 71.6862 40.1811 69.7172 43.1884C67.7482 46.1956 66.7637 47.1801 65.8815 51.6829C65.4995 53.6304 64.9669 55.5402 64.6388 57.5038C64.3698 59.107 64.1761 60.7316 64.1223 62.3563C64.0739 63.6743 64.1331 64.9924 64.2568 66.305C64.3805 67.5962 64.4935 68.9303 64.7948 70.1946C64.8432 70.4044 64.897 70.6142 64.8916 70.824C63.8372 70.7594 62.7666 70.9262 61.922 71.6094C60.9967 72.3626 60.5609 73.5838 60.6309 74.7619C60.6416 74.9717 60.6739 75.1816 60.7116 75.3806C60.7116 75.4398 60.7008 75.499 60.7008 75.5635C60.6578 77.3872 62.0027 79.4746 63.7888 80.0287C64.0685 84.7037 64.6926 94.5378 64.6926 94.5378C66.6508 99.9336 62.2717 105.114 61.8413 109.768C61.9973 111.269 61.7391 111.22 60.3404 111.683C45.6053 116.842 48.4619 149.868 48.5265 162.15C48.7363 165.464 50.0812 168.681 51.1195 170.338C52.7926 175.142 59.5603 175.917 62.4654 175.363L62.7774 177.692L61.3733 190.77L128.851 191.443L126.425 180.64L126.312 175.632C134.484 176.783 141.015 170.026 140.821 160.041" fill="white"/>
<path d="M134.473 127.591C133.467 123.142 134.473 121.361 131.137 117.611C127.802 113.862 124.596 112.78 124.596 112.78L122.18 112.463C122.18 112.463 119.625 112.904 118.49 113.668C118.296 113.797 117.726 113.98 116.903 114.201C117.36 116.105 118.92 117.784 119.334 119.699C119.42 120.091 119.533 120.85 119.087 120.925C115.843 121.496 111.469 122.459 108.505 123.906C108.091 124.105 107.408 123.981 107.321 123.421C106.983 121.119 106.515 118.843 105.772 116.643C103.346 117.149 101.307 117.579 100.495 117.805C97.9769 118.504 92.8231 118.343 88.2288 117.897C86.7709 117.757 84.5652 117.353 82.1659 116.847C82.026 117.633 81.8969 118.418 81.7409 119.204C81.5203 120.344 81.3159 121.808 80.5197 122.711C79.9817 123.319 79.2501 123.4 78.5023 123.217C77.2166 122.9 76.0061 122.206 74.7473 121.786C73.4077 121.334 71.9821 121.221 70.6479 120.759C69.9216 120.506 69.5343 120.156 69.6311 119.338C69.7441 118.354 70.0777 117.337 70.3736 116.396C70.6049 115.664 70.8685 114.927 71.2612 114.271C70.4919 114.072 69.9163 113.916 69.5989 113.819C67.646 113.248 65.6878 112.554 65.3112 111.726C64.9347 110.897 64.0578 110.117 64.0578 110.117C64.0578 110.117 56.7521 113.313 55.1812 114.9C53.6103 116.487 53.379 116.272 52.2439 119.258C51.1142 122.243 49.7961 125.966 49.6078 130.039C49.4195 134.106 48.4566 147.512 48.7094 151.902C48.9623 156.286 47.6335 160.563 48.8278 163.043C50.0221 165.523 49.3657 168.31 51.1034 170.978C52.7442 173.496 56.6176 175.029 57.8765 175.217C59.1353 175.406 62.9119 175.277 62.9119 175.277C62.9119 175.277 62.6806 179.596 62.4923 182.97C62.304 186.337 60.7761 191.432 60.7761 191.432H123.859L121.309 176.6C121.309 176.6 124.515 176.6 127.162 175.772C129.803 174.943 132.386 173.168 133.704 170.876C135.027 168.59 136.157 162.866 136.286 157.082C136.41 151.299 135.468 132.034 134.462 127.585" fill="#F4F0BB"/>
<path d="M120.313 54.7655C119.797 51.4839 118.829 48.2668 117.177 45.3994C115.203 41.9672 112.325 39.1644 109.323 36.6305C106.315 34.0913 103.394 31.8533 99.3541 31.3315C97.5142 31.0948 95.5883 31.2992 93.8668 32.0308C93.7054 32.1008 93.5548 32.1922 93.4149 32.2998C93.1674 32.2783 92.9199 32.2568 92.6671 32.2407C92.3605 32.2191 92.0538 32.1976 91.7472 32.1815C91.4836 32.1707 91.2092 32.1492 90.951 32.1815C90.7627 31.8533 90.4184 31.6274 90.0364 31.622C83.2203 31.5736 76.6732 35.0004 71.9982 40.0897C66.9413 45.5877 64.2729 53.0655 63.9824 60.6402C63.9017 62.8028 64.0309 64.9547 64.3214 67.0959C64.4612 68.1126 64.5957 69.1886 64.8862 70.1731C65.2198 71.2974 66.0644 72.4863 67.3232 72.368C67.9365 72.3088 69.6903 72.5778 69.8732 71.9376C70.1853 70.824 70.2014 68.1449 70.2175 66.9829C71.9229 65.9607 72.5039 65.7778 74.1393 64.6427C78.2871 62.7221 82.1766 59.8171 85.7219 57.3048C90.4937 53.9209 95.8142 50.026 98.73 44.8292C98.843 44.6301 98.9076 44.4257 98.9398 44.2267C99.5639 44.146 100.236 44.458 100.753 44.7485C101.361 45.0928 101.947 45.5286 102.447 46.0181C102.474 46.045 102.501 46.0773 102.528 46.1096C102.738 46.1849 102.921 46.4001 103.007 46.5937C103.975 48.6649 105.035 50.6877 106.213 52.6513C108.317 56.1481 110.748 59.4782 113.594 62.4101C114.993 63.8519 116.537 65.0838 118.032 66.4126C118.856 67.1443 119.706 68.1879 120.738 68.6237C120.868 64.6588 120.991 60.6725 120.572 56.7291C120.502 56.0782 120.416 55.4219 120.313 54.7763" fill="#264964"/>
<path d="M65.7039 95.958C65.5641 96.9371 65.3973 97.9109 65.166 98.8685C64.7087 100.751 63.7834 102.279 62.9872 104.038C61.9596 106.303 61.4486 108.713 62.4331 111.097C62.6482 111.624 63.4767 111.973 63.9878 111.758C66.4894 110.709 68.9909 109.66 71.4979 108.611C72.2403 108.299 72.9827 107.992 73.7251 107.68C70.933 103.855 68.3884 99.8583 65.7093 95.9527" fill="#264964"/>
<path d="M122.794 109.612C123.063 109.671 123.331 109.735 123.595 109.811C123.17 108.132 122.794 106.448 122.293 104.792C122.024 103.893 121.712 103.011 121.325 102.161C121.099 101.666 120.792 101.182 120.556 100.698C119.915 101.542 119.297 102.408 118.683 103.269C117.919 104.34 117.048 105.378 116.429 106.535C116.354 106.68 116.289 106.82 116.225 106.96C118.269 108.17 120.572 108.789 122.794 109.606" fill="#264964"/>
<path d="M141.198 133.487C140.552 126.945 139.234 121.867 137.039 117.493C136.141 115.702 134.833 114.201 133.155 113.039C132.816 112.802 132.455 112.576 132.079 112.576C131.799 112.576 131.552 112.705 131.353 112.953C130.75 113.695 131.423 114.265 131.826 114.604L131.891 114.658C133.978 116.439 135.054 118.816 135.904 121.124C136.63 123.093 137.217 125.283 137.754 128C138.9 133.788 139.073 139.765 139.245 145.548L139.288 146.985L139.315 147.77C139.481 153.08 139.648 158.573 138.728 163.936C138.325 166.292 137.459 168.434 136.162 170.3C134.548 172.624 131.503 174.066 128.216 174.066C125.72 174.066 123.455 173.254 121.836 171.785C118.156 168.439 115.73 164.329 114.412 159.218C112.997 153.731 111.813 148.098 110.668 142.649C109.57 137.43 108.435 132.04 107.101 126.784C107.063 126.639 107.058 126.472 107.058 126.31C107.058 126.278 107.058 126.246 107.058 126.214C107.714 125.939 108.36 125.649 108.989 125.369C110.7 124.605 112.314 123.879 114.073 123.443C114.563 123.319 115.047 123.196 115.531 123.066C116.741 122.744 117.979 122.415 119.232 122.216C119.313 122.243 119.404 122.259 119.506 122.259C119.636 122.259 119.786 122.233 119.942 122.184C120.023 122.157 120.093 122.13 120.157 122.093C120.604 122.044 121.05 122.017 121.497 122.012C121.675 122.571 121.847 123.131 122.013 123.674C122.406 124.965 122.777 126.187 123.24 127.402C124.262 130.087 125.343 132.793 126.387 135.413C128.647 141.067 130.976 146.915 132.848 152.827C132.993 153.295 133.343 154.382 134.306 154.382C134.473 154.382 134.661 154.349 134.849 154.28C135.248 154.14 135.522 153.919 135.667 153.623C135.915 153.101 135.716 152.461 135.506 151.902C135.194 151.062 134.887 150.223 134.58 149.384C133.843 147.367 133.085 145.279 132.267 143.256C129.271 135.832 126.527 129.14 123.869 122.792C123.149 121.076 122.008 120.14 120.469 120.011C120.222 119.241 119.975 118.478 119.732 117.708C119.453 116.837 119.168 115.954 118.882 115.067C119.001 115.104 119.135 115.126 119.281 115.126C119.469 115.126 119.673 115.094 119.905 115.029C120.814 114.782 121.89 114.47 122.933 114.045C123.751 113.711 124.655 113.168 124.547 111.877C124.962 111.968 125.36 112.06 125.752 112.146C126.936 112.409 128.049 112.662 129.163 112.883C129.335 112.915 129.486 112.931 129.626 112.931C130.255 112.931 130.497 112.587 130.589 112.302C130.825 111.559 130.126 111.215 129.749 111.032C129.276 110.801 128.743 110.58 128.119 110.36C127.517 110.144 126.914 109.929 126.317 109.709C123.923 108.848 121.449 107.96 119.001 107.126C118.813 107.062 118.608 106.96 118.388 106.852C118.253 106.782 118.113 106.717 117.979 106.653C120.523 103.441 123.089 99.9444 124.558 95.7321C124.59 95.6352 124.628 95.5384 124.671 95.4362C124.886 94.8821 125.112 94.3118 124.676 93.6071L124.65 93.564L124.445 93.6609C123.482 94.1289 123.331 94.1988 122.729 95.3071C120.577 99.2612 118.011 103.07 115.095 106.642C114.686 107.142 114.342 107.707 114.579 108.439C115.138 110.144 115.622 111.903 116.096 113.603C116.693 115.772 117.317 118.004 118.092 120.161C114.95 120.554 111.943 121.356 109.108 122.545C109.054 122.136 108.978 121.689 108.86 121.135C108.01 117.079 107.251 112.662 106.541 107.637C105.81 102.473 107.128 97.9539 110.452 94.215C111.641 92.8754 112.4 91.2346 112.776 89.1903C112.927 88.3726 113.04 87.5334 113.153 86.721C113.234 86.1347 113.32 85.5267 113.417 84.9296L113.427 84.8489C113.6 83.7676 113.782 82.6486 114.466 81.7018C114.563 82.5679 114.557 83.4125 114.45 84.2087C114.304 85.3169 114.245 86.4521 114.191 87.5495C114.121 88.959 114.051 90.4169 113.782 91.8318C113.637 92.6064 113.938 93.1444 114.589 93.2682C114.67 93.2843 114.745 93.2897 114.821 93.2897C115.45 93.2897 115.682 92.7356 115.821 92.1922C115.891 91.9286 115.94 91.6327 115.983 91.24C116.413 87.0277 116.634 82.853 116.644 78.829C116.65 76.8439 117.274 75.3967 118.603 74.2831C118.63 74.3854 118.651 74.4714 118.673 74.5467C118.716 74.692 118.737 74.7781 118.726 74.8534C117.823 79.8996 117.419 84.5692 117.494 89.1311C117.505 89.8574 117.398 90.5998 117.29 91.3207C117.225 91.7403 117.166 92.1761 117.123 92.6064C117.053 93.3489 117.328 93.79 117.914 93.8868C117.989 93.8976 118.065 93.9083 118.135 93.9083C118.667 93.9083 118.995 93.5533 119.141 92.827C119.162 92.7087 119.189 92.5849 119.216 92.4666C119.329 91.9125 119.447 91.3422 119.474 90.7773L119.582 88.5232C119.781 84.2571 119.985 79.8458 120.098 75.499C120.141 73.8689 120.701 72.9866 121.976 72.5562C121.944 72.8037 121.9 73.0566 121.863 73.304C121.771 73.9066 121.675 74.536 121.642 75.1546C121.545 77.1667 121.346 79.211 121.158 81.1853C120.894 83.9397 120.62 86.7856 120.609 89.6046C120.609 90.1479 120.534 90.702 120.459 91.24C120.405 91.6327 120.351 92.0416 120.324 92.4451C120.287 93.0476 120.599 93.4726 121.142 93.5533C121.206 93.564 121.276 93.5694 121.336 93.5694C121.836 93.5694 122.196 93.2251 122.32 92.628L122.347 92.5042C122.487 91.8264 122.632 91.1216 122.67 90.4223C122.88 86.2745 123.089 81.7986 123.305 76.747C123.342 75.8217 123.38 74.9448 124.703 74.7297C123.972 80.2977 123.826 85.6505 123.724 91.5682V91.6435C123.708 92.3482 123.692 93.1444 124.606 93.2359C124.655 93.2359 124.703 93.2413 124.746 93.2413C125.037 93.2413 125.279 93.1444 125.467 92.9508C125.72 92.6925 125.86 92.2675 125.849 91.7834C125.806 89.6906 125.876 87.5657 125.946 85.5106C126.059 81.9815 126.183 78.3341 125.747 74.7512C125.677 74.1809 125.51 73.4224 124.838 73.4224C124.816 73.4224 124.795 73.4224 124.768 73.4224C124.703 73.4224 124.633 73.4278 124.569 73.4278C123.816 73.4278 123.229 73.1104 122.611 72.7714C122.428 72.6746 122.239 72.567 122.046 72.4756H122.03V72.4648C121.782 71.7009 121.395 71.3135 120.884 71.3135C120.523 71.3135 120.114 71.5126 119.668 71.8999C119.512 72.0344 119.388 72.2066 119.27 72.3787C119.028 72.723 118.796 73.0458 118.296 73.0835C117.107 73.1749 116.236 73.9012 115.703 75.2515C115.208 76.5103 114.584 77.8445 113.433 79.0818C111.813 80.8087 111.378 83.1973 111.103 85.2954C110.732 88.0714 110.033 91.2938 107.623 94.1397C105.121 97.0985 103.889 100.913 104.067 105.173C104.217 108.896 104.739 112.603 105.326 115.981C104.427 116.073 103.539 116.229 102.673 116.39C101.388 116.622 100.166 116.842 98.9129 116.858C97.455 116.874 95.981 116.885 94.5231 116.885C93.0652 116.885 91.7256 116.88 90.3377 116.864C89.1272 116.847 87.9437 116.643 86.6902 116.422C85.7219 116.25 84.732 116.078 83.7045 115.997C84.1402 113.378 84.5222 110.559 84.8719 107.438C85.469 102.139 84.307 97.6741 81.4127 94.1666C79.4922 91.8371 78.4485 89.1957 77.9213 85.3223C77.7545 84.0904 77.4048 82.9122 77.0013 81.6049C76.5602 80.1847 75.9415 79.1625 75.1023 78.4793C74.333 77.8553 74.021 77.1451 73.795 76.4619L73.7628 76.3651C73.3593 75.1493 72.9074 73.7721 71.514 73.3148C70.5457 72.9974 69.9163 72.6047 69.3352 71.9591C68.9479 71.5287 68.5444 71.2974 68.1732 71.2974C67.6729 71.2974 67.2425 71.7063 66.9682 72.4487C66.9467 72.4487 66.9305 72.4487 66.909 72.4487C66.5486 72.4487 66.3441 72.7069 66.1397 72.9597C65.9514 73.1911 65.7739 73.4116 65.4888 73.4116C65.4457 73.4116 65.3973 73.4062 65.3489 73.3955C65.1068 73.3417 64.8862 73.3148 64.6926 73.3148C63.5467 73.3148 63.3476 74.2293 63.2131 75.4183C62.8527 78.5869 62.9603 81.8094 63.0679 84.9296C63.1432 87.0815 63.2185 89.3087 63.1378 91.4982C63.1271 91.7565 63.1701 92.0308 63.2508 92.2998C63.4445 92.9292 63.8049 93.2682 64.2891 93.2682C64.3375 93.2682 64.3859 93.2682 64.4343 93.2574C65.01 93.1821 65.3435 92.7248 65.322 92.0308C65.3005 91.2777 65.2789 90.5245 65.2628 89.766C65.1391 85.134 65.0153 80.3407 64.4397 75.655C64.4289 75.5797 64.4074 75.499 64.3913 75.429C64.316 75.1547 64.2514 74.9179 64.6549 74.7081C65.3543 74.961 65.677 75.5043 65.7093 76.4619L65.7685 78.4524C65.86 81.4005 65.9514 84.4454 66.0967 87.4365C66.1558 88.6201 66.3065 89.8144 66.4571 90.971C66.5109 91.3745 66.5593 91.7834 66.6077 92.1868C66.6938 92.897 66.8821 93.5533 67.6675 93.5533C67.6675 93.5533 67.716 93.5533 67.7429 93.5533C68.071 93.5371 68.3239 93.4295 68.4853 93.2359C68.765 92.9023 68.7435 92.3697 68.6951 91.9394C68.5337 90.5353 68.4476 89.1096 68.3561 87.7217C68.3239 87.1729 68.2862 86.6242 68.2485 86.0701C68.0226 82.8315 67.6998 79.5499 67.3878 76.3705C67.2641 75.0901 67.1349 73.8097 67.0166 72.5294C68.3508 72.9974 68.9533 73.9335 68.9103 75.4667C68.8457 77.6562 68.9963 79.878 69.147 82.0299C69.303 84.3109 69.4644 86.6726 69.3675 89.0074C69.3299 89.8682 69.4966 90.7504 69.658 91.6058C69.7226 91.9501 69.7871 92.2998 69.8409 92.6495C69.9216 93.1875 70.1153 93.9083 70.8631 93.9083C70.933 93.9083 71.003 93.903 71.0783 93.8922C71.3795 93.8438 71.6055 93.7147 71.7454 93.5156C71.9337 93.2466 71.9767 92.8432 71.8745 92.3159C71.4979 90.4169 71.4925 88.4587 71.4818 86.565C71.4818 84.9027 71.471 83.1866 71.2128 81.5081C70.9707 79.9103 70.777 78.291 70.578 76.5749C70.4865 75.811 70.3951 75.0309 70.2928 74.2186C71.7131 75.3591 72.3587 76.7793 72.3748 78.8021C72.4071 82.3904 72.5254 87.1191 73.1226 91.8425C73.214 92.5903 73.4077 93.2789 74.177 93.2789C74.2416 93.2789 74.3115 93.2789 74.3814 93.2628C75.3498 93.1175 75.2637 92.2514 75.1991 91.5574C74.9463 88.8622 74.6827 86.0755 74.4567 83.3049C74.4514 83.2188 74.4406 83.1328 74.4298 83.0467C74.3814 82.5679 74.3276 82.0783 74.5751 81.4812C75.2852 82.8046 75.4896 83.9881 75.6026 85.0695C75.9792 88.6416 76.7216 92.3913 79.5836 95.6137C81.757 98.0561 82.7845 101.295 82.6393 105.243C82.5478 107.702 82.1282 110.16 81.7247 112.544C81.6118 113.211 81.4988 113.878 81.3912 114.55C81.1168 116.266 80.7779 118.004 80.4444 119.688C80.2668 120.597 80.0785 121.539 79.9064 122.469C77.1735 121.345 74.2039 120.57 70.9061 120.134C72.0036 116.923 72.9935 113.512 73.9295 109.73C73.9779 109.526 74.0425 109.327 74.1017 109.138C74.3707 108.261 74.6235 107.438 73.8004 106.47C71.0352 103.21 68.5767 99.5839 66.4894 95.6998L66.4463 95.6191C66.0106 94.8068 65.5587 93.9675 64.5096 93.5533L64.472 93.5371L64.4451 93.5694C63.8695 94.2473 64.1008 94.8498 64.3106 95.377C64.3483 95.4685 64.3859 95.5599 64.4128 95.6514C65.8384 99.7938 68.3615 103.285 71.089 106.76L70.3735 107.019C66.909 108.278 63.3207 109.585 59.8024 110.881L59.754 110.897C59.2052 111.097 58.3768 111.403 58.592 112.237C58.7157 112.721 59.0492 112.963 59.5764 112.963C59.8293 112.963 60.0929 112.909 60.3242 112.861L60.4264 112.84C61.4109 112.641 62.4008 112.398 63.4498 112.14C63.8264 112.049 64.2138 111.952 64.6172 111.855C64.4989 113.189 65.4296 113.711 66.328 114.093C67.2156 114.47 68.1302 114.739 68.9049 114.954L68.9856 114.975C69.2707 115.056 69.5989 115.147 69.9001 115.147C69.9701 115.147 70.0346 115.142 70.0992 115.131C69.7441 116.223 69.389 117.31 69.0394 118.386L68.5713 119.828C68.5498 119.903 68.5283 119.978 68.5068 120.054C67.4954 120.21 66.6884 120.678 66.0644 121.485C65.5425 122.157 65.2305 122.9 64.9293 123.615C64.4182 124.831 63.9071 126.041 63.3907 127.257C61.922 130.722 60.4049 134.31 58.9901 137.866C57.6666 141.196 56.397 144.607 55.1651 147.91C54.6594 149.276 54.1483 150.637 53.6372 152.004C53.4543 152.488 52.9701 153.774 54.2667 154.263C54.4765 154.344 54.6755 154.382 54.8584 154.382C55.7622 154.382 56.1173 153.408 56.311 152.881C56.3755 152.698 56.4293 152.515 56.4831 152.332C56.5315 152.16 56.5853 151.982 56.6445 151.816C57.1287 150.481 57.6075 149.115 58.0701 147.797C59.1461 144.741 60.2597 141.583 61.4916 138.533C61.8736 137.586 62.2609 136.645 62.6536 135.698C64.4612 131.308 66.3334 126.768 67.6353 121.964C68.0172 121.996 68.4046 122.039 68.7919 122.082C68.8834 122.136 68.9802 122.184 69.0878 122.216C69.1954 122.249 69.2976 122.265 69.3998 122.265C69.5128 122.265 69.615 122.243 69.7172 122.211C73.7359 122.797 77.8191 124.126 82.139 126.251C82.139 126.294 82.1282 126.343 82.1228 126.386C82.1013 126.563 82.0852 126.725 82.0475 126.886C80.7402 132.244 79.5728 137.726 78.4485 143.031C77.6362 146.861 76.7969 150.82 75.9093 154.699C74.5751 160.525 72.8643 166.599 67.9634 171.226C66.0644 173.022 63.5359 174.012 60.8461 174.012C57.1609 174.012 53.96 172.199 52.2708 169.16C50.3448 165.69 50.0221 161.903 49.8445 158.002C49.5433 151.509 49.6939 144.72 50.3018 137.834C50.3664 137.091 50.4255 136.344 50.4901 135.601C51.1034 128.037 51.7382 120.21 57.6935 114.238C58.097 113.829 58.1616 113.378 57.8603 112.996C57.6613 112.737 57.3977 112.603 57.0964 112.603C56.892 112.603 56.6875 112.667 56.4777 112.786C55.9021 113.125 55.4287 113.458 55.0252 113.803C51.7274 116.632 50.5923 120.726 49.5917 124.336C48.3759 128.72 47.7195 133.487 47.4613 139.792C47.4075 141.088 47.343 142.406 47.2838 143.681C46.9664 150.223 46.6382 156.986 47.6012 163.651C48.123 167.25 49.3281 170.187 51.1841 172.382C53.2338 174.803 56.0312 176.24 59.4957 176.659C60.0176 176.724 60.5502 176.767 61.115 176.815C61.3356 176.837 61.5669 176.853 61.8036 176.874C61.766 177.251 61.7391 177.617 61.7068 177.983C61.6315 178.87 61.5616 179.715 61.4378 180.554C60.9429 183.895 61.9973 177.606 61.454 180.882C60.4802 186.762 60.7654 183.814 60.1198 189.845C60.109 189.92 60.1037 190.001 60.0929 190.082C59.9961 190.899 59.8616 192.013 61.1527 192.244C61.2711 192.266 61.384 192.276 61.4916 192.276C62.5837 192.276 62.7828 191.217 62.9441 190.351C62.9979 190.071 63.0571 189.732 63.0948 189.398C63.7726 183.75 63.1862 186.929 64.1815 181.097C64.2837 180.495 64.3913 179.892 64.4989 179.284C65.1767 175.449 64.7464 177.81 64.8593 177.154C64.9723 176.498 64.7679 176.218 64.7679 176.218C66.1236 175.691 67.5115 175.266 69.0232 173.969C73.058 170.521 75.7479 166.19 77.2488 160.719C78.8305 154.957 80.0194 149.013 81.176 143.267C81.3374 142.455 81.5042 141.643 81.6656 140.83C81.8592 139.878 82.0637 138.915 82.2681 137.984C83.0912 134.17 83.9412 130.227 83.9197 126.203C83.9143 125.008 83.4032 124.164 82.3649 123.621C82.2896 123.583 82.2089 123.545 82.1336 123.502C82.2035 123.346 82.2627 123.179 82.3111 123.018C82.3595 122.867 82.3811 122.706 82.4026 122.555C82.4187 122.448 82.4349 122.335 82.4564 122.233C82.7684 120.834 83.0589 119.403 83.3279 117.913C86.3405 119.021 89.3801 119.225 93.0383 119.376C93.7699 119.408 94.4908 119.419 95.1848 119.419C99.0905 119.419 102.512 118.935 105.638 117.95C105.708 118.332 105.783 118.714 105.853 119.085L105.971 119.704C106.186 120.834 106.407 122.007 106.681 123.147C106.719 123.314 106.773 123.465 106.837 123.599C106.735 123.653 106.633 123.701 106.536 123.755C105.691 124.196 105.25 125.003 105.213 126.149C105.127 128.909 105.659 131.615 106.181 134.229C106.509 135.881 106.826 137.538 107.149 139.189C108.629 146.834 110.157 154.742 112.405 162.354C114.191 168.407 117.382 172.662 121.879 174.991C124.65 176.428 125.037 177.81 125.268 180.624C125.682 185.697 124.875 180.054 125.656 184.992C126.339 189.323 125.828 184.793 126.269 189.226C126.328 189.823 126.468 191.211 127.732 191.211C127.818 191.211 127.91 191.206 128.001 191.19C129.368 191.001 129.217 189.818 129.109 188.957L129.093 188.828C128.883 187.123 128.991 187.994 128.318 184.836C127.721 182.05 127.377 179.489 127.415 176.837C127.555 176.826 127.684 176.821 127.807 176.81C128.157 176.788 128.469 176.767 128.787 176.74C134.096 176.272 137.722 173.862 139.874 169.375C141.596 165.781 141.951 161.929 142.085 158.304C142.365 150.643 142.069 142.525 141.181 133.487M116.94 109.068C117.145 109.154 117.36 109.224 117.57 109.294C117.769 109.359 117.952 109.418 118.113 109.488C118.786 109.768 119.49 109.999 120.174 110.22C121.174 110.548 122.202 110.881 123.175 111.392C122.39 111.855 121.551 112.097 120.738 112.334C120.238 112.479 119.727 112.63 119.238 112.823C118.813 112.996 118.511 113.211 118.344 113.464C117.968 112.334 117.581 111.204 117.177 110.091C117.043 109.719 116.962 109.38 116.94 109.068ZM69.5451 112.678C69.2008 112.56 68.8457 112.458 68.5068 112.355C67.6675 112.113 66.8068 111.866 65.9568 111.339L69.0501 110.182C69.3783 110.058 69.7064 109.94 70.0346 109.822C70.7178 109.574 71.4172 109.316 72.1058 109.036C72.0789 109.241 72.0251 109.456 71.9444 109.692C71.5302 110.887 71.1213 112.092 70.7232 113.297C70.4273 112.979 69.9378 112.813 69.5504 112.678" fill="#264964"/>
<path d="M93.9743 76.7148C94.2918 76.1714 94.3724 75.6711 94.2057 75.343C94.0766 75.1009 93.8291 74.9502 93.5278 74.9395C93.2212 74.9395 93.0921 75.1278 92.9737 75.2892L92.5111 75.9401C92.382 76.123 92.2528 76.3005 92.1345 76.4888C92.0377 76.6395 91.9462 76.7955 91.8547 76.9515C91.7794 77.0806 91.7041 77.2151 91.6019 77.3765C91.4351 77.6401 91.2684 77.9091 91.2038 78.2265C91.1123 78.6838 91.2791 79.1572 91.6611 79.5284C92.0807 79.9372 92.6832 80.104 93.119 80.1739C93.4041 80.217 93.6946 80.2277 93.9743 80.2385H94.0658C94.1411 80.2385 94.2111 80.2439 94.2864 80.2439C94.6361 80.2439 94.905 80.2062 95.1418 80.1309C95.5667 79.991 95.7658 79.792 95.6905 79.5607C95.6421 79.4369 95.4968 79.3455 95.3354 79.2594L95.2978 79.2379C95.1364 79.1464 94.9588 79.0765 94.8297 79.0227C94.7275 78.9797 94.6145 78.9474 94.5069 78.9151C94.3671 78.8721 94.2326 78.8344 94.1088 78.7752C93.8937 78.673 93.7107 78.5278 93.5816 78.3556C93.4848 78.2265 93.431 78.0974 93.4256 77.979C93.4149 77.7746 93.544 77.5594 93.6516 77.3711C93.7699 77.1667 93.8829 76.9461 93.9851 76.7094" fill="#264964"/>
<path d="M105.751 69.3176C104.976 69.3176 104.293 69.635 103.927 70.1676L103.905 70.1945L103.636 70.9746L103.647 71.0338C103.857 72.2765 104.637 73.0243 105.729 73.0243C106.283 73.0243 106.875 72.8252 107.391 72.4702L107.434 72.4379L107.461 72.3895C108.048 71.3781 107.892 70.6787 107.655 70.2698C107.316 69.6835 106.584 69.3123 105.745 69.3123" fill="#264964"/>
<path d="M82.8437 73.0243C83.3978 73.0243 83.9896 72.8252 84.506 72.4702L84.5491 72.4379L84.576 72.3895C85.1624 71.3727 85.0064 70.6787 84.7697 70.2698C84.4307 69.6835 83.6991 69.3123 82.8599 69.3123C82.0852 69.3123 81.402 69.6297 81.0361 70.1623L81.02 70.1892L80.751 70.9692L80.7618 71.0284C80.9716 72.2711 81.7516 73.0189 82.8437 73.0189V73.0243Z" fill="#264964"/>
<path d="M82.7415 66.6063C83.1826 66.4879 83.6238 66.3212 84.0111 66.0791C84.4792 65.7886 84.8342 65.4496 85.1785 65.0246C85.5228 64.605 85.2807 63.9541 84.888 63.6743C84.4307 63.3515 83.8551 63.5667 83.5377 63.9648C83.5108 63.9917 83.4839 64.0186 83.4624 64.0509C83.4032 64.1101 83.344 64.1639 83.2849 64.2231C83.1558 64.336 83.0213 64.4383 82.8921 64.5458C82.8652 64.562 82.8383 64.5781 82.8114 64.5943C82.7415 64.6373 82.6716 64.675 82.5963 64.7126C82.5156 64.7557 82.4295 64.7933 82.3488 64.831C82.3111 64.8471 82.2735 64.8632 82.2358 64.8794C82.2197 64.8848 82.1551 64.9063 82.1497 64.9117C82.1497 64.9117 82.1497 64.9117 82.1444 64.9117C82.1067 64.9224 82.0637 64.9386 82.026 64.9493C81.9399 64.9762 81.8485 65.0031 81.757 65.0246C81.5903 65.0623 81.4181 65.0892 81.246 65.1107C81.2244 65.1107 81.2191 65.1107 81.2137 65.1161C81.1868 65.1161 81.1599 65.1161 81.1491 65.1161C81.0577 65.1161 80.9662 65.1161 80.8747 65.1107C80.7026 65.1 80.5304 65.0838 80.3637 65.0569C80.0194 65.0031 79.702 65.3098 79.6428 65.6218C79.5729 65.9876 79.7827 66.2674 80.1054 66.4126C80.9016 66.773 81.8969 66.8322 82.7361 66.6063" fill="#264964"/>
<path d="M108.327 65.0462C108.155 65.0731 107.989 65.0892 107.816 65.1C107.725 65.1054 107.633 65.1107 107.542 65.1053C107.531 65.1053 107.504 65.1053 107.477 65.1053C107.472 65.1053 107.461 65.1054 107.445 65.1C107.273 65.0785 107.101 65.0569 106.934 65.0193C106.843 64.9978 106.757 64.9762 106.665 64.9493C106.627 64.9386 106.584 64.9278 106.547 64.9117C106.547 64.9117 106.547 64.9117 106.541 64.9117C106.541 64.9117 106.477 64.8902 106.455 64.8794C106.418 64.8633 106.38 64.8471 106.342 64.831C106.256 64.7933 106.176 64.7557 106.095 64.7126C106.02 64.675 105.95 64.6373 105.88 64.5943C105.853 64.5781 105.826 64.562 105.799 64.5459C105.664 64.4383 105.53 64.3361 105.401 64.2231C105.342 64.1693 105.283 64.1101 105.223 64.0563C105.196 64.0294 105.17 64.0025 105.143 63.9756C104.825 63.5775 104.25 63.3677 103.792 63.6959C103.4 63.9756 103.163 64.6266 103.513 65.0462C103.862 65.4712 104.217 65.8047 104.691 66.0898C105.083 66.3265 105.525 66.4933 105.966 66.6117C106.805 66.8322 107.806 66.7623 108.596 66.4019C108.914 66.2566 109.124 65.9715 109.054 65.611C108.989 65.299 108.672 64.9924 108.333 65.0516" fill="#264964"/>
<path d="M90.6389 88.6685C90.8111 88.9859 91.1123 89.1688 91.4728 89.1688C91.6449 89.1688 91.8278 89.1258 92.0108 89.0504C92.7532 88.733 93.5063 88.5717 94.2487 88.5717C94.9911 88.5717 95.7658 88.733 96.5351 89.0558C96.7126 89.1311 96.8902 89.1688 97.0569 89.1688C97.5841 89.1688 97.9446 88.803 98.0038 88.2058L98.0145 88.0767L97.9553 87.9637C97.9553 87.9637 97.9284 87.91 97.9123 87.8777C97.8639 87.7755 97.7993 87.6302 97.6864 87.5065C97.5465 87.3558 97.369 87.216 97.1592 87.0869C96.4921 86.6888 95.443 86.4574 94.2702 86.4574C92.9522 86.4574 91.7848 86.7425 91.15 87.2267C90.8756 87.4312 90.2354 87.9153 90.6389 88.6685Z" fill="#264964"/>
<path d="M101.269 99.6055C100.263 100.057 99.2411 100.466 98.2028 100.832C97.525 101.069 96.8525 101.273 96.1801 101.515C95.7873 101.655 95.4215 101.741 95.0449 101.838C94.5339 101.973 94.0443 101.897 93.544 101.768C92.6671 101.542 91.801 101.273 90.9402 100.983C89.8965 100.628 88.869 100.235 87.8576 99.7938C86.8731 99.3634 85.9048 98.89 84.958 98.3735C84.038 97.8678 83.1396 97.3245 82.2735 96.7381C82.2466 96.7166 82.2197 96.7004 82.1874 96.6789C82.6124 97.7764 82.9621 98.9007 83.4355 99.9767C83.6453 100.09 83.8605 100.203 84.0757 100.31C84.9687 100.767 85.8833 101.182 86.814 101.569C87.7877 101.973 88.7776 102.333 89.7782 102.667C90.8272 103.011 91.8924 103.323 92.963 103.597C93.1889 103.656 93.4256 103.689 93.6516 103.764C93.8775 103.839 94.1304 103.861 94.3725 103.877C94.6845 103.893 94.9427 103.823 95.2278 103.732C95.5291 103.64 95.8411 103.576 96.1424 103.495C96.6804 103.35 97.2183 103.199 97.7509 103.038C98.7785 102.726 99.7952 102.387 100.796 102.005C101.753 101.639 102.695 101.246 103.62 100.811C104.39 100.45 105.148 100.057 105.89 99.6377C105.993 98.5188 106.294 97.3944 106.8 96.4852C105.944 97.0824 105.057 97.6365 104.147 98.1529C103.211 98.6801 102.254 99.1643 101.269 99.6055Z" fill="#264964"/>
<path d="M65.4941 62.4209C65.591 55.7231 67.0865 49.4557 70.6371 43.807C72.2941 41.1656 74.7204 39.3688 77.0444 37.4751C81.0577 34.2042 85.5712 32.4881 90.7196 32.8862C91.037 32.9131 91.3544 32.9131 91.6665 32.9077C92.043 32.897 92.4519 32.8701 92.5864 32.4289C92.737 31.9394 92.468 31.5682 92.1184 31.2938C91.4029 30.7397 90.5636 30.6698 89.7082 30.6698C80.8425 30.6698 74.3599 35.5223 69.2546 42.3868C64.8324 48.3314 63.1755 55.481 63.1378 63.6313C63.0302 65.5518 63.3584 67.8436 64.004 70.1461C62.0726 70.0977 60.4641 71.6148 59.9423 73.417C59.3236 75.5689 60.3404 77.7907 61.5562 79.523C62.3524 80.6527 64.2353 79.5714 63.4283 78.4309C62.6321 77.2958 61.8036 75.9401 61.9381 74.4929C62.0457 73.3255 62.9334 72.2388 64.1653 72.3249C64.3752 72.3411 64.5473 72.3034 64.6926 72.2281C64.9562 72.7876 65.3543 73.1964 66.1182 72.9436C67.2425 72.5724 66.9305 71.5771 66.64 70.7218C65.7201 68.0373 65.4457 65.2613 65.4888 62.4209" fill="#264964"/>
<path d="M123.993 72.2066C124.144 72.2927 124.337 72.3357 124.563 72.3196C125.795 72.2335 126.683 73.3202 126.791 74.4876C126.92 75.9347 126.097 77.2904 125.3 78.4255C124.493 79.5714 126.376 80.6527 127.173 79.5176C128.388 77.7854 129.411 75.5635 128.787 73.4117C128.265 71.5933 126.629 70.0708 124.676 70.1462C125.327 67.806 125.656 65.4389 125.532 63.1633C125.553 56.0943 123.8 49.7839 120.491 43.9146C117.914 39.3419 113.971 36.2701 109.769 33.6071C106.289 31.4014 102.383 30.3793 98.2512 30.7021C97.3044 30.7774 96.0456 30.971 96.1155 32.1761C96.1908 33.478 97.4766 32.8862 98.1921 32.8378C102.006 32.5796 105.605 33.4565 108.806 35.49C114.848 39.3311 119.641 44.1783 121.599 51.7637C123.245 58.1601 123.869 64.3952 121.997 70.781C121.761 71.5987 121.486 72.5186 122.487 72.906C123.294 73.218 123.713 72.7822 123.993 72.1958" fill="#264964"/>
<path d="M99.0098 45.4909C99.4832 44.8884 100.554 44.1029 99.8167 43.4251C98.999 42.6773 98.2297 43.7533 97.6057 44.3074C93.4525 47.971 89.294 51.6238 85.2054 55.3519C80.3475 59.7794 75.1561 63.7012 68.8941 66.0898C68.3723 66.2889 67.6837 66.5202 67.8935 67.2519C68.0602 67.8275 68.5982 67.892 69.3299 67.9136C69.2276 69.2908 69.1201 70.6734 69.0178 72.0506C68.9156 73.4385 71.0836 73.4116 71.1859 72.029C71.2935 70.598 71.4011 69.1617 71.5087 67.7307C71.5194 67.6231 71.5087 67.5208 71.4925 67.4294C71.5947 67.3971 71.7023 67.3648 71.8045 67.3272C74.2146 66.4987 76.3881 65.2237 78.4861 63.8304C83.9681 60.1829 88.5516 55.5133 93.4418 51.1934C95.4376 49.4289 97.369 47.589 99.0098 45.4963" fill="#264964"/>
<path d="M119.641 66.7515C118.565 65.767 117.441 64.8256 116.419 63.7927C111.819 59.1338 107.924 53.9747 104.874 48.2184C104.341 47.2178 103.717 46.2602 103.077 45.3133C102.851 44.9798 102.474 44.6893 102.001 44.9529C101.619 45.1681 101.614 45.5662 101.694 45.9159C101.813 46.4162 101.979 46.9057 102.178 47.3791C103.507 50.5317 105.073 53.5658 107.058 56.3633C109.888 60.3443 112.884 64.1961 116.833 67.2195C116.978 67.3271 117.118 67.4347 117.263 67.5423C117.263 67.6015 117.258 67.6607 117.263 67.7252C117.371 69.1562 117.478 70.5926 117.586 72.0236C117.688 73.4062 119.856 73.4385 119.754 72.0452C119.668 70.9047 119.582 69.7642 119.496 68.6237C119.905 68.7097 120.351 68.7474 120.835 68.7044C120.695 67.7252 120.163 67.2357 119.63 66.7515" fill="#264964"/>
<path d="M64.1331 96.7972C64.0793 99.0675 63.7726 101.123 62.6214 103.086C61.5078 104.985 60.9429 107.121 60.9321 109.38C60.9321 109.709 60.916 110.042 60.9321 110.37C60.9859 111.312 61.2011 112.269 62.2986 112.21C63.3476 112.156 63.4068 111.22 63.3315 110.338C63.1109 107.745 63.977 105.459 65.1767 103.274C65.9622 101.849 66.3172 100.353 66.3226 98.7016C65.5372 97.3675 64.9346 95.9365 64.3267 94.5055C64.2191 95.2532 64.1546 96.0172 64.1331 96.7972Z" fill="#264964"/>
<path d="M124.553 96.6628C124.537 96.0495 124.488 95.447 124.413 94.8552C124.198 95.1887 123.982 95.5223 123.767 95.8612C123.353 96.5175 122.944 97.1523 122.465 97.7656C122.428 97.8087 122.395 97.8571 122.358 97.9001C122.401 100.095 122.767 102.091 123.853 103.99C124.87 105.765 125.456 107.707 125.37 109.822C125.397 110.811 124.983 112.237 126.516 112.189C127.85 112.146 127.759 110.785 127.775 109.741C127.818 107.481 127.318 105.324 126.215 103.409C124.999 101.3 124.623 99.1052 124.553 96.6574" fill="#264964"/>
<path d="M141.94 60.8607C142.01 60.8016 142.08 60.7424 142.155 60.6832C144.495 58.7734 146.873 56.6377 149.864 53.7541C149.945 53.6788 150.031 53.6035 150.112 53.5282C150.402 53.2753 150.704 53.0117 150.811 52.6405C150.865 52.463 150.865 52.2747 150.816 52.081C150.612 51.2364 149.789 50.9567 149.186 50.8222C148.137 50.5855 147.094 50.3326 145.991 50.0636C145.657 49.983 145.313 49.9023 144.969 49.8162C145.851 48.9608 146.857 48.2668 147.825 47.589C149.385 46.5077 150.854 45.4855 151.887 43.8716L152 43.6941L151.828 43.565C151.408 43.2529 151.08 43.0055 150.601 43.2852C147.196 45.3026 144.183 47.3254 141.391 49.4665C141.095 49.6924 140.907 49.9453 140.832 50.2089C140.676 50.7415 140.993 51.2472 141.655 51.5269C142.435 51.8605 143.285 52.0326 144.103 52.1994L144.345 52.2478C145.114 52.4038 145.899 52.5329 146.728 52.6674C146.975 52.7051 147.223 52.7481 147.481 52.7912C146.513 53.8079 145.485 54.7601 144.495 55.6855C142.65 57.4016 140.74 59.1823 139.207 61.3557L139.003 61.6462L139.347 61.7161C140.627 61.969 141.327 61.3772 141.94 60.8554" fill="#264964"/>
<path d="M50.1781 54.8892C50.1135 54.8193 50.049 54.7547 49.9898 54.6848C47.9509 52.4576 45.6806 50.2035 42.6357 47.3845C42.555 47.3092 42.4743 47.2285 42.399 47.1478C42.017 46.7605 41.5867 46.3193 40.9142 46.5238C40.7851 46.5614 40.6667 46.6152 40.5591 46.6852C40.005 47.0456 39.8329 47.7342 39.7468 48.2238C39.5693 49.2836 39.3756 50.3326 39.1765 51.4516C39.112 51.7959 39.0528 52.1402 38.9883 52.4953C38.0845 51.6614 37.3313 50.6984 36.605 49.7677C35.4376 48.2722 34.3294 46.8627 32.6617 45.9212L32.4734 45.819L32.3551 45.9966C32.0646 46.4323 31.8386 46.7766 32.1453 47.2393C34.3509 50.5263 36.5459 53.4152 38.843 56.0781C39.311 56.6215 39.8705 56.7721 40.3332 56.4709C40.5699 56.3149 40.7636 56.0513 40.8873 55.7016C41.1724 54.9054 41.2962 54.0446 41.4199 53.2161L41.4576 52.9741C41.5705 52.194 41.6512 51.4086 41.7427 50.5693C41.7696 50.3219 41.7965 50.0744 41.8234 49.8162C42.8939 50.7253 43.9053 51.6937 44.8844 52.6351C46.7028 54.3782 48.5857 56.1857 50.8452 57.5899L51.1464 57.7781L51.1948 57.4285C51.3724 56.1373 50.7429 55.4756 50.1835 54.8892" fill="#264964"/>
<path d="M48.2306 21.0724L50.8613 31.6596L50.8236 31.6919C50.4471 31.6704 50.092 31.7027 49.7692 31.7834C48.93 31.9932 48.3059 32.3859 47.8863 32.9615C47.4721 33.5372 47.343 34.1612 47.5097 34.8229C47.6389 35.3501 47.9563 35.7321 48.4619 35.9742C48.9676 36.2163 49.5433 36.2539 50.1942 36.0925C51.141 35.8558 51.8189 35.4039 52.2277 34.7368C52.6366 34.0698 52.7227 33.2574 52.4806 32.2944L50.3986 23.9182L57.9733 20.4429L59.684 27.3182L59.6518 27.3505C59.2752 27.329 58.9201 27.3612 58.5973 27.4419C57.7581 27.6517 57.1341 28.0445 56.7144 28.6201C56.3002 29.1957 56.1711 29.8198 56.3379 30.4815C56.467 31.0087 56.7844 31.3907 57.2901 31.6327C57.7958 31.8748 58.3714 31.9125 59.0223 31.7511C59.9692 31.5144 60.647 31.0625 61.0559 30.3954C61.4647 29.7283 61.5508 28.9106 61.3087 27.953L58.4359 16.392L48.2306 21.0777V21.0724Z" fill="#264964"/>
<path d="M127.883 32.2137C128.77 32.6172 129.583 32.6872 130.314 32.4128C131.051 32.1438 131.622 31.5574 132.03 30.659L135.855 22.2505C136.786 23.2727 137.416 24.2356 137.744 25.1448C138.072 26.054 138.11 26.7856 137.857 27.3451C137.631 27.84 137.303 28.2274 136.867 28.5125C136.431 28.7976 135.769 29.0236 134.876 29.2011L135.124 30.277C137.211 30.0027 138.572 29.1527 139.223 27.7324C139.546 27.0223 139.637 26.1831 139.498 25.2147C139.358 24.2464 139.105 23.3856 138.75 22.6217C138.395 21.8578 138.056 21.1315 137.738 20.4268C137.421 19.7274 137.281 19.2648 137.319 19.055L136.028 18.4686L131.159 29.1581H131.111C130.825 28.9106 130.535 28.7115 130.228 28.5771C129.443 28.2166 128.706 28.1359 128.023 28.3296C127.339 28.5233 126.855 28.9321 126.57 29.5508C126.344 30.0457 126.355 30.546 126.602 31.0463C126.85 31.5467 127.275 31.9394 127.883 32.2137Z" fill="#264964"/>
<path d="M100.452 18.6784C100.452 18.5869 100.452 18.4901 100.452 18.404C100.468 15.3806 100.333 12.1904 100.01 8.04805C99.9996 7.93508 99.9996 7.82748 99.9943 7.71451C99.9835 7.32717 99.9727 6.92907 99.7522 6.61166C99.65 6.46103 99.5047 6.3373 99.3272 6.25122C98.5471 5.86926 97.8047 6.33192 97.3152 6.7085C96.4652 7.36483 95.6044 8.01039 94.6952 8.69361C94.4209 8.90342 94.1411 9.11323 93.856 9.32842C93.7592 8.10185 93.856 6.88603 93.9582 5.70787C94.1142 3.81959 94.2595 2.03352 93.6785 0.2098L93.6139 0.00537109L93.4041 0.0537886C92.8984 0.177522 92.4949 0.274357 92.4089 0.823088C91.7956 4.73414 91.4405 8.34393 91.3221 11.8623C91.3114 12.2335 91.3813 12.5401 91.5373 12.7661C91.8494 13.2233 92.4411 13.304 93.0813 12.9705C93.8345 12.5778 94.5069 12.0344 95.1579 11.5072L95.3516 11.3512C95.9648 10.8563 96.5566 10.3344 97.1914 9.78032C97.3797 9.61893 97.568 9.45216 97.7617 9.28C97.9284 10.6787 98.0145 12.0721 98.0952 13.4278C98.2458 15.9455 98.4019 18.5493 99.1066 21.1154L99.1981 21.4543L99.4724 21.2284C100.478 20.3999 100.468 19.4853 100.457 18.6784" fill="#264964"/>
</g>
<defs>
<clipPath id="clip0_1_160">
<rect width="120" height="192.271" fill="white" transform="translate(32)"/>
</clipPath>
</defs>
</svg>
