<svg width="185" height="172" viewBox="0 0 185 172" fill="none" xmlns="http://www.w3.org/2000/svg">
<path d="M51.1517 162.105C44.1389 159.024 37.8336 154.128 31.717 149.623C21.6223 142.194 14.0906 131.745 8.00551 120.656C2.04618 109.769 -0.59542 99.8839 0.112152 91.0152C0.583867 84.962 -0.469629 78.7211 1.16565 72.7774C2.83237 66.6304 3.79153 60.1236 6.32306 54.2111C14.7039 34.6907 28.9654 20.9889 49.139 13.1057C57.6142 9.78971 66.105 6.80221 74.5959 4.12754C79.4546 2.59469 86.6246 1.578 96.1218 1.07748C103.072 0.717728 110.226 1.60928 117.569 3.78343C127.617 6.75529 135.62 9.85227 141.611 13.0588C161.517 23.7105 175.087 39.3988 182.32 60.1236C183.499 63.5177 184.222 67.2091 184.458 71.1976C184.851 77.6575 185.04 83.8984 184.993 89.9516C184.946 94.9099 184.348 99.4928 183.2 103.7C177.367 125.066 165.087 144.165 146.297 155.473C137.35 160.854 126.988 165.265 115.195 168.69C111.044 169.895 107.113 169.988 102.915 170.661C101.264 170.927 99.5496 171.036 97.8043 170.989C91.5619 170.833 85.1152 171.349 79.2816 170.395C69.5643 168.815 60.1929 166.062 51.1517 162.105Z" fill="white"/>
<g clip-path="url(#clip0_1_80)">
<path d="M54.88 50.262C54.88 50.262 54.3621 50.8206 53.9305 50.9526C53.4988 51.0796 52.8539 50.8663 51.559 52.3288C50.2692 53.7912 45.44 61.2457 44.7545 63.6578C44.0639 66.0698 43.8049 66.0292 44.2823 69.99C44.7545 73.9509 45.8057 80.8671 47.2986 83.7768C48.7915 86.6865 48.3345 86.7931 48.3345 86.7931C48.3345 86.7931 40.3214 111.564 39.3769 114.839C38.4273 118.114 35.543 128.367 35.1114 132.201C34.6798 136.034 34.9845 142.24 37.2238 145.337C39.4632 148.44 39.4226 148.699 42.2663 149.258C45.11 149.816 49.1165 150.334 51.9145 148.481C54.7125 146.627 56.5659 145.337 58.851 142.494C61.1361 139.65 65.5692 132.028 65.5692 132.028C65.5692 132.028 67.9407 136.811 68.7125 138.447C69.4894 140.082 71.5562 146.5 71.7288 150.035C71.9015 153.569 69.4894 171.692 69.4894 171.692H139.317C139.317 171.692 144.471 152.411 145.38 148.333C146.284 144.256 144.969 132.81 144.349 128.24M72.521 81.4206C71.5663 81.8167 70.5203 81.9081 69.5301 82.1874C68.4942 82.4768 67.4786 82.8374 66.4325 83.0964C65.5235 83.3198 64.9396 82.4007 65.295 81.6187C65.9856 80.1003 66.6965 78.582 67.3872 77.0637C67.7426 76.2766 68.6313 76.4696 69.0273 77.0332C69.7484 77.4953 70.439 78.0031 71.155 78.4601C71.7847 78.8613 72.4448 79.1914 72.9628 79.7398C73.5265 80.339 73.2116 81.1362 72.521 81.4206ZM144.339 128.24C143.72 123.67 136.641 94.0191 136.641 94.0191C136.641 94.0191 136.062 86.6053 132.563 83.5991C129.065 80.5929 119.386 76.5965 119.386 76.5965C119.386 76.5965 106.498 70.833 104.477 69.0201C102.461 67.2073 101.349 66.4253 102.05 64.5312L53.9305 50.9526" fill="white"/>
<path d="M111.764 46.0321C111.55 48.3781 110.52 50.3382 108.397 51.6585C107.991 51.9124 107.453 52.0749 107.204 52.4303C106.858 52.5471 106.518 52.7249 106.188 52.9838C105.736 53.3393 105.34 53.7354 105.025 54.1822C104.655 54.5936 104.446 55.0709 104.243 55.533C101.293 62.241 96.7481 67.9538 91.6904 73.3364C89.4561 75.713 86.7292 77.5156 84.0328 79.3488C83.6317 79.623 83.2102 79.7246 82.7227 79.7144C76.4666 79.6027 71.1042 77.3887 66.5696 73.6005C64.7618 72.0923 63.5431 70.0053 62.5834 67.776C60.3947 62.698 58.7495 57.3865 56.0988 52.5065C55.8144 51.9835 55.5046 51.4706 55.1847 50.9628C55.3218 50.6124 55.2812 50.1605 55.271 49.7288C55.1847 46.875 55.3523 44.0364 55.8906 41.2486C56.3781 38.735 57.5409 36.719 59.1557 35.0483C58.2214 36.0335 66.0872 40.1111 66.8083 40.3295C70.6218 41.4822 74.7858 41.4872 78.5841 40.2787C75.2885 38.2272 72.6175 35.1804 71.0078 31.6461C71.5206 32.7683 74.0038 34.0784 75.0092 34.7792C76.5377 35.8405 78.1424 36.8053 79.8536 37.5467C83.1645 38.9838 86.9679 39.5932 90.4616 38.4658C90.6495 38.4049 90.8323 38.344 91.0151 38.283C90.8373 38.1408 90.6698 37.9987 90.5022 37.8717C89.6999 37.237 88.9433 36.5717 88.2679 35.7999C87.5874 35.023 86.9628 34.2054 86.3128 33.4031C85.7492 32.7074 85.216 31.9812 84.8148 31.1789C84.7031 30.991 84.6016 30.7981 84.5203 30.5899C84.4848 30.5086 84.4746 30.4426 84.4797 30.3867C84.4188 30.1785 84.3934 29.9653 84.4086 29.752C84.4238 29.7672 84.434 29.7825 84.4543 29.8028C87.9683 33.9566 93.0209 36.7799 97.8754 39.0904C98.5508 39.4103 99.2364 39.7252 99.8 40.2177C100.252 40.6138 100.602 41.1064 100.922 41.6091C101.593 42.6603 102.146 43.7774 102.583 44.9454C102.837 45.6207 103.284 46.4637 103.994 46.3317C104.198 46.291 104.37 46.1742 104.523 46.027C104.842 45.966 104.985 45.6715 105.096 45.3465C105.807 44.4274 106.518 43.4017 107.513 42.8177C108.113 42.4673 108.763 42.3505 109.418 42.4013C110.951 42.9192 111.926 44.3005 111.769 46.0321" fill="white"/>
<path d="M103.923 20.2714C103.507 19.7991 103.075 19.3421 102.639 18.9054C94.3818 10.6435 82.6973 8.37362 71.7745 13.0454C58.912 18.5499 43.3733 35.9472 53.316 50.4042C53.4024 50.5261 53.4785 50.6835 53.5598 50.8409C53.6156 51.171 53.7781 51.4858 53.9152 51.7956C56.4695 57.4372 58.4702 63.3125 60.9279 68.9897C62.7357 73.1638 65.7063 76.2918 69.9769 78.2723C72.8054 79.5824 75.6795 80.7452 78.7771 81.4155C81.9661 82.1062 84.7793 81.4917 87.4859 79.4199C94.3107 74.1895 99.6274 67.8573 103.695 60.5856C104.238 61.7586 105.426 62.9012 106.219 63.739C107.097 64.6632 108.072 65.496 109.118 66.2272C115.217 69.6904 122.25 69.5432 128.927 67.7862C128.079 67.3038 127.292 66.6995 126.592 66.0901C125.916 65.5011 125.276 64.8663 124.667 64.1961C124.464 64.0488 124.261 63.8965 124.073 63.7289C122.016 61.916 120.94 59.2806 119.269 57.1529C117.162 54.4717 114.049 52.6842 110.697 52.3085C112.866 50.3433 114.171 46.9105 113.551 44.2751C113.262 43.0411 112.251 41.8884 111.007 41.1572C111.175 39.5932 111.373 37.3944 111.358 37.0745C111.286 35.1651 110.814 33.2761 110.24 31.4531C108.94 27.3399 106.782 23.501 103.923 20.2714ZM111.764 46.0321C111.551 48.3781 110.52 50.3382 108.397 51.6585C107.991 51.9124 107.453 52.0749 107.204 52.4303C106.858 52.5471 106.518 52.7249 106.188 52.9838C105.736 53.3393 105.34 53.7354 105.025 54.1822C104.655 54.5936 104.446 55.0709 104.243 55.533C101.293 62.241 96.7481 67.9538 91.6905 73.3364C89.4561 75.7129 86.7292 77.5156 84.0328 79.3488C83.6317 79.623 83.2102 79.7246 82.7227 79.7144C76.4666 79.6027 71.1042 77.3887 66.5696 73.6005C64.7618 72.0923 63.5431 70.0053 62.5834 67.776C60.3948 62.698 58.7495 57.3865 56.0988 52.5065C55.8144 51.9835 55.5046 51.4706 55.1847 50.9628C55.3218 50.6124 55.2812 50.1605 55.2711 49.7288C55.1847 46.875 55.3523 44.0364 55.8906 41.2486C56.3781 38.735 57.5409 36.719 59.1557 35.0483C58.2214 36.0335 66.0872 40.1111 66.8083 40.3295C70.6218 41.4822 74.7858 41.4872 78.5841 40.2787C75.2885 38.2272 72.6175 35.1804 71.0078 31.6461C71.5206 32.7683 74.0038 34.0784 75.0092 34.7792C76.5377 35.8405 78.1424 36.8053 79.8536 37.5467C83.1645 38.9838 86.9679 39.5932 90.4616 38.4658C90.6495 38.4049 90.8323 38.344 91.0151 38.283C90.8373 38.1408 90.6698 37.9987 90.5022 37.8717C89.6999 37.237 88.9433 36.5717 88.2679 35.7999C87.5874 35.023 86.9628 34.2054 86.3129 33.4031C85.7492 32.7074 85.216 31.9812 84.8148 31.1789C84.7031 30.991 84.6016 30.7981 84.5203 30.5899C84.4848 30.5086 84.4746 30.4426 84.4797 30.3867C84.4188 30.1785 84.3934 29.9653 84.4086 29.752C84.4238 29.7672 84.434 29.7825 84.4543 29.8028C87.9683 33.9566 93.0209 36.7799 97.8755 39.0904C98.5508 39.4103 99.2364 39.7252 99.8 40.2177C100.252 40.6138 100.602 41.1064 100.922 41.6091C101.593 42.6603 102.146 43.7774 102.583 44.9454C102.837 45.6207 103.284 46.4637 103.994 46.3317C104.198 46.291 104.37 46.1742 104.523 46.027C104.842 45.966 104.985 45.6715 105.096 45.3465C105.807 44.4274 106.518 43.4016 107.513 42.8177C108.113 42.4673 108.763 42.3505 109.418 42.4013C110.951 42.9192 111.926 44.3005 111.769 46.0321" fill="#264964"/>
<path d="M84.632 81.187L110.052 67.9538L84.632 81.187Z" fill="#264964"/>
<path d="M103.923 20.2714C103.507 19.7991 103.075 19.3421 102.639 18.9054C94.3818 10.6435 82.6973 8.37362 71.7745 13.0454C58.912 18.5499 43.3733 35.9472 53.316 50.4042C53.4024 50.5261 53.4785 50.6835 53.5598 50.8409C53.6156 51.171 53.7781 51.4858 53.9152 51.7956C56.4695 57.4372 58.4702 63.3125 60.9279 68.9897C62.7357 73.1638 65.7063 76.2918 69.9769 78.2723C72.8054 79.5824 75.6795 80.7452 78.7771 81.4155C81.9661 82.1062 84.7793 81.4917 87.4859 79.4199C94.3107 74.1895 99.6274 67.8573 103.695 60.5856C104.238 61.7586 105.426 62.9012 106.219 63.739C107.097 64.6632 108.072 65.496 109.118 66.2272C115.217 69.6904 122.25 69.5432 128.927 67.7862C128.079 67.3038 127.292 66.6995 126.592 66.0901C125.916 65.5011 125.276 64.8663 124.667 64.1961C124.464 64.0488 124.261 63.8965 124.073 63.7289C122.016 61.916 120.94 59.2806 119.269 57.1529C117.162 54.4717 114.049 52.6842 110.697 52.3085C112.866 50.3433 114.171 46.9105 113.551 44.2751C113.262 43.0411 112.251 41.8884 111.007 41.1572C111.175 39.5932 111.373 37.3944 111.358 37.0745C111.286 35.1651 110.814 33.2761 110.24 31.4531C108.94 27.3399 106.782 23.501 103.923 20.2714ZM111.764 46.0321C111.551 48.3781 110.52 50.3382 108.397 51.6585C107.991 51.9124 107.453 52.0749 107.204 52.4303C106.858 52.5471 106.518 52.7249 106.188 52.9838C105.736 53.3393 105.34 53.7354 105.025 54.1822C104.655 54.5936 104.446 55.0709 104.243 55.533C101.293 62.241 96.7481 67.9538 91.6905 73.3364C89.4561 75.7129 86.7292 77.5156 84.0328 79.3488C83.6317 79.623 83.2102 79.7246 82.7227 79.7144C76.4666 79.6027 71.1042 77.3887 66.5696 73.6005C64.7618 72.0923 63.5431 70.0053 62.5834 67.776C60.3948 62.698 58.7495 57.3865 56.0988 52.5065C55.8144 51.9835 55.5046 51.4706 55.1847 50.9628C55.3218 50.6124 55.2812 50.1605 55.2711 49.7288C55.1847 46.875 55.3523 44.0364 55.8906 41.2486C56.3781 38.735 57.5409 36.719 59.1557 35.0483C58.2214 36.0335 66.0872 40.1111 66.8083 40.3295C70.6218 41.4822 74.7858 41.4872 78.5841 40.2787C75.2885 38.2272 72.6175 35.1804 71.0078 31.6461C71.5206 32.7683 74.0038 34.0784 75.0092 34.7792C76.5377 35.8405 78.1424 36.8053 79.8536 37.5467C83.1645 38.9838 86.9679 39.5932 90.4616 38.4658C90.6495 38.4049 90.8323 38.344 91.0151 38.283C90.8373 38.1408 90.6698 37.9987 90.5022 37.8717C89.6999 37.237 88.9433 36.5717 88.2679 35.7999C87.5874 35.023 86.9628 34.2054 86.3129 33.4031C85.7492 32.7074 85.216 31.9812 84.8148 31.1789C84.7031 30.991 84.6016 30.7981 84.5203 30.5899C84.4848 30.5086 84.4746 30.4426 84.4797 30.3867C84.4188 30.1785 84.3934 29.9653 84.4086 29.752C84.4238 29.7672 84.434 29.7825 84.4543 29.8028C87.9683 33.9566 93.0209 36.7799 97.8755 39.0904C98.5508 39.4103 99.2364 39.7252 99.8 40.2177C100.252 40.6138 100.602 41.1064 100.922 41.6091C101.593 42.6603 102.146 43.7774 102.583 44.9454C102.837 45.6207 103.284 46.4637 103.994 46.3317C104.198 46.291 104.37 46.1742 104.523 46.027C104.842 45.966 104.985 45.6715 105.096 45.3465C105.807 44.4274 106.518 43.4016 107.513 42.8177C108.113 42.4673 108.763 42.3505 109.418 42.4013C110.951 42.9192 111.926 44.3005 111.769 46.0321" fill="#264964"/>
<path d="M141.694 146.744C141.044 136.156 135.463 87.2857 125.495 81.0144C124.042 80.2577 122.747 78.9984 121.168 78.3789C119.711 77.9117 112.825 74.3063 112.419 76.952C105.396 81.3749 100.663 86.6611 92.3912 88.2759C86.9222 89.0935 70.1496 88.0626 66.6508 82.5987C64.2185 84.6248 61.2834 85.2037 59.9073 88.0017C59.4096 89.9974 58.9374 95.38 59.0694 97.462C59.7397 103.891 58.8256 109.532 58.851 116.55C58.8713 121.43 59.2319 128.864 56.6878 132.835C55.3523 134.135 53.25 133.815 51.7266 134.861C46.5217 136.71 40.2808 134.049 36.7617 129.91C36.711 129.9 36.6602 129.885 36.6094 129.875C35.2587 134.222 35.5836 138.975 36.7008 143.352C38.2801 145.403 39.2347 147.607 41.7737 148.775C46.3236 150.999 51.884 149.4 55.5148 146.114C57.6526 144.291 58.8612 142.611 60.0647 140.204C60.5776 139.31 61.5678 138.355 61.8369 137.334C62.5986 135.004 64.6552 130.591 66.6813 134.729C67.0368 135.344 67.7883 136.69 67.5852 137.279C70.2308 142.524 70.7996 148.729 70.5253 154.579C70.373 161.562 70.175 164.801 68.7328 171.697H121.356C121.356 171.697 124.169 159.86 123.707 161.993C123.413 163.344 124.875 159.642 126.84 159.81C129.4 159.911 129.476 159.708 131.923 160.617C133.3 160.876 135.28 163.11 136.468 162.501C137.052 162.851 137.611 163.227 138.103 163.628C139.302 160.064 141.831 149.948 141.688 146.754" fill="#F4F0BB"/>
<path d="M145.451 127.336C144.227 119.12 142.46 110.985 140.495 102.911C139.733 99.7725 138.51 96.7105 138.098 93.5367C137.149 86.2041 132.182 79.9226 125.154 77.6984C121.224 76.4543 117.223 75.393 113.566 73.3822C108.971 70.8533 104.284 68.4616 101.308 63.8507C101.003 64.7343 100.567 65.5976 100.029 66.3999C100.171 66.6284 100.333 66.8468 100.511 67.06C102.75 69.7361 105.447 71.8283 108.549 73.4279C110.504 74.4333 112.48 75.3829 114.486 76.2665C109.474 79.1965 104.99 83.005 99.7086 85.4678C96.7481 86.849 93.6099 87.5447 90.3549 87.7427C87.1863 87.9306 83.9516 87.8849 80.8083 87.3924C77.2842 86.8439 73.887 85.7522 70.8554 83.853C69.6012 83.0659 68.4484 85.0514 69.6976 85.8334C75.2936 89.3474 82.0524 90.2716 88.5472 90.1091C92.0764 90.0228 95.5853 89.5911 98.891 88.2962C101.846 87.1385 104.568 85.5186 107.204 83.7717C110.23 81.7659 113.17 79.623 116.339 77.8406C116.603 77.6934 116.766 77.4903 116.842 77.2668C119.305 78.2773 121.808 79.1863 124.367 79.9734C128.547 81.2581 131.725 83.8022 133.614 87.8798C134.671 90.1599 135.407 92.5008 135.95 94.9433C139.287 109.918 142.897 124.822 143.948 140.234C144.456 147.622 142.516 154.346 140.292 161.287C135.945 159.129 131.7 156.524 126.647 158.22C126.327 158.271 126.008 158.327 125.688 158.398C125.49 158.444 125.327 158.515 125.195 158.611C125.835 154.341 126.388 150.222 127.125 146.14C127.338 144.967 127.506 143.88 127.231 142.712C126.241 138.482 125.581 134.191 124.911 129.9C123.9 123.411 122.839 116.936 121.549 110.497C121.361 109.563 121.361 108.451 120.082 107.857C119.228 109.075 119.609 110.32 119.746 111.462C121.036 121.918 122.372 132.368 124.433 142.707C124.672 143.91 124.845 145.099 124.616 146.328C123.575 151.898 122.123 160.043 121.102 165.614C120.818 167.178 120.539 168.803 120.33 170.377C120.234 171.118 120.508 171.779 121.346 171.931C122.169 172.078 122.641 171.591 122.89 170.875C123.042 170.428 123.144 169.895 123.23 169.427C123.646 167.208 124.428 162.77 124.89 160.226C125.144 160.734 125.672 161.105 126.383 160.952C131.096 159.926 135.686 161.77 139.525 164.41C139.606 164.781 139.612 165.182 139.54 165.594C139.368 166.594 138.982 167.564 138.713 168.544C138.565 169.077 138.398 169.6 138.22 170.118C138.205 170.26 138.195 170.407 138.185 170.55C138.144 171.189 138.469 171.687 139.099 171.885C139.733 172.088 140.307 171.86 140.607 171.306C140.952 170.661 141.211 169.956 141.414 169.25C142.613 165.187 144.456 157.87 145.634 153.797C146.238 151.705 146.7 149.583 146.858 147.409C147.35 140.655 146.431 133.963 145.446 127.336" fill="#264964"/>
<path d="M63.3095 118.388C62.9439 114.235 63.2537 110.025 63.2537 105.836C63.2537 104.937 63.2181 104.033 63.1318 103.139C63.0861 102.682 62.9744 102.113 62.3295 102.164C61.7963 102.205 61.7455 102.708 61.6846 103.129C60.3846 112.066 60.1104 120.958 63.0404 129.682C63.1064 129.875 63.1826 130.063 63.208 130.251C63.472 130.784 63.7259 131.322 63.9798 131.865C63.8884 131.901 63.8021 131.942 63.7208 131.992C63.0506 132.414 62.7205 133.171 62.3955 133.871C60.9076 137.126 58.9272 140.168 56.5355 142.875C53.8492 145.921 50.1931 148.699 46.0443 148.511C43.5256 148.394 41.1288 147.135 39.4886 145.292C35.8477 141.189 36.3098 135.146 37.2442 130.19C37.5438 128.6 37.9195 127.006 38.3055 125.401C39.8695 118.871 41.4335 112.341 43.2667 105.871C45.0084 99.742 47.8775 93.7246 49.2181 87.5345C49.3095 87.1131 49.9036 86.5342 49.279 86.1787C49.3755 85.8842 49.3298 85.5287 49.2587 85.2088C49.0708 84.3303 48.8271 83.4569 48.5427 82.5987C47.1209 78.2977 45.9986 73.9407 45.8514 69.3756C45.7854 67.4003 45.633 65.3995 46.4709 63.5359C48.4208 59.2044 51.0157 55.2791 54.1082 51.303C54.4281 52.3542 54.6211 53.1159 54.8953 53.8471C55.1339 54.4818 55.6011 54.8982 56.3273 54.6799C57.0788 54.4514 57.2007 53.8115 57.023 53.1717C56.4492 51.11 55.8246 49.0585 55.1949 47.0121C55.0629 46.5906 54.875 46.0828 54.3062 46.1793C53.6359 46.291 53.6715 46.8953 53.6969 47.3879C53.7477 48.3882 53.8594 49.3886 53.966 50.6226C52.4477 49.4902 51.5286 50.2569 50.7364 51.3335C48.6087 54.2381 46.6638 57.2544 44.9576 60.4485C43.6069 62.9723 43.1143 65.5823 43.1905 68.426C43.3327 73.5802 44.6225 78.4652 46.3287 83.2639C46.6486 84.1627 47.0904 85.0209 47.517 85.8791C47.6541 86.1533 47.8115 86.4478 48.04 86.6154C47.9638 86.7221 47.8876 86.8287 47.8064 86.9252C45.1201 90.0481 44.1858 95.2632 42.9264 99.0514C41.4081 103.632 40.0117 108.248 38.7422 112.894C37.6352 116.956 36.6551 121.044 35.7208 125.147C34.8016 129.169 33.7759 133.125 34.0247 137.289C34.3294 142.494 36.4774 147.942 41.7839 149.989C48.8575 152.716 55.332 148.724 59.5518 143.403C61.8166 140.544 63.5482 137.329 65.2493 134.125C66.3055 135.75 67.311 137.416 68.0778 139.203C70.9773 145.962 70.8148 153.046 70.0734 160.14C69.7586 163.136 68.875 166.975 68.3571 169.945C68.1996 170.859 68.2352 171.748 69.3422 171.936C70.3578 172.109 70.7285 171.301 70.8707 170.468C71.8152 164.893 73.1608 158.484 73.0847 152.746C72.9933 145.337 71.4039 138.523 67.1688 132.328C64.3302 128.174 63.7361 123.218 63.3095 118.383" fill="#264964"/>
<path d="M121.062 105.297C121.148 104.404 121.102 103.5 121.153 102.601C121.493 96.5581 123.012 91.0028 127.734 86.7728C128.196 86.3615 129.181 86.0061 128.541 85.1885C127.952 84.442 127.155 84.9854 126.551 85.3815C124.845 86.4986 123.509 87.9814 122.397 89.6978C119.767 93.7551 118.919 98.2847 118.675 103.002C118.675 103.743 118.65 104.485 118.685 105.226C118.716 105.912 118.975 106.521 119.751 106.587C120.615 106.658 120.996 106.054 121.067 105.302" fill="#264964"/>
<path d="M57.3327 122.603C57.0737 125.818 56.4136 129.001 56.6066 132.363C55.53 132.14 54.7023 132.429 53.8594 132.856C48.7864 135.42 43.9014 135.004 39.2855 131.723C38.4781 131.149 37.9703 131.17 37.4574 131.977L37.493 131.926C37.5996 132.185 37.6605 132.485 37.818 132.708C39.8238 135.517 45.6686 137.786 49.015 136.908C51.5997 136.233 54.3672 135.892 56.2714 133.714C58.1401 134.877 59.0694 134.41 59.2573 132.165C59.628 127.681 59.9225 123.187 60.2272 118.698C60.4912 114.849 60.4963 110.995 60.6588 107.141C60.8772 101.961 61.065 96.7612 60.6334 91.5766C60.5572 90.6473 60.8518 90.1345 61.4865 89.5149C62.5478 88.4689 63.4923 87.3517 64.3302 86.1635C64.6095 85.9299 64.904 85.7014 65.1985 85.4779C66.1989 84.5436 67.4227 83.9495 68.8344 83.5635C70.3476 83.1573 73.3233 81.9944 74.8975 81.4308C74.0038 80.1613 71.4699 80.2374 70.048 80.8113C69.266 81.1261 68.4434 81.3546 67.6207 81.5628C67.3059 81.644 67.0012 81.7355 66.7067 81.8421C67.0977 80.9027 67.4329 79.9226 67.702 78.9121C67.9051 78.1555 68.1133 77.282 67.052 76.9063C66.4325 77.1754 66.143 77.6984 65.945 78.2316C64.6907 81.644 62.4006 84.4065 60.2323 87.2146C59.0948 88.6872 58.6327 90.2614 58.6936 92.0235C58.8053 95.4359 58.5667 98.8585 58.3382 102.235C57.8811 109.014 57.8811 115.814 57.3276 122.588" fill="#264964"/>
<path d="M52.0567 66.2933C51.3051 66.7401 51.5539 67.5171 51.9196 68.096C54.2554 71.8385 55.2304 75.9669 55.4031 80.3339C55.4335 81.0804 55.7331 81.7152 56.5558 81.7405C57.5054 81.7659 57.7389 81.0601 57.7643 80.2476C57.7745 79.9074 57.7643 79.5672 57.7643 79.6281C57.4952 74.7989 56.5355 70.6045 53.6766 67.0753C53.2602 66.5624 52.8285 65.8312 52.0516 66.2933" fill="#264964"/>
<path d="M52.3614 65.2726C53.4176 63.0992 54.1387 60.809 54.6211 58.6509C54.6363 57.9704 54.5855 57.5134 54.0777 57.3306C53.6359 57.1732 53.3109 57.4322 53.1129 57.7876C51.9297 59.8899 51.0258 62.1191 50.2794 64.4144C50.0966 64.9831 50.32 65.5468 50.9446 65.7905C51.5489 66.0292 52.0922 65.8413 52.3664 65.2777" fill="#264964"/>
<path d="M86.6886 53.0854C85.6019 54.1264 84.5711 54.0959 83.4133 53.2022C82.9157 52.8163 82.2555 52.7807 81.8493 53.3647C81.4684 53.9182 81.697 54.5022 82.1133 54.9693C82.9258 55.8834 83.9008 56.4724 85.1906 56.3709C86.4296 56.2591 87.4097 55.6955 88.1003 54.6545C88.4151 54.1822 88.5218 53.6592 88.1003 53.1971C87.6839 52.7401 87.0999 52.6893 86.6835 53.0905" fill="#264964"/>
<path d="M74.3034 70.5182C74.3237 71.0818 74.7452 71.3916 75.2225 71.4322C76.0959 71.4982 76.9795 71.4423 77.8631 71.4373C77.8631 71.3916 77.8631 71.3459 77.858 71.3002C78.7365 71.2392 79.6251 71.2392 80.4935 71.097C81.1079 70.9955 81.5801 70.5842 81.4938 69.8631C81.4177 69.2385 80.9099 68.8932 80.3767 68.9338C78.6197 69.0709 76.8728 69.2944 75.126 69.5279C74.6182 69.599 74.2881 69.9748 74.3085 70.5182" fill="#264964"/>
<path d="M65.6911 56.0865C65.2696 56.5841 64.8075 56.5587 64.2692 56.3099C63.5786 55.99 62.7306 55.4873 62.2787 56.4572C61.781 57.5185 62.7357 58.0212 63.4771 58.4935C64.0356 58.8489 64.6806 58.9556 65.3407 58.9454C66.1379 58.8641 66.8235 58.5442 67.311 57.8993C67.7934 57.2595 68.1488 56.513 67.4988 55.8224C66.859 55.142 66.209 55.4873 65.6962 56.0865" fill="#264964"/>
<path d="M83.7637 46.5703C82.8649 46.5246 82.0422 46.1946 81.2297 45.8289C80.7118 45.5953 80.1481 45.5344 79.8079 46.0879C79.4829 46.6109 79.7216 47.1289 80.1126 47.5351C81.0825 48.5304 82.3317 48.825 83.7332 48.9011C84.5 48.8453 85.4851 48.8351 85.541 47.7433C85.6019 46.5652 84.6015 46.616 83.7637 46.5703Z" fill="#264964"/>
<path d="M65.8282 48.3832C65.3255 48.1242 64.904 48.307 64.5739 48.6878C64.0661 49.2769 63.4669 49.7085 62.7662 50.0437C62.1924 50.3179 61.847 50.7952 62.0756 51.4757C62.3041 52.151 62.8677 52.2627 63.6193 52.2374C64.9091 51.9276 65.9805 51.2167 66.3563 49.7339C66.4934 49.1855 66.3868 48.6777 65.8231 48.3832" fill="#264964"/>
<path d="M75.1717 61.0528C75.4967 60.4891 75.578 59.9559 75.385 59.5903C75.2327 59.3059 74.9381 59.1282 74.5827 59.1181C74.5624 59.1181 74.542 59.1181 74.5217 59.1181C74.476 59.1181 74.4354 59.1282 74.3948 59.1384C74.1358 59.2044 74.0089 59.3872 73.9124 59.5243L73.4858 60.1286C73.364 60.3012 73.2421 60.4688 73.1304 60.6465C73.039 60.7887 72.9526 60.936 72.8612 61.0934C72.7952 61.2102 72.7241 61.327 72.6378 61.4692C72.4753 61.7282 72.3077 61.9922 72.2417 62.3274C72.1452 62.8148 72.323 63.3176 72.7241 63.7086C73.1507 64.1199 73.7499 64.2875 74.1815 64.3535C74.4608 64.3992 74.7299 64.4043 74.9991 64.4144C74.9991 64.4144 75.2225 64.4195 75.2936 64.4195C75.3952 64.4195 75.4916 64.4195 75.578 64.4093C75.7354 64.3992 75.8725 64.3738 76.0045 64.3433C76.0502 64.3332 76.0959 64.3179 76.1416 64.3027C76.8322 64.0742 76.8322 63.7187 76.7713 63.5207C76.7002 63.3429 76.5326 63.2414 76.3498 63.1398L76.3143 63.1195C76.1569 63.0281 75.9842 62.9621 75.8522 62.9113C75.7506 62.8707 75.644 62.8402 75.5373 62.8098C75.4256 62.7793 75.2987 62.7387 75.1971 62.693C75.0245 62.6117 74.8823 62.4949 74.7756 62.3629C74.7096 62.2715 74.6741 62.1953 74.669 62.1242C74.6639 61.9922 74.7655 61.8196 74.8518 61.6672C74.9635 61.4743 75.0752 61.2559 75.1616 61.0528" fill="#264964"/>
<path d="M44.1554 17.6105C43.1855 16.6304 43.282 15.757 43.7999 14.4875C43.9218 14.193 43.998 13.8375 44.0284 13.4668C44.196 11.2274 43.6171 9.5923 42.2461 8.47514C41.789 8.09937 41.7586 7.86578 41.8906 7.25642C42.3019 5.38264 41.9769 3.47331 41.0172 2.14795C40.1488 0.944466 38.7879 0.213234 37.0716 0.0304258C36.6704 -0.0101982 36.2642 -4.22285e-05 35.8732 0.0101138C35.6954 0.0101138 35.5126 0.0202698 35.3349 0.0202698H35.3197L34.9642 0.0761278H34.9541C34.7408 0.142142 34.5224 0.198 34.3091 0.253858C33.842 0.37573 33.3596 0.507758 32.9025 0.68041C30.4448 1.61984 27.0324 3.3819 22.4165 8.74935C22.2997 8.88646 22.1981 9.05403 22.127 9.22668C21.8477 9.91221 22.0255 10.4708 22.6247 10.7501C22.843 10.8516 23.0563 10.8923 23.2594 10.8567C23.5895 10.8059 23.8688 10.5724 24.0516 10.1966C24.2039 9.8919 24.402 9.59737 24.6711 9.30793C26.6058 7.19548 28.5304 5.52482 30.5514 4.18931C32.1916 3.10769 33.7404 2.46279 35.2994 2.21904C35.5837 2.17334 35.8681 2.14287 36.1525 2.12256C37.7266 2.021 38.7778 2.4831 39.3668 3.52409C40.0625 4.75296 40.1793 5.96153 39.7121 7.12439C39.2094 6.98728 38.6864 6.96697 38.1227 7.0533C37.8637 7.09392 37.5946 7.15994 37.295 7.25134C34.7306 8.04351 32.5979 9.19114 30.7799 10.7653C29.3175 12.0297 28.3019 13.4973 27.7687 15.1222C27.4285 16.1531 27.5453 17.1077 28.0835 17.7425C28.6066 18.3569 29.4901 18.621 30.5006 18.4636C30.5616 18.4534 30.6276 18.4432 30.6936 18.428C31.0541 18.3569 31.3385 18.2808 31.5924 18.1893C33.6287 17.4683 35.472 16.1785 37.3915 14.1371C38.7727 12.6696 39.8442 11.3391 40.748 9.96807C41.2762 10.3083 41.525 10.7958 41.7078 11.2782C42.2562 12.7102 41.7992 14.0355 41.3117 15.4422C41.2711 15.564 41.2101 15.5945 41.1137 15.6097C41.0527 15.6199 40.9766 15.6199 40.8953 15.6199H40.8293C40.5094 15.625 40.1895 15.6503 39.8797 15.7011C37.3458 16.0972 35.7158 17.9354 34.5783 19.4893C34.04 20.2307 34.0197 21.1092 34.5326 21.9674C35.0556 22.8459 35.9138 22.856 36.6856 22.7545C36.7263 22.7494 36.8024 22.7392 36.8024 22.7392C38.7981 22.4244 40.0625 21.0838 41.1898 19.7381C41.4691 19.403 41.6824 19.0221 41.9058 18.6159C41.9668 18.5042 42.0277 18.3975 42.0937 18.2808C42.6777 19.0729 42.8605 19.8803 42.6777 20.8553C42.3222 22.7595 41.7027 25.1919 39.9965 27.1672C39.4938 27.7512 39.4887 28.3352 39.9863 28.7719C40.2402 28.9953 40.5145 29.0867 40.7937 29.041C41.073 28.9953 41.3473 28.8227 41.6265 28.5078C41.7484 28.3707 41.8652 28.2285 41.9465 28.1168C43.4394 26.1872 44.3483 23.8513 44.8104 20.7639C44.9577 19.7838 44.9628 18.4382 44.1402 17.6054M29.7288 15.9906C29.8253 15.4523 30.0893 14.975 30.3788 14.4926C31.9276 11.918 34.431 10.6282 36.904 9.61261C37.3052 9.45011 37.7622 9.26223 38.2192 9.19114C38.3969 9.16575 38.5696 9.15559 38.7321 9.16067C38.7168 9.19621 38.6915 9.23684 38.6458 9.2927L38.6254 9.32316C36.6349 12.0094 34.7966 14.1016 32.3287 15.5589C31.6229 15.9753 30.9018 16.2445 30.1147 16.3917H30.0792C29.9268 16.4222 29.8151 16.407 29.7643 16.3562C29.7085 16.3003 29.6983 16.1683 29.7288 15.9906ZM39.8746 17.9101C39.3973 19.0221 37.7368 20.378 36.5384 20.5659C36.5232 20.5659 36.5079 20.5659 36.4927 20.5709C36.8888 19.5401 38.5645 18.2046 39.8746 17.905" fill="#264964"/>
</g>
<defs>
<clipPath id="clip0_1_80">
<rect width="125" height="171.966" fill="white" transform="translate(22)"/>
</clipPath>
</defs>
</svg>
