<svg width="185" height="170" viewBox="0 0 185 170" fill="none" xmlns="http://www.w3.org/2000/svg">
<path d="M51.1518 161.105C44.139 158.024 37.8337 153.128 31.7172 148.623C21.6225 141.194 14.0908 130.745 8.00564 119.656C2.04631 108.769 -0.595298 98.8839 0.112274 90.0152C0.583989 83.962 -0.469507 77.7211 1.16577 71.7774C2.8325 65.6304 3.79165 59.1236 6.32319 53.2111C14.704 33.6907 28.9655 19.9889 49.1392 12.1057C57.6143 8.78971 66.1052 5.80221 74.596 3.12754C79.4547 1.59469 86.6248 0.578002 96.122 0.0774786C103.072 -0.282272 110.226 0.609284 117.569 2.78343C127.617 5.75529 135.62 8.85227 141.611 12.0588C161.517 22.7105 175.087 38.3988 182.32 59.1236C183.499 62.5177 184.223 66.2091 184.458 70.1976C184.852 76.6575 185.04 82.8984 184.993 88.9516C184.946 93.9099 184.348 98.4928 183.201 102.7C177.367 124.066 165.087 143.165 146.297 154.473C137.35 159.854 126.988 164.265 115.195 167.69C111.044 168.895 107.113 168.988 102.915 169.661C101.264 169.927 99.5498 170.036 97.8044 169.989C91.562 169.833 85.1153 170.349 79.2817 169.395C69.5644 167.815 60.193 165.062 51.1518 161.105Z" fill="white"/>
<g clip-path="url(#clip0_1_103)">
<path d="M89.3037 65.6094C89.3037 65.6094 85.7522 80.0599 78.0449 82.7223C70.3376 85.3846 56.5864 83.6164 53.0649 80.3896C53.0649 80.3896 41.7512 84.2557 39.0439 92.6324L37.4056 103.337L41.7562 123.137L45.4026 142.542L50.1279 151.359L56.8511 164.041L59.2587 166.319L77.1658 160.12L63.4545 139.89L57.3706 115.644L57.6803 108.941L65.2078 117.228L73.6343 127.253L85.7073 140.09L86.6314 159.965L87.3207 162.797L101.541 167.083L115.937 166.469L129.254 163.711L141.027 159.261L156.017 152.183C156.017 152.183 155.078 132.048 148.924 126.324L164.059 111.474C164.059 111.474 169.149 99.6653 166.427 97.0979C163.704 94.5305 120.183 62.4975 120.183 62.4975H114.099L96.6014 63.1568L91.7412 61.8681L89.3037 65.6044V65.6094Z" fill="#F4F0BB"/>
<path d="M51.8462 79.6903C49.5385 82.4226 46.6663 84.4955 43.8991 86.6983C38.959 90.6343 36.9111 97.1828 38.4046 103.342C39.0489 106.009 39.014 108.831 39.3636 111.578C40.2677 118.646 41.3516 125.694 42.8951 132.642C44.1389 138.247 45.4575 143.881 47.9251 149.136C48.7193 150.824 49.7383 152.383 50.8621 153.871C53.0499 156.763 56.7762 162.053 58.979 164.935C59.3636 165.435 59.7832 165.924 60.2577 166.334C60.6673 166.688 61.1968 166.688 61.6414 166.334C62.0859 165.979 62.1908 165.484 61.961 164.985C61.9111 164.875 61.8561 164.76 61.8012 164.65C61.4965 164.291 61.2068 163.926 60.9221 163.546C60.4026 162.847 59.7982 162.193 59.3536 161.443C59.1688 161.134 59.0539 160.814 58.999 160.489C61.2617 157.203 64.3686 154.316 68.4545 153.691C69.0689 153.596 69.3786 153.137 69.4236 152.652C70.5774 154.545 72.5604 157.857 73.5744 159.505C73.7892 159.85 74.029 160.25 74.2937 160.559C74.7133 161.059 75.2428 161.304 75.8522 160.934C76.4765 160.554 76.4965 159.94 76.1918 159.381C75.5425 158.187 74.8182 156.968 74.1139 155.804C71.5864 151.658 67.9251 145.589 65.3826 141.454C64.8232 140.539 64.5934 139.535 64.4186 138.501C62.9001 129.595 61.6314 123.002 59.4535 114.246C59.2138 113.287 59.1389 112.178 58.0799 111.464C57.2408 112.338 57.5804 113.222 57.7153 114.031C58.6593 119.575 58.9241 122.907 60.1079 128.412C60.8921 132.048 61.6763 135.684 62.1858 139.371C62.3257 140.385 62.7952 141.204 63.3247 142.078C65.1678 145.12 66.8711 148.242 68.6943 151.463C68.5594 151.429 68.4046 151.419 68.2348 151.444C67.955 151.483 67.6853 151.538 67.4106 151.598C62.8452 151.793 60.2477 155.18 57.4356 158.237C53.5295 153.367 49.9131 148.581 48.0549 142.517C44.1688 129.865 42.4855 116.838 40.5574 103.831C40.2428 101.713 40.1129 99.6104 40.2577 97.4625C40.5175 93.6214 42.2807 90.6094 45.2278 88.2967C47.036 86.8831 48.7592 85.3846 50.4176 83.8212" fill="#264964"/>
<path d="M87.5205 162.048C87.5205 162.048 89.2987 145.16 85.7423 140.27C82.7902 136.214 71.2467 120.01 66.8012 116.009C62.3556 112.008 54.0639 105.365 54.0639 105.365L56.2867 104.476C56.2867 104.476 64.5784 111.119 69.024 115.12C73.4695 119.121 85.018 135.325 87.965 139.381C91.5215 144.271 89.7433 161.159 89.7433 161.159L87.5205 162.048Z" fill="white"/>
<path d="M110.867 137.837L107.181 136.244C107.181 136.244 101.137 135.405 99.7483 133.971C98.3646 132.537 97.5555 130.954 100.997 131.214C104.439 131.474 106.082 131.498 110.602 131.104C115.123 130.709 120.902 129.94 120.902 129.94L122.011 129.5C122.011 129.5 123.759 133.292 126.387 136.114C129.014 138.936 130.857 140.395 130.857 140.395L130.438 140.954C130.438 140.954 117.69 151.993 115.423 153.357C113.155 154.72 109.084 155.01 106.596 155.534C104.109 156.054 97.7403 153.606 97.7403 153.606L97.051 152.932C96.2368 152.812 95.4775 152.677 94.9431 152.487C92.6454 151.673 92.7602 149.73 93.8292 148.966L93.1948 148.731C93 148.666 92.8302 148.606 92.6903 148.536C89.7932 147.188 91.2068 144.301 93.1748 144.74C93.2098 144.75 93.2448 144.755 93.2797 144.765L92.7902 144.231C91.3916 142.817 92.4955 140.999 94.1838 141.474C96.7363 141.773 97.5854 142.088 98.7043 142.173C99.8282 142.253 102.755 142.043 103.839 141.703C104.923 141.364 110.902 138.062 110.902 138.062L110.862 137.842L110.867 137.837Z" fill="white"/>
<path d="M78.7543 86.1139L78.1099 95.7942L71.6414 87.6773L70.0729 83.3766L77.8851 82.0579L78.7543 86.1139Z" fill="white"/>
<mask id="mask0_1_103" style="mask-type:luminance" maskUnits="userSpaceOnUse" x="38" y="16" width="57" height="66">
<path d="M48.6443 25.6094L47.1259 26.8232C47.1259 26.8232 43.025 25.5844 39.5534 31.3886C34.3037 39.975 45.2527 54.8502 45.6374 55.6444L46.4915 56.1039C46.9361 57.6923 47.4655 59.4106 48.0899 61.2637C52.96 75.7492 61.1668 82.7822 70.5125 81.6933C73.3896 81.3586 75.5974 80.3397 77.2807 79.0959L79.049 78.8412C79.049 78.8412 88.2048 77.003 89.7333 65.979L87.6454 62.018L87.7153 61.2687C88.02 61.4136 88.4096 61.4685 88.9091 61.3586C91.3367 60.8242 93.0649 58.0669 93.4246 54.8901L93.5894 54.2158C96.1868 45.3996 95.6673 32.0629 87.6603 24.6154C84.6434 21.8082 74.1289 16.049 64.3736 16.049C58.0749 16.049 52.0909 18.4515 48.6443 25.6094Z" fill="white"/>
</mask>
<g mask="url(#mask0_1_103)">
<path d="M96.1818 16.049H34.2987V87.6224H96.1818V16.049Z" fill="white"/>
</g>
<path d="M46.3716 57.9321C42.4106 42.7023 45.3476 38.8312 45.3476 38.8312L46.6513 34.9451C46.6513 34.9451 53.7792 49.6254 69.988 43.6214L70.7722 43.2118C72.96 45.2947 75.997 47.2028 80.1478 48.052L80.6224 49.061C80.6224 49.061 83.0599 53.6364 82.96 58.8961L85.8372 56.9381C86.7063 52.3077 91.3866 47.992 92.8102 51.8631C93.1648 52.8322 93.3746 53.8462 93.4545 54.8602L93.5844 56.3936C96.1818 47.0729 95.6623 32.982 87.6553 25.1099C82.6903 20.2298 57.4156 6.88811 48.6443 26.1588L47.1259 27.4426C47.1259 27.4426 43.025 26.1289 39.5534 32.2677C34.3037 41.3437 45.2527 57.063 45.6374 57.9021L46.3716 57.9321Z" fill="#264964"/>
<path d="M87.6553 25.1049C82.6903 20.2248 57.4156 6.88311 48.6444 26.1538L47.1259 27.4376C47.1259 27.4376 43.025 26.1239 39.5535 32.2627C34.6334 40.7642 43.9341 55.0949 45.4426 57.5674C42.5654 52.2977 37.7403 41.8681 41.3766 35.1598C44.6134 29.0509 48.4945 30.3896 48.4945 30.3896L49.9181 29.1159C58.0699 9.92008 82.026 23.4266 86.7463 28.3367C93.1499 35 94.5884 46.024 93.4595 54.8901L93.5844 56.3886C96.1818 47.0679 95.6623 32.977 87.6553 25.1049Z" fill="white"/>
<path d="M69.7282 82.2827C67.7402 82.2827 65.7972 82.003 63.9191 81.4535C61.3766 80.7043 58.959 79.4405 56.7312 77.7073C52.2407 74.2058 48.5894 68.8711 45.8721 61.8531C42.8851 54.1259 41.5115 47.6523 41.7912 42.6074C42.006 38.7462 43.1398 37.1678 43.2697 37.003L45.2328 38.027L45.2427 38.017C45.2427 38.017 44.2437 39.4356 44.0989 42.982C43.8541 48.946 46.1319 56.2188 48.0899 61.2737C50.6823 67.982 54.1288 73.0419 58.3296 76.3237C62.3257 79.4405 66.8062 80.7692 71.6463 80.2797C75.6074 79.8751 78.8192 78.3566 81.1918 75.7542C82.97 73.8012 83.5694 71.983 83.5744 71.968C83.7392 71.4585 84.3736 71.1538 84.998 71.2887C85.6174 71.4236 85.987 71.948 85.8221 72.4575C85.7922 72.5474 85.0979 74.6553 83.0499 76.9031C81.1468 78.991 77.6753 81.5984 71.931 82.1828C71.1918 82.2577 70.4525 82.2977 69.7233 82.2977" fill="#264964"/>
<path d="M93.5844 57.4376C93.4895 57.4376 93.3946 57.4226 93.2997 57.3976C92.7403 57.2428 92.4156 56.6633 92.5704 56.1039C93.9291 51.2388 94.2887 45.4945 93.5545 40.3497C92.6903 34.2857 90.3976 29.2757 86.9161 25.8541C85.3177 24.2807 81.3567 21.6883 76.4516 19.7203C72.4006 18.0969 66.3966 16.3736 60.7972 17.4126C55.7073 18.3566 51.9361 21.4436 49.5984 26.5884C49.3587 27.1179 48.7343 27.3477 48.2098 27.1079C47.6803 26.8681 47.4506 26.2438 47.6903 25.7193C49.0689 22.6973 50.9171 20.2697 53.1948 18.5115C55.2578 16.9181 57.6853 15.8541 60.4176 15.3497C66.5115 14.2208 72.9301 16.044 77.2358 17.7722C82.4406 19.8601 86.5864 22.5824 88.3896 24.3556C92.2008 28.1019 94.7083 33.5315 95.6374 40.055C96.4066 45.4795 96.027 51.5335 94.5984 56.6683C94.4685 57.1329 94.049 57.4376 93.5894 57.4376" fill="#264964"/>
<path d="M45.6374 58.951C45.2428 58.951 44.8681 58.7313 44.6883 58.3516C44.6483 58.2767 44.4885 58.017 44.3337 57.7672C43.3297 56.1488 40.6723 51.8531 38.8791 46.9381C36.5614 40.5944 36.4815 35.4795 38.6444 31.7383C42.4955 24.9401 47.2507 26.3686 47.4505 26.4336L46.8112 28.4316H46.8262C46.6913 28.3966 43.4396 27.5325 40.4725 32.7772C40.4725 32.7772 40.4725 32.7822 40.4675 32.7872C38.6294 35.964 38.7592 40.4795 40.8571 46.2188C42.5754 50.9291 45.1578 55.0949 46.1269 56.6633C46.4366 57.1628 46.5365 57.3277 46.6014 57.4625C46.8412 57.992 46.6114 58.6114 46.0819 58.8561C45.9421 58.9211 45.7922 58.951 45.6473 58.951" fill="#264964"/>
<path d="M62.5005 46.1089C61.4166 46.1089 60.3576 46.014 59.3187 45.8292C56.5464 45.3297 53.949 44.1608 51.6064 42.3626C47.6453 39.3257 45.7872 35.5544 45.7123 35.3996C45.4575 34.8801 45.6773 34.2507 46.1968 33.996C46.7163 33.7413 47.3456 33.961 47.6004 34.4805C47.6254 34.5355 49.3686 38.022 52.945 40.7443C55.018 42.3177 57.3057 43.3367 59.7382 43.7712C62.7952 44.3157 66.1219 43.9311 69.6234 42.6324C70.1678 42.4326 70.7722 42.7073 70.972 43.2517C71.1718 43.7962 70.8971 44.4006 70.3526 44.6004C67.6453 45.6044 65.013 46.1089 62.5005 46.1089Z" fill="#264964"/>
<path d="M84.963 49.5654C81.4965 49.5654 78.3197 48.9211 75.5075 47.6523C73.02 46.5285 70.8172 44.9151 68.964 42.8521C65.8122 39.3556 64.7632 35.7992 64.7183 35.6493C64.5584 35.0899 64.8781 34.5105 65.4376 34.3506C65.992 34.1908 66.5764 34.5105 66.7363 35.0649C66.7462 35.0999 67.7253 38.3716 70.5824 41.5135C72.2407 43.3367 74.2088 44.7652 76.4216 45.7592C79.2038 47.008 82.4056 47.5724 85.9321 47.4425C86.5115 47.4226 87.001 47.8721 87.021 48.4515C87.041 49.031 86.5914 49.5205 86.012 49.5404C85.6573 49.5554 85.3077 49.5604 84.963 49.5604" fill="#264964"/>
<path d="M88.4096 65.0499C87.7403 65.0499 87.2508 64.8202 86.9261 64.5904C85.8172 63.8062 85.6274 62.3426 85.6074 62.1778C85.6074 62.1778 85.5475 61.0589 86.6764 60.9291C87.8052 60.8042 87.6953 61.943 87.6953 61.943V61.9331C87.7203 62.1478 87.8752 62.6873 88.1399 62.8771C88.1898 62.9121 88.3147 62.997 88.6644 62.9171C89.6783 62.6823 90.6224 61.8381 91.3217 60.5394C92.6054 58.1568 92.8052 54.8901 91.8212 52.2178C91.5065 51.3686 91.1519 51.3986 91.002 51.4086C89.7782 51.5085 87.4556 54.011 86.8712 57.1229C86.7663 57.6923 86.2168 58.0669 85.6474 57.962C85.0779 57.8571 84.7033 57.3077 84.8082 56.7382C85.1279 55.0349 85.9471 53.2467 87.061 51.8282C88.2498 50.3097 89.5884 49.4206 90.8322 49.3157C92.1709 49.2058 93.2498 50 93.7992 51.4935C94.978 54.7053 94.7333 58.6463 93.1749 61.5335C92.1858 63.3666 90.7573 64.5804 89.1489 64.955C88.8841 65.015 88.6394 65.0449 88.4096 65.0449" fill="#264964"/>
<path d="M83.7293 59.5854C83.7293 59.5854 83.7143 59.5854 83.7093 59.5854C83.1299 59.5754 82.6703 59.0959 82.6803 58.5165C82.7702 53.7013 79.8182 49.7303 79.7882 49.6903C79.4386 49.2258 79.5285 48.5714 79.993 48.2218C80.4576 47.8721 81.1119 47.962 81.4616 48.4216C81.6014 48.6064 84.8831 52.997 84.7782 58.5564C84.7682 59.1309 84.2987 59.5854 83.7293 59.5854Z" fill="#264964"/>
<path d="M70.063 99.4405C69.6434 99.4405 69.2588 99.1908 69.0939 98.7912L63.5794 85.4046C63.3597 84.8701 63.6144 84.2557 64.1489 84.0359C64.6833 83.8161 65.2977 84.0709 65.5175 84.6054L68.7343 92.4175L68.5195 87.6623C68.4945 87.0829 68.9391 86.5934 69.5185 86.5634C70.0979 86.5384 70.5874 86.983 70.6174 87.5624L71.1069 98.3366C71.1319 98.8461 70.7822 99.3007 70.2827 99.4106C70.2078 99.4255 70.1279 99.4355 70.053 99.4355" fill="#264964"/>
<path d="M79.0489 83.4665C78.5994 83.4665 78.1848 83.1768 78.045 82.7223C77.8751 82.1678 78.1848 81.5834 78.7393 81.4136C78.7642 81.4036 80.5175 80.8391 82.6004 79.0459C84.4835 77.4226 87.026 74.4405 88.5644 69.3756L86.6813 65.0499C86.4515 64.5205 86.6913 63.9011 87.2258 63.6663C87.7552 63.4366 88.3746 63.6763 88.6094 64.2108L90.6424 68.8861C90.7423 69.1109 90.7572 69.3606 90.6873 69.5954C88.999 75.4396 86.047 78.8661 83.8691 80.7143C81.4665 82.7572 79.4386 83.3866 79.3536 83.4116C79.2537 83.4416 79.1488 83.4565 79.0489 83.4565" fill="#264964"/>
<path d="M95.7522 69.1159C95.6273 69.1159 95.5025 69.0959 95.3776 69.046L89.9081 66.958C89.3686 66.7533 89.0939 66.1439 89.2987 65.6044C89.5035 65.0649 90.1128 64.7902 90.6523 64.995L96.1218 67.0829C96.6613 67.2877 96.936 67.8971 96.7312 68.4366C96.5714 68.8562 96.1718 69.1109 95.7522 69.1109" fill="#264964"/>
<path d="M85.0879 94.7103C85.0879 94.7103 85.0729 94.7103 85.0629 94.7103C84.7383 94.7003 84.4336 94.5454 84.2438 94.2807L77.6254 85.2897C77.2807 84.8202 77.3806 84.1658 77.8502 83.8212C78.3197 83.4765 78.974 83.5764 79.3187 84.0459L85.1129 91.9181C87.6653 88.5464 95.1678 78.017 95.3527 70.6244C95.3676 70.0449 95.8521 69.5854 96.4266 69.6004C97.006 69.6154 97.4655 70.0949 97.4506 70.6743C97.3507 74.7353 95.3626 79.955 91.5515 86.2038C88.7493 90.7942 86.017 94.1808 85.9021 94.3207C85.7023 94.5654 85.4026 94.7103 85.0879 94.7103Z" fill="#264964"/>
<path d="M78.1099 95.8741C77.8002 95.8741 77.5005 95.7393 77.3007 95.4895L70.1928 86.8581C69.8232 86.4086 69.8881 85.7493 70.3376 85.3796C70.7872 85.01 71.4465 85.0749 71.8162 85.5245L76.966 91.7782L76.7412 84.8701C76.7213 84.2907 77.1758 83.8062 77.7552 83.7862C78.3346 83.7712 78.8192 84.2208 78.8391 84.8002L79.1588 94.7902C79.1738 95.2398 78.8991 95.6494 78.4795 95.8042C78.3596 95.8492 78.2347 95.8741 78.1099 95.8741Z" fill="#264964"/>
<path d="M111.432 167.717C105.118 167.717 99.6883 166.938 95.8222 166.149C89.9431 164.955 86.3866 163.526 86.2368 163.467C85.8022 163.292 85.5375 162.847 85.5874 162.383C86.0719 157.797 86.7263 145.07 84.004 141.329C83.7193 140.934 83.3496 140.43 82.9151 139.825C79.1488 134.61 69.1388 120.764 65.2078 117.228C60.8322 113.292 52.6004 106.688 52.5155 106.623C52.0609 106.259 51.991 105.599 52.3506 105.145C52.7153 104.69 53.3746 104.62 53.8292 104.98C53.9141 105.045 62.1958 111.688 66.6114 115.664C70.7123 119.351 80.4575 132.837 84.6184 138.591C85.0479 139.191 85.4176 139.695 85.7023 140.09C87.3107 142.303 88.1249 146.788 88.1249 153.432C88.1249 157.068 87.8801 160.325 87.7502 161.783C89.0639 162.253 92.0859 163.247 96.2917 164.096C101.546 165.16 109.773 166.214 119.149 165.195C128.514 164.181 137.296 160.604 143.02 157.787C149.244 154.72 153.295 151.853 153.335 151.823C153.809 151.488 154.464 151.598 154.798 152.068C155.133 152.542 155.023 153.197 154.553 153.531C154.384 153.651 150.353 156.508 143.989 159.65C140.253 161.493 136.487 163.052 132.8 164.271C128.18 165.804 123.664 166.818 119.379 167.283C116.616 167.582 113.954 167.707 111.432 167.707" fill="#264964"/>
<path d="M132.85 141.698C132.725 141.698 132.595 141.673 132.476 141.628C132.326 141.568 128.724 140.165 125.952 137.168C124.109 135.175 122.64 132.577 121.736 130.754C121.302 129.88 120.063 127.228 120.063 126.498C120.063 126.049 120.238 125.774 121.382 124.426C122.031 123.661 122.99 122.572 124.224 121.194C126.297 118.881 129.179 115.714 132.8 111.778C138.964 105.08 145.203 98.3866 145.268 98.3217C145.662 97.8971 146.327 97.8721 146.751 98.2717C147.176 98.6663 147.201 99.3307 146.801 99.7552C137.725 109.485 124.154 124.191 122.246 126.668C122.72 128.037 124.763 132.787 127.491 135.739C129.304 137.702 131.586 138.916 132.645 139.411C134.509 137.707 141.257 131.498 148.085 124.9C152.77 120.375 156.571 116.553 159.384 113.541C163.879 108.731 164.878 107.033 165.073 106.449C165.892 103.991 166.097 102.018 165.697 100.425C165.293 98.8162 164.279 97.4975 162.506 96.2787C161.586 95.6493 159.543 93.8811 156.716 91.4435C151.841 87.2377 144.474 80.8741 137.031 75.2947C128.235 68.7013 121.422 64.7702 116.781 63.6064C112.266 62.4775 102.071 62.9271 96.5964 63.1668C93.1449 63.3167 92.7552 63.3217 92.4006 63.2018C91.8512 63.017 91.5515 62.4226 91.7363 61.8731C91.9061 61.3586 92.4356 61.0639 92.955 61.1788C93.3147 61.2088 94.8631 61.1388 96.5065 61.0639C102.091 60.8192 112.481 60.3596 117.291 61.5634C122.271 62.8072 129.144 66.7482 138.29 73.6064C145.792 79.2308 153.19 85.6194 158.09 89.8451C160.762 92.1528 162.875 93.976 163.699 94.5404C167.95 97.4625 168.989 101.339 167.066 107.108C166.781 107.967 165.832 109.715 160.917 114.975C158.075 118.012 154.249 121.858 149.538 126.414C141.531 134.156 133.629 141.354 133.549 141.424C133.355 141.603 133.1 141.698 132.84 141.698" fill="#264964"/>
<path d="M141.452 105.584C141.267 105.584 141.077 105.534 140.907 105.43L116.497 90.5745C116.002 90.2748 115.842 89.6254 116.147 89.1309C116.452 88.6364 117.096 88.4766 117.59 88.7813L142.001 103.636C142.496 103.936 142.655 104.585 142.351 105.08C142.151 105.405 141.806 105.584 141.452 105.584Z" fill="#264964"/>
<path d="M110.867 138.891C110.727 138.891 110.587 138.861 110.453 138.806L106.896 137.268C106.472 137.203 105.183 137.003 103.754 136.673C101.282 136.104 99.7283 135.46 98.999 134.705C98.1548 133.831 97.1009 132.532 97.6753 131.309C98.2447 130.1 99.8931 130.08 101.082 130.17C104.528 130.43 106.092 130.445 110.517 130.06C114.963 129.67 120.712 128.911 120.767 128.901C121.342 128.826 121.871 129.231 121.946 129.805C122.021 130.38 121.616 130.909 121.042 130.984C120.982 130.994 115.193 131.758 110.697 132.153C106.157 132.552 104.449 132.532 100.922 132.268C100.313 132.223 99.943 132.248 99.7283 132.278C99.8431 132.473 100.068 132.792 100.507 133.247C101.282 134.046 105.033 134.89 107.326 135.21C107.421 135.225 107.51 135.25 107.6 135.285L111.287 136.878C111.821 137.108 112.066 137.727 111.836 138.257C111.666 138.651 111.277 138.891 110.872 138.891" fill="#264964"/>
<path d="M105.822 156.643C102.85 156.643 97.985 154.81 97.3756 154.575C96.8361 154.366 96.5664 153.761 96.7712 153.217C96.981 152.677 97.5854 152.408 98.1298 152.612C100.482 153.516 104.803 154.825 106.397 154.495C107.071 154.356 107.84 154.231 108.659 154.101C110.772 153.766 113.4 153.347 114.898 152.448C116.691 151.369 126.237 143.202 129.763 140.15C130.203 139.77 130.867 139.815 131.247 140.255C131.626 140.694 131.581 141.359 131.142 141.738C130.617 142.193 118.3 152.857 115.982 154.246C114.134 155.36 111.402 155.794 108.989 156.174C108.2 156.299 107.451 156.419 106.831 156.548C106.531 156.608 106.197 156.638 105.827 156.638" fill="#264964"/>
<path d="M99.8631 147.268C99.4935 147.268 99.1139 147.263 98.7293 147.248C97.2408 147.188 94.6483 146.494 93.4945 145.954C91.3167 144.94 90.8072 143.217 91.2717 141.968C91.7313 140.734 93.03 140.1 94.3936 140.44C95.7722 140.604 96.6463 140.769 97.3556 140.904C97.9301 141.014 98.3447 141.089 98.7992 141.124C99.8631 141.204 102.64 140.984 103.539 140.699C104.254 140.475 108.135 138.397 110.413 137.143C110.922 136.863 111.561 137.048 111.841 137.552C112.121 138.062 111.936 138.701 111.432 138.981C110.418 139.54 105.303 142.353 104.174 142.702C102.91 143.097 99.8382 143.302 98.6494 143.217C98.0749 143.177 97.5854 143.082 96.971 142.967C96.2817 142.837 95.4276 142.677 94.0789 142.517C94.024 142.512 93.969 142.502 93.9191 142.488C93.5894 142.393 93.3347 142.478 93.2497 142.702C93.1199 143.052 93.4695 143.626 94.3886 144.056C95.3327 144.495 97.6553 145.11 98.8192 145.155C101.541 145.26 103.884 144.91 104.219 144.86L109.394 143.531C109.953 143.387 110.527 143.726 110.672 144.286C110.817 144.845 110.478 145.42 109.918 145.564L104.698 146.908C104.668 146.913 104.643 146.923 104.613 146.928C104.518 146.943 102.5 147.283 99.8781 147.283" fill="#264964"/>
<path d="M101.472 151.104C100.023 151.104 98.5145 150.994 97.3157 150.719C96.9711 150.639 96.5165 150.549 96.027 150.454C94.6584 150.185 93.1049 149.88 92.2508 149.48C90.1479 148.501 89.6933 146.758 90.1679 145.464C90.6774 144.086 92.1359 143.352 93.5595 143.751C94.1189 143.906 94.4436 144.485 94.2887 145.045C94.1339 145.604 93.5545 145.929 92.995 145.774C92.5605 145.649 92.2458 145.909 92.1359 146.199C91.9561 146.683 92.3407 147.213 93.1349 147.582C93.7543 147.872 95.2977 148.177 96.4266 148.397C96.9261 148.496 97.4006 148.586 97.7803 148.676C100.018 149.191 104.004 149.036 105.323 148.661C106.711 148.272 110.657 146.968 110.697 146.958C111.247 146.778 111.841 147.078 112.026 147.627C112.206 148.177 111.906 148.771 111.357 148.956C111.192 149.011 107.331 150.285 105.897 150.689C105.018 150.939 103.29 151.114 101.472 151.114" fill="#264964"/>
<path d="M101.182 154.481C100.492 154.481 99.8382 154.436 99.2737 154.331C98.7742 154.236 98.1848 154.151 97.6154 154.071C96.4715 153.906 95.3876 153.751 94.6034 153.477C93.1698 152.967 92.2507 151.983 92.0809 150.779C91.9361 149.74 92.3756 148.716 93.2298 148.112C93.7043 147.777 94.3586 147.887 94.6933 148.357C95.028 148.831 94.9181 149.486 94.4485 149.82C94.2388 149.97 94.1239 150.235 94.1588 150.49C94.2138 150.894 94.6334 151.259 95.3027 151.499C95.8871 151.708 96.9161 151.853 97.9051 151.993C98.4995 152.078 99.1139 152.168 99.6633 152.273C101.541 152.632 105.268 152.053 106.586 151.788L111.931 150.395C112.49 150.25 113.065 150.584 113.215 151.144C113.36 151.703 113.025 152.278 112.466 152.428L107.091 153.831C107.091 153.831 107.051 153.841 107.031 153.846C106.866 153.881 103.784 154.486 101.177 154.486" fill="#264964"/>
<path d="M114.588 87.8771C114.254 87.8771 113.929 87.7173 113.724 87.4226C111.207 83.7812 109.743 78.7463 109.379 72.4426C109.109 67.7972 109.558 64.2458 109.578 64.0959C109.653 63.5215 110.178 63.1169 110.752 63.1868C111.327 63.2618 111.731 63.7862 111.661 64.3607C111.661 64.3956 111.217 67.9021 111.477 72.3577C111.716 76.4086 112.595 82.0979 115.453 86.2238C115.782 86.6983 115.662 87.3527 115.188 87.6873C115.003 87.8122 114.798 87.8721 114.593 87.8721" fill="#264964"/>
<path d="M155.957 152.562C155.922 152.562 155.892 152.562 155.857 152.562C155.278 152.507 154.858 151.993 154.913 151.419C155.233 148.047 154.523 143.342 152.805 137.423C151.402 132.602 149.733 128.372 148.929 126.339C148.704 125.769 148.569 125.425 148.509 125.24C148.325 124.69 148.624 124.096 149.174 123.911C149.723 123.726 150.318 124.026 150.502 124.575C150.547 124.705 150.697 125.085 150.887 125.569C151.701 127.632 153.395 131.923 154.823 136.838C156.621 143.012 157.356 147.982 157.006 151.618C156.956 152.163 156.497 152.567 155.962 152.567" fill="#264964"/>
<path d="M138.01 133.631C137.805 133.631 137.595 133.571 137.416 133.447C133.095 130.455 128.295 122.817 128.09 122.492C127.78 122.003 127.93 121.354 128.425 121.044C128.914 120.734 129.563 120.884 129.873 121.379C129.918 121.454 134.648 128.971 138.614 131.718C139.089 132.048 139.209 132.702 138.879 133.182C138.674 133.476 138.35 133.636 138.015 133.636" fill="#264964"/>
<path d="M80.6024 67.9271C80.2078 67.9271 79.8382 67.7672 79.5585 67.4675C78.964 66.8332 78.7343 65.5694 78.8292 63.4815C78.8941 62.0829 79.0889 60.8491 79.0939 60.7942C79.1589 60.3946 79.5335 60.1199 79.9331 60.1848C80.3327 60.2497 80.6074 60.6244 80.5425 61.024C80.5425 61.0389 80.3427 62.3127 80.2877 63.6763C80.2028 65.7992 80.5425 66.3536 80.6224 66.4485C80.6723 66.4385 80.7073 66.4236 80.7473 66.3586C80.8322 66.2387 81.0919 65.7342 80.9321 64.1758C80.8372 63.2517 80.6374 62.4475 80.6324 62.4375C80.5325 62.0429 80.7722 61.6433 81.1668 61.5484C81.5615 61.4485 81.9611 61.6883 82.056 62.0829C82.2108 62.6973 82.9251 65.8292 81.9461 67.2078C81.6514 67.6224 81.2318 67.8671 80.7323 67.9121C80.6873 67.9121 80.6424 67.9171 80.5974 67.9171" fill="#264964"/>
<path d="M101.556 159.975C101.272 159.975 101.117 159.975 101.107 159.975C100.527 159.965 100.063 159.485 100.073 158.906C100.083 158.332 100.552 157.872 101.122 157.872C101.127 157.872 101.132 157.872 101.142 157.872C101.227 157.872 110.003 157.997 119.978 156.214C125.802 155.175 130.892 153.696 135.098 151.828C140.273 149.525 144.109 146.623 146.496 143.207C146.826 142.732 147.485 142.612 147.96 142.947C148.435 143.277 148.554 143.936 148.22 144.411C145.607 148.152 141.472 151.299 135.932 153.756C131.566 155.694 126.312 157.223 120.313 158.292C111.442 159.87 103.499 159.975 101.556 159.975Z" fill="#264964"/>
<path d="M62.0609 65.4895C62.3956 65.5395 62.6653 65.5345 62.9001 65.4795C63.3147 65.3846 63.5345 65.1998 63.5045 64.96C63.4795 64.8252 63.3547 64.7053 63.2148 64.5854L63.1798 64.5555C63.04 64.4306 62.8901 64.3307 62.7652 64.2508C62.6703 64.1908 62.5704 64.1409 62.4755 64.0859C62.3457 64.021 62.2258 63.956 62.1159 63.8711C61.9261 63.7263 61.7712 63.5365 61.6713 63.3217C61.5964 63.1568 61.5614 62.997 61.5764 62.8571C61.6014 62.6124 61.7612 62.3876 61.9011 62.1878C62.046 61.978 62.1908 61.7483 62.3307 61.4935C62.7153 60.9391 62.8751 60.3996 62.7652 60.025C62.6853 59.7403 62.4655 59.5405 62.1808 59.4905C61.8861 59.4456 61.7313 59.6354 61.5964 59.8002L61.047 60.4645C60.8921 60.6494 60.7373 60.8392 60.5924 61.029C60.4725 61.1838 60.3626 61.3487 60.2478 61.5085C60.1529 61.6434 60.058 61.7832 59.963 61.9131L59.9381 61.9431C59.7383 62.2128 59.5335 62.4875 59.4236 62.8322C59.2637 63.3267 59.3437 63.8512 59.6534 64.3207C59.988 64.8352 60.5375 65.1049 60.9421 65.2448C61.2068 65.3347 61.4865 65.3846 61.7563 65.4346L61.8412 65.4496C61.9111 65.4645 61.981 65.4745 62.051 65.4845" fill="#264964"/>
<path d="M69.9431 51.958C71.1269 52.3576 72.9101 52.937 74.0789 52.2927C75.1429 51.7083 74.6583 50.1848 73.5395 50.0849C72.5455 49.995 71.6014 49.95 70.6224 49.6753C69.7333 49.4255 69.0539 48.7962 68.1948 48.5364C67.5205 48.3316 66.966 48.951 67.0809 49.5954C67.3057 50.8591 68.8541 51.5884 69.9431 51.953" fill="#264964"/>
<path d="M54.4286 52.4525C55.2428 51.8831 56.1119 51.1988 55.7822 50.1049C55.6124 49.5355 54.8482 49.3606 54.3986 49.6903C53.4196 50.4046 52.5305 50.9291 51.3167 51.1139C50.038 51.3087 49.8582 53.2417 51.2218 53.4415C52.3756 53.6114 53.4945 53.1019 54.4236 52.4525" fill="#264964"/>
<path d="M66.7612 57.2328C66.8462 57.7223 67.2807 57.8322 67.6903 57.962C69.1489 58.4216 70.6074 58.8911 72.0609 59.3756C72.7153 59.5954 73.3596 59.6803 73.7293 58.991C74.1039 58.2817 73.6344 57.8172 73.05 57.4675C72.7103 57.2627 72.3507 57.0829 71.8661 56.8182C72.1808 56.6384 72.3407 56.5085 72.5255 56.4436C73.1598 56.2188 73.7942 55.9441 73.5095 55.1399C73.2597 54.4306 72.5854 54.5704 72.011 54.6903C70.4526 55.01 68.9341 55.4446 67.5205 56.1738C67.0959 56.3936 66.6713 56.6683 66.7662 57.2378" fill="#264964"/>
<path d="M56.6414 56.8831C55.6174 56.1289 54.4386 55.6443 53.1548 55.4995C52.7802 55.4595 52.4056 55.5994 52.2458 55.979C52.0809 56.3736 52.2707 56.6733 52.6104 56.9081C52.8651 57.0829 53.1199 57.2727 53.4645 57.5225C52.7503 58.1368 51.8012 58.5414 52.4106 59.4805C53.01 60.4046 53.9041 60.005 54.6683 59.6453C55.3277 59.3356 55.987 59.001 56.5764 58.5814C57.2657 58.0919 57.3157 57.3876 56.6364 56.8881" fill="#264964"/>
<path d="M60.2178 76.5285C59.3936 76.5285 58.5744 76.2488 57.96 75.7393C57.3107 75.1998 56.9261 74.4506 56.8861 73.6264C56.7962 71.8132 58.2997 69.6903 60.4675 68.5814C62.4506 67.5674 65.2178 67.2927 67.8751 67.8472C70.4625 68.3916 72.4855 69.6454 73.1499 71.1189C73.5145 71.9231 73.4895 72.8222 73.0849 73.5864C72.6304 74.4506 71.7413 75.055 70.6573 75.2448C69.009 75.5295 66.8711 74.8901 64.5884 74.1509C63.3846 75.2547 62.1309 76.2987 60.7073 76.4935C60.5425 76.5135 60.3826 76.5285 60.2178 76.5285ZM65.1578 69.5654C63.7393 69.5654 62.3956 69.8352 61.3766 70.3596C59.8282 71.1539 58.8342 72.6374 58.8791 73.5265C58.8941 73.7912 59.009 74.021 59.2338 74.2008C59.5385 74.4555 60.003 74.5754 60.4326 74.5155C61.4066 74.3806 62.5555 73.3167 63.6593 72.2877L64.0889 71.8881L64.6484 72.0729C66.8012 72.7772 69.024 73.5065 70.3127 73.2817C70.7872 73.1968 71.1519 72.972 71.3167 72.6573C71.4316 72.4376 71.4366 72.1928 71.3267 71.9481C70.997 71.2188 69.5634 70.2448 67.4605 69.8052C66.6963 69.6454 65.9171 69.5654 65.1529 69.5654H65.1578Z" fill="#264964"/>
<path d="M66.2518 71.998C56.3117 74.3257 46.3666 76.6533 40.1279 80.4196C33.8891 84.1858 31.3467 89.3856 30.7872 92.4176C30.2278 95.4495 31.6414 96.3037 33.2148 95.5295C34.7882 94.7552 36.5165 92.3476 38.4096 90.6194C40.2977 88.8911 42.3457 87.8372 44.3886 86.7832C41.6364 90.6943 38.8791 94.6104 38 97.987C37.1209 101.364 38.1099 104.196 39.5235 105.4C40.9371 106.598 42.7752 106.164 43.9591 104.271C45.1429 102.378 45.6773 99.031 46.6913 96.3237C47.7053 93.6214 49.1938 91.5684 50.6823 89.5155C50.0729 91.7982 49.4685 94.0809 49.5834 95.5744C49.7033 97.0679 50.5475 97.7722 51.4666 97.8721C52.3856 97.972 53.3796 97.4675 53.8691 95.6793C54.3587 93.8911 54.3387 90.8142 55.0979 87.6923C55.8522 84.5704 57.3806 81.4086 59.3687 78.7862C61.3567 76.1638 63.7992 74.0809 66.2468 71.998H66.2518Z" fill="#F4F0BB"/>
<path d="M41.2318 106.314C40.5724 106.314 39.9331 106.064 39.3636 105.584C37.9401 104.376 36.8312 101.464 37.7602 97.9171C38.5894 94.7403 41.0719 91.0689 43.5994 87.4725C41.8911 88.3666 40.1628 89.3556 38.5794 90.8042C37.8951 91.4336 37.2258 92.1528 36.5814 92.8521C35.4426 94.0809 34.3686 95.2448 33.3297 95.7542C32.5205 96.1538 31.7463 96.1439 31.2068 95.7343C30.4825 95.1848 30.2478 93.991 30.5475 92.3726C31.1968 88.8561 34.024 83.8162 40.003 80.2048C46.2817 76.4186 56.4066 74.046 66.1968 71.7532L67.2008 71.5185L66.4166 72.1878C64.024 74.2258 61.5465 76.3287 59.5734 78.9361C57.5904 81.5534 56.0919 84.6853 55.3477 87.7522C54.9431 89.4306 54.7632 91.0989 54.6034 92.5674C54.4685 93.8262 54.3486 94.9101 54.1239 95.7442C53.4845 98.0819 52.041 98.1818 51.4565 98.1169C50.5275 98.017 49.4885 97.2977 49.3536 95.5894C49.2537 94.3456 49.6434 92.5774 50.1179 90.7443C48.9241 92.4226 47.7652 94.2108 46.9411 96.4036C46.5564 97.4326 46.2368 98.5664 45.9271 99.6603C45.4176 101.479 44.9331 103.197 44.1838 104.391C43.5145 105.455 42.6154 106.124 41.6514 106.274C41.5115 106.294 41.3766 106.304 41.2368 106.304L41.2318 106.314ZM45.1778 86.0939L44.5934 86.9231C41.9011 90.7493 39.1139 94.7103 38.2448 98.042C37.3756 101.379 38.3846 104.091 39.6883 105.2C40.2577 105.684 40.9071 105.884 41.5714 105.784C42.3906 105.659 43.1648 105.07 43.7543 104.131C44.4635 102.997 44.9381 101.314 45.4426 99.5305C45.7523 98.4216 46.0769 97.2777 46.4665 96.2338C47.4905 93.4965 49.014 91.3986 50.4925 89.3656L51.2817 88.2817L50.9371 89.5804C50.3427 91.8132 49.7333 94.1059 49.8482 95.5544C49.9431 96.7483 50.5624 97.5225 51.5115 97.6224C52.4955 97.7323 53.2597 97.018 53.6444 95.6144C53.8641 94.8152 53.979 93.7512 54.1139 92.5125C54.2737 91.029 54.4585 89.3457 54.8731 87.6324C55.6274 84.5005 57.1608 81.3037 59.1838 78.6314C60.972 76.2687 63.1548 74.3207 65.3177 72.4725C55.8821 74.6853 46.2667 77.008 40.2727 80.6294C32.7353 85.1748 31.2667 91.2837 31.047 92.4575C30.7822 93.8811 30.9521 94.9001 31.5165 95.3297C31.9111 95.6244 32.4755 95.6144 33.1199 95.2997C34.0739 94.8302 35.1179 93.7013 36.2268 92.5075C36.8811 91.8032 37.5554 91.0739 38.2548 90.4296C40.1678 88.6763 42.2607 87.5974 44.2887 86.5534L45.1928 86.0889L45.1778 86.0939Z" fill="#264964"/>
<path d="M41.2418 106.813C40.4626 106.813 39.6933 106.518 39.039 105.964C37.4506 104.615 36.2917 101.563 37.2757 97.7922C37.99 95.0549 39.8731 92.003 41.9661 88.941C40.9121 89.5654 39.8931 90.2747 38.9091 91.1688C38.2398 91.7832 37.5754 92.4975 36.9361 93.1868C35.7672 94.4505 34.6584 95.6443 33.5395 96.1988C32.5555 96.6833 31.5914 96.6583 30.8921 96.1289C30.2677 95.6543 29.6134 94.6054 30.043 92.2777C30.7123 88.6563 33.6094 83.4665 39.7333 79.7752C46.0769 75.944 56.2418 73.5664 66.072 71.2637C66.4116 71.1838 66.7563 71.3486 66.9111 71.6583C67.066 71.968 66.991 72.3426 66.7263 72.5674C64.3537 74.5854 61.9011 76.6733 59.9581 79.2358C58.015 81.8032 56.5465 84.8651 55.8222 87.8671C55.4226 89.5155 55.2428 91.1638 55.0879 92.6174C54.9481 93.8961 54.8282 95 54.5934 95.8741C53.8542 98.5864 52.1059 98.6913 51.3866 98.6164C50.2578 98.4915 48.999 97.6423 48.8392 95.6343C48.7842 94.95 48.8592 94.1558 49.014 93.2767C48.3996 94.2907 47.8502 95.3646 47.3906 96.5834C47.011 97.5924 46.6963 98.7163 46.3916 99.8002C45.8721 101.653 45.3776 103.407 44.5884 104.66C43.8442 105.849 42.8202 106.598 41.7113 106.773C41.5515 106.798 41.3916 106.808 41.2318 106.808L41.2418 106.813ZM44.3886 86.034C44.5984 86.034 44.8082 86.1239 44.9531 86.2887C45.1778 86.5484 45.2028 86.9281 45.003 87.2128C42.3357 91.004 39.5734 94.9251 38.7293 98.1718C37.9151 101.299 38.8242 103.811 40.013 104.825C40.4725 105.215 40.987 105.375 41.4965 105.3C42.1708 105.195 42.8202 104.69 43.3347 103.871C44.009 102.797 44.4735 101.144 44.9631 99.4006C45.2777 98.2817 45.6024 97.1279 46.002 96.0639C47.051 93.2667 48.5944 91.1388 50.0879 89.0809C50.2977 88.7912 50.6873 88.6863 51.017 88.8461C51.3417 89.001 51.5115 89.3656 51.4166 89.7153C50.8322 91.9081 50.2328 94.1608 50.3427 95.5245C50.4176 96.4885 50.8522 97.0579 51.5615 97.1379C52.4706 97.2328 52.9401 96.2987 53.1599 95.4945C53.3697 94.7353 53.4795 93.6863 53.6144 92.4725C53.7792 90.974 53.9591 89.2707 54.3836 87.5325C55.1529 84.3357 56.7163 81.0739 58.7842 78.3516C60.1778 76.5085 61.8012 74.9251 63.4646 73.4416C54.7133 75.5095 46.047 77.7472 40.5275 81.0789C34.8232 84.5205 32.1209 89.4206 31.5365 92.5724C31.2767 93.976 31.5115 94.7253 31.8162 94.955C32.1409 95.2048 32.6803 94.98 32.8951 94.8751C33.7692 94.4455 34.7832 93.3516 35.8522 92.1878C36.5115 91.4735 37.1958 90.7392 37.9101 90.0799C39.8731 88.2817 41.996 87.1878 44.054 86.1289C44.1639 86.0739 44.2787 86.0439 44.3986 86.0439L44.3886 86.034Z" fill="#264964"/>
<path d="M41.2418 107.063C40.3976 107.063 39.5784 106.748 38.8791 106.154C37.2308 104.755 36.022 101.608 37.036 97.7273C37.7003 95.1798 39.3886 92.3426 41.0969 89.7802C40.3477 90.2797 39.6933 90.7892 39.0839 91.3536C38.4246 91.958 37.7652 92.6673 37.1309 93.3516C35.9421 94.6354 34.8182 95.8491 33.6594 96.4186C32.5904 96.948 31.5265 96.9131 30.7523 96.3237C30.0729 95.8092 29.3537 94.6803 29.8082 92.2278C30.4875 88.5514 33.4246 83.2917 39.6134 79.5554C45.992 75.7043 56.1768 73.3217 66.022 71.014C66.4765 70.9091 66.9361 71.1239 67.1409 71.5385C67.3507 71.953 67.2508 72.4475 66.8961 72.7472C64.5335 74.7552 62.0909 76.8332 60.1629 79.3756C58.2398 81.9131 56.7862 84.945 56.0719 87.9121C55.6773 89.5404 55.5025 91.1788 55.3427 92.6224C55.2028 93.9211 55.0829 95.035 54.8382 95.9291C54.049 98.8212 52.1509 98.936 51.3617 98.8511C50.1329 98.7163 48.7643 97.8022 48.5894 95.6394C48.5645 95.2997 48.5645 94.9251 48.5994 94.5005C48.2198 95.2198 47.8951 95.9341 47.6254 96.6583C47.2508 97.6573 46.9361 98.7762 46.6314 99.8551C46.1069 101.728 45.6074 103.491 44.8032 104.78C44.019 106.034 42.9351 106.823 41.7513 107.008C41.5814 107.033 41.4066 107.048 41.2318 107.048L41.2418 107.063ZM42.8152 88.1518L42.1758 89.0859C40.2827 91.8481 38.2498 95.0549 37.5205 97.8571C36.5615 101.523 37.6753 104.476 39.2038 105.774C39.9331 106.394 40.8272 106.663 41.6863 106.528C42.7253 106.369 43.6843 105.659 44.3886 104.53C45.1579 103.302 45.6474 101.568 46.1619 99.7353C46.4666 98.6463 46.7862 97.5175 47.1659 96.4985C47.5854 95.3746 48.1249 94.2807 48.8092 93.1518L49.4985 92.013L49.2687 93.3267C49.1039 94.2607 49.049 95.01 49.0939 95.6194C49.2438 97.4775 50.3926 98.2617 51.4216 98.3766C52.0809 98.4465 53.6743 98.3416 54.3587 95.8192C54.5934 94.965 54.7083 93.8711 54.8482 92.6074C55.008 91.1339 55.1878 89.4805 55.5874 87.8222C56.3217 84.7902 57.8052 81.6933 59.7683 79.1009C61.7263 76.5135 64.1888 74.4206 66.5715 72.3926C66.7463 72.2428 66.8012 71.993 66.6963 71.7882C66.5914 71.5834 66.3617 71.4735 66.1369 71.5285C56.3267 73.8262 46.1818 76.1988 39.8731 80.01C33.8192 83.6613 30.9571 88.7762 30.2977 92.3426C29.8881 94.5404 30.4825 95.5195 31.052 95.949C31.6713 96.4186 32.5405 96.4336 33.4396 95.994C34.5185 95.4595 35.6074 94.2857 36.7613 93.0369C37.4056 92.3376 38.0699 91.6234 38.7443 91.004C39.6384 90.1848 40.6224 89.4655 41.8412 88.7413L42.8152 88.1618V88.1518ZM41.2418 105.564C40.7573 105.564 40.2777 105.375 39.8532 105.015C38.6044 103.956 37.6454 101.339 38.4895 98.1119C39.3487 94.8252 42.1209 90.8841 44.7982 87.0779C44.9331 86.8831 44.9181 86.6334 44.7682 86.4585C44.6234 86.2887 44.3637 86.2388 44.1639 86.3436C42.1259 87.3926 40.013 88.4815 38.0749 90.2547C37.3706 90.8991 36.6963 91.6284 36.042 92.3327C34.9431 93.5215 33.9141 94.6354 33 95.0849C32.6803 95.2447 32.0809 95.4595 31.6614 95.1399C31.1868 94.7802 31.047 93.8012 31.2867 92.5125C31.8811 89.3107 34.6234 84.3357 40.3976 80.8491C45.987 77.4725 54.8282 75.2098 63.4046 73.1818L64.3687 72.952L63.6294 73.6114C62.2658 74.8252 60.5025 76.4785 58.984 78.4865C56.9411 81.1838 55.3926 84.4156 54.6284 87.5774C54.2088 89.3057 54.029 90.994 53.8642 92.4875C53.7293 93.7163 53.6144 94.7702 53.4046 95.5494C53.06 96.8132 52.4106 97.4675 51.5415 97.3776C50.7123 97.2877 50.1878 96.6134 50.0979 95.5345C49.988 94.1259 50.5924 91.8481 51.1818 89.6403C51.2418 89.4106 51.1319 89.1658 50.9121 89.0609C50.6923 88.956 50.4326 89.021 50.2927 89.2208C48.8092 91.2687 47.2707 93.3816 46.2368 96.1488C45.8372 97.2128 45.5175 98.3566 45.2028 99.4655C44.7083 101.229 44.2388 102.897 43.5445 104.001C42.995 104.88 42.2807 105.425 41.5315 105.539C41.4366 105.554 41.3367 105.559 41.2418 105.559V105.564ZM44.3886 85.7842C44.6783 85.7842 44.9531 85.9091 45.1429 86.1289C45.4476 86.4785 45.4725 86.983 45.2078 87.3576C42.5505 91.1339 39.8032 95.035 38.969 98.2368C38.1798 101.259 39.039 103.671 40.1728 104.635C40.5724 104.975 41.017 105.12 41.4566 105.05C42.056 104.955 42.6504 104.49 43.1199 103.736C43.7742 102.692 44.2338 101.059 44.7183 99.3307C45.033 98.2118 45.3577 97.0529 45.7623 95.974C46.8212 93.1468 48.3746 91.004 49.8781 88.9311C50.1629 88.5414 50.6823 88.4066 51.1169 88.6164C51.5515 88.8212 51.7762 89.3107 51.6514 89.7752C51.0769 91.938 50.4825 94.1758 50.5824 95.4995C50.6274 96.0839 50.8422 96.8032 51.5814 96.8831C52.3257 96.963 52.7153 96.1289 52.9101 95.4196C53.1099 94.6803 53.2248 93.6413 53.3547 92.4376C53.5195 90.9291 53.7043 89.2208 54.1289 87.4625C54.9081 84.2358 56.4865 80.9391 58.5744 78.1868C59.8632 76.4885 61.3117 75.0449 62.5605 73.8961C54.3237 75.8591 45.9671 78.0619 40.6424 81.2787C35.008 84.6753 32.3407 89.5055 31.7662 92.6024C31.5115 93.986 31.7662 94.5954 31.9511 94.7402C32.1259 94.8751 32.4905 94.7752 32.7702 94.6353C33.5994 94.2258 34.5984 93.1468 35.6574 92.003C36.3267 91.2787 37.011 90.5395 37.7303 89.8801C39.7183 88.0619 41.8562 86.958 43.9291 85.8941C44.0689 85.8192 44.2288 85.7842 44.3886 85.7842Z" fill="#264964"/>
<path d="M22.5155 54.4405C21.4366 54.6453 20.3377 55.1798 19.3387 55.989C18.1548 56.948 17.7053 58.3267 18.1948 59.4805C18.6493 60.5444 19.9181 61.1488 21.4515 60.954C22.6304 60.8042 23.7992 60.5295 24.978 60.4046C25.6523 60.3297 26.3516 60.4595 27.011 60.1998C27.4056 60.0449 27.7902 59.8302 27.7802 59.3456C27.7752 58.8361 27.3556 58.6863 26.9411 58.5964C25.8172 58.3466 24.6883 58.2218 23.5395 58.4565C22.7303 58.6214 21.9161 58.7562 21.1019 58.8861C20.7772 58.941 20.4226 58.9161 20.2428 58.6064C20.018 58.2118 20.2877 57.9121 20.5674 57.6623C20.7722 57.4825 21.007 57.3327 21.2268 57.1728C22.975 55.8841 24.7982 56.4286 26.6214 56.938C27.0459 57.0579 27.5604 57.3327 27.8551 56.7982C28.1598 56.2387 27.7452 55.8292 27.3207 55.5544C25.8571 54.6054 24.2687 54.1309 22.5055 54.4405" fill="#264964"/>
<path d="M27.4755 39.2807C26.8461 38.9361 26.1668 38.8911 25.4675 39.016C24.2787 39.2408 23.4196 39.9051 23.1498 41.0739C22.8402 42.3976 23.3397 43.4715 24.4785 44.2557C25.4625 44.9351 26.7213 45.0549 27.6603 45.8392C28.1798 46.2687 28.8441 46.5484 29.3536 45.8841C29.8182 45.2847 29.3287 44.7902 28.9291 44.3357C28.1598 43.4665 27.026 43.2917 26.0469 42.8172C25.4975 42.5524 24.9031 42.1778 25.2378 41.4685C25.6074 40.6893 26.2917 40.9091 26.8961 41.2138C28.2248 41.8881 29.2338 42.947 30.2777 43.971C30.6423 44.3307 30.952 45.2048 31.6563 44.6154C32.2707 44.1059 31.8661 43.4316 31.5165 42.8921C30.4975 41.3337 29.1139 40.1648 27.4805 39.2807" fill="#264964"/>
<path d="M108.19 29.041C109.469 28.3217 109.883 27.2627 109.488 26.0689C108.934 24.4006 106.951 23.4865 105.228 24.2208C103.17 25.0949 101.886 26.7433 101.107 28.7712C100.907 29.2907 100.692 30.0549 101.447 30.3047C102.141 30.5345 102.126 29.7353 102.376 29.3507C103.275 27.957 104.209 26.5934 105.817 25.9241C106.566 25.6144 107.371 25.7443 107.685 26.5385C107.985 27.2977 107.201 27.4725 106.696 27.7572C105.862 28.2318 104.938 28.5714 104.299 29.3357C103.959 29.7453 103.724 30.2298 104.099 30.6993C104.464 31.1638 104.963 30.9391 105.333 30.6743C106.237 30.035 107.231 29.5704 108.19 29.031" fill="#264964"/>
<path d="M114.893 37.4975C113.884 36.8132 112.8 36.4036 111.766 36.2987C110.073 36.1538 108.614 36.7333 107.316 37.7473C106.936 38.042 106.581 38.4665 106.916 38.966C107.236 39.4456 107.7 39.1459 108.09 38.996C109.768 38.3616 111.442 37.7023 113.195 38.7662C113.415 38.9011 113.649 39.021 113.859 39.1758C114.144 39.3906 114.424 39.6454 114.244 40.04C114.104 40.3496 113.769 40.3946 113.46 40.3746C112.68 40.3197 111.901 40.2597 111.127 40.1698C110.023 40.045 108.969 40.2547 107.93 40.5844C107.55 40.7043 107.166 40.8791 107.201 41.3636C107.236 41.8182 107.615 41.988 108 42.1029C108.644 42.2927 109.294 42.1129 109.938 42.1279C111.062 42.1479 112.186 42.3127 113.315 42.3526C114.778 42.4076 115.927 41.7333 116.267 40.6943C116.636 39.5604 116.097 38.3017 114.898 37.4925" fill="#264964"/>
</g>
<defs>
<clipPath id="clip0_1_103">
<rect width="150" height="152.717" fill="white" transform="translate(18 15)"/>
</clipPath>
</defs>
</svg>
