<svg width="130" height="36" viewBox="0 0 130 36" fill="none" xmlns="http://www.w3.org/2000/svg">
<g clip-path="url(#clip0_13_86)">
<path d="M113.677 14.3695H117V11.012H113.677V2H103.086V10.3052C99.1861 10.4819 96.9705 12.9116 96.9705 12.9116C96.0399 11.8072 93.0266 10.3052 90.1905 10.3052C87.8419 10.3052 87 11.012 87 11.012V34.5582H97.6352V19.7149C97.6352 16.49 98.61 14.988 99.9394 14.3695H103.086V23.2932C103.086 29.4779 106.764 33.9398 113.632 35L113.677 14.3695Z" fill="white"/>
<path d="M75.0782 10.298C69.1349 10.298 66.5565 11.5852 64.1967 13.6448L65.5077 15.7044C66.4691 14.8462 67.9113 13.9452 70.4896 13.9452C73.0243 13.9452 74.9908 15.1895 74.9908 19.6949C70.4459 19.6949 64.8085 20.8963 62.7109 24.4148V18.1073C62.7109 12.615 59.04 10.298 54.5388 10.298C51.6982 10.298 48.9888 11.1561 47.0659 12.8725C45.7112 11.0274 43.395 10.298 40.5545 10.298C37.845 10.298 35.4415 11.5423 34.48 12.4863C34.48 12.4863 31.7706 10.298 28.0997 10.298C25.871 10.298 24.9532 10.9845 24.9532 10.9845V19.9952C21.8505 12.9583 10.1823 12.2288 10.1823 8.53874C10.1823 6.13588 12.6733 5.44934 15.0768 5.44934C17.83 5.44934 21.632 6.22169 22.943 7.63766L24.5162 5.44934C23.2926 3.94756 21.4572 2.87485 19.0973 2.23123V0H9.48311V1.93087C4.28269 3.00358 0.262206 6.39333 0.262206 11.3278C0.262206 21.5828 15.339 22.5697 15.339 27.118C15.339 29.478 13.154 30.5507 10.4445 30.5507C7.47286 30.5507 3.97679 29.5638 0.961421 27.59L0 30.3361C0.91772 31.3659 3.53978 34.0262 9.4394 34.4124V36H19.0536V32.9535C21.8505 31.7521 23.9044 29.907 24.9095 27.5042V33.8546H34.6111V19.5661C34.6111 16.7771 35.3541 15.7902 36.7088 15.7902C38.1072 15.7902 38.8938 16.7342 38.8938 18.9654V33.8546H48.5518V19.5661C48.5518 16.6913 49.3384 15.7902 50.6931 15.7902C52.0478 15.7902 52.8344 16.7771 52.8344 18.9654V33.8546H62.5798V31.1085C63.9782 33.4255 66.9061 34.5411 70.0089 34.5411C73.4176 34.5411 74.9034 33.2968 76.3019 31.9666C77.8751 33.5542 79.4483 34.5411 82.2452 34.5411C84.5613 34.5411 84.9983 33.8546 84.9983 33.8546V19.6949C85.0857 14.2026 81.7208 10.298 75.0782 10.298ZM74.9908 28.7914C74.9908 30.1216 74.1168 30.5507 73.0243 30.5507C71.8881 30.5507 70.9266 29.6925 70.9266 27.8045C70.9266 25.702 72.0192 22.913 74.9908 22.913V28.7914Z" fill="white"/>
<path d="M123.066 4.78694C123.066 5.05026 123.022 5.31359 123.022 5.6208C123.022 5.88412 123.022 6.05967 123.022 6.05967L122.978 6.54243H124.602V7.63961H122.846C122.759 7.9907 122.671 8.25403 122.539 8.51735C122.671 8.56124 122.978 8.60513 123.329 8.64901C123.724 8.73679 124.031 8.86845 124.207 9.13177C124.382 9.39509 124.514 9.61453 124.514 9.87785C124.514 10.0973 124.47 10.3167 124.339 10.5362C124.207 10.7117 124.031 10.8434 123.856 10.7995C123.636 10.7995 123.505 10.7117 123.417 10.6239C123.329 10.4923 123.241 10.3167 123.154 10.0534C123.066 9.79008 122.934 9.57064 122.802 9.39509C122.671 9.21955 122.539 9.00011 122.364 8.82456C122.056 9.26343 121.617 9.7023 121.135 10.1412C120.652 10.58 119.862 11.0189 118.853 11.5456L118.765 11.4139C119.555 10.6239 120.125 9.92174 120.389 9.35121C120.652 8.73679 120.871 8.21014 121.003 7.68349H118.853V6.58631H121.135C121.135 6.05967 121.179 5.70857 121.179 5.57691V4.83083H120.871C120.52 5.22581 120.257 5.53302 120.038 5.70857C119.818 5.92801 119.511 6.10356 119.16 6.32299L119.028 6.19133C119.204 5.88412 119.335 5.57691 119.423 5.22581C119.511 4.87471 119.555 4.52362 119.643 4.12863C119.686 3.73365 119.73 3.42644 119.73 3.29478L119.774 2.72424H121.793C121.749 2.8559 121.749 2.94368 121.705 3.03145C121.661 3.11923 121.618 3.29478 121.486 3.60199H124.382V4.74305L123.066 4.78694ZM122.232 10.8873V11.4139H126.665L127.147 10.6678L129.166 11.2384L128.639 11.8967V18.2164H126.708V17.3826H122.232V18.2164H120.345V10.8873H122.232ZM122.232 13.7838H126.708V12.5111H122.232V13.7838ZM122.232 16.1976H126.708V14.881H122.232V16.1976ZM126.577 3.207V3.77754H127.586L127.981 3.07534L129.868 3.64587L129.386 4.26029V10.4045H127.63V9.48287H126.577V10.4045H124.777V3.207H126.577ZM126.577 8.38569H127.63V4.9186H126.577V8.38569Z" fill="white"/>
<path d="M119.818 20.6741C119.994 20.9374 120.125 21.0691 120.169 21.113L120.433 21.5519H123.549C123.505 21.508 123.417 21.4202 123.417 21.3763C123.373 21.3324 123.329 21.2008 123.329 21.0691L123.285 20.5425C123.241 20.323 123.11 20.0597 122.89 19.8403L122.934 19.7086C123.768 19.6647 124.339 19.7086 124.734 19.8403C125.085 19.9719 125.348 20.2352 125.48 20.5425C125.611 20.8935 125.524 21.2446 125.216 21.5519H127.235L127.762 20.6302L130 21.3763L129.342 22.0346C129.078 22.5613 128.815 23.0001 128.552 23.3512C128.332 23.7023 127.85 24.0973 127.147 24.5362L127.016 24.4484C127.016 24.3606 127.06 24.2729 127.06 24.229L127.103 23.6146L127.191 23.044L127.235 22.649H120.784C120.784 22.8246 120.828 23.044 120.828 23.2635C120.828 23.4829 120.74 23.7901 120.564 24.0973C120.389 24.4045 120.125 24.5801 119.818 24.6678C119.467 24.7556 119.204 24.6678 119.028 24.4045C118.809 24.1851 118.721 23.9218 118.765 23.7023C118.809 23.4829 118.897 23.2196 119.072 22.8246C119.248 22.4735 119.379 22.1224 119.467 21.8152C119.555 21.508 119.599 21.2446 119.643 21.0252L119.687 20.5425H119.818V20.6741ZM121.661 29.4515H126.884L127.279 28.8371L129.342 29.3199L128.859 29.9343V35.2008H126.972V34.6741H121.661V35.2447H119.774V29.1005H121.661V29.4515ZM122.539 24.8434V25.1945H125.918L126.357 24.5362L128.288 25.0189L127.762 25.6773V28.7932H125.875V28.3544H122.539V28.8371H120.74V24.8434H122.539ZM126.665 23.3951V24.4484H121.53V23.3951H126.665ZM121.661 31.4704H123.417V30.5048H121.661V31.4704ZM121.661 33.5769H123.417V32.5236H121.661V33.5769ZM122.539 27.2572H125.875V26.2917H122.539V27.2572ZM125.216 31.4704H126.972V30.5048H125.216V31.4704ZM125.216 33.5769H126.972V32.5236H125.216V33.5769Z" fill="white"/>
</g>
<defs>
<clipPath id="clip0_13_86">
<rect width="130" height="36" fill="white"/>
</clipPath>
</defs>
</svg>
