<svg width="140" height="141" viewBox="0 0 140 141" fill="none" xmlns="http://www.w3.org/2000/svg">
<rect x="2" y="2.88574" width="136" height="136" rx="68" stroke="#C3DCD9" stroke-width="4"/>
<g clip-path="url(#clip0_66_286)">
<path d="M100.381 102.538L80.066 82.223C82.435 80.6955 85.1516 79.8906 87.9962 79.8906C96.1094 79.8906 102.713 86.4946 102.713 94.6077C102.713 97.4524 101.908 100.169 100.381 102.538Z" fill="#F4F0BB"/>
<path d="M87.9962 109.325C79.8831 109.325 73.2791 102.721 73.2791 94.608C73.2791 91.7633 74.084 89.0467 75.6115 86.6777L95.9264 106.993C93.5574 108.52 90.8409 109.325 87.9962 109.325Z" fill="#F4F0BB"/>
<path d="M87.9962 77.604C84.2095 77.604 80.6148 78.8388 77.6055 81.1712C77.3494 81.3725 77.1848 81.6743 77.1665 82.0036C77.1482 82.3329 77.2671 82.653 77.4958 82.8817L99.7223 105.108C99.9419 105.328 100.225 105.447 100.527 105.447C100.555 105.447 100.573 105.447 100.6 105.447C100.93 105.428 101.232 105.264 101.433 105.008C103.765 101.998 105 98.4037 105 94.6169C105 85.2415 97.3716 77.6132 87.9962 77.6132M100.381 102.538L80.066 82.2231C82.435 80.6956 85.1516 79.8907 87.9962 79.8907C96.1094 79.8907 102.713 86.4946 102.713 94.6078C102.713 97.4524 101.908 100.169 100.381 102.538Z" fill="#264964"/>
<path d="M76.2792 84.1074C76.0506 83.8787 75.7213 83.7506 75.4011 83.7781C75.0719 83.7964 74.77 83.961 74.5688 84.2171C72.2364 87.2264 71.0016 90.8211 71.0016 94.6078C71.0016 103.983 78.6299 111.612 88.0053 111.612C91.7921 111.612 95.3868 110.377 98.396 108.044C98.6521 107.843 98.8168 107.541 98.8351 107.212C98.8534 106.883 98.7345 106.563 98.5058 106.334L76.2792 84.1074ZM87.9962 109.325C79.883 109.325 73.2791 102.721 73.2791 94.6078C73.2791 91.7632 74.084 89.0466 75.6115 86.6776L95.9264 106.993C93.5574 108.52 90.8408 109.325 87.9962 109.325Z" fill="#264964"/>
<path d="M89.5878 57.088L76.5719 70.1038L56.1473 49.6791L69.1631 36.6633C71.8797 33.9467 75.5018 32.4558 79.38 32.4558C83.2582 32.4558 86.8803 33.9467 89.5969 36.6633C95.2313 42.2977 95.2313 51.4627 89.5969 57.088" fill="#C3DCD9"/>
<path d="M91.2069 35.0443C88.0605 31.8978 83.853 30.1599 79.3802 30.1599C74.9074 30.1599 70.6999 31.8978 67.5535 35.0443L39.8937 62.6949C33.3721 69.2165 33.3721 79.8359 39.8937 86.3575C43.0402 89.504 47.2477 91.2418 51.7205 91.2418C56.1932 91.2418 60.4007 89.504 63.5472 86.3575L91.1978 58.7069C97.7194 52.1853 97.7194 41.5659 91.1978 35.0443M61.9374 84.7385C59.2208 87.4551 55.5987 88.946 51.7205 88.946C47.8422 88.946 44.2201 87.4551 41.5035 84.7385C35.8692 79.1041 35.8692 69.9391 41.5035 64.3138L54.5194 51.298L74.944 71.7227L61.9282 84.7385H61.9374ZM89.588 57.0879L76.5722 70.1037L56.1475 49.6791L69.1633 36.6632C71.8799 33.9467 75.502 32.4557 79.3802 32.4557C83.2584 32.4557 86.8805 33.9467 89.5971 36.6632C95.2315 42.2976 95.2315 51.4627 89.5971 57.0879" fill="#264964"/>
<path d="M70.5625 38.0626L60.181 48.4442C59.6413 48.9838 59.6413 49.8528 60.181 50.3833C60.4462 50.6485 60.803 50.7857 61.1505 50.7857C61.4981 50.7857 61.8548 50.6485 62.1201 50.3833L72.5016 40.0017C76.2884 36.215 82.4533 36.215 86.24 40.0017C86.7797 40.5414 87.6486 40.5414 88.1792 40.0017C88.7188 39.4621 88.7188 38.5931 88.1792 38.0626C83.3222 33.2057 75.4195 33.2057 70.5625 38.0626Z" fill="white"/>
</g>
<defs>
<clipPath id="clip0_66_286">
<rect width="70" height="81.4517" fill="white" transform="translate(35 30.1599)"/>
</clipPath>
</defs>
</svg>
