<svg width="140" height="141" viewBox="0 0 140 141" fill="none" xmlns="http://www.w3.org/2000/svg">
<rect x="2" y="2.88574" width="136" height="136" rx="68" stroke="#C3DCD9" stroke-width="4"/>
<g clip-path="url(#clip0_66_66)">
<path d="M89.373 92.055C88.7877 92.055 88.3153 91.5826 88.3153 90.9973C88.3153 80.9001 80.1007 72.6855 70.0035 72.6855C59.9063 72.6855 51.6917 80.9001 51.6917 90.9973C51.6917 91.5826 51.2193 92.055 50.634 92.055C50.0488 92.055 49.5764 91.5826 49.5764 90.9973C49.5764 79.7331 58.7393 70.5702 70.0035 70.5702C81.2677 70.5702 90.4306 79.7331 90.4306 90.9973C90.4306 91.5826 89.9582 92.055 89.373 92.055Z" fill="#C3DCD9"/>
<path d="M116.442 95.1646H23.5577C22.9724 95.1646 22.5 94.6922 22.5 94.1069C22.5 67.9155 43.8085 46.6069 70 46.6069C96.1915 46.6069 117.5 67.9155 117.5 94.1069C117.5 94.6922 117.028 95.1646 116.442 95.1646ZM24.6259 93.0492H115.374C114.81 68.5078 94.6719 48.7223 70 48.7223C45.3281 48.7223 25.19 68.5113 24.6259 93.0492Z" fill="#264964"/>
<path d="M62.2861 54.9026C61.7854 54.9026 61.3412 54.5465 61.246 54.0353L60.2624 48.6658C60.1566 48.0912 60.5374 47.5412 61.1121 47.4354C61.6832 47.3332 62.2367 47.7104 62.3425 48.2851L63.3261 53.6545C63.4319 54.2292 63.0511 54.7792 62.4764 54.8849C62.413 54.8955 62.3495 54.9026 62.2861 54.9026Z" fill="#264964"/>
<path d="M49.0475 60.332C48.6844 60.332 48.3318 60.1451 48.1344 59.8102L45.3739 55.1035C45.0777 54.5994 45.247 53.9507 45.7511 53.6545C46.2553 53.3584 46.904 53.5276 47.1966 54.0318L49.9571 58.7384C50.2533 59.2426 50.084 59.8913 49.5799 60.1874C49.4107 60.2861 49.2273 60.332 49.0475 60.332Z" fill="#264964"/>
<path d="M38.4567 69.9603C38.2205 69.9603 37.9808 69.8792 37.7834 69.717L33.5809 66.2373C33.1296 65.8636 33.0697 65.1972 33.4399 64.7495C33.81 64.2982 34.4799 64.2348 34.9276 64.6085L39.1301 68.0882C39.5814 68.4619 39.6413 69.1282 39.2711 69.576C39.0631 69.8298 38.7599 69.9603 38.4567 69.9603Z" fill="#264964"/>
<path d="M31.804 82.6276C31.6876 82.6276 31.5678 82.6065 31.4479 82.5642L26.3076 80.7309C25.7576 80.5335 25.472 79.9306 25.6659 79.3806C25.8634 78.8306 26.4698 78.545 27.0162 78.7389L32.1565 80.5722C32.7065 80.7697 32.9921 81.3725 32.7982 81.9225C32.6431 82.3562 32.2376 82.6241 31.8004 82.6241L31.804 82.6276Z" fill="#264964"/>
<path d="M108.309 82.6628C107.879 82.6628 107.477 82.3984 107.318 81.9718C107.114 81.4254 107.392 80.8155 107.942 80.611L113.058 78.7107C113.604 78.5097 114.214 78.7847 114.419 79.3347C114.623 79.8812 114.345 80.4911 113.795 80.6956L108.679 82.5959C108.559 82.6417 108.432 82.6628 108.312 82.6628H108.309Z" fill="#264964"/>
<path d="M101.462 69.985C101.162 69.985 100.866 69.858 100.655 69.6112C100.278 69.167 100.33 68.4972 100.775 68.1199L104.931 64.5838C105.376 64.2066 106.045 64.2594 106.423 64.7037C106.8 65.1479 106.747 65.8177 106.303 66.195L102.146 69.7311C101.949 69.9003 101.705 69.9814 101.462 69.9814V69.985Z" fill="#264964"/>
<path d="M91.2134 60.3531C91.0371 60.3531 90.8573 60.3073 90.6916 60.2156C90.1839 59.9265 90.0076 59.2813 90.2932 58.7737L92.9903 54.0283C93.2794 53.5206 93.9245 53.3443 94.4322 53.6334C94.9399 53.9225 95.1162 54.5677 94.8306 55.0753L92.1336 59.8208C91.9397 60.1627 91.58 60.3566 91.2134 60.3566V60.3531Z" fill="#264964"/>
<path d="M77.3966 54.9732C77.3367 54.9732 77.2768 54.9696 77.2168 54.9591C76.6422 54.8603 76.2544 54.3139 76.3495 53.7392L77.2627 48.3592C77.3614 47.7845 77.9078 47.3967 78.4825 47.4919C79.0572 47.5906 79.445 48.1371 79.3498 48.7118L78.4367 54.0918C78.3485 54.6065 77.9008 54.9732 77.3966 54.9732Z" fill="#264964"/>
<path d="M69.1222 94.8014C68.8295 94.8014 68.5299 94.7098 68.276 94.5194L45.7124 77.5967C45.0883 77.1278 44.9649 76.2464 45.4303 75.6223C45.8992 74.9983 46.7806 74.8749 47.4046 75.3403L69.9683 92.263C70.5923 92.7319 70.7157 93.6133 70.2503 94.2373C69.9718 94.6075 69.5487 94.8014 69.1222 94.8014Z" fill="#264964"/>
</g>
<defs>
<clipPath id="clip0_66_66">
<rect width="95" height="48.5577" fill="white" transform="translate(22.5 46.6069)"/>
</clipPath>
</defs>
</svg>
