<svg width="140" height="141" viewBox="0 0 140 141" fill="none" xmlns="http://www.w3.org/2000/svg">
<rect x="2" y="2.88574" width="136" height="136" rx="68" stroke="#C3DCD9" stroke-width="4"/>
<g clip-path="url(#clip0_66_399)">
<path d="M43.4932 106.923C43.4932 84.2225 58.4708 74.2824 68.8876 68.7761C88.14 58.6056 90.6111 45.3045 90.6111 34.848H96.5068C96.5068 57.5488 81.5292 67.4889 71.1124 72.9952C51.86 83.1657 49.3889 96.4747 49.3889 106.923H43.4932Z" fill="#F4F0BB"/>
<path d="M43.4932 34.848C43.4932 54.9188 55.4435 65.0098 65.1531 70.8817C66.4245 70.111 67.6799 69.4117 68.8876 68.7761C69.269 68.5774 69.6266 68.3708 69.9921 68.1722C60.1553 62.7771 49.3889 54.013 49.3889 34.848H43.4932Z" fill="#C3DCD9"/>
<path d="M96.4988 106.923C96.4988 86.8525 84.5485 76.7615 74.8389 70.8896C73.5676 71.6604 72.3122 72.3596 71.1044 72.9953C70.7231 73.1939 70.3655 73.4005 70 73.5991C79.8288 78.9942 90.6031 87.7583 90.6031 106.923H96.4988Z" fill="#C3DCD9"/>
<path d="M65.5345 71.7955C65.5822 71.7796 65.6219 71.7637 65.6696 71.7399C66.8297 71.0327 68.0374 70.3573 69.3405 69.666C69.3564 69.6581 69.3643 69.6501 69.3802 69.6422C69.6742 69.4833 69.9603 69.3244 70.2463 69.1734L70.4608 69.0542C89.157 58.701 91.6043 45.3681 91.6043 34.8481C91.6043 34.2998 91.1593 33.8549 90.6111 33.8549C90.0628 33.8549 89.6179 34.2998 89.6179 34.8481C89.6179 36.6438 89.5384 38.519 89.3159 40.4577H50.7238C50.5013 38.6938 50.3821 36.8345 50.3821 34.8481C50.3821 34.2998 49.9372 33.8549 49.3889 33.8549C48.8407 33.8549 48.3957 34.2998 48.3957 34.8481C48.3957 53.9654 59.1144 63.0155 67.9421 68.1564C67.9103 68.1722 67.8785 68.1961 67.8388 68.212C66.9568 68.6887 66.0589 69.1813 65.1452 69.7217C56.1189 64.1676 44.4864 54.5216 44.4864 34.8481C44.4864 34.2998 44.0415 33.8549 43.4932 33.8549C42.945 33.8549 42.5 34.2998 42.5 34.8481C42.5 50.1594 49.3094 61.9428 63.2621 70.8579C53.2108 77.1668 42.5 87.5994 42.5 106.923C42.5 107.472 42.945 107.917 43.4932 107.917C44.0415 107.917 44.4864 107.472 44.4864 106.923C44.4864 87.8537 55.0383 78.0328 65.5345 71.7955ZM57.9464 57.5568C56.4288 55.7532 55.0542 53.7111 53.91 51.391H86.1059C85.0491 53.4648 83.6825 55.5307 81.9424 57.5568H57.9543H57.9464ZM88.9584 42.8414C88.5849 44.8676 88.0208 46.9334 87.1865 49.0073H52.8532C52.1143 47.1241 51.5104 45.0742 51.0893 42.8414H88.9584ZM60.1632 59.9405H79.6937C77.1511 62.4037 73.9649 64.7874 69.9921 67.036C66.6866 65.1926 63.2303 62.936 60.1632 59.9405Z" fill="#264964"/>
<path d="M76.73 70.9135C86.7813 64.6046 97.4921 54.172 97.4921 34.8481C97.4921 34.2998 97.0471 33.8549 96.4988 33.8549C95.9506 33.8549 95.5056 34.2998 95.5056 34.8481C95.5056 53.9098 84.9458 63.7386 74.4575 69.9759C74.4099 69.9918 74.3701 70.0077 74.3225 70.0315C73.1703 70.7308 71.9467 71.422 70.6754 72.0895C70.6595 72.0895 70.6516 72.1054 70.6436 72.1054C70.5641 72.1451 70.4926 72.1928 70.4132 72.2325C70.1907 72.3517 69.9682 72.4709 69.7457 72.598L69.6186 72.6695C50.843 83.0148 48.3878 96.3715 48.3878 106.915C48.3878 107.464 48.8327 107.909 49.381 107.909C49.9292 107.909 50.3742 107.464 50.3742 106.915C50.3742 105.12 50.4536 103.244 50.6761 101.306H89.2683C89.4908 103.07 89.6099 104.929 89.6099 106.915C89.6099 107.464 90.0549 107.909 90.6032 107.909C91.1514 107.909 91.5964 107.464 91.5964 106.915C91.5964 87.806 80.8776 78.7479 72.05 73.6071C72.0818 73.5912 72.1215 73.5674 72.1533 73.5515C73.0353 73.0747 73.9331 72.5821 74.8389 72.0497C83.8652 77.6038 95.4977 87.2419 95.4977 106.915C95.4977 107.464 95.9426 107.909 96.4909 107.909C97.0392 107.909 97.4841 107.464 97.4841 106.915C97.4841 91.604 90.6747 79.8206 76.7221 70.9056M82.0457 84.2146C83.5633 86.0182 84.9379 88.0603 86.0821 90.3804H53.8941C54.9509 88.3066 56.3175 86.2407 58.0576 84.2146H82.0457ZM51.0416 98.93C51.4151 96.9038 51.9792 94.8379 52.8135 92.7641H87.1388C87.8778 94.6472 88.4817 96.6893 88.9028 98.93H51.0416ZM79.8288 81.8309H60.2983C62.8409 79.3677 66.0272 76.984 70 74.7354C73.3054 76.5788 76.7618 78.8353 79.8288 81.8309Z" fill="#264964"/>
</g>
<defs>
<clipPath id="clip0_66_399">
<rect width="55" height="74.0617" fill="white" transform="translate(42.5 33.8549)"/>
</clipPath>
</defs>
</svg>
