<svg width="140" height="141" viewBox="0 0 140 141" fill="none" xmlns="http://www.w3.org/2000/svg">
<rect x="2" y="2.88574" width="136" height="136" rx="68" stroke="#C3DCD9" stroke-width="4"/>
<g clip-path="url(#clip0_66_386)">
<path d="M73.4714 115.742C73.9769 115.742 74.4442 115.418 74.6063 114.912L82.3788 90.4314C83.7807 91.4042 85.3161 92.2053 86.8801 92.9396C86.8801 93.0827 86.9087 93.2353 86.966 93.3783C87.7861 95.3238 88.2439 97.3838 88.3583 99.5009C85.7929 100.083 83.876 102.381 83.876 105.118C83.876 108.294 86.4605 110.878 89.6363 110.878C92.812 110.878 95.3965 108.294 95.3965 105.118C95.3965 102.314 93.3842 99.9778 90.733 99.4628C90.6376 97.6699 90.342 95.9151 89.7984 94.2271C89.9414 94.2843 90.0845 94.3511 90.2275 94.4083C91.0191 94.7421 91.8011 95.0759 92.5736 95.4192C99.6213 98.5472 102.187 105.871 102.597 109.753V114.54C102.597 115.198 103.131 115.733 103.789 115.733H73.4523L73.4714 115.742ZM36.1921 115.742C36.8501 115.742 37.3842 115.208 37.3842 114.55V109.763C37.7943 105.881 40.3597 98.5663 47.4074 95.4287C48.1798 95.0854 48.9619 94.7516 49.7534 94.4178C49.8965 94.3606 50.0395 94.2938 50.1826 94.2366C49.639 95.9246 49.3243 97.6699 49.2289 99.4628C45.5858 100.025 42.7916 103.173 42.7916 106.968V114.55C42.7916 115.208 43.3256 115.742 43.9837 115.742C44.6417 115.742 45.1758 115.208 45.1758 114.55V106.968C45.1758 104.088 47.5123 101.752 50.3924 101.752C53.2725 101.752 55.609 104.088 55.609 106.968V114.55C55.609 115.208 56.1431 115.742 56.8011 115.742C57.4591 115.742 57.9932 115.208 57.9932 114.55V106.968C57.9932 103.192 55.2275 100.064 51.6131 99.4723C51.7466 97.1739 52.2997 94.9614 53.263 92.8824C54.7984 92.1576 56.3052 91.3565 57.6785 90.4028L65.47 114.912C65.6322 115.418 66.0995 115.742 66.6049 115.742H36.1921ZM93.0218 105.128C93.0218 106.987 91.5055 108.504 89.6458 108.504C87.7861 108.504 86.2698 106.987 86.2698 105.128C86.2698 103.268 87.7861 101.752 89.6458 101.752C91.5055 101.752 93.0218 103.268 93.0218 105.128Z" fill="#F4F0BB"/>
<path d="M104.99 109.581C104.437 104.145 101.119 96.6113 93.5559 93.2543C92.7738 92.911 91.9728 92.5677 91.1717 92.2243C88.0245 90.8892 84.9823 89.5922 82.6649 87.6848C82.579 87.5799 82.4837 87.4941 82.3597 87.4273C80.4619 85.7775 79.1172 83.6698 78.688 80.723C84.7057 77.2325 89.3025 70.3184 90.4755 62.0881C92.2589 61.6017 93.594 59.723 93.594 57.4818C93.594 56.49 93.3365 55.5745 92.8883 54.8211C93.0409 54.6876 93.1649 54.5159 93.2316 54.3061C95.139 48.193 93.9278 41.5459 89.9033 36.0813C85.2779 29.787 77.8392 26.0295 70 26.0295C62.1608 26.0295 54.7125 29.787 50.0872 36.0718C46.0627 41.5459 44.8515 48.193 46.7589 54.3061C46.8256 54.5159 46.9496 54.6876 47.1022 54.8211C46.6635 55.584 46.3965 56.4996 46.3965 57.4818C46.3965 59.723 47.7316 61.6017 49.515 62.0881C50.688 70.3088 55.2847 77.2325 61.3025 80.723C60.3392 87.3129 54.7411 89.7066 48.8093 92.2243C48.0082 92.5677 47.2166 92.9015 46.4251 93.2543C38.8815 96.6113 35.5531 104.145 35 109.581C35 109.619 35 109.658 35 109.705V114.559C35 115.218 35.5341 115.752 36.1921 115.752C36.8501 115.752 37.3842 115.218 37.3842 114.559V109.772C37.7943 105.891 40.3597 98.5758 47.4074 95.4382C48.1798 95.0949 48.9619 94.7611 49.7534 94.4273C49.8965 94.3701 50.0395 94.3034 50.1826 94.2461C49.639 95.9342 49.3243 97.6794 49.2289 99.4723C45.5858 100.035 42.7916 103.182 42.7916 106.968V114.559C42.7916 115.218 43.3256 115.752 43.9837 115.752C44.6417 115.752 45.1757 115.218 45.1757 114.559V106.968C45.1757 104.088 47.5123 101.752 50.3924 101.752C53.2725 101.752 55.609 104.088 55.609 106.968V114.559C55.609 115.218 56.1431 115.752 56.8011 115.752C57.4591 115.752 57.9932 115.218 57.9932 114.559V106.968C57.9932 103.192 55.2275 100.064 51.6131 99.4723C51.7466 97.1739 52.2997 94.9614 53.2629 92.8824C54.7984 92.1576 56.3052 91.3565 57.6785 90.4028L65.47 114.912C65.6322 115.418 66.0995 115.742 66.6049 115.742C66.7193 115.742 66.8433 115.723 66.9673 115.685C67.5967 115.485 67.9401 114.817 67.7398 114.188L61.9319 95.9055L63.2861 97.708C63.5054 98.0036 63.8488 98.1753 64.2207 98.1848H64.2398C64.6022 98.1848 64.9455 98.0227 65.1744 97.7366L70.0095 91.6903L74.8447 97.7366C75.0736 98.0227 75.4169 98.1848 75.7793 98.1848H75.7984C76.1703 98.1848 76.5136 98.0036 76.733 97.708L78.2016 95.7625L72.346 114.188C72.1458 114.817 72.4891 115.485 73.1185 115.685C73.2425 115.723 73.3569 115.742 73.4809 115.742C73.9864 115.742 74.4537 115.418 74.6158 114.912L82.3883 90.4314C83.7902 91.4042 85.3256 92.2148 86.8896 92.9396C86.8896 93.0827 86.9183 93.2352 86.9755 93.3783C87.7956 95.3238 88.2534 97.3837 88.3678 99.5009C85.8025 100.083 83.8856 102.381 83.8856 105.118C83.8856 108.294 86.47 110.878 89.6458 110.878C92.8215 110.878 95.406 108.294 95.406 105.118C95.406 102.314 93.3937 99.9777 90.7425 99.4628C90.6471 97.6698 90.3515 95.9151 89.8079 94.2271C89.951 94.2843 90.094 94.351 90.2371 94.4083C91.0286 94.7421 91.8106 95.0758 92.5831 95.4192C99.6308 98.5568 102.196 105.871 102.606 109.753V114.54C102.606 115.198 103.14 115.733 103.798 115.733C104.456 115.733 104.99 115.198 104.99 114.54V109.686C104.99 109.686 104.99 109.61 104.99 109.562M93.0313 105.128C93.0313 106.987 91.515 108.504 89.6553 108.504C87.7956 108.504 86.2793 106.987 86.2793 105.128C86.2793 103.268 87.7956 101.752 89.6553 101.752C91.515 101.752 93.0313 103.268 93.0313 105.128ZM87.9864 37.4832C91.4482 42.1944 92.564 47.8592 91.0954 53.1045C90.6948 52.9137 90.2561 52.8088 89.7984 52.7707C84.8678 50.6821 76.8665 47.0963 76.1989 29.2911C80.8815 30.6453 85.0586 33.4968 87.9864 37.4737M52.0136 37.4832C56.1907 31.7993 62.9142 28.4137 70 28.4137C71.2684 28.4137 72.5273 28.5282 73.767 28.738C73.5572 43.1862 59.4142 52.7516 50.03 52.7516C49.8392 52.7516 49.658 52.8088 49.4959 52.8947C49.2956 52.9519 49.0954 53.0186 48.9046 53.114C47.436 47.8688 48.5422 42.2039 52.0136 37.4928M51.7752 60.8769C51.7084 60.238 51.0695 59.7897 50.4305 59.8279C49.5436 59.8279 48.7997 58.7598 48.7997 57.4818C48.7997 56.2039 49.5531 55.1358 50.4305 55.1358C50.4591 55.1358 50.4782 55.1263 50.5068 55.1167C55.9428 54.9641 62.2943 52.1508 67.1866 47.678C70.6294 44.5404 73.1376 40.8497 74.6158 36.8729C77.1431 50.0145 84.6676 53.1998 89.0259 55.0404C89.1785 55.1072 89.3311 55.1358 89.4932 55.1358C89.5123 55.1358 89.5218 55.1358 89.5409 55.1358C89.5504 55.1358 89.5599 55.1358 89.579 55.1358C90.4659 55.1358 91.2098 56.2039 91.2098 57.4818C91.2098 58.7598 90.4659 59.8279 89.5981 59.8279L89.5313 61.02L89.5027 59.8184C88.8352 59.7707 88.3011 60.238 88.2343 60.8769C87.0136 72.035 79.0123 80.7707 70.0095 80.7707C61.0068 80.7707 53.0055 72.035 51.7847 60.8769M70 83.1549C72.2316 83.1549 74.406 82.6685 76.4564 81.8197C76.6376 82.7257 76.8951 83.5649 77.2193 84.3374C75.1308 85.644 72.3365 87.2461 70 87.2461C67.6635 87.2461 64.8787 85.644 62.7807 84.3374C63.1049 83.5649 63.3624 82.7257 63.5436 81.8197C65.594 82.6685 67.7684 83.1549 70 83.1549ZM64.2589 95.0472L59.7384 89.0486L59.6621 88.8006C60.406 88.0949 61.0736 87.3129 61.6553 86.4355C63.6294 87.6658 66.1758 89.1058 68.6935 89.5064L64.2589 95.0377V95.0472ZM75.7411 95.0472L71.3065 89.5064C73.8052 89.1058 76.3324 87.6753 78.3447 86.426C78.936 87.3129 79.6226 88.114 80.3856 88.8292L80.357 88.9246L75.7411 95.0377V95.0472Z" fill="#264964"/>
<path d="M87.9864 37.4831C91.4482 42.1943 92.564 47.8591 91.0954 53.1139C90.6948 52.9231 90.2561 52.8182 89.7984 52.7801C84.8678 50.6915 76.857 47.1057 76.1989 29.3005C80.8815 30.6548 85.0586 33.5063 87.9864 37.4831Z" fill="#C3DCD9"/>
<path d="M52.0136 37.4833C56.1907 31.7994 62.9142 28.4138 70 28.4138C71.2684 28.4138 72.5273 28.5283 73.767 28.7381C73.5572 43.1863 59.4142 52.7517 50.03 52.7517C49.8392 52.7517 49.658 52.8089 49.4959 52.8947C49.2956 52.952 49.0954 53.0187 48.9046 53.1141C47.436 47.8689 48.5422 42.204 52.0136 37.4833Z" fill="#C3DCD9"/>
<path d="M93.0218 105.128C93.0218 106.987 91.5054 108.504 89.6458 108.504C87.7861 108.504 86.2697 106.987 86.2697 105.128C86.2697 103.268 87.7861 101.752 89.6458 101.752C91.5054 101.752 93.0218 103.268 93.0218 105.128Z" fill="#C3DCD9"/>
</g>
<defs>
<clipPath id="clip0_66_386">
<rect width="70" height="89.7125" fill="white" transform="translate(35 26.0295)"/>
</clipPath>
</defs>
</svg>
