<svg width="140" height="141" viewBox="0 0 140 141" fill="none" xmlns="http://www.w3.org/2000/svg">
<rect x="2" y="2.88574" width="136" height="136" rx="68" stroke="#C3DCD9" stroke-width="4"/>
<g clip-path="url(#clip0_7_9186)">
<path d="M70.5937 115.592C54.6139 115.592 40.526 105.592 35.2229 90.6055C34.8942 90.6424 34.5655 90.6592 34.2435 90.6592C28.4204 90.6592 23.6842 85.3192 23.6842 78.7583C23.6842 72.1973 28.4204 66.8573 34.2435 66.8573C34.7332 66.8573 35.233 66.9043 35.8166 67.0015C36.4573 67.1089 36.8866 67.716 36.7793 68.3567C36.6719 68.9973 36.0648 69.4267 35.4242 69.3193C34.9713 69.2422 34.5957 69.2086 34.2435 69.2086C29.7152 69.2086 26.0322 73.4954 26.0322 78.7616C26.0322 84.0278 29.7152 88.3146 34.2435 88.3146C34.7365 88.3146 35.2497 88.2576 35.7663 88.1435C36.3566 88.0127 36.947 88.3548 37.1348 88.9284C41.8509 103.473 55.2982 113.247 70.5937 113.247C85.8892 113.247 99.3364 103.473 104.053 88.9284C104.237 88.3548 104.831 88.016 105.421 88.1435C105.938 88.2576 106.451 88.3146 106.944 88.3146C111.472 88.3146 115.155 84.0312 115.155 78.7616C115.155 73.492 111.472 69.2086 106.944 69.2086C106.592 69.2086 106.216 69.2455 105.76 69.3193C105.119 69.4267 104.515 68.9973 104.408 68.3567C104.301 67.716 104.73 67.1122 105.371 67.0049C105.958 66.9076 106.454 66.8607 106.944 66.8607C112.767 66.8607 117.503 72.2007 117.503 78.7616C117.503 85.3226 112.767 90.6626 106.944 90.6626C106.622 90.6626 106.293 90.6458 105.964 90.6089C100.661 105.596 86.5735 115.595 70.5937 115.595V115.592Z" fill="#264964"/>
<path d="M114.263 73.2237C113.639 73.2237 113.119 72.734 113.092 72.1034C112.046 49.3647 93.3793 31.5536 70.5937 31.5536C47.8081 31.5536 29.145 49.3647 28.0951 72.1034C28.0649 72.7507 27.5081 73.2572 26.8674 73.2203C26.22 73.1901 25.7203 72.64 25.7504 71.9927C26.8574 47.9996 46.5536 29.2056 70.5937 29.2056C94.6338 29.2056 114.33 48.0029 115.437 71.996C115.467 72.6434 114.967 73.1935 114.32 73.2237C114.303 73.2237 114.283 73.2237 114.266 73.2237H114.263Z" fill="#264964"/>
<path d="M72.7102 46.8826C74.535 44.6386 75.018 43.9879 78.8117 43.9376C81.4079 43.904 82.2464 46.3929 82.2464 46.3929C85.1915 45.8328 89.1898 45.9032 90.9441 48.7074C93.4094 52.6553 91.2258 57.2641 91.4338 57.3346C94.939 57.4754 98.6555 63.2247 93.7482 67.0116C97.1159 70.0271 97.9545 77.9533 91.2225 79.4258C91.9235 83.4241 88.9785 88.8949 83.719 86.6475C81.5454 90.7867 76.5643 93.7318 72.7102 87.6303V46.8826Z" fill="#F4F0BB"/>
<path d="M68.4772 46.8826C66.6524 44.6386 66.1694 43.9879 62.3757 43.9376C59.7795 43.904 58.941 46.3929 58.941 46.3929C55.9959 45.8328 51.9976 45.9032 50.2433 48.7074C47.7779 52.6553 49.9616 57.2641 49.7536 57.3346C46.2484 57.4754 42.5319 63.2247 47.4392 67.0116C44.0715 70.0271 43.2329 77.9533 49.9649 79.4258C49.2639 83.4241 52.2089 88.8949 57.4684 86.6475C59.642 90.7867 64.6231 93.7318 68.4772 87.6303V46.8826Z" fill="#F4F0BB"/>
<path d="M63.4323 92.286C63.3585 92.286 63.2847 92.286 63.2109 92.2827C60.4973 92.1753 58.2869 90.1728 56.9418 88.0764C54.9628 88.6366 53.081 88.3045 51.5616 87.1003C49.6798 85.6077 48.5763 82.9175 48.6903 80.2878C46.2752 79.466 44.6216 77.7352 43.9876 75.3268C43.2597 72.5663 44.0044 69.2992 45.762 67.0854C44.0446 65.3009 43.4744 63.0603 44.2023 60.7827C44.8631 58.7064 46.4899 57.0393 48.3314 56.4188C47.8752 54.6209 47.2882 51.2197 49.2471 48.0834C51.3569 44.709 55.7712 44.7526 58.2768 45.0948C58.8672 44.1321 60.0982 42.7635 62.3187 42.7635C62.3422 42.7635 62.3657 42.7635 62.3925 42.7635C66.4948 42.8172 67.3233 43.6021 69.3258 46.0642L69.3895 46.1413C69.5606 46.3493 69.6511 46.6109 69.6511 46.8826V87.6269C69.6511 87.8483 69.5874 88.0663 69.47 88.2542C67.387 91.5514 65.0759 92.286 63.4323 92.286ZM57.4684 85.4735C57.8911 85.4735 58.3003 85.7049 58.5083 86.1007C59.6957 88.3615 61.5808 89.8676 63.3082 89.9347C64.7506 89.9917 66.0856 89.0995 67.3065 87.2781V47.2985C65.7971 45.447 65.4315 45.1518 62.3623 45.1115C62.3489 45.1115 62.3388 45.1115 62.3254 45.1115C60.6952 45.1115 60.1116 46.6075 60.0479 46.7786C59.8533 47.322 59.2898 47.6541 58.7196 47.5467C57.3846 47.2918 52.9033 46.6713 51.2395 49.3312C49.5456 52.0415 50.4379 55.2549 50.7767 56.4624C50.9108 56.9454 51.2261 58.0825 50.1259 58.4481C50.0219 58.4817 49.9113 58.5018 49.8006 58.5085C48.432 58.5622 46.9561 59.877 46.4396 61.4972C46.1276 62.4766 45.9364 64.3718 48.157 66.0824C48.432 66.2971 48.5997 66.6191 48.6131 66.968C48.6266 67.3168 48.4823 67.6522 48.2241 67.887C46.5167 69.4166 45.6513 72.4254 46.2618 74.7298C46.6039 76.0279 47.5666 77.6983 50.2165 78.2786C50.8303 78.4128 51.2295 79.0098 51.1221 79.627C50.7599 81.6899 51.5783 84.1117 53.024 85.2588C54.1142 86.1242 55.4559 86.2282 57.0089 85.5674C57.1598 85.5037 57.3141 85.4735 57.4684 85.4735Z" fill="#264964"/>
<path d="M53.2186 69.4602C51.585 69.4602 49.9481 69.1651 49.066 68.4238C48.5695 68.0078 48.5058 67.2665 48.9217 66.7701C49.3377 66.2737 50.079 66.2099 50.5754 66.6259C50.9276 66.921 52.6249 67.3001 54.7649 67.0083C56.6634 66.7466 58.1124 66.0724 58.7397 65.1567C59.1053 64.62 59.8365 64.4825 60.3699 64.8481C60.9065 65.2137 61.0441 65.945 60.6785 66.4783C59.3099 68.4841 56.5862 69.1282 55.0835 69.3328C54.4898 69.4133 53.8525 69.4602 53.2152 69.4602H53.2186Z" fill="#264964"/>
<path d="M52.8395 78.8455C52.4672 78.8455 52.1016 78.6677 51.8735 78.339C51.5045 77.8056 51.6387 77.0744 52.172 76.7054C54.5569 75.0585 58.7565 74.7834 60.598 76.9C61.024 77.3897 60.9703 78.131 60.4839 78.557C59.9942 78.983 59.2529 78.9293 58.8269 78.4429C57.9414 77.4266 55.1104 77.5306 53.507 78.6375C53.3024 78.7784 53.071 78.8455 52.8395 78.8455Z" fill="#264964"/>
<path d="M55.7175 57.8745C55.6672 57.8745 55.6135 57.8745 55.5632 57.8644C54.9192 57.7806 54.4664 57.1902 54.5536 56.5462C54.775 54.8557 55.5934 53.0712 56.7406 51.7764C58.2064 50.1194 60.1485 49.3077 62.208 49.5022C62.852 49.5626 63.3283 50.1328 63.268 50.7802C63.2076 51.4276 62.6374 51.9005 61.99 51.8402C58.9913 51.5685 57.1699 54.6678 56.8814 56.8548C56.8043 57.4451 56.2978 57.8745 55.7209 57.8745H55.7175Z" fill="#264964"/>
<path d="M63.3585 68.6988C63.2747 68.6988 63.1875 68.6887 63.1003 68.6686C60.39 68.0615 59.0248 66.5185 58.3573 65.3311C57.5053 63.8116 57.2873 61.9466 57.7904 60.4607C57.9984 59.8469 58.6659 59.5181 59.2797 59.7261C59.8936 59.9341 60.2223 60.6016 60.0143 61.2154C59.7762 61.9198 59.803 63.1106 60.4034 64.1806C61.024 65.2875 62.1342 66.0455 63.6101 66.3776C64.2441 66.5185 64.6399 67.1458 64.499 67.7797C64.3782 68.3265 63.8919 68.6988 63.3552 68.6988H63.3585Z" fill="#264964"/>
<path d="M77.7551 92.286C76.1115 92.286 73.8037 91.5514 71.7174 88.2542C71.6 88.0663 71.5363 87.8483 71.5363 87.6269V46.8826C71.5363 46.6143 71.6302 46.3526 71.7979 46.1413L71.8616 46.0642C73.8641 43.5988 74.6926 42.8172 78.7949 42.7635C78.8184 42.7635 78.8452 42.7635 78.8687 42.7635C81.0892 42.7635 82.3202 44.1321 82.9106 45.0948C85.4162 44.7526 89.8338 44.7124 91.9403 48.0834C93.8992 51.2197 93.3088 54.6209 92.856 56.4188C94.6975 57.0393 96.3243 58.7031 96.9851 60.7827C97.713 63.0603 97.1428 65.3043 95.4254 67.0854C97.1864 69.2992 97.9277 72.5663 97.1998 75.3268C96.5658 77.7318 94.9122 79.4626 92.4971 80.2878C92.6111 82.9175 91.5076 85.6043 89.6258 87.1003C88.1064 88.3045 86.2246 88.6399 84.2456 88.0764C82.9005 90.1728 80.6901 92.172 77.9765 92.2827C77.906 92.2827 77.8289 92.286 77.7551 92.286ZM73.8842 87.2781C75.1052 89.0961 76.4503 89.9917 77.8825 89.9347C79.61 89.8642 81.4951 88.3615 82.6825 86.1007C82.9676 85.5607 83.6183 85.3259 84.1819 85.5674C85.7315 86.2282 87.0732 86.1276 88.1667 85.2588C89.6124 84.1117 90.4309 81.6899 90.0686 79.627C89.9613 79.0065 90.3604 78.4128 90.9743 78.2786C93.6241 77.6983 94.5868 76.0312 94.9289 74.7331C95.5361 72.4254 94.674 69.4199 92.9667 67.887C92.7084 67.6556 92.5642 67.3168 92.5776 66.968C92.591 66.6191 92.7587 66.2938 93.0338 66.0824C95.2543 64.3718 95.0598 62.4733 94.7478 61.4972C94.2313 59.877 92.7554 58.5622 91.3868 58.5085C91.2761 58.5051 91.1688 58.485 91.0615 58.4481C89.9613 58.0825 90.2766 56.9454 90.4107 56.4624C90.7462 55.2515 91.6418 52.0415 89.9479 49.3312C88.2841 46.6713 83.8028 47.2952 82.4678 47.5467C81.8909 47.6574 81.324 47.3254 81.1362 46.7686C81.0792 46.6042 80.4854 45.0981 78.8284 45.1115C75.7593 45.1518 75.3937 45.447 73.8842 47.2985V87.2781Z" fill="#264964"/>
<path d="M87.9688 69.4602C87.3315 69.4602 86.6942 69.4166 86.1005 69.3328C84.5978 69.1282 81.8741 68.4808 80.5056 66.4783C80.14 65.9416 80.2775 65.2137 80.8142 64.8481C81.3475 64.4825 82.0787 64.62 82.4443 65.1567C83.0716 66.0724 84.5206 66.75 86.4192 67.0083C88.5592 67.3001 90.2564 66.921 90.6086 66.6259C91.1051 66.2099 91.8464 66.2737 92.2623 66.7701C92.6782 67.2665 92.6145 68.0078 92.1181 68.4238C91.2359 69.1651 89.6024 69.4602 87.9655 69.4602H87.9688Z" fill="#264964"/>
<path d="M88.3479 78.8455C88.1164 78.8455 87.885 78.7784 87.6804 78.6375C86.077 77.5306 83.246 77.4266 82.3605 78.443C81.9345 78.9327 81.1932 78.983 80.7035 78.557C80.2138 78.131 80.1634 77.3897 80.5894 76.9C82.4309 74.7835 86.6305 75.0552 89.0154 76.7055C89.5487 77.0744 89.6829 77.8057 89.3139 78.339C89.0858 78.6677 88.7202 78.8455 88.3479 78.8455Z" fill="#264964"/>
<path d="M85.4732 57.8746C84.8929 57.8746 84.3898 57.4452 84.3127 56.8549C84.0242 54.6679 82.1928 51.5652 79.2041 51.8402C78.5467 51.9006 77.9865 51.4243 77.9261 50.7803C77.8657 50.1362 78.342 49.5627 78.9861 49.5023C81.0422 49.3111 82.9844 50.1195 84.4535 51.7765C85.6007 53.0712 86.4191 54.8557 86.6405 56.5463C86.7244 57.1903 86.2716 57.7773 85.6309 57.8645C85.5806 57.8712 85.5269 57.8746 85.4766 57.8746H85.4732Z" fill="#264964"/>
<path d="M77.8288 68.6988C77.2922 68.6988 76.8058 68.3265 76.685 67.7797C76.5442 67.1458 76.94 66.5185 77.5739 66.3776C79.0498 66.0455 80.1601 65.2875 80.7806 64.1806C81.381 63.1106 81.4112 61.9198 81.1697 61.2154C80.9617 60.6016 81.2905 59.9341 81.9043 59.7261C82.5181 59.5181 83.1856 59.8469 83.3936 60.4607C83.8967 61.9466 83.6787 63.8116 82.8267 65.3311C82.1592 66.5185 80.7974 68.0615 78.0838 68.6686C77.9966 68.6887 77.9127 68.6988 77.8255 68.6988H77.8288Z" fill="#264964"/>
<path d="M96.6665 45.7824C96.113 45.7824 95.5663 45.5342 95.2007 45.0612C94.5801 44.2529 94.7344 43.0956 95.5394 42.4751L103.184 36.6085L100.802 34.2336C100.41 33.8412 100.212 33.2911 100.269 32.741C100.326 32.1875 100.628 31.6911 101.094 31.3859L108.567 26.4853C109.419 25.9285 110.563 26.1633 111.123 27.0153C111.684 27.8672 111.445 29.011 110.593 29.5712L105.022 33.224L107.286 35.4848C107.662 35.8605 107.86 36.3804 107.823 36.9104C107.789 37.4403 107.528 37.9301 107.105 38.2554L97.7868 45.4067C97.4514 45.665 97.0556 45.7891 96.6665 45.7891V45.7824Z" fill="#C3DCD9"/>
<path d="M104.888 52.8935C104.056 52.8935 103.298 52.3266 103.097 51.478C102.858 50.4885 103.469 49.4922 104.458 49.2541L113.83 47L112.619 43.8604C112.418 43.3405 112.465 42.7602 112.74 42.2805C113.015 41.7975 113.495 41.4655 114.045 41.3782L122.863 39.9393C123.866 39.7749 124.819 40.4558 124.98 41.4621C125.144 42.4684 124.463 43.4176 123.457 43.5786L116.879 44.652L118.03 47.6373C118.221 48.1338 118.191 48.6872 117.943 49.1602C117.694 49.6298 117.258 49.9719 116.742 50.096L105.324 52.8431C105.18 52.8767 105.032 52.8935 104.891 52.8935H104.888Z" fill="#C3DCD9"/>
<path d="M25.0796 52.5782C24.8381 52.5782 24.5932 52.5312 24.3618 52.434L16.127 48.9656C15.1878 48.5698 14.7484 47.4898 15.1442 46.5506C15.54 45.6114 16.6201 45.172 17.5593 45.5678L23.701 48.1539L24.3115 45.0143C24.4121 44.491 24.7341 44.0382 25.1936 43.7732C25.6532 43.5082 26.2066 43.4512 26.7098 43.6189L37.8426 47.3657C38.8086 47.691 39.3285 48.7375 39.0032 49.7036C38.6778 50.6696 37.6313 51.1895 36.6653 50.8642L27.5316 47.7916L26.8875 51.0922C26.7802 51.639 26.4347 52.1052 25.945 52.3669C25.6733 52.5111 25.3748 52.5849 25.0762 52.5849L25.0796 52.5782Z" fill="#C3DCD9"/>
<path d="M41.9247 40.164C41.4786 40.164 41.0325 40.003 40.677 39.6776L33.5793 33.1569L31.6506 35.9141C31.332 36.3703 30.8255 36.6554 30.272 36.6957C29.7118 36.7359 29.1752 36.5246 28.7961 36.1188L22.6813 29.6014C21.9836 28.8568 22.0205 27.6895 22.7651 26.9951C23.5098 26.2974 24.6771 26.3343 25.3714 27.079L29.9299 31.9393L31.7647 29.3196C32.0699 28.8836 32.5462 28.6018 33.0762 28.5448C33.6062 28.4878 34.1328 28.6622 34.5252 29.0211L43.1725 36.9674C43.9239 37.6584 43.9709 38.8223 43.2832 39.5737C42.921 39.9695 42.4212 40.1707 41.9247 40.1707V40.164Z" fill="#C3DCD9"/>
</g>
<defs>
<clipPath id="clip0_7_9186">
<rect width="110" height="89.4115" fill="white" transform="translate(15 26.1801)"/>
</clipPath>
</defs>
</svg>
