<svg width="140" height="141" viewBox="0 0 140 141" fill="none" xmlns="http://www.w3.org/2000/svg">
<rect x="2" y="2.88574" width="136" height="136" rx="68" stroke="#C3DCD9" stroke-width="4"/>
<g clip-path="url(#clip0_66_257)">
<path d="M63.4204 33.9852C63.4204 36.6587 61.2533 38.8275 58.5781 38.8275C55.9029 38.8275 53.7357 36.6604 53.7357 33.9852C53.7357 31.3099 55.9029 29.1428 58.5781 29.1428C61.2533 29.1428 63.4204 31.3099 63.4204 33.9852Z" fill="white"/>
<path d="M58.5798 39.8354C55.3527 39.8354 52.7279 37.2106 52.7279 33.9835C52.7279 30.7564 55.3527 28.1333 58.5798 28.1333C61.8069 28.1333 64.4316 30.7581 64.4316 33.9852C64.4316 37.2123 61.8069 39.837 58.5798 39.837V39.8354ZM58.5798 30.1523C56.4665 30.1523 54.747 31.8719 54.747 33.9852C54.747 36.0984 56.4665 37.818 58.5798 37.818C60.693 37.818 62.4126 36.0984 62.4126 33.9852C62.4126 31.8719 60.693 30.1523 58.5798 30.1523Z" fill="#264964"/>
<path d="M57.264 58.9457V67.4677C57.264 68.6135 56.3353 69.5423 55.1895 69.5423C54.0436 69.5423 53.1132 68.6135 53.1132 67.4677V47.0855L49.7464 51.1757C49.0785 51.9867 47.8721 52.0826 47.0864 51.3877C46.3242 50.7147 46.2451 49.5537 46.9097 48.7848L51.7302 43.1988C52.6084 42.1809 53.8872 41.5953 55.2315 41.5953H62.6868C64.0312 41.5953 65.3099 42.1809 66.1882 43.1988L71.2106 49.0187C71.7709 49.6682 71.7305 50.6407 71.118 51.2413C70.4753 51.874 69.4389 51.8605 68.8113 51.2144L64.8035 47.0855V67.4677C64.8035 68.6135 63.8747 69.5423 62.7272 69.5423C61.5797 69.5423 60.6527 68.6135 60.6527 67.4677V58.9457C60.6527 58.0102 59.8938 57.2514 58.9583 57.2514C58.0228 57.2514 57.264 58.0102 57.264 58.9457Z" fill="#C3DCD9"/>
<path d="M62.7289 70.5518C61.0279 70.5518 59.6448 69.167 59.6448 67.466V58.9456C59.6448 58.5671 59.3369 58.2608 58.96 58.2608C58.5831 58.2608 58.2752 58.5687 58.2752 58.9456V67.466C58.2752 69.167 56.8922 70.5518 55.1911 70.5518C53.4901 70.5518 52.107 69.167 52.107 67.466V49.8986L50.5288 51.815C50.0308 52.4207 49.3258 52.7875 48.5434 52.8498C47.7644 52.9137 47.0073 52.6597 46.4201 52.1414C45.249 51.1084 45.1279 49.3047 46.1475 48.1219L50.968 42.5358C52.0397 41.2941 53.5944 40.5824 55.2349 40.5824H62.6902C64.3307 40.5824 65.8854 41.2941 66.9571 42.5358L71.9795 48.3557C72.8847 49.4039 72.8191 50.9872 71.8314 51.958C71.3267 52.4527 70.6537 52.7185 69.9537 52.7135C69.2471 52.7051 68.5858 52.4207 68.0928 51.9143L65.8197 49.5722V67.4643C65.8197 69.1654 64.4367 70.5501 62.7356 70.5501L62.7289 70.5518ZM58.9583 56.2418C60.4491 56.2418 61.6622 57.4549 61.6622 58.9456V67.466C61.6622 68.0532 62.14 68.5327 62.7272 68.5327C63.3144 68.5327 63.7923 68.0549 63.7923 67.466V47.0837C63.7923 46.6732 64.0413 46.303 64.4232 46.1482C64.8035 45.9934 65.2409 46.086 65.527 46.3804L69.5348 50.5094C69.6492 50.6288 69.804 50.6945 69.9706 50.6961C70.1321 50.6961 70.2919 50.6356 70.4097 50.5195C70.6419 50.2923 70.657 49.9222 70.445 49.6765L65.4227 43.8566C64.7345 43.0591 63.7368 42.6031 62.6852 42.6031H55.2298C54.1783 42.6031 53.1788 43.0608 52.4923 43.8566L47.6719 49.4426C47.3707 49.7909 47.406 50.3243 47.7526 50.6288C47.9259 50.7819 48.148 50.856 48.3802 50.8375C48.6107 50.819 48.8194 50.7113 48.9657 50.5312L52.3325 46.441C52.6034 46.1112 53.051 45.9884 53.4531 46.1331C53.8535 46.2761 54.121 46.658 54.121 47.0837V67.466C54.121 68.0532 54.5989 68.5327 55.1861 68.5327C55.7733 68.5327 56.2511 68.0549 56.2511 67.466V58.9456C56.2511 57.4549 57.4643 56.2418 58.955 56.2418H58.9583Z" fill="#264964"/>
<path d="M80.9659 39.8354C77.7388 39.8354 75.1141 37.2106 75.1141 33.9835C75.1141 30.7564 77.7388 28.1333 80.9659 28.1333C84.1931 28.1333 86.8178 30.7581 86.8178 33.9852C86.8178 37.2123 84.1931 39.837 80.9659 39.837V39.8354ZM80.9659 30.1523C78.8527 30.1523 77.1331 31.8719 77.1331 33.9852C77.1331 36.0984 78.8527 37.818 80.9659 37.818C83.0792 37.818 84.7988 36.0984 84.7988 33.9852C84.7988 31.8719 83.0792 30.1523 80.9659 30.1523Z" fill="#264964"/>
<path d="M93.5984 49.0187L88.5761 43.1988C87.6978 42.1809 86.419 41.5953 85.0747 41.5953H77.6194C76.275 41.5953 74.9963 42.1809 74.118 43.1988L69.2975 48.7848C68.6329 49.5537 68.712 50.7147 69.4742 51.3877C70.2616 52.0826 71.468 51.9867 72.1343 51.1757L75.5011 47.0855V53.7248L72.1562 58.6226C71.9559 58.9137 72.1663 59.3108 72.5196 59.3108H75.5011V67.4004C75.5011 68.5429 76.3945 69.5238 77.5369 69.544C78.7012 69.5659 79.6519 68.6287 79.6519 67.4694V61.0068C79.6519 60.0713 80.4107 59.3125 81.3462 59.3125C82.2817 59.3125 83.0405 60.0713 83.0405 61.0068V67.4021C83.0405 68.5446 83.9339 69.5255 85.0764 69.5457C86.2407 69.5675 87.1913 68.6304 87.1913 67.4711V59.3125H90.2552C90.6086 59.3125 90.8189 58.9171 90.6187 58.6243L87.2738 53.7264H87.193V47.0871L91.2008 51.2161C91.8284 51.8639 92.8648 51.8756 93.5076 51.243C94.12 50.6423 94.1587 49.6698 93.5984 49.0204V49.0187Z" fill="#F4F0BB"/>
<path d="M77.5773 70.5518C77.5571 70.5518 77.5386 70.5518 77.5184 70.5518C75.8494 70.5215 74.4915 69.1065 74.4915 67.3987V60.3186H72.5196C71.9812 60.3186 71.4899 60.0225 71.2375 59.5446C70.9851 59.0685 71.0188 58.4947 71.3233 58.0505L74.4915 53.4118V49.9003L72.9133 51.8167C72.4153 52.4224 71.7103 52.7892 70.9279 52.8515C70.1489 52.9154 69.3918 52.6614 68.8046 52.1431C67.6335 51.1084 67.5124 49.3064 68.532 48.1236L73.3525 42.5375C74.4242 41.2958 75.9789 40.5841 77.6194 40.5841H85.0747C86.7152 40.5841 88.2699 41.2958 89.3416 42.5375L94.364 48.3574C95.2692 49.4057 95.2036 50.9889 94.2159 51.9598C93.7112 52.4544 93.0449 52.7203 92.3365 52.7152C91.6299 52.7068 90.9686 52.4224 90.4773 51.916L88.2042 49.5739V53.2923L91.4549 58.0505C91.7594 58.4947 91.7914 59.0668 91.5407 59.5446C91.2883 60.0208 90.797 60.3186 90.2586 60.3186H88.2042V67.4677C88.2042 68.3022 87.8761 69.0846 87.2805 69.6685C86.6849 70.254 85.8958 70.5686 85.0612 70.5518C83.3922 70.5215 82.0327 69.1065 82.0327 67.3987V61.0034C82.0327 60.6248 81.7248 60.3186 81.3479 60.3186C80.971 60.3186 80.6631 60.6265 80.6631 61.0034V67.466C80.6631 68.3006 80.335 69.0829 79.7394 69.6668C79.1572 70.2372 78.3933 70.5501 77.579 70.5501L77.5773 70.5518ZM73.5981 58.2996H75.5011C76.058 58.2996 76.5106 58.7522 76.5106 59.3091V67.3987C76.5106 68.0145 76.98 68.5227 77.5554 68.5328C77.8432 68.5412 78.1174 68.4301 78.3227 68.2282C78.528 68.0263 78.6424 67.7554 78.6424 67.4677V61.0051C78.6424 59.5143 79.8555 58.3012 81.3462 58.3012C82.8369 58.3012 84.05 59.5143 84.05 61.0051V67.4004C84.05 68.0162 84.5195 68.5243 85.0949 68.5344C85.3809 68.5412 85.6569 68.4318 85.8621 68.2299C86.0674 68.028 86.1818 67.7571 86.1818 67.4694V59.3108C86.1818 58.7538 86.6344 58.3012 87.1913 58.3012H89.1751L86.6176 54.5559C86.3534 54.3742 86.1818 54.0697 86.1818 53.7247V47.0854C86.1818 46.6749 86.4308 46.3047 86.8128 46.1499C87.193 45.9952 87.6305 46.0877 87.9165 46.3821L91.9243 50.5111C92.0387 50.6305 92.1935 50.6962 92.3601 50.6978C92.525 50.6978 92.6815 50.6373 92.7992 50.5212C93.0314 50.294 93.0466 49.9239 92.8346 49.6782L87.8122 43.8583C87.1257 43.0608 86.1263 42.6048 85.0747 42.6048H77.6194C76.5678 42.6048 75.5684 43.0625 74.8819 43.8583L70.0614 49.4444C69.7602 49.7926 69.7956 50.326 70.1422 50.6305C70.3155 50.7837 70.5376 50.8577 70.7698 50.8392C71.0003 50.8207 71.2089 50.713 71.3553 50.533L74.722 46.4427C74.9929 46.1129 75.4405 45.9901 75.8426 46.1348C76.2431 46.2778 76.5106 46.6598 76.5106 47.0854V53.7247C76.5106 53.9283 76.45 54.1269 76.3339 54.2934L73.5981 58.2996Z" fill="#264964"/>
<path d="M80.9659 82.9218C77.7388 82.9218 75.1141 80.297 75.1141 77.0699C75.1141 73.8428 77.7388 71.218 80.9659 71.218C84.1931 71.218 86.8178 73.8428 86.8178 77.0699C86.8178 80.297 84.1931 82.9218 80.9659 82.9218ZM80.9659 73.2387C78.8527 73.2387 77.1331 74.9583 77.1331 77.0716C77.1331 79.1848 78.8527 80.9044 80.9659 80.9044C83.0792 80.9044 84.7988 79.1848 84.7988 77.0716C84.7988 74.9583 83.0792 73.2387 80.9659 73.2387Z" fill="#264964"/>
<path d="M93.5984 92.105L88.5761 86.2851C87.6978 85.2672 86.419 84.6816 85.0747 84.6816H77.6194C76.275 84.6816 74.9963 85.2672 74.118 86.2851L69.2975 91.8711C68.6329 92.6401 68.712 93.801 69.4742 94.474C70.2616 95.1689 71.468 95.073 72.1343 94.262L75.5011 90.1718V96.8111L72.1562 101.709C71.9559 102 72.1663 102.397 72.5196 102.397H75.5011V110.487C75.5011 111.629 76.3945 112.61 77.5369 112.63C78.7012 112.652 79.6519 111.715 79.6519 110.556V104.093C79.6519 103.158 80.4107 102.399 81.3462 102.399C82.2817 102.399 83.0405 103.158 83.0405 104.093V110.488C83.0405 111.631 83.9339 112.612 85.0764 112.632C86.2407 112.654 87.1913 111.717 87.1913 110.557V102.399H90.2552C90.6086 102.399 90.8189 102.003 90.6187 101.711L87.2738 96.8127H87.193V90.1734L91.2008 94.3024C91.8284 94.9502 92.8648 94.962 93.5076 94.3293C94.12 93.7287 94.1587 92.7561 93.5984 92.1067V92.105Z" fill="#F4F0BB"/>
<path d="M77.5773 113.638C77.5571 113.638 77.5386 113.638 77.5184 113.638C75.8494 113.608 74.4915 112.193 74.4915 110.485V103.405H72.5196C71.9795 103.405 71.4899 103.109 71.2375 102.631C70.9851 102.153 71.0188 101.581 71.3233 101.137L74.4915 96.4982V92.9868L72.9133 94.9032C72.4153 95.5089 71.7103 95.8757 70.9279 95.9379C70.1455 96.0002 69.3918 95.7478 68.8046 95.2296C67.6335 94.1965 67.5124 92.3928 68.532 91.21L73.3525 85.624C74.4242 84.3822 75.9789 83.6705 77.6194 83.6705H85.0747C86.7152 83.6705 88.2699 84.3822 89.3416 85.624L94.364 91.4439C95.2692 92.4921 95.2036 94.0754 94.2159 95.0462C93.7112 95.5425 93.0415 95.8084 92.3382 95.8016C91.6316 95.7932 90.9703 95.5089 90.479 95.0024L88.2059 92.6603V96.3787L91.4566 101.137C91.7611 101.581 91.7931 102.153 91.5424 102.631C91.2917 103.109 90.7987 103.405 90.2603 103.405H88.2059V110.554C88.2059 111.389 87.8778 112.171 87.2822 112.755C86.6866 113.34 85.8941 113.657 85.0629 113.638C83.3939 113.608 82.036 112.193 82.036 110.485V104.092C82.036 103.713 81.7281 103.407 81.3513 103.407C80.9744 103.407 80.6665 103.715 80.6665 104.092V110.554C80.6665 111.389 80.3384 112.171 79.7427 112.755C79.1606 113.325 78.3967 113.638 77.5824 113.638H77.5773ZM73.5981 101.386H75.5011C76.058 101.386 76.5106 101.839 76.5106 102.396V110.485C76.5106 111.101 76.98 111.609 77.5554 111.619C77.8448 111.626 78.1174 111.517 78.3227 111.315C78.528 111.113 78.6424 110.842 78.6424 110.554V104.092C78.6424 102.601 79.8555 101.388 81.3462 101.388C82.8369 101.388 84.05 102.601 84.05 104.092V110.485C84.05 111.101 84.5195 111.609 85.0949 111.619C85.3877 111.626 85.6569 111.517 85.8621 111.315C86.0674 111.113 86.1818 110.842 86.1818 110.554V102.396C86.1818 101.839 86.6344 101.386 87.1913 101.386H89.1751L86.6176 97.6407C86.3551 97.4589 86.1818 97.1544 86.1818 96.8095V90.1702C86.1818 89.7596 86.4308 89.3895 86.8128 89.2347C87.193 89.0799 87.6305 89.1724 87.9165 89.4669L91.9243 93.5958C92.0387 93.7153 92.1935 93.7809 92.3601 93.7826C92.525 93.7775 92.6815 93.722 92.7992 93.6059C93.0314 93.3788 93.0466 93.0086 92.8346 92.763L87.8122 86.9431C87.1257 86.1455 86.1263 85.6896 85.0747 85.6896H77.6194C76.5678 85.6896 75.5684 86.1472 74.8819 86.9431L70.0614 92.5291C69.7602 92.8774 69.7956 93.4108 70.1422 93.7153C70.3155 93.8684 70.5393 93.9424 70.7698 93.9239C71.0003 93.9054 71.2089 93.7977 71.3553 93.6177L74.722 89.5275C74.9929 89.1977 75.4405 89.0748 75.8426 89.2195C76.2431 89.3626 76.5106 89.7428 76.5106 90.1702V96.8095C76.5106 97.0131 76.45 97.2116 76.3339 97.3782L73.5981 101.384V101.386Z" fill="#264964"/>
<path d="M58.1255 82.9218C54.8984 82.9218 52.2736 80.297 52.2736 77.0699C52.2736 73.8428 54.8984 71.218 58.1255 71.218C61.3526 71.218 63.9774 73.8428 63.9774 77.0699C63.9774 80.297 61.3526 82.9218 58.1255 82.9218ZM58.1255 73.2387C56.0122 73.2387 54.2927 74.9583 54.2927 77.0716C54.2927 79.1848 56.0122 80.9044 58.1255 80.9044C60.2388 80.9044 61.9583 79.1848 61.9583 77.0716C61.9583 74.9583 60.2388 73.2387 58.1255 73.2387Z" fill="#264964"/>
<path d="M70.758 92.105L65.7356 86.2851C64.8573 85.2672 63.5786 84.6816 62.2342 84.6816H54.7789C53.4346 84.6816 52.1558 85.2672 51.2776 86.2851L46.4571 91.8711C45.7925 92.6401 45.8716 93.801 46.6337 94.474C47.4212 95.1689 48.6276 95.073 49.2938 94.262L52.6606 90.1718V96.8111L49.3157 101.709C49.1155 102 49.3258 102.397 49.6791 102.397H52.6606V110.487C52.6606 111.629 53.554 112.61 54.6965 112.63C55.8608 112.652 56.8114 111.715 56.8114 110.556V104.093C56.8114 103.158 57.5702 102.399 58.5057 102.399C59.4412 102.399 60.2001 103.158 60.2001 104.093V110.488C60.2001 111.631 61.0935 112.612 62.2359 112.632C63.4002 112.654 64.3509 111.717 64.3509 110.557V102.399H67.4148C67.7681 102.399 67.9784 102.003 67.7782 101.711L64.4333 96.8127H64.3526V90.1734L68.3604 94.3024C68.988 94.9502 70.0244 94.962 70.6671 94.3293C71.2796 93.7287 71.3183 92.7561 70.758 92.1067V92.105Z" fill="#F4F0BB"/>
<path d="M54.7369 113.638C54.7167 113.638 54.6982 113.638 54.678 113.638C53.0089 113.608 51.6511 112.193 51.6511 110.485V103.405H49.6792C49.1391 103.405 48.6494 103.109 48.3971 102.631C48.1447 102.153 48.1783 101.581 48.4829 101.137L51.6511 96.4982V92.9868L50.0729 94.9032C49.5748 95.5089 48.8698 95.8757 48.0875 95.9379C47.3034 96.0002 46.5513 95.7478 45.9641 95.2296C44.7931 94.1948 44.6719 92.3928 45.6915 91.21L50.512 85.624C51.5838 84.3822 53.1384 83.6705 54.7789 83.6705H62.2343C63.8747 83.6705 65.4294 84.3822 66.5012 85.624L71.5235 91.4439C72.4288 92.4921 72.3631 94.0754 71.3755 95.0462C70.8707 95.5408 70.2078 95.8084 69.4978 95.8016C68.7911 95.7932 68.1299 95.5089 67.6369 95.0024L65.3638 92.6603V96.3787L68.6144 101.137C68.919 101.581 68.9509 102.153 68.7002 102.631C68.4496 103.109 67.9566 103.405 67.4182 103.405H65.3638V110.554C65.3638 111.389 65.0357 112.171 64.4401 112.755C63.8444 113.34 63.052 113.657 62.2208 113.638C60.5517 113.608 59.1939 112.193 59.1939 110.485V104.092C59.1939 103.713 58.886 103.407 58.5091 103.407C58.1322 103.407 57.8243 103.715 57.8243 104.092V110.554C57.8243 111.389 57.4962 112.171 56.9006 112.755C56.3184 113.325 55.5546 113.638 54.7402 113.638H54.7369ZM50.7577 101.386H52.6606C53.2175 101.386 53.6701 101.839 53.6701 102.396V110.485C53.6701 111.101 54.1396 111.609 54.715 111.619C55.0061 111.626 55.277 111.517 55.4822 111.315C55.6875 111.113 55.8019 110.842 55.8019 110.554V104.092C55.8019 102.601 57.015 101.388 58.5057 101.388C59.9965 101.388 61.2096 102.601 61.2096 104.092V110.485C61.2096 111.101 61.679 111.609 62.2544 111.619C62.5472 111.626 62.8164 111.517 63.0217 111.315C63.227 111.113 63.3414 110.842 63.3414 110.554V102.396C63.3414 101.839 63.794 101.386 64.3509 101.386H66.3346L63.7771 97.6407C63.5147 97.4589 63.3414 97.1544 63.3414 96.8095V90.1702C63.3414 89.7596 63.5904 89.3895 63.9723 89.2347C64.3526 89.0799 64.79 89.1724 65.0761 89.4669L69.0839 93.5958C69.1983 93.7153 69.3531 93.7809 69.5196 93.7826H69.5264C69.6896 93.7826 69.8427 93.7203 69.9588 93.6059C70.191 93.3788 70.2061 93.0086 69.9941 92.763L64.9717 86.9431C64.2853 86.1455 63.2858 85.6896 62.2343 85.6896H54.7789C53.7273 85.6896 52.7279 86.1472 52.0414 86.9431L47.221 92.5291C46.9198 92.8774 46.9551 93.4108 47.3017 93.7153C47.475 93.8684 47.6988 93.9424 47.9293 93.9239C48.1598 93.9054 48.3685 93.7977 48.5148 93.6177L51.8816 89.5275C52.1525 89.1977 52.6 89.0748 53.0022 89.2195C53.4026 89.3626 53.6701 89.7428 53.6701 90.1702V96.8095C53.6701 97.0131 53.6096 97.2116 53.4935 97.3782L50.7577 101.384V101.386Z" fill="#264964"/>
</g>
<defs>
<clipPath id="clip0_66_257">
<rect width="50" height="85.5049" fill="white" transform="translate(45 28.1333)"/>
</clipPath>
</defs>
</svg>
