<svg width="160" height="160" viewBox="0 0 160 160" fill="none" xmlns="http://www.w3.org/2000/svg">
<rect width="160" height="160" rx="80" fill="#F4F0BB"/>
<g clip-path="url(#clip0_66_166)">
<path d="M104.182 125.129V110.552C104.182 107.408 105.536 104.437 107.837 102.296C115.979 94.7271 121.133 82.2281 121.133 70.6086C121.133 49.37 103.918 34.8707 82.6794 34.8707C61.4408 34.8707 45.6702 50.6824 44.3168 70.6907C44.1892 72.5543 43.8156 74.3861 43.1366 76.1268L39.1587 86.3656C38.1471 88.972 39.9242 91.8199 42.7129 92.0523L48.6274 92.5444C49.4066 92.6082 50.0309 93.2051 50.1357 93.9798L50.5184 95.4379L50.8784 98.8189L51.7761 107.331C51.7898 107.481 51.8171 107.627 51.849 107.777L52.168 109.267C52.3502 110.648 53.535 111.673 54.9247 111.66L59.6682 111.505C65.3732 111.318 70.0984 115.893 70.0984 121.602V125.129" fill="white"/>
<path d="M104.182 126.496C103.426 126.496 102.815 125.886 102.815 125.129V110.548C102.815 107.08 104.305 103.708 106.907 101.289C114.722 94.0254 119.771 81.9821 119.771 70.6041C119.771 60.8939 115.929 52.0767 108.958 45.7885C102.132 39.6279 92.7996 36.2378 82.6838 36.2378C63.2405 36.2378 46.9869 51.4115 45.6792 70.7864C45.5379 72.8551 45.1141 74.8236 44.4124 76.6281L40.4344 86.8669C40.1109 87.7053 40.1975 88.6212 40.6714 89.3822C41.1453 90.1431 41.9336 90.6216 42.8267 90.699L48.7412 91.1912C50.1128 91.3051 51.252 92.3577 51.4752 93.711L51.8398 95.1008C51.858 95.1691 51.8717 95.2375 51.8762 95.3058L53.1339 107.203C53.143 107.304 53.1612 107.404 53.184 107.504L53.5029 108.994C53.5121 109.03 53.5166 109.067 53.5212 109.099C53.6123 109.791 54.2138 110.306 54.911 110.306L59.6225 110.151C62.753 110.038 65.7194 111.195 67.9704 113.373C70.2213 115.551 71.4608 118.481 71.4608 121.611V125.138C71.4608 125.895 70.8502 126.505 70.0938 126.505C69.3373 126.505 68.7268 125.895 68.7268 125.138V121.611C68.7268 119.224 67.7835 116.996 66.0657 115.337C64.3524 113.678 62.0968 112.808 59.7091 112.881L54.9656 113.036C54.9656 113.036 54.9383 113.036 54.9246 113.036C52.8513 113.036 51.1153 111.532 50.8145 109.513L50.5047 108.074C50.4637 107.878 50.4318 107.682 50.409 107.486L49.165 95.6977L48.805 94.3398C48.7914 94.2851 48.7777 94.2259 48.7731 94.1712C48.7549 94.0345 48.641 93.9297 48.5088 93.916L42.5943 93.4239C40.8309 93.2781 39.2862 92.3303 38.3475 90.8312C37.4088 89.332 37.2402 87.5276 37.8827 85.8781L41.8607 75.6393C42.4622 74.0945 42.8267 72.3995 42.9497 70.6041C44.3577 49.7984 61.8097 33.5038 82.6793 33.5038C93.474 33.5038 103.458 37.1446 110.785 43.7608C118.34 50.5776 122.5 60.1101 122.5 70.6087C122.5 82.7112 117.109 95.5428 108.766 103.294C106.72 105.194 105.545 107.841 105.545 110.548V125.129C105.545 125.886 104.934 126.496 104.178 126.496H104.182Z" fill="#264964"/>
<path d="M89.9062 84.3744C88.8171 84.4245 86.393 83.5359 85.5773 84.2331C85.2219 84.5384 85.1855 85.4178 85.0305 85.8553C84.7389 86.6709 84.3243 87.4319 83.7911 88.1154C83.4175 88.5938 82.7021 89.054 82.4378 89.6054C82.1188 90.2616 82.374 90.9405 82.2829 91.6377C82.1052 93.0183 81.1756 94.1119 79.9453 94.6906C79.2345 95.0233 77.585 95.7478 78.4279 94.5904C79.2117 93.515 80.9159 93.4148 80.843 91.6696C80.7792 90.1157 78.9064 91.1091 77.9632 91.5192C76.6053 92.107 75.416 93.2052 74.8874 94.6177C74.3771 95.9802 75.0241 97.2925 74.7826 98.6777C74.7006 99.1425 73.2607 102.25 72.8734 101.052C72.6774 100.45 74.4728 98.7962 73.5295 98.1127C72.9144 97.6707 71.2785 99.6574 70.6497 100.017C69.4149 100.728 68.0843 100.997 66.6854 101.179C65.323 101.357 63.9605 102.391 62.5799 102.118C62.2244 102.045 61.2129 101.744 61.7004 101.28C61.8143 101.17 62.5799 101.43 62.7166 101.398C64.48 100.993 62.2609 100.222 61.6868 99.8533C61.1445 99.5025 59.1943 98.0808 60.7071 98.1309C61.026 98.14 61.8235 98.9466 62.0969 99.1015C62.8214 99.507 63.6051 99.7941 64.4208 99.949C67.0135 100.441 69.7429 99.5708 71.5428 97.6388C72.928 96.1533 75.5572 91.5967 71.798 91.3871C71.5246 91.3734 68.4443 92.0751 69.2417 90.8676C69.4878 90.4939 70.3626 90.9952 70.3718 90.3162C70.3809 89.7694 69.2007 89.8105 68.8772 89.774C68.6311 89.7512 67.4555 89.8469 67.3689 89.4368C67.2641 88.9629 68.4853 88.89 68.6858 88.8672C70.4811 88.6758 71.8299 89.4323 73.2971 90.3208C74.8965 91.2914 75.5345 90.8357 77.0974 90.0656C78.4735 89.3912 80.0091 89.0495 81.2029 88.0425C82.292 87.1266 84.9804 81.7269 81.4718 82.9663C79.9635 83.4995 78.9064 84.4609 77.2341 84.7298C75.4752 85.0123 73.7209 84.7981 71.9939 84.4199C69.4786 83.8686 68.1754 83.1759 66.1614 85.0123C65.3184 85.7824 64.1428 86.9762 62.8669 86.8167C60.8893 86.5707 63.473 85.9783 63.9514 85.6274C65.8333 84.2559 63.5276 84.748 63.432 83.9278C63.3363 83.1122 66.7857 83.6544 66.011 82.8843C65.2774 82.1553 62.4477 82.4241 61.5045 82.5654C60.7754 82.6747 57.9184 84.183 57.6906 83.4904C57.3807 82.5699 60.5521 81.7497 61.1536 81.5447C61.3723 81.4718 62.0103 81.4535 62.065 81.1801C62.2244 80.4009 61.1172 80.9751 61.0124 80.5832C60.7618 79.6445 62.6892 79.9863 63.2041 80.2096C63.8922 80.5103 64.2567 81.0662 64.9812 81.3168C65.847 81.6176 66.9087 81.6312 67.8155 81.8272C71.0826 82.5289 74.7963 83.8184 78.068 82.4833C78.5601 82.2828 79.558 81.9548 79.5625 81.3214C79.5625 80.6197 78.8563 80.5969 78.3368 80.6242C77.4483 80.6743 76.6007 81.1391 75.6803 81.1619C74.8099 81.1847 73.9533 80.9933 73.1331 80.7199C71.5155 80.1731 70.2214 79.4805 68.5309 79.1934C66.2981 78.8198 69.4103 78.3094 70.2487 78.3869C70.8502 78.4461 73.0374 79.4395 72.559 78.2456C72.4405 77.9495 71.7251 77.831 71.7251 77.4847C71.7296 76.7283 73.0739 77.4391 73.3245 77.6168C74.3087 78.314 74.573 79.5078 76.0266 79.3347C78.1363 79.0886 77.0564 77.2432 77.1111 75.8534C77.1657 74.4089 77.8082 73.1331 78.7196 72.0349C80.1504 70.3034 78.0361 70.7682 76.5962 70.7636C73.5614 70.7499 70.5996 69.8204 68.3167 67.7653C67.3051 66.8585 66.6444 65.6692 65.2273 65.3822C63.7145 65.0769 61.8462 65.9928 60.4154 65.3503C58.7659 64.6121 61.1719 65.0176 61.5182 64.7123C61.8052 64.4572 61.5911 63.9058 61.7824 63.7691C62.27 63.4319 62.7895 64.1792 63.3408 64.3205C64.6714 64.6622 65.5098 64.2157 64.963 62.9261C64.4253 61.6594 63.0765 61.2447 62.5434 60.0281C62.3156 59.5086 62.2381 56.7838 63.1267 57.6723C63.3682 57.9093 62.8943 60.6706 64.2157 59.8823C64.9767 59.4312 64.0744 56.5331 64.6896 55.7175C65.6647 54.4234 65.1544 57.3943 65.1498 58.0004C65.1134 63.9195 70.0072 69.105 76.0311 69.0138C77.6624 68.9911 79.2254 68.6311 80.8612 68.9227C82.7158 69.2508 83.8321 68.7404 85.6457 68.3121C88.9812 67.5238 92.4442 67.6286 95.6977 68.7359C98.4909 69.6837 101.471 71.3651 102.428 74.3588C103.453 77.5621 101.384 80.4511 98.7598 82.0869C96.2445 83.6544 92.8452 84.5156 89.8925 84.3652L89.9062 84.3744Z" fill="#C3DCD9"/>
<path d="M65.0906 55.4076C65.5144 55.4076 65.1681 57.5128 65.1635 58.014C65.1316 63.883 69.9389 69.0275 75.8854 69.0275C75.9355 69.0275 75.9902 69.0275 76.0449 69.0275C77.2114 69.0093 78.3369 68.8224 79.4851 68.8224C79.9454 68.8224 80.4056 68.8543 80.8749 68.9364C81.2896 69.0093 81.6678 69.0412 82.0232 69.0412C83.2626 69.0412 84.2514 68.6584 85.6594 68.3258C87.0902 67.9886 88.5483 67.8154 90.0019 67.8154C91.9294 67.8154 93.8523 68.1207 95.7069 68.7495C98.5001 69.6973 101.48 71.3787 102.437 74.3725C103.462 77.5758 101.394 80.4647 98.7689 82.1006C96.445 83.5496 93.3647 84.3971 90.5806 84.3971C90.3528 84.3971 90.1249 84.3926 89.9017 84.3789C89.8743 84.3789 89.8424 84.3789 89.8105 84.3789C89.0131 84.3789 87.6188 83.9688 86.589 83.9688C86.1652 83.9688 85.8007 84.0371 85.5728 84.2376C85.2174 84.5429 85.181 85.4224 85.026 85.8598C84.7344 86.6755 84.3198 87.4364 83.7866 88.1199C83.413 88.5984 82.6976 89.0586 82.4333 89.6099C82.1143 90.2661 82.3695 90.945 82.2784 91.6422C82.1007 93.0229 81.1711 94.1165 79.9408 94.6952C79.5216 94.8911 78.7743 95.2238 78.4052 95.2238C78.15 95.2238 78.0817 95.0643 78.4234 94.5904C79.2072 93.515 80.9114 93.4148 80.8385 91.6696C80.8111 91.0362 80.4876 90.8266 80.0502 90.8266C79.4077 90.8266 78.5191 91.2731 77.9632 91.5146C76.6053 92.1024 75.416 93.2006 74.8875 94.6132C74.3771 95.9756 75.0242 97.2879 74.7827 98.6731C74.7143 99.065 73.6891 101.321 73.1331 101.321C73.0283 101.321 72.9372 101.239 72.878 101.047C72.682 100.446 74.4774 98.7916 73.5341 98.1081C73.4749 98.0626 73.402 98.0443 73.3245 98.0443C72.6046 98.0443 71.2239 99.6893 70.6589 100.013C69.424 100.724 68.0935 100.992 66.6946 101.175C65.4916 101.334 64.2841 102.159 63.072 102.159C62.9126 102.159 62.7531 102.145 62.589 102.113C62.2336 102.041 61.222 101.74 61.7096 101.275C61.7278 101.257 61.7688 101.248 61.819 101.248C62.0513 101.248 62.5343 101.398 62.6938 101.398C62.7075 101.398 62.7166 101.398 62.7212 101.398C64.4846 100.992 62.2655 100.222 61.6914 99.8533C61.1582 99.5116 59.2672 98.1309 60.6388 98.1309C60.6616 98.1309 60.6889 98.1309 60.7117 98.1309C61.0306 98.14 61.8281 98.9466 62.1015 99.1015C62.826 99.507 63.6097 99.7941 64.4254 99.949C64.9038 100.04 65.3823 100.086 65.8653 100.086C67.9932 100.086 70.0802 99.2154 71.552 97.6388C72.9372 96.1533 75.5619 91.5966 71.8072 91.387C71.8072 91.387 71.8026 91.387 71.798 91.387C71.6249 91.387 70.6953 91.5784 69.9799 91.5784C69.3466 91.5784 68.8818 91.4281 69.2509 90.8676C69.4969 90.4939 70.3718 90.9952 70.3809 90.3162C70.39 89.7694 69.2099 89.8104 68.8863 89.774C68.6403 89.7512 67.4647 89.8469 67.3781 89.4368C67.2733 88.9629 68.4945 88.89 68.695 88.8672C68.8818 88.849 69.0686 88.8399 69.2463 88.8399C70.7728 88.8399 71.994 89.5279 73.3017 90.3208C73.9488 90.7127 74.4364 90.8721 74.892 90.8721C75.5664 90.8721 76.1679 90.5258 77.102 90.0656C78.4781 89.3912 80.0137 89.0495 81.2076 88.0379C82.1872 87.2131 84.4519 82.7795 82.3649 82.7795C82.128 82.7795 81.8364 82.8387 81.4764 82.9618C79.9681 83.4949 78.911 84.4564 77.2387 84.7252C76.6782 84.8163 76.1178 84.8573 75.5573 84.8573C74.3634 84.8573 73.1742 84.6751 71.9985 84.4199C70.7136 84.1374 69.7475 83.8184 68.8362 83.8184C67.9659 83.8184 67.1502 84.1101 66.166 85.0123C65.3732 85.7368 64.2887 86.8304 63.1039 86.8304C63.0265 86.8304 62.949 86.8258 62.8715 86.8167C60.8939 86.5706 63.4776 85.9783 63.956 85.6274C65.8379 84.2559 63.5323 84.748 63.4366 83.9278C63.3409 83.1121 66.7903 83.6544 66.0156 82.8843C65.6374 82.5107 64.7124 82.3967 63.7692 82.3967C62.8761 82.3967 61.9693 82.497 61.5091 82.5653C60.9167 82.6519 58.9072 83.6726 58.0597 83.6726C57.8683 83.6726 57.7362 83.6225 57.6906 83.4949C57.3808 82.5745 60.5522 81.7543 61.1537 81.5492C61.3724 81.4763 62.0103 81.4581 62.065 81.1847C62.147 80.7837 61.8919 80.7427 61.6093 80.7427C61.5364 80.7427 61.4635 80.7427 61.3952 80.7427C61.2084 80.7427 61.0489 80.7245 61.0124 80.5878C60.8848 80.1139 61.3223 79.9635 61.8463 79.9635C62.3703 79.9635 62.9536 80.1002 63.2042 80.2095C63.8922 80.5103 64.2568 81.0662 64.9813 81.3168C65.847 81.6176 66.9087 81.6312 67.8155 81.8272C70.0528 82.3056 72.4998 83.062 74.8738 83.062C75.9628 83.062 77.0382 82.9025 78.068 82.4833C78.5601 82.2828 79.558 81.9548 79.5626 81.3214C79.5626 80.7245 79.0523 80.6151 78.5784 80.6151C78.4963 80.6151 78.4143 80.6151 78.3369 80.6242C77.4483 80.6743 76.6008 81.1391 75.6803 81.1619C75.6348 81.1619 75.5892 81.1619 75.5436 81.1619C74.7234 81.1619 73.9123 80.9796 73.1377 80.7153C71.5201 80.1685 70.226 79.4759 68.5355 79.1889C66.4622 78.8425 68.9957 78.3778 70.0392 78.3778C70.1212 78.3778 70.1895 78.3778 70.2533 78.3869C70.6315 78.4233 71.6386 78.8334 72.2127 78.8334C72.5499 78.8334 72.7413 78.6922 72.5636 78.2502C72.4451 77.954 71.7297 77.8355 71.7297 77.4892C71.7297 77.2386 71.8846 77.1475 72.0942 77.1475C72.5134 77.1475 73.165 77.5029 73.3291 77.6214C74.2495 78.273 74.5412 79.3574 75.7623 79.3574C75.8489 79.3574 75.9401 79.3529 76.0357 79.3392C78.1455 79.0932 77.0655 77.2477 77.1202 75.8579C77.1749 74.4135 77.8174 73.1376 78.7287 72.0394C79.6628 70.9094 79.0842 70.7135 78.1728 70.7135C77.6989 70.7135 77.1293 70.7681 76.6372 70.7681C76.6281 70.7681 76.6144 70.7681 76.6053 70.7681C73.5706 70.7545 70.6088 69.8249 68.3259 67.7699C67.3143 66.8631 66.6536 65.6738 65.2365 65.3867C65.0086 65.3412 64.7717 65.3229 64.5302 65.3229C63.6052 65.3229 62.6073 65.5872 61.6777 65.5872C61.2403 65.5872 60.8165 65.528 60.4246 65.3548C58.7751 64.6166 61.181 65.0222 61.5273 64.7169C61.8144 64.4617 61.6002 63.9104 61.7916 63.7737C61.8782 63.7144 61.9693 63.6871 62.0605 63.6871C62.4706 63.6871 62.8989 64.2111 63.35 64.325C63.6371 64.3979 63.9013 64.4344 64.1292 64.4344C64.9722 64.4344 65.4005 63.9423 64.9722 62.9261C64.4345 61.6594 63.0857 61.2447 62.5526 60.0281C62.3566 59.5815 62.2701 57.4991 62.8214 57.4991C62.908 57.4991 63.0128 57.5538 63.1358 57.6768C63.3454 57.8865 63.0082 60.0281 63.8102 60.0281C63.9241 60.0281 64.0608 59.9871 64.2249 59.8868C64.9858 59.4357 64.0836 56.5377 64.6988 55.722C64.8719 55.4942 64.9949 55.3985 65.0861 55.3985M65.0906 53.585C64.3935 53.585 63.7738 53.9358 63.2452 54.633C63.0037 54.9565 62.8533 55.3074 62.7622 55.6856C62.0878 55.7038 61.4635 56.0592 61.0808 56.647C60.3016 57.8409 60.5932 60.1055 60.8803 60.7708C61.0808 61.2265 61.3359 61.6001 61.6093 61.9191C61.304 61.9783 61.0124 62.1059 60.7481 62.2882C60.4201 62.516 60.215 62.7985 60.0874 63.0719C59.3766 63.1403 58.3058 63.4091 58.0643 64.6349C57.8638 65.6556 58.406 66.4575 59.6773 67.0271C60.2697 67.2914 60.9213 67.419 61.6731 67.419C62.2655 67.419 62.8442 67.337 63.3545 67.2686C63.7874 67.2094 64.193 67.1547 64.5302 67.1547C64.6669 67.1547 64.7853 67.1638 64.8765 67.182C65.3048 67.2686 65.6283 67.6013 66.2116 68.2255C66.4713 68.508 66.772 68.827 67.1092 69.1369C69.5152 71.3013 72.6456 72.4951 76.1861 72.5954C75.6439 73.6343 75.3477 74.7051 75.3067 75.8033C75.2885 76.2589 75.3431 76.6918 75.4069 77.0882C75.1472 76.7966 74.8282 76.4549 74.3953 76.145C74.3862 76.1359 73.2425 75.3385 72.1079 75.3385C71.2057 75.3385 70.4584 75.8306 70.1212 76.5733C70.0984 76.5733 70.0802 76.5733 70.0574 76.5733C69.5562 76.5733 68.8772 76.6462 68.2849 76.7602C67.7381 76.865 66.0749 77.193 65.9427 78.7514C65.9199 79.0294 65.9427 79.3893 66.1159 79.7448C65.9199 79.7083 65.7422 79.6673 65.5919 79.6172C65.4916 79.5807 65.3458 79.4668 65.159 79.3256C64.8719 79.1023 64.4755 78.7924 63.9469 78.56C63.4047 78.3231 62.548 78.159 61.86 78.159C60.6251 78.159 59.9644 78.674 59.6318 79.1068C59.3675 79.4486 59.2171 79.8541 59.1852 80.287C57.6086 80.8384 56.5833 81.4171 56.1095 82.3421C55.8269 82.8934 55.7768 83.5131 55.9728 84.0918C56.2051 84.7799 56.875 85.5135 58.0688 85.5135C58.8662 85.5135 59.773 85.1763 60.9714 84.7024C61.1992 84.6113 61.4863 84.4974 61.6823 84.429C61.7005 84.4974 61.7187 84.5657 61.7369 84.6295C60.9623 85.0123 60.1877 85.6365 60.3335 86.803C60.4611 87.8465 61.2448 88.4662 62.6528 88.6439C62.8032 88.6622 62.9581 88.6713 63.1085 88.6713C64.9129 88.6713 66.2936 87.3909 67.2095 86.5479L67.3963 86.3747C68.1208 85.714 68.5218 85.6593 68.8362 85.6593C69.2782 85.6593 69.8523 85.8006 70.5769 85.9737C70.9004 86.0512 71.2421 86.1332 71.6067 86.2152C73.1058 86.5433 74.3589 86.6982 75.5527 86.6982C76.2317 86.6982 76.8924 86.6481 77.5258 86.5433C78.8335 86.3337 79.8132 85.8142 80.6835 85.354C80.761 85.313 80.8385 85.272 80.9114 85.231C80.6197 85.837 80.2643 86.4339 80.0137 86.6663C79.4532 87.1357 78.7014 87.4364 77.8265 87.7782C77.3298 87.9741 76.8104 88.1792 76.2909 88.4343L75.9492 88.6029C75.5254 88.8125 75.0469 89.054 74.8829 89.054C74.8647 89.054 74.6961 89.0449 74.2359 88.767C73.0238 88.0288 71.3606 87.0218 69.2326 87.0218C68.9866 87.0218 68.736 87.0354 68.4899 87.0628H68.458C67.5512 87.1493 66.5397 87.3453 65.9382 88.17C65.5873 88.6485 65.4597 89.2545 65.5828 89.8332C65.806 90.8494 66.567 91.2822 67.3006 91.4645C67.3416 91.8017 67.4555 92.0569 67.533 92.2072C67.9613 93.0047 68.7815 93.4102 69.9663 93.4102C70.5814 93.4102 71.2376 93.3145 71.6705 93.2462C71.7251 93.237 71.7753 93.2325 71.8163 93.2234C71.8527 93.2234 71.8801 93.2325 71.9074 93.237C71.8436 93.916 71.0781 95.4653 70.2032 96.3994C69.0959 97.5841 67.5102 98.2676 65.8516 98.2676C65.4825 98.2676 65.1134 98.2311 64.7534 98.1628C64.1565 98.0489 63.5824 97.8438 63.0447 97.5477C62.99 97.5021 62.8943 97.4246 62.826 97.3654C62.2245 96.8596 61.6002 96.3401 60.7664 96.3128C60.7208 96.3128 60.6752 96.3128 60.6297 96.3128C58.9665 96.3128 58.5017 97.452 58.3969 97.7983C58.0962 98.819 58.5655 99.7895 59.8733 100.81C59.7183 101.22 59.7001 101.667 59.8277 102.1C60.1831 103.33 61.4818 103.758 62.2199 103.909C62.4933 103.963 62.7759 103.991 63.0584 103.991C64.0654 103.991 64.9403 103.658 65.7149 103.367C66.166 103.198 66.5898 103.034 66.9179 102.993C68.3031 102.811 69.7703 102.537 71.1966 101.799C71.5976 102.792 72.4405 103.152 73.124 103.152C75.4388 103.152 76.5643 99.0331 76.5734 98.9921C76.7192 98.14 76.6372 97.3836 76.5643 96.7183C76.5233 96.3538 76.496 96.0576 76.496 95.8116C76.5188 95.8708 76.5415 95.9209 76.5689 95.9756C76.9106 96.65 77.5941 97.0555 78.3915 97.0555C78.9702 97.0555 79.6401 96.8505 80.7018 96.3492C82.5609 95.4744 83.8231 93.8021 84.0691 91.8837C84.1238 91.4508 84.1056 91.0726 84.0874 90.7673C84.0828 90.6489 84.0737 90.4939 84.0737 90.4028C84.1603 90.3026 84.3334 90.1431 84.4519 90.0337C84.6934 89.8104 84.9714 89.5553 85.2083 89.2454C85.8599 88.407 86.3748 87.4729 86.7302 86.475C86.8077 86.2517 86.8578 86.0284 86.9034 85.8142C87.2542 85.8461 87.678 85.9236 88.0608 85.992C88.6759 86.1013 89.2592 86.2061 89.7969 86.2061C89.8196 86.2061 89.847 86.2061 89.8698 86.2061C90.0976 86.2152 90.3346 86.2198 90.5669 86.2198C93.7156 86.2198 97.1377 85.2583 99.7213 83.6498C103.563 81.253 105.308 77.3935 104.164 73.8211C103.184 70.759 100.532 68.4716 96.2856 67.0271C94.2715 66.3436 92.1527 65.9928 89.9928 65.9928C88.4071 65.9928 86.8031 66.1796 85.2311 66.5532C84.8301 66.6489 84.4565 66.7492 84.1284 66.8357C83.29 67.059 82.6794 67.2231 82.0095 67.2231C81.7452 67.2231 81.4718 67.1957 81.1802 67.1456C80.6425 67.0499 80.0866 67.0043 79.4715 67.0043C78.7971 67.0043 78.15 67.059 77.5258 67.1137C76.9972 67.1593 76.496 67.2003 76.0038 67.2094H75.8763C73.5797 67.2094 71.3834 66.2753 69.6974 64.5756C67.9522 62.8213 66.9634 60.4336 66.9771 58.0277C66.9771 57.9685 66.9999 57.7452 67.0181 57.5812C67.1502 56.2233 67.2687 55.0476 66.526 54.2275C66.1569 53.8174 65.6283 53.585 65.0815 53.585H65.0906Z" fill="#264964"/>
</g>
<defs>
<clipPath id="clip0_66_166">
<rect width="85" height="92.9924" fill="white" transform="translate(37.5 33.5038)"/>
</clipPath>
</defs>
</svg>
