<svg width="160" height="160" viewBox="0 0 160 160" fill="none" xmlns="http://www.w3.org/2000/svg">
<rect width="160" height="160" rx="80" fill="#F4F0BB"/>
<g clip-path="url(#clip0_11_180)">
<path d="M104.182 125.129V110.552C104.182 107.408 105.536 104.437 107.837 102.296C115.979 94.7271 121.133 82.2281 121.133 70.6086C121.133 49.37 103.918 34.8707 82.6794 34.8707C61.4408 34.8707 45.6702 50.6824 44.3168 70.6907C44.1892 72.5543 43.8156 74.3861 43.1366 76.1268L39.1587 86.3656C38.1471 88.972 39.9242 91.8199 42.7129 92.0523L48.6274 92.5444C49.4066 92.6082 50.0309 93.2051 50.1357 93.9798L50.5184 95.4379L50.8784 98.819L51.7761 107.331C51.7898 107.481 51.8171 107.627 51.849 107.777L52.168 109.267C52.3502 110.648 53.535 111.673 54.9247 111.66L59.6682 111.505C65.3732 111.318 70.0984 115.893 70.0984 121.602V125.129" fill="white"/>
<path d="M92.2438 70.8001L82.6611 87.8375H89.9974V98.2403C89.9974 98.8372 90.7857 99.0468 91.0818 98.5274L101.056 81.0571H93.3328V71.0872C93.3328 70.4902 92.54 70.2806 92.2484 70.8047L92.2438 70.8001Z" fill="#C3DCD9"/>
<path d="M104.182 126.496C103.426 126.496 102.815 125.886 102.815 125.129V110.548C102.815 107.08 104.305 103.708 106.907 101.289C114.721 94.0254 119.77 81.9821 119.77 70.6041C119.77 60.8939 115.929 52.0767 108.957 45.7885C102.131 39.6279 92.7994 36.2378 82.6836 36.2378C63.2403 36.2378 46.9867 51.4115 45.6789 70.7864C45.5377 72.8551 45.1139 74.8236 44.4122 76.6281L40.4342 86.8669C40.1107 87.7053 40.1972 88.6212 40.6711 89.3822C41.145 90.1431 41.9333 90.6216 42.8264 90.699L48.741 91.1912C50.1125 91.3051 51.2517 92.3577 51.475 93.711L51.8395 95.1008C51.8577 95.1691 51.8714 95.2375 51.876 95.3058L53.1336 107.203C53.1427 107.304 53.161 107.404 53.1837 107.504L53.5027 108.994C53.5118 109.03 53.5164 109.067 53.5209 109.099C53.6121 109.791 54.2135 110.306 54.9107 110.306L59.6223 110.151C62.7527 110.038 65.7191 111.195 67.9701 113.373C70.2211 115.551 71.4605 118.481 71.4605 121.611V125.138C71.4605 125.895 70.8499 126.505 70.0935 126.505C69.3371 126.505 68.7265 125.895 68.7265 125.138V121.611C68.7265 119.224 67.7833 116.996 66.0654 115.337C64.3521 113.678 62.0966 112.808 59.7089 112.881L54.9654 113.036C54.9654 113.036 54.9381 113.036 54.9244 113.036C52.8511 113.036 51.115 111.532 50.8143 109.513L50.5044 108.074C50.4634 107.878 50.4315 107.682 50.4087 107.486L49.1648 95.6977L48.8048 94.3398C48.7911 94.2851 48.7774 94.2259 48.7729 94.1712C48.7547 94.0345 48.6407 93.9297 48.5086 93.916L42.5941 93.4239C40.8306 93.2781 39.2859 92.3303 38.3472 90.8312C37.4086 89.332 37.24 87.5276 37.8825 85.8781L41.8604 75.6393C42.4619 74.0945 42.8264 72.3995 42.9495 70.6041C44.3575 49.7984 61.8095 33.5038 82.679 33.5038C93.4738 33.5038 103.457 37.1446 110.785 43.7608C118.339 50.5776 122.5 60.1101 122.5 70.6087C122.5 82.7112 117.109 95.5428 108.766 103.294C106.72 105.194 105.544 107.841 105.544 110.548V125.129C105.544 125.886 104.934 126.496 104.177 126.496H104.182Z" fill="#264964"/>
<path d="M85.4817 75.826H70.9596C70.8366 75.826 70.7135 75.8124 70.5951 75.7987C66.4941 75.4934 63.2679 72.0212 63.2679 67.8883C63.2679 64.9447 64.9357 62.2335 67.5056 60.8711C67.738 55.959 71.8071 52.0311 76.7785 52.0311C77.4756 52.0311 78.1728 52.1132 78.8608 52.2726C81.2166 49.2242 84.8301 47.4335 88.7169 47.4335C95.5884 47.4335 101.179 53.0245 101.179 59.8959C101.179 60.1375 101.17 60.379 101.157 60.6205C104.009 61.869 105.918 64.7078 105.918 67.8883C105.918 71.4061 103.558 74.5456 100.181 75.5162C99.457 75.7258 98.7006 75.3066 98.491 74.5821C98.2813 73.8576 98.7006 73.1012 99.4251 72.8916C101.64 72.2536 103.184 70.1986 103.184 67.8883C103.184 65.5781 101.603 63.4775 99.3339 62.8669C98.6641 62.6846 98.2358 62.033 98.336 61.345C98.4089 60.8665 98.4454 60.379 98.4454 59.8959C98.4454 54.5328 94.0801 50.1675 88.7169 50.1675C85.4133 50.1675 82.3649 51.8261 80.5559 54.6011C80.2096 55.1297 79.5489 55.353 78.9565 55.1433C78.2411 54.8927 77.5075 54.7651 76.7785 54.7651C73.165 54.7651 70.2305 57.7042 70.2305 61.3131C70.2305 61.3814 70.2351 61.4498 70.2396 61.5136L70.2488 61.673C70.2807 62.2654 69.9252 62.8122 69.3693 63.0218C67.3553 63.7828 66.0065 65.7376 66.0065 67.8838C66.0065 70.5904 68.1208 72.8688 70.8229 73.0693C70.8411 73.0693 70.8639 73.0693 70.8821 73.0738L70.9733 73.0875H85.4862C86.2426 73.0875 86.8532 73.6981 86.8532 74.4545C86.8532 75.2109 86.2426 75.8215 85.4862 75.8215L85.4817 75.826Z" fill="#264964"/>
<path d="M90.5897 100.186C90.4211 100.186 90.2479 100.163 90.0748 100.118C89.209 99.8898 88.6258 99.1334 88.6258 98.2357V89.1999H82.6565C82.169 89.1999 81.7224 88.9402 81.4764 88.5209C81.2303 88.1017 81.2258 87.5823 81.4673 87.1585L91.0499 70.1211C91.4919 69.3374 92.3714 68.9637 93.2417 69.1916C94.112 69.4194 94.6953 70.1758 94.6953 71.0735V79.6765H101.052C101.539 79.6765 101.99 79.9362 102.232 80.3554C102.478 80.7746 102.478 81.2986 102.237 81.7178L92.262 99.1881C91.9066 99.8123 91.2686 100.172 90.5851 100.172L90.5897 100.186ZM84.9987 86.4659H89.9973C90.7537 86.4659 91.3643 87.0765 91.3643 87.8329V95.2694L98.7006 82.4196H93.3328C92.5764 82.4196 91.9658 81.809 91.9658 81.0526V74.0854L85.0032 86.4659H84.9987Z" fill="#264964"/>
<path d="M65.7969 89.0495C65.5828 89.0495 65.3595 88.9994 65.159 88.89C64.4937 88.5346 64.2386 87.7098 64.594 87.04L67.9932 80.6379C68.3487 79.9726 69.1734 79.7174 69.8432 80.0729C70.5085 80.4283 70.7637 81.253 70.4083 81.9229L67.009 88.325C66.7629 88.7898 66.2891 89.0495 65.8015 89.0495H65.7969Z" fill="#264964"/>
<path d="M74.4045 89.0495C74.1903 89.0495 73.967 88.9994 73.7665 88.89C73.1013 88.5346 72.8461 87.7098 73.2015 87.04L76.6008 80.6379C76.9562 79.9726 77.781 79.7174 78.4508 80.0729C79.1161 80.4283 79.3712 81.253 79.0158 81.9229L75.6165 88.325C75.3705 88.7898 74.8966 89.0495 74.409 89.0495H74.4045Z" fill="#264964"/>
</g>
<defs>
<clipPath id="clip0_11_180">
<rect width="85" height="92.9924" fill="white" transform="translate(37.5 33.5038)"/>
</clipPath>
</defs>
</svg>
