<svg width="160" height="160" viewBox="0 0 160 160" fill="none" xmlns="http://www.w3.org/2000/svg">
<rect width="160" height="160" rx="80" fill="#F4F0BB"/>
<g clip-path="url(#clip0_66_45)">
<path d="M65.6463 80.7149C72.0319 80.7149 77.2082 75.5386 77.2082 69.153C77.2082 62.7675 72.0319 57.5912 65.6463 57.5912C59.2608 57.5912 54.0845 62.7675 54.0845 69.153C54.0845 75.5386 59.2608 80.7149 65.6463 80.7149Z" fill="white"/>
<path d="M65.6463 84.962C53.1086 84.962 45.3102 96.2269 44.7458 108.149V111.646C44.7458 112.736 45.6326 113.623 46.723 113.623H84.5229C85.6133 113.623 86.5 112.736 86.5 111.646V108.149C86.5594 96.2269 77.6409 84.962 65.6463 84.962Z" fill="white"/>
<path d="M99.0802 54.8418C95.7496 51.4475 95.2362 46.3475 97.5019 42.4229C97.9686 41.6167 97.2176 40.6494 96.3181 40.9039C94.133 41.5234 92.071 42.6987 90.3569 44.4425C85.363 49.5255 85.2017 57.7524 89.9962 63.0178C95.1895 68.7245 104.032 68.9366 109.492 63.5779C111.168 61.9359 112.322 59.9629 112.959 57.867C113.23 56.9717 112.284 56.1995 111.465 56.6493C107.498 58.8428 102.407 58.2276 99.0802 54.8375V54.8418Z" fill="#F4F0BB"/>
<path d="M65.6464 81.9878C58.5692 81.9878 52.8116 76.2302 52.8116 69.1531C52.8116 62.0759 58.5692 56.3184 65.6464 56.3184C72.7235 56.3184 78.4811 62.0759 78.4811 69.1531C78.4811 76.2302 72.7235 81.9878 65.6464 81.9878ZM65.6464 58.8683C59.9736 58.8683 55.3574 63.4846 55.3574 69.1573C55.3574 74.8301 59.9736 79.4463 65.6464 79.4463C71.3191 79.4463 75.9354 74.8301 75.9354 69.1573C75.9354 63.4846 71.3191 58.8683 65.6464 58.8683Z" fill="#264964"/>
<path d="M84.5229 114.896H46.7231C44.9326 114.896 43.473 113.436 43.473 111.646V108.145C43.473 108.145 43.473 108.107 43.473 108.086C43.7743 101.717 45.9933 95.7474 49.727 91.267C53.8596 86.307 59.3626 83.6849 65.6463 83.6849C71.1069 83.6849 76.3511 85.9337 80.4158 90.0153C85.1254 94.7504 87.8069 101.357 87.7729 108.149V111.641C87.7729 113.432 86.3134 114.891 84.5229 114.891V114.896ZM46.0188 108.179V111.646C46.0188 112.032 46.3327 112.35 46.7231 112.35H84.5229C84.909 112.35 85.2272 112.036 85.2272 111.646V108.145C85.2569 102.112 82.7833 96.0063 78.6126 91.8143C75.0316 88.2163 70.428 86.2349 65.6506 86.2349C56.4181 86.2349 46.7188 93.7703 46.023 108.179H46.0188Z" fill="#264964"/>
<path d="M123.171 120.407H36.2729C35.5685 120.407 35 119.839 35 119.134C35 118.43 35.5685 117.861 36.2729 117.861H123.171C123.876 117.861 124.444 118.43 124.444 119.134C124.444 119.839 123.876 120.407 123.171 120.407Z" fill="#264964"/>
<path d="M123.727 101.683C123.727 99.6721 122.072 97.7797 119.107 98.1531C119.068 98.1574 111.257 90.1468 111.257 90.1468C111.066 89.3237 110.799 88.526 110.464 87.7708L112.615 85.6196C114.418 83.8164 114.418 80.8931 112.615 79.0898C110.812 77.2866 107.888 77.2866 106.085 79.0898L103.934 81.241C102.322 80.5197 100.531 80.1124 98.6517 80.1124C95.5502 80.1124 92.7032 81.207 90.4714 83.0272L97.1115 89.6673C95.3465 90.1935 94.0609 91.827 94.0609 93.766C94.0609 96.1293 95.9745 98.0428 98.3377 98.0428C100.272 98.0428 101.91 96.7572 102.436 94.9922L108.678 101.238C110.498 99.0102 111.592 96.1632 111.592 93.0574C111.592 92.5355 111.559 92.0221 111.499 91.5172L118.432 98.4459C117.257 99.0484 116.451 100.27 116.451 101.683C116.451 103.096 117.257 104.314 118.432 104.921L110.697 112.655L111.673 113.631L119.976 105.319C120.015 105.319 120.053 105.324 120.091 105.324C122.102 105.324 123.731 103.694 123.731 101.683H123.727Z" fill="#C3DCD9"/>
<path d="M111.673 114.9C111.334 114.9 111.011 114.764 110.774 114.526L109.798 113.551C109.56 113.313 109.424 112.986 109.424 112.651C109.424 112.316 109.56 111.989 109.798 111.752L116.506 105.044C115.661 104.148 115.178 102.956 115.178 101.683C115.178 100.41 115.666 99.2181 116.506 98.3228L112.781 94.5976C112.484 97.313 111.402 99.9097 109.666 102.04C109.437 102.32 109.102 102.489 108.746 102.506C108.381 102.528 108.037 102.392 107.782 102.133L102.763 97.1136C101.732 98.4671 100.103 99.3157 98.342 99.3157C95.2829 99.3157 92.7923 96.8251 92.7923 93.766C92.7923 92.0052 93.6409 90.3759 94.9944 89.3449L89.5805 83.931C89.3259 83.6764 89.1901 83.3285 89.2071 82.9678C89.2241 82.6072 89.3938 82.272 89.6738 82.0471C92.2026 79.9809 95.3932 78.848 98.656 78.848C100.374 78.848 102.046 79.1493 103.637 79.7517L105.19 78.1988C107.485 75.9034 111.223 75.9034 113.519 78.1988C115.814 80.4942 115.814 84.2322 113.519 86.5276L111.966 88.0805C112.14 88.5472 112.293 89.0267 112.416 89.5146C114.94 92.1028 118.436 95.6795 119.59 96.8463C121.075 96.7912 122.412 97.2282 123.4 98.098C124.419 98.9974 125.004 100.304 125.004 101.687C125.004 104.254 123.027 106.363 120.515 106.579L112.573 114.531C112.335 114.768 112.008 114.904 111.673 114.904V114.9ZM119.251 99.4175C119.179 99.4769 119.098 99.532 119.013 99.5745C118.22 99.9818 117.724 100.788 117.724 101.679C117.724 102.57 118.216 103.376 119.013 103.783C119.187 103.873 119.336 104 119.45 104.153C119.624 104.072 119.819 104.034 120.015 104.042H120.104C121.394 104.042 122.454 102.982 122.454 101.675C122.454 101.021 122.183 100.41 121.712 99.9945C121.131 99.4854 120.286 99.2817 119.268 99.409C119.259 99.409 119.255 99.409 119.247 99.409L119.251 99.4175ZM102.436 93.7151C102.772 93.7151 103.094 93.8466 103.336 94.0884L108.521 99.2732C109.687 97.4191 110.32 95.2595 110.32 93.0532C110.32 92.6077 110.29 92.141 110.235 91.6658C110.209 91.4409 110.243 91.216 110.328 91.0166C110.175 90.8554 110.069 90.6559 110.018 90.4353C109.844 89.6886 109.607 88.9673 109.301 88.2927C109.085 87.809 109.191 87.2447 109.564 86.8713L111.716 84.7202C113.018 83.4176 113.018 81.2961 111.716 79.9936C110.413 78.691 108.292 78.691 106.985 79.9936L104.834 82.1447C104.46 82.5181 103.896 82.6199 103.412 82.4078C101.906 81.7332 100.302 81.3895 98.6475 81.3895C96.4412 81.3895 94.2816 82.0217 92.4275 83.1885L98.0068 88.7679C98.3251 89.0861 98.4523 89.5443 98.342 89.9813C98.2317 90.4183 97.9008 90.762 97.4722 90.8893C96.2121 91.2669 95.3296 92.4507 95.3296 93.766C95.3296 95.4249 96.6788 96.7699 98.3335 96.7699C99.6531 96.7699 100.837 95.8874 101.21 94.6273C101.338 94.1988 101.685 93.8678 102.118 93.7575C102.22 93.732 102.326 93.7193 102.432 93.7193L102.436 93.7151Z" fill="#264964"/>
<path d="M122.077 118.43C120.354 115.154 115.237 112.774 109.191 112.774C103.145 112.774 98.0281 115.15 96.3097 118.43H122.077Z" fill="#C3DCD9"/>
<path d="M122.077 119.703H96.3097C95.8642 119.703 95.4526 119.469 95.2193 119.087C94.9902 118.706 94.9732 118.23 95.1811 117.836C97.171 114.047 102.801 111.501 109.191 111.501C115.581 111.501 121.211 114.047 123.201 117.836C123.409 118.23 123.392 118.706 123.163 119.087C122.934 119.469 122.518 119.703 122.072 119.703H122.077ZM98.9827 117.157H119.399C117.159 115.26 113.341 114.047 109.191 114.047C105.042 114.047 101.223 115.26 98.9827 117.157Z" fill="#264964"/>
<path d="M100.026 68.7287C99.8821 68.7287 99.7378 68.7287 99.5936 68.7245C95.5374 68.6099 91.7952 66.8873 89.0543 63.8791C83.7761 58.0791 83.9501 49.1521 89.4488 43.5515C91.2521 41.7143 93.5093 40.3778 95.9702 39.682C96.8781 39.4231 97.8455 39.7414 98.4225 40.4881C99.0038 41.2349 99.0717 42.2447 98.6007 43.0635C96.5726 46.5766 97.1412 51.0529 99.9839 53.955C102.827 56.8529 107.294 57.5105 110.846 55.5461C111.673 55.0879 112.683 55.177 113.417 55.771C114.151 56.365 114.448 57.3366 114.172 58.2446C113.459 60.5994 112.144 62.7632 110.379 64.4943C107.583 67.2352 103.921 68.733 100.022 68.733L100.026 68.7287ZM96.1187 42.2998C94.2942 42.9108 92.6225 43.9545 91.2648 45.3377C86.7122 49.9709 86.5679 57.3663 90.9381 62.165C93.208 64.6598 96.3053 66.0854 99.6657 66.1788C103.013 66.2721 106.2 65.0289 108.601 62.6741C109.929 61.3716 110.948 59.7762 111.563 58.0367C107.103 60.2133 101.677 59.3053 98.168 55.7328C94.6634 52.1603 93.8572 46.7124 96.1187 42.2998Z" fill="#264964"/>
</g>
<defs>
<clipPath id="clip0_66_45">
<rect width="90" height="80.8142" fill="white" transform="translate(35 39.5929)"/>
</clipPath>
</defs>
</svg>
