<svg width="160" height="160" viewBox="0 0 160 160" fill="none" xmlns="http://www.w3.org/2000/svg">
<rect width="160" height="160" rx="80" fill="#F4F0BB"/>
<g clip-path="url(#clip0_66_2)">
<path d="M63.1278 67.7737L59.7912 64.9917V61.1477H61.2617C61.8421 61.1477 62.3108 60.6791 62.3108 60.0986V49.6717C62.3108 49.0912 61.8421 48.6226 61.2617 48.6226H33.1714C32.5909 48.6226 32.1222 49.0912 32.1222 49.6717V60.0986C32.1222 60.6791 32.5909 61.1477 33.1714 61.1477H34.6376V64.9917L31.301 67.7737C28.8845 69.7903 27.5 72.7485 27.5 75.8916V112.998C27.5 117.513 31.172 121.19 35.6867 121.19H58.7463C63.2611 121.19 66.933 117.518 66.933 113.003V75.8959C66.933 72.7528 65.5485 69.7903 63.1321 67.778" fill="white"/>
<path d="M125.453 38.4451H81.3544C77.4623 38.4451 74.3071 41.6003 74.3071 45.4924V114.508C74.3071 118.4 77.4623 121.555 81.3544 121.555H125.453C129.345 121.555 132.5 118.4 132.5 114.508V45.4924C132.5 41.6003 129.345 38.4451 125.453 38.4451Z" fill="white"/>
<path d="M63.1278 67.7737L59.7912 64.9917V61.1477H61.2617C61.8421 61.1477 62.3108 60.6791 62.3108 60.0986V49.6717C62.3108 49.0912 61.8421 48.6226 61.2617 48.6226H33.1714C32.5909 48.6226 32.1222 49.0912 32.1222 49.6717V60.0986C32.1222 60.6791 32.5909 61.1477 33.1714 61.1477H34.6376V64.9917L31.301 67.7737C28.8845 69.786 27.5 72.7442 27.5 75.8916V112.999C27.5 117.513 31.172 121.185 35.6867 121.185H58.7463C63.2611 121.185 66.933 117.513 66.933 112.999V75.8916C66.933 72.7485 65.5485 69.786 63.1321 67.7737H63.1278ZM64.8348 112.999C64.8348 116.357 62.1044 119.087 58.7463 119.087H35.6867C32.3286 119.087 29.5983 116.357 29.5983 112.999V112.237H54.7905C55.371 112.237 55.8397 111.769 55.8397 111.188V78.9487C55.8397 78.3683 55.371 77.8996 54.7905 77.8996H29.5983V75.8916C29.5983 73.372 30.7076 70.9985 32.6425 69.3861L36.3575 66.2903C36.5983 66.0925 36.7359 65.7958 36.7359 65.4862V61.152H57.6929V65.4862C57.6929 65.7958 57.8305 66.0925 58.0713 66.2903L61.7862 69.3861C63.7211 70.9985 64.8348 73.372 64.8348 75.8916V112.999Z" fill="white"/>
<path d="M125.448 40.7455H81.3588C78.7347 40.7455 76.6075 42.8727 76.6075 45.4967V114.508C76.6075 117.132 78.7347 119.259 81.3588 119.259H125.448C128.072 119.259 130.2 117.132 130.2 114.508V45.4967C130.2 42.8727 128.072 40.7455 125.448 40.7455Z" fill="#C3DCD9"/>
<path d="M86.8538 52.7546C87.9545 51.6539 89.4207 51.0476 90.9815 51.0476C92.1511 51.0476 93.2647 51.3873 94.2149 52.0237L86.1228 60.1158C84.6136 57.8498 84.8587 54.754 86.8538 52.7546Z" fill="white"/>
<path d="M95.1094 61.0102C93.11 63.0096 90.0141 63.2504 87.7482 61.7412L95.8403 53.649C96.4767 54.5993 96.8164 55.7129 96.8164 56.8825C96.8164 58.439 96.2101 59.9052 95.1094 61.0102Z" fill="white"/>
<path d="M86.8538 75.8745C87.9545 74.7737 89.4207 74.1675 90.9815 74.1675C92.1511 74.1675 93.2647 74.5072 94.2149 75.1435L86.1228 83.2357C84.6136 80.9697 84.8587 77.8739 86.8538 75.8745Z" fill="white"/>
<path d="M95.1094 84.1257C93.11 86.1208 90.0141 86.3659 87.7482 84.8567L95.8403 76.7645C96.4767 77.7148 96.8164 78.8284 96.8164 79.9979C96.8164 81.5545 96.2101 83.0207 95.1094 84.1257Z" fill="white"/>
<path d="M86.8538 98.99C87.9545 97.8892 89.4207 97.283 90.9815 97.283C92.1511 97.283 93.2647 97.6226 94.2149 98.259L86.1228 106.351C84.6136 104.085 84.8587 100.989 86.8538 98.99Z" fill="white"/>
<path d="M95.1094 107.245C93.11 109.245 90.0141 109.486 87.7482 107.976L95.8403 99.8843C96.4767 100.835 96.8164 101.948 96.8164 103.118C96.8164 104.674 96.2101 106.14 95.1094 107.245Z" fill="white"/>
<path d="M110.404 52.7546C111.504 51.6539 112.97 51.0476 114.531 51.0476C115.701 51.0476 116.814 51.3873 117.765 52.0237L109.673 60.1158C109.036 59.1655 108.697 58.0519 108.697 56.8824C108.697 55.3216 109.303 53.8596 110.404 52.7546Z" fill="white"/>
<path d="M118.659 61.0102C116.66 63.0096 113.564 63.2504 111.298 61.7412L119.39 53.649C120.026 54.5993 120.366 55.7129 120.366 56.8825C120.366 58.439 119.76 59.9052 118.659 61.0102Z" fill="white"/>
<path d="M110.404 75.8745C111.504 74.7737 112.97 74.1675 114.531 74.1675C115.701 74.1675 116.814 74.5072 117.765 75.1435L109.673 83.2357C109.036 82.2854 108.697 81.1718 108.697 80.0022C108.697 78.4414 109.303 76.9795 110.404 75.8745Z" fill="white"/>
<path d="M118.659 84.1257C116.66 86.1208 113.564 86.3659 111.298 84.8567L119.39 76.7645C120.026 77.7148 120.366 78.8284 120.366 79.9979C120.366 81.5545 119.76 83.0207 118.659 84.1257Z" fill="white"/>
<path d="M110.404 98.99C111.504 97.8892 112.97 97.283 114.531 97.283C115.701 97.283 116.814 97.6226 117.765 98.259L109.673 106.351C109.036 105.401 108.697 104.287 108.697 103.118C108.697 101.557 109.303 100.095 110.404 98.99Z" fill="white"/>
<path d="M118.659 107.245C116.66 109.245 113.564 109.486 111.298 107.976L119.39 99.8843C120.026 100.835 120.366 101.948 120.366 103.118C120.366 104.674 119.76 106.14 118.659 107.245Z" fill="white"/>
<path d="M125.453 38.4451H81.3587C77.4717 38.4451 74.3071 41.6097 74.3071 45.4924V114.508C74.3071 118.395 77.4674 121.555 81.3544 121.555H125.448C129.335 121.555 132.496 118.395 132.496 114.508V45.4924C132.5 41.6097 129.335 38.4451 125.453 38.4451ZM130.2 114.508C130.2 117.126 128.067 119.259 125.448 119.259H81.3544C78.7359 119.259 76.6032 117.126 76.6032 114.508V45.4924C76.6032 42.8738 78.7359 40.7411 81.3544 40.7411H125.448C128.067 40.7411 130.2 42.8738 130.2 45.4924V114.508Z" fill="#264964"/>
<path d="M90.9816 48.7473C88.8102 48.7473 86.7678 49.5944 85.2285 51.1294C82.0596 54.2983 82.0596 59.4623 85.2285 62.6355C86.8151 64.2221 88.8962 65.0133 90.9816 65.0133C93.0669 65.0133 95.148 64.2221 96.7346 62.6355C98.2697 61.1005 99.1167 59.0538 99.1167 56.8825C99.1167 54.7111 98.2697 52.6644 96.7346 51.1294C95.1996 49.5944 93.1572 48.7473 90.9816 48.7473ZM86.8538 52.7547C87.9588 51.6539 89.4208 51.0477 90.9816 51.0477C92.1511 51.0477 93.2647 51.3874 94.215 52.0237L86.1228 60.1159C84.6136 57.8499 84.8587 54.7541 86.8538 52.7547ZM95.1093 61.0102C93.11 63.0096 90.0141 63.2504 87.7482 61.7412L95.8403 53.649C96.4767 54.5993 96.8163 55.7129 96.8163 56.8825C96.8163 58.439 96.2101 59.9052 95.1093 61.0102Z" fill="#264964"/>
<path d="M90.9816 71.8671C88.8102 71.8671 86.7678 72.7141 85.2285 74.2491C82.0596 77.418 82.0596 82.5821 85.2285 85.7553C86.8151 87.3419 88.8962 88.133 90.9816 88.133C93.0669 88.133 95.148 87.3376 96.7346 85.7553C98.2697 84.2203 99.1167 82.1736 99.1167 80.0022C99.1167 77.8308 98.2697 75.7841 96.7346 74.2491C95.1996 72.7141 93.1572 71.8671 90.9816 71.8671ZM86.8538 75.8744C87.9588 74.7737 89.4208 74.1674 90.9816 74.1674C92.1511 74.1674 93.2647 74.5071 94.215 75.1435L86.1228 83.2356C84.6136 80.9696 84.8587 77.8738 86.8538 75.8744ZM95.1093 84.1257C93.11 86.1208 90.0141 86.3658 87.7482 84.8566L95.8403 76.7645C96.4767 77.7147 96.8163 78.8284 96.8163 79.9979C96.8163 81.5544 96.2101 83.0206 95.1093 84.1257Z" fill="#264964"/>
<path d="M90.9816 94.9825C88.8102 94.9825 86.7678 95.8296 85.2285 97.3646C82.0596 100.534 82.0596 105.698 85.2285 108.871C86.8151 110.457 88.8962 111.249 90.9816 111.249C93.0669 111.249 95.148 110.453 96.7346 108.871C98.2697 107.336 99.1167 105.289 99.1167 103.118C99.1167 100.946 98.2697 98.8996 96.7346 97.3646C95.1996 95.8296 93.1572 94.9825 90.9816 94.9825ZM86.8538 98.9899C87.9588 97.8892 89.4208 97.2829 90.9816 97.2829C92.1511 97.2829 93.2647 97.6226 94.215 98.259L86.1228 106.351C84.6136 104.085 84.8587 100.989 86.8538 98.9899ZM95.1093 107.245C93.11 109.245 90.0141 109.486 87.7482 107.976L95.8403 99.8843C96.4767 100.835 96.8163 101.948 96.8163 103.118C96.8163 104.674 96.2101 106.14 95.1093 107.245Z" fill="#264964"/>
<path d="M114.531 48.7473C112.356 48.7473 110.313 49.5944 108.778 51.1294C107.243 52.6644 106.396 54.7068 106.396 56.8825C106.396 59.0581 107.243 61.0962 108.778 62.6355C110.365 64.2221 112.446 65.0133 114.531 65.0133C116.617 65.0133 118.698 64.2221 120.284 62.6355C121.819 61.1005 122.667 59.0538 122.667 56.8825C122.667 54.7111 121.819 52.6644 120.284 51.1294C118.749 49.5944 116.707 48.7473 114.531 48.7473ZM110.404 52.7547C111.504 51.6539 112.971 51.0477 114.531 51.0477C115.701 51.0477 116.815 51.3874 117.765 52.0237L109.673 60.1159C109.036 59.1656 108.697 58.052 108.697 56.8825C108.697 55.3216 109.303 53.8597 110.404 52.7547ZM118.659 61.0102C116.66 63.0096 113.564 63.2504 111.298 61.7412L119.39 53.649C120.026 54.5993 120.366 55.7129 120.366 56.8825C120.366 58.439 119.76 59.9052 118.659 61.0102Z" fill="#264964"/>
<path d="M114.531 71.8671C112.356 71.8671 110.313 72.7141 108.778 74.2491C107.243 75.7841 106.396 77.8265 106.396 80.0022C106.396 82.1779 107.243 84.216 108.778 85.7553C110.365 87.3419 112.446 88.133 114.531 88.133C116.617 88.133 118.698 87.3376 120.284 85.7553C121.819 84.2203 122.667 82.1736 122.667 80.0022C122.667 77.8308 121.819 75.7841 120.284 74.2491C118.749 72.7141 116.707 71.8671 114.531 71.8671ZM110.404 75.8744C111.504 74.7737 112.971 74.1674 114.531 74.1674C115.701 74.1674 116.815 74.5071 117.765 75.1435L109.673 83.2356C109.036 82.2854 108.697 81.1717 108.697 80.0022C108.697 78.4414 109.303 76.9795 110.404 75.8744ZM118.659 84.1257C116.66 86.1208 113.564 86.3658 111.298 84.8566L119.39 76.7645C120.026 77.7147 120.366 78.8284 120.366 79.9979C120.366 81.5544 119.76 83.0206 118.659 84.1257Z" fill="#264964"/>
<path d="M114.531 94.9825C112.356 94.9825 110.313 95.8296 108.778 97.3646C107.243 98.8996 106.396 100.942 106.396 103.118C106.396 105.293 107.243 107.331 108.778 108.871C110.365 110.457 112.446 111.249 114.531 111.249C116.617 111.249 118.698 110.453 120.284 108.871C121.819 107.336 122.667 105.289 122.667 103.118C122.667 100.946 121.819 98.8996 120.284 97.3646C118.749 95.8296 116.707 94.9825 114.531 94.9825ZM110.404 98.9899C111.504 97.8892 112.971 97.2829 114.531 97.2829C115.701 97.2829 116.815 97.6226 117.765 98.259L109.673 106.351C109.036 105.401 108.697 104.287 108.697 103.118C108.697 101.557 109.303 100.095 110.404 98.9899ZM118.659 107.245C116.66 109.245 113.564 109.486 111.298 107.976L119.39 99.8843C120.026 100.835 120.366 101.948 120.366 103.118C120.366 104.674 119.76 106.14 118.659 107.245Z" fill="#264964"/>
<path d="M52.1118 50.7251H48.2635V59.0537H52.1118V50.7251Z" fill="#F4F0BB"/>
<path d="M46.1652 50.7251H42.3169V59.0537H46.1652V50.7251Z" fill="#F4F0BB"/>
<path d="M40.2187 50.7251H37.5571V59.0537H40.2187V50.7251Z" fill="#F4F0BB"/>
<path d="M56.8759 50.7251H54.2144V59.0537H56.8759V50.7251Z" fill="#F4F0BB"/>
<path d="M60.2125 50.7251H58.9698V59.0537H60.2125V50.7251Z" fill="#F4F0BB"/>
<path d="M35.4588 50.7251H34.2205V59.0537H35.4588V50.7251Z" fill="#F4F0BB"/>
<path d="M63.1278 67.7737L59.7912 64.9917V61.1477H61.2617C61.8421 61.1477 62.3108 60.6791 62.3108 60.0986V49.6717C62.3108 49.0912 61.8421 48.6226 61.2617 48.6226H33.1714C32.5909 48.6226 32.1222 49.0912 32.1222 49.6717V60.0986C32.1222 60.6791 32.5909 61.1477 33.1714 61.1477H34.6376V64.9917L31.301 67.7737C28.8845 69.7903 27.5 72.7485 27.5 75.8916V112.998C27.5 117.513 31.172 121.19 35.6867 121.19H58.7463C63.2611 121.19 66.933 117.518 66.933 113.003V75.8959C66.933 72.7528 65.5485 69.7903 63.1321 67.778M48.2635 50.7251H52.1118V59.0538H48.2635V50.7251ZM42.317 50.7251H46.1652V59.0538H42.317V50.7251ZM37.5571 50.7251H40.2187V59.0538H37.5571V50.7251ZM54.2144 50.7251H56.8759V59.0538H54.2144V50.7251ZM60.2125 59.0538H58.9699V50.7251H60.2125V59.0538ZM34.2205 50.7251H35.4588V59.0538H34.2205V50.7251ZM29.5983 80.0022H53.7457V110.143H29.5983V80.0022ZM64.8348 112.998C64.8348 116.357 62.1044 119.087 58.7463 119.087H35.6867C32.3286 119.087 29.5983 116.357 29.5983 112.998V112.237H54.7905C55.371 112.237 55.8397 111.769 55.8397 111.188V78.9487C55.8397 78.3683 55.371 77.8996 54.7905 77.8996H29.5983V75.8916C29.5983 73.3719 30.7076 70.9985 32.6425 69.3861L36.3575 66.2903C36.5983 66.0925 36.7359 65.7958 36.7359 65.4862V61.152H57.6929V65.4862C57.6929 65.7958 57.8305 66.0925 58.0713 66.2903L61.7862 69.3861C63.7211 70.9985 64.8348 73.3719 64.8348 75.8916V112.998Z" fill="#264964"/>
<path d="M53.7457 80.0022H29.5983V110.143H53.7457V80.0022Z" fill="#C3DCD9"/>
</g>
<defs>
<clipPath id="clip0_66_2">
<rect width="105" height="83.11" fill="white" transform="translate(27.5 38.4451)"/>
</clipPath>
</defs>
</svg>
