<svg width="160" height="160" viewBox="0 0 160 160" fill="none" xmlns="http://www.w3.org/2000/svg">
<rect width="160" height="160" rx="80" fill="#F4F0BB"/>
<g clip-path="url(#clip0_66_142)">
<path d="M82.3012 47.0656C81.6289 46.3527 80.6407 46.2128 79.8375 46.5602L80.018 44.6471H80.3384V38.8218C80.3384 37.6848 79.4179 36.7643 78.2808 36.7643H45.7119C44.5748 36.7643 43.6543 37.6848 43.6543 38.8218V44.6471H45.6623C44.444 44.6471 43.3385 45.369 42.8467 46.488L36.7327 60.4262C36.4845 60.9947 36.3536 61.6038 36.3536 62.2265V119.531C36.3536 120.416 37.0711 121.129 37.951 121.129H72.8076L87.3233 113.634C88.4062 113.074 89.0875 111.96 89.0875 110.737V55.6433C89.0875 54.7498 88.7446 53.8925 88.1354 53.2428L82.3012 47.0656Z" fill="white"/>
<path d="M122.008 80.361H97.5795C96.1446 84.1918 95.9415 88.2708 95.9415 91.5918C95.9415 100.643 102.141 107.023 109.794 107.023C117.447 107.023 123.646 100.643 123.646 91.5918C123.646 88.2708 123.443 84.1918 122.008 80.361Z" fill="white"/>
<path d="M80.3338 46.0007H43.6543C42.9053 46.0007 42.3007 45.3961 42.3007 44.6471V38.8219C42.3007 36.9403 43.8303 35.4106 45.7119 35.4106H78.2763C80.1579 35.4106 81.6875 36.9403 81.6875 38.8219V44.6471C81.6875 45.3961 81.0829 46.0007 80.3338 46.0007ZM45.008 43.2934H78.9802V38.8219C78.9802 38.4338 78.6643 38.118 78.2763 38.118H45.7074C45.3193 38.118 45.0035 38.4338 45.0035 38.8219V43.2934H45.008Z" fill="#264964"/>
<path d="M49.3036 113.314H45.2742C44.426 113.314 43.7356 112.623 43.7356 111.775V71.639C43.7356 70.7907 44.426 70.1003 45.2742 70.1003H49.3036C50.1519 70.1003 50.8423 70.7907 50.8423 71.639V111.775C50.8423 112.623 50.1519 113.314 49.3036 113.314Z" fill="#C3DCD9"/>
<path d="M72.8076 122.478C72.564 122.478 72.3203 122.41 72.1037 122.279C71.7022 122.036 71.454 121.593 71.454 121.124V62.2446C71.454 61.4234 71.6209 60.6202 71.9458 59.8667L77.4507 47.1604C77.9244 46.0639 78.9126 45.2833 80.0903 45.0758C81.268 44.8682 82.4637 45.2653 83.2849 46.1316L89.1192 52.3133C89.972 53.2157 90.4412 54.3979 90.4412 55.6433V110.733C90.4412 112.465 89.4847 114.035 87.946 114.83L73.4303 122.324C73.2363 122.424 73.0242 122.473 72.8076 122.473V122.478ZM80.7085 47.7289C80.6453 47.7289 80.5957 47.7334 80.5596 47.7425C80.4242 47.765 80.0993 47.8598 79.9369 48.2343L74.432 60.9406C74.2515 61.3557 74.1613 61.7934 74.1613 62.2446V118.904L86.7052 112.429C87.3414 112.1 87.7339 111.454 87.7339 110.737V55.6433C87.7339 55.0928 87.5264 54.5739 87.1519 54.1723L81.3176 47.9906C81.1146 47.774 80.8754 47.7289 80.7085 47.7289Z" fill="#264964"/>
<path d="M72.8076 122.478H37.951C36.3221 122.478 35 121.156 35 119.527V62.2221C35 61.4099 35.167 60.6247 35.4918 59.8802L41.6058 45.9376C42.3097 44.3267 43.9025 43.2889 45.6578 43.2889H80.0135C80.7626 43.2889 81.3672 43.8936 81.3672 44.6426C81.3672 45.3916 80.7626 45.9962 80.0135 45.9962H45.6578C44.9764 45.9962 44.3583 46.4023 44.083 47.025L37.969 60.9632C37.793 61.3602 37.7073 61.7844 37.7073 62.2175V119.522C37.7073 119.658 37.8156 119.766 37.951 119.766H72.8076C73.5566 119.766 74.1612 120.371 74.1612 121.12C74.1612 121.869 73.5566 122.473 72.8076 122.473V122.478Z" fill="#264964"/>
<path d="M78.8313 60.715C78.3169 60.715 77.8251 60.4172 77.5995 59.9208C77.2927 59.2395 77.595 58.4363 78.2763 58.1295L83.5511 55.7426C84.2324 55.4357 85.0356 55.738 85.3424 56.4194C85.6492 57.1007 85.3469 57.9039 84.6656 58.2107L79.3908 60.5977C79.2103 60.6789 79.0208 60.7195 78.8313 60.7195V60.715Z" fill="#264964"/>
<path d="M66.4408 63.6795H42.5308C41.7818 63.6795 41.1771 63.0748 41.1771 62.3258C41.1771 61.5768 41.7818 60.9722 42.5308 60.9722H66.4408C67.1899 60.9722 67.7945 61.5768 67.7945 62.3258C67.7945 63.0748 67.1899 63.6795 66.4408 63.6795Z" fill="#264964"/>
<path d="M109.794 121.034C109.045 121.034 108.44 120.429 108.44 119.68V110.705C108.44 109.956 109.045 109.352 109.794 109.352C110.543 109.352 111.148 109.956 111.148 110.705V119.68C111.148 120.429 110.543 121.034 109.794 121.034Z" fill="#264964"/>
<path d="M116.643 124.589H102.944C102.195 124.589 101.591 123.985 101.591 123.236C101.591 122.487 102.195 121.882 102.944 121.882H116.643C117.392 121.882 117.997 122.487 117.997 123.236C117.997 123.985 117.392 124.589 116.643 124.589Z" fill="#264964"/>
<path d="M109.794 108.377C101.126 108.377 94.5879 101.162 94.5879 91.5918C94.5879 88.2799 94.7819 83.9572 96.3115 79.8872C96.5101 79.3593 97.0154 79.0073 97.5795 79.0073H122.008C122.572 79.0073 123.078 79.3593 123.276 79.8872C124.806 83.9617 125 88.2844 125 91.5918C125 101.162 118.462 108.377 109.794 108.377ZM98.5406 81.7146C97.4441 85.1304 97.2952 88.7536 97.2952 91.5918C97.2952 99.619 102.669 105.67 109.794 105.67C116.919 105.67 122.293 99.619 122.293 91.5918C122.293 88.7536 122.144 85.1349 121.047 81.7146H98.5451H98.5406Z" fill="#264964"/>
<path d="M99.7362 92.1243C99.3211 92.1243 98.9872 92.4762 99.0188 92.8913C99.4655 99.4024 104.118 103.906 109.794 103.906C115.47 103.906 120.122 99.4024 120.569 92.8913C120.596 92.4762 120.267 92.1243 119.852 92.1243H99.7362Z" fill="#264964"/>
</g>
<defs>
<clipPath id="clip0_66_142">
<rect width="90" height="89.1788" fill="white" transform="translate(35 35.4106)"/>
</clipPath>
</defs>
</svg>
