<svg width="24" height="29" viewBox="0 0 24 29" fill="none" xmlns="http://www.w3.org/2000/svg">
<g clip-path="url(#clip0_13_174)">
<path d="M18.6999 12.0988L0.990786 5.56192L7.53773 22.5579C7.66063 22.877 8.10985 22.927 8.29513 22.642L11.062 18.3867L17.0336 24.2676C17.4165 24.6448 18.0401 24.6572 18.4262 24.2955L19.2501 23.5234L20.0754 22.7499C20.4609 22.3886 20.4633 21.7908 20.081 21.4144L14.1082 15.5322L18.7775 12.8276C19.0773 12.6539 19.0316 12.2214 18.7005 12.0991L18.6999 12.0988Z" fill="white"/>
<path d="M18.3411 25.1858C18.1468 25.2524 17.9389 25.2849 17.7255 25.2807C17.2614 25.2714 16.8259 25.0892 16.4991 24.7673L11.2 19.5485L8.93516 23.0318C8.69729 23.3978 8.26955 23.5941 7.8191 23.544C7.36844 23.494 6.99042 23.2084 6.83259 22.7984L0.285727 5.80263C0.183311 5.53655 0.250437 5.24027 0.45782 5.04384C0.665124 4.8472 0.974472 4.78646 1.2504 4.88835L18.9595 11.4252C19.3849 11.5823 19.6776 11.9491 19.7236 12.3829C19.7696 12.8167 19.5586 13.2246 19.1735 13.4477L15.307 15.6872L20.6146 20.9143C21.2881 21.5775 21.2836 22.6347 20.6048 23.2708L18.9556 24.8164C18.7779 24.983 18.5687 25.1076 18.3409 25.1859L18.3411 25.1858ZM10.7984 17.7058C10.8552 17.6863 10.9147 17.6735 10.9763 17.6676C11.2052 17.6461 11.4337 17.727 11.596 17.8868L17.5676 23.7677C17.6236 23.8229 17.6874 23.8355 17.7314 23.8363C17.7752 23.8373 17.8395 23.8272 17.8957 23.7744L19.5449 22.2288C19.6355 22.1439 19.6363 22.0028 19.5462 21.9141L13.5734 16.0319C13.412 15.873 13.3336 15.6535 13.3606 15.4354C13.3874 15.2174 13.5166 15.0246 13.7113 14.9119L17.8077 12.5393L2.26616 6.80234L8.00818 21.7087L10.4219 17.9967C10.5106 17.8604 10.6438 17.7588 10.7987 17.7057L10.7984 17.7058ZM18.4391 12.7721C18.4391 12.7721 18.4399 12.7723 18.4402 12.7724L18.4391 12.7721Z" fill="#221E1F"/>
</g>
<defs>
<clipPath id="clip0_13_174">
<rect width="15.8307" height="24.9359" fill="white" transform="matrix(0.946032 -0.324073 0.360687 0.932687 0 5.13025)"/>
</clipPath>
</defs>
</svg>
