<svg width="23" height="29" viewBox="0 0 23 29" fill="none" xmlns="http://www.w3.org/2000/svg">
<path d="M5.43096 27.0434C5.54505 26.9606 5.65915 26.8778 5.7815 26.7957C9.59135 24.1333 13.4849 21.1284 18.4052 17.0465C18.5377 16.9401 18.6784 16.8344 18.8108 16.7281C19.2856 16.3734 19.7781 16.0034 19.9857 15.4461C20.0886 15.1799 20.1102 14.891 20.0581 14.5882C19.8412 13.2687 18.6102 12.7451 17.701 12.4697C16.1184 11.9863 14.5459 11.4787 12.8844 10.9395C12.3818 10.7775 11.8628 10.6142 11.3443 10.4427C12.7962 9.2312 14.4194 8.28157 15.983 7.35239C18.5009 5.87189 20.8717 4.47172 22.6417 2.11354L22.8353 1.85406L22.586 1.63621C21.9778 1.10933 21.5026 0.69198 20.7359 1.06638C15.2792 3.77182 10.4245 6.53051 5.89468 9.4961C5.41475 9.80891 5.09685 10.1753 4.95107 10.5712C4.65063 11.3706 5.07974 12.1829 6.06306 12.688C7.22184 13.2893 8.50643 13.6508 9.7421 14.0004L10.108 14.1025C11.2706 14.43 12.4611 14.7182 13.717 15.0195C14.0924 15.1056 14.4672 15.2 14.8585 15.2957C13.2561 16.7449 11.5702 18.0883 9.94523 19.3948C6.91705 21.8167 3.7824 24.3303 1.18062 27.4897L0.833626 27.9121L1.35394 28.0588C3.28969 28.5936 4.43068 27.7656 5.43157 27.0352" fill="#C3DCD9"/>
</svg>
