<svg width="22" height="30" viewBox="0 0 22 30" fill="none" xmlns="http://www.w3.org/2000/svg">
<path d="M21.3475 24.7514C21.2985 24.6113 21.246 24.4788 21.2046 24.342C19.6656 19.889 17.812 15.254 15.1992 9.33005C15.1304 9.17218 15.0648 9.00661 15.007 8.84438C14.7002 8.05297 14.3573 7.15453 13.2677 7.03042C13.0595 7.00431 12.8567 7.00798 12.6592 7.04143C11.6424 7.21409 10.969 8.09341 10.5423 8.74106C9.63118 10.1486 8.7036 11.5307 7.72497 13.0096C7.41911 13.4626 7.12096 13.919 6.80843 14.3874C6.03113 12.6331 5.54956 10.7874 5.0865 9.0045C4.3419 6.13934 3.62868 3.43411 1.8242 1.05228L1.61794 0.789202L1.33842 0.970052C0.652332 1.41395 0.115373 1.76691 0.267685 2.61948C1.3886 8.69345 2.74087 14.1907 4.37956 19.4278C4.71295 20.4959 5.42073 21.0584 6.26997 20.9138C6.70562 20.8371 7.14634 20.5797 7.54027 20.1557C8.44208 19.1923 9.1528 18.0365 9.84351 16.9269L10.0475 16.6036C10.6928 15.5566 11.2952 14.4819 11.9464 13.3369C12.1383 12.9992 12.3302 12.6615 12.5288 12.3084C13.4982 14.2739 14.3462 16.2874 15.1646 18.2424C16.6879 21.8654 18.2637 25.6209 20.6288 29.032L20.9434 29.4884L21.2295 29.0177C22.2841 27.2789 21.7929 25.9412 21.3552 24.7548" fill="#C3DCD9"/>
</svg>
