<svg width="24" height="24" viewBox="0 0 24 24" fill="none" xmlns="http://www.w3.org/2000/svg">
<g clip-path="url(#clip0_92_1405)">
<path d="M12 23.9996C8.79469 23.9996 5.78133 22.7512 3.51468 20.485C1.24839 18.2187 0 15.2053 0 12C0 8.79469 1.24839 5.78097 3.51468 3.51468C5.78097 1.24839 8.79469 0 12 0C15.2053 0 18.2187 1.24839 20.4853 3.51468C22.7516 5.78133 24 8.79469 24 12C24 15.2053 22.7516 18.2187 20.4853 20.4853C18.2187 22.7516 15.2053 24 12 24V23.9996ZM12 0.705989C5.77261 0.705989 0.705989 5.77261 0.705989 12C0.705989 18.2274 5.77224 23.294 12 23.294C18.2278 23.294 23.2936 18.2278 23.2936 12C23.2936 5.77224 18.2274 0.705989 12 0.705989Z" fill="#E3C275"/>
<path d="M12 3C7.02948 3 3 7.02948 3 12C3 16.9705 7.02948 21 12 21C16.9705 21 21 16.9705 21 12C21 7.02948 16.9705 3 12 3ZM9.84427 15.4112V8.58919L15.752 12L9.84427 15.4108V15.4112Z" fill="#E3C275"/>
</g>
<defs>
<clipPath id="clip0_92_1405">
<rect width="24" height="24" fill="white"/>
</clipPath>
</defs>
</svg>
