<svg width="120" height="220" viewBox="0 0 120 220" fill="none" xmlns="http://www.w3.org/2000/svg">
<g opacity="0.3" clip-path="url(#clip0_55_9850)">
<path d="M74.5343 220L61 206.417C86.7062 180.619 100.865 146.382 100.865 110C100.865 73.6179 86.7062 39.3812 61 13.5829L74.5343 0C88.7837 14.3005 99.9695 30.9429 107.791 49.4664C115.89 68.6622 120 89.0289 120 110C120 130.971 115.89 151.338 107.791 170.534C99.9695 189.057 88.7837 205.699 74.5343 220Z" fill="#8C6239"/>
<path d="M43.7453 189L30 175.454C47.7741 157.938 57.5594 134.696 57.5594 110C57.5594 85.304 47.7741 62.0621 30 44.5459L43.7453 31C54.1651 41.2686 62.345 53.2173 68.0709 66.5221C73.9956 80.3091 77 94.9398 77 110C77 125.06 73.9956 139.691 68.0709 153.478C62.3526 166.783 54.1651 178.731 43.7453 189Z" fill="#8C6239"/>
<path d="M13.3096 158L0 144.54C9.14199 135.295 14.1756 123.033 14.1756 110C14.1756 96.9669 9.14199 84.7049 0 75.4598L13.3096 62C26.0047 74.8384 33 91.884 33 110C33 128.116 26.0121 145.162 13.3096 158Z" fill="#8C6239"/>
</g>
<defs>
<clipPath id="clip0_55_9850">
<rect width="120" height="220" fill="white"/>
</clipPath>
</defs>
</svg>
