<svg width="276" height="254" viewBox="0 0 276 254" fill="none" xmlns="http://www.w3.org/2000/svg">
<path d="M76.5363 240.069C66.1118 235.489 56.7392 228.211 47.647 221.515C32.6413 210.471 21.4455 194.94 12.4001 178.455C3.54162 162.272 -0.385084 147.578 0.666713 134.395C1.36791 125.397 -0.198097 116.12 2.23272 107.285C4.71029 98.147 6.13606 88.4748 9.89915 79.686C22.3571 50.6692 43.5566 30.3016 73.5445 18.5833C86.1427 13.6542 98.7643 9.21329 111.386 5.23743C118.608 2.95886 129.266 1.44757 143.384 0.70355C153.715 0.168785 164.35 1.49407 175.265 4.72591C190.2 9.14354 202.097 13.7472 211.003 18.5136C240.593 34.3472 260.764 57.6677 271.516 88.4748C273.269 93.5202 274.344 99.0073 274.695 104.936C275.279 114.539 275.56 123.816 275.489 132.814C275.419 140.184 274.531 146.997 272.825 153.251C264.153 185.012 245.899 213.401 217.968 230.211C204.668 238.209 189.266 244.766 171.736 249.858C165.565 251.648 159.722 251.787 153.481 252.787C151.027 253.182 148.479 253.345 145.885 253.275C136.606 253.043 127.023 253.81 118.351 252.392C103.906 250.044 89.9759 245.951 76.5363 240.069Z" fill="white"/>
<g clip-path="url(#clip0_66_87)">
<path d="M241.976 203.002C241.522 202.131 240.055 201.737 239.326 202.831C238.209 204.484 236.125 205.243 234.293 205.779C231.472 206.605 228.509 206.873 225.59 207.03C218.473 207.424 217.267 206.903 210.172 206.375C204.515 205.95 213.671 205.221 207.984 205.385C202.46 205.533 196.913 206.248 191.419 206.777C185.538 207.342 179.657 207.908 173.768 208.303C161.931 209.092 150.116 208.37 138.264 208.437C126.397 208.504 114.53 208.921 102.656 208.861C96.7525 208.831 90.8489 208.653 84.9527 208.266C79.0267 207.871 73.1305 207.179 67.2045 206.799C55.3228 206.04 68.7158 205.883 56.8341 205.027C50.3572 204.558 43.9026 203.836 37.5076 202.712C37.4332 202.697 37.3587 202.69 37.2843 202.69C37.0982 194.85 37.0684 187.004 36.6217 179.172C36.4207 175.747 36.6664 172.315 37.4779 168.987C38.602 164.342 40.1058 159.816 42.4137 155.594C42.7264 155.014 43.0093 154.478 43.7686 154.321C44.1111 154.247 44.4089 153.86 44.6992 153.592C45.3692 152.974 46.0541 152.378 46.9028 152.028C48.6226 151.321 50.3795 150.703 52.2258 150.405C53.1266 150.257 54.0349 150.152 54.9431 150.093C57.1393 149.929 54.8836 149.989 57.0797 150.219C61.5242 150.688 58.5166 151.247 62.9908 151.47C64.2192 151.53 64.7627 151.418 65.8273 151.44C68.7903 151.507 68.7605 151.001 71.7086 150.681C73.0337 150.532 74.4408 150.666 75.6394 149.847C75.7138 149.795 75.8329 149.802 75.9297 149.795C77.709 149.78 79.3319 150.115 80.404 151.738C81.4537 153.339 82.5183 154.917 83.568 156.51C84.0444 157.225 84.4986 157.939 84.975 158.654C85.4291 159.332 85.9949 159.905 86.6947 160.322C88.0125 161.103 89.2334 161.29 90.432 160.18C90.4915 160.121 90.6107 160.121 90.6702 160.106C91.4445 160.508 92.1889 160.932 92.9706 161.267C93.8863 161.654 94.7425 161.476 95.472 160.776C95.7177 160.538 95.9411 160.292 96.1495 160.076C96.6409 160.337 97.0354 160.56 97.4374 160.754C98.3234 161.17 99.1274 160.955 99.79 160.299C100.132 159.957 100.363 159.488 100.624 159.064C100.773 158.825 100.877 158.557 101.011 158.274C101.234 158.386 101.361 158.446 101.487 158.513C101.703 158.647 101.897 158.803 102.12 158.922C103.319 159.57 104.458 159.25 104.979 157.984C105.277 157.262 105.426 156.436 105.485 155.646C105.634 153.703 105.113 151.857 104.51 150.041C104.301 149.43 104.063 148.827 103.847 148.232C104.331 147.822 104.756 147.517 105.336 147.428C106.423 147.256 107.51 147.026 108.597 146.832C114.255 145.827 119.95 145.343 125.698 145.343C128.065 145.343 130.425 145.365 132.785 145.38C134.542 145.395 136.299 145.44 138.063 145.425C142.433 145.388 146.803 145.291 151.181 145.276C155.052 145.269 158.916 145.559 162.75 146.147C164.782 146.46 166.815 146.81 168.847 147.122C169.472 147.219 169.941 147.517 170.381 147.934C170.127 148.656 169.882 149.318 169.658 149.981C169.018 151.909 168.624 153.867 168.869 155.907C168.944 156.54 169.1 157.202 169.383 157.776C169.941 158.937 171.028 159.22 172.167 158.602C172.547 158.394 172.904 158.163 173.314 157.917C173.559 158.416 173.731 158.84 173.954 159.22C174.736 160.553 175.905 160.895 177.282 160.195C177.58 160.046 177.855 159.845 178.153 159.667C178.302 159.801 178.428 159.89 178.51 160.002C179.284 161.051 180.423 161.379 181.868 160.634C182.486 160.322 183.081 159.957 183.669 159.629C185.374 160.776 186.662 160.724 188.181 159.421C188.598 159.064 188.963 158.639 189.29 158.2C189.737 157.597 190.116 156.942 190.526 156.309C191.561 154.708 192.648 153.13 193.623 151.492C194.509 149.996 195.871 149.415 197.487 149.229C198.038 149.162 198.559 149.199 199.08 149.505C199.452 149.721 199.929 149.795 200.368 149.84C204.574 150.242 208.773 150.659 212.987 150.83C219.434 151.098 204.998 150.673 211.401 149.966C214.148 149.661 216.888 149.296 219.642 149.095C223.327 148.827 226.96 149.177 230.482 150.435C231.829 150.919 233.057 151.544 234.085 152.557C234.331 152.803 234.599 153.138 234.904 153.197C235.775 153.368 236.065 154.031 236.437 154.694C238.016 157.463 239.021 160.463 240.1 163.434C241.805 168.131 242.423 172.985 242.363 177.943C242.348 179.752 242.155 181.561 242.125 183.363C242.013 189.594 241.939 195.826 241.857 202.064C241.857 202.31 241.85 202.57 241.909 202.809C241.924 202.876 241.946 202.943 241.976 203.002Z" fill="#F1F1EB"/>
<path d="M171.133 157.098C171.937 156.748 172.45 156.123 172.986 155.706C173.195 154.709 173.314 153.808 173.574 152.952C174.646 149.438 176.463 146.333 178.778 143.512C178.935 143.318 179.098 143.117 179.299 142.976C179.5 142.842 179.746 142.73 179.984 142.7C180.356 142.648 180.677 142.812 180.878 143.14C181.056 143.43 180.989 143.847 180.729 144.107C180.476 144.353 180.163 144.539 179.947 144.807C177.706 147.502 176.016 150.51 175.078 153.905C174.728 155.192 174.795 156.495 175.205 157.768C175.346 158.208 175.532 158.617 176.076 158.796C176.619 158.58 177.215 158.356 177.818 158.118C177.758 156.734 178.071 155.468 178.547 154.247C179.739 151.187 181.309 148.336 183.26 145.693C183.677 145.127 184.131 144.576 184.652 144.115C184.972 143.832 185.426 143.661 185.851 143.556C185.955 143.527 186.059 143.527 186.156 143.542C186.439 143.594 186.692 143.824 186.826 144.107C186.982 144.457 186.856 144.911 186.394 145.097C185.598 145.418 185.099 146.035 184.63 146.683C182.806 149.222 181.257 151.924 180.163 154.857C179.902 155.565 179.716 156.302 179.597 157.039C179.523 157.471 179.59 157.947 179.694 158.371C179.902 159.227 180.364 159.458 181.138 159.086C181.808 158.766 182.448 158.371 182.999 158.066C183.29 156.949 183.476 155.9 183.841 154.924C185.069 151.664 186.737 148.634 188.977 145.946C189.231 145.641 189.499 145.328 189.781 145.045C190.049 144.785 190.377 144.681 190.727 144.681C190.831 144.681 190.935 144.681 191.04 144.703C191.404 144.755 191.702 145.045 191.747 145.388C191.792 145.715 191.68 146.035 191.39 146.155C190.504 146.542 190.027 147.323 189.476 148.031C187.675 150.361 186.394 152.967 185.374 155.714C185.196 156.183 185.062 156.667 184.98 157.165C184.935 157.493 184.98 157.865 185.062 158.193C185.181 158.654 185.538 158.811 186 158.691C186.722 158.513 187.265 158.066 187.682 157.493C188.188 156.801 188.635 156.078 189.104 155.356C190.198 153.674 191.315 151.999 192.365 150.286C193.206 148.902 194.442 148.142 195.953 147.755C196.392 147.644 196.839 147.577 197.278 147.48C197.502 147.435 197.785 147.524 197.926 147.197C197.889 147.07 197.866 146.921 197.792 146.795C196.839 145.239 195.439 144.204 193.831 143.422C193.66 143.341 193.429 143.288 193.266 143.341C192.722 143.512 192.29 143.266 191.836 143.05C191.747 143.006 191.65 142.968 191.561 142.924C191.285 142.797 191.01 142.693 190.72 142.611C189.372 142.246 188.025 141.874 186.67 141.524C185.888 141.316 185.099 141.122 184.302 140.943C182.984 140.646 181.637 140.497 180.289 140.318C179.143 140.169 178.086 140.467 177.148 141.115C176.619 141.479 176.106 141.911 175.681 142.395C172.748 145.745 171.177 149.713 170.522 154.076C170.395 154.939 170.559 155.781 170.768 156.607C170.812 156.778 170.991 156.912 171.14 157.113L171.133 157.098ZM200.368 149.832C199.929 149.788 199.452 149.713 199.08 149.497C198.559 149.192 198.038 149.155 197.487 149.222C195.871 149.415 194.509 149.989 193.623 151.485C192.648 153.123 191.561 154.701 190.526 156.302C190.116 156.935 189.729 157.59 189.29 158.193C188.963 158.639 188.598 159.064 188.181 159.414C186.662 160.716 185.374 160.769 183.669 159.622C183.081 159.95 182.478 160.314 181.868 160.627C180.423 161.364 179.284 161.044 178.51 159.994C178.428 159.875 178.294 159.793 178.153 159.659C177.863 159.838 177.58 160.039 177.282 160.188C175.905 160.888 174.736 160.545 173.954 159.213C173.731 158.833 173.559 158.416 173.314 157.91C172.904 158.155 172.547 158.386 172.167 158.595C171.021 159.213 169.941 158.93 169.383 157.768C169.108 157.195 168.944 156.533 168.869 155.9C168.616 153.86 169.018 151.894 169.658 149.974C169.882 149.304 170.127 148.649 170.381 147.926C169.934 147.51 169.465 147.204 168.847 147.115C166.815 146.81 164.782 146.452 162.75 146.14C158.916 145.552 155.059 145.254 151.181 145.269C146.811 145.276 142.441 145.38 138.063 145.418C136.306 145.432 134.542 145.388 132.785 145.373C130.417 145.358 128.057 145.336 125.698 145.336C119.958 145.336 114.255 145.812 108.597 146.825C107.51 147.018 106.431 147.249 105.336 147.42C104.756 147.51 104.324 147.815 103.847 148.224C104.071 148.82 104.309 149.423 104.51 150.033C105.113 151.85 105.634 153.696 105.485 155.639C105.426 156.428 105.277 157.247 104.979 157.977C104.458 159.235 103.319 159.563 102.12 158.915C101.897 158.796 101.703 158.639 101.487 158.505C101.361 158.431 101.234 158.371 101.011 158.267C100.877 158.55 100.765 158.818 100.624 159.056C100.363 159.481 100.14 159.95 99.79 160.292C99.1274 160.947 98.3308 161.163 97.4375 160.746C97.0354 160.553 96.6483 160.329 96.1495 160.069L97.0057 158.714C97.4821 158.87 97.9288 159.019 98.3457 159.153C98.8892 158.825 99.0455 158.349 99.1795 157.858C99.5518 156.51 99.5369 155.155 99.0753 153.845C97.8618 150.353 96.2463 147.093 93.462 144.547C93.1568 144.271 93.0898 143.906 93.2535 143.594C93.4397 143.244 93.7449 143.117 94.132 143.125C94.6904 143.132 95.0403 143.475 95.3678 143.877C97.3183 146.207 98.9115 148.745 100.058 151.567C100.549 152.773 101.033 153.994 101.085 155.326C101.093 155.527 101.115 155.773 101.234 155.9C101.8 156.518 102.344 157.18 103.2 157.359C103.617 156.972 103.698 156.518 103.691 156.071C103.676 155.073 103.721 154.053 103.527 153.078C102.961 150.242 101.852 147.606 100.333 145.157C99.7304 144.182 98.9636 143.296 98.1819 142.447C97.0354 141.204 95.6061 140.549 93.8714 140.735C93.2759 140.794 92.6654 140.824 92.0698 140.914L91.8242 139.238C92.5016 139.134 93.1865 139.037 93.864 138.978C96.0751 138.769 97.8841 139.663 99.4103 141.196C100.512 142.313 101.458 143.542 102.224 144.911C102.418 145.254 102.641 145.574 102.783 145.805C103.639 145.633 104.361 145.477 105.091 145.351C105.783 145.224 106.475 145.127 107.175 145.03C110.012 144.621 112.833 144.137 115.677 143.832C120.278 143.341 124.908 143.281 129.532 143.311C131.594 143.326 133.648 143.326 135.711 143.311C136.165 143.311 136.611 143.311 137.058 143.311C141.733 143.281 146.416 143.221 151.091 143.244C154.71 143.259 158.32 143.519 161.916 144.011C162.564 144.1 163.211 144.174 163.859 144.264C164.507 144.353 165.154 144.45 165.795 144.554C166.39 144.651 166.978 144.785 167.574 144.874C168.222 144.963 168.877 144.993 169.517 145.097C170.142 145.202 170.745 145.38 171.386 145.529C171.654 145.053 171.907 144.621 172.152 144.189C172.882 142.916 173.783 141.77 174.818 140.735C176.307 139.246 178.078 138.397 180.237 138.598C181.481 138.717 182.724 138.911 183.967 139.067C184.183 139.09 184.406 139.09 184.808 139.119C183.096 135.881 181.123 133.156 177.907 131.556C177.23 131.221 176.552 130.9 175.867 130.588C171.765 128.734 167.663 126.888 163.561 125.041C163.755 124.587 163.725 124.059 163.316 123.605C163.368 123.314 163.323 123.009 163.159 122.741C163.472 122.801 163.777 122.89 164.06 123.016C166.301 124.029 168.527 125.094 170.768 126.113C172.182 126.761 173.619 127.364 175.048 127.99C175.369 128.131 175.711 128.28 176.046 128.057C176.85 127.528 177.684 127.781 178.525 127.908C179.813 128.109 181.108 128.295 182.404 128.406C185.91 128.697 189.29 127.923 192.737 127.141C193.571 125.272 194.256 123.486 194.531 121.587C194.844 119.45 195.201 117.306 195.32 115.155C195.707 108.164 195.484 101.189 194.449 94.2502C194.077 91.7562 193.519 89.3069 192.581 86.9693C192.283 86.2248 192.283 85.5399 192.491 84.7805C193.452 81.2815 193.958 77.7081 194.196 74.0825C194.494 69.504 194.33 64.933 194.07 60.3694C193.928 57.868 193.809 55.3368 193.191 52.8949C192.447 49.9245 191.658 46.9615 190.809 44.0134C190.385 42.5244 189.781 41.0876 189.104 39.6954C188.821 39.6061 188.59 39.5093 188.345 39.4498C185.851 38.884 183.357 38.2735 180.848 37.7747C177.438 37.1121 174.006 36.6803 170.515 36.7027C168.854 36.7101 167.194 36.6803 165.542 36.6208C156.638 36.2932 147.749 36.6357 138.86 37.0526C138.711 37.0526 138.562 37.0675 138.406 37.0824C138.063 37.1196 137.706 37.2461 137.378 37.1866C137.058 37.127 136.775 36.8888 136.626 36.8069L136.44 35.7646C137.721 34.9755 137.773 34.9904 139.314 34.9532C141.272 34.9159 143.23 34.8117 145.188 34.7298C146.29 34.6926 147.391 34.6033 148.501 34.6033C155.99 34.6107 163.479 34.6256 170.969 34.6628C175.406 34.6852 179.776 35.3999 184.116 36.2783C186.081 36.6729 188.017 37.1866 189.975 37.6258C190.526 37.7524 190.839 38.1023 191.025 38.6011C191.576 40.1123 192.179 41.6013 192.655 43.1349C193.787 46.7307 194.807 50.3563 195.462 54.0712C195.655 55.1581 195.774 56.2599 195.864 57.3617C196.303 62.9303 196.459 68.5064 196.214 74.0825C196.05 77.7527 195.506 81.3858 194.643 84.9592C194.509 85.525 194.524 86.0164 194.71 86.5673C195.834 89.8653 196.444 93.2749 196.847 96.7218C197.487 102.171 197.606 107.651 197.45 113.13C197.368 116.048 197.092 118.944 196.593 121.825C196.34 123.314 195.946 124.766 195.41 126.18C195.179 126.791 194.926 127.372 194.993 128.071C195.045 128.66 194.717 128.972 194.144 129.151C194.047 129.181 193.951 129.21 193.854 129.225C191.62 129.575 189.387 129.925 187.161 130.275C185.359 130.558 183.55 130.506 181.741 130.379C181.347 130.357 180.945 130.335 180.394 130.297C180.55 130.551 180.61 130.752 180.744 130.833C182.523 132.047 183.855 133.685 185.017 135.457C185.813 136.67 186.483 137.973 187.139 139.268C187.369 139.715 187.608 140.013 188.084 140.139C188.814 140.333 189.536 140.526 190.265 140.735C190.943 140.928 191.613 141.129 192.283 141.33C192.476 141.39 192.685 141.524 192.849 141.479C193.742 141.256 194.405 141.747 195.097 142.134C196.162 142.715 197.144 143.408 197.993 144.279C198.916 145.231 199.608 146.318 200.025 147.658C200.837 147.778 201.626 147.934 202.415 148.008C205.415 148.291 208.423 148.596 211.423 148.79C215.443 149.051 204.574 149.013 208.594 148.783C213.515 148.492 212.436 147.785 217.327 147.242C218.92 147.063 220.513 146.974 222.114 146.996C222.121 146.996 222.129 147.003 222.136 147.011C222.441 147.197 222.761 147.242 223.067 147.189C223.454 147.294 223.878 147.264 224.221 147.078C225.136 147.137 226.045 147.242 226.953 147.383C228.896 147.688 230.765 148.284 232.581 149.021C233.177 149.266 233.742 149.624 234.271 149.989C234.934 150.435 235.522 150.971 236.296 151.262C236.929 151.492 237.331 152.058 237.636 152.646C238.447 154.202 239.333 155.736 240.018 157.351C241.299 160.404 242.453 163.523 243.227 166.754C244.254 171.027 244.612 175.39 244.351 179.782C243.994 185.708 244.024 191.634 244.024 197.568C244.024 198.975 244.016 200.382 243.979 201.789C243.971 202.183 243.904 202.593 243.785 202.973C243.644 203.412 243.16 203.65 242.691 203.583C242.319 203.531 242.058 203.33 241.924 203.017C241.894 202.958 241.872 202.891 241.857 202.824C241.79 202.593 241.805 202.332 241.805 202.079C241.887 195.841 241.961 189.609 242.073 183.378C242.103 181.569 242.296 179.767 242.311 177.958C242.363 173 241.745 168.146 240.048 163.449C238.969 160.471 237.964 157.471 236.385 154.709C236.006 154.046 235.723 153.383 234.852 153.212C234.546 153.153 234.286 152.818 234.033 152.572C233.005 151.567 231.777 150.934 230.43 150.45C226.908 149.192 223.275 148.835 219.59 149.11C216.836 149.311 214.088 149.669 211.349 149.981" fill="#264964"/>
<path d="M222.173 146.981C222.881 146.981 223.58 147.011 224.28 147.063C223.938 147.249 223.513 147.279 223.126 147.175C222.828 147.227 222.508 147.175 222.196 146.996C222.196 146.996 222.181 146.988 222.173 146.981Z" fill="#264964"/>
<path d="M37.2769 203.873C37.2173 204.372 36.8525 204.7 36.3761 204.744C36.1304 204.767 35.8847 204.707 35.6837 204.581C35.5125 203.724 36.1751 202.63 37.2769 202.682C37.2769 202.779 37.2769 202.876 37.2769 202.973C37.2769 203.27 37.2992 203.583 37.262 203.873H37.2769Z" fill="#264964"/>
<path d="M35.6911 204.58C35.8921 204.707 36.1378 204.767 36.3835 204.744C36.8599 204.7 37.2173 204.372 37.2843 203.873C37.3215 203.583 37.3066 203.27 37.2992 202.972C37.2992 202.876 37.2992 202.779 37.2992 202.682C37.3662 202.682 37.4406 202.69 37.5225 202.704C43.9175 203.836 50.3721 204.551 56.849 205.02C68.7307 205.883 55.3302 206.032 67.2194 206.792C73.1454 207.171 79.0416 207.871 84.9676 208.258C90.8638 208.645 96.7674 208.817 102.671 208.854C114.545 208.913 126.412 208.496 138.279 208.429C150.131 208.37 161.946 209.085 173.783 208.295C179.679 207.901 185.56 207.335 191.434 206.769C196.928 206.241 202.475 205.526 207.999 205.377C213.686 205.221 204.529 205.943 210.187 206.367C217.282 206.896 218.488 207.417 225.605 207.022C228.524 206.859 231.487 206.591 234.308 205.772C236.14 205.236 238.224 204.469 239.341 202.824C240.078 201.729 241.544 202.124 241.991 202.995C242.185 203.367 242.192 203.829 241.872 204.298C239.944 207.149 236.475 208.4 233.236 209.055C226.73 210.372 219.932 210.209 213.329 209.881C206.569 209.554 220.677 208.876 213.925 208.474C205.467 207.968 197.018 209.166 188.613 209.97C176.761 211.102 164.991 211.891 153.072 211.519C129.435 210.789 105.746 212.926 82.1386 210.983C70.242 210.008 71.7905 209.271 59.8566 208.764C48.1238 208.273 48.3024 207.573 36.7334 205.526C36.1155 205.414 35.7879 205.027 35.6986 204.573L35.6911 204.58Z" fill="white"/>
<path d="M34.5223 179.239C34.3585 173.968 34.9913 168.816 36.7408 163.814C37.8352 160.687 38.8551 157.53 40.5302 154.642C40.7759 154.21 40.9992 153.748 41.2821 153.346C41.5129 153.026 41.7883 152.639 42.1234 152.512C43.1805 152.103 43.9473 151.277 44.8853 150.711C45.3618 150.428 45.8457 150.153 46.3594 149.959C48.7194 149.043 51.1314 148.388 53.6329 148.135C53.9083 148.507 54.3699 148.693 54.8315 148.693L54.9282 150.093C54.02 150.153 53.1117 150.264 52.2109 150.406C50.3646 150.703 48.6077 151.321 46.888 152.029C46.0393 152.378 45.3544 152.974 44.6843 153.592C44.394 153.86 44.0962 154.247 43.7537 154.322C42.9944 154.478 42.7115 155.014 42.3988 155.595C40.091 159.816 38.5871 164.342 37.463 168.988C36.6515 172.315 36.4058 175.747 36.6068 179.172C37.061 187.004 37.0907 194.85 37.2694 202.69C36.1676 202.638 35.505 203.732 35.6763 204.588C35.4976 204.476 35.3561 204.313 35.2891 204.097C35.1849 203.769 35.1402 203.412 35.1253 203.062C35.0807 202.005 35.0509 200.955 35.036 199.898C34.9839 195.93 34.9765 191.954 34.8797 187.986C34.8127 185.076 34.6042 182.165 34.5149 179.254L34.5223 179.239Z" fill="#264964"/>
<path d="M197.785 146.773C197.859 146.892 197.881 147.048 197.919 147.175C197.785 147.502 197.494 147.413 197.271 147.458C196.832 147.554 196.377 147.621 195.946 147.733C194.434 148.128 193.199 148.879 192.357 150.264C191.315 151.976 190.191 153.652 189.097 155.334C188.635 156.056 188.181 156.778 187.675 157.471C187.25 158.044 186.714 158.491 185.992 158.669C185.531 158.781 185.181 158.625 185.054 158.17C184.972 157.843 184.92 157.471 184.972 157.143C185.047 156.652 185.188 156.16 185.367 155.691C186.387 152.952 187.667 150.339 189.469 148.008C190.02 147.301 190.496 146.519 191.382 146.132C191.672 146.006 191.784 145.693 191.739 145.366C191.695 145.023 191.397 144.733 191.032 144.681C190.928 144.666 190.816 144.658 190.719 144.658L191.553 142.901C191.643 142.939 191.739 142.983 191.829 143.028C192.283 143.244 192.715 143.489 193.258 143.318C193.422 143.266 193.66 143.318 193.824 143.4C195.432 144.182 196.832 145.217 197.785 146.773Z" fill="white"/>
<path d="M194.487 94.2204C195.521 101.159 195.745 108.135 195.358 115.125C195.238 117.277 194.881 119.421 194.568 121.557C194.293 123.456 193.608 125.242 192.774 127.111C189.327 127.893 185.947 128.674 182.441 128.377C181.146 128.265 179.85 128.079 178.562 127.878C177.714 127.751 176.88 127.498 176.083 128.027C175.741 128.25 175.406 128.094 175.086 127.96C173.656 127.334 172.219 126.731 170.805 126.084C168.564 125.064 166.346 124.007 164.097 122.987C163.814 122.86 163.509 122.763 163.196 122.711C163.129 122.6 163.033 122.488 162.921 122.391C162.586 122.116 162.311 121.937 161.909 121.781C161.789 121.736 161.67 121.691 161.551 121.647C161.492 121.587 161.425 121.528 161.365 121.468C161.052 121.14 160.74 120.843 160.39 120.575C160.353 120.396 160.263 120.217 160.129 120.046C160.099 120.009 160.07 119.964 160.032 119.934C158.618 118.728 157.218 117.5 155.782 116.324C155.022 115.698 154.084 115.475 153.109 115.423C151.843 115.356 150.6 115.46 149.431 116.011C149.156 114.678 149.171 114.693 149.96 114.046C151.009 113.189 152.059 112.326 153.087 111.44C154.307 110.375 155.313 109.147 156.057 107.68C157.293 105.253 158.231 102.715 158.864 100.064C158.953 99.6848 159.072 99.3125 159.214 98.8063C160.36 99.3721 161.201 98.8063 161.998 98.181C163.025 97.3695 163.956 96.4463 164.648 95.3222C166.651 92.0912 167.284 88.5252 167.12 84.7805C167.083 83.9095 166.829 83.0906 166.375 82.3535C166.033 81.8101 165.646 81.2294 165.14 80.8646C164.551 80.4402 163.814 80.2318 163.077 79.9042C162.653 78.4376 161.678 77.2316 160.531 76.1446C158.186 73.941 155.767 71.8193 153.087 70.0251C150.831 68.5138 148.568 67.0175 146.334 65.4764C145.307 64.7617 144.324 63.98 143.334 63.1983C142.426 62.4762 141.577 61.687 140.981 60.6746C140.148 59.2601 138.957 58.0317 138.681 56.3194C138.607 55.8355 138.145 55.5824 137.661 55.6196C137.244 55.6494 136.909 55.9174 136.805 56.3418C136.753 56.58 136.708 56.848 136.768 57.0788C136.887 57.5627 137.013 58.0615 137.252 58.4933C138.852 61.3744 140.691 64.047 143.475 65.9454C144.183 66.4293 144.868 66.9356 145.575 67.4195C147.652 68.834 149.736 70.241 151.821 71.6406C154.419 73.3827 156.749 75.4448 159.013 77.5964C160.003 78.5418 160.807 79.6139 161.358 80.9093C161.127 81.1698 160.859 81.408 160.68 81.7058C160.479 82.0483 160.315 82.428 160.233 82.8076C160.122 83.3139 160.479 83.8425 160.941 83.9988C161.365 84.1403 161.804 83.9765 162.117 83.5447C162.169 83.4628 162.206 83.366 162.251 83.2767C162.482 82.7183 162.936 82.4503 163.435 82.3014C164.172 82.5843 164.507 83.1501 164.752 83.7606C165.08 84.5572 165.221 85.4059 165.147 86.2694C165.087 87.0214 165.02 87.7733 164.909 88.5177C164.648 90.2151 164.179 91.853 163.368 93.3791C162.698 94.6447 161.767 95.6944 160.635 96.5506C160.382 96.7441 160.055 96.8335 159.69 96.9972C159.675 96.7218 159.63 96.5729 159.653 96.4314C159.772 95.687 159.921 94.95 160.025 94.2055C160.114 93.5578 160.196 92.9101 160.189 92.2624C160.189 91.652 159.802 91.2872 159.281 91.2499C158.745 91.2127 158.35 91.518 158.223 92.1061C158.179 92.2996 158.179 92.5006 158.156 92.7017C157.821 95.3966 157.263 98.0469 156.571 100.675C155.968 102.968 155.097 105.157 153.92 107.219C153.578 107.822 153.168 108.417 152.677 108.909C151.709 109.862 150.712 110.785 149.64 111.611C148.583 112.438 147.466 113.204 146.29 113.852C144.972 114.574 143.58 115.17 142.188 115.75C140.386 116.502 138.45 116.45 136.559 116.547C135.763 116.584 134.951 116.458 134.155 116.346C133.418 116.234 132.651 116.13 131.959 115.87C130.738 115.415 129.524 114.909 128.363 114.321C127.172 113.711 126.047 112.959 124.893 112.266C124.767 112.192 124.648 112.088 124.536 111.991C123.762 111.351 122.988 110.71 122.221 110.063C121.089 109.117 120.181 108.001 119.518 106.675C118.677 105.008 117.918 103.31 117.404 101.524C116.57 98.6276 115.923 95.687 115.528 92.6942C115.506 92.4932 115.491 92.2922 115.439 92.0986C115.327 91.7264 114.903 91.4137 114.523 91.4361C114.151 91.4509 113.793 91.585 113.674 91.9497C113.555 92.3145 113.473 92.7314 113.511 93.1111C113.578 93.8109 113.749 94.4958 113.86 95.1882C113.965 95.821 114.106 96.4538 114.084 97.2504C113.667 97.0494 113.339 96.9451 113.071 96.7516C111.977 95.9252 111.061 94.9351 110.406 93.7216C109.059 91.2276 108.53 88.5326 108.545 85.7334C108.545 85.1006 108.746 84.4455 108.977 83.8425C109.193 83.2916 109.528 82.763 110.25 82.5694C110.473 82.6885 110.771 82.7853 110.972 82.9863C111.21 83.2246 111.352 83.567 111.56 83.8499C111.813 84.1998 112.163 84.3785 112.61 84.2817C113.049 84.1775 113.362 83.7531 113.384 83.2841C113.406 82.696 113.213 82.1749 112.796 81.7877C112.394 81.4155 111.947 81.073 111.478 80.7976C110.518 80.2318 109.55 80.336 108.649 80.9688C107.972 81.4378 107.495 82.093 107.138 82.8225C106.594 83.9318 106.371 85.1081 106.446 86.3364C106.557 88.2944 106.825 90.2375 107.436 92.1135C108.143 94.3023 109.23 96.2602 111.009 97.7789C111.575 98.2628 112.178 98.7616 112.848 99.0669C113.354 99.2977 114.002 99.2232 114.657 99.2902C114.821 99.8858 114.992 100.504 115.156 101.136C115.744 103.437 116.652 105.611 117.709 107.725C118.513 109.333 119.638 110.658 121.007 111.797C122.012 112.631 123.032 113.457 124.045 114.269C124.782 114.857 124.812 114.939 124.462 116.108C124.231 116.033 124 115.944 123.769 115.884C121.342 115.281 119.087 115.468 117.158 117.277C116.206 118.17 115.215 119.019 114.248 119.905C114.032 120.106 113.823 120.336 113.682 120.589C113.533 120.85 113.563 121.215 113.712 121.49C113.28 121.87 112.826 122.279 112.595 122.726C112.446 123.009 112.29 123.277 112.118 123.545C111.999 123.195 111.687 122.912 111.314 122.935C110.875 122.957 110.406 123.039 110.012 123.217C108.054 124.118 106.118 125.086 104.16 125.994C102.247 126.88 100.319 127.729 98.3606 128.622C97.5417 128.034 96.6706 128.019 95.7549 128.235C92.0773 129.099 88.3847 129.084 84.6847 128.362C83.5978 128.153 82.5183 127.93 81.3495 127.692C81.2155 127.439 81.0293 127.148 80.8879 126.836C79.8754 124.572 79.3022 122.183 78.9746 119.733C78.1557 113.681 78.2078 107.606 78.5651 101.524C78.7289 98.6574 79.0193 95.8135 79.533 92.992C79.8903 91.0638 80.3444 89.158 81.0889 87.334C81.3495 86.6938 81.3346 86.1057 81.141 85.4356C80.0094 81.5569 79.4511 77.5889 79.2203 73.5613C78.9001 67.8736 79.1309 62.2082 79.5925 56.5428C79.7563 54.5327 80.2402 52.5822 80.7315 50.6317C81.5207 47.5123 82.2652 44.3856 83.5084 41.4077C83.6648 41.0355 83.8136 40.6707 83.9774 40.2538C85.3175 39.688 86.7394 39.3902 88.1539 39.0626C91.7795 38.2288 95.4274 37.5216 99.1348 37.194C99.6857 37.1419 100.237 37.0972 100.795 37.0823C108.835 36.8367 116.876 36.591 124.916 36.7548C127.276 36.7994 129.636 36.9483 131.996 37.0749C133.098 37.1344 134.199 36.9855 135.301 37.2238C135.673 37.2982 136.12 36.993 136.686 36.8143C136.835 36.8962 137.125 37.1344 137.438 37.194C137.765 37.2536 138.123 37.1344 138.465 37.0898C138.614 37.0749 138.763 37.0674 138.919 37.06C147.808 36.6431 156.697 36.3006 165.601 36.6282C167.261 36.6878 168.921 36.725 170.574 36.7101C174.058 36.6878 177.498 37.1196 180.907 37.7821C183.416 38.2735 185.91 38.8914 188.404 39.4572C188.65 39.5093 188.881 39.6061 189.164 39.7029C189.848 41.095 190.444 42.5318 190.868 44.0208C191.71 46.9689 192.506 49.9244 193.251 52.9023C193.869 55.3442 193.98 57.8754 194.129 60.3768C194.39 64.9478 194.554 69.5189 194.256 74.0899C194.017 77.7155 193.511 81.2889 192.551 84.7879C192.335 85.5547 192.335 86.2322 192.64 86.9767C193.578 89.3218 194.137 91.7711 194.509 94.2576L194.487 94.2204ZM168.028 105.901C168.944 104.01 169.457 102.052 169.457 99.9528C169.435 99.4019 169.45 98.8435 169.368 98.3001C169.309 97.8385 168.84 97.4886 168.408 97.4737C167.924 97.4588 167.425 97.8534 167.373 98.382C167.321 98.9329 167.321 99.4838 167.351 100.042C167.425 101.687 167.016 103.221 166.331 104.703C165.422 106.668 164.313 108.507 162.958 110.212C161.849 111.611 160.561 112.773 158.916 113.51C158.774 113.569 158.633 113.614 158.506 113.696C158.082 113.956 157.903 114.418 158.037 114.865C158.164 115.281 158.611 115.631 159.08 115.557C159.519 115.49 159.958 115.334 160.345 115.133C161.797 114.396 163.003 113.346 164.045 112.103C165.631 110.204 166.941 108.142 168.021 105.909L168.028 105.901ZM120.576 113.197C120.65 112.75 120.412 112.304 119.95 112.117C119.675 112.006 119.377 111.939 119.079 111.872C118.543 111.753 118 111.656 117.456 111.537C114.709 110.949 112.602 109.437 111.113 107.07C110.585 106.221 110.146 105.313 109.677 104.427C109.289 103.705 109.096 102.938 109.289 102.104C109.349 101.866 109.342 101.606 109.304 101.36C109.222 100.839 108.738 100.444 108.247 100.474C107.808 100.504 107.406 100.854 107.324 101.33C107.257 101.725 107.257 102.134 107.227 102.536C107.19 103.459 107.354 104.338 107.793 105.157C108.217 105.953 108.612 106.765 109.059 107.554C111.21 111.403 114.56 113.413 118.871 113.964C119.116 113.993 119.37 114.016 119.615 114.001C120.114 113.971 120.501 113.636 120.576 113.197Z" fill="white"/>
<path d="M191.553 142.901L190.719 144.658C190.37 144.658 190.042 144.762 189.774 145.023C189.491 145.306 189.231 145.611 188.97 145.924C186.729 148.611 185.062 151.641 183.833 154.902C183.461 155.877 183.282 156.927 182.992 158.044C182.441 158.349 181.801 158.744 181.131 159.064C180.356 159.436 179.895 159.205 179.686 158.349C179.582 157.925 179.515 157.448 179.59 157.016C179.709 156.279 179.895 155.542 180.155 154.835C181.25 151.902 182.798 149.2 184.622 146.661C185.091 146.013 185.598 145.403 186.387 145.075C186.848 144.889 186.975 144.435 186.818 144.085C186.692 143.802 186.439 143.571 186.148 143.519L186.662 141.502C188.017 141.852 189.365 142.224 190.712 142.589C191.002 142.663 191.278 142.775 191.553 142.901Z" fill="white"/>
<path d="M186.662 141.502L186.148 143.519C186.052 143.504 185.947 143.504 185.843 143.534C185.419 143.646 184.965 143.81 184.645 144.092C184.131 144.561 183.677 145.105 183.253 145.671C181.309 148.314 179.731 151.165 178.54 154.225C178.064 155.446 177.743 156.711 177.81 158.096C177.2 158.334 176.612 158.565 176.068 158.773C175.525 158.595 175.339 158.185 175.197 157.746C174.788 156.473 174.721 155.17 175.071 153.882C176.009 150.495 177.706 147.487 179.94 144.785C180.163 144.517 180.468 144.331 180.721 144.085C180.982 143.832 181.049 143.408 180.87 143.117C180.669 142.79 180.357 142.618 179.977 142.678C179.739 142.708 179.493 142.819 179.292 142.953C179.091 143.095 178.927 143.296 178.771 143.489C176.455 146.318 174.639 149.423 173.567 152.929C173.306 153.785 173.187 154.686 172.979 155.684C172.443 156.108 171.929 156.726 171.125 157.076C170.976 156.875 170.798 156.741 170.753 156.57C170.544 155.743 170.381 154.895 170.507 154.039C171.162 149.676 172.726 145.708 175.666 142.358C176.091 141.874 176.604 141.442 177.133 141.077C178.071 140.43 179.128 140.124 180.275 140.281C181.622 140.459 182.97 140.601 184.287 140.906C185.076 141.085 185.866 141.286 186.655 141.487L186.662 141.502Z" fill="white"/>
<path d="M184.831 139.097C184.429 139.075 184.205 139.075 183.99 139.045C182.746 138.889 181.503 138.695 180.26 138.576C178.101 138.367 176.329 139.224 174.84 140.713C173.805 141.747 172.904 142.894 172.175 144.167C171.929 144.606 171.683 145.038 171.408 145.507C170.775 145.358 170.165 145.187 169.539 145.075C168.899 144.971 168.244 144.941 167.596 144.852C167.001 144.77 166.405 144.628 165.817 144.532C165.169 144.427 164.529 144.331 163.881 144.241C163.234 144.152 162.586 144.078 161.938 143.988C158.35 143.497 154.739 143.236 151.114 143.221C146.438 143.199 141.756 143.259 137.08 143.288V141.978C137.319 141.978 137.564 141.814 137.84 141.494C138.77 140.37 139.656 139.216 140.587 138.099C144.212 133.714 147.51 129.099 150.496 124.26C151.077 123.322 151.583 122.332 152.104 121.364C152.201 121.193 152.312 120.977 152.283 120.805C152.245 120.582 152.126 120.299 151.955 120.195C151.784 120.091 151.449 120.083 151.27 120.195C151.039 120.344 150.876 120.627 150.697 120.857C150.466 121.155 150.511 121.662 149.96 121.81C149.454 120.686 149.543 119.503 149.439 118.274C149.818 118.23 150.124 118.252 150.384 118.148C150.652 118.051 150.875 117.813 151.144 117.679C151.315 117.589 151.523 117.552 151.717 117.53C153.005 117.403 154.218 117.552 155.223 118.498C156.072 119.287 156.95 120.031 157.821 120.79C157.874 120.835 157.933 120.887 157.993 120.939C157.628 121.654 157.926 122.428 158.558 122.875C158.648 122.935 158.745 123.024 158.841 123.113C158.841 123.165 158.841 123.217 158.841 123.277C158.893 123.724 159.013 124.163 159.124 124.595C159.645 126.582 160.174 128.563 160.703 130.55C160.166 131.146 159.63 131.302 159.109 131.481C157.643 131.98 156.161 132.456 154.687 132.955C154.121 133.156 153.556 133.372 153.027 133.655C152.528 133.915 152.394 134.481 152.67 134.95C152.848 135.248 153.079 135.516 153.31 135.784C153.958 136.551 154.613 137.31 155.26 138.077C155.945 138.874 156.63 139.678 157.33 140.467C157.591 140.765 157.896 141.04 158.223 141.263C158.484 141.45 158.804 141.383 159.057 141.174C159.325 140.943 159.4 140.497 159.221 140.214C159.139 140.087 159.035 139.975 158.938 139.864C157.665 138.442 156.385 137.035 155.119 135.605C154.896 135.36 154.747 135.055 154.509 134.682C155.03 134.466 155.432 134.288 155.841 134.146C157.069 133.722 158.313 133.32 159.541 132.888C160.062 132.702 160.576 132.501 161.067 132.248C162.199 131.675 162.4 131.28 162.095 130.089C161.685 128.459 161.253 126.836 160.822 125.213C160.948 125.339 161.067 125.458 161.194 125.585C162.057 126.448 163.219 125.89 163.584 125.034C167.686 126.88 171.788 128.727 175.89 130.58C176.575 130.893 177.26 131.213 177.93 131.548C181.146 133.149 183.118 135.873 184.831 139.112V139.097Z" fill="#C3DCD9"/>
<path d="M169.457 99.9528C169.457 102.052 168.944 104.018 168.028 105.901C166.949 108.127 165.638 110.197 164.053 112.095C163.01 113.338 161.797 114.388 160.353 115.125C159.958 115.326 159.519 115.475 159.087 115.549C158.618 115.624 158.171 115.274 158.045 114.857C157.911 114.418 158.089 113.949 158.514 113.688C158.64 113.606 158.782 113.562 158.923 113.502C160.568 112.773 161.849 111.604 162.966 110.204C164.321 108.507 165.43 106.66 166.338 104.695C167.023 103.221 167.433 101.68 167.358 100.035C167.336 99.4837 167.336 98.9254 167.38 98.3745C167.433 97.8459 167.924 97.4513 168.415 97.4662C168.847 97.4811 169.309 97.831 169.376 98.2926C169.45 98.8361 169.435 99.387 169.465 99.9453L169.457 99.9528Z" fill="#264964"/>
<path d="M167.112 84.7806C167.276 88.5253 166.636 92.0913 164.641 95.3223C163.941 96.4465 163.01 97.3696 161.99 98.1811C161.194 98.8139 160.353 99.3722 159.206 98.8065C159.065 99.3127 158.946 99.6849 158.856 100.065C158.223 102.715 157.285 105.246 156.05 107.681C155.313 109.14 154.308 110.376 153.079 111.44C152.052 112.326 151.002 113.19 149.952 114.046C149.156 114.693 149.148 114.686 149.424 116.011C150.6 115.46 151.836 115.356 153.101 115.423C154.077 115.475 155.015 115.698 155.774 116.324C157.211 117.5 158.611 118.728 160.025 119.935C160.062 119.964 160.092 120.009 160.122 120.046C160.263 120.217 160.353 120.396 160.382 120.575C160.278 120.493 160.166 120.411 160.055 120.329C159.4 119.867 158.424 120.203 158.052 120.85C158.037 120.873 158.022 120.895 158.015 120.925C157.963 120.88 157.903 120.828 157.844 120.776C156.973 120.016 156.094 119.272 155.246 118.483C154.241 117.537 153.027 117.388 151.739 117.515C151.538 117.537 151.337 117.575 151.166 117.664C150.898 117.798 150.682 118.029 150.407 118.133C150.146 118.23 149.841 118.215 149.461 118.259C149.565 119.48 149.468 120.672 149.982 121.796C150.533 121.647 150.488 121.141 150.719 120.843C150.898 120.612 151.054 120.329 151.292 120.18C151.464 120.076 151.799 120.083 151.977 120.18C152.156 120.284 152.268 120.567 152.305 120.791C152.327 120.962 152.223 121.178 152.126 121.349C151.605 122.324 151.099 123.307 150.518 124.245C147.533 129.084 144.235 133.7 140.609 138.085C139.679 139.209 138.793 140.363 137.862 141.479C137.587 141.807 137.348 141.963 137.095 141.963C136.857 141.963 136.619 141.814 136.366 141.524C135.934 141.04 135.532 140.519 135.123 140.013C132.874 137.184 130.544 134.4 128.393 131.496C126.539 129.002 124.864 126.367 123.144 123.769C122.623 122.979 122.206 122.108 121.767 121.26C121.573 120.88 121.67 120.508 121.945 120.322C122.273 120.098 122.772 120.18 123.017 120.53C123.189 120.776 123.293 121.059 123.449 121.312C123.568 121.513 123.71 121.699 123.866 121.922C124.395 120.895 124.529 120.054 124.454 118.297C123.851 118.371 123.36 118.111 122.816 117.843C121.663 117.284 120.449 117.5 119.377 118.163C118.826 118.505 118.35 118.959 117.858 119.391C117.315 119.868 116.794 120.359 116.265 120.843C115.714 120.411 114.888 120.314 114.307 120.895C114.136 121.066 113.935 121.237 113.734 121.423C113.585 121.148 113.548 120.791 113.704 120.523C113.853 120.27 114.054 120.039 114.27 119.838C115.23 118.952 116.228 118.103 117.181 117.21C119.109 115.408 121.365 115.215 123.792 115.818C124.03 115.877 124.253 115.966 124.484 116.041C124.834 114.865 124.804 114.79 124.067 114.202C123.055 113.383 122.035 112.564 121.03 111.73C119.667 110.591 118.543 109.266 117.732 107.658C116.675 105.544 115.766 103.37 115.178 101.07C115.014 100.444 114.836 99.8189 114.679 99.2234C114.017 99.1563 113.377 99.2233 112.87 99C112.2 98.6948 111.597 98.196 111.031 97.7121C109.26 96.1934 108.165 94.2354 107.458 92.0467C106.848 90.1706 106.58 88.2275 106.468 86.2696C106.393 85.0486 106.617 83.8649 107.16 82.7557C107.518 82.0261 107.994 81.371 108.672 80.902C109.58 80.2766 110.54 80.1724 111.501 80.7307C111.977 81.0062 112.424 81.3486 112.818 81.7209C113.235 82.108 113.436 82.6291 113.406 83.2173C113.384 83.6937 113.071 84.1106 112.632 84.2148C112.185 84.3191 111.843 84.133 111.582 83.7831C111.374 83.5076 111.24 83.1651 110.994 82.9195C110.793 82.7185 110.488 82.6217 110.272 82.5026C109.55 82.6961 109.208 83.2247 108.999 83.7756C108.768 84.3786 108.575 85.0338 108.567 85.6666C108.552 88.4658 109.081 91.1607 110.428 93.6547C111.084 94.8682 111.999 95.8584 113.094 96.6847C113.354 96.8857 113.689 96.9825 114.106 97.1835C114.121 96.3869 113.987 95.7541 113.883 95.1213C113.764 94.429 113.6 93.7366 113.533 93.0443C113.496 92.6646 113.57 92.2477 113.697 91.8829C113.816 91.5181 114.181 91.3841 114.545 91.3692C114.925 91.3543 115.349 91.6595 115.461 92.0318C115.513 92.2253 115.528 92.4263 115.55 92.6273C115.945 95.6201 116.593 98.5608 117.426 101.457C117.94 103.243 118.7 104.948 119.541 106.608C120.211 107.934 121.119 109.05 122.243 109.996C123.01 110.644 123.784 111.284 124.559 111.924C124.67 112.021 124.789 112.125 124.916 112.199C126.07 112.892 127.194 113.644 128.385 114.254C129.546 114.85 130.76 115.356 131.981 115.803C132.681 116.056 133.44 116.167 134.177 116.279C134.974 116.391 135.785 116.525 136.582 116.48C138.48 116.383 140.416 116.435 142.21 115.684C143.602 115.103 144.994 114.507 146.312 113.785C147.488 113.137 148.597 112.371 149.662 111.544C150.734 110.718 151.732 109.795 152.699 108.842C153.191 108.358 153.6 107.755 153.943 107.152C155.119 105.09 155.99 102.901 156.593 100.608C157.285 97.9801 157.844 95.3298 158.179 92.6348C158.201 92.4338 158.201 92.2328 158.246 92.0392C158.372 91.4511 158.767 91.1384 159.303 91.1831C159.824 91.2203 160.211 91.5925 160.211 92.1956C160.211 92.8432 160.137 93.4984 160.047 94.1386C159.943 94.8831 159.794 95.6201 159.675 96.3646C159.653 96.506 159.69 96.6549 159.712 96.9304C160.07 96.7666 160.405 96.6773 160.658 96.4837C161.789 95.6201 162.72 94.5779 163.39 93.3123C164.202 91.7861 164.663 90.1483 164.931 88.4509C165.043 87.7064 165.11 86.9545 165.169 86.2026C165.244 85.339 165.102 84.4977 164.775 83.6937C164.522 83.0832 164.194 82.5175 163.457 82.2346C162.958 82.3834 162.504 82.6515 162.273 83.2098C162.236 83.2991 162.199 83.4034 162.139 83.4778C161.827 83.9096 161.395 84.0734 160.963 83.9319C160.502 83.7756 160.144 83.247 160.256 82.7408C160.338 82.3537 160.502 81.9814 160.703 81.639C160.874 81.3412 161.149 81.103 161.38 80.8424C160.829 79.547 160.025 78.475 159.035 77.5295C156.772 75.378 154.434 73.3158 151.843 71.5737C149.759 70.1741 147.682 68.7596 145.597 67.3526C144.89 66.8687 144.205 66.3625 143.498 65.8786C140.721 63.9876 138.875 61.3075 137.274 58.4264C137.028 57.9946 136.909 57.4958 136.79 57.0119C136.731 56.7811 136.775 56.5131 136.827 56.2749C136.932 55.8431 137.267 55.5825 137.684 55.5528C138.167 55.5155 138.629 55.7612 138.703 56.2526C138.979 57.9723 140.163 59.1932 141.004 60.6077C141.599 61.6127 142.441 62.4093 143.356 63.1315C144.339 63.9057 145.322 64.6948 146.357 65.4095C148.59 66.9506 150.861 68.447 153.109 69.9582C155.789 71.7524 158.209 73.8667 160.554 76.0778C161.7 77.1573 162.675 78.3633 163.1 79.8374C163.837 80.1649 164.574 80.3659 165.162 80.7977C165.668 81.1625 166.063 81.7432 166.398 82.2867C166.852 83.0162 167.105 83.8426 167.142 84.7136L167.112 84.7806ZM148.724 124.275C147.823 122.533 147.592 121.662 147.436 119.607C147.347 118.408 147.228 117.217 147.116 115.937C146.788 116.048 146.55 116.115 146.327 116.212C145.366 116.644 144.421 117.135 143.438 117.493C142.456 117.857 141.436 118.148 140.408 118.371C139.485 118.572 138.51 118.438 137.594 118.803C137.289 118.922 136.887 118.87 136.544 118.825C135.309 118.661 134.065 118.513 132.837 118.267C132.003 118.096 131.184 117.82 130.395 117.515C129.412 117.135 128.467 116.674 127.492 116.264C127.283 116.175 127.045 116.16 126.74 116.086C126.688 117.091 126.658 117.999 126.583 118.892C126.412 120.783 126.368 122.704 125.236 124.297C127.842 128.742 134.363 137.333 137.103 139.901C141.465 135.032 145.307 129.791 148.717 124.267L148.724 124.275Z" fill="#264964"/>
<path d="M163.345 123.582C163.747 124.044 163.777 124.572 163.591 125.019C163.524 124.989 163.457 124.959 163.39 124.93C163.025 124.766 162.638 124.647 162.281 124.453C161.864 124.222 161.715 123.724 161.871 123.277C162.013 122.875 162.348 122.599 162.794 122.644C162.928 122.659 163.055 122.674 163.189 122.704C163.36 122.972 163.397 123.277 163.345 123.567V123.582Z" fill="#264964"/>
<path d="M163.39 124.937C163.457 124.967 163.524 124.997 163.591 125.027C163.234 125.883 162.065 126.441 161.201 125.578C161.075 125.451 160.956 125.332 160.829 125.205C160.643 124.506 160.457 123.798 160.271 123.098C160.256 123.054 160.248 123.002 160.226 122.957C160.077 122.548 159.809 122.354 159.452 122.391C159.109 122.421 158.856 122.704 158.841 123.113C158.745 123.017 158.648 122.935 158.558 122.875C157.926 122.436 157.628 121.662 157.993 120.94C158.246 121.155 158.491 121.371 158.759 121.55C159.258 121.878 159.764 121.811 160.122 121.423C160.353 121.178 160.427 120.887 160.367 120.59C160.717 120.858 161.03 121.155 161.343 121.483C161.402 121.543 161.462 121.602 161.529 121.662C161.648 121.706 161.775 121.744 161.886 121.796C162.288 121.952 162.571 122.123 162.899 122.406C163.018 122.503 163.107 122.615 163.174 122.726C163.048 122.696 162.914 122.682 162.78 122.667C162.333 122.622 161.998 122.897 161.856 123.299C161.7 123.746 161.856 124.252 162.266 124.476C162.616 124.669 163.003 124.781 163.375 124.952L163.39 124.937Z" fill="#C3DCD9"/>
<path d="M162.102 130.082C162.407 131.28 162.206 131.667 161.075 132.241C160.591 132.494 160.07 132.702 159.549 132.881C158.32 133.313 157.084 133.715 155.849 134.139C155.432 134.28 155.037 134.467 154.516 134.675C154.762 135.047 154.911 135.352 155.126 135.598C156.392 137.028 157.672 138.435 158.946 139.857C159.05 139.968 159.154 140.08 159.228 140.206C159.407 140.489 159.333 140.936 159.065 141.167C158.812 141.383 158.491 141.442 158.231 141.256C157.903 141.033 157.605 140.757 157.337 140.46C156.63 139.678 155.953 138.874 155.268 138.07C154.613 137.31 153.958 136.544 153.317 135.777C153.087 135.509 152.856 135.241 152.677 134.943C152.402 134.467 152.536 133.908 153.034 133.648C153.563 133.372 154.129 133.149 154.695 132.948C156.161 132.442 157.643 131.973 159.117 131.474C159.638 131.295 160.174 131.139 160.71 130.543C160.181 128.555 159.653 126.575 159.132 124.587C159.02 124.148 158.901 123.716 158.849 123.27C158.849 123.218 158.849 123.158 158.849 123.106C158.938 123.188 159.027 123.285 159.117 123.381C159.184 123.508 159.266 123.635 159.37 123.739C159.854 124.223 160.345 124.714 160.829 125.198C161.261 126.821 161.693 128.451 162.102 130.074V130.082Z" fill="#264964"/>
<path d="M160.829 125.205C160.345 124.721 159.854 124.23 159.37 123.746C159.266 123.642 159.184 123.515 159.117 123.389C159.027 123.292 158.938 123.195 158.849 123.113C158.856 122.704 159.109 122.421 159.459 122.391C159.817 122.354 160.085 122.555 160.233 122.957C160.256 123.002 160.263 123.054 160.278 123.098C160.464 123.798 160.65 124.505 160.836 125.205H160.829Z" fill="#264964"/>
<path d="M160.375 120.582C160.442 120.88 160.36 121.17 160.129 121.416C159.772 121.803 159.266 121.87 158.767 121.542C158.499 121.364 158.246 121.148 158 120.932C158.015 120.91 158.022 120.887 158.037 120.857C158.417 120.21 159.385 119.875 160.04 120.336C160.152 120.418 160.263 120.5 160.367 120.582H160.375Z" fill="#264964"/>
<path d="M147.436 119.607C147.592 121.662 147.823 122.525 148.724 124.275C145.314 129.799 141.473 135.04 137.11 139.909C134.371 137.333 127.842 128.749 125.243 124.304C126.375 122.711 126.42 120.783 126.591 118.9C126.665 118.006 126.695 117.105 126.747 116.093C127.052 116.16 127.291 116.175 127.499 116.272C128.467 116.681 129.42 117.15 130.403 117.522C131.192 117.828 132.011 118.103 132.844 118.274C134.065 118.52 135.309 118.669 136.552 118.833C136.894 118.877 137.289 118.929 137.602 118.81C138.517 118.446 139.493 118.58 140.416 118.379C141.443 118.155 142.463 117.865 143.446 117.5C144.428 117.135 145.374 116.644 146.334 116.22C146.558 116.123 146.796 116.056 147.123 115.944C147.235 117.225 147.354 118.416 147.443 119.614L147.436 119.607Z" fill="white"/>
<path d="M137.073 141.986V143.296C136.626 143.296 136.18 143.296 135.733 143.296C133.671 143.311 131.616 143.311 129.554 143.296C124.931 143.266 120.3 143.318 115.699 143.817C112.855 144.122 110.026 144.606 107.197 145.016C106.498 145.112 105.805 145.209 105.113 145.336C104.383 145.462 103.661 145.619 102.805 145.79C102.656 145.559 102.433 145.239 102.247 144.897C101.487 143.527 100.534 142.291 99.4326 141.182C97.9139 139.648 96.1048 138.762 93.8863 138.963C93.2014 139.023 92.5239 139.119 91.8465 139.224C91.3849 139.291 90.9233 139.365 90.4618 139.432C90.1714 139.469 89.8811 139.529 89.628 139.574C89.3674 139.253 89.561 139.038 89.6652 138.837C90.5511 137.132 91.6678 135.591 92.9855 134.191C93.8268 133.298 94.8318 132.643 95.8889 132.054C96.6409 131.645 97.4151 131.288 98.1894 130.923C102.411 128.98 106.639 127.037 110.875 125.101C109.915 126.315 111.411 127.982 112.647 127.349C112.617 127.446 112.595 127.543 112.573 127.64C112.327 128.608 112.089 129.583 111.888 130.573C111.709 131.481 111.895 131.846 112.692 132.308C112.997 132.486 113.317 132.643 113.645 132.769C114.396 133.045 115.156 133.298 115.915 133.558C117.099 133.96 118.29 134.355 119.66 134.809C119.407 135.181 119.28 135.405 119.124 135.583C117.881 137.02 116.622 138.464 115.364 139.901C115.23 140.05 115.074 140.177 114.962 140.34C114.754 140.623 114.798 141.063 115.029 141.308C115.267 141.569 115.707 141.643 115.99 141.405C116.377 141.085 116.734 140.735 117.062 140.355C118.364 138.829 119.652 137.281 120.94 135.747C121.104 135.553 121.26 135.36 121.387 135.144C121.692 134.593 121.558 134.042 120.97 133.752C120.442 133.484 119.861 133.283 119.295 133.089C117.866 132.613 116.421 132.174 114.999 131.69C114.441 131.504 113.838 131.355 113.444 130.856C113.458 130.685 113.444 130.528 113.488 130.387C113.913 128.682 114.337 126.97 114.761 125.265C115.439 124.461 116.012 123.575 116.593 122.704C117.062 122.004 116.786 121.282 116.25 120.873C116.779 120.389 117.3 119.897 117.843 119.421C118.335 118.989 118.811 118.535 119.362 118.192C120.442 117.522 121.648 117.314 122.802 117.872C123.345 118.133 123.836 118.393 124.439 118.326C124.514 120.083 124.38 120.925 123.851 121.952C123.695 121.729 123.553 121.543 123.434 121.342C123.278 121.088 123.174 120.798 123.003 120.56C122.757 120.21 122.258 120.128 121.931 120.351C121.655 120.538 121.558 120.91 121.752 121.289C122.191 122.138 122.601 123.002 123.129 123.798C124.849 126.396 126.524 129.032 128.378 131.526C130.537 134.429 132.859 137.214 135.108 140.043C135.517 140.549 135.919 141.07 136.351 141.554C136.611 141.844 136.85 141.993 137.08 141.993L137.073 141.986Z" fill="#C3DCD9"/>
<path d="M68.0309 148.969C69.2295 148.812 70.4355 148.745 71.6341 148.611C72.4307 148.522 73.2199 148.388 74.0164 148.269C74.143 148.001 74.2621 147.785 74.3589 147.554C75.4012 144.889 77.5601 143.385 79.9722 142.127C80.1434 142.038 80.3519 141.993 80.5454 141.978C80.8953 141.941 81.2601 142.008 81.5877 141.911C83.2702 141.42 84.9378 140.891 86.6054 140.37C88.2433 136.73 90.2459 133.417 93.4546 131.042C93.328 130.684 93.1047 130.774 92.926 130.759C92.725 130.751 92.524 130.766 92.323 130.781C89.3004 130.997 86.3002 130.818 83.3298 130.193C82.3917 129.992 81.4388 129.903 80.5008 129.754C80.2551 129.717 80.002 129.694 79.7638 129.627C79.2798 129.493 78.9225 129.173 78.9895 128.652C79.0788 127.952 78.8108 127.372 78.5726 126.769C77.6271 124.416 77.173 121.952 76.8752 119.45C76.1829 113.591 76.1531 107.718 76.4881 101.836C76.7189 97.8683 77.1358 93.9226 78.0589 90.0513C78.2897 89.0761 78.5577 88.1083 78.8629 87.1553C79.0416 86.6119 79.1012 86.0982 78.9523 85.5324C77.3144 79.2491 76.972 72.8392 77.1209 66.3846C77.1953 63.2727 77.3368 60.1534 77.5229 57.049C77.6718 54.5327 78.2823 52.0908 78.8704 49.6415C79.7191 46.1202 80.7837 42.6658 82.0418 39.2785C82.2875 38.6085 82.6746 38.2809 83.4042 38.065C87.0744 36.9781 90.834 36.3304 94.5936 35.6678C97.1248 35.2211 99.6783 35.0201 102.239 34.968C108.724 34.8191 115.208 34.6925 121.692 34.6553C124.908 34.6404 128.125 34.8414 131.341 34.9382C132.197 34.9606 133.045 34.9829 133.902 34.9457C134.877 34.9159 135.807 34.9829 136.507 35.7348L136.693 36.7771C136.135 36.9557 135.681 37.261 135.309 37.1865C134.207 36.9483 133.105 37.0972 132.003 37.0376C129.643 36.9111 127.283 36.7696 124.923 36.7175C116.883 36.5537 108.843 36.7994 100.802 37.0451C100.252 37.06 99.6932 37.1046 99.1423 37.1567C95.4348 37.4769 91.7869 38.1916 88.1614 39.0254C86.7469 39.3529 85.3249 39.6433 83.9849 40.2165C83.8137 40.6334 83.6648 40.9982 83.5159 41.3704C82.2726 44.3483 81.5281 47.4751 80.739 50.5944C80.2477 52.5449 79.7712 54.4954 79.6 56.5055C79.1384 62.1709 78.9076 67.8438 79.2277 73.5241C79.4585 77.5517 80.0169 81.5197 81.1485 85.3984C81.342 86.0684 81.3569 86.6565 81.0964 87.2968C80.3519 89.1207 79.8978 91.0266 79.5404 92.9548C79.0193 95.7763 78.7364 98.6202 78.5726 101.486C78.2153 107.569 78.1631 113.644 78.9821 119.696C79.3096 122.145 79.8829 124.535 80.8953 126.798C81.0368 127.111 81.2155 127.401 81.3569 127.654C82.5257 127.885 83.6052 128.116 84.6921 128.325C88.3922 129.047 92.0847 129.054 95.7624 128.198C96.6856 127.982 97.5491 127.997 98.3681 128.585C100.326 127.699 102.254 126.85 104.167 125.957C106.125 125.049 108.061 124.081 110.019 123.18C110.414 122.994 110.883 122.92 111.322 122.897C111.694 122.875 112.007 123.158 112.126 123.508C111.798 124.021 111.419 124.505 110.994 124.952C110.957 124.997 110.912 125.041 110.883 125.086C106.654 127.029 102.425 128.965 98.1968 130.908C97.4226 131.265 96.6483 131.63 95.8964 132.039C94.8393 132.62 93.8342 133.283 92.993 134.176C91.6753 135.576 90.5586 137.117 89.6726 138.822C89.5684 139.023 89.3749 139.238 89.6354 139.559C89.8885 139.514 90.1789 139.462 90.4692 139.417C90.9308 139.35 91.3924 139.283 91.8539 139.209L92.0996 140.884C91.8986 140.913 91.7051 140.951 91.5115 140.995C90.1863 141.323 88.8537 141.665 87.536 142.008C86.129 142.38 84.7145 142.752 83.3074 143.125C83.2777 143.125 83.2404 143.139 83.2032 143.147C83.0096 143.199 82.8161 143.266 82.6449 143.37C82.0642 143.69 81.4909 143.973 80.7911 143.817C80.6199 143.78 80.3966 143.884 80.2253 143.973C78.7736 144.718 77.5006 145.671 76.5923 147.055C76.4434 147.286 76.3764 147.584 76.2647 147.882C76.9422 148.016 77.5303 148.127 78.1185 148.247C79.7786 148.582 81.0591 149.43 81.9748 150.889C83.032 152.594 84.1636 154.254 85.2728 155.937C85.66 156.525 86.0024 157.15 86.4565 157.686C86.8362 158.141 87.2978 158.535 87.7742 158.9C88.0944 159.146 88.5113 159.294 88.9058 159.071C89.3749 158.818 89.4046 158.327 89.36 157.873C89.3079 157.374 89.2036 156.875 89.0324 156.413C88.2879 154.321 87.3648 152.311 86.1364 150.465C85.1761 149.006 84.305 147.472 82.7267 146.534C82.2279 146.236 82.4587 145.395 83.032 145.209C83.3298 145.112 83.6052 145.112 83.8658 145.187C84.0668 145.246 84.2604 145.358 84.439 145.507C84.6996 145.73 84.9229 146.013 85.1537 146.281C87.1489 148.634 88.7197 151.254 89.963 154.076C90.5735 155.46 91.1169 156.86 91.1839 158.423C92.1741 158.751 92.926 159.607 93.9682 159.667C94.7723 159.183 94.7797 158.468 94.7648 157.761C94.7425 156.741 94.3926 155.795 94.0129 154.857C92.993 152.334 91.6604 149.974 90.0821 147.755C89.4419 146.862 88.8761 145.901 87.7519 145.485C87.4169 145.358 87.3127 144.926 87.4095 144.576C87.4914 144.293 87.7519 144.077 88.0646 144.01C88.1093 144.003 88.1539 143.996 88.206 143.996C88.7346 143.981 89.2111 144.13 89.5759 144.517C90.0896 145.068 90.6107 145.611 91.0499 146.222C92.6654 148.41 94.065 150.726 95.1594 153.227C95.9039 154.932 96.6037 156.644 96.559 158.543C96.7228 158.595 96.8866 158.647 97.0429 158.699L96.1868 160.054C95.9783 160.27 95.755 160.523 95.5093 160.754C94.7872 161.453 93.9236 161.632 93.0079 161.245C92.2262 160.917 91.4892 160.486 90.7075 160.084C90.6479 160.098 90.5288 160.098 90.4692 160.158C89.2706 161.267 88.0497 161.089 86.732 160.299C86.0322 159.883 85.4664 159.309 85.0123 158.632C84.5358 157.925 84.0817 157.202 83.6052 156.488C82.5481 154.895 81.4835 153.316 80.4412 151.716C79.3692 150.085 77.7462 149.75 75.967 149.773C75.8702 149.773 75.7436 149.773 75.6766 149.825C74.478 150.644 73.071 150.517 71.7458 150.659C68.7977 150.979 68.82 151.195 65.8645 151.418C61.4498 151.746 63.7577 151.373 63.0281 151.448C58.5761 151.887 61.5615 150.666 57.117 150.197C54.9208 149.966 57.1765 149.907 54.9804 150.07L54.8836 148.671C55.3898 148.671 55.9035 148.44 56.1715 147.979C58.7176 147.941 56.782 148.083 59.3057 148.403C64.6436 149.088 59.5737 149.601 64.9563 149.676" fill="#264964"/>
<path d="M120.955 133.759C121.536 134.05 121.677 134.6 121.372 135.151C121.253 135.367 121.089 135.568 120.925 135.754C119.638 137.295 118.35 138.836 117.047 140.363C116.727 140.742 116.362 141.092 115.975 141.412C115.699 141.651 115.253 141.576 115.014 141.316C114.776 141.062 114.739 140.623 114.947 140.348C115.059 140.184 115.215 140.057 115.349 139.908C116.608 138.472 117.866 137.035 119.109 135.591C119.273 135.404 119.392 135.189 119.645 134.816C118.275 134.355 117.084 133.96 115.9 133.566C115.141 133.305 114.382 133.052 113.63 132.776C113.302 132.657 112.982 132.501 112.677 132.315C111.88 131.853 111.694 131.489 111.873 130.58C112.074 129.598 112.312 128.622 112.558 127.647C112.58 127.55 112.602 127.454 112.632 127.357C112.774 127.29 112.915 127.186 113.049 127.051C113.295 126.798 113.525 126.523 113.749 126.247C113.883 126.18 114.017 126.084 114.151 125.957C114.359 125.741 114.56 125.518 114.746 125.287C114.322 126.992 113.898 128.704 113.473 130.409C113.436 130.551 113.444 130.707 113.429 130.878C113.823 131.377 114.426 131.526 114.985 131.712C116.407 132.196 117.851 132.635 119.28 133.111C119.846 133.305 120.427 133.506 120.955 133.774V133.759Z" fill="#264964"/>
<path d="M119.95 112.118C120.412 112.304 120.657 112.75 120.576 113.197C120.501 113.636 120.114 113.971 119.615 114.001C119.37 114.016 119.116 113.994 118.871 113.964C114.56 113.42 111.21 111.403 109.059 107.554C108.612 106.765 108.217 105.953 107.793 105.157C107.354 104.338 107.19 103.459 107.227 102.536C107.257 102.134 107.257 101.732 107.324 101.33C107.398 100.854 107.8 100.504 108.247 100.474C108.731 100.444 109.222 100.831 109.304 101.36C109.342 101.606 109.349 101.866 109.289 102.104C109.088 102.938 109.289 103.698 109.677 104.427C110.153 105.313 110.585 106.221 111.113 107.07C112.595 109.437 114.709 110.949 117.456 111.537C117.992 111.656 118.536 111.753 119.079 111.872C119.37 111.931 119.675 111.998 119.95 112.118Z" fill="#264964"/>
<path d="M116.235 120.88C116.771 121.297 117.039 122.019 116.578 122.711C115.997 123.582 115.416 124.461 114.746 125.272C114.821 124.989 114.888 124.699 114.962 124.409C115.059 124.021 115.126 123.627 115.134 123.225C115.134 122.905 114.895 122.681 114.568 122.614C114.233 122.555 113.98 122.704 113.823 122.987C113.749 123.113 113.726 123.27 113.689 123.411C113.339 124.721 112.982 126.031 112.647 127.342C111.411 127.967 109.915 126.307 110.875 125.093C111.031 125.026 111.18 124.952 111.337 124.878C111.471 124.818 111.612 124.766 111.746 124.684C112.089 124.468 112.245 124.044 112.156 123.634C112.156 123.597 112.141 123.552 112.126 123.515C112.297 123.247 112.453 122.979 112.602 122.696C112.833 122.25 113.287 121.84 113.719 121.46C113.764 121.542 113.816 121.617 113.883 121.676C114.173 121.967 114.62 122.063 114.992 121.855C115.297 121.684 115.588 121.475 115.848 121.245C115.99 121.118 116.124 120.999 116.265 120.872L116.235 120.88Z" fill="#C3DCD9"/>
<path d="M116.235 120.88C116.094 121.007 115.96 121.126 115.818 121.252C115.558 121.483 115.268 121.691 114.962 121.863C114.59 122.071 114.151 121.974 113.853 121.684C113.793 121.624 113.734 121.55 113.689 121.468C113.898 121.282 114.099 121.111 114.262 120.94C114.851 120.351 115.677 120.456 116.22 120.887L116.235 120.88Z" fill="#264964"/>
<path d="M114.56 122.622C114.888 122.681 115.126 122.905 115.126 123.232C115.126 123.627 115.052 124.029 114.955 124.416C114.888 124.699 114.813 124.989 114.739 125.28C114.553 125.51 114.352 125.734 114.143 125.95C114.017 126.084 113.883 126.173 113.741 126.24C113.518 126.515 113.287 126.791 113.042 127.044C112.908 127.178 112.774 127.282 112.625 127.349C112.96 126.039 113.317 124.729 113.667 123.418C113.704 123.277 113.726 123.121 113.801 122.994C113.965 122.711 114.21 122.555 114.545 122.622H114.56Z" fill="#264964"/>
<path d="M112.141 123.634C112.23 124.044 112.074 124.468 111.731 124.684C111.605 124.766 111.463 124.818 111.322 124.878C111.165 124.945 111.017 125.019 110.86 125.094C110.89 125.049 110.935 125.004 110.972 124.96C111.404 124.513 111.776 124.029 112.103 123.515C112.118 123.553 112.126 123.597 112.133 123.634H112.141Z" fill="#264964"/>
<path d="M103.698 156.056C103.698 156.503 103.617 156.957 103.207 157.344C102.351 157.158 101.807 156.495 101.242 155.885C101.123 155.751 101.1 155.505 101.093 155.312C101.041 153.979 100.557 152.758 100.065 151.552C98.9189 148.738 97.3258 146.192 95.3753 143.862C95.0477 143.467 94.6904 143.125 94.1395 143.11C93.7598 143.11 93.4471 143.229 93.261 143.579C93.0972 143.892 93.1642 144.256 93.4694 144.532C96.2612 147.078 97.8692 150.339 99.0827 153.83C99.5443 155.14 99.5592 156.488 99.187 157.843C99.053 158.334 98.8966 158.803 98.3531 159.138C97.9362 159.004 97.4896 158.855 97.0131 158.699C96.8568 158.647 96.693 158.595 96.5292 158.543C96.5739 156.652 95.8815 154.939 95.1296 153.227C94.0352 150.726 92.6356 148.41 91.0201 146.222C90.5734 145.619 90.0598 145.068 89.5461 144.517C89.1887 144.13 88.7048 143.973 88.1762 143.996C88.1316 143.996 88.0869 144.003 88.0348 144.011L87.5211 142.015C88.8463 141.673 90.1714 141.331 91.4966 141.003C91.6901 140.958 91.8837 140.921 92.0847 140.891C92.6803 140.802 93.2833 140.78 93.8863 140.713C95.6209 140.527 97.0503 141.182 98.1968 142.425C98.9785 143.274 99.7379 144.16 100.348 145.135C101.867 147.584 102.976 150.22 103.542 153.056C103.736 154.031 103.684 155.051 103.706 156.049L103.698 156.056Z" fill="white"/>
<path d="M94.735 157.768C94.7425 158.468 94.735 159.19 93.9385 159.674C92.8962 159.615 92.1517 158.758 91.1541 158.431C91.0871 156.867 90.5362 155.468 89.9332 154.083C88.6974 151.262 87.1266 148.641 85.1239 146.289C84.8932 146.021 84.6698 145.745 84.4092 145.514C84.2306 145.365 84.037 145.254 83.836 145.194L83.2925 143.139C84.6996 142.767 86.1141 142.395 87.5211 142.023L88.0348 144.018C87.7221 144.077 87.4616 144.301 87.3797 144.584C87.2829 144.934 87.3797 145.365 87.7221 145.492C88.8463 145.909 89.4121 146.877 90.0523 147.763C91.6306 149.981 92.9632 152.341 93.9831 154.865C94.3628 155.803 94.7127 156.748 94.735 157.768Z" fill="white"/>
<path d="M89.3227 157.88C89.3674 158.327 89.3376 158.818 88.8686 159.079C88.474 159.302 88.0571 159.146 87.737 158.907C87.2606 158.543 86.799 158.155 86.4193 157.694C85.9726 157.158 85.6227 156.533 85.2356 155.944C84.1338 154.262 83.0022 152.602 81.9376 150.897C81.0293 149.438 79.7414 148.589 78.0812 148.254C77.4931 148.135 76.905 148.023 76.2275 147.889C76.3392 147.591 76.4062 147.301 76.5551 147.063C77.4633 145.678 78.7364 144.725 80.1881 143.981C80.3593 143.891 80.5827 143.787 80.7539 143.824C81.4611 143.981 82.0269 143.698 82.6076 143.378C82.7788 143.281 82.9724 143.207 83.166 143.154C83.1957 143.147 83.233 143.132 83.2702 143.132L83.8137 145.187C83.5531 145.112 83.2776 145.112 82.9799 145.209C82.4066 145.395 82.1758 146.237 82.6746 146.534C84.2603 147.472 85.1239 149.006 86.0843 150.465C87.3052 152.311 88.2358 154.321 88.9803 156.413C89.1515 156.882 89.2557 157.381 89.3078 157.873L89.3227 157.88Z" fill="white"/>
<path d="M55.3079 148.008C55.5834 148.001 55.8588 147.993 56.1343 147.993C55.8737 148.455 55.36 148.686 54.8463 148.686C54.3848 148.686 53.9232 148.5 53.6477 148.127C54.1986 148.068 54.7496 148.031 55.3079 148.016V148.008Z" fill="#264964"/>
<path d="M140.743 106.489C138.495 107.293 136.247 107.293 133.998 106.504C133.425 106.303 132.785 106.035 132.495 106.817C132.249 107.494 132.77 107.874 133.328 108.15C134.564 108.76 135.822 109.303 137.281 109.125C138.83 109.311 140.177 108.753 141.488 108.075C142.024 107.8 142.366 107.36 142.135 106.772C141.86 106.065 141.287 106.288 140.751 106.482" fill="#264964"/>
<path d="M135.956 102.618C136.284 102.67 136.619 102.678 136.946 102.692H137.051C137.133 102.692 137.222 102.7 137.304 102.7C137.706 102.7 138.018 102.655 138.286 102.573C138.778 102.41 139.001 102.186 138.919 101.918C138.867 101.777 138.696 101.672 138.51 101.568L138.465 101.546C138.279 101.442 138.078 101.36 137.922 101.3C137.803 101.256 137.676 101.218 137.549 101.181C137.386 101.129 137.229 101.084 137.088 101.017C136.842 100.898 136.626 100.734 136.477 100.533C136.366 100.385 136.299 100.236 136.299 100.102C136.291 99.8634 136.433 99.6178 136.559 99.4019C136.701 99.1636 136.827 98.9105 136.946 98.6425C137.311 98.0172 137.408 97.4365 137.207 97.0568C137.058 96.7813 136.768 96.6027 136.425 96.5952C136.075 96.5952 135.919 96.8111 135.785 96.9972L135.249 97.7491C135.1 97.9576 134.951 98.166 134.81 98.3819C134.698 98.5532 134.594 98.7318 134.49 98.9105C134.4 99.0594 134.311 99.2157 134.199 99.4019C134.006 99.7071 133.812 100.012 133.738 100.385C133.634 100.913 133.827 101.457 134.266 101.888C134.75 102.357 135.443 102.551 135.949 102.633" fill="#264964"/>
<path d="M150.734 92.7836C150.399 92.5231 150.109 92.7687 149.893 92.9623C148.702 94.0492 147.577 94.1758 146.394 92.9176C146.014 92.5156 145.448 92.4933 145.017 92.9623C144.607 93.409 144.6 93.9301 144.972 94.3619C145.724 95.2478 146.535 96.0742 147.816 95.9551C149.424 95.9551 150.749 95.0245 150.987 93.7514C151.054 93.3867 151.069 93.0293 150.741 92.7762" fill="#264964"/>
<path d="M126.583 93.0442C125.035 94.1609 125.027 94.1535 123.397 93.0442C123.084 92.8283 122.779 92.4635 122.362 92.8432C122.027 93.1559 122.117 93.5728 122.236 93.9525C122.608 95.1511 123.829 95.9551 125.258 95.97C126.39 95.9774 127.224 95.5903 128.035 94.6448C128.489 94.1237 128.735 93.5504 128.162 92.9698C127.626 92.4263 127.105 92.672 126.576 93.0517" fill="#264964"/>
<path d="M122.787 88.6518C123.799 88.1307 124.849 87.9297 125.906 88.0562C126.204 88.0935 126.509 88.153 126.807 88.2424C126.851 88.2572 126.896 88.2647 126.933 88.2721C127.134 88.2945 127.335 88.2424 127.514 88.1158C127.745 87.9446 127.901 87.6766 127.923 87.4085C127.976 86.813 127.566 86.2546 126.933 86.076C126.576 85.9717 126.211 85.8973 125.839 85.8526C124.469 85.6888 123.07 85.9271 121.901 86.5301C121.38 86.7981 121.29 87.3415 121.387 87.7659C121.484 88.22 121.826 88.7039 122.288 88.756C122.452 88.7784 122.615 88.7412 122.779 88.6593" fill="#264964"/>
<path d="M151.278 86.4109C150.109 85.8079 148.709 85.5697 147.339 85.7335C146.967 85.7781 146.602 85.8526 146.245 85.9568C145.62 86.1355 145.203 86.7013 145.255 87.2894C145.277 87.5574 145.441 87.8329 145.664 87.9967C145.843 88.1232 146.036 88.1828 146.245 88.153C146.29 88.153 146.334 88.1381 146.371 88.1232C146.677 88.0339 146.974 87.9743 147.272 87.9371C148.329 87.8105 149.379 88.0115 150.392 88.5327C150.555 88.6146 150.719 88.6518 150.883 88.6295C151.352 88.5699 151.687 88.086 151.784 87.6393C151.873 87.215 151.784 86.6715 151.27 86.4035" fill="#264964"/>
<path d="M142.597 73.9038C143.081 74.1718 143.237 74.7227 143.036 75.1992C142.835 75.6682 142.329 75.9139 141.778 75.7277C139.247 74.879 137.028 73.5464 135.42 71.3726C134.586 70.241 133.827 69.0573 133.068 67.8736C132.837 67.5013 132.725 67.0547 132.591 66.7122C132.681 66.3623 132.718 66.1092 132.807 65.8784C132.971 65.4689 133.291 65.2531 133.745 65.2456C134.177 65.2456 134.601 65.4541 134.653 65.8858C134.847 67.3078 135.778 68.3277 136.522 69.437C137.646 71.0897 139.091 72.3851 140.967 73.1519C141.517 73.3827 142.083 73.6209 142.604 73.9038H142.597Z" fill="#264964"/>
<path d="M133.395 68.9681C133.745 68.5363 134.311 68.4768 134.75 68.7597C135.175 69.0351 135.331 69.5786 135.056 70.0923C133.79 72.4448 132.093 74.3953 129.673 75.6088C128.415 76.2341 127.119 76.785 125.824 77.3211C125.422 77.4848 124.953 77.5146 124.596 77.5965C124.261 77.4476 124.022 77.3732 123.814 77.2392C123.434 77.0084 123.278 76.651 123.352 76.2118C123.419 75.7874 123.702 75.4078 124.134 75.4227C125.571 75.4822 126.732 74.7377 127.953 74.1868C129.777 73.3679 131.296 72.1619 132.375 70.4496C132.696 69.9434 133.023 69.4297 133.403 68.9681H133.395Z" fill="#264964"/>
<path d="M177.26 98.8808C177.237 102.365 176.783 105.231 175.756 107.986C175.48 108.73 175.115 109.46 174.713 110.152C174.408 110.666 173.842 110.792 173.411 110.554C172.904 110.286 172.696 109.728 172.994 109.132C173.679 107.777 174.2 106.37 174.572 104.904C175.413 101.583 175.369 98.2406 174.795 94.883C174.453 92.8953 173.887 90.9746 173.053 89.1283C172.428 87.7585 171.87 86.3514 171.155 85.0337C169.368 81.7431 168.125 78.2516 167.053 74.6856C166.256 72.0353 165.482 69.385 164.648 66.757C163.904 64.4044 162.847 62.1859 161.678 60.0121C159.809 56.5503 157.136 53.9 153.749 51.9495C151.791 50.8179 149.751 49.8277 147.63 49.046C144.853 48.0112 141.987 47.6464 139.038 47.974C137.311 48.1676 135.711 48.7259 134.304 49.7831C134.14 49.9022 133.998 50.0436 133.827 50.1553C133.343 50.4605 132.785 50.3861 132.472 49.9841C132.174 49.5969 132.167 48.9641 132.487 48.577C132.651 48.3909 132.859 48.242 133.06 48.1006C135.011 46.7605 137.177 46.0458 139.537 45.8746C142.284 45.6736 144.972 46.0086 147.555 46.8871C150.749 47.9814 153.771 49.4629 156.571 51.3613C159.325 53.23 161.499 55.6197 163.152 58.5008C164.953 61.6574 166.286 65.0075 167.328 68.4841C168.214 71.4174 169.108 74.3431 170.023 77.2689C170.686 79.3832 171.587 81.3932 172.569 83.381C173.485 85.2273 174.319 87.1108 175.153 88.9868C176.627 92.3072 177.081 95.8285 177.245 98.8734L177.26 98.8808Z" fill="#264964"/>
<path d="M129.383 49.984C129.405 50.4009 129.197 50.7881 128.795 50.9444C128.519 51.0486 128.221 51.1231 127.923 51.1454C123.799 51.473 120.59 53.6989 117.538 56.2153C116.295 57.2426 115.372 58.5827 114.486 59.9227C113.101 62.0296 111.977 64.2704 110.935 66.5559C109.364 69.9805 108.106 73.5316 106.795 77.0604C105.798 79.7405 104.845 82.4355 103.818 85.1081C103.148 86.8427 102.403 88.5401 101.674 90.2524C100.348 93.3643 99.8942 96.6176 100.125 99.9752C100.274 102.142 100.75 104.248 101.629 106.244C102.239 107.636 103.021 108.916 104.167 109.944C104.354 110.107 104.525 110.294 104.666 110.495C104.912 110.852 104.882 111.284 104.622 111.619C104.361 111.946 103.914 112.125 103.55 111.969C103.237 111.827 102.894 111.663 102.671 111.41C102.038 110.696 101.391 109.988 100.877 109.199C99.4624 107.018 98.7105 104.569 98.3308 102.015C98.1373 100.779 98.0777 99.5211 98.0033 98.8213C98.0703 95.4339 98.4797 92.6645 99.5741 90.0291C100.192 88.5476 100.862 87.0884 101.45 85.592C102.329 83.3512 103.155 81.088 104.019 78.8397C105.433 75.1397 106.773 71.4024 108.292 67.7396C109.252 65.4243 110.414 63.1909 111.575 60.9724C112.223 59.7366 113.034 58.5678 113.838 57.4213C114.94 55.843 116.273 54.4881 117.866 53.3937C118.938 52.6567 120.025 51.9271 121.126 51.2273C123.166 49.9468 125.437 49.3364 127.804 49.0609C128.05 49.0386 128.311 49.0311 128.549 49.0609C129.025 49.1353 129.368 49.5299 129.39 49.9915L129.383 49.984Z" fill="#264964"/>
</g>
<defs>
<clipPath id="clip0_66_87">
<rect width="210" height="177.243" fill="white" transform="translate(34.5 34.5884)"/>
</clipPath>
</defs>
</svg>
