<svg width="276" height="254" viewBox="0 0 276 254" fill="none" xmlns="http://www.w3.org/2000/svg">
<path d="M76.5363 240.366C66.1118 235.786 56.7392 228.509 47.647 221.812C32.6413 210.768 21.4455 195.237 12.4001 178.752C3.54162 162.57 -0.385083 147.875 0.666713 134.692C1.36791 125.694 -0.198097 116.417 2.23272 107.582C4.71029 98.4444 6.13605 88.7721 9.89915 79.9834C22.3571 50.9666 43.5566 30.599 73.5445 18.8807C86.1427 13.9515 98.7643 9.51065 111.386 5.53479C118.608 3.25623 129.266 1.74493 143.384 1.00091C153.715 0.466148 164.35 1.79144 175.265 5.02328C190.2 9.4409 202.097 14.0445 211.003 18.8109C240.593 34.6446 260.764 57.965 271.516 88.7721C273.269 93.8175 274.344 99.3047 274.695 105.234C275.279 114.836 275.56 124.113 275.489 133.111C275.419 140.482 274.531 147.294 272.825 153.548C264.153 185.309 245.899 213.698 217.968 230.508C204.668 238.506 189.266 245.063 171.736 250.155C165.565 251.945 159.722 252.085 153.481 253.085C151.027 253.48 148.479 253.643 145.885 253.573C136.606 253.34 127.023 254.108 118.351 252.689C103.906 250.341 89.9759 246.249 76.5363 240.366Z" fill="white"/>
<g clip-path="url(#clip0_15_318)">
<path d="M77.0315 179.364C76.8602 179.364 76.6822 179.318 76.524 179.226C76.3131 179.1 76.1747 179.015 76.1022 178.817C76.0561 178.784 76.0034 178.744 75.9507 178.698C68.978 173.459 66.0123 164.516 67.1392 152.126C67.561 147.453 68.4442 144.046 69.3009 140.751C69.7425 139.05 70.1577 137.449 70.4872 135.742C71.8514 128.71 70.0456 123.714 68.5957 119.707L68.4639 119.351C67.4029 116.405 66.7175 114.013 66.4604 113.071C64.6019 112.076 57.7874 108.306 56.3243 105.782C56.0937 105.386 55.9421 105.123 57.2338 101.102C58.0115 98.6969 59.0725 95.7246 60.1534 92.9632C62.2821 87.4998 65.3137 80.5864 67.6269 78.6686C69.9204 76.7705 72.3457 76.1246 75.4168 75.3008C76.1154 75.1163 76.847 74.9186 77.6312 74.6945C78.0464 74.5759 78.488 74.7407 78.7252 75.1031C78.7912 75.1954 85.9154 84.9493 113.767 73.7191C113.991 73.6269 114.241 73.6269 114.465 73.706L115.012 73.8971C117.253 74.6748 120.324 75.7358 123.02 78.6224C126.394 82.234 128.595 86.9528 129.281 90.0305C129.314 90.1689 132.319 104.068 131.337 108.649C130.473 112.669 119.553 119.49 117.246 120.887C107.308 128.426 87.9453 143.815 85.5464 148.31C82.7256 153.582 78.376 175.555 78.0398 178.204C78.086 178.422 78.0398 178.665 77.8685 178.929C77.6774 179.212 77.361 179.371 77.0381 179.371L77.0315 179.364ZM58.1696 105.004C59.4614 106.77 64.6546 109.901 67.7587 111.529C68.0092 111.66 68.1871 111.884 68.2596 112.155C68.2662 112.181 69.0043 115.035 70.3224 118.679L70.4542 119.035C71.9041 123.049 73.8945 128.552 72.4314 136.124C72.0887 137.884 71.6669 139.518 71.2187 141.251C70.3817 144.474 69.525 147.802 69.1164 152.31C68.108 163.468 70.5333 171.587 76.3329 176.471C76.445 175.871 76.5834 175.126 76.7679 174.197C77.0908 172.536 77.763 169.136 78.6791 165.036C80.0895 158.729 82.1259 150.537 83.8263 147.367C87.0358 141.363 114.933 120.169 116.119 119.272C116.146 119.253 116.172 119.233 116.205 119.213C121.036 116.28 128.898 110.705 129.432 108.22C130.131 104.958 128.318 94.6438 127.383 90.4457C126.756 87.6316 124.727 83.2951 121.603 79.9603C119.237 77.4296 116.436 76.4608 114.393 75.749L114.188 75.6765C88.5384 85.9181 79.6018 78.9519 77.5719 76.7573C77.0051 76.9155 76.4647 77.0605 75.9507 77.1989C72.9982 77.9832 70.8694 78.5565 68.9121 80.1778C65.4719 83.0248 58.6573 102.388 58.196 104.997L58.1696 105.004Z" fill="#264964"/>
<path d="M112.521 75.459C114.59 76.1905 117.675 77.0934 120.304 79.9009C123.435 83.2489 125.438 87.6052 126.045 90.3402C126.658 93.0818 128.786 104.042 128.002 107.699C127.218 111.357 114.953 118.791 114.953 118.791C114.953 118.791 87.4115 139.676 84.4128 145.285C81.4141 150.893 76.8733 174.803 77.1304 174.415C77.394 174.026 66.7899 169.617 68.6155 149.463C69.2218 142.78 70.8628 138.721 71.7921 133.929C73.1827 126.759 71.2385 121.704 69.8215 117.789C68.5364 114.224 67.8312 111.482 67.8312 111.482C67.8312 111.482 59.6064 107.172 58.1696 104.694C57.7742 104.009 64.9578 83.1566 68.7407 80.0262C71.2385 77.9568 73.9406 77.5613 77.9476 76.4146C77.9476 76.4146 84.7094 86.6562 112.514 75.4458" fill="#F4F0BB"/>
<path d="M240.798 194.575L105.687 153.035L24.6375 168.78L137.71 225.53L240.798 194.575Z" fill="#F1F1EB"/>
<path d="M137.776 226.439C137.637 226.439 137.505 226.407 137.38 226.347L18.0141 168.358C17.6648 168.187 17.4605 167.811 17.5132 167.422C17.5659 167.033 17.8625 166.723 18.2447 166.651L103.802 150.557C103.94 150.531 104.092 150.537 104.23 150.577L246.861 193.026C247.243 193.138 247.513 193.494 247.507 193.896C247.5 194.298 247.236 194.654 246.854 194.766L138.033 226.393C137.947 226.42 137.868 226.426 137.782 226.426L137.776 226.439ZM21.2697 167.923L137.855 224.561L243.381 193.889L103.914 152.383L21.2697 167.923Z" fill="#264964"/>
<path d="M75.575 172.193C73.9538 173.709 72.3325 176.299 65.7882 175.785C61.2672 175.429 62.4337 176.438 56.9636 174.658C51.4935 172.879 51.7572 170.823 55.1842 170.961C61.8867 171.238 70.3752 165.623 72.0162 165.491" fill="white"/>
<path d="M67.4226 176.84C66.8888 176.84 66.322 176.82 65.7157 176.767C64.2197 176.649 63.3695 176.688 62.6907 176.714C61.1222 176.787 60.272 176.767 56.667 175.594C53.1939 174.467 51.4935 173.09 51.7572 171.627C51.856 171.093 52.3832 169.847 55.2369 169.972C59.6657 170.15 65.1819 167.494 68.4771 165.906C70.362 164.997 71.2912 164.562 71.9437 164.502C72.4907 164.45 72.9652 164.858 73.0114 165.405C73.0575 165.952 72.6555 166.427 72.1085 166.473C71.7658 166.512 70.474 167.139 69.3339 167.686C65.8739 169.353 60.0743 172.154 55.1512 171.95C54.5317 171.923 54.1231 171.983 53.8793 172.048C54.2088 172.371 55.0787 172.997 57.2734 173.716C60.6938 174.83 61.3331 174.797 62.605 174.744C63.3432 174.711 64.2592 174.671 65.8739 174.797C71.1924 175.212 72.8466 173.544 74.3031 172.062C74.5074 171.851 74.7051 171.653 74.9028 171.468C75.3048 171.093 75.9243 171.119 76.3 171.515C76.6756 171.91 76.6559 172.536 76.2538 172.912C76.0759 173.083 75.8914 173.261 75.7068 173.452C74.2767 174.902 72.3655 176.84 67.4226 176.84Z" fill="#264964"/>
<path d="M73.7297 170.823C73.7297 170.823 76.4647 151.394 75.2323 141.68C73.9999 131.965 73.275 125.533 73.6967 124.162C74.8501 120.419 73.9999 114.184 73.9999 114.184L64.971 111.311C63.4684 119.655 62.3744 118.963 63.0532 129.771C63.7386 140.579 67.0206 163.567 64.5558 167.396L62.091 171.225" fill="white"/>
<path d="M62.0976 172.226C61.913 172.226 61.7285 172.174 61.5638 172.068C61.1024 171.772 60.9706 171.159 61.2672 170.704L63.732 166.875C65.3533 164.351 64.0022 150.583 63.0202 140.526C62.6248 136.526 62.2557 132.743 62.0712 129.843C61.5703 121.895 62.0317 119.944 62.8818 116.405C63.2114 115.015 63.587 113.44 64.0022 111.146C64.0549 110.869 64.2197 110.619 64.4635 110.474C64.7074 110.329 65.004 110.289 65.2742 110.382L74.3031 113.255C74.6656 113.374 74.9292 113.683 74.9819 114.066C75.0149 114.329 75.8452 120.557 74.6392 124.465C74.2174 125.83 75.4696 135.682 76.2143 141.561C77.4467 151.295 74.8171 170.17 74.7051 170.968C74.626 171.508 74.1251 171.884 73.5913 171.811C73.0509 171.732 72.6752 171.238 72.7477 170.697C72.7741 170.506 75.4498 151.289 74.2504 141.812C72.6818 129.428 72.3325 125.237 72.7477 123.879C73.6177 121.052 73.2618 116.57 73.0904 114.942L65.7355 112.603C65.3862 114.389 65.0633 115.746 64.7997 116.867C63.9759 120.333 63.5607 122.073 64.0418 129.718C64.2197 132.585 64.5888 136.348 64.9842 140.329C66.388 154.683 67.2447 165.063 65.3928 167.943L62.928 171.772C62.7368 172.068 62.4205 172.226 62.0976 172.226Z" fill="#264964"/>
<path d="M70.1511 171.712C69.7491 171.996 69.4855 175.476 63.877 177.94C58.2685 180.405 55.8037 179.581 55.2567 177.94C54.7097 176.299 56.6275 176.161 58.1301 175.891C59.6327 175.614 63.7386 167.679 64.5624 167.409" fill="white"/>
<path d="M58.0906 180.484C57.2997 180.484 56.6143 180.353 56.0344 180.095C55.1908 179.72 54.5976 179.081 54.3208 178.25C54.0309 177.38 54.2286 176.761 54.4461 176.398C55.0392 175.403 56.3573 175.186 57.5172 174.988L57.8995 174.922C58.598 174.533 60.4565 171.607 61.4583 170.025C63.1718 167.317 63.6397 166.664 64.2461 166.46C64.7667 166.288 65.3269 166.565 65.4982 167.086C65.6498 167.547 65.4455 168.042 65.0369 168.266C64.714 168.589 63.8374 169.966 63.1257 171.08C60.7399 174.843 59.4878 176.635 58.3015 176.853L57.8401 176.932C57.3459 177.018 56.3177 177.189 56.1332 177.407C56.1332 177.407 56.1332 177.479 56.1859 177.617C56.2848 177.914 56.4957 178.132 56.8252 178.283C57.392 178.534 59.1714 178.916 63.4684 177.024C67.594 175.212 68.5496 172.853 68.9582 171.851C69.123 171.442 69.2548 171.126 69.5645 170.902C70.0127 170.585 70.6256 170.691 70.9419 171.132C71.2122 171.508 71.1792 172.016 70.8892 172.352C70.8629 172.418 70.8299 172.497 70.7904 172.596C70.2895 173.828 69.1296 176.701 64.2658 178.837C61.7812 179.931 59.7118 180.478 58.084 180.478L58.0906 180.484Z" fill="#264964"/>
<path d="M84.9664 147.638C84.9664 147.638 125.676 111.996 134.553 113.736C144.597 115.707 145.506 131.418 150.548 143.037C152.94 148.547 156.38 154.228 156.38 154.228C156.38 154.228 150.818 154.076 147.483 156.311C144.149 158.545 142.817 162.222 142.817 161.827C142.817 161.431 139.45 158.518 133.887 150.92C128.786 143.947 127.62 140.408 127.62 140.408C127.62 140.408 121.22 155.652 119.092 158.934C120.502 158.578 125.491 158.162 129.221 159.065C135.311 160.535 135.601 162.123 139.753 164.193C142.303 165.465 145.177 167.35 148.861 169.452C152.696 171.64 156.189 173.261 156.189 173.261C156.189 173.261 151.214 174.316 148.281 178.389C145.348 182.461 146.014 187.325 146.014 187.325C146.014 187.325 140.28 186.172 136.016 185.75C129.399 185.091 124.173 184.353 120.799 184.109C118.024 183.905 107.493 181.809 100.691 182.863C93.8965 183.911 91.6755 185.757 86.5613 184.175C80.6299 182.343 75.4959 178.916 75.1005 171.956C74.6985 164.99 74.8764 154.61 84.9664 147.651V147.638Z" fill="#C3DCD9"/>
<path d="M147.207 188.782C147.141 188.782 147.075 188.775 147.009 188.762C146.95 188.749 141.117 187.562 136.846 187.134C133.65 186.811 130.79 186.475 128.259 186.172C125.471 185.842 123.066 185.559 121.253 185.42C120.555 185.368 119.441 185.21 118.031 185.005C113.549 184.366 106.043 183.292 100.843 184.109C98.6811 184.445 96.9808 184.867 95.4782 185.236C92.15 186.06 89.7445 186.653 85.8891 185.44C77.9937 182.969 73.8022 178.388 73.4331 171.824C72.9586 163.422 73.7231 152.864 83.9317 145.68C88.4462 141.673 126.341 108.345 135.64 110.184C143.562 111.759 146.238 120.775 149.072 130.318C150.172 134.022 151.306 137.851 152.776 141.278C155.174 146.886 158.667 152.752 158.7 152.811C158.885 153.121 158.885 153.503 158.7 153.819C158.516 154.129 158.186 154.327 157.824 154.307C157.771 154.307 152.387 154.188 149.276 156.304C146.884 157.932 145.552 160.403 145.051 161.339C144.821 161.767 144.465 162.42 143.7 162.222C143.371 162.143 143.114 161.886 143.002 161.57C142.863 161.385 142.475 160.95 142.059 160.489C140.563 158.828 137.776 155.73 133.96 150.452C130.961 146.3 129.267 143.294 128.351 141.442C126.77 145.212 123.461 152.963 121.412 156.95C123.738 156.732 127.29 156.68 130.21 157.398C134.48 158.446 136.161 159.592 137.94 160.812C138.863 161.444 139.819 162.097 141.229 162.809C142.857 163.632 144.584 164.68 146.574 165.886C147.846 166.657 149.164 167.461 150.627 168.305C154.482 170.533 158.041 172.22 158.081 172.233C158.463 172.411 158.687 172.82 158.641 173.241C158.595 173.663 158.279 174.006 157.863 174.098C157.817 174.111 153.085 175.179 150.344 179.041C147.609 182.896 148.189 187.595 148.189 187.641C148.228 187.958 148.116 188.274 147.885 188.492C147.701 188.663 147.457 188.755 147.213 188.755L147.207 188.782ZM105.199 181.848C109.832 181.848 114.913 182.573 118.307 183.061C119.678 183.259 120.766 183.41 121.398 183.457C123.257 183.595 125.682 183.885 128.49 184.214C131.007 184.511 133.861 184.847 137.044 185.17C140.24 185.493 144.175 186.205 146.152 186.58C146.139 184.682 146.468 181.11 148.729 177.921C150.601 175.278 153.204 173.782 155.076 172.984C153.652 172.266 151.688 171.231 149.638 170.045C148.156 169.188 146.831 168.384 145.546 167.606C143.588 166.42 141.895 165.392 140.333 164.601C138.804 163.83 137.749 163.105 136.82 162.473C135.054 161.26 133.657 160.304 129.735 159.349C126.038 158.439 121.075 158.887 119.817 159.21C119.421 159.316 119.006 159.164 118.769 158.835C118.532 158.505 118.518 158.064 118.736 157.721C120.851 154.412 127.35 138.74 127.409 138.582C127.567 138.2 127.956 137.963 128.364 137.969C128.78 137.989 129.136 138.259 129.267 138.655C129.281 138.688 130.506 142.326 135.561 149.325C139.311 154.524 142.053 157.563 143.523 159.197C143.628 159.309 143.72 159.421 143.813 159.52C144.584 158.208 145.974 156.179 148.162 154.696C150.634 153.015 154.107 152.534 156.163 152.402C154.957 150.274 152.683 146.115 150.957 142.082C149.441 138.543 148.287 134.661 147.174 130.904C144.518 121.948 142.007 113.492 135.252 112.148C133.294 111.759 127.04 113.42 107.196 128.921C95.7682 137.851 85.3091 147.123 85.2037 147.216C85.1773 147.242 85.1444 147.262 85.1114 147.288C75.7134 153.872 74.9292 163.342 75.4037 171.739C75.7266 177.472 79.3514 181.348 86.4822 183.575C89.8104 184.616 91.7678 184.135 95.0103 183.338C96.5524 182.956 98.2923 182.527 100.54 182.178C101.976 181.954 103.565 181.862 105.212 181.862L105.199 181.848Z" fill="#264964"/>
<path d="M156.921 151.79C156.921 151.79 161.389 159.454 164.81 164.516C170.774 173.347 172.382 175.871 175.941 177.65C182.63 180.992 194.506 188.459 193.953 190.647C193.406 192.835 190.255 194.206 188.344 194.344C186.426 194.482 181.226 194.344 179.038 193.659C176.85 192.973 170.01 190.377 168.777 189.283C167.545 188.189 162.398 182.653 161.706 181.618C160.335 179.568 159.656 178.468 156.506 175.186C153.355 171.904 143.641 160.68 143.641 160.68C143.641 160.68 144.188 156.027 148.564 153.562C152.136 151.552 156.908 151.783 156.908 151.783L156.921 151.79Z" fill="white"/>
<path d="M186.65 195.379C184.251 195.379 180.614 195.188 178.748 194.608C177.022 194.067 169.634 191.372 168.125 190.027C166.833 188.88 161.626 183.272 160.888 182.171L160.71 181.908C159.485 180.069 158.746 178.955 155.801 175.878C152.67 172.615 143.305 161.794 142.903 161.339C142.718 161.128 142.633 160.851 142.666 160.574C142.692 160.364 143.325 155.394 148.09 152.712C151.866 150.583 156.763 150.794 156.967 150.807C157.303 150.821 157.606 151.005 157.771 151.295C157.817 151.374 162.266 158.986 165.627 163.962L166.332 165.01C171.604 172.82 173.199 175.179 176.376 176.767C180.007 178.58 184.654 181.328 188.212 183.766C195.449 188.722 195.086 190.185 194.908 190.891C194.216 193.652 190.624 195.174 188.41 195.333C187.995 195.365 187.375 195.379 186.644 195.379H186.65ZM144.702 160.39C146.383 162.328 154.443 171.6 157.224 174.5C160.295 177.703 161.066 178.87 162.358 180.801L162.536 181.064C163.129 181.954 168.158 187.398 169.436 188.538C170.425 189.414 176.765 191.905 179.335 192.71C181.292 193.322 186.308 193.494 188.272 193.349C189.9 193.23 192.509 192.057 192.977 190.469C192.542 188.749 183.316 182.435 175.499 178.527C171.855 176.701 170.194 174.25 164.698 166.104L163.992 165.056C161.086 160.759 157.395 154.524 156.354 152.758C155.069 152.771 151.675 152.943 149.065 154.419C145.875 156.212 144.946 159.27 144.709 160.383L144.702 160.39Z" fill="#264964"/>
<path d="M125.175 105.149C125.55 105.314 124.219 125.125 123.257 135.663C122.301 146.201 111.355 176.438 111.355 176.029C111.355 175.621 103.011 172.747 103.42 172.47C103.828 172.193 108.072 144.013 109.305 138.398C110.537 132.789 109.628 110.711 109.628 110.711C109.628 110.711 108.626 105.966 115.282 104.602C122.433 103.132 124.219 104.74 125.181 105.149H125.175Z" fill="white"/>
<path d="M111.486 177.024C111.434 177.024 111.374 177.024 111.315 177.024C111.038 177.011 110.788 176.886 110.616 176.688C110.122 176.405 108.237 175.66 106.965 175.159C102.826 173.525 102.51 173.38 102.424 172.609C102.405 172.405 102.451 172.2 102.55 172.016C102.853 171.001 104.105 163.296 105.212 156.489C106.458 148.837 107.743 140.929 108.343 138.193C109.503 132.915 108.699 112.135 108.646 110.823C108.58 110.388 108.395 108.635 109.522 106.909C110.59 105.281 112.462 104.18 115.085 103.64C121.754 102.269 124.127 103.501 125.267 104.095C125.379 104.154 125.478 104.207 125.57 104.246C126.394 104.602 126.48 104.635 125.709 116.583C125.287 123.101 124.713 130.628 124.245 135.755C123.738 141.317 120.542 152.053 117.945 160.08C116.311 165.129 114.821 169.419 114.076 171.528C112.271 176.642 112.132 177.024 111.486 177.024ZM104.56 172.035C105.298 172.372 106.642 172.899 107.69 173.314C109.16 173.894 110.168 174.289 110.86 174.606C112.798 169.366 121.444 144.711 122.275 135.577C123.224 125.158 124.298 108.787 124.252 105.801C123.277 105.301 121.267 104.384 115.474 105.577C110.017 106.698 110.511 110.138 110.59 110.527C110.597 110.573 110.61 110.632 110.61 110.685C110.649 111.594 111.513 132.954 110.267 138.622C109.681 141.304 108.395 149.186 107.156 156.812C105.562 166.611 104.929 170.46 104.553 172.049L104.56 172.035ZM102.873 171.647C102.8 171.699 102.734 171.752 102.688 171.805C102.741 171.745 102.807 171.693 102.873 171.647Z" fill="#264964"/>
<path d="M105.061 166.308C104.105 166.994 97.8112 173.426 95.6166 178.211C94.5489 180.55 93.6328 184.61 92.9277 187.516C92.1829 190.561 91.6953 192.413 92.6047 193.54C94.3842 195.728 97.6662 182.778 97.6662 182.778C97.6662 182.778 95.4254 194.127 98.1209 194.272C99.8542 194.364 100.507 191.095 100.665 188.637C100.83 186.126 101.95 183.826 101.95 183.826C101.95 183.826 102.774 193.817 104.415 193.402C106.056 192.993 105.964 183.325 105.964 183.325C105.964 183.325 107.011 192.993 108.929 192.446C110.847 191.899 109.885 185.467 109.885 183.964C109.885 182.462 110.583 181.453 112.211 177.67C113.628 174.388 113.852 172.332 113.582 169.327" fill="white"/>
<path d="M98.2132 195.26C98.1671 195.26 98.1275 195.26 98.0814 195.26C97.5212 195.234 97.0269 194.964 96.6644 194.496C96.1833 193.876 95.9395 192.842 95.8538 191.616C95.0696 193.342 94.226 194.562 93.3758 194.746C92.809 194.871 92.2488 194.661 91.8468 194.166C90.654 192.697 91.1548 190.654 91.9061 187.556L92.2225 186.264C92.9013 183.457 93.7383 179.97 94.7269 177.809C97.0401 172.754 103.525 166.203 104.494 165.511C104.935 165.195 105.555 165.294 105.871 165.742C106.188 166.183 106.089 166.803 105.641 167.119C104.87 167.666 98.6284 174.019 96.526 178.633C95.6166 180.616 94.7993 184.004 94.1469 186.732L93.8305 188.031C93.3297 190.074 92.9474 191.642 93.1847 192.512C94.1403 191.168 95.7022 186.581 96.7238 182.541C96.8556 182.02 97.3762 181.704 97.8969 181.822C98.4175 181.941 98.7536 182.455 98.6482 182.976C97.6991 187.793 97.508 192.723 98.2461 193.316C98.6877 193.316 99.4852 191.695 99.6895 188.584C99.8608 185.908 101.027 183.503 101.073 183.404C101.271 183.002 101.706 182.785 102.148 182.864C102.583 182.943 102.912 183.312 102.952 183.753C103.202 186.818 103.762 190.35 104.303 191.866C104.725 190.377 105.021 186.91 104.988 183.345C104.988 182.818 105.39 182.383 105.917 182.35C106.451 182.317 106.899 182.705 106.959 183.226C107.348 186.831 108.171 190.383 108.811 191.339C109.087 190.858 109.298 189.375 108.995 185.401C108.949 184.788 108.909 184.3 108.909 183.971C108.909 182.646 109.351 181.671 110.234 179.727C110.537 179.061 110.893 178.27 111.315 177.288C112.725 174.013 112.857 172.148 112.607 169.419C112.554 168.872 112.956 168.398 113.503 168.345C114.043 168.292 114.525 168.694 114.577 169.241C114.841 172.174 114.689 174.448 113.134 178.066C112.706 179.061 112.343 179.865 112.033 180.537C111.223 182.33 110.887 183.068 110.887 183.971C110.887 184.228 110.92 184.702 110.966 185.249C111.262 189.197 111.355 192.789 109.213 193.402C108.758 193.534 108.283 193.448 107.875 193.178C107.578 192.98 107.058 192.433 106.511 190.983C105.957 194.048 105.054 194.278 104.665 194.371C104.257 194.469 103.841 194.39 103.479 194.133C102.622 193.52 102.029 191.464 101.627 189.184C101.291 193.118 100.091 195.267 98.2132 195.267V195.26Z" fill="#264964"/>
<path d="M153.408 170.961C153.817 170.961 185.378 183.068 190.031 183.345C194.684 183.621 196.081 177.473 198.243 171.1C199.943 166.084 202.652 162.361 205.222 160.838C206.844 159.876 207.773 161.451 207.826 163.053C207.878 164.654 207.068 166.282 207.318 166.17C207.773 165.979 208.366 163.435 210.692 165.26C212.788 166.901 214.614 171.462 214.39 174.111C214.185 176.444 215.075 179.72 212.063 183.008C209.051 186.291 205.084 192.037 204.537 194.641C203.99 197.237 202.751 200.308 200.569 201.62C196.819 203.867 193.999 202.714 192.635 201.211C191.231 199.669 187.843 196.288 184.153 195.464C180.455 194.641 172.955 193.151 169.285 193C162.714 192.723 147.207 187.8 147.207 187.8C147.207 187.8 143.424 180.959 146.983 175.759C149.843 171.581 153.415 170.968 153.415 170.968L153.408 170.961Z" fill="white"/>
<path d="M196.51 203.867C194.526 203.867 192.931 202.997 191.903 201.864C190.341 200.144 187.224 197.145 183.935 196.42C180.436 195.642 172.857 194.133 169.238 193.982C162.615 193.705 147.543 188.94 146.903 188.736C146.66 188.656 146.462 188.492 146.337 188.274C146.172 187.971 142.303 180.834 146.159 175.199C149.223 170.724 153.079 170.019 153.237 169.992C153.29 169.986 153.349 169.979 153.402 169.979C153.586 169.979 155.383 170.607 158.793 171.864C167.149 174.948 186.716 182.165 190.084 182.363C193.287 182.554 194.638 178.909 196.582 172.951C196.813 172.24 197.05 171.515 197.301 170.783C199.001 165.774 201.769 161.735 204.708 159.988C205.875 159.296 206.778 159.586 207.206 159.823C208.32 160.436 208.761 161.873 208.801 163.02C208.808 163.231 208.801 163.448 208.788 163.652C208.794 163.652 208.808 163.652 208.814 163.652C209.585 163.527 210.422 163.804 211.292 164.489C213.612 166.308 215.629 171.113 215.365 174.204C215.325 174.658 215.332 175.186 215.339 175.739C215.365 177.881 215.405 180.814 212.782 183.681C209.816 186.917 205.987 192.499 205.493 194.845C205.13 196.552 203.983 200.717 201.064 202.47C199.39 203.472 197.848 203.88 196.497 203.88L196.51 203.867ZM147.905 186.976C150.357 187.74 163.544 191.767 169.331 192.004C173.074 192.163 180.548 193.639 184.37 194.489C188.193 195.339 191.646 198.641 193.373 200.539C193.959 201.185 196.174 203.103 200.069 200.77C201.631 199.834 202.942 197.468 203.581 194.436C204.221 191.405 208.577 185.361 211.345 182.343C213.441 180.056 213.408 177.776 213.381 175.766C213.375 175.159 213.368 174.586 213.414 174.032C213.619 171.627 211.885 167.448 210.093 166.045C209.513 165.59 209.229 165.59 209.157 165.603C208.939 165.636 208.689 166.025 208.518 166.282C208.307 166.598 208.096 166.928 207.707 167.086C207.358 167.231 206.916 167.165 206.633 166.908C206.125 166.453 206.297 165.88 206.455 165.32C206.619 164.753 206.87 163.896 206.844 163.086C206.817 162.308 206.534 161.702 206.277 161.557C206.132 161.477 205.901 161.583 205.736 161.682C203.225 163.171 200.714 166.901 199.192 171.409C198.948 172.128 198.711 172.846 198.48 173.558C196.622 179.245 194.875 184.617 189.985 184.327C186.769 184.135 172.771 179.114 158.127 173.709C155.939 172.899 154.015 172.194 153.388 171.976C152.637 172.174 150.027 173.064 147.806 176.299C145.065 180.306 147.259 185.585 147.912 186.963L147.905 186.976Z" fill="#264964"/>
<path d="M107.163 114H107.143C106.596 113.987 106.168 113.539 106.174 112.998C106.174 112.761 106.339 107.225 112.027 104.529C115.941 102.678 123.916 102.308 128.332 104.615C130.058 105.518 131.1 106.777 131.35 108.266C131.442 108.807 131.073 109.314 130.539 109.406C129.999 109.499 129.491 109.13 129.399 108.596C129.254 107.732 128.589 106.981 127.415 106.368C123.896 104.529 116.693 104.503 112.87 106.315C108.316 108.471 108.152 112.853 108.145 113.038C108.132 113.572 107.69 114 107.156 114H107.163Z" fill="#264964"/>
<path d="M68.6155 108.444C67.5215 101.036 70.6585 94.2746 72.1546 91.8164L68.6155 108.444Z" fill="#F4F0BB"/>
<path d="M68.6155 109.433C68.1344 109.433 67.7126 109.077 67.6401 108.589C66.3418 99.7974 70.7969 92.1525 71.311 91.3089C71.5944 90.841 72.2007 90.696 72.6686 90.9794C73.1366 91.2628 73.2815 91.8691 72.9982 92.337C72.5236 93.1147 68.398 100.199 69.5975 108.306C69.6766 108.846 69.3009 109.347 68.7671 109.426C68.721 109.433 68.6682 109.439 68.6221 109.439L68.6155 109.433Z" fill="#264964"/>
<path d="M94.4303 134.153C94.4303 134.153 84.8544 131.965 81.8425 129.777L94.4303 134.153Z" fill="#F4F0BB"/>
<path d="M94.4303 135.142C94.3578 135.142 94.2853 135.135 94.2062 135.116C93.8042 135.023 84.393 132.855 81.256 130.575C80.8144 130.252 80.7156 129.632 81.0385 129.191C81.3614 128.749 81.9743 128.65 82.4225 128.973C84.7555 130.667 92.0379 132.591 94.6478 133.185C95.1816 133.303 95.5111 133.837 95.3925 134.371C95.287 134.826 94.8784 135.142 94.4303 135.142Z" fill="#264964"/>
<path d="M205.611 168.365C207.872 169.597 209.717 171.851 210.745 174.316L205.611 168.365Z" fill="white"/>
<path d="M210.745 175.304C210.356 175.304 209.987 175.074 209.829 174.698C208.847 172.345 207.094 170.302 205.137 169.234C204.656 168.971 204.478 168.371 204.741 167.89C205.005 167.409 205.605 167.231 206.086 167.495C208.458 168.793 210.488 171.139 211.655 173.933C211.865 174.434 211.628 175.014 211.121 175.225C210.996 175.278 210.87 175.304 210.739 175.304H210.745Z" fill="#264964"/>
<path d="M120.028 157.55C120.028 157.55 115.236 168.088 114.142 169.729L120.028 157.55Z" fill="#C3DCD9"/>
<path d="M114.142 170.717C113.951 170.717 113.767 170.664 113.595 170.552C113.141 170.249 113.015 169.636 113.318 169.182C114.182 167.89 117.8 160.054 119.125 157.141C119.349 156.647 119.935 156.423 120.436 156.647C120.93 156.871 121.155 157.457 120.93 157.958C120.733 158.393 116.093 168.589 114.973 170.276C114.782 170.559 114.472 170.717 114.149 170.717H114.142Z" fill="#264964"/>
<path d="M107.071 106.203C107.031 106.203 106.992 106.203 106.952 106.197C106.412 106.131 106.023 105.643 106.089 105.096L107.414 93.9912C107.479 93.4508 107.967 93.062 108.514 93.1279C109.055 93.1938 109.443 93.6815 109.377 94.2285L108.053 105.333C107.993 105.834 107.565 106.203 107.071 106.203Z" fill="#264964"/>
<path d="M78.7055 75.4589L86.5547 72.7436L87.8596 70.6742L84.7423 69.3561L80.1554 66.6277L76.8535 62.7723C76.8535 62.7723 74.2042 59.108 74.0724 54.8703C73.9406 50.6327 74.0197 43.1064 74.0197 43.1064L74.5337 35.646L76.3461 30.545C76.3461 30.545 79.7665 23.0385 88.6966 20.2177C97.6266 17.397 105.917 19.2028 105.917 19.2028C105.917 19.2028 103.466 8.032 114.656 13.0671C114.656 13.0671 123.916 17.832 114.867 23.8425C114.867 23.8425 130.025 38.7369 117.853 53.9081C117.853 53.9081 114.109 57.4999 111.091 57.4999C111.091 57.4999 107.064 63.4247 104.652 64.7889C104.652 64.7889 105.469 70.3776 112.047 74.378C112.047 74.378 89.1975 84.5603 78.6989 75.4457L78.7055 75.4589Z" fill="white"/>
<path d="M119.691 35.8634C119.177 33.5699 118.36 31.3687 117.154 29.3389C116.521 28.2778 115.816 27.2761 115.078 26.2875C114.663 25.7273 114.254 25.1803 113.793 24.6662C114.478 24.2444 115.091 23.7106 115.605 23.0911C116.633 21.8323 117.181 20.0793 116.844 18.4844C116.825 18.2933 116.798 18.0956 116.765 17.9044C116.508 16.4941 115.724 15.5978 114.544 14.7937C112.422 13.3373 109.048 12.4146 106.629 13.6602C104.586 14.7081 105.522 17.1531 105.931 19.2159C97.7782 17.1531 87.3324 19.0973 81.0121 24.6465C79.5622 25.925 78.1585 27.3947 77.2226 29.1016C76.3725 30.3406 75.72 31.6982 75.3905 33.1679C74.4612 35.3098 73.9801 37.6362 74.0922 39.9429C75.4564 39.62 77.1106 38.7302 78.0662 37.7153C82.1457 33.3854 82.7586 32.2848 83.4506 32.845C83.7801 33.9192 84.2612 34.921 84.8741 35.8304C85.5661 37.1024 86.5349 38.2228 87.741 39.0927C89.6983 40.5097 92.1434 41.0567 94.516 40.8194C96.3811 42.9415 98.7009 44.5232 101.166 45.9138C103.716 47.3506 106.82 47.5614 109.694 47.6076C111.104 47.6339 112.422 47.1924 113.694 47.4626C115.586 47.4428 117.576 48.5039 118.07 50.3624C118.123 50.5535 118.143 50.738 118.149 50.916C118.334 50.7314 118.479 50.5074 118.545 50.2701C119.256 47.858 120.14 45.4393 120.265 42.9152C120.377 40.5624 120.206 38.1766 119.685 35.8766" fill="#264964"/>
<path d="M84.7357 56.5707C84.7028 56.4983 84.6171 56.4521 84.5248 56.3994L84.5051 56.3862C84.4062 56.3335 84.3074 56.3005 84.2283 56.2676C84.169 56.2478 84.1031 56.228 84.0371 56.2083C83.9515 56.1885 83.8724 56.1621 83.7999 56.1358C83.6747 56.0831 83.5626 55.9974 83.4836 55.8985C83.4242 55.826 83.3913 55.7535 83.3847 55.681C83.3781 55.5624 83.444 55.4372 83.5033 55.3252C83.5692 55.2065 83.6285 55.0747 83.6879 54.9363C83.8658 54.6134 83.9053 54.3168 83.7933 54.1323C83.7142 53.9939 83.5626 53.9082 83.3913 53.9082C83.2133 53.9082 83.1408 54.0268 83.0749 54.1257L82.8179 54.5145C82.7454 54.62 82.6729 54.732 82.607 54.844C82.5543 54.9363 82.5016 55.0286 82.4554 55.1208C82.4159 55.1999 82.3698 55.279 82.317 55.3713C82.2248 55.5295 82.1325 55.6876 82.0996 55.8722C82.0534 56.1424 82.1589 56.4126 82.3895 56.6235C82.64 56.8541 82.9959 56.9398 83.2529 56.9728C83.4176 56.9925 83.589 56.9925 83.7538 56.9925H83.8065C83.846 56.9925 83.8922 56.9925 83.9317 56.9925C84.136 56.9925 84.2942 56.9596 84.426 56.9134C84.6698 56.8278 84.7819 56.7026 84.7357 56.5707Z" fill="#264964"/>
<path d="M80.0565 49.1038L80.0433 49.084C79.8456 48.6886 79.4106 48.4118 78.8768 48.3393C78.3034 48.2602 77.7696 48.4315 77.4862 48.794C77.2885 49.0445 77.1106 49.4992 77.4137 50.2307L77.4269 50.2637L77.4533 50.2901C77.7696 50.58 78.1519 50.7646 78.5341 50.8173C79.2854 50.9227 79.8852 50.5009 80.1488 49.6903L80.162 49.6508L80.0499 49.1038H80.0565Z" fill="#264964"/>
<path d="M94.9839 50.3428L94.9707 50.323C94.7598 49.9078 94.3051 49.6178 93.7515 49.5387C93.1517 49.4531 92.5915 49.6376 92.2884 50.0198C92.0775 50.2835 91.893 50.758 92.2159 51.5291L92.2291 51.562L92.2554 51.5884C92.5915 51.8915 92.9936 52.0892 93.389 52.142C94.1733 52.254 94.8059 51.8124 95.0827 50.9557L95.0959 50.9161L94.9839 50.3428Z" fill="#264964"/>
<path d="M89.6984 60.6962C89.6127 60.5116 89.4611 60.4128 89.2436 60.3996C89.1382 60.393 89.0327 60.3996 88.9339 60.4194C88.8877 60.4194 88.8416 60.4326 88.8021 60.4326C88.6834 60.4391 88.5846 60.4853 88.4791 60.5314C87.8728 60.7884 87.2203 60.8873 86.4954 60.8412C86.0143 60.8082 85.4936 60.7159 84.8478 60.5446C84.716 60.5116 84.5842 60.4457 84.4524 60.3798C84.2415 60.281 84.0306 60.1755 83.7735 60.1558C83.6879 60.1558 83.6022 60.1558 83.5231 60.1689L83.4045 60.1887L83.3715 60.7159L83.4111 60.7621C83.7933 61.2036 84.4128 61.8034 85.3552 61.8627C85.4343 61.8627 85.5134 61.8627 85.5925 61.8627C85.6716 61.8627 85.7639 61.8627 85.8561 61.8627C85.9945 61.8693 86.1395 61.8891 86.2779 61.9022L86.3965 61.9154C86.5086 61.9286 86.6206 61.9352 86.7327 61.9484C87.7014 62.0143 88.5121 61.8429 89.2172 61.4409C89.2502 61.4211 89.2897 61.4014 89.3359 61.3816C89.5336 61.2827 89.9092 61.0982 89.7049 60.6764" fill="#264964"/>
<path d="M96.1042 67.8734C94.7202 68.2227 93.3363 68.572 91.9523 68.9081C91.8732 68.9147 91.7875 68.9278 91.7084 68.9476C90.6737 69.1915 89.9158 69.7187 88.9009 69.9955C86.9106 70.2262 86.1988 69.633 84.3271 68.2029C81.4669 66.2521 78.7714 64.2948 76.9656 61.3159C76.1088 59.6353 75.7529 58.0997 75.4234 56.3006C75.1664 55.7799 75.5091 53.6578 74.6457 53.9741C71.6537 60.8282 80.2542 68.6379 86.647 71.1488C86.3042 73.7521 77.2885 73.3434 80.1685 75.1295C84.0701 75.5908 86.904 72.5724 86.7392 73.9629C86.3833 75.1229 87.4246 76.5332 88.3143 74.9317C88.4132 74.3781 88.4066 72.9282 88.2946 71.6102C89.0722 71.6365 89.7906 71.3465 90.5155 71.017C92.0182 70.5557 93.5274 70.1339 95.0564 69.7517C95.0761 69.7517 95.0893 69.7385 95.1025 69.7319C97.9562 68.974 101.41 67.702 104.303 65.8765C107.156 74.6484 114.861 77.1659 113.734 74.2134C108.613 71.8672 106.913 68.6708 105.674 64.934C108.099 63.1151 109.905 60.8282 110.221 58.0602C107.539 57.1112 110.491 62.5022 96.1108 67.8668" fill="#264964"/>
<path d="M74.1119 51.1796C75.1928 50.7446 74.2503 48.8136 74.4744 47.6471C74.514 46.0061 74.7842 35.9359 73.1431 43.706C73.2354 44.4046 72.1019 51.72 74.1119 51.1796Z" fill="#264964"/>
<path d="M73.4661 39.4816C73.4661 39.4816 73.4661 39.5014 73.4661 39.508C73.4529 39.7189 73.4727 39.9364 73.5451 40.1341C73.5847 40.2329 73.644 40.3318 73.7363 40.3845C73.7824 40.4175 73.8417 40.4372 73.901 40.4175C74.1053 40.4307 74.3096 40.3054 74.369 40.0945C75.3905 36.4105 76.0034 32.4364 78.1585 29.0424C78.1716 29.0226 78.1848 29.0094 78.198 28.9896C84.9928 20.6593 94.5819 17.9375 103.519 19.5587C103.545 19.5587 103.571 19.5653 103.598 19.5653C105.463 19.5653 104.599 18.1154 103.169 17.8386C93.6131 15.9735 83.5165 19.9805 77.1963 27.6452C77.1897 27.6518 77.1831 27.665 77.1765 27.6715C76.9722 27.9483 76.7811 28.2251 76.5965 28.5151C76.4186 28.7985 76.2472 29.0819 76.0825 29.3719C75.9243 29.6553 75.7727 29.9518 75.6343 30.2418C75.4959 30.5318 75.3641 30.8284 75.2455 31.1315C75.1269 31.4281 75.0082 31.7313 74.9028 32.041C74.7973 32.3442 74.6985 32.6539 74.6062 32.9703C74.5139 33.2866 74.4283 33.603 74.3558 33.9193C74.2767 34.2422 74.2042 34.5652 74.1383 34.8947C74.0724 35.2242 74.0065 35.5603 73.9472 35.8964C73.8879 36.2391 73.8351 36.5818 73.7824 36.9245C73.7297 37.2738 73.6835 37.6297 73.6308 37.9856C73.5847 38.3481 73.5386 38.7105 73.4924 39.0796C73.4792 39.1917 73.4661 39.3037 73.4529 39.4157C73.4529 39.4289 73.4529 39.4421 73.4529 39.4553C73.4529 39.4685 73.4529 39.4816 73.4529 39.4948" fill="#264964"/>
<path d="M117.378 27.4145C122.492 35.8569 123.211 44.6353 118.729 52.0562C119.019 47.7922 114.96 45.6305 111.275 48.181C109.891 50.5667 114.485 47.6999 115.777 48.8796C119.013 51.0742 116.304 54.4287 113.404 55.8193C112.594 56.4784 109.18 56.5377 110.214 58.0667C112.06 58.2907 114.933 57.1045 116.844 55.2394C125.076 50.8765 124.371 38.8226 121.293 31.2304C119.935 26.1953 112.073 21.3249 117.372 27.4145" fill="#264964"/>
<path d="M106.379 20.1453C107.367 20.2639 106.491 18.814 106.464 18.0693C105.344 10.3387 113.154 12.3817 116.482 15.1563C118.439 16.9225 118.11 21.002 115.882 22.2937C115.862 22.3069 115.843 22.3135 115.816 22.3267C114.992 22.676 113.852 22.4453 113.978 23.6711C113.984 23.7568 114.011 23.8359 114.063 23.9018C114.854 25.0024 117.299 23.5921 117.925 22.9528C117.945 22.933 117.965 22.9067 117.978 22.8803C123.85 13.8777 111.163 9.98937 108.837 11.0636C103.077 12.8167 104.158 19.3346 106.372 20.1453" fill="#264964"/>
<path d="M108.277 48.6028C109.193 48.8994 112.277 48.6951 110.623 47.3375C110.537 47.2716 110.432 47.232 110.326 47.2386C104.191 47.3638 101.831 41.9531 100.928 36.6478C100.843 36.1337 100.105 36.1535 100.039 36.6675C100.039 36.7203 100.026 36.773 100.019 36.8323C100.019 36.8455 100.019 36.8521 100.019 36.8653C99.5576 42.1574 103.024 47.6406 108.244 48.5963C108.257 48.5963 108.277 48.6028 108.29 48.6094" fill="#264964"/>
<path d="M93.7515 40.1539C93.7053 40.0814 93.6394 40.0155 93.5669 39.976C88.1166 37.1487 88.8811 35.3758 88.4 30.5253C88.3868 30.3737 88.3012 30.2353 88.1628 30.176C87.9387 30.0705 87.6948 30.2023 87.6026 30.723C84.6896 39.9892 95.3398 42.9219 93.7515 40.1539Z" fill="#264964"/>
<path d="M78.9295 38.1636C80.788 36.7071 82.6927 34.3346 82.8509 32.2124C82.8838 31.7577 82.3038 31.5468 82.0336 31.9159C80.419 34.1369 79.2327 36.7071 76.3131 37.8209C76.2604 37.8407 76.2077 37.8736 76.1616 37.9132C74.448 39.574 78.0003 39.2379 78.9295 38.157" fill="#264964"/>
<path d="M98.0616 42.1442C98.0616 42.0585 98.0221 41.9728 97.9694 41.9069C97.0533 40.6877 96.5524 39.4816 96.2888 37.6297C96.2888 37.6166 96.2888 37.5968 96.2888 37.5836C95.8868 27.9945 93.9426 36.3116 95.1684 39.8244C95.3398 41.0304 98.2066 44.8858 98.0616 42.1508" fill="#264964"/>
</g>
<defs>
<clipPath id="clip0_15_318">
<rect width="230" height="215.554" fill="white" transform="translate(17.5 10.8857)"/>
</clipPath>
</defs>
</svg>
