<svg width="276" height="254" viewBox="0 0 276 254" fill="none" xmlns="http://www.w3.org/2000/svg">
<path d="M76.5363 240.069C66.1118 235.489 56.7392 228.211 47.647 221.515C32.6413 210.471 21.4455 194.94 12.4001 178.455C3.54162 162.272 -0.385084 147.578 0.666713 134.395C1.36791 125.397 -0.198097 116.12 2.23272 107.285C4.71029 98.147 6.13606 88.4748 9.89915 79.686C22.3571 50.6692 43.5566 30.3016 73.5445 18.5833C86.1427 13.6542 98.7643 9.21329 111.386 5.23743C118.608 2.95886 129.266 1.44757 143.384 0.70355C153.715 0.168785 164.35 1.49407 175.265 4.72591C190.2 9.14354 202.097 13.7472 211.003 18.5136C240.593 34.3472 260.764 57.6677 271.516 88.4748C273.269 93.5202 274.344 99.0073 274.695 104.936C275.279 114.539 275.56 123.816 275.489 132.814C275.419 140.184 274.531 146.997 272.825 153.251C264.153 185.012 245.899 213.401 217.968 230.211C204.668 238.209 189.266 244.766 171.736 249.858C165.565 251.648 159.722 251.787 153.481 252.787C151.027 253.182 148.479 253.345 145.885 253.275C136.606 253.043 127.023 253.81 118.351 252.392C103.906 250.044 89.9759 245.951 76.5363 240.069Z" fill="white"/>
<g clip-path="url(#clip0_66_415)">
<path d="M252.848 97.8322C252.848 97.8322 251.033 97.6802 249.601 99.1918C248.17 100.703 246.81 102.135 246.506 103.726C246.202 105.31 245.826 106.294 246.018 107.805C246.21 109.317 246.85 108.749 245.826 110.069C244.811 111.388 243.635 111.468 242.651 114.035C241.668 116.603 241.404 116.795 241.364 119.394C241.324 122.001 241.252 122.641 242.043 123.809C242.835 124.976 243.211 125.888 243.059 126.448C242.907 127.016 242.075 127.431 241.508 128.711C240.94 129.999 240.564 133.054 240.788 134.221C241.012 135.389 241.995 138.22 243.131 139.204C244.267 140.188 246.53 142.035 249.209 142.491C251.889 142.947 253.624 143.171 255.591 142.947C257.559 142.723 259.59 142.987 260.99 142.459C262.389 141.931 263.029 141.891 264.165 140.38C265.301 138.868 266.508 137.469 266.692 134.717C266.884 131.958 266.124 131.43 265.597 129.471C265.069 127.503 264.653 127.655 265.221 126.448C265.788 125.24 266.844 123.537 266.58 121.009C266.316 118.482 266.62 117.802 265.149 115.651C263.677 113.5 261.222 111.876 260.694 110.7C260.166 109.533 260.43 110.021 260.43 107.981C260.43 105.942 260.39 104.542 259.526 102.655C258.655 100.767 256.503 98.8399 255.184 98.384C253.864 97.9281 252.84 97.8162 252.84 97.8162" fill="white"/>
<path d="M249.729 97.3843C249.729 97.3843 247.234 98.376 246.258 99.4317C245.283 100.487 244.011 101.847 243.827 104.078C243.691 105.694 244.011 107.589 243.163 109.045C242.707 109.829 242.003 110.436 241.396 111.116C240.004 112.66 239.076 114.571 238.461 116.555C237.781 118.754 237.501 121.249 238.572 123.297C238.924 123.96 240.004 125.152 239.572 125.952C238.269 128.383 237.301 130.878 237.453 133.702C237.557 135.557 238.181 137.405 239.388 138.812C240.62 140.252 242.355 141.123 244.091 141.827C245.882 142.547 247.33 143.003 249.297 142.891C250.729 142.811 252.168 142.699 253.6 142.803C255.767 142.947 257.567 142.803 259.342 141.379C260.502 140.452 261.958 138.78 262.685 137.229C263.413 135.677 263.845 134.197 263.533 132.086C263.229 129.983 262.198 128.119 262.07 126.448C261.95 124.776 262.677 125.272 262.981 123.904C263.245 122.705 263.533 121.777 263.421 120.521C263.301 119.178 262.949 117.866 262.437 116.619C261.806 115.083 260.95 113.652 259.998 112.284C259.55 111.644 259.038 111.148 258.495 110.596C258.391 110.492 257.607 109.869 257.623 109.725C257.879 107.221 257.239 104.534 256.143 102.287C255.128 100.199 253.328 98.256 250.993 97.7122C250.201 97.5282 249.713 97.4003 249.713 97.4003" fill="#C3DCD9"/>
<path d="M266.404 128.975C266.34 128.847 266.292 128.695 266.252 128.551C266.204 128.383 266.148 128.199 266.06 128.047C265.805 127.607 265.82 127.24 266.124 126.696C268.724 122.097 266.828 114.275 262.437 111.492C261.318 110.78 261.142 109.933 261.214 108.709C261.486 104.438 260.022 100.975 256.879 98.424C255.823 97.5683 254.456 97.0964 253.032 97.0964C251.609 97.0964 250.217 97.5683 249.121 98.416C245.826 100.967 244.515 104.358 245.219 108.493C245.307 109.029 245.275 109.397 244.827 109.757C241.508 112.42 240.732 116.211 240.428 119.218C240.14 122.057 240.564 124.232 241.764 126.056C241.98 126.384 241.971 126.592 241.724 126.952C240.444 128.839 239.852 130.903 239.908 133.27C239.7 136.373 241.116 138.964 244.363 141.443C246.234 142.867 248.482 143.531 251.417 143.531C251.801 143.531 252.209 143.523 252.64 143.499C252.624 143.699 252.608 143.899 252.608 144.091C252.6 149.457 252.536 154.823 252.488 160.19C252.488 160.526 252.488 160.878 252.624 161.182C253.208 162.445 254.368 161.334 254.36 160.406C254.352 157.879 254.344 155.351 254.336 152.824C254.328 149.921 254.32 147.018 254.312 144.107C254.312 143.843 254.296 143.603 254.264 143.379C255.016 143.315 255.711 143.283 256.367 143.283C257.023 143.283 257.647 143.315 258.263 143.379C258.663 143.419 259.054 143.443 259.422 143.443C261.71 143.443 263.461 142.619 264.621 141.004C267.764 136.629 268.332 132.806 266.428 128.991M259.926 141.595C259.822 141.595 259.718 141.595 259.606 141.579C258.967 141.523 258.279 141.499 257.519 141.499C256.543 141.499 255.552 141.547 254.592 141.587C253.632 141.627 252.648 141.675 251.673 141.675C251.249 141.675 250.857 141.667 250.481 141.651C247.066 141.499 244.459 139.924 242.515 136.821C241.868 135.789 241.604 134.597 241.644 132.934C241.556 131.79 241.74 130.599 242.219 129.175C242.435 128.527 242.747 127.879 243.515 127.567C243.867 127.424 244.099 127.2 244.179 126.928C244.259 126.648 244.179 126.344 243.955 126.032C241.004 122.049 242.259 117.818 243.371 114.083C243.715 112.932 244.603 112.108 245.466 111.308C245.682 111.108 245.89 110.916 246.09 110.716C246.538 110.269 246.69 109.869 246.65 109.229C246.466 106.494 246.61 104.262 247.922 102.247C248.857 100.807 250.097 99.2958 252.193 98.9679C252.52 98.9119 252.84 98.8879 253.144 98.8879C255.008 98.8879 256.487 99.9036 257.807 102.079C259.206 104.39 259.71 106.718 259.302 108.997C259.134 109.941 259.43 110.636 260.342 111.412C264.381 114.859 266.044 118.794 265.437 123.449C265.325 124.312 265.005 125.176 264.533 125.88C263.589 127.296 264.245 128.463 264.885 129.591C265.765 131.15 266.02 132.686 265.661 134.302C265.173 136.485 264.453 138.164 263.397 139.604C262.725 140.524 261.582 141.611 259.942 141.611" fill="#264964"/>
<path d="M39.455 99.8953C37.2877 98.5197 32.9689 104.502 32.593 105.966C31.6893 107.629 32.761 111.788 31.0735 113.171C27.0427 116.402 23.4757 123.408 26.4348 128.231C27.1386 129.103 27.6345 129.167 27.5465 129.982C27.4585 130.798 27.5465 130.27 26.7308 131.702C24.7073 135.405 24.8913 142.803 28.2183 145.714C30.5536 147.761 34.3845 149.441 37.5276 149.537C39.3111 149.537 38.9832 149.041 40.9106 149.217C42.838 149.393 46.165 149.857 48.0045 148.689C49.844 147.521 51.0436 147.025 52.1233 145.066C53.203 143.107 53.7868 143.139 54.0187 140.747C55.0744 135.605 53.6428 134.941 52.5872 131.086C52.5872 130.094 52.7631 130.382 53.259 128.871C53.7548 127.351 54.3067 128.055 53.8748 124.872C53.5949 119.178 50.0839 115.755 47.5406 112.963C48.1565 111.5 45.7732 102.471 43.2459 101.255C41.7903 100.119 39.455 99.8793 39.455 99.8793" fill="white"/>
<path d="M35.5842 100.263C34.6564 100.399 33.7527 100.823 32.9929 101.383C31.2094 102.703 29.6339 104.726 29.298 106.957C29.0901 108.333 29.306 109.74 29.1061 111.116C28.8821 112.668 28.0424 113.563 27.0107 114.675C23.2518 118.69 21.4043 125.048 24.4914 129.927C24.6274 130.134 24.7633 130.35 24.8273 130.59C24.9873 131.222 24.4194 131.798 24.1315 132.294C23.7556 132.958 23.4117 133.645 23.1558 134.365C22.8119 135.333 22.644 136.357 22.556 137.38C22.396 139.284 22.532 141.251 23.2438 143.019C24.3315 145.722 26.6188 147.042 29.1461 148.209C30.6016 148.881 32.1052 149.545 33.7047 149.641C34.4325 149.689 35.1683 149.609 35.8961 149.553C38.8712 149.313 42.1182 150.361 44.8214 148.617C47.0768 147.161 49.0362 144.962 49.852 142.379C50.9237 138.972 49.772 135.837 48.8843 132.566C48.7483 132.054 48.6043 131.51 48.7243 130.998C48.8123 130.63 49.0282 130.302 49.2122 129.967C50.4598 127.735 50.4358 124.968 49.7 122.529C49.1722 120.769 48.3004 119.138 47.3407 117.586C46.8848 116.842 46.421 116.107 45.8691 115.443C45.6532 115.187 43.9657 113.715 43.9977 113.499C44.3336 110.748 43.6298 107.797 42.3742 105.35C41.6864 104.014 40.6867 102.687 39.575 101.679C38.7672 100.951 37.7835 100.375 36.7038 100.239C36.3279 100.191 35.9521 100.199 35.5762 100.255" fill="#C3DCD9"/>
<path d="M54.4586 133.773C54.3306 133.126 54.1947 132.454 53.8028 131.886C53.291 131.142 53.3069 130.55 53.8508 129.879C54.2187 129.423 54.3546 128.839 54.4826 128.263L54.5066 128.167C55.0904 125.624 54.7705 122.929 53.5389 119.937C52.6032 117.682 51.4035 115.867 49.86 114.403C49.572 114.131 49.2281 113.835 48.8683 113.835C48.6843 113.835 48.5164 113.907 48.3644 114.051C48.2124 114.195 48.1405 114.339 48.1405 114.491C48.1405 114.763 48.3724 114.995 48.5723 115.195C48.6363 115.259 48.7003 115.323 48.7563 115.387C50.2518 117.114 51.3155 118.85 51.9873 120.689C53.011 123.472 53.7788 126.751 51.7874 129.967C51.4755 130.47 51.6274 130.926 51.7874 131.27C52.987 133.701 53.4269 135.661 53.219 137.636C53.7708 140.18 53.035 142.563 50.8837 145.154C48.9562 147.473 46.8049 148.601 44.3096 148.601C43.9097 148.601 43.4938 148.569 43.078 148.513C42.4221 148.417 41.7344 148.369 41.0466 148.369C40.1508 148.369 39.2391 148.449 38.3274 148.601C38.1194 148.633 37.9035 148.657 37.6795 148.657C37.4156 148.657 37.1357 148.633 36.8398 148.585C34.1046 148.129 31.6573 147.042 29.5619 145.362C27.2506 143.507 26.091 141.099 26.1149 138.212C26.1389 135.557 26.7947 133.174 28.0744 131.15C28.5062 130.462 28.6502 129.943 28.0984 129.287C26.7468 127.679 26.5068 125.688 26.4588 124.128C26.3389 120.441 27.7705 117.25 30.9775 114.083C31.0895 113.971 31.2094 113.859 31.3294 113.747C31.9692 113.155 32.625 112.54 32.665 111.516C32.713 110.372 32.777 109.445 32.873 108.597C33.2169 105.598 34.3525 103.302 36.3519 101.575C37.1517 100.887 38.1034 100.519 39.1111 100.519C39.8709 100.519 40.6387 100.735 41.3265 101.135C43.102 102.183 44.2056 103.83 45.1254 105.454C46.261 107.453 46.453 109.708 46.6369 111.892L46.6849 112.468C46.6849 112.532 46.6929 112.604 46.7009 112.668C46.7409 113.219 46.7889 113.907 47.5646 113.907C47.5966 113.907 47.6366 113.907 47.6766 113.907C48.5324 113.843 48.4924 113.147 48.4684 112.588C48.4684 112.5 48.4604 112.42 48.4604 112.332C48.4284 110.596 48.2045 108.981 47.7886 107.525C46.7649 103.958 44.9334 101.447 42.2062 99.8474C41.3105 99.3275 40.2788 99.0476 39.2071 99.0476C37.6955 99.0476 36.24 99.5834 35.1123 100.559C33.7767 101.719 32.769 103.214 32.0332 105.142C31.2254 107.253 31.0655 109.501 31.0095 111.612C31.0015 112.028 30.9935 112.324 30.5936 112.58C29.0341 113.571 27.7625 114.995 26.6988 116.922C24.0675 121.697 24.0436 126.008 26.6188 130.086C26.7708 130.334 26.8587 130.51 26.6588 130.734C26.051 131.406 25.787 132.246 25.5391 133.062C25.4751 133.27 25.4112 133.485 25.3392 133.685C24.2835 136.749 24.2035 139.34 25.0752 141.835C26.091 144.738 28.1543 146.93 31.3934 148.521C33.0729 149.353 35.3282 150.297 37.8235 150.297C38.4073 150.297 38.9912 150.193 39.567 150.169C39.1831 152.968 39.431 156.007 39.391 158.846C39.3511 161.877 39.3271 164.908 39.3111 167.931C39.3111 168.843 40.5987 170.187 41.0306 168.771C41.1185 168.483 41.1665 168.139 41.1665 167.763C41.1745 165.916 41.1905 164.005 41.1665 162.101C41.1265 158.278 41.0625 154.455 40.9986 150.888C40.9986 150.648 40.9906 150.289 40.8626 150.009C40.9266 150.009 40.9906 150.009 41.0546 150.009C41.5584 150.009 42.0703 150.049 42.5901 150.129C43.1259 150.209 43.6538 150.249 44.1656 150.249C45.7412 150.249 47.2127 149.873 48.6763 149.097C52.3152 147.169 54.4506 144.186 55.0264 140.228C55.3304 138.132 54.9545 135.997 54.5546 134.189C54.5226 134.045 54.4906 133.901 54.4666 133.757" fill="#264964"/>
<path d="M148.623 78.9255C148.327 77.8938 147.903 76.8941 147.375 75.9584C147.655 68.5046 138.642 73.4871 135.651 76.0224C132.892 77.0701 131.724 77.6139 129.149 78.8695C126.837 78.2537 118.288 66.2173 116.496 64.4578L115.201 54.8206C115.201 54.8206 116.832 53.2291 115.369 51.5976C113.905 49.966 108.411 46.2791 108.411 46.2791C108.411 46.2791 110.882 41.6245 111.01 41.6725C112.961 41.5125 119.304 42.3843 121.359 40.1209C123.614 38.7373 122.119 31.2675 122.319 30.1878L124.334 27.2927C124.59 27.0448 122.063 23.9977 121.943 23.7737C121.943 23.7737 120.855 20.6306 120.559 18.2873C120.263 15.7121 120.183 14.2645 119.991 13.3368C120.767 12.1931 121.279 10.9535 120.863 9.44193C120.207 7.01864 117.64 6.8347 115.553 6.74672C110.514 6.53079 106.875 1.7162 101.613 2.63593C99.0535 3.0838 96.8781 4.63534 94.6388 5.85899C92.1755 7.20259 89.4163 7.76243 87.145 9.47392C82.9062 12.673 80.5549 18.3513 82.4664 23.4938C83.0102 24.9494 83.778 26.301 84.6018 27.6126C85.3855 28.8602 86.2173 30.1239 87.3289 31.1076C87.8968 31.6114 88.6166 31.9873 89.0644 32.6191C89.4803 33.203 89.6083 33.9467 89.8402 34.6025C90.3601 36.0581 91.1918 37.3057 92.3915 38.2895C92.4794 38.3614 92.5674 38.4094 92.6554 38.4494C92.6394 38.5614 92.6234 38.6733 92.6074 38.7853C91.7996 38.2415 85.5535 40.9127 85.0096 42.3763C83.826 43.7838 83.0902 44.0638 82.7783 45.2554C82.4664 46.4391 83.1142 48.5265 83.1142 48.5265C75.8843 53.7329 61.8804 62.2664 55.5223 68.7525C52.4672 70.7759 51.3715 73.1832 52.2113 76.3663C53.043 78.9015 65.2634 99.2556 65.3994 100.143C65.4634 100.223 66.4151 100.831 67.1349 100.647C67.4628 103.07 70.07 110.14 72.4053 111.652C73.3251 112.156 74.9646 112.828 74.9646 112.828C73.477 119.786 75.5884 124.904 78.7955 130.614C76.924 137.356 74.5647 155.391 71.2377 162.981C65.0395 172.322 54.0667 191.74 47.7726 200.274C45.7572 202.409 43.7498 203.961 43.0779 205.72C40.5107 210.719 51.7954 213.966 55.4823 217.709C59.7291 220.636 67.0309 224.739 70.6938 224.579C76.908 222.363 67.1829 219.428 64.3677 210.495C64.1997 209.743 63.7839 208.647 64.0718 208.024C64.3677 207.392 83.1782 185.102 83.1782 184.974C83.1782 184.846 91.5197 174.625 91.5197 174.625L97.1741 158.03C98.6376 160.326 105.212 173.234 106.347 176.801C109.267 182.959 106.363 208.735 107.451 213.598C107.387 214.006 104.652 222.499 106.683 223.523C107.563 224.195 136.435 224.235 136.435 224.235C140.057 224.147 138.138 220.58 135.427 219.124C119.472 211.91 124.422 217.333 126.461 193.188C126.461 193.188 128.725 174.497 127.885 170.267C124.27 154.991 117.256 139.868 111.754 127.231C112.226 125.896 114.457 118.786 114.977 116.842C115.225 115.923 115.609 109.429 115.609 109.429C115.609 109.429 114.225 102.727 114.225 100.207C114.497 96.0165 115.705 89.4264 116.448 87.675C116.448 87.675 122.982 92.4975 123.318 93.0414C123.654 93.5852 124.91 94.385 126.461 94.8408C131.236 95.3607 138.794 90.2262 142.689 88.2988C147.743 88.2748 150.262 83.4762 148.615 78.9335M78.9634 77.438C78.2436 79.4854 78.1956 92.4735 74.8126 85.4196C73.413 82.9803 72.3254 80.4051 71.1417 77.8538C70.7738 76.8861 72.0774 76.4942 72.7412 76.2223C74.5247 75.4865 76.3242 74.7827 78.1476 74.1509C79.8192 73.791 79.0034 76.4942 78.9554 77.43" fill="white"/>
<path d="M75.1405 119.594C75.1405 119.594 74.7647 122.409 75.9483 124.8C77.132 127.191 78.8115 131.014 78.8115 131.014L75.1965 146.37L71.0377 163.637C71.0377 163.637 65.2075 174.266 64.3437 175.753C63.48 177.241 56.1381 187.654 54.5226 190.101C52.9071 192.548 48.9642 199.666 48.9642 199.666C48.9642 199.666 54.8985 204.873 56.466 205.72C58.0336 206.568 60.7848 207.712 60.7848 207.712L62.3603 206.592L89.1924 174.162L95.5026 155.831C95.5026 155.831 104.5 171.059 105.036 172.338C105.58 173.61 107.395 180.104 107.667 182.071C107.939 184.039 107.203 211.007 107.203 211.007L107.923 213.046L122.191 213.11L124.902 182.031C124.902 182.031 125.766 173.314 124.846 170.499C123.926 167.684 118.8 150.785 118.8 150.785L110.162 128.359C110.162 128.359 112.298 119.05 112.266 119.218C112.234 119.386 110.97 119.594 110.97 119.594C110.97 119.594 107.843 120.713 105.036 121.297C102.229 121.881 94.7268 121.985 92.4555 122.097C90.1921 122.201 83.4981 121.513 81.2827 121.089C79.0674 120.665 75.1325 119.602 75.1325 119.602" fill="#F4F0BB"/>
<path d="M119.895 10.5297C119.32 9.09812 118.648 8.70623 117.192 8.30635C115.729 7.91446 113.849 8.18638 111.05 6.87477C108.251 5.56315 107.707 4.56345 105.42 4.13957C103.14 3.7157 102.716 3.56374 101.101 3.7157C99.4853 3.86765 99.0055 4.17156 97.358 5.17927C95.7184 6.17897 92.1595 8.01044 92.1595 8.01044C92.1595 8.01044 89.7842 8.89018 87.9607 10.0818C86.1373 11.2655 84.8896 12.1772 83.8579 13.6408C82.8262 15.1044 82.7623 16.224 82.2424 17.6876C81.7226 19.1512 81.6026 22.1583 82.2104 23.8298C82.8182 25.5013 83.8259 27.9086 84.6737 28.8763C85.5294 29.852 88.0167 32.4992 88.0167 32.4992L90.544 35.7543L91.9756 38.1856C91.9756 38.1856 93.1912 37.9137 94.1029 38.0016C95.0147 38.0896 95.9904 38.3695 96.3823 38.1216C96.7741 37.8817 97.262 37.2738 97.326 36.4501C97.39 35.6263 97.358 31.6755 97.4779 30.4918C97.5419 29.844 97.6059 29.1002 97.7978 28.4444C97.9498 26.9649 99.6133 26.0131 101.229 26.0291C102.484 26.0371 103.548 26.8369 104.404 27.6767C104.972 28.2285 105.46 28.6524 106.027 28.9723C106.147 28.9563 106.267 28.9243 106.371 28.8763C106.539 28.8523 106.691 28.7883 106.819 28.6764C106.827 28.6684 106.835 28.6524 106.843 28.6444C106.891 28.6444 106.931 28.6284 106.979 28.6124C107.523 28.4284 107.651 27.8526 107.539 27.3408C107.435 26.8609 107.267 26.389 107.155 25.9172C106.683 23.9418 106.499 21.9104 106.579 19.879C107.427 19.4711 109.29 18.5114 110.386 17.5036C110.802 17.1198 111.17 16.7199 111.474 16.312C112.466 15.3363 113.233 14.1366 113.665 12.801C114.129 13.2009 114.625 13.5608 115.137 13.8887C115.489 14.1046 115.865 14.3286 116.272 14.4246C116.368 14.4485 116.464 14.4645 116.56 14.4805C117.088 14.6485 117.704 14.6645 118.304 14.5845C118.52 14.5925 118.736 14.6005 118.936 14.5605C119.415 14.4805 119.575 14.0327 119.727 13.6248C119.839 13.3129 119.911 12.977 119.943 12.6491C120.127 11.9533 120.143 11.2015 119.879 10.5377" fill="white"/>
<path d="M79.5552 78.6695C79.7472 77.3739 79.9391 76.0383 80.1231 74.7187C80.1631 74.4148 80.251 74.1828 80.387 74.0069C81.0828 73.727 81.7706 73.4471 82.4664 73.1591C83.5861 72.6953 84.7217 72.2474 85.8254 71.8075C88.3287 70.8158 90.9199 69.7921 93.3912 68.5765C93.4632 68.5365 93.5511 68.5045 93.6311 68.4645C93.999 68.3046 94.4069 68.1206 94.5348 67.7687C94.6068 67.5688 94.5748 67.3528 94.4469 67.0969C94.2949 66.785 94.079 66.6331 93.8071 66.6331C93.5351 66.6331 93.2472 66.785 92.9753 66.937C92.8873 66.985 92.7993 67.0329 92.7114 67.0729C91.3838 67.6967 90.0002 68.3046 88.6006 68.8644C83.5221 70.9118 78.1157 73.1032 72.6773 75.3985C71.1657 76.0383 70.4299 76.3742 70.214 76.934C69.998 77.5099 70.3659 78.2536 71.0857 79.7412L71.1257 79.8212C72.2054 82.0365 73.429 84.2199 74.6127 86.3473C75.8683 88.5946 77.1559 90.9139 78.2916 93.2732C78.5155 93.7371 78.8275 94.161 79.1394 94.5609L79.2113 94.6568C79.4353 94.9607 79.7152 95.1207 80.0031 95.1207C80.1631 95.1207 80.323 95.0727 80.483 94.9767C80.7469 94.8168 80.9148 94.5848 80.9628 94.3289C81.0108 94.081 80.9388 93.8251 80.7709 93.6011C80.0671 92.6894 79.5872 91.6337 79.1154 90.618C78.8674 90.0822 78.6435 89.5943 78.3876 89.1145C78.3316 88.8825 78.3236 88.6266 78.3476 88.3307C78.6195 85.0916 79.0994 81.8286 79.5712 78.6615M76.956 86.5312L76.884 86.5472C75.7644 84.6198 74.6847 82.6923 73.541 80.6449H73.525V80.6209C72.9332 79.5653 72.3414 78.5016 71.7335 77.4299C72.8372 76.99 73.9329 76.5581 75.0206 76.1263C76.2362 75.6464 77.4199 75.1825 78.5875 74.7107V74.7267L78.6835 74.7027C78.5795 75.3025 78.4756 75.9023 78.3716 76.5102C77.8038 79.7812 77.2119 83.1642 76.94 86.5232" fill="#264964"/>
<path d="M94.7348 108.757C94.9027 108.757 95.0867 108.709 95.3106 108.605C95.6385 108.453 95.9584 108.277 96.2543 108.085C98.2618 106.805 100.261 105.518 102.261 104.23L104.308 102.918C104.62 102.719 104.924 102.479 104.964 101.959C104.916 101.455 104.636 101.167 104.196 101.167C104.092 101.167 103.98 101.183 103.86 101.215C103.412 101.343 102.972 101.559 102.62 101.823C101.581 102.615 100.445 103.302 99.3414 103.974C98.6536 104.39 97.9419 104.822 97.2621 105.278C96.3743 105.87 95.5106 106.509 94.6628 107.133L94.5029 107.253C94.167 107.501 93.7671 107.893 94.151 108.437C94.2949 108.645 94.4949 108.757 94.7348 108.757Z" fill="#264964"/>
<path d="M111.386 53.1491C111.61 53.2211 111.842 53.2611 112.034 53.3011C112.106 53.3171 112.17 53.3251 112.242 53.3411C112.29 53.3411 112.346 53.3411 112.394 53.3411C112.817 53.3411 113.257 53.2691 113.361 52.7572C113.481 52.1574 112.937 51.9575 112.642 51.8535C112.546 51.8215 112.45 51.7975 112.346 51.7655C112.29 51.7495 112.234 51.7335 112.178 51.7175C111.026 51.3736 109.818 51.1737 108.651 50.9818C107.259 50.7498 105.812 50.5099 104.452 50.022C104.348 49.9821 104.228 49.9661 104.092 49.9661C104.044 49.9661 103.988 49.9661 103.94 49.9661C103.652 49.9901 103.444 50.15 103.356 50.4139C103.268 50.6699 103.372 50.8938 103.652 51.0777C103.788 51.1657 103.94 51.2297 104.084 51.2937C104.148 51.3177 104.212 51.3497 104.268 51.3816C105.588 52.0135 107.027 52.2614 108.419 52.4933C109.402 52.6613 110.418 52.8292 111.386 53.1411" fill="#264964"/>
<path d="M128.581 80.493C128.469 80.413 128.357 80.373 128.237 80.373C128.029 80.373 127.821 80.501 127.621 80.7409C126.11 82.5644 125.182 84.4119 124.854 86.2433C124.846 86.8911 124.838 87.5069 125.558 87.5549C125.582 87.5549 125.606 87.5549 125.622 87.5549C126.166 87.5549 126.325 87.0991 126.413 86.6512C126.429 86.5552 126.445 86.4593 126.469 86.3473C126.525 86.0114 126.589 85.6675 126.709 85.3476C127.197 84.004 127.901 82.7404 128.589 81.5167L128.621 81.4607C128.781 81.1728 128.997 80.7809 128.581 80.485" fill="#264964"/>
<path d="M57.7776 88.7387C58.7933 90.3783 59.849 92.0818 60.7928 93.8013C61.2966 94.721 61.8804 95.6087 62.4403 96.4725C63.1601 97.5681 63.8958 98.6958 64.4797 99.9035C64.6956 100.351 64.9755 100.583 65.3034 100.583C65.4234 100.583 65.5514 100.551 65.6873 100.495C66.1832 100.271 66.2951 99.8475 66.0392 99.1917C65.8713 98.7598 65.6633 98.2559 65.3914 97.8081L65.0395 97.2243C63.0881 94.0012 61.0647 90.6742 59.0493 87.4191C56.9539 84.0441 54.5866 80.2292 53.235 76.0065C52.4592 73.5912 53.091 71.5038 55.0744 69.9763C55.4823 69.6564 55.8822 69.3125 56.2661 68.9766C56.506 68.7686 56.7539 68.5527 56.9939 68.3447C57.4177 67.9928 58.3295 67.2251 58.3375 67.2251C62.1124 64.066 66.0232 60.795 70.23 58.0358C71.1337 57.4439 72.0694 56.8521 72.9732 56.2843C75.1965 54.8767 77.4998 53.4211 79.6192 51.7496C82.8743 49.1744 86.8251 47.9027 90.2721 46.999C90.7999 46.863 91.3438 46.7911 91.8796 46.7911C93.6151 46.7911 95.2066 47.4709 97.0621 48.4866C97.31 48.6225 97.5739 48.7585 97.8139 48.7585C98.0138 48.7585 98.1818 48.6625 98.3177 48.4786C98.4537 48.2946 98.5017 48.1107 98.4697 47.9347C98.4217 47.6948 98.2137 47.4629 97.8379 47.2389C96.2143 46.2792 94.2629 45.2875 92.0955 45.2875C91.6557 45.2875 91.2158 45.3275 90.7839 45.4075C88.1367 45.9033 85.7854 46.6151 83.594 47.5908C83.4101 46.6791 83.2661 45.4715 83.69 44.7997C85.2176 42.4004 87.4009 40.7448 90.3681 39.7371C90.664 39.6332 90.9999 39.6012 91.3198 39.5692C91.4717 39.5532 91.6237 39.5372 91.7516 39.5212C91.9276 39.5452 92.1115 39.5692 92.2875 39.5932C92.6714 39.6412 93.0313 39.6892 93.3832 39.7771C95.3746 40.289 97.198 41.2807 98.9495 42.2404C99.5254 42.5523 100.117 42.8802 100.709 43.1841C102.365 44.0319 104.012 44.9756 105.62 45.8953C106.691 46.5112 107.803 47.143 108.915 47.7428C110.226 48.4546 111.474 49.3103 112.682 50.1421C113.097 50.43 113.521 50.7179 113.945 50.9978C115.073 51.7496 115.441 52.7893 115.017 53.9969C114.993 54.0529 114.969 54.1169 114.945 54.1809C114.825 54.4848 114.705 54.7967 114.833 55.0606C114.905 55.2206 115.057 55.3326 115.289 55.4125C115.385 55.4445 115.481 55.4605 115.569 55.4605C116.065 55.4605 116.296 54.9647 116.48 54.5648L116.496 54.5248C116.616 54.2609 116.688 53.941 116.68 53.6451C116.656 51.9575 116.025 50.6299 114.809 49.6942C113.529 48.7105 112.37 47.9347 111.266 47.3189C110.01 46.6231 108.747 45.9033 107.515 45.1995C103.884 43.1361 100.133 41.0008 96.2543 39.2573C94.7268 38.5695 93.2552 38.2256 91.8796 38.2256C91.0239 38.2256 90.2001 38.3615 89.4323 38.6335C86.0173 39.8331 83.5541 42.0085 82.1065 45.1196C81.7466 45.8873 81.8666 47.2709 82.1865 48.1747C82.1945 48.2067 82.2105 48.2386 82.2265 48.2626C80.8988 48.9504 79.6352 49.7422 78.4836 50.6219C76.796 51.9016 74.9326 53.1892 72.7972 54.5488C72.2214 54.9167 71.6376 55.2766 71.0697 55.6205C69.3982 56.6442 67.6707 57.7079 66.1192 58.9635C65.1195 59.7713 64.0958 60.587 63.0881 61.3948L63.0401 61.4268C59.977 63.874 56.8019 66.4013 53.8828 69.1205C52.2833 70.6081 51.4835 72.4395 51.3555 74.8708C51.6514 76.8062 52.4432 78.7897 53.179 80.4772C54.4506 83.3803 56.1381 86.1075 57.7776 88.7467" fill="#264964"/>
<path d="M78.2436 94.8729C77.9797 94.8729 77.6918 94.9769 77.4678 95.0729C75.9163 95.7127 74.3727 96.3685 72.8292 97.0163L72.7732 97.0403C71.8455 97.4322 70.9178 97.8241 69.99 98.2079L69.9341 98.2319C69.0543 98.5998 68.1426 98.9837 67.3588 99.5835L67.2948 99.6315C67.0149 99.8475 66.663 100.111 66.8949 100.575C67.0309 100.847 67.2388 100.983 67.5188 100.983C67.6707 100.983 67.8467 100.943 68.0546 100.863C68.4545 100.703 68.8544 100.535 69.2543 100.359C69.5662 100.231 69.8701 100.095 70.182 99.9674C71.0537 99.6075 71.9175 99.2556 72.7892 98.8957C74.4607 98.2079 76.1882 97.5042 77.8837 96.7924L77.9797 96.7524C78.4516 96.5604 78.9954 96.3365 79.0674 95.6247V95.5927C78.9234 95.0969 78.6515 94.8569 78.2436 94.8569" fill="#264964"/>
<path d="M149.887 82.0447C149.767 81.6288 149.735 81.2849 149.783 80.957C150.047 79.2295 149.639 77.734 148.575 76.5183C148.255 76.1505 148.151 75.7746 148.223 75.2627C148.375 74.159 148.111 73.1593 147.479 72.4475C146.855 71.7437 145.904 71.3759 144.8 71.3998C144.536 71.3998 144.264 71.4238 143.992 71.4478C140.801 71.7437 138.042 73.3113 135.539 74.9508C135.331 75.0868 134.883 75.3827 134.923 75.7986C134.819 75.7186 134.691 75.6786 134.539 75.6786C134.307 75.6786 134.067 75.7666 133.835 75.8545L133.787 75.8705C132.492 76.3504 131.188 76.9982 129.788 77.854C129.597 77.9739 129.445 78.0219 129.309 78.0219C129.125 78.0219 128.949 77.9179 128.749 77.686C127.949 76.7423 127.109 75.7986 126.238 74.8628C124.67 73.1753 123.206 71.3599 121.775 69.5924C120.583 68.1208 119.36 66.6013 118.072 65.1617C117.696 64.7378 117.472 64.2819 117.36 63.6821C117.032 61.9466 116.672 60.1871 116.328 58.4916L115.985 56.7801C115.929 56.4762 115.857 56.1003 115.433 56.1003C115.417 56.1003 115.393 56.1003 115.369 56.1003C114.873 56.1403 114.857 56.6202 114.849 56.9321C114.825 57.8118 114.985 58.6836 115.129 59.4514C116.552 67.1531 116.8 74.7349 115.857 81.9727C115.417 85.3158 114.905 88.6988 114.409 91.9858V92.0178C114.137 93.7773 113.865 95.5927 113.601 97.3842C113.281 99.5916 113.281 101.935 113.593 104.542C113.705 105.446 113.889 106.35 114.073 107.229C114.393 108.765 114.729 110.356 114.633 111.98C114.569 113.068 114.417 114.155 114.273 115.227C114.225 115.587 114.177 115.939 114.129 116.299L114.113 116.427C114.057 116.842 113.993 117.33 114.273 117.626C114.201 117.706 114.145 117.81 114.105 117.914C114.041 117.93 113.969 117.954 113.905 117.994C111.434 119.21 108.715 119.81 106.091 120.385L105.724 120.465C103.58 120.937 101.325 121.177 99.0295 121.185C98.3097 121.185 97.5819 121.193 96.8621 121.201C96.0704 121.201 95.2706 121.217 94.4788 121.217C91.7197 121.217 88.7525 121.129 85.7534 120.505C85.1056 120.369 84.4498 120.241 83.786 120.114C81.4907 119.666 79.1074 119.21 76.876 118.33L76.836 118.314C76.6841 118.258 76.5321 118.194 76.3802 118.194C76.2202 118.194 76.0842 118.266 75.9803 118.402C75.6764 118.818 76.0203 119.138 76.2442 119.346C76.996 120.05 77.9557 120.345 78.8754 120.593C82.6743 121.609 87.7128 122.777 92.9433 122.777C93.7351 122.777 94.5188 122.753 95.2786 122.697C96.1663 122.745 97.0621 122.769 97.9338 122.769C102.46 122.769 106.891 122.105 111.09 120.785C111.762 120.577 112.586 120.297 113.433 119.946C113.289 120.393 113.145 120.849 113.017 121.297C112.649 122.585 112.274 123.944 112.002 125.376C111.754 124.888 111.498 124.4 111.25 123.928L111.01 123.465C110.874 123.201 110.674 122.905 110.346 122.905C110.274 122.905 110.202 122.921 110.122 122.953C109.642 123.145 109.738 123.585 109.81 123.912L109.834 124.008C109.858 124.128 109.906 124.232 109.946 124.344L109.97 124.392C110.234 125.032 110.49 125.672 110.746 126.32C111.306 127.719 111.89 129.175 112.554 130.558C114.433 134.477 115.969 138.612 117.464 142.611L117.48 142.659C117.96 143.939 118.448 145.258 118.944 146.554C119.176 147.154 119.424 147.769 119.647 148.313C120.143 149.521 120.655 150.769 121.031 152.056C121.255 152.808 121.471 153.56 121.687 154.319C122.463 157.023 123.27 159.822 124.262 162.517C125.67 166.34 126.917 170.115 126.773 174.226C126.733 175.353 126.709 176.497 126.677 177.609V177.633C126.597 180.96 126.509 184.399 126.142 187.758C125.718 191.597 125.294 195.363 124.718 199.186C124.398 201.298 124.214 203.465 124.038 205.568C123.942 206.672 123.846 207.808 123.734 208.927C123.71 209.143 123.694 209.359 123.67 209.591C123.598 210.415 123.526 211.263 123.27 212.095H108.363C108.259 211.935 108.267 211.799 108.275 211.631C108.275 211.583 108.275 211.543 108.275 211.495C108.259 202.153 108.275 193.004 108.667 183.799C108.731 182.295 108.571 180.848 108.179 179.24C107.243 175.465 105.859 171.81 104.068 168.387C102.628 165.636 101.045 162.909 99.5094 160.27C98.5097 158.55 97.47 156.767 96.4863 154.991C93.2472 149.169 89.2884 143.731 85.4575 138.476L85.1856 138.1C80.8189 132.102 76.772 126.12 75.2445 118.858C75.2045 118.682 75.1485 118.49 75.0445 118.346C75.1005 118.234 75.1485 118.098 75.1725 117.938C75.3325 116.906 75.4844 115.883 75.6364 114.803L75.8043 113.627C75.8843 113.627 75.9643 113.635 76.0443 113.635C76.772 113.635 77.4358 113.396 78.0277 112.916C78.7075 112.364 79.3793 112.068 80.163 111.972C81.2427 111.844 82.5783 111.508 83.2741 110.076C83.4261 109.765 83.746 109.717 84.0739 109.661L84.1939 109.645C86.0653 109.341 87.153 108.237 87.265 106.55C87.3369 105.422 87.6648 104.43 88.0087 103.374C88.0087 103.374 88.1127 103.055 88.1607 102.911C88.5526 101.687 88.3606 100.671 87.5609 99.7995C86.1053 98.216 84.2578 97.1523 82.4664 96.1286L82.4264 96.1046C82.2184 95.9846 82.0105 95.8647 81.8026 95.7447C81.6266 95.6407 81.4267 95.5448 81.2187 95.5448C81.0108 95.5448 80.8348 95.6567 80.7069 95.8727C80.411 96.3765 80.8908 96.7284 81.0508 96.8404C81.1947 96.9443 81.3307 97.0483 81.4987 97.1683C82.0265 97.5602 82.5703 97.968 83.1382 98.3039C84.1699 98.9118 85.0976 99.6316 85.9533 100.503C86.9211 101.479 86.969 101.967 86.2333 103.207L86.0413 102.935C85.8334 102.639 85.6334 102.351 85.4335 102.063C85.0416 101.511 84.6417 100.935 84.0819 100.487C83.874 100.319 83.642 100.159 83.3861 100.159C83.2421 100.159 83.0982 100.215 82.9702 100.319C82.5304 100.695 82.8263 101.079 83.0262 101.335L83.0742 101.399C83.9379 102.543 84.6577 103.774 85.3135 104.934C85.7534 105.71 85.8334 106.462 85.5455 107.037C85.2655 107.605 84.6337 107.973 83.77 108.085C82.7943 108.213 82.1865 108.597 81.8026 109.341C81.5306 109.869 81.0828 110.164 80.411 110.276C79.2273 110.468 77.8837 110.684 76.916 111.772C76.772 111.94 76.5641 112.02 76.3082 112.02C76.1562 112.02 76.0043 111.988 75.8363 111.932C75.6764 111.876 75.5244 111.828 75.3645 111.772H75.3325C74.7966 111.58 74.2448 111.396 73.7569 111.132C73.661 111.084 73.565 111.028 73.461 110.972C72.7732 110.604 72.0614 110.228 71.6695 109.509L71.6376 109.453C70.6618 107.645 69.6541 105.774 68.8784 103.822C68.6304 103.199 68.3425 102.583 68.0626 101.983L67.9586 101.759C67.7907 101.407 67.5747 101.335 67.4148 101.335C67.3428 101.335 67.2708 101.351 67.1989 101.375C67.0069 101.447 66.807 101.623 66.9029 102.079C66.9909 102.487 67.0949 102.967 67.2308 103.414C67.7587 105.062 68.4945 106.653 69.2063 108.181C69.3982 108.597 69.5982 109.021 69.7901 109.445C70.5339 111.084 71.7975 111.996 73.477 112.86C73.7889 113.02 74.1248 113.148 74.4527 113.268C74.3887 113.531 74.3328 113.803 74.2688 114.059C73.9889 115.251 73.6929 116.491 73.621 117.746C73.605 118.098 73.7009 118.362 73.9009 118.53C73.8609 118.674 73.8449 118.842 73.8689 119.05C74.0049 120.329 74.1568 121.577 74.5647 122.777C75.4924 125.48 76.7241 128.183 78.2596 130.934C78.2116 131.054 78.1876 131.182 78.1636 131.294C78.1396 131.398 78.1236 131.502 78.0917 131.59C78.0117 131.814 77.9557 132.046 77.9157 132.27C77.084 136.525 76.0283 140.803 75.0126 144.962C74.4847 147.098 73.9489 149.313 73.437 151.488C72.1814 156.903 70.6139 162.637 67.6867 167.884C63.5759 175.241 59.809 181.152 55.8422 186.478C53.4109 189.741 51.3155 193.292 49.2841 196.731C48.8443 197.475 48.4124 198.211 47.9725 198.946C47.8445 199.162 47.7646 199.362 47.7406 199.554C47.5726 199.65 47.4367 199.746 47.3167 199.85C45.1014 201.778 43.5658 203.545 42.5021 205.432C42.1262 206.096 41.3744 207.792 42.4781 209.231C43.2619 210.255 44.2376 211.423 45.5092 212.27C47.5086 213.606 49.74 215.03 52.5232 216.765C55.7222 218.757 59.0972 220.556 62.3603 222.292C62.8961 222.571 63.424 222.859 63.9598 223.139C66.2311 224.355 68.1506 225.027 70.014 225.267C70.174 225.291 70.3419 225.299 70.5019 225.299C71.3736 225.299 72.1574 224.995 72.7092 224.435C73.2131 223.931 73.477 223.267 73.469 222.531C73.485 222.044 73.2691 221.412 72.9012 220.844C72.2854 219.892 71.6376 219.108 70.9178 218.437C67.8627 215.598 65.9512 212.838 64.8955 209.767C64.8635 209.671 64.8316 209.543 64.8076 209.415C64.7676 209.231 64.7196 209.023 64.6396 208.847C65.0875 208.544 65.3754 208.112 65.6473 207.688C65.7673 207.504 65.8872 207.32 66.0152 207.144C67.2069 205.584 68.5025 204.073 69.7661 202.601C70.9258 201.25 72.1254 199.85 73.2371 198.419C75.6604 195.299 78.2516 192.244 80.7549 189.277C83.9379 185.51 87.233 181.623 90.2081 177.585C90.4 177.321 90.6 177.065 90.7999 176.801L90.8159 176.785C91.6157 175.745 92.4474 174.666 92.9273 173.322C93.975 170.379 94.9107 167.348 95.8144 164.413L95.8304 164.357C96.1663 163.277 96.4942 162.197 96.8381 161.125C96.9741 160.686 97.0541 160.238 97.1101 159.782C97.1101 159.782 97.1181 159.798 97.1261 159.806C97.5499 160.542 97.9738 161.269 98.4057 162.005L98.4297 162.053C101.053 166.556 103.764 171.203 105.34 176.305C105.452 176.665 105.564 177.033 105.684 177.393V177.417C106.419 179.704 107.171 182.063 107.003 184.695V184.783C106.675 189.853 106.339 195.1 106.467 200.29C106.555 204.113 106.611 208.216 106.379 212.294C106.347 212.838 106.539 213.222 106.971 213.462C106.939 213.566 106.907 213.67 106.875 213.782C106.787 214.07 106.699 214.366 106.563 214.63C105.508 216.709 105.012 219.02 105.06 221.708C105.092 223.443 105.556 224.059 107.219 224.571C107.771 224.739 108.339 224.763 108.819 224.763H122.159V224.907H128.973C130.828 224.907 132.676 224.907 134.531 224.907H135.275C136.099 224.907 136.978 224.875 137.85 224.459C138.89 223.963 139.37 223.531 139.266 222.419C139.154 221.188 138.49 220.124 137.314 219.26C135.939 218.253 134.363 217.581 132.996 217.061C132.516 216.877 132.028 216.693 131.54 216.517C129.301 215.685 126.989 214.83 125.006 213.366C125.046 213.262 125.086 213.15 125.11 213.022C125.246 212.278 125.39 211.511 125.462 210.743C125.574 209.599 125.678 208.44 125.782 207.296C125.95 205.424 126.118 203.481 126.341 201.586C126.541 199.874 126.773 198.139 126.997 196.459C127.509 192.636 128.029 188.677 128.237 184.743C128.429 181.064 128.645 176.897 128.533 172.826C128.477 170.851 128.421 168.603 127.629 166.508C126.501 163.525 125.526 160.438 124.582 157.447C123.614 154.383 122.615 151.216 121.455 148.161C121.007 146.994 120.575 145.826 120.135 144.666L120.119 144.626C118.312 139.812 116.448 134.829 114.113 130.135C113.825 129.551 113.577 128.943 113.337 128.351C113.193 127.999 113.049 127.647 112.889 127.295C113.185 127.215 113.377 126.96 113.465 126.528C113.505 126.352 113.529 126.176 113.553 126C113.577 125.824 113.609 125.648 113.641 125.472C113.841 124.536 114.049 123.601 114.249 122.657C114.553 121.241 114.865 119.826 115.161 118.41C115.193 118.274 115.233 118.066 115.193 117.882C115.705 117.762 115.801 117.186 115.873 116.715L115.897 116.579L115.977 116.123C116.096 115.419 116.224 114.699 116.264 113.979C116.28 113.683 116.304 113.388 116.328 113.084C116.44 111.668 116.552 110.212 116.184 108.837C114.897 103.982 114.801 99.0717 115.897 93.8333C116.064 93.0255 116.168 92.1937 116.264 91.378C116.36 90.5862 116.456 89.7625 116.624 88.9627C116.92 89.0107 117.104 89.1866 117.28 89.3546C117.328 89.4026 117.384 89.4505 117.432 89.4985C119.591 91.354 121.855 93.0255 124.598 94.9529C125.43 95.5368 126.317 95.8087 127.405 95.8087C127.789 95.8087 128.213 95.7767 128.693 95.7047C129.716 95.5607 130.644 95.1529 131.548 94.753C132.1 94.5131 132.668 94.2651 133.243 94.0812C135.099 93.4894 136.786 92.5216 138.426 91.5859C139.602 90.9141 140.809 90.2183 142.073 89.6745C142.273 89.5865 142.513 89.4106 142.633 89.2106C142.713 89.2106 142.801 89.2106 142.881 89.2026C142.913 89.2026 142.945 89.2026 142.985 89.1946C145.584 88.8427 147.647 87.6671 149.119 85.6996C149.967 84.572 150.206 83.3483 149.839 82.0767M137.306 222.987C137.218 223.099 137.034 223.155 136.762 223.155H136.738C133.379 223.123 129.972 223.115 126.677 223.107H122.95C121.743 223.107 120.543 223.107 119.336 223.115C118.128 223.115 116.928 223.131 115.721 223.131C112.753 223.131 110.49 223.083 108.379 222.987C107.027 222.923 106.883 222.787 106.867 221.5C106.835 219.468 107.187 217.517 107.899 215.693C108.131 215.094 108.355 214.462 108.291 213.774C108.619 213.806 108.955 213.806 109.274 213.814H109.498C110.506 213.838 111.578 213.846 112.873 213.846C113.761 213.846 114.657 213.846 115.545 213.838H115.657C116.584 213.838 117.512 213.83 118.44 213.83C120.335 213.83 121.863 213.854 123.254 213.894C123.342 213.966 123.43 214.038 123.518 214.11L123.542 214.126C124.046 214.542 124.558 214.982 125.086 215.39C126.613 216.589 128.421 217.261 130.172 217.909C130.828 218.149 131.5 218.405 132.148 218.677L132.18 218.693C133.507 219.252 134.875 219.828 136.091 220.652C136.802 221.132 137.21 221.692 137.346 222.363C137.41 222.683 137.394 222.875 137.298 222.987M87.097 178.84C86.3452 179.8 85.5775 180.792 84.7617 181.719C81.0988 185.886 77.5158 190.245 74.0528 194.468C71.6296 197.419 69.1263 200.474 66.583 203.457C65.5114 204.721 64.3837 206.096 63.464 207.704C58.2175 205.664 53.6988 202.697 49.588 199.794C50.3718 198.818 50.9156 197.763 51.4515 196.731C51.7474 196.155 52.0593 195.555 52.3952 194.996C54.6665 191.261 57.2498 187.646 59.761 184.135C60.4169 183.215 61.0727 182.303 61.7285 181.376C64.1677 177.929 66.2151 174.186 68.1906 170.571L68.2066 170.539C69.1183 168.867 70.07 167.132 71.0457 165.452C72.7972 162.437 73.653 158.83 74.3408 155.935C75.2685 152.048 76.1722 148.089 77.044 144.266C77.4598 142.443 77.8757 140.62 78.2996 138.796C78.6675 137.213 78.9074 135.589 79.1393 134.021C79.2033 133.598 79.2673 133.166 79.3393 132.726C80.339 134.381 81.4427 136.053 82.6743 137.756C83.4341 138.812 84.2179 139.876 84.9776 140.907C88.2007 145.298 91.5277 149.833 94.1669 154.719C94.7268 155.759 95.3426 156.775 95.9504 157.774C96.0224 157.894 96.0944 158.014 96.1663 158.134C96.0864 158.31 96.0304 158.502 95.9824 158.686C95.9504 158.79 95.9264 158.886 95.8944 158.982C95.5105 160.134 95.1346 161.277 94.7588 162.445C93.6551 165.812 92.5194 169.299 91.2558 172.674C91.1998 172.826 91.1438 172.986 91.0878 173.138C90.7839 173.978 90.464 174.857 89.8642 175.513C88.8965 176.577 88.0007 177.721 87.129 178.84M67.6867 217.629C68.1186 218.125 68.5904 218.605 69.0543 219.06C69.7581 219.764 70.4939 220.492 71.0697 221.324L71.1737 221.476C71.5656 222.036 71.9735 222.611 71.5496 223.179C71.3656 223.427 71.0857 223.547 70.7098 223.547C70.3739 223.547 70.006 223.451 69.6941 223.363C67.9746 222.891 66.3511 222.244 64.8635 221.436L63.432 220.66C59.2652 218.413 54.9545 216.085 50.9236 213.43C50.2838 213.014 49.604 212.598 49.0042 212.238C47.2847 211.207 45.5012 210.135 44.1176 208.576C43.3659 207.736 43.3099 207.2 43.8537 206.376C45.0054 204.641 46.4689 202.905 48.3164 201.074C48.3804 201.01 48.4524 200.938 48.5243 200.866C50.4918 202.633 52.6991 204.033 55.1704 205.544C57.7856 207.144 60.041 208.384 62.5202 209.207C62.7202 209.271 62.9121 209.303 63.1041 209.303C63.184 209.303 63.272 209.303 63.352 209.287C63.376 209.503 63.432 209.727 63.4879 209.911C63.5199 210.015 63.5439 210.111 63.5599 210.199C64.2477 213.334 66.1192 215.805 67.6787 217.605M142.841 87.4111C142.745 87.4191 142.657 87.4191 142.561 87.4271C142.473 87.4271 142.377 87.4271 142.289 87.4431C142.249 87.4431 142.209 87.4511 142.169 87.4591C142.129 87.4591 142.097 87.4751 142.065 87.4831C141.873 87.1632 141.609 86.8753 141.161 86.7073C139.81 86.1955 138.77 85.2358 138.17 83.9402C137.61 82.7325 137.066 81.4289 137.002 79.9893C137.138 80.0533 137.306 80.0933 137.498 80.1253C137.586 80.1413 137.682 80.1413 137.794 80.1253C137.89 80.1173 137.986 80.1013 138.082 80.0853C138.17 80.0693 138.258 80.0533 138.354 80.0453C138.522 80.0293 138.658 80.0453 138.778 80.0853C139.018 81.6928 139.786 82.6445 141.193 83.0764C141.729 83.2444 142.217 83.9642 142.185 84.2681C142.041 85.4597 142.465 86.3794 143.528 87.1632C143.28 87.3472 143.049 87.3951 142.849 87.4111M146.664 85.7556C146.448 85.9396 146.176 86.0435 145.872 86.0755C145.104 86.1475 144.312 85.6996 143.968 85.0118C144.976 84.8999 145.912 84.62 146.695 84.356L146.751 84.34C147.111 84.2201 147.519 84.0841 147.679 83.7722C147.767 83.5963 147.767 83.3883 147.679 83.1404C147.543 82.7485 147.271 82.5806 146.839 82.6205C146.664 82.6365 146.48 82.6845 146.304 82.7325L146.216 82.7565C145.72 82.8845 145.224 83.0364 144.72 83.1884C144.416 83.2764 144.12 83.3723 143.816 83.4603C143.752 83.4763 143.696 83.4923 143.64 83.4923C143.44 83.5083 143.296 83.4443 143.193 83.2764C143.033 83.0204 143.001 82.8925 143.089 82.8365C143.368 82.6365 143.56 82.3486 143.752 82.0687C144.056 81.6128 144.344 81.189 144.968 81.125C144.992 81.125 145.024 81.125 145.048 81.125C145.072 81.125 145.104 81.125 145.128 81.125C145.4 81.101 145.664 81.005 145.928 80.9091C146.04 80.8691 146.16 80.8291 146.272 80.7891C146.863 80.6051 147.127 80.2772 147.039 79.8054C146.959 79.3575 146.624 79.1336 146.12 79.1816C146.064 79.1816 146.008 79.1976 145.952 79.2056C145.48 79.3015 145.024 79.4295 144.536 79.5654C144.36 79.6134 144.176 79.6614 144 79.7094C143.832 79.0296 143.768 78.4458 143.808 77.822L144.208 77.75C144.552 77.686 144.872 77.63 145.192 77.55C145.944 77.3741 146.032 76.9262 145.976 76.5823C145.904 76.1345 145.544 75.9025 145 75.9585H144.968C144.56 75.9985 144.136 76.0385 143.752 76.1904C143.576 76.2624 143.408 76.3024 143.249 76.3184C142.897 76.3504 142.553 76.2544 142.177 76.0225C141.625 75.6786 141.009 75.4147 140.417 75.1667L140.201 75.0708C140.065 75.0068 139.921 74.9828 139.794 74.9988C139.57 75.0228 139.394 75.1507 139.274 75.3667C139.17 75.5746 139.122 75.8865 139.49 76.2224C139.522 76.2464 139.546 76.2784 139.594 76.3184C139.746 76.4624 139.905 76.6143 140.097 76.6863C141.833 77.3021 142.521 78.5577 142.209 80.5252C142.193 80.6291 142.201 80.7411 142.209 80.8451C142.233 81.117 142.233 81.2769 141.993 81.3569C141.921 81.3809 141.841 81.3969 141.769 81.4049C141.369 81.4449 141.073 81.189 140.897 80.973C140.609 80.6291 140.537 80.2133 140.465 79.7814C140.441 79.6374 140.417 79.4935 140.385 79.3495C140.265 78.8377 140.025 78.1659 139.282 78.2298C139.138 78.2458 138.978 78.2858 138.802 78.3578C138.642 78.4218 138.474 78.4618 138.298 78.4778C138.082 78.4938 137.858 78.4778 137.626 78.4378C137.474 78.4058 137.33 78.3978 137.21 78.4058C137.13 78.4058 137.066 78.4298 136.994 78.4538C136.986 78.3098 136.97 78.1659 136.962 78.0219C136.946 77.814 136.93 77.614 136.914 77.4061C136.882 76.9582 136.706 76.7103 136.379 76.6783C136.355 76.6783 136.323 76.6783 136.299 76.6783C135.899 76.6783 135.811 77.0622 135.747 77.3101C134.771 81.5409 136.634 87.1152 140.585 88.2509C140.633 88.2669 140.689 88.3149 140.745 88.3709L140.777 88.4029L140.761 88.4188C140.761 88.4188 140.721 88.4828 140.705 88.4908C136.81 90.6422 133.491 92.3617 129.948 93.7373C129.101 94.0652 128.357 94.2251 127.677 94.2251C126.701 94.2251 125.814 93.8972 124.958 93.2254C122.862 91.5699 120.623 90.0424 118.456 88.5548L117.784 88.0989C117.112 87.6351 116.912 87.1632 117.04 86.3315C117.584 82.8365 118.192 78.2218 118.088 73.5032C118.04 71.4558 117.944 69.3365 117.784 66.8252C117.832 66.8732 117.872 66.9212 117.912 66.9611C118.04 67.0971 118.112 67.1771 118.176 67.2731C120.751 71.1199 123.854 74.6309 126.853 78.0219L127.709 78.9816C128.149 79.4775 128.573 79.7094 129.037 79.7094C129.309 79.7094 129.597 79.6294 129.924 79.4775C130.42 79.2375 130.924 78.9816 131.42 78.7177C132.396 78.2058 133.403 77.686 134.451 77.3021C134.795 77.1741 135.131 77.0222 135.251 76.7343C135.299 76.6223 135.307 76.4943 135.275 76.3584C135.395 76.4464 135.531 76.4784 135.683 76.4624C135.899 76.4384 136.115 76.3344 136.323 76.2224L136.387 76.1904C136.762 75.9985 137.13 75.8065 137.506 75.6146C138.322 75.1907 139.17 74.7589 140.009 74.351C141.417 73.6632 142.833 73.2553 144.208 73.1193C144.288 73.1193 144.376 73.1033 144.456 73.0954C145.272 73.0394 145.856 73.1993 146.2 73.5752C146.544 73.9511 146.648 74.5509 146.52 75.3507C146.512 75.4067 146.504 75.4547 146.488 75.5266C146.432 75.8385 146.36 76.1904 146.568 76.4464C147.903 78.0779 148.039 79.9733 148.183 81.9807C148.311 83.7002 147.879 84.8039 146.695 85.7876" fill="#264964"/>
<path d="M119.024 33.499C119.599 33.331 120.135 33.1631 120.663 32.9871C121.055 32.8512 121.199 32.6912 121.159 32.4353C121.095 32.0594 120.735 32.0354 120.623 32.0354C120.599 32.0354 120.567 32.0354 120.543 32.0354C119.288 32.1554 117.952 32.3153 116.72 32.8032C116.48 32.8991 116.32 33.0511 116.264 33.235C116.2 33.443 116.272 33.6989 116.456 33.9548C117.248 35.0345 118.352 35.8343 119.719 36.3301C119.839 36.3781 119.959 36.3941 120.063 36.3941C120.303 36.3941 120.487 36.2742 120.591 36.0502C120.815 35.5784 120.519 35.2824 120.231 35.1145C120.039 35.0025 119.847 34.9066 119.647 34.8106C119.168 34.5707 118.664 34.3227 118.232 33.8749L118.136 33.7789L118.264 33.7389C118.528 33.6589 118.776 33.5869 119.016 33.515" fill="#264964"/>
<path d="M119.112 22.4782C118.912 22.2783 118.624 22.1743 118.304 22.1743C118.208 22.1743 118.112 22.1823 118.016 22.1983C117.552 22.2863 117.184 22.5582 117.056 22.9101C116.968 23.15 116.96 23.5499 117.392 24.0378H117.4L117.416 24.0538C117.648 24.1577 117.904 24.2137 118.136 24.2137C118.232 24.2137 118.32 24.2057 118.408 24.1897C119.016 24.0778 119.368 23.5899 119.352 22.8861V22.8701L119.12 22.4782H119.112Z" fill="#264964"/>
<path d="M124.222 25.5491C122.535 23.7497 121.727 21.6143 121.143 19.255C120.735 17.5915 120.911 15.848 120.335 14.2245C120.263 14.0245 120.159 13.8006 119.951 13.7286C119.567 13.6007 119.104 14.0485 119.072 14.4164C119.072 14.4884 119.08 14.5524 119.096 14.6244C119.487 16.6078 119.807 18.6072 120.151 20.5986C120.487 22.55 121.335 24.2615 122.639 25.7571C123.75 27.0367 123.766 27.5726 122.639 28.8602C121.999 29.588 121.711 30.3637 121.759 31.3235C121.839 32.955 121.847 34.5865 121.759 36.226C121.575 39.3851 120.191 40.8567 117.024 41.0086C115.225 41.0886 113.417 41.0006 111.618 40.9846C111.29 40.9846 110.946 40.9766 110.626 41.0246C110.442 41.0566 110.306 41.1526 110.226 41.2965C110.178 41.3445 110.13 41.4005 110.09 41.4645C109.762 42.0243 109.458 42.5921 109.179 43.168C108.971 43.5998 108.171 44.5916 108.379 45.0874C108.603 45.6392 109.274 45.8072 109.738 45.4313C109.93 45.2714 110.066 45.0474 110.162 44.8155C110.53 43.9517 110.906 43.144 111.37 42.3282C113.369 42.4482 115.377 42.5042 117.376 42.3442C120.783 42.0803 122.751 40.2888 123.046 37.2177C123.198 35.6902 123.294 34.1546 123.158 32.6191C123.046 31.3634 123.126 30.2518 124.07 29.1961C125.118 28.0364 125.118 26.5009 124.206 25.5332" fill="#264964"/>
<path d="M98.1258 32.2352C98.1098 32.1552 98.0858 32.0832 98.0698 32.0032C98.0538 31.9393 98.0378 31.8673 97.9978 31.8113C97.9498 31.7393 97.8538 31.6833 97.7499 31.6513C97.6939 31.6353 97.6459 31.6274 97.5979 31.6274C97.454 31.6353 97.342 31.7793 97.27 31.8913C97.158 32.0592 97.134 32.2672 97.134 32.4671C97.15 33.4748 97.15 34.4905 97.142 35.4982C97.142 36.154 97.0621 36.7938 96.5822 37.2817C96.1183 37.2337 95.6385 37.0338 95.2706 37.1697C93.2152 37.9375 92.3195 36.9298 91.4477 35.1863C90.1441 32.5871 87.8248 30.7156 85.9453 28.5323C84.5617 26.9327 83.3221 25.2612 82.9462 23.1099C82.6983 21.6783 82.7703 20.2227 82.8582 18.7911C83.0422 15.72 84.1459 13.0648 86.5931 11.0334C88.2727 9.63381 90.0161 8.39417 92.1195 7.70637C92.6314 7.53842 93.2392 7.38647 93.3672 6.73866C93.0393 6.2348 92.6394 6.36277 92.2475 6.44274C88.3206 7.2665 85.3775 9.56982 83.1622 12.7769C81.3787 15.3601 81.3067 18.3912 81.3067 21.4143C81.3067 23.7417 81.9305 25.7971 83.2901 27.6845C84.4338 29.276 85.7934 30.6756 87.097 32.1152C88.7285 33.9147 90.3041 35.7381 91.1598 38.0655C91.3837 38.6653 91.8236 38.8092 92.4474 38.7932C93.6631 38.7613 94.8467 38.2974 96.1024 38.6333C97.446 38.9932 97.8138 38.7773 98.2937 37.4416C98.5896 36.6179 98.6936 35.7381 98.6376 34.8664C98.5816 33.9707 98.3577 33.0989 98.1418 32.2352" fill="#264964"/>
<path d="M96.0304 5.78705C97.35 5.11524 98.6296 4.36346 99.9652 3.73165C101.389 3.06784 102.924 2.65197 104.484 3.08384C106.115 3.53171 107.691 4.17952 109.171 5.02727C111.674 6.47484 114.417 7.26661 117.224 7.76247C118.552 7.9944 119.631 8.40228 120.399 9.53794C120.679 9.95382 121.071 10.2657 121.583 9.92183C122.135 9.54594 121.991 9.0181 121.687 8.58622C120.943 7.53853 120.071 6.6268 118.704 6.44285C115.313 5.99498 112.066 5.09925 109.099 3.34776C108.571 3.03585 107.995 2.80392 107.419 2.60398C105.692 2.00416 104.004 1.29237 102.061 1.72424C99.2934 2.34006 97.0781 3.94759 94.7988 5.45914C94.7028 5.52312 94.6868 5.69907 94.6228 5.86702C95.1586 6.30689 95.6145 6.01098 96.0384 5.79504" fill="#264964"/>
<path d="M108.307 27.8446C107.691 25.8612 107.507 23.8218 107.315 21.7744C107.315 21.7744 107.315 21.7744 107.315 21.7664C107.267 21.1985 106.443 21.1425 106.331 21.7024C105.939 23.6218 106.243 25.5333 106.619 27.4207C106.683 27.7326 106.435 28.0445 106.107 28.0205C105.867 28.0045 105.66 27.8686 105.476 27.6606C104.884 27.0208 104.14 26.5809 103.42 26.0931C102.061 25.1734 100.717 24.7095 99.2294 25.7572C98.4617 26.293 97.8299 27.0128 97.5899 27.9326C97.422 28.5964 97.478 29.2842 97.6139 29.948C97.8219 30.9317 98.1018 31.7874 98.8456 32.5072C99.8613 33.4829 101.277 34.0348 102.636 34.3387C103.1 34.4426 103.54 34.3947 103.708 33.8828C103.884 33.363 103.556 33.067 103.108 32.8991C102.772 32.7711 102.421 32.6912 102.077 32.5872C101.237 32.3313 100.469 31.9634 99.8613 31.2996C98.7016 30.0039 98.7336 28.0125 99.9492 27.0688C101.005 26.245 102.452 26.381 103.548 27.8366C104.716 29.3961 105.899 29.748 107.627 28.9642C108.211 28.7003 108.483 28.4364 108.307 27.8606" fill="#264964"/>
<path d="M111.906 11.8812C111.25 11.7373 111.298 12.4491 111.162 12.8489C110.754 14.0966 110.162 15.2322 109.314 16.2479C108.227 17.5676 106.707 18.2714 105.292 19.1271C104.836 19.399 104.348 19.6789 104.684 20.2868C104.996 20.8626 105.548 20.7346 106.011 20.4787C107.147 19.8549 108.307 19.2471 109.298 18.3993C110.93 16.9997 112.09 15.3042 112.338 13.1449C112.282 12.649 112.466 12.0012 111.906 11.8812Z" fill="#264964"/>
<path d="M117.584 13.5448C116.096 13.3768 114.841 12.729 113.721 11.7693C113.489 11.5693 113.241 11.2254 112.889 11.4894C112.561 11.7373 112.769 12.0732 112.889 12.4251C113.889 14.0646 115.465 14.7844 117.352 15.0003C117.88 15.0643 118.448 15.1043 118.552 14.4325C118.656 13.7527 118.088 13.6007 117.576 13.5368" fill="#264964"/>
<path d="M121.503 13.081C121.599 12.6091 121.287 12.3132 120.863 12.2412C119.967 12.0973 119.28 11.6094 118.624 11.0416C118.344 10.8016 118.024 10.5537 117.68 10.8816C117.36 11.1775 117.496 11.5534 117.688 11.8653C118.368 12.921 119.32 13.5448 120.575 13.6568C121.015 13.6568 121.407 13.5528 121.495 13.089" fill="#264964"/>
<path d="M118.392 19.3989C118.336 18.9991 118.048 18.8711 117.648 18.8311C116.752 18.7431 115.521 19.3829 115.113 20.1827C114.993 20.4066 114.873 20.6466 115.089 20.8705C115.305 21.0944 115.569 20.9985 115.777 20.8625C116.416 20.4546 117.064 20.0947 117.848 20.0228C118.144 19.9988 118.36 19.7828 118.392 19.3989Z" fill="#264964"/>
<path d="M233.31 87.2192C233.11 86.7553 232.846 86.3155 232.694 85.8276C232.606 85.5237 232.59 85.2278 232.614 84.9319C232.622 84.8999 232.63 84.8679 232.646 84.8359C232.726 84.612 232.862 84.42 232.942 84.1961C233.286 83.2364 232.87 82.1407 231.926 81.7328C231.047 81.3569 229.983 81.3569 229.047 81.4689C228.048 81.5889 227.072 81.8448 226.112 82.1727C225.32 82.4526 224.537 82.7965 223.881 83.3243C223.193 83.4203 222.385 83.3643 221.841 83.6603C221.521 83.8362 221.202 83.8842 220.914 83.8362C220.25 84.1001 219.818 84.2761 219.818 84.2761L215.267 86.3395L214.54 86.5074L205.702 76.3424L205.302 75.6466C205.302 75.6466 203.575 68.4087 202.743 66.9132C201.911 65.4176 201.447 64.2899 201.647 63.7541C201.847 63.2183 202.343 63.986 202.175 62.3625C202.007 60.731 202.375 60.803 201.447 60.0032C200.52 59.2034 195.929 55.8844 195.169 55.4845C194.401 55.0846 195.505 52.6614 195.505 52.6614L196.801 49.4063C196.801 49.4063 203.079 50.334 204.774 49.7742C206.47 49.2064 207.07 48.9744 207.598 48.0467C208.125 47.119 208.461 46.5511 208.557 44.6557C208.653 42.7603 208.293 41.3367 208.893 40.105C209.493 38.8734 209.989 38.6095 210.253 37.5458C210.517 36.4821 210.749 36.0182 210.349 35.2185C209.949 34.4187 208.157 32.4273 207.957 30.5638C207.758 28.7004 207.39 27.3088 207.126 25.4453C206.862 23.5819 206.558 22.5182 205.334 20.7267C204.103 18.9353 203.543 17.6396 203.543 17.6396C203.543 17.6396 202.015 16.248 199.856 15.1844C197.696 14.1207 194.809 12.993 191.746 13.089C188.691 13.1849 185.836 13.153 183.637 13.7848C181.445 14.4166 178.654 16.312 178.79 16.312C178.79 16.312 178.462 16.432 177.974 16.6559C177.678 16.7039 177.382 16.7999 177.103 16.9438C175.287 17.8636 173.72 19.4311 172.456 21.0067C170.912 22.9261 170.121 24.9575 169.825 27.3968C169.705 28.3965 169.649 29.4202 169.673 30.4359C169.577 31.9234 169.689 33.419 170.009 34.8666C169.985 34.9386 169.961 35.0105 169.929 35.0825C169.817 35.3944 169.713 35.6823 169.609 35.9703C166.754 36.5541 163.794 38.4495 162.435 40.9928C161.675 42.4164 161.155 44.0079 160.587 45.5115C160.028 46.999 159.532 48.5026 159.132 50.0381C158.372 51.0218 157.412 51.7576 156.229 52.2775C155.237 52.7173 155.893 53.989 156.717 54.0929C158.844 54.3569 161.067 54.2769 163.043 53.4691C164.57 53.2132 165.946 52.4374 167.137 51.3737C167.753 51.0138 168.329 50.582 168.857 50.1021C168.857 50.1021 168.873 50.1101 168.881 50.1181C171.48 47.8548 172.032 44.5197 172.744 41.2887C172.84 40.8408 173.336 40.7369 173.696 40.9048C175.783 41.8405 179.102 44.3678 178.414 47.071C178.046 48.5186 177.055 48.8305 175.855 49.3983C175.503 49.5663 175.159 49.7662 174.831 49.9821C174.791 50.1021 174.703 50.2141 174.567 50.302C173.632 50.9179 172.816 51.6776 172.088 52.5334C171.992 52.6454 171.888 52.7093 171.776 52.7333C171.304 53.2852 170.608 54.1969 170.584 54.8527C170.552 55.8524 171.184 57.5399 171.184 57.5399C171.184 57.5399 166.53 61.0909 163.411 62.9543C160.291 64.8178 154.309 68.4327 151.414 70.992C148.527 73.5512 143.576 77.566 142.449 79.4615C141.321 81.3569 141.017 82.0207 141.553 83.8762C142.081 85.7396 147.495 96.0646 149.127 98.5279C150.758 100.983 153.645 105.838 154.245 106.398C154.845 106.965 155.973 107.029 155.973 107.029C155.973 107.029 156.109 108.293 156.773 110.052C157.436 111.812 159.284 115.147 160.547 116.611C161.811 118.074 163.698 118.234 163.698 118.234L162.787 123.609L164.89 124.736C164.89 124.736 164.946 128.559 166.538 131.678C168.129 134.797 168.329 136.165 168.329 136.165L162.515 162.405L161.219 166.124C161.219 166.124 151.654 184.663 148.799 188.381C145.944 192.1 140.225 201.17 140.329 201.042C140.433 200.914 140.593 202.241 140.593 202.241C140.593 202.241 136.075 206.36 135.579 207.992C135.083 209.623 134.915 209.223 135.675 210.415C136.442 211.615 141.753 215.23 141.753 215.23C141.753 215.23 148.063 218.549 148.927 219.212C149.791 219.876 155.773 222.899 156.837 223.163C157.9 223.427 159.132 224.059 159.86 223.299C160.587 222.531 161.251 222.699 160.627 221.372C159.996 220.044 156.605 217.421 155.413 215.526C154.213 213.63 153.158 210.079 153.158 210.079L154.853 209.815L168.673 192.508L179.406 178.224L185.02 162.677C185.02 162.677 188.275 169.019 189.339 171.378C190.403 173.738 192.226 177.289 192.762 178.752C193.298 180.216 194.154 182.775 194.321 185.566C194.489 188.357 193.954 192.34 193.986 194.604C194.018 196.859 193.786 214.47 193.786 214.47L194.465 215.653C194.465 215.653 193.058 219.492 193.026 220.516C192.994 221.548 192.458 222.444 193.162 223.403C193.858 224.363 195.225 224.363 197.217 224.531C199.208 224.699 217.147 224.731 218.114 224.531C219.074 224.331 220.242 224.299 220.306 223.435C220.37 222.571 220.57 221.644 218.314 220.38C216.059 219.116 211.005 217.493 210.109 216.861C209.213 216.229 208.981 215.038 208.981 215.038L210.541 198.459C210.541 198.459 211.836 188.989 212.1 185.734C212.364 182.479 213.1 176.833 211.141 170.851C209.181 164.868 201.008 140.755 201.071 140.851C201.135 140.947 197.984 132.414 197.984 132.414L200.376 124.672L201.407 121.385C201.407 121.385 202.703 117.698 201.775 112.684C200.848 107.669 200.68 103.814 201.048 100.991C201.415 98.168 202.775 95.1449 202.775 95.1449L207.03 98.3359C207.03 98.3359 210.653 101.263 211.548 101.623C212.444 101.991 213.644 102.023 214.971 101.623C216.299 101.223 227.56 95.2888 227.56 95.2888C227.56 95.2888 229.519 95.4808 231.183 94.4171C231.519 94.2012 231.798 93.9932 232.038 93.7853C232.742 93.2654 233.27 92.5216 233.47 91.6659C233.59 91.1461 233.59 90.6182 233.494 90.0984C233.478 90.0264 233.462 89.9464 233.446 89.8664C233.582 89.5705 233.678 89.2586 233.71 88.9227C233.758 88.3309 233.582 87.763 233.35 87.2272M166.802 88.2189C166.586 89.2666 166.41 90.3223 166.178 91.37C165.978 92.3057 166.01 93.2414 165.89 94.1852C165.826 94.689 165.242 95.0569 164.826 94.625C164.25 94.0332 163.858 93.3214 163.491 92.5936C163.099 91.8259 162.699 91.0661 162.307 90.3063C161.467 88.6668 160.635 87.0273 159.788 85.3957C159.62 85.0758 159.748 84.7799 159.964 84.604C159.98 84.572 159.996 84.54 160.012 84.516C162.619 83.6203 165.21 82.6765 167.785 81.6688C167.865 81.7728 167.913 81.9008 167.905 82.0287C167.793 84.1241 167.217 86.1635 166.802 88.2109" fill="white"/>
<path d="M165.522 125.32C164.882 125.144 164.77 125.576 164.786 126.24C164.81 127.231 165.154 127.855 165.754 129.135C166.65 131.038 167.705 134.357 168.089 135.261C168.169 135.445 168.353 136.173 168.313 136.365L165.234 151.176L160.651 167.052C160.635 167.132 160.603 167.212 160.563 167.284C159.988 168.395 155.301 177.441 154.573 178.776C153.789 180.2 147.159 190.173 145.696 192.516C144.512 194.412 141.265 199.274 140.329 201.05C140.121 201.442 140.609 202.137 140.937 202.441C142.345 203.737 146.32 206.816 147.455 207.472C148.655 208.16 149.183 208.208 150.094 208.599C150.262 208.671 151.742 209.615 151.926 209.583L152.582 209.783C152.838 209.743 154.917 205.992 155.069 205.784L176.551 178.184C176.615 178.096 177.55 177.201 177.582 177.105L182.165 163.469C182.437 162.629 185.164 163.013 185.548 163.813C187.212 167.236 191.658 176.169 192.01 177.057C192.498 178.28 193.954 184.039 194.202 185.918C194.473 188.014 194.306 190.237 194.306 192.348C194.306 195.899 194.274 199.442 194.25 202.993C194.234 204.817 194.338 206.64 194.226 208.464C194.114 210.255 193.658 211.967 193.77 213.782C193.794 214.11 193.826 214.454 194.01 214.726C194.537 215.525 195.681 215.326 196.489 215.318C197.345 215.31 198.192 215.302 199.048 215.294C200.808 215.278 202.567 215.254 204.327 215.238C204.79 215.238 205.262 215.23 205.726 215.222C206.23 215.222 206.654 214.83 206.702 214.326L209.309 184.79C209.309 184.79 210.093 176.449 209.261 173.746C208.453 171.123 204.039 155.703 203.807 154.903C203.807 154.879 203.791 154.863 203.783 154.839L196.089 133.669C196.025 133.494 196.009 133.31 196.049 133.126C196.377 131.622 197.92 124.504 197.888 124.648C197.864 124.784 197.065 124.944 196.801 124.992C196.745 125 196.689 125.016 196.633 125.04C196.153 125.216 193.634 126.136 191.346 126.64C188.811 127.199 182.029 127.303 179.982 127.399C177.934 127.503 171.88 126.84 169.881 126.432C168.617 126.176 166.738 125.672 165.514 125.344" fill="#F4F0BB"/>
<path d="M177.359 17.7037C177.311 17.7197 177.271 17.7357 177.223 17.7436C176.863 17.8316 175.071 18.3595 173.416 20.1509C171.56 22.1584 170.449 23.6219 169.993 25.2534C169.537 26.885 169.041 29.2683 169.041 30.8118C169.041 32.3554 169.161 34.6587 169.369 35.1625C169.577 35.6664 169.825 36.0823 169.161 36.3302C168.617 36.5381 166.954 37.2259 166.386 37.4659C166.258 37.5218 166.138 37.5938 166.034 37.6818L162.963 40.337C162.859 40.425 162.771 40.529 162.699 40.6489C162.291 41.3207 160.883 43.72 160.707 44.8637C160.499 46.1993 160.787 47.079 159.844 48.7905C158.892 50.502 158.652 51.1738 157.532 51.8856C156.421 52.5974 155.469 52.5574 155.925 53.1413C156.381 53.7251 157.036 54.189 158.276 54.2289C159.516 54.2689 162.235 53.0613 163.387 52.8054C164.426 52.5814 168.289 49.5903 169.033 49.0145C169.121 48.9505 169.193 48.8705 169.257 48.7905C169.697 48.2227 171.92 46.1513 172.176 44.3998C172.24 43.944 172.488 42.9443 172.552 42.5524C172.728 41.5527 173.128 40.433 173.888 41.1048L176.607 43.736C176.767 43.88 177.311 44.4238 177.518 44.4718C177.886 44.5518 178.31 45.0236 178.422 44.9996C178.59 44.9597 180.606 43.4081 181.269 42.4484C181.677 41.8566 182.485 40.6329 183.037 39.7932C183.357 39.3053 183.309 38.6735 182.933 38.2336C182.565 37.7938 182.181 37.1859 182.181 36.5141C182.181 35.2185 182.837 34.0908 183.581 33.7549C184.324 33.419 185.148 33.627 186.012 34.0029C186.452 34.1948 187.316 34.6587 188.051 35.0666C188.715 35.4345 189.547 35.1625 189.859 34.4747C190.043 34.0669 190.275 33.627 190.547 33.2511C191.29 32.2034 191.042 31.9955 192.77 30.116C194.497 28.2366 195.081 26.4771 195.529 24.9735C195.889 23.7899 196.193 22.4543 196.305 21.9344C196.345 21.7665 196.409 21.6145 196.505 21.4706C196.721 21.1586 197.137 20.7028 197.425 21.0787C197.84 21.6225 198.456 22.4143 198.952 23.214C199.448 24.0058 201.887 24.8536 202.703 24.8456C202.711 24.8456 202.719 24.8456 202.727 24.8456C203.671 24.8216 204.247 23.7899 203.815 22.9501C203.319 21.9984 202.631 20.7108 202.087 19.871C201.136 18.4075 200.648 18.3275 198.544 17.1118C196.441 15.8962 192.69 15.2324 190.547 14.8565C188.403 14.4806 186.716 14.0167 184.117 15.1044C181.717 16.1041 177.918 17.5037 177.35 17.7117" fill="#C3DCD9"/>
<path d="M219.618 220.396C218.45 219.54 217.107 218.972 215.955 218.525C215.547 218.365 215.139 218.213 214.724 218.061C213.036 217.437 211.309 216.797 209.773 215.789C209.861 215.653 209.925 215.477 209.965 215.238C210.085 214.526 210.213 213.798 210.277 213.062C210.373 211.999 210.461 210.919 210.549 209.855V209.759C210.701 207.984 210.853 206.152 211.053 204.337C211.229 202.697 211.444 200.986 211.628 199.474V199.442C212.084 195.803 212.548 192.036 212.732 188.269C212.9 184.766 213.092 180.8 212.996 176.929C212.948 175.041 212.892 172.898 212.188 170.891C211.189 168.043 210.325 165.108 209.485 162.261C208.629 159.342 207.742 156.327 206.702 153.408C206.318 152.328 205.942 151.24 205.558 150.161L205.518 150.041C203.919 145.45 202.263 140.707 200.184 136.229C199.928 135.677 199.704 135.093 199.496 134.533C199.328 134.085 199.136 133.582 198.928 133.102C198.864 132.958 198.8 132.814 198.736 132.67C198.768 132.67 198.792 132.67 198.824 132.67C199.12 132.67 199.496 132.526 199.632 131.846C199.664 131.678 199.688 131.51 199.72 131.318C199.744 131.158 199.768 130.998 199.8 130.838C199.984 129.943 200.168 129.055 200.36 128.159C200.48 127.599 200.608 127.039 200.728 126.48C200.832 125.992 200.968 125.504 201.016 125.008C201.024 124.912 201.016 124.808 200.976 124.72C200.952 124.656 200.912 124.608 200.856 124.576C200.88 124.424 200.856 124.256 200.792 124.088C200.672 123.808 200.464 123.648 200.192 123.648C200.064 123.648 199.936 123.68 199.8 123.752C197.441 124.912 194.865 125.48 192.362 126.024L192.01 126.104C189.963 126.552 187.827 126.784 185.636 126.784C184.948 126.784 184.26 126.784 183.565 126.8C182.805 126.8 182.045 126.816 181.293 126.816C178.662 126.816 175.839 126.736 172.984 126.136C172.368 126.008 171.744 125.888 171.112 125.76C168.921 125.336 166.658 124.896 164.53 124.064L164.49 124.048C164.346 123.992 164.194 123.928 164.042 123.928C163.882 123.928 163.746 124 163.643 124.136C163.339 124.544 163.69 124.872 163.898 125.064C164.026 125.184 164.17 125.296 164.314 125.392C164.306 125.488 164.306 125.592 164.314 125.712C164.434 126.935 164.57 128.135 164.938 129.279C165.65 131.494 166.554 133.709 167.665 135.957C167.585 136.109 167.545 136.285 167.513 136.437C167.497 136.525 167.473 136.629 167.449 136.709C167.369 136.925 167.321 137.156 167.289 137.364C166.522 141.411 165.562 145.482 164.626 149.441C164.146 151.48 163.643 153.584 163.179 155.671C162.027 160.83 160.587 166.284 157.9 171.274C154.125 178.288 150.662 183.911 147.015 188.981C144.776 192.092 142.849 195.475 140.985 198.754L140.953 198.818C140.561 199.506 140.169 200.186 139.778 200.874C139.466 201.418 139.482 201.873 139.826 202.329C139.546 202.457 139.33 202.585 139.162 202.729C137.282 204.361 135.995 205.856 135.091 207.448C134.771 208.016 134.115 209.479 135.075 210.735C135.739 211.607 136.57 212.59 137.65 213.31C139.338 214.43 141.217 215.637 143.56 217.101C146.248 218.781 149.095 220.292 151.854 221.756C151.854 221.756 152.838 222.283 153.198 222.475C155.117 223.499 156.741 224.075 158.324 224.275C158.468 224.291 158.604 224.299 158.748 224.299C159.5 224.299 160.18 224.035 160.667 223.547C161.107 223.107 161.331 222.531 161.331 221.892C161.339 221.468 161.155 220.924 160.843 220.428C160.323 219.62 159.772 218.956 159.156 218.381C156.597 215.997 154.989 213.686 154.101 211.111C154.077 211.031 154.053 210.935 154.029 210.831C154.237 210.799 154.429 210.743 154.637 210.679C155.437 210.423 155.805 209.839 156.157 209.263C156.261 209.095 156.373 208.919 156.493 208.751C157.588 207.272 158.78 205.824 159.948 204.409C161.011 203.121 162.107 201.794 163.131 200.434C165.354 197.467 167.737 194.548 170.041 191.724C172.968 188.142 175.991 184.431 178.726 180.584C178.902 180.336 179.086 180.088 179.286 179.824C180.03 178.824 180.797 177.793 181.237 176.505C182.197 173.698 183.061 170.811 183.893 168.019L183.917 167.955C184.22 166.932 184.524 165.908 184.836 164.892C184.876 164.756 184.908 164.628 184.94 164.492C184.956 164.516 184.964 164.54 184.98 164.564C185.34 165.228 185.7 165.892 186.06 166.556L186.14 166.7C188.467 170.979 190.875 175.409 192.266 180.256C192.362 180.6 192.466 180.944 192.57 181.288V181.312C193.218 183.479 193.89 185.718 193.738 188.213V188.293C193.45 193.124 193.146 198.123 193.258 203.073C193.338 206.712 193.386 210.615 193.178 214.502C193.146 215.07 193.354 215.469 193.794 215.709C193.794 215.725 193.786 215.749 193.778 215.765C193.706 216.005 193.634 216.245 193.522 216.461C192.626 218.229 192.21 220.196 192.25 222.475C192.274 223.971 192.698 224.523 194.13 224.971C194.609 225.115 195.089 225.139 195.497 225.139H206.686V225.259H212.516C214.084 225.259 215.643 225.259 217.211 225.259H217.843C218.546 225.259 219.298 225.235 220.05 224.875C220.946 224.451 221.386 224.051 221.29 223.075C221.194 222.012 220.626 221.1 219.61 220.356M156.309 217.837C156.677 218.261 157.076 218.661 157.468 219.044C158.06 219.636 158.676 220.244 159.156 220.94L159.244 221.068C159.572 221.532 159.884 221.98 159.564 222.411C159.42 222.603 159.212 222.691 158.916 222.691C158.644 222.691 158.34 222.611 158.076 222.539C156.637 222.14 155.277 221.596 154.029 220.924L152.814 220.268C149.311 218.373 145.68 216.421 142.289 214.19C141.745 213.838 141.177 213.494 140.665 213.182C139.218 212.318 137.73 211.415 136.57 210.111C135.963 209.431 135.915 209.015 136.355 208.352C137.322 206.896 138.554 205.44 140.105 203.897C140.265 203.737 140.449 203.553 140.617 203.337C140.657 203.289 140.681 203.241 140.705 203.193C142.409 204.705 144.312 205.952 146.416 207.288C148.631 208.695 150.566 209.799 152.638 210.583C152.622 210.831 152.702 211.111 152.758 211.319C152.782 211.399 152.806 211.487 152.822 211.559C153.406 214.214 154.989 216.309 156.309 217.837ZM182.757 166.084L182.741 166.14C181.733 169.347 180.685 172.666 179.526 175.873C179.478 176.009 179.43 176.153 179.374 176.289V176.321C179.086 177.121 178.798 177.937 178.254 178.56C177.366 179.568 176.543 180.664 175.735 181.727C175.047 182.639 174.343 183.583 173.592 184.463C170.225 188.437 166.93 192.588 163.746 196.611C161.523 199.418 159.22 202.329 156.884 205.177C155.909 206.368 154.885 207.664 154.045 209.175C149.279 207.24 145.168 204.457 141.441 201.722C142.137 200.81 142.633 199.81 143.113 198.85C143.384 198.299 143.664 197.739 143.976 197.203C146.064 193.644 148.431 190.205 150.726 186.878L150.75 186.838C151.35 185.974 151.95 185.102 152.542 184.231C154.781 180.944 156.661 177.377 158.484 173.93L158.516 173.866C159.348 172.282 160.212 170.643 161.099 169.059C162.715 166.172 163.499 162.733 164.138 159.974C164.994 156.247 165.826 152.488 166.626 148.849C167.01 147.114 167.393 145.378 167.777 143.635C168.113 142.123 168.337 140.579 168.553 139.076V139.044C168.609 138.692 168.665 138.324 168.713 137.964C169.713 139.812 170.848 141.675 172.136 143.587C172.808 144.586 173.496 145.594 174.159 146.57L174.175 146.594C177.031 150.768 179.982 155.087 182.325 159.742C182.813 160.702 183.341 161.653 183.861 162.573C183.837 162.661 183.813 162.741 183.789 162.829C183.445 163.909 183.101 164.996 182.757 166.084ZM191.266 172.674C189.979 170.043 188.579 167.444 187.22 164.932C186.332 163.293 185.42 161.597 184.54 159.91C181.661 154.359 178.15 149.177 174.743 144.17L174.503 143.811C170.744 138.268 167.257 132.742 165.818 126.112C166.026 126.176 166.234 126.232 166.442 126.288C170.065 127.255 174.863 128.367 179.846 128.367C180.606 128.367 181.349 128.343 182.069 128.295C182.917 128.343 183.765 128.367 184.604 128.367C188.923 128.367 193.138 127.727 197.145 126.48C197.792 126.28 198.592 126.008 199.416 125.664C199.28 126.104 199.168 126.496 199.064 126.863C198.688 128.215 198.304 129.655 198.048 131.198C197.912 130.91 197.768 130.622 197.633 130.342L197.417 129.903C197.289 129.631 197.097 129.327 196.761 129.327C196.689 129.327 196.609 129.343 196.529 129.375C196.041 129.583 196.137 130.055 196.209 130.374L196.225 130.462C196.249 130.582 196.297 130.702 196.329 130.79L196.345 130.838C196.577 131.438 196.801 132.046 197.041 132.678C197.537 134.013 198.048 135.397 198.64 136.709C200.304 140.444 201.671 144.378 202.991 148.185L203.023 148.289C203.439 149.489 203.871 150.728 204.303 151.944C204.503 152.504 204.718 153.064 204.926 153.624C205.366 154.775 205.822 155.959 206.15 157.183C206.342 157.886 206.534 158.59 206.726 159.302V159.334C207.43 161.909 208.141 164.572 209.021 167.148C210.269 170.787 211.372 174.37 211.245 178.272C211.213 179.32 211.189 180.384 211.165 181.415V181.527C211.093 184.695 211.013 187.966 210.685 191.157C210.309 194.82 209.933 198.402 209.421 202.041C209.141 204.041 208.981 206.096 208.821 208.088V208.16C208.733 209.191 208.653 210.263 208.549 211.327C208.533 211.511 208.517 211.703 208.501 211.887V211.951C208.437 212.71 208.373 213.494 208.165 214.27H195.033C194.969 214.158 194.977 214.046 194.985 213.91C194.985 213.862 194.985 213.822 194.985 213.782C194.969 204.881 194.985 196.171 195.337 187.398C195.393 185.958 195.257 184.575 194.905 183.039C194.074 179.44 192.85 175.953 191.25 172.682M219.49 223.571C219.426 223.643 219.29 223.683 219.074 223.683C216.195 223.651 213.212 223.651 210.581 223.643H207.43C206.446 223.643 205.454 223.643 204.471 223.643H204.375C203.359 223.643 202.343 223.659 201.319 223.659C198.816 223.659 196.905 223.619 195.121 223.539C194.026 223.491 193.93 223.395 193.914 222.355C193.89 220.652 194.178 219.012 194.785 217.485C194.961 217.037 195.129 216.565 195.129 216.061C195.361 216.077 195.593 216.077 195.817 216.085H196.017C196.913 216.109 197.872 216.117 199.016 216.117C199.808 216.117 200.6 216.117 201.383 216.109H201.495C202.319 216.109 203.143 216.101 203.959 216.101C205.454 216.101 206.694 216.117 207.814 216.149L207.878 216.205C208.301 216.557 208.733 216.925 209.181 217.277C210.477 218.301 212.012 218.868 213.5 219.42H213.524C214.068 219.628 214.628 219.836 215.163 220.068H215.187C216.307 220.548 217.459 221.036 218.474 221.724C219.058 222.116 219.394 222.571 219.498 223.115C219.546 223.363 219.538 223.499 219.474 223.579" fill="#264964"/>
<path d="M181.109 76.6542C181.461 76.4943 181.869 76.3183 181.997 75.9664C182.069 75.7665 182.045 75.5425 181.917 75.2866C181.757 74.9747 181.549 74.8228 181.269 74.8228C180.989 74.8228 180.718 74.9747 180.454 75.1187C180.374 75.1667 180.286 75.2066 180.214 75.2466C178.95 75.8385 177.63 76.4143 176.295 76.9581C171.464 78.9016 166.314 80.9889 161.123 83.1883C159.668 83.8041 158.964 84.124 158.756 84.6759C158.548 85.2357 158.892 85.9555 159.588 87.3871L159.628 87.459C160.659 89.5704 161.819 91.6578 162.939 93.6652L162.955 93.6892C164.146 95.8246 165.378 98.0319 166.45 100.271C166.666 100.719 166.97 101.119 167.257 101.511L167.321 101.599C167.545 101.895 167.817 102.055 168.113 102.055C168.273 102.055 168.433 102.007 168.593 101.911C168.849 101.751 169.025 101.519 169.073 101.263C169.121 101.015 169.049 100.759 168.881 100.535C168.217 99.6635 167.753 98.6637 167.305 97.696C167.066 97.1762 166.85 96.7203 166.618 96.2725C166.57 96.0565 166.554 95.8166 166.578 95.5367C166.834 92.4576 167.297 89.3385 167.737 86.3314V86.2674C167.913 85.1237 168.105 83.8361 168.281 82.5645C168.321 82.2846 168.401 82.0766 168.521 81.9167C169.177 81.6527 169.833 81.3808 170.489 81.1089C171.56 80.669 172.64 80.2372 173.688 79.8213C176.079 78.8776 178.542 77.9019 180.893 76.7422C180.965 76.7102 181.037 76.6782 181.125 76.6382M166.522 84.26V84.292C165.978 87.3951 165.418 90.6101 165.154 93.7932C164.09 91.9617 163.075 90.1383 161.995 88.2108L161.931 88.0909C161.395 87.1311 160.851 86.1554 160.3 85.1877C161.299 84.7878 162.283 84.3959 163.267 84.0121L163.387 83.9641C164.514 83.5162 165.618 83.0843 166.706 82.6445L166.81 82.6285C166.714 83.1723 166.626 83.7161 166.53 84.26" fill="#264964"/>
<path d="M182.141 115.027C182.301 115.027 182.485 114.979 182.693 114.883C183.005 114.739 183.309 114.571 183.597 114.387C185.508 113.164 187.412 111.94 189.315 110.716L191.266 109.461C191.57 109.269 191.866 109.037 191.898 108.525C191.85 108.037 191.578 107.749 191.146 107.749C191.043 107.749 190.939 107.765 190.827 107.797C190.395 107.917 189.971 108.125 189.643 108.381C188.651 109.133 187.572 109.797 186.508 110.436C185.86 110.828 185.18 111.244 184.54 111.668C183.701 112.228 182.877 112.836 182.069 113.436L181.917 113.548C181.733 113.684 181.157 114.107 181.573 114.707C181.717 114.915 181.909 115.019 182.149 115.019" fill="#264964"/>
<path d="M197.712 62.4985C197.912 62.6025 198.12 62.6825 198.288 62.7464C198.352 62.7704 198.416 62.7944 198.488 62.8184C198.536 62.8264 198.584 62.8344 198.632 62.8424C198.768 62.8664 198.872 62.8744 198.968 62.8744C199.32 62.8744 199.544 62.7304 199.656 62.4345C199.872 61.8747 199.36 61.5788 199.112 61.4428C199.024 61.3948 198.936 61.3548 198.84 61.3149C198.792 61.2909 198.736 61.2669 198.688 61.2429C197.656 60.739 196.553 60.3551 195.489 59.9872C194.217 59.5474 192.906 59.0915 191.706 58.4197C191.618 58.3717 191.498 58.3317 191.37 58.3077C191.322 58.2997 191.274 58.2917 191.226 58.2917C191.202 58.2917 191.178 58.2917 191.154 58.2917C190.898 58.2917 190.699 58.4117 190.587 58.6356C190.499 58.8036 190.459 59.0595 190.771 59.3394C190.882 59.4434 191.018 59.5314 191.146 59.6194C191.202 59.6513 191.25 59.6913 191.298 59.7233C192.442 60.5311 193.762 60.987 195.033 61.4268C195.929 61.7387 196.857 62.0586 197.712 62.4985Z" fill="#264964"/>
<path d="M214.06 87.931C213.852 87.931 213.652 88.051 213.452 88.2909C212.012 90.0344 211.125 91.7939 210.813 93.5454C210.813 94.1452 210.797 94.769 211.508 94.817C211.532 94.817 211.556 94.817 211.572 94.817C212.108 94.817 212.268 94.3771 212.348 93.9373C212.364 93.8573 212.38 93.7693 212.396 93.6813V93.6414C212.46 93.3214 212.516 92.9935 212.628 92.6976C213.092 91.418 213.764 90.2184 214.42 89.0507L214.452 88.9947C214.596 88.7308 214.819 88.3309 214.404 88.035C214.292 87.955 214.18 87.915 214.06 87.915" fill="#264964"/>
<path d="M146.919 95.9446C147.887 97.5041 148.887 99.1197 149.783 100.759C150.262 101.631 150.814 102.479 151.358 103.31C152.038 104.35 152.75 105.43 153.302 106.573C153.509 107.013 153.781 107.229 154.109 107.229C154.229 107.229 154.349 107.197 154.485 107.141C154.965 106.925 155.077 106.509 154.829 105.87C154.669 105.462 154.469 104.982 154.205 104.55L153.845 103.958C151.998 100.903 150.078 97.7441 148.159 94.649C146.168 91.4339 143.912 87.795 142.625 83.7802C141.889 81.4848 142.489 79.5014 144.368 78.0538C144.76 77.7499 145.144 77.414 145.512 77.0941C145.744 76.8942 145.968 76.6942 146.2 76.5023L147.479 75.4306C151.078 72.4235 154.797 69.3124 158.804 66.6812C159.676 66.1133 160.555 65.5535 161.411 65.0097C163.531 63.6661 165.73 62.2825 167.745 60.6909C170.84 58.2437 174.607 57.036 177.886 56.1723C178.39 56.0443 178.902 55.9723 179.414 55.9723C181.061 55.9723 182.573 56.6201 184.34 57.5798C184.58 57.7078 184.836 57.8358 185.068 57.8358C185.268 57.8358 185.428 57.7398 185.564 57.5638C185.7 57.3799 185.748 57.204 185.716 57.028C185.668 56.7881 185.468 56.5721 185.108 56.3562C183.557 55.4365 181.701 54.5008 179.63 54.5008C179.214 54.5008 178.79 54.5407 178.382 54.6127C175.863 55.0846 173.632 55.7644 171.544 56.6841H171.528C171.36 55.8284 171.256 54.6847 171.648 54.0689C173.104 51.7895 175.183 50.214 177.998 49.2543C178.278 49.1583 178.59 49.1263 178.91 49.0943C179.054 49.0783 179.198 49.0623 179.31 49.0464C179.478 49.0703 179.654 49.0943 179.822 49.1103C180.182 49.1583 180.526 49.1983 180.861 49.2863C182.757 49.7661 184.492 50.7179 186.164 51.6296C186.708 51.9255 187.276 52.2374 187.843 52.5253C189.427 53.3331 190.994 54.2288 192.514 55.1006C193.538 55.6844 194.601 56.2922 195.657 56.8681C196.905 57.5479 198.096 58.3636 199.256 59.1634C199.648 59.4353 200.048 59.7072 200.44 59.9711C201.503 60.6829 201.855 61.6586 201.447 62.8023C201.431 62.8583 201.407 62.9063 201.383 62.9783C201.271 63.2742 201.151 63.5701 201.279 63.834C201.351 63.986 201.495 64.0979 201.727 64.1779C201.823 64.2099 201.919 64.2259 201.999 64.2259C202.487 64.2259 202.711 63.746 202.887 63.3542L202.903 63.3142C203.023 63.0582 203.087 62.7543 203.079 62.4664C203.055 60.8509 202.455 59.5793 201.287 58.6835C200.072 57.7478 198.968 57.012 197.904 56.4202C196.721 55.7644 195.521 55.0846 194.369 54.4208L194.337 54.3968C190.882 52.4294 187.308 50.398 183.605 48.7344C182.141 48.0786 180.741 47.7507 179.43 47.7507C178.614 47.7507 177.822 47.8787 177.087 48.1426C173.823 49.2863 171.472 51.3657 170.097 54.3328C169.753 55.0686 169.841 56.4282 170.145 57.2919C170.145 57.3159 170.161 57.3319 170.169 57.3479C168.921 57.9957 167.737 58.7395 166.642 59.5713C165.034 60.7949 163.267 62.0105 161.227 63.3062C160.691 63.6501 160.124 64.002 159.612 64.3059L159.58 64.3299C157.988 65.3056 156.349 66.3213 154.869 67.5129C153.909 68.2887 152.926 69.0725 151.966 69.8402L151.934 69.8642C149.015 72.1916 146 74.5988 143.217 77.1901C141.689 78.6057 140.929 80.3652 140.801 82.6845C141.081 84.5239 141.833 86.4194 142.537 88.0349C143.744 90.8021 145.36 93.4013 146.919 95.9286" fill="#264964"/>
<path d="M156.733 107.501C157.116 107.349 157.492 107.189 157.876 107.021C158.172 106.894 158.46 106.774 158.756 106.654C159.58 106.31 160.412 105.974 161.235 105.638C162.827 104.982 164.474 104.31 166.09 103.638L166.178 103.598C166.634 103.415 167.154 103.199 167.234 102.495V102.471C167.098 101.991 166.834 101.759 166.434 101.759C166.178 101.759 165.898 101.863 165.69 101.951C164.218 102.559 162.747 103.183 161.267 103.806L161.171 103.846C160.3 104.214 159.436 104.582 158.564 104.942L158.508 104.966C157.668 105.318 156.797 105.686 156.045 106.262L155.989 106.31C155.725 106.51 155.373 106.782 155.597 107.237C155.725 107.501 155.933 107.637 156.213 107.637C156.365 107.637 156.533 107.597 156.733 107.517" fill="#264964"/>
<path d="M234.39 89.1946C234.75 87.7311 234.526 86.4114 233.71 85.2838C233.47 84.9559 233.414 84.628 233.51 84.1961C233.734 83.2604 233.582 82.3726 233.094 81.7088C232.606 81.053 231.822 80.6531 230.871 80.5892C230.639 80.5732 230.407 80.5652 230.175 80.5652C227.416 80.5652 224.929 81.6848 222.657 82.8845C222.441 83.0044 221.857 83.3084 222.121 83.8522C222.233 84.0841 222.409 84.2041 222.641 84.2041C222.833 84.2041 223.025 84.1241 223.217 84.0521L223.273 84.0281C223.609 83.8922 223.937 83.7642 224.273 83.6283C225.008 83.3324 225.76 83.0284 226.52 82.7485C227.776 82.2767 229.015 82.0367 230.207 82.0367C230.279 82.0367 230.351 82.0367 230.423 82.0367C231.119 82.0527 231.599 82.2367 231.854 82.5806C232.11 82.9245 232.158 83.4363 231.982 84.1081C231.974 84.1481 231.958 84.1961 231.942 84.2521C231.862 84.516 231.774 84.8199 231.942 85.0598C232.95 86.5634 232.918 88.1869 232.878 89.9064C232.846 91.378 232.39 92.2817 231.311 93.0255C231.111 93.1615 230.871 93.2334 230.615 93.2334C229.975 93.2334 229.351 92.8096 229.103 92.2177C229.967 92.1937 230.783 92.0338 231.463 91.8738H231.511C231.83 91.7859 232.198 91.7059 232.366 91.442C232.462 91.29 232.478 91.1141 232.422 90.8821C232.334 90.5302 232.102 90.3543 231.726 90.3543C231.567 90.3543 231.415 90.3783 231.255 90.4103L231.175 90.4263C230.743 90.4982 230.303 90.5862 229.879 90.6742C229.607 90.7302 229.335 90.7862 229.063 90.8341C229.007 90.8421 228.959 90.8501 228.911 90.8501C228.743 90.8501 228.639 90.7862 228.567 90.6422C228.455 90.4263 228.439 90.3223 228.503 90.2903C228.767 90.1384 228.951 89.9064 229.143 89.6745C229.439 89.3146 229.711 88.9787 230.239 88.9787C230.263 88.9787 230.287 88.9787 230.311 88.9787C230.335 88.9787 230.359 88.9787 230.383 88.9787C230.623 88.9787 230.855 88.9147 231.087 88.8587C231.191 88.8347 231.287 88.8107 231.391 88.7867C231.926 88.6748 232.182 88.4029 232.142 87.979C232.102 87.5791 231.83 87.3472 231.383 87.3472C231.335 87.3472 231.279 87.3472 231.231 87.3552C230.823 87.4032 230.423 87.4751 229.999 87.5471H229.975C229.831 87.5791 229.687 87.6031 229.535 87.6271C229.447 87.0513 229.447 86.5554 229.519 86.0436L229.847 86.0116C230.143 85.9876 230.423 85.9636 230.711 85.9236C231.383 85.8356 231.495 85.4437 231.479 85.1398C231.447 84.7399 231.159 84.508 230.671 84.508H230.639C230.287 84.508 229.919 84.508 229.575 84.604C229.415 84.644 229.279 84.668 229.135 84.668C228.831 84.668 228.551 84.564 228.256 84.3321C227.808 83.9962 227.304 83.7162 226.816 83.4523L226.64 83.3563C226.52 83.2924 226.4 83.2604 226.288 83.2604C226.088 83.2604 225.92 83.3563 225.792 83.5483C225.68 83.7242 225.608 83.9962 225.904 84.3241L225.984 84.412C226.104 84.548 226.224 84.692 226.392 84.7719C227.816 85.4277 228.303 86.5554 227.88 88.2029C227.856 88.2909 227.856 88.3869 227.856 88.4828C227.856 88.7308 227.832 88.8347 227.648 88.8827C227.584 88.8987 227.52 88.9067 227.456 88.9067C227.12 88.9067 226.896 88.6748 226.76 88.4748C226.544 88.1629 226.52 87.803 226.488 87.4191C226.48 87.2992 226.472 87.1792 226.456 87.0593C226.392 86.6034 226.24 85.9956 225.584 85.9956C225.456 85.9956 225.312 86.0196 225.152 86.0675C225.016 86.1075 224.865 86.1315 224.721 86.1315C224.537 86.1315 224.353 86.0995 224.153 86.0436C224.025 86.0036 223.905 85.9876 223.793 85.9876C223.433 85.9876 223.193 86.1955 223.129 86.5714C223.041 87.0673 223.297 87.3872 223.921 87.5391C224.001 87.5551 224.081 87.5631 224.177 87.5631C224.257 87.5631 224.345 87.5631 224.433 87.5471C224.513 87.5471 224.585 87.5311 224.665 87.5311C224.801 87.5311 224.905 87.5471 225.008 87.5951C225.088 88.9947 225.672 89.8664 226.848 90.3543C227.296 90.5382 227.632 91.202 227.584 91.426C227.368 92.4337 227.648 93.2574 228.487 94.0092C228.28 94.1292 228.088 94.1532 227.92 94.1532C227.84 94.1532 227.76 94.1532 227.68 94.1452C227.6 94.1452 227.52 94.1372 227.44 94.1372C227.4 94.1372 227.368 94.1372 227.336 94.1372C227.144 94.1532 226.992 94.1932 226.872 94.2731C226.736 94.1612 226.576 94.0572 226.376 93.9852C225.088 93.4974 224.113 92.5936 223.537 91.362C222.945 90.0904 222.377 88.7148 222.425 87.1712C222.441 86.6834 222.401 86.1955 222.361 85.7157C222.345 85.5237 222.329 85.3238 222.313 85.1318C222.281 84.6919 222.105 84.452 221.777 84.412C221.753 84.412 221.721 84.412 221.697 84.412C221.298 84.412 221.202 84.8039 221.154 85.0358C220.226 89.0747 222.001 94.4011 225.784 95.4808C225.824 95.4968 225.872 95.5368 225.936 95.6007V95.6087C225.92 95.6327 225.896 95.6647 225.888 95.6647C222.177 97.7201 219.018 99.3516 215.643 100.655C214.835 100.967 214.132 101.119 213.492 101.119C212.572 101.119 211.724 100.807 210.917 100.167C208.925 98.5919 206.79 97.1283 204.718 95.7207L204.079 95.2888C203.799 95.0969 203.607 94.897 203.487 94.673C203.599 94.3931 203.711 94.1212 203.831 93.8493C206.046 88.8347 206.902 84.8919 206.526 81.4449C206.526 80.3412 206.486 79.2775 206.406 78.2538C208.405 80.8851 210.573 83.3403 212.684 85.7157L213.5 86.6354C213.924 87.1152 214.332 87.3392 214.779 87.3392C215.043 87.3392 215.323 87.2672 215.635 87.1152C216.115 86.8833 216.595 86.6354 217.059 86.3955C217.987 85.9156 218.946 85.4117 219.946 85.0438C220.282 84.9239 220.602 84.7719 220.722 84.484C220.794 84.3161 220.778 84.1241 220.682 83.9082C220.554 83.6203 220.346 83.4763 220.058 83.4763C219.834 83.4763 219.602 83.5643 219.378 83.6443L219.33 83.6603C218.099 84.1241 216.851 84.7399 215.515 85.5477C215.339 85.6597 215.195 85.7077 215.067 85.7077C214.899 85.7077 214.739 85.6117 214.556 85.3957C213.796 84.5 212.996 83.5963 212.164 82.7005C210.677 81.093 209.277 79.3655 207.926 77.686C207.35 76.9742 206.726 76.1984 206.07 75.4147C205.63 72.6715 204.862 70.1282 203.727 67.561C203.431 66.8892 203.063 66.2414 202.719 65.6096C202.591 65.3776 202.463 65.1537 202.343 64.9218C202.231 64.7218 202.079 64.4419 201.807 64.4419C201.751 64.4419 201.687 64.4579 201.623 64.4819C201.167 64.6658 201.295 65.1377 201.367 65.3936C201.455 65.7135 201.583 66.0494 201.751 66.4413C202.383 67.8809 202.871 69.4004 203.343 70.872L203.423 71.1199C205.174 76.5503 205.43 82.2127 204.191 87.955C203.751 89.9864 202.919 91.9298 202.167 93.5613C199.776 98.7358 199.896 104.206 200.216 109.373C200.272 110.316 200.472 111.26 200.656 112.172C200.832 113.012 201.008 113.875 201.08 114.731C201.311 117.49 201.423 119.97 200.368 122.361C200.088 122.993 200.2 123.441 200.688 123.657C200.808 123.712 200.92 123.736 201.024 123.736C201.415 123.736 201.655 123.385 201.847 123.033C202.183 122.425 202.343 121.761 202.487 121.137C203.183 118.058 202.783 115.019 202.239 111.644C201.255 105.574 201.487 100.543 202.983 96.0406C203.047 96.0806 203.103 96.1206 203.159 96.1686C203.359 96.2406 203.495 96.3685 203.631 96.4965C203.679 96.5445 203.727 96.5925 203.783 96.6324C205.838 98.3999 207.997 99.9915 210.613 101.831C211.404 102.391 212.26 102.655 213.3 102.655C213.668 102.655 214.068 102.623 214.532 102.559C215.515 102.415 216.395 102.031 217.267 101.647C217.787 101.415 218.33 101.183 218.882 101.007C220.65 100.447 222.265 99.5196 223.825 98.6239C224.944 97.984 226.096 97.3202 227.296 96.8004C227.536 96.6964 227.824 96.4725 227.896 96.2166C227.936 96.0886 227.912 95.9686 227.848 95.8647C227.808 95.8007 227.776 95.7367 227.736 95.6727C227.768 95.6727 227.808 95.6727 227.84 95.6727C227.872 95.6727 227.896 95.6727 227.928 95.6727C230.183 95.5768 232.046 94.737 233.47 93.1615C234.286 92.2577 234.598 91.226 234.382 90.0984C234.318 89.7385 234.318 89.4426 234.382 89.1706" fill="#264964"/>
<path d="M165.97 118.314C166.586 117.81 167.209 117.538 167.913 117.45C168.913 117.33 170.145 117.018 170.792 115.699C170.928 115.419 171.2 115.379 171.512 115.331L171.624 115.315C173.352 115.035 174.359 114.019 174.463 112.452C174.535 111.42 174.831 110.508 175.151 109.541L175.287 109.109C175.647 107.973 175.471 107.037 174.727 106.23C173.392 104.766 171.688 103.798 170.049 102.855C169.841 102.735 169.641 102.623 169.433 102.503C169.273 102.407 169.081 102.311 168.889 102.311C168.681 102.311 168.521 102.415 168.401 102.623C168.217 102.943 168.321 103.255 168.721 103.542C168.857 103.638 168.985 103.742 169.129 103.846C169.609 104.206 170.113 104.582 170.64 104.894C171.592 105.454 172.432 106.11 173.224 106.917C174.095 107.805 174.151 108.237 173.496 109.341L173.336 109.117C173.144 108.845 172.96 108.581 172.776 108.317C172.416 107.805 172.04 107.277 171.528 106.869C171.328 106.709 171.112 106.566 170.88 106.566C170.736 106.566 170.608 106.614 170.48 106.717C170.057 107.069 170.353 107.453 170.528 107.677L170.576 107.733C171.368 108.781 172.024 109.909 172.632 110.98C173.032 111.692 173.112 112.364 172.848 112.884C172.592 113.396 172.016 113.731 171.232 113.835C170.329 113.955 169.769 114.307 169.409 115.003C169.161 115.483 168.761 115.747 168.145 115.851C167.057 116.027 165.818 116.227 164.922 117.234C164.794 117.386 164.61 117.458 164.386 117.458C164.25 117.458 164.106 117.434 163.962 117.378C163.842 117.338 163.714 117.29 163.587 117.25L163.499 117.218C163.011 117.058 162.507 116.883 162.051 116.643C161.963 116.595 161.875 116.547 161.779 116.499C161.147 116.163 160.499 115.819 160.148 115.163L160.116 115.107C159.22 113.444 158.292 111.732 157.58 109.941C157.348 109.357 157.076 108.773 156.829 108.253L156.733 108.053C156.573 107.717 156.365 107.645 156.213 107.645C156.149 107.645 156.077 107.661 156.005 107.685C155.853 107.741 155.621 107.901 155.717 108.357C155.797 108.733 155.893 109.173 156.021 109.589C156.501 111.108 157.18 112.564 157.836 113.971L157.86 114.027C158.028 114.395 158.204 114.763 158.372 115.131C159.06 116.643 160.228 117.482 161.771 118.274C162.139 118.466 162.539 118.602 162.931 118.738C162.931 118.746 162.931 118.762 162.923 118.77C162.835 119.186 162.731 119.61 162.635 120.034C162.363 121.169 162.083 122.353 162.019 123.553C161.987 124.08 162.243 124.424 162.691 124.472C162.723 124.472 162.755 124.472 162.787 124.472C163.187 124.472 163.451 124.2 163.523 123.705C163.682 122.697 163.826 121.697 163.962 120.721L164.138 119.482L164.114 119.33C164.098 119.218 164.074 119.09 164.05 118.954C164.074 118.954 164.098 118.954 164.13 118.954C164.802 118.954 165.418 118.73 165.962 118.29" fill="#264964"/>
<path d="M205.582 41.6007C206.134 41.4567 206.662 41.3208 207.174 41.1768C207.558 41.0648 207.694 40.9129 207.67 40.665C207.63 40.3051 207.278 40.2651 207.174 40.2571C207.15 40.2571 207.126 40.2571 207.094 40.2571C205.886 40.3291 204.606 40.425 203.415 40.8409C203.175 40.9209 203.023 41.0568 202.959 41.2408C202.895 41.4407 202.951 41.6887 203.119 41.9366C203.839 43.0003 204.854 43.8 206.142 44.3279C206.254 44.3759 206.366 44.3999 206.47 44.4079C206.702 44.4159 206.878 44.3119 206.99 44.096C207.222 43.6561 206.95 43.3602 206.678 43.1922C206.502 43.0803 206.318 42.9843 206.126 42.8803C205.67 42.6324 205.206 42.3765 204.806 41.9286L204.718 41.8326L204.846 41.8006C205.102 41.7366 205.342 41.6727 205.574 41.6087" fill="#264964"/>
<path d="M205.414 31.1317C205.23 30.9397 204.958 30.8278 204.655 30.8118C204.567 30.8118 204.471 30.8118 204.375 30.8278C203.927 30.8917 203.567 31.1397 203.431 31.4756C203.335 31.7075 203.311 32.0834 203.703 32.5713L203.711 32.5872C203.935 32.6912 204.167 32.7552 204.399 32.7632C204.487 32.7632 204.575 32.7632 204.655 32.7472C205.238 32.6592 205.59 32.2114 205.606 31.5316V31.5156L205.406 31.1317H205.414Z" fill="#264964"/>
<path d="M210.557 34.9226C208.829 32.1394 207.949 29.1243 207.71 25.8932C207.59 24.3337 207.086 22.9181 206.182 21.6865C206.166 21.4465 206.134 21.2066 206.038 20.9987C204.814 18.2555 202.887 16.1361 200.104 14.9764C196.945 13.6568 193.626 12.913 190.171 12.8411C186.908 12.8491 183.717 13.217 180.845 14.9684C180.414 15.2324 179.622 15.4243 179.966 16.0961C180.302 16.7599 180.949 16.2801 181.397 16.0561C183.853 14.8325 186.468 14.2966 189.195 14.2566C192.754 14.2007 196.185 14.8885 199.392 16.432C201.583 17.4877 203.551 18.8553 204.518 21.1906C204.558 21.2386 204.598 21.2946 204.63 21.3426C204.702 21.4385 204.782 21.5345 204.838 21.6225C205.926 23.294 206.526 25.1095 206.526 27.1089C206.526 30.148 207.606 32.8432 209.141 35.3864C209.637 36.2022 209.725 37.042 209.101 37.7378C207.846 39.1453 207.702 40.8248 207.646 42.5683C207.606 43.848 207.718 45.1356 207.358 46.3992C206.926 47.9188 205.974 48.8145 204.423 48.9105C202.031 49.0624 199.664 48.8225 197.281 48.7105C197.033 48.6945 196.769 48.6865 196.553 48.7425C196.369 48.7665 196.193 48.8785 196.081 49.1104C195.641 49.9822 195.281 50.8859 194.969 51.7976C194.721 52.5254 194.186 53.6131 194.257 54.3889C194.297 54.8527 194.713 55.2846 195.209 55.1806C195.705 55.0767 195.777 54.5808 195.873 54.1569C196.193 52.8053 196.649 51.4697 197.249 50.2141C199.664 50.366 202.071 50.598 204.494 50.382C206.926 50.1661 208.317 48.8945 208.901 46.5032C209.213 45.2395 209.117 43.9519 209.141 42.6723C209.165 41.1927 209.317 39.8011 210.341 38.5535C211.213 37.4898 211.308 36.1142 210.573 34.9306" fill="#264964"/>
<path d="M184.188 39.7052C183.757 39.3773 183.421 39.7292 183.125 40.0091C182.853 40.2731 182.621 40.569 182.389 40.8569C181.493 41.9526 180.382 42.7843 179.222 43.5841C178.758 43.904 178.406 43.912 177.966 43.5121C176.991 42.6164 175.911 41.8166 174.967 40.8809C172.16 38.0817 169.985 34.9866 170.449 30.7239C170.656 28.7884 170.984 26.877 171.384 24.9816C171.552 24.1738 171.84 23.414 172.264 22.7022C173.784 20.127 175.847 18.1916 178.718 17.1918C178.998 17.0959 179.246 16.9759 179.23 16.648C179.206 16.3201 178.934 16.2241 178.654 16.1761C178.174 16.0882 177.686 16.0722 177.247 16.2881C173.688 18.0076 170.904 20.5109 169.921 24.4537C169.033 28.0127 168.241 31.6356 169.257 35.2745C165.746 36.4342 162.907 38.0737 161.387 41.5767C160.515 43.5921 159.932 45.6795 159.268 47.7509C158.628 49.7583 157.412 51.1979 155.485 52.0616C155.173 52.1976 154.861 52.3415 154.581 52.5255C154.221 52.7654 154.013 53.1173 154.045 53.5652C154.077 54.045 154.413 54.277 154.829 54.3969C155.157 54.4929 155.493 54.5969 155.821 54.5969C157.732 54.6129 159.652 54.7168 161.539 54.3809C164.642 53.8211 167.585 52.9094 169.649 50.2861C171.6 47.8069 173.248 45.1836 173.392 41.7286C174.727 42.8803 175.903 43.96 177.159 44.9437C177.718 45.3836 178.126 45.7195 177.806 46.5032C177.662 46.8711 177.806 47.271 178.238 47.415C178.71 47.5749 179.03 47.335 179.23 46.9271C179.318 46.7432 179.43 46.5432 179.422 46.3513C179.366 45.3596 179.926 44.8077 180.734 44.3839C181.061 44.2159 181.357 43.96 181.645 43.7281C182.677 42.9203 183.501 41.9286 184.172 40.8089C184.388 40.449 184.604 40.0331 184.172 39.7132M171.256 44.7038C170.856 45.6395 170.329 46.5192 169.825 47.407C167.681 51.2139 164.146 52.6055 160.044 52.9573C159.236 53.0293 158.412 52.9653 157.596 52.9653C160.052 51.2059 160.723 48.5506 161.491 45.9194C162.211 43.4401 162.923 40.9289 164.938 39.0894C165.978 38.1457 167.193 37.4419 168.441 36.8021C169.129 36.4502 169.745 36.4822 170.113 37.3299C170.273 37.6978 170.536 38.0337 170.792 38.3456C172.408 40.353 172.2 42.5124 171.264 44.6958" fill="#264964"/>
<path d="M191.906 34.5308C192.018 34.2669 191.978 33.979 191.69 33.819C191.362 33.6431 191.082 33.795 190.883 34.051C190.427 34.6268 190.211 35.2906 190.107 36.0184C189.899 37.5699 190.275 38.9855 191.034 40.3211C191.85 41.7367 192.29 43.2243 192.226 44.8958C192.186 45.8315 192.042 46.7112 191.666 47.447C191.586 47.9749 191.706 48.3268 192.122 48.4707C192.61 48.6387 192.898 48.3428 193.074 47.9349C194.162 45.4236 193.954 42.9284 192.754 40.5531C191.77 38.6176 190.947 36.7302 191.906 34.5468" fill="#264964"/>
<path d="M187.316 32.6272C185.156 31.5555 182.749 33.139 182.717 35.6423C182.693 37.8976 185.068 40.5368 187.34 40.7848C187.755 40.8328 188.091 40.7368 188.251 40.3209C188.411 39.913 188.235 39.5691 187.891 39.3612C187.547 39.1533 187.14 39.0413 186.788 38.8333C185.636 38.1535 184.468 37.4737 184.276 35.9622C184.093 34.5466 185.02 33.6509 186.42 33.9148C186.78 33.9788 187.124 34.1547 187.476 34.2747C187.771 34.3707 188.091 34.4826 188.307 34.1707C188.515 33.8748 188.339 33.5789 188.171 33.323C187.955 33.0031 187.643 32.7951 187.308 32.6272" fill="#264964"/>
<path d="M197.856 20.3188C197.281 20.2708 197.401 20.9586 197.297 21.3585C196.257 25.3813 194.601 29.0602 191.522 31.9714C191.378 32.1073 191.226 32.2593 191.114 32.4272C190.939 32.7151 190.939 33.0111 191.186 33.267C191.402 33.4909 191.682 33.5229 191.938 33.371C192.258 33.179 192.562 32.9631 192.834 32.7072C194.298 31.2996 195.441 29.652 196.377 27.8606C197.409 25.8852 198.136 23.8058 198.376 21.5264C198.248 21.1186 198.568 20.3748 197.856 20.3188Z" fill="#264964"/>
<path d="M204.559 23.2141C204.423 23.1901 204.287 23.1901 204.151 23.1661C202.359 22.8782 200.864 22.1264 199.904 20.5109C199.784 20.3109 199.64 20.119 199.496 19.9271C199.368 19.7591 199.192 19.6471 198.968 19.7111C198.696 19.7831 198.576 20.015 198.608 20.255C198.664 20.6149 198.744 20.9907 198.904 21.3266C199.992 23.622 202.071 24.3338 204.143 24.7017C204.886 24.7256 205.454 24.7017 205.518 24.0298C205.582 23.398 205.046 23.2941 204.559 23.2141Z" fill="#264964"/>
</g>
<defs>
<clipPath id="clip0_66_415">
<rect width="245" height="223.718" fill="white" transform="translate(22.5 1.58838)"/>
</clipPath>
</defs>
</svg>
