<svg width="276" height="254" viewBox="0 0 276 254" fill="none" xmlns="http://www.w3.org/2000/svg">
<path d="M76.5363 240.366C66.1118 235.786 56.7392 228.509 47.647 221.812C32.6413 210.768 21.4455 195.237 12.4001 178.752C3.54162 162.57 -0.385084 147.875 0.666713 134.692C1.36791 125.694 -0.198097 116.417 2.23272 107.582C4.71029 98.4444 6.13606 88.7721 9.89915 79.9834C22.3571 50.9666 43.5566 30.599 73.5445 18.8807C86.1427 13.9515 98.7643 9.51065 111.386 5.53479C118.608 3.25623 129.266 1.74493 143.384 1.00091C153.715 0.466148 164.35 1.79144 175.265 5.02328C190.2 9.4409 202.097 14.0445 211.003 18.8109C240.593 34.6446 260.764 57.965 271.516 88.7721C273.269 93.8175 274.344 99.3047 274.695 105.234C275.279 114.836 275.56 124.113 275.489 133.111C275.419 140.482 274.531 147.294 272.825 153.548C264.153 185.309 245.899 213.698 217.968 230.508C204.668 238.506 189.266 245.063 171.736 250.155C165.565 251.945 159.722 252.085 153.481 253.085C151.027 253.48 148.479 253.643 145.885 253.573C136.606 253.34 127.023 254.108 118.351 252.689C103.906 250.341 89.9759 246.249 76.5363 240.366Z" fill="white"/>
<g clip-path="url(#clip0_66_304)">
<path d="M133.564 27.5022L116.01 39.7729C116.01 39.7729 103.247 72.9629 124.787 84.1142L127.026 86.4029L125.992 92.0213L122.905 92.4847C122.905 92.4847 118.598 97.7966 112.965 100.784C107.333 103.771 101.664 104.392 99.1404 108.877C96.6164 113.361 86.9766 135.307 86.9766 135.307L82.3921 122.074L79.59 123.415C79.59 123.415 81.565 116.042 80.5311 110.688C79.4973 105.326 78.1069 100.306 75.3263 96.7912C72.5456 93.269 71.5117 89.918 71.5117 89.918L68.8308 91.0944L68.0038 95.9L55.6332 85.3191H45.8438L42.8563 90.1318L44.6602 94.253L42.8563 97.3474C42.8563 97.3474 55.947 120.227 63.0627 123.735L61.7223 127.963C61.7223 127.963 64.4031 172.184 79.1978 177.388C79.1978 177.388 89.2511 182.237 101.565 163.578L103.547 171.67L100.844 227.926H183.566L179.239 194.971C179.239 194.971 202.846 188.426 203.053 182.244C203.259 176.062 202.283 168.433 201.249 164.875C200.215 161.317 193.933 131.115 193.933 131.115C193.933 131.115 190.14 114.787 185.641 111.557C181.142 108.328 167.802 100.813 167.802 100.813L160.173 88.0285L156.979 87.7219L156.002 80.5563L162.084 74.9878C162.084 74.9878 171.31 73.0271 172.03 66.8454C172.75 60.6637 169.1 57.9115 165.692 59.1165L153.478 27.8302L133.571 27.5307L133.564 27.5022Z" fill="white"/>
<path d="M152.715 123.949L140.665 127.571C144.9 136.477 137.935 134.666 131.995 137.161C124.758 138.965 122.441 143.699 120.145 133.803L103.547 138.844L115.354 175.798C120.58 172.64 125.799 172.911 130.683 176.376C134.705 178.558 139.147 180.005 143.446 181.474L145.186 180.968C142.783 177.196 162.754 171.57 165.827 169.659L152.715 123.949Z" fill="#F4F0BB"/>
<path d="M184.394 118.21C185.192 117.875 185.919 117.432 185.577 116.434C185.242 115.457 184.372 115.436 183.552 115.707C182.668 115.999 181.77 116.342 180.964 116.798C174.141 120.662 169.463 126.388 166.583 133.618C165.991 135.108 165.613 136.691 165.207 138.002C165.128 138.815 165.164 139.364 165.756 139.621C166.462 139.928 166.975 139.514 167.225 138.944C167.781 137.653 168.201 136.298 168.75 135.001C171.93 127.514 176.643 121.447 184.386 118.21" fill="#264964"/>
<path d="M203.038 166.936C202.254 162.123 200.657 157.453 200.151 152.598C199.637 147.714 198.461 143.001 197.192 138.281C195.659 132.548 193.334 127.051 192.08 121.24C191.473 118.438 190.375 115.835 188.999 113.368C187.602 110.866 185.278 109.311 182.718 108.128C182.625 108.085 182.54 108.049 182.454 108.028C182.176 107.764 181.777 107.558 181.406 107.351C178.005 105.447 174.618 103.515 171.239 101.575C170.483 101.141 169.656 100.727 169.249 99.9142C167.474 96.3635 164.8 93.3617 163.132 89.7397C162.604 88.5918 161.863 87.2086 160.608 87.0018C158.676 86.6881 157.335 81.9395 157.207 79.8362C156.451 80.3852 155.303 81.1552 154.476 81.5759C154.526 83.0233 155.253 86.4029 155.424 87.1159C155.453 87.2442 155.474 87.3583 155.489 87.4724C155.631 87.6792 155.681 87.9501 155.567 88.2709C154.362 91.6648 152.465 94.745 150.84 97.9606C149.129 101.347 147.503 104.77 145.963 108.235C145.015 110.36 144.109 112.506 143.239 114.666C143.054 114.666 142.876 114.659 142.69 114.659C142.462 114.659 142.234 114.659 142.006 114.659C141.008 114.63 139.931 114.623 138.598 114.623C137.842 114.623 137.086 114.623 136.323 114.63C135.567 114.63 134.812 114.638 134.049 114.638C132.145 114.638 129.885 114.616 127.603 114.459C126.263 114.367 124.929 114.131 123.639 113.903C122.676 113.732 121.685 113.568 120.694 113.447C121.536 110.174 122.491 106.923 123.582 103.693C124.273 101.654 125.008 99.6219 125.785 97.6183C126.355 96.1496 127.347 94.2459 127.446 92.5489C127.867 92.114 128.124 91.5579 128.288 90.8805C128.573 89.6898 128.773 88.4706 129.022 87.2727C129.443 85.1837 126.213 84.4992 125.785 86.5883C125.628 87.3726 125.471 88.1497 125.307 88.934C125.25 89.2264 125.2 89.8253 125.072 90.1889C124.851 90.2103 124.637 90.2602 124.43 90.3386C124.43 90.3743 124.43 90.4099 124.437 90.4456C123.739 90.7165 123.083 90.8876 122.52 91.2156C121.949 91.5507 121.422 91.9999 120.958 92.4776C119.09 94.3813 117.136 96.1567 115.076 97.7752C111.19 99.7573 107.468 102.075 103.333 103.536C100.467 104.549 98.627 106.46 97.422 109.183C94.4773 115.807 91.4471 122.388 88.4953 129.004C88.0176 130.081 86.7556 131.528 88.4026 132.334C90.1637 133.19 90.5273 131.265 91.0977 130.152C94.3561 123.743 96.7589 116.955 99.7606 110.431C100.745 108.292 102.114 106.816 104.345 105.953C106.777 105.019 109.101 103.871 111.354 102.588C110.591 103.75 109.828 104.927 108.894 105.939C108.153 106.966 107.354 107.9 106.605 108.877C105.379 110.474 105.557 111.258 107.269 112.235C108.309 112.834 109.272 113.511 110.22 114.538C108.424 115.586 106.826 116.541 105.201 117.454C103.782 118.252 103.169 119.365 103.112 121.047C102.926 126.495 102.884 131.928 103.062 137.354C101.992 137.881 101.764 138.765 102.185 140.106C105.814 151.671 109.407 163.25 113.008 174.822C112.659 174.929 112.309 175.043 111.96 175.135C110.441 175.563 109.151 175.97 108.887 177.802C108.623 179.691 109.764 180.661 111.147 181.467C112.138 182.044 113.194 182.508 114.363 183.092C113.179 183.87 112.038 183.62 111.026 183.927C109.165 184.497 107.703 185.552 107.447 187.591C107.219 189.452 108.046 191.085 109.835 191.577C112.188 192.226 113.022 193.31 112.067 195.634C111.932 195.962 112.01 196.483 112.188 196.811C113.415 199.078 115.012 201.188 115.24 203.891C115.24 203.948 115.311 203.998 115.354 204.055C118.947 209.081 124.851 211.006 130.826 209.309C135.125 208.09 139.154 206.236 143.104 204.24C146.048 202.75 149.528 201.93 151.496 199.056C151.574 199.584 151.653 200.119 151.71 200.654C151.973 203.128 153.257 203.862 155.674 203.17C159.189 202.165 162.683 201.067 166.212 200.09C170.148 198.999 173.962 197.438 178.269 196.839C178.761 200.789 179.231 204.525 179.695 208.261C180.394 213.873 181.377 221.124 182.083 226.735C182.197 227.641 182.418 228.632 183.638 228.453C184.736 228.289 184.714 227.355 184.636 226.485C184.614 226.264 184.586 226.043 184.557 225.822C183.509 217.402 182.169 207.349 181.121 198.928C180.878 196.984 181.658 195.71 183.459 195.106C184.037 194.914 184.6 194.664 185.185 194.493C189.613 193.16 193.627 190.843 197.826 188.996C201.826 187.235 204.45 184.069 204.486 179.142C204.514 174.986 203.687 170.986 203.024 166.95M155.139 94.745C155.788 93.3261 157.242 89.1051 159.21 89.1479C159.774 89.3476 160.102 89.7896 160.344 90.2673C161.934 93.3831 163.624 96.4419 165.649 99.3081C166.312 100.242 166.504 101.362 166.397 102.574C166.162 105.119 165.97 107.672 165.955 110.224C165.948 111.664 165.356 112.114 164.066 112.156C160.993 112.256 158.141 113.269 155.317 114.388C154.54 114.695 153.763 114.994 153.67 115.942C153.585 116.812 154.291 117.176 154.868 117.661C157.442 119.793 159.859 122.088 162.141 124.669C161.264 125.817 160.401 126.894 159.581 127.985C159.381 127.329 159.182 126.687 158.996 126.074C157.385 120.848 157.157 120.762 151.945 122.359C148.672 123.358 145.4 124.363 142.127 125.361C143.175 122.652 144.237 119.942 145.271 117.226C148.187 109.575 151.767 102.196 155.161 94.745M139.91 132.149C134.441 133.974 129.4 135.65 124.359 137.332C123.147 137.739 123.033 136.79 122.748 136.035C122.405 135.143 122.42 134.487 123.539 134.152C128.188 132.762 132.822 131.336 137.45 129.896C139.425 129.283 138.983 131.037 139.91 132.149ZM120.445 115.679C120.573 115.707 120.709 115.736 120.837 115.771C125.336 116.99 130.013 117.154 134.391 117.154C135.09 117.154 135.796 117.154 136.494 117.147H140.387C141 117.147 141.614 117.147 142.227 117.147C141.022 120.206 139.881 123.286 138.776 126.381C131.496 128.605 124.224 130.83 116.944 133.047C117.728 127.179 118.762 121.368 120.145 115.607C120.245 115.629 120.338 115.65 120.438 115.671M107.154 119.343C109.258 118.153 111.325 116.884 113.407 115.65C114.042 115.279 114.805 114.994 114.748 114.074C114.691 113.24 113.949 113.133 113.358 112.819C111.939 112.071 110.634 111.151 109.386 109.832C114.177 104.62 118.206 98.8946 123.147 93.9321C123.568 93.5115 124.031 93.0694 124.965 93.5614C118.926 106.559 115.71 120.099 113.921 133.96C111.247 134.773 108.573 135.593 105.9 136.405C105.721 131.578 105.671 126.744 105.671 121.903C105.671 120.641 106.121 119.921 107.162 119.329M105.843 141.903C105.329 140.27 105.586 139.607 107.261 139.15C110.826 138.188 114.349 137.068 117.857 135.913C119.154 135.486 119.789 135.806 120.045 137.111C120.138 137.575 120.331 138.024 120.487 138.48C121.322 140.819 121.992 141.197 124.323 140.434C129.714 138.658 135.097 136.855 140.473 135.022C143.025 134.152 143.311 133.461 142.362 130.873C142.127 130.238 141.906 129.596 141.557 128.612C146.034 127.251 150.269 125.931 154.519 124.677C155.781 124.306 155.752 125.475 155.973 126.181C157.948 132.52 159.902 138.858 161.848 145.204C163.324 150.002 166.74 161.075 168.601 167.143C161 170.829 153.15 173.938 145.35 177.16C143.239 178.03 143.111 178.601 144.679 180.44C144.672 180.447 144.665 180.454 144.658 180.462C144.316 180.24 143.966 180.019 143.617 179.82C143.567 179.77 143.51 179.727 143.46 179.677C143.346 179.634 143.232 179.577 143.118 179.506C141.963 178.786 140.466 178.85 139.239 178.294C138.933 178.216 138.633 178.087 138.348 177.959C136.658 177.239 135.411 176.754 134.22 176.169C131.924 175.043 129.628 173.952 127.254 172.982C124.159 171.72 121.143 171.677 118.049 172.954C117.3 173.26 116.545 173.56 115.782 173.845C112.488 163.193 109.194 152.533 105.843 141.895M129.685 206.8C126.277 207.876 123.354 207.306 120.701 204.996C119.996 204.375 119.261 203.784 118.505 203.22C117.735 202.643 117.343 201.958 117.6 200.967C117.963 199.534 117.386 198.507 116.174 197.73C115.183 197.096 114.612 196.162 115.033 194.978C116.024 192.162 115.147 191.199 112.281 189.624C111.468 189.174 110.27 189.032 110.47 187.827C110.662 186.679 111.874 186.729 112.766 186.565C116.352 185.916 119.732 184.547 123.218 183.542C124.63 183.135 124.758 182.18 123.888 181.068C122.22 178.936 120.024 178.822 117.685 179.577C115.582 180.255 113.643 180.347 111.668 178.422C115.24 177.46 118.284 175.72 121.7 175.028C123.867 174.586 125.835 175.499 127.724 176.326C132.095 178.237 136.359 180.404 140.929 181.823C141.015 181.895 141.114 181.959 141.229 182.016C143.275 183.071 145.086 184.419 146.704 186.051C146.804 186.158 146.911 186.23 147.025 186.301C147.132 186.472 147.239 186.643 147.339 186.814C149.057 189.937 150.312 193.21 151.082 196.647C144.28 200.932 137.271 204.418 129.707 206.807M196.857 186.615C193.213 188.119 189.784 190.058 186.083 191.413C180.03 193.623 173.727 194.971 167.617 196.953C163.716 198.222 159.752 199.299 155.816 200.454C155.039 200.682 154.319 200.917 154.169 199.641C153.314 192.304 150.526 185.788 145.685 180.141C146.369 179.428 147.268 179.093 148.13 178.765C155.517 175.884 162.811 172.804 169.962 169.382C171.581 168.604 172.636 167.592 173.677 166.095C174.953 164.248 174.397 162.858 173.77 161.189C173.42 160.262 173.206 159.264 173.114 158.28C172.857 155.728 172.258 153.261 171.502 150.815C170.647 148.063 169.877 145.282 169.107 142.502C168.857 141.603 168.629 140.619 167.431 140.926C166.29 141.218 166.34 142.252 166.597 143.129C168.458 149.453 170.233 155.799 171.438 162.294C171.666 163.542 171.531 164.64 170.953 165.503C168.023 155.942 163.788 141.81 160.579 131.279C161.67 129.696 162.797 128.142 163.987 126.63C164.936 125.425 164.815 124.192 163.973 122.901C163.125 121.596 162.205 120.391 161.021 119.358C160.08 118.531 158.989 117.81 158.262 116.541C160.465 115.201 162.904 115.13 165.278 114.901C168.608 114.573 168.722 114.502 168.729 111.13C168.729 108.627 168.729 106.124 168.729 103.18C170.59 104.271 171.859 105.012 173.121 105.754C175.438 107.115 177.734 108.52 180.087 109.811C180.451 110.01 180.85 110.167 181.235 110.203C181.356 110.31 181.499 110.402 181.656 110.488C182.24 110.802 182.839 111.094 183.409 111.436C186.839 113.468 188.172 116.891 189.178 120.441C190.176 123.964 191.081 127.507 192.229 130.987C194.746 138.63 197.071 146.323 197.798 154.401C197.919 155.77 198.29 157.125 198.603 158.473C199.93 164.198 201.021 169.973 201.862 175.784C202.639 181.167 201.113 184.882 196.864 186.636" fill="#264964"/>
<path d="M98.4345 137.047C98.2634 136.156 98.0423 135.129 96.8516 135.329C95.6609 135.528 95.7679 136.541 95.9105 137.453C95.9604 137.781 96.0317 138.109 96.0958 138.43C97.2723 144.526 98.52 150.615 99.5967 156.726C100.745 163.257 101.885 161.717 97.0513 167.314C96.6235 167.456 96.2242 167.806 95.8606 168.191C94.841 169.26 93.8998 170.408 92.8161 171.406C89.7217 174.258 86.5346 176.968 81.8644 176.326C76.4242 175.577 73.4011 171.92 71.5188 167.235C69.665 162.622 68.403 157.81 67.5546 152.883C66.2569 145.403 64.8309 137.945 63.4691 130.473C63.3907 130.053 63.0912 129.568 63.6331 129.183C70.3923 130.587 76.0963 128.056 81.4081 124.035C81.6291 124.505 81.786 124.734 81.8502 124.983C83.54 131.913 86.4133 138.473 88.2172 145.368C88.4169 146.145 88.7021 146.908 89.0087 147.649C89.3794 148.533 89.9997 149.175 91.0336 148.754C92.046 148.348 92.1244 147.492 91.8107 146.558C89.08 138.48 86.3706 130.388 83.597 122.324C82.8983 120.299 82.2209 119.935 80.7735 120.876C80.6309 119.55 80.8021 118.224 81.1158 116.705C82.5917 109.625 81.5935 103.793 78.0784 98.8732C75.8396 95.736 74.3423 92.9696 73.3655 90.1604C73.1159 89.4402 72.624 89.0267 71.8254 88.8698C71.6828 88.8413 71.5473 88.8199 71.4119 88.8057C71.2336 88.7843 71.0554 88.7772 70.8843 88.7772C69.1018 88.7772 67.8825 89.868 67.5332 91.7717C67.4191 92.3707 67.3621 92.9625 67.2979 93.5828C67.2979 93.5828 67.2622 93.9464 67.248 94.1032C66.7845 93.8252 66.4209 93.4259 66.0715 93.0338C65.9361 92.884 65.8006 92.7272 65.658 92.5846C65.0519 91.9643 64.4602 91.3368 63.8612 90.7022C61.7222 88.4349 59.512 86.0963 56.7954 84.3423C55.84 83.7291 54.8204 83.3441 53.8365 83.2229C53.6226 83.2015 53.4087 83.1873 53.2019 83.1873C52.6101 83.1873 52.0397 83.2871 51.4979 83.4867C50.849 83.722 50.2786 83.8361 49.694 83.8361C49.5086 83.8361 49.3304 83.8218 49.1378 83.8004C48.8669 83.7719 48.5817 83.7149 48.2609 83.6364C47.997 83.5723 47.7332 83.5224 47.4908 83.4938C47.3054 83.4725 47.1272 83.4582 46.9561 83.4582C45.2092 83.4582 44.1183 84.5491 43.7191 86.6952C43.6264 87.1729 43.4196 87.3939 43.0845 87.615C41.6656 88.5561 41.3163 89.8609 42.0506 91.5079C42.2931 92.0427 42.5284 92.5774 42.7636 93.1122L43.0275 93.7111C41.6157 95.3581 41.4517 97.1264 42.4998 99.4293C45.0238 104.991 48.8954 109.696 52.6458 114.253C53.6155 115.429 54.6137 116.641 55.5762 117.853C58.0717 120.998 60.4388 123.229 62.9486 124.826C62.4281 124.591 61.8007 124.719 61.1946 124.933C60.3248 125.233 60.225 125.967 60.2749 126.744C60.3105 127.279 60.3747 127.814 60.4602 128.341C61.7365 136.17 63.0555 143.985 64.289 151.82C65.1518 157.282 66.5564 162.594 68.3389 167.82C69.6722 171.734 72.0821 174.907 75.3761 177.16C79.7254 180.133 84.5809 180.412 89.3081 177.966C92.866 176.126 95.5968 173.189 98.2206 170.209C98.5129 169.873 98.7696 169.503 98.8765 169.118C99.668 168.291 100.424 167.421 101.386 166.351C101.999 168.733 102.37 170.772 102.27 172.911C101.458 190.137 100.688 208.347 99.9318 225.573C99.8819 226.642 99.3329 228.296 101.001 228.418C102.827 228.546 102.427 226.778 102.477 225.666C103.162 211.263 103.839 195.884 104.431 181.481C104.595 177.552 105.379 173.581 104.687 169.702C102.741 158.786 100.545 147.913 98.4345 137.026M66.2926 124.242C66.1785 123.643 65.5582 123.243 65.0591 122.923C63.3978 121.853 61.8435 120.584 60.2962 119.044C57.9933 116.748 55.9969 114.138 54.0504 111.6C52.8953 110.096 51.7046 108.534 50.464 107.066C48.4035 104.627 46.6566 101.825 45.1237 98.5096C44.7672 97.7324 44.5247 97.0764 44.9525 96.3492C45.0167 96.3492 45.0738 96.3563 45.1379 96.3634C46.6281 96.5346 47.4266 97.6967 48.1967 98.8162L48.4248 99.1513C51.2697 103.222 54.7776 107.743 60.4317 109.818C61.1376 110.074 61.8221 110.488 62.478 110.894L62.6777 111.016C65.0377 112.449 66.4494 114.338 66.977 116.791L67.0198 116.99C67.0982 117.375 67.1838 117.775 67.3193 118.153C67.5332 118.759 67.9039 119.108 68.3959 119.165C68.4387 119.165 68.4886 119.172 68.5385 119.172C68.6526 119.172 68.7738 119.158 68.895 119.129C69.6009 118.958 69.9574 118.402 69.9003 117.568C69.8789 117.276 69.8219 116.99 69.7649 116.705L69.7292 116.52C68.9093 112.327 66.2141 109.262 61.7151 107.429C56.4532 105.283 53.1877 101.255 50.685 97.5898C49.6583 96.0925 48.3892 94.8733 46.6851 93.761C45.7582 93.155 44.7672 91.8644 44.7173 90.032C44.8385 90.032 44.9668 90.0463 45.0809 90.0605C46.5996 90.2388 47.4338 91.3083 47.997 92.2209C48.9952 93.8466 50.1788 95.3082 51.6119 96.67C53.537 98.5096 55.6546 100.463 58.0717 102.659C58.4282 102.987 58.8061 103.18 59.1555 103.215C59.2054 103.215 59.2553 103.222 59.3052 103.222C59.7116 103.222 60.0681 103.023 60.3604 102.631C61.052 101.697 60.2677 100.991 59.7972 100.57C59.6973 100.477 59.5904 100.399 59.4834 100.313C59.3622 100.221 59.241 100.128 59.1341 100.028C58.364 99.2796 57.5441 98.5524 56.7313 97.818C54.7491 96.0426 52.7028 94.2031 51.1699 91.9785C49.7296 89.8966 48.3535 88.2994 46.3286 87.2941C46.3785 86.8948 46.4926 86.631 46.678 86.4742C46.8206 86.3601 47.0131 86.3031 47.2698 86.3031C47.3482 86.3031 47.4266 86.3031 47.5122 86.3173C47.6477 86.3316 47.7974 86.3601 47.9614 86.4029C49.4872 86.7736 50.5282 87.8717 51.5478 88.934C51.8401 89.2406 52.1467 89.5615 52.4604 89.8609C53.8793 91.2156 55.1484 92.7485 56.3819 94.2387C57.8934 96.064 59.462 97.9534 61.3158 99.5363L61.4656 99.6646C61.8577 100.007 62.2641 100.356 62.749 100.413C62.7917 100.413 62.8345 100.42 62.8773 100.42C63.2267 100.42 63.5404 100.256 63.8398 99.907C64.7097 98.9088 63.8398 98.1388 63.1981 97.5684C61.2944 95.8786 59.6403 93.8965 58.036 91.9856C56.4461 90.0819 54.799 88.1141 52.9096 86.4243C52.8597 86.3744 52.7741 86.3031 52.8526 86.1034C52.9381 86.1034 53.0165 86.1034 53.095 86.1034C53.3017 86.1034 53.4943 86.1177 53.6796 86.1391C54.3784 86.2175 55.0058 86.4599 55.5905 86.8663C58.9416 89.1836 61.6509 92.2637 64.2748 95.2369L64.6883 95.7004C66.2712 97.49 67.6686 98.8946 69.0875 100.121C69.4583 100.442 69.8718 100.641 70.2853 100.684C70.3495 100.691 70.4208 100.698 70.485 100.698C70.9342 100.698 71.3762 100.513 71.747 100.171C72.4315 99.5363 72.4814 98.7021 71.9038 97.6896L71.7042 97.3403C71.2621 96.5773 70.813 95.793 70.5206 94.9731C70.1214 93.8466 69.8362 92.7557 70.6989 91.7218C71.0839 91.9856 71.2265 92.3208 71.3834 92.6773C71.4333 92.7985 71.4903 92.9197 71.5473 93.0338C71.8325 93.5828 72.1035 94.146 72.3602 94.695C73.0019 96.0497 73.6649 97.4472 74.6418 98.6522C78.9197 103.957 80.1033 110.017 78.2495 117.176C77.7433 119.144 78.0214 120.998 78.3208 122.395C78.3422 122.495 78.3636 122.602 78.3993 122.716C75.1551 125.033 71.6329 126.709 67.469 126.88C65.9646 126.944 64.5315 126.965 63.5903 125.411C63.4905 125.247 63.3693 125.126 63.2481 125.019C63.3764 125.097 63.5047 125.183 63.6331 125.261L63.8256 125.375C64.1821 125.589 64.5528 125.817 64.9379 125.86C64.9806 125.86 65.0306 125.867 65.0733 125.867C65.4441 125.867 65.7721 125.675 66.043 125.297C66.3068 124.926 66.3995 124.591 66.3353 124.249" fill="#264964"/>
<path d="M186.311 168.925C183.245 167.299 179.973 166.294 176.814 165.759C175.873 165.738 175.331 165.987 175.181 166.693C174.996 167.585 175.552 168.077 176.322 168.248C177.948 168.604 179.574 168.939 181.128 169.56C182.461 170.094 183.809 170.615 185.163 171.1C185.862 171.349 186.518 171.214 186.86 170.494C187.167 169.838 186.903 169.239 186.318 168.925" fill="#264964"/>
<path d="M133.157 66.2679C133.464 66.3321 133.771 66.3606 134.07 66.382H134.163C134.241 66.3962 134.32 66.4034 134.398 66.4034C134.769 66.4248 135.061 66.4034 135.318 66.3249C135.781 66.1966 136.002 65.997 135.938 65.7474C135.895 65.6119 135.738 65.505 135.567 65.4052L135.525 65.3838C135.353 65.2768 135.175 65.1913 135.033 65.1271C134.926 65.0772 134.804 65.0344 134.69 64.9988C134.541 64.9488 134.398 64.8918 134.27 64.8276C134.042 64.7064 133.856 64.5424 133.728 64.3499C133.628 64.2002 133.578 64.0647 133.578 63.9364C133.578 63.7154 133.728 63.4943 133.856 63.2947C133.999 63.0808 134.127 62.8526 134.255 62.6031C134.626 62.0327 134.74 61.5051 134.576 61.1414C134.455 60.8776 134.191 60.6994 133.87 60.678C133.542 60.6637 133.393 60.8562 133.257 61.0274L132.723 61.7047C132.573 61.8901 132.423 62.0826 132.288 62.2751C132.174 62.432 132.067 62.596 131.967 62.7528C131.874 62.8883 131.788 63.0238 131.667 63.1949C131.475 63.4658 131.275 63.751 131.19 64.0861C131.068 64.571 131.225 65.0914 131.61 65.505C132.038 65.9613 132.673 66.1752 133.136 66.275" fill="#264964"/>
<path d="M127.767 54.2467C127.368 53.5978 126.598 53.1914 125.707 53.1415C124.737 53.0916 123.874 53.4766 123.439 54.1469C123.14 54.6103 122.912 55.4231 123.532 56.6352L123.568 56.7065L123.632 56.7564C124.202 57.1985 124.865 57.4552 125.507 57.4908C126.783 57.555 127.724 56.735 128.038 55.3019L128.059 55.2092L127.796 54.2823L127.767 54.2395V54.2467Z" fill="#264964"/>
<path d="M149.464 54.5176C148.573 54.5604 147.802 54.9739 147.403 55.6227L147.375 55.6655L147.111 56.5924L147.132 56.6851C147.446 58.1182 148.394 58.9382 149.663 58.874C150.298 58.8383 150.968 58.5817 151.539 58.1396L151.603 58.0897L151.638 58.0184C152.259 56.8063 152.031 56.0006 151.731 55.53C151.303 54.8598 150.433 54.4748 149.464 54.5247" fill="#264964"/>
<path d="M126.726 48.6783C127.254 48.8138 127.781 48.6783 127.988 48.0722C128.209 47.4377 127.896 46.96 127.368 46.6676C126.641 46.2684 125.835 46.1757 124.979 46.1044C123.889 46.0616 122.812 46.2755 121.856 46.9314C121.35 47.2808 121.122 47.8013 121.429 48.4002C121.7 48.9278 122.206 49.156 122.726 48.9278C124.045 48.3574 125.357 48.3218 126.719 48.6783" fill="#264964"/>
<path d="M153.471 48.4215C152.515 47.7584 151.432 47.4162 149.899 47.3591C149.364 47.3591 148.48 47.3591 147.653 47.68C147.047 47.9224 146.669 48.3645 146.84 49.0204C147.004 49.6407 147.56 49.8261 148.145 49.7477C149.599 49.5623 150.982 49.655 152.301 50.3609C152.943 50.7031 153.592 50.5534 153.956 49.9045C154.284 49.3056 153.998 48.7923 153.471 48.4215Z" fill="#264964"/>
<path d="M141.072 72.6492C139.582 72.4353 138.056 72.4709 136.544 72.3925C136.544 72.4139 136.544 72.4353 136.544 72.4566C135.033 72.3782 133.521 72.2142 132.017 72.257C130.505 72.2998 129.878 73.2837 130.534 74.5742C131.204 75.9075 131.945 77.2337 132.858 78.4102C134.505 80.5349 136.68 80.706 138.776 79.0305C140.152 77.9253 141.35 76.6705 142.212 75.109C143.025 73.6402 142.769 72.8844 141.079 72.6492M136.487 77.9111C135.86 78.2604 135.325 77.7756 134.897 77.3692C133.992 76.5136 133.421 75.4227 132.637 74.175C135.218 74.3033 137.45 74.4174 139.924 74.5386C139.047 76.1357 137.87 77.1339 136.487 77.9111Z" fill="#264964"/>
<path d="M175.738 39.1953C173.549 30.9316 168.829 24.2865 162.226 18.9034C158.248 15.6592 153.549 13.9409 148.487 13.2849C143.139 12.5862 137.792 12.6931 132.666 14.5897C123.183 18.0977 116.153 24.4576 111.639 33.3202C108.894 38.7033 106.998 44.4643 105.821 50.3679C104.659 56.1931 103.497 62.7527 104.63 68.6563C106.292 77.3549 113.429 83.0375 121.693 85.4332C122.591 85.6898 123.504 85.8182 124.43 85.8039C127.318 87.7932 130.783 89.483 134.954 90.9589C135.211 91.0516 135.482 91.0944 135.781 91.0944C136.131 91.0944 136.48 91.0373 136.808 90.9731C144.259 89.5472 150.362 86.8663 155.26 82.8735C155.638 83.8717 156.344 84.7558 157.193 84.9911C158.797 85.4403 160.43 85.1979 162.055 85.2193C166.989 85.2906 170.911 83.009 173.699 79.3299C177.128 74.8024 179.053 69.5262 179.139 63.758C179.253 55.4088 177.87 47.2521 175.738 39.2024M170.718 67.9362C169.356 71.0235 165.043 73.7899 161.535 72.9058C161.449 72.8701 161.364 72.8345 161.285 72.7988C161.221 72.7775 161.164 72.7561 161.1 72.7275C160.758 73.0199 160.451 73.355 160.187 73.74C156.358 79.2871 150.833 83.4582 143.296 86.4741C140.722 87.508 138.591 87.9857 136.594 87.9857C134.377 87.9857 132.345 87.3796 130.391 86.1319C130.056 85.918 129.699 85.754 129.343 85.59C129.051 85.4545 128.751 85.3191 128.48 85.1622C127.539 84.6132 126.662 84.0428 125.821 83.451C125.072 82.8307 124.309 82.2318 123.568 81.6044C122.491 80.6917 121.514 79.7363 120.644 78.7452C117.479 74.9521 115.789 70.4816 115.532 65.2411C115.489 64.3712 115.468 63.5085 115.461 62.6529C115.482 62.4176 115.497 62.1894 115.518 61.9541C116.274 55.3447 117.457 48.835 119.318 42.4394C119.582 41.541 119.981 40.9849 120.887 40.6141C125.5 38.7176 129.607 36.0723 132.951 32.3576C133.072 32.2221 133.2 32.0368 133.528 32.2221C133.115 33.4842 132.701 34.7604 131.888 35.8798C131.461 36.4574 131.033 37.0634 131.475 37.8049C131.974 38.6391 132.787 38.4609 133.528 38.2826C138.206 37.149 142.655 35.5019 146.498 32.5359C147.61 31.6731 148.722 30.8104 149.913 29.8835C150.683 30.9958 151.396 31.9655 152.059 32.9708C157.571 41.3129 160.986 50.4178 162.269 60.3C162.376 61.1485 162.269 62.0468 163.232 62.5103C164.266 63.0094 164.914 62.3178 165.684 61.8044C165.699 61.7973 165.713 61.783 165.727 61.7759C166.062 61.5192 166.433 61.3196 166.818 61.177C167.203 61.0201 167.602 60.9274 168.016 60.9488C168.893 60.9346 169.756 61.2625 170.383 62.0397C171.666 63.644 171.495 66.168 170.711 67.9433" fill="#264964"/>
<path d="M77.1801 55.6798C75.1052 54.6103 73.173 53.6335 71.4262 52.7636C71.1338 52.621 70.8914 52.564 70.6419 52.564C70.3923 52.564 70.157 52.621 69.9004 52.7493C68.6526 53.3483 67.904 54.4035 67.74 55.7867C67.6045 56.899 68.1392 57.7332 69.3656 58.3321L69.5011 58.3892C69.8433 58.546 70.1998 58.7029 70.5492 58.8669L70.7702 58.9738C71.7328 59.4159 72.731 59.8722 73.7149 60.3L73.8361 60.357C73.9502 60.4141 74.0571 60.4711 74.1712 60.5353L74.4564 60.685C74.5848 60.7492 74.7274 60.8133 74.8913 60.849L77.3369 55.801C77.2799 55.7511 77.23 55.7154 77.1872 55.694" fill="white"/>
<path d="M85.3296 59.5156C84.6522 59.1378 83.9178 58.7599 82.941 58.2822C82.3421 57.9898 81.7361 57.6975 81.13 57.4123C80.6737 57.1913 80.2174 56.9774 79.7539 56.7563L77.18 62.0824C77.6221 62.3035 78.057 62.5174 78.4919 62.7384L78.934 62.9523C79.3546 63.1591 79.7682 63.3658 80.1817 63.5655C80.9803 63.9505 81.6862 64.2856 82.4063 64.6136C82.7343 64.7562 83.0765 64.8346 83.4116 64.8346C84.2886 64.8346 85.0729 64.3426 85.5078 63.5298C86.4062 61.8329 86.3278 60.0718 85.3224 59.5156" fill="white"/>
<path d="M83.7824 57.1557C83.1336 56.7921 82.3992 56.4142 81.4723 55.965C80.9019 55.6869 80.3315 55.4089 79.754 55.1451C79.5828 55.0595 79.4046 54.9811 79.2335 54.8955C77.9358 57.391 76.6382 59.8936 75.2336 62.3249C75.5045 62.4604 75.7754 62.5888 76.0392 62.7242L76.4528 62.931C76.8449 63.1235 77.2371 63.316 77.6221 63.5085C78.3779 63.8793 79.0552 64.2001 79.754 64.5138C80.2459 64.7349 80.7593 64.8489 81.2869 64.8489C82.6487 64.8489 83.8537 64.1074 84.5168 62.8597C85.7717 60.4925 85.4579 58.0969 83.7753 57.1628" fill="#C3DCD9"/>
<path d="M86.1424 57.0559L83.3617 55.6941L78.9911 53.5622C76.5455 52.3715 74.542 51.4018 72.6882 50.5177C71.8896 50.1327 71.1481 49.9402 70.4422 49.9402C70.1142 49.9402 69.7791 49.983 69.4583 50.0614C67.4049 50.5748 65.4085 52.892 65.0163 55.2164C64.6313 57.4409 65.6152 59.2234 67.8683 60.3785C68.6241 60.7706 69.4725 61.1984 70.5492 61.7189C71.2408 62.0611 71.9395 62.3891 72.624 62.7242C72.624 62.7242 73.8361 63.3089 74.0928 63.4301L74.7059 63.7296C75.3191 64.029 75.9323 64.3213 76.5383 64.6279L76.6239 64.6636C76.9947 64.849 77.3583 65.0272 77.7291 65.2055L78.549 65.6047C79.6898 66.1609 80.6167 66.6029 81.4509 66.9951C82.0356 67.266 82.827 67.5869 83.7254 67.5869C84.0391 67.5869 84.3599 67.5512 84.6737 67.4657C86.8911 66.8953 88.4098 64.9488 88.8233 62.1396C89.1441 59.9649 88.1246 58.0256 86.1638 57.063M74.8913 60.8419C74.7273 60.8063 74.5776 60.7421 74.4564 60.6851L74.1712 60.5353C74.0642 60.4783 73.9502 60.4141 73.8361 60.3571L73.7149 60.3C72.7309 59.8651 71.7327 59.4088 70.7702 58.9739L70.5492 58.8669C70.1998 58.7101 69.8433 58.5461 69.5011 58.3892L69.3656 58.3322C68.1392 57.7332 67.6116 56.899 67.74 55.7868C67.9039 54.4035 68.6526 53.3483 69.9003 52.7494C70.157 52.6211 70.3994 52.564 70.6419 52.564C70.8843 52.564 71.141 52.6282 71.4262 52.7708C73.173 53.6406 75.1052 54.6174 77.18 55.6869C77.23 55.7083 77.2799 55.7511 77.3298 55.7939L74.8842 60.8419H74.8913ZM85.5079 63.537C85.0729 64.357 84.2815 64.8418 83.4116 64.8418C83.0694 64.8418 82.7343 64.7705 82.4063 64.6208C81.6862 64.2928 80.9803 63.9577 80.1818 63.5727C79.7682 63.3659 79.3547 63.1663 78.934 62.9595L78.492 62.7456C78.057 62.5246 77.6221 62.3107 77.18 62.0897L79.754 56.7636C80.2174 56.9846 80.6737 57.1985 81.1301 57.4195C81.7432 57.7047 82.3493 57.9971 82.9411 58.2894C83.9179 58.7671 84.6523 59.145 85.3296 59.5229C86.3278 60.079 86.4134 61.8401 85.515 63.537" fill="#264964"/>
<path d="M72.5883 31.8371C75.6899 30.0047 79.704 31.0457 81.5364 34.1472C83.3688 37.2488 82.3279 41.2629 79.2263 43.0953C76.1248 44.9277 72.1106 43.8868 70.2782 40.7852C68.4458 37.6837 69.4868 33.6695 72.5883 31.8371Z" fill="white"/>
<path d="M80.2531 34.9529C80.0677 34.6464 79.7753 34.3968 79.4474 34.2899C79.2976 34.2399 79.1408 34.2114 78.991 34.2114C78.7344 34.2114 78.4848 34.2827 78.2495 34.4182L72.0464 38.0759C71.6899 38.2898 71.4547 38.6106 71.3762 38.9885C71.3121 39.3236 71.3762 39.6801 71.5616 39.9867C71.8325 40.443 72.3174 40.7282 72.8307 40.7282C73.0874 40.7282 73.337 40.6569 73.5651 40.5214L79.7682 36.8638C80.1318 36.6499 80.3743 36.3148 80.4384 35.9226C80.4955 35.5946 80.4313 35.2453 80.2531 34.9529Z" fill="#264964"/>
<path d="M83.3974 33.0565C81.843 30.4185 78.9697 28.7786 75.8966 28.7786C74.3494 28.7786 72.8308 29.1921 71.4975 29.9835C69.5011 31.16 68.0822 33.0494 67.4975 35.3025C66.9129 37.5556 67.248 39.8942 68.4244 41.8906C69.9788 44.5287 72.8521 46.1686 75.9252 46.1686C77.4724 46.1686 78.9911 45.755 80.3244 44.9636C84.4526 42.5251 85.8358 37.1848 83.3974 33.0565ZM70.5563 40.6214C68.8166 37.6768 69.8005 33.8622 72.7523 32.1225C73.7077 31.5593 74.7915 31.2669 75.8966 31.2669C78.0927 31.2669 80.1461 32.4362 81.2584 34.3185C82.0997 35.7445 82.335 37.413 81.9215 39.0243C81.5079 40.6286 80.4955 41.9833 79.0695 42.8175C78.1141 43.3807 77.0303 43.6731 75.9252 43.6731C73.7291 43.6731 71.6757 42.5038 70.5634 40.6214" fill="#264964"/>
<path d="M59.9184 66.8669C59.9184 67.1734 59.8685 67.259 59.8471 67.2804C59.8185 67.3089 59.733 67.3517 59.4193 67.3517C57.6011 67.3374 55.783 67.3374 53.9648 67.3374H42.8064C40.974 67.3374 39.1487 67.3374 37.3021 67.3517C37.0098 67.3517 36.9385 67.3089 36.9242 67.2947C36.9099 67.2804 36.86 67.202 36.86 66.9168C36.8814 63.9436 36.8885 60.9704 36.8957 57.99C36.9028 53.983 36.9171 49.8333 36.9527 45.755C36.9598 44.3433 37.6301 43.0242 38.8921 41.9191C39.0988 41.7337 39.3056 41.5555 39.5266 41.3701C40.5819 40.4646 41.6728 39.5234 42.5569 38.3684C43.4196 37.2347 43.933 36.1224 44.1041 34.9602C44.1611 34.5895 44.2182 34.5039 44.6816 34.5039C45.8224 34.5182 46.9632 34.5253 48.1111 34.5253H52.1324L52.382 34.5182C52.5816 34.5182 52.5887 34.5182 52.6101 34.6893C53.0522 37.6126 54.9844 39.5377 57.0093 41.1776C57.8721 41.8763 58.8346 42.7604 59.3765 44.0224C59.6973 44.7568 59.8399 45.3486 59.8399 45.9546C59.8542 53.655 59.8685 60.1576 59.9112 66.8811" fill="white"/>
<path d="M54.2643 31.2598V31.381C54.2429 31.9015 54.2286 32.3506 54.136 32.4362C54.0361 32.536 53.537 32.536 52.9595 32.536H48.3179C48.3179 32.536 45.6014 32.5289 45.3162 32.5289C44.5247 32.5289 43.7404 32.5289 42.9561 32.5503H42.9062C42.564 32.5503 42.5284 32.5503 42.5284 32.1653V32.0797C42.5284 31.4309 42.5284 30.9175 42.6424 30.8034C42.7565 30.6894 43.2627 30.6894 43.9472 30.6894C43.9472 30.6894 48.6031 30.6894 49.0951 30.6894C50.8704 30.6894 52.3107 30.6894 53.6369 30.668H53.6868C53.9648 30.668 54.1288 30.6965 54.193 30.7607C54.2286 30.7963 54.2857 30.9104 54.2714 31.2526" fill="white"/>
<path d="M54.4354 50.9456H51.0843C50.7278 50.9456 50.4355 50.6533 50.4355 50.2968V46.9457C50.4355 46.5892 50.1432 46.2969 49.7867 46.2969H47.006C46.6495 46.2969 46.3572 46.5892 46.3572 46.9457V50.2968C46.3572 50.6533 46.0648 50.9456 45.7083 50.9456H42.3572C42.0007 50.9456 41.7084 51.2379 41.7084 51.5944V54.3751C41.7084 54.7316 42.0007 55.024 42.3572 55.024H45.7083C46.0648 55.024 46.3572 55.3163 46.3572 55.6728V59.0239C46.3572 59.3804 46.6495 59.6727 47.006 59.6727H49.7867C50.1432 59.6727 50.4355 59.3804 50.4355 59.0239V55.6728C50.4355 55.3163 50.7278 55.024 51.0843 55.024H54.4354C54.7919 55.024 55.0842 54.7316 55.0842 54.3751V51.5944C55.0842 51.2379 54.7919 50.9456 54.4354 50.9456Z" fill="#C3DCD9"/>
<path d="M62.2784 46.6033C62.257 43.6729 61.0092 41.2772 58.5779 39.4805C57.487 38.6676 56.5316 37.6623 55.6546 36.4003C55.3195 35.9226 55.0985 35.395 54.9844 34.8317C56.168 34.7604 56.5245 34.297 56.5245 32.9779V32.3719C56.5245 31.6945 56.5245 30.9245 56.5459 30.1901C56.5673 29.6126 56.4318 29.1777 56.1181 28.8425C55.8258 28.5431 55.4122 28.3862 54.8989 28.3862H47.8901H41.9294C41.4018 28.3862 40.9811 28.5431 40.6817 28.8497C40.3751 29.1705 40.2325 29.6126 40.2539 30.1687C40.2753 30.8603 40.2824 31.5519 40.2824 32.1437V32.2364C40.2824 33.9761 40.425 34.461 41.8439 34.8103C41.8011 34.9886 41.7298 35.1811 41.6514 35.3736C41.0881 36.8139 40.04 38.083 38.3644 39.3521C36.3681 40.8708 35.1631 42.746 34.6854 45.0918C34.4501 46.2325 34.5 47.3448 34.5499 48.4143V48.6425C34.5713 48.9633 34.5856 49.277 34.5856 49.5979C34.6141 54.4962 34.5998 59.4515 34.5856 64.2429L34.5713 67.9647C34.5713 68.4995 34.7139 68.8987 34.9991 69.1839C35.2843 69.4763 35.6907 69.6189 36.2326 69.6189H49.1664H60.5672C61.1091 69.6189 61.5297 69.4691 61.8149 69.1839C62.1144 68.8845 62.257 68.4638 62.2499 67.9005C62.2213 65.9398 62.2142 63.7652 62.2285 60.8561C62.2285 59.8009 62.2356 58.7457 62.2499 57.6904V56.1931L62.2641 55.9222C62.2855 53.0345 62.314 49.7548 62.2855 46.589M42.8991 31.0528C43.0845 31.0172 43.5479 31.0172 43.9543 31.0172C43.9615 31.0172 48.6102 31.0172 49.1022 31.0172C50.8847 31.0172 52.3249 31.0172 53.6796 30.9958H53.6939C53.8151 30.9958 53.8935 30.9958 53.9434 31.0101C53.9434 31.0528 53.9577 31.1313 53.9434 31.2382V31.3666C53.9363 31.5662 53.922 31.9869 53.8935 32.1722C53.7081 32.2008 53.2875 32.2008 52.9666 32.2008H48.325C48.325 32.2008 45.6085 32.1936 45.3233 32.1936C44.5319 32.1936 43.7404 32.1936 42.9633 32.215C42.9633 32.215 42.8777 32.215 42.8635 32.215C42.8635 32.2008 42.8635 32.0724 42.8635 32.0724C42.8635 31.6945 42.8635 31.2382 42.8991 31.0457M59.5975 67.0164C59.5619 67.0164 59.5048 67.0164 59.4406 67.0164C57.6225 67.0022 55.8044 67.0022 53.9862 67.0022H42.8278C40.9954 67.0022 39.1701 67.0022 37.3235 67.0164C37.2807 67.0164 37.2379 67.0164 37.2094 67.0164C37.2094 66.9879 37.2094 66.9522 37.2094 66.9166C37.2308 63.9434 37.2379 60.9702 37.245 57.9899V57.669C37.2522 53.7618 37.2664 49.7262 37.3021 45.7548C37.3092 44.4429 37.9438 43.2023 39.1274 42.1685C39.327 41.9973 39.5266 41.8191 39.7334 41.6408L39.5195 41.3913L39.7904 41.5838C40.8457 40.6712 41.9366 39.7371 42.8278 38.5607C43.7333 37.3771 44.2609 36.2149 44.4392 35.0028C44.4534 34.8888 44.4677 34.846 44.4606 34.8389C44.482 34.8389 44.539 34.8175 44.6959 34.8175C45.8367 34.8317 46.9846 34.8389 48.1325 34.8389H52.1538L52.3178 34.8317C52.8098 37.8049 54.7705 39.7514 56.8239 41.4127C57.6582 42.09 58.5851 42.9456 59.0984 44.1363C59.3979 44.8351 59.5333 45.3912 59.5333 45.9402C59.5476 54.0256 59.5619 60.2572 59.6046 66.8667C59.6046 66.9309 59.6046 66.9808 59.6046 67.0164" fill="#264964"/>
</g>
<defs>
<clipPath id="clip0_66_304">
<rect width="170" height="215.568" fill="white" transform="translate(34.5 12.8857)"/>
</clipPath>
</defs>
</svg>
