<svg width="276" height="254" viewBox="0 0 276 254" fill="none" xmlns="http://www.w3.org/2000/svg">
<path d="M76.5363 240.366C66.1118 235.786 56.7392 228.509 47.647 221.812C32.6413 210.768 21.4455 195.237 12.4001 178.752C3.54162 162.57 -0.385084 147.875 0.666713 134.692C1.36791 125.694 -0.198097 116.417 2.23272 107.582C4.71029 98.4444 6.13606 88.7721 9.89915 79.9834C22.3571 50.9666 43.5566 30.599 73.5445 18.8807C86.1427 13.9515 98.7643 9.51065 111.386 5.53479C118.608 3.25623 129.266 1.74493 143.384 1.00091C153.715 0.466148 164.35 1.79144 175.265 5.02328C190.2 9.4409 202.097 14.0445 211.003 18.8109C240.593 34.6446 260.764 57.965 271.516 88.7721C273.269 93.8175 274.344 99.3047 274.695 105.234C275.279 114.836 275.56 124.113 275.489 133.111C275.419 140.482 274.531 147.294 272.825 153.548C264.153 185.309 245.899 213.698 217.968 230.508C204.668 238.506 189.266 245.063 171.736 250.155C165.565 251.945 159.722 252.085 153.481 253.085C151.027 253.48 148.479 253.643 145.885 253.573C136.606 253.34 127.023 254.108 118.351 252.689C103.906 250.341 89.9759 246.249 76.5363 240.366Z" fill="white"/>
<g clip-path="url(#clip0_66_343)">
<path d="M212.071 180.221C211.967 177.28 206.002 158.035 206.002 158.035L195.179 122.763C194.362 121.248 193.428 119.746 192.196 118.542C190.833 117.213 189.165 116.286 187.47 115.449C186.736 115.089 185.989 114.715 185.262 114.411C184.543 114.113 183.816 113.83 183.124 113.463C182.494 113.131 181.754 112.681 181.477 111.996C181.117 111.117 181.636 110.273 181.581 109.387C181.574 109.262 181.616 109.138 181.699 109.055C181.858 107.062 182.114 103.782 182.28 101.657C182.529 98.4254 180.737 91.1108 178.744 88.0383C176.744 84.9658 173.803 81.049 173.803 81.049C173.803 81.049 177.796 79.4712 179.373 77.5405C180.951 75.6098 181.636 73.7206 180.661 71.5131C179.685 69.3056 177.588 67.9492 177.588 67.9492C177.588 67.9492 178.958 61.6173 179.27 59.05C179.581 56.4826 178.003 43.8672 175.789 40.0197C173.574 36.1721 168.675 29.9924 168.675 29.9924C168.675 29.9924 159.277 23.4321 157.492 22.6087C155.707 21.7782 147.569 20.4219 146.586 20.1935C145.603 19.9652 139.853 20.1935 139.853 20.1935C139.853 20.1935 131.964 22.4426 131.417 22.8163C130.87 23.1899 125.383 26.1864 122.85 27.8333C120.317 29.4803 116.573 32.8504 115.3 34.795C114.027 36.7395 111.854 39.812 111.03 41.978C110.207 44.151 109.307 48.0401 109.086 50.8842C108.864 53.7284 108.11 56.1989 108.338 59.569C108.56 62.9391 109.536 67.4579 109.536 67.4579L109.833 68.5513C109.833 68.5513 107.736 69.6862 107.1 71.5131C106.463 73.34 106.242 74.0112 107.1 76.0319C107.958 78.0526 108.913 77.9765 110.117 79.1044C111.328 80.2255 113.916 81.049 113.916 81.049C113.916 81.049 112.297 83.5195 111.1 85.8377C109.902 88.1559 106.899 93.9204 106.532 96.6954C106.159 99.4634 106.38 107.027 106.532 107.996C106.685 108.972 107.785 111.74 107.785 111.74C107.785 111.74 102.346 113.387 101.225 114.286C100.104 115.186 98.9756 115.933 97.1833 118.854C95.384 121.774 89.8479 135.323 89.1767 138.244C88.5054 141.164 84.0835 157.558 84.0835 157.558C84.0835 157.558 79.1425 175.225 78.6166 177.848C78.0907 180.47 76.8935 182.242 78.1668 185.176C79.4401 188.103 87.073 195.944 87.7512 196.483C88.4224 197.016 90.6714 196.442 90.9206 195.342L91.2389 195.937C91.2389 195.937 92.2907 198.982 92.6298 200.151C92.9689 201.321 89.322 207.832 89.322 207.832C89.322 207.832 82.4157 222.102 82.5265 222.136C82.6303 222.171 83.4814 223.52 83.6614 223.555C83.8413 223.589 141.825 222.185 141.825 222.185L184.944 222.607L201.732 223.133L203.338 221.977L194.086 202.109C194.086 202.109 200.757 196.525 201.732 195.798C202.708 195.072 209.22 189.605 210.279 187.183C211.331 184.768 212.175 183.19 212.071 180.242M128.296 99.6364C128.22 99.8371 127.971 99.844 127.812 99.754C126.822 99.2074 125.632 99.408 124.635 99.844C123.59 100.294 122.656 101.007 121.93 101.879C121.791 102.045 121.535 101.948 121.411 101.823C121.244 101.671 121.134 101.394 121.189 101.166C121.957 97.9894 121.992 94.6885 122.068 91.443C122.068 91.2008 122.213 90.9655 122.49 91.0347C122.511 91.0347 122.539 91.0486 122.559 91.0624C122.698 90.9932 122.878 91.0416 123.002 91.1662C123.777 91.9343 124.601 92.6471 125.438 93.346C126.199 93.9758 126.94 94.6747 127.756 95.2283C128.061 95.429 128.365 95.6227 128.594 95.9134C128.864 96.2525 128.974 96.6746 129.009 97.1036C129.078 98.0033 128.607 98.8337 128.296 99.6433M167.692 102.169C167.692 102.335 167.602 102.605 167.381 102.591C165.886 102.501 164.855 101.311 163.741 100.467C163.471 100.266 163.194 100.065 162.917 99.8717C162.62 99.6641 162.295 99.4357 161.928 99.3804C161.257 99.2835 160.717 99.8925 160.142 100.135C159.831 100.266 159.554 99.8925 159.492 99.6364C159.36 99.0897 159.298 98.5361 159.167 97.9894C159.063 97.5604 158.918 97.1521 158.89 96.7092C158.855 96.0933 159.194 95.7265 159.665 95.3944C160.357 94.8961 161.063 94.4256 161.762 93.9412C163.139 92.9723 164.571 91.9136 165.519 90.4949C165.789 90.0936 166.246 90.4742 166.336 90.8686C166.343 90.8825 166.357 90.8963 166.364 90.9032C166.62 91.3046 166.807 91.7406 166.883 92.2111C166.952 92.6471 166.938 93.0831 166.959 93.519C167 94.5294 167.27 95.5189 167.339 96.5293C167.478 98.4046 167.748 100.287 167.692 102.176M185.491 180.927C184.937 181.688 184.141 182.221 183.429 182.83C183.436 182.941 183.408 183.044 183.318 183.107C183 183.335 182.64 183.889 182.197 183.84C181.671 183.778 181.401 183.031 181.332 182.595C181.242 182.034 181.276 181.453 181.221 180.885C181.152 180.173 181.09 179.46 181.048 178.74C180.965 177.349 180.93 175.958 180.944 174.567C180.951 173.509 180.944 172.436 181.02 171.377C181.09 170.381 181.228 169.329 181.761 168.464C181.941 168.173 182.238 168.374 182.363 168.637C182.494 168.658 182.64 168.727 182.764 168.858C183.069 169.156 183.256 169.585 183.408 169.979C183.872 171.149 184.273 172.346 184.605 173.564C184.999 174.996 185.249 176.45 185.505 177.903C185.602 178.456 185.802 178.989 185.865 179.55C185.927 180.083 185.788 180.512 185.484 180.934" fill="white"/>
<path d="M102.138 116.653L109.688 113.179L122.732 118.321C122.732 118.321 127.902 119.435 129.334 121.822C130.767 124.21 133.984 128.03 135.479 129.891C136.974 131.753 138.69 134.223 140.891 134.936C143.091 135.649 143.804 135.573 145.479 134.023C147.147 132.472 152.399 125.476 154.226 123.331C156.053 121.186 158.758 120.833 161.54 119.463C164.322 118.086 174.82 113.94 174.82 113.94C174.82 113.94 177.055 113.684 178.481 114.017C179.906 114.349 183.643 116.335 183.643 116.335C183.643 116.335 182.377 121.905 182.135 124.646C181.899 127.386 179.512 156.644 179.111 159.669C178.716 162.693 178.398 175.329 178.398 176.284C178.398 177.239 178.792 184.574 178.792 184.574C178.792 184.574 176.965 188.685 175.609 189.557C174.26 190.428 170.121 191.148 167.893 191.466C165.665 191.785 160.025 191.466 157.637 191.466C155.25 191.466 150.005 190.318 147.299 191.605C144.593 192.892 144.295 193.356 142.296 193.522C140.303 193.688 138.15 192.02 135.209 191.46C132.268 190.899 126.386 191.3 123.999 191.46C121.611 191.619 118.483 191.854 118.483 191.854C118.483 191.854 119.245 191.515 118.483 189.217C117.722 186.92 116.29 186.048 116.29 186.048L113.826 184.934L105.481 163.98C105.481 163.98 105.64 155.696 105.557 152.942C105.481 150.188 105.536 135.794 104.671 132.376C103.806 128.957 102.138 116.632 102.138 116.632" fill="#C3DCD9"/>
<path d="M173.761 69.4786H165.07C164.032 67.1258 161.222 65.4373 157.928 65.4373C155.637 65.4373 153.292 66.3715 151.797 67.9008C147.755 72.0183 152.503 77.5336 157.928 77.5336C162.101 77.5336 165.499 74.8209 165.499 71.4854C165.499 71.4854 165.499 71.4854 165.499 71.4785H173.761C174.958 71.4785 174.958 69.4855 173.761 69.4855M162.668 72.9663C161.893 74.6272 159.921 75.5129 157.935 75.5406C157.451 75.5406 156.973 75.4991 156.516 75.3884C154.634 74.9386 152.883 73.4853 152.738 71.7346C152.51 69.0288 155.797 67.2019 158.634 67.4925C161.665 67.8109 163.886 70.3782 162.675 72.9733" fill="#C3DCD9"/>
<path d="M130.656 65.4513C127.362 65.4513 124.552 67.1398 123.514 69.4926H114.823C113.625 69.4926 113.625 71.4856 114.823 71.4856H123.085C123.085 71.4856 123.085 71.4856 123.085 71.4925C123.085 74.828 126.483 77.5407 130.656 77.5407C136.088 77.5407 140.828 72.0323 136.787 67.9079C135.292 66.3855 132.946 65.4443 130.656 65.4443M135.853 71.7486C135.708 73.4993 133.957 74.9526 132.074 75.4024C131.618 75.5131 131.133 75.5615 130.656 75.5546C128.67 75.5269 126.698 74.6412 125.922 72.9873C124.711 70.3991 126.933 67.8249 129.964 67.5065C132.801 67.209 136.081 69.0428 135.86 71.7486" fill="#C3DCD9"/>
<path d="M148.876 70.3023C145.873 68.939 142.856 68.9182 139.846 70.2884C139.195 70.586 138.559 70.9804 139.008 71.6724C139.424 72.316 140.123 72.1153 140.745 71.8247C141.901 71.2918 143.126 71.0566 144.448 71.0635C145.769 71.0704 146.967 71.3956 148.129 71.8939C149.029 72.2814 149.79 71.9769 149.811 71.3126C149.825 70.9182 149.569 70.6137 148.876 70.2953" fill="#C3DCD9"/>
<path d="M211.213 173.986C210.078 169.855 208.971 165.703 207.905 161.689C206.95 158.118 205.967 154.423 204.978 150.79C201.836 139.275 198.736 130.009 195.234 121.615C193.733 118.009 191.394 115.518 188.287 114.203C187.615 113.92 186.93 113.65 186.273 113.387C184.743 112.778 183.159 112.148 181.685 111.359C181.408 111.214 181.117 111.069 180.82 111.069C180.543 111.069 180.308 111.193 180.128 111.442C179.595 112.183 180.238 112.667 180.619 112.958L180.695 113.02C181.913 113.954 183.373 114.709 185.29 115.401C189.055 116.764 191.622 119.4 193.366 123.705C194.356 126.154 195.158 128.701 195.94 131.172C196.452 132.805 196.985 134.493 197.566 136.14C200.148 143.427 202.21 151.011 204.21 158.354L204.341 158.831C205.047 161.419 205.691 164.056 206.32 166.603C207.082 169.71 207.87 172.921 208.77 176.055C209.4 178.27 209.718 180.595 209.711 182.969C209.704 185.37 208.819 187.446 207.151 188.975C204.805 191.134 202.341 193.231 199.954 195.266L199.892 195.314C198.819 196.227 197.705 197.176 196.625 198.11L196.521 198.2C194.625 199.84 192.833 201.39 190.425 201.591C190.909 201.009 191.456 200.483 192.19 200.137C192.266 200.103 192.335 200.054 192.397 199.999C193.172 199.66 193.2 198.691 193.228 197.951C193.234 197.695 193.241 197.459 193.276 197.266H193.234L193.283 197.231C193.29 195.314 192.397 193.397 190.702 191.695C188.39 189.377 184.84 187.75 182.065 187.75H181.955C181.09 187.764 180.612 188.152 180.605 188.844C180.605 189.619 181.29 189.778 181.795 189.896C184.058 190.422 185.871 191.21 187.352 192.318C188.972 193.522 190.48 194.961 190.556 197.3C190.556 197.501 190.549 197.729 190.529 197.971C190.515 198.179 190.501 198.387 190.501 198.601C189.844 198.947 189.172 199.418 188.653 200.158C185.968 203.971 182.079 205.777 176.765 205.68C175.65 205.66 174.751 205.971 173.927 206.663C173.429 207.078 173.298 207.576 173.547 208.061C173.734 208.421 174.031 208.628 174.377 208.649C174.605 208.663 174.841 208.601 175.076 208.462C175.678 208.109 176.204 207.964 176.785 207.999C177.09 208.019 177.408 208.089 177.761 208.206H177.782H177.81C181.65 207.874 185.622 207.12 188.626 203.916C188.667 203.867 188.716 203.819 188.757 203.77C189.048 203.86 189.352 203.923 189.664 203.964C190.01 204.006 190.356 204.026 190.695 204.026C191.947 204.026 193.089 203.729 194.127 203.293C193.94 203.424 193.809 203.591 193.74 203.784C193.58 204.248 193.823 204.732 194.023 205.12L194.037 205.141C194.072 205.21 194.106 205.272 194.134 205.334C195.477 208.206 196.701 211.189 197.899 214.088C198.252 214.939 198.604 215.798 198.957 216.649L199.027 216.808C199.781 218.621 200.563 220.496 201.905 222.06C201.905 222.06 201.912 222.074 201.912 222.081C188.812 221.313 174.502 220.946 158.17 220.946C155.374 220.946 152.551 220.953 149.569 220.974C157.437 219.417 165.333 219.216 172.772 219.154C173.228 219.154 173.678 219.154 174.135 219.154C181.408 219.154 189.165 219.631 199.283 220.704L200.044 220.787L199.594 220.171C198.611 218.815 197.255 218.088 195.449 217.957C193.636 217.825 191.809 217.673 190.037 217.528C185.865 217.182 181.553 216.829 177.291 216.732C175 216.683 173 216.656 171.159 216.656C161.976 216.656 154.973 217.265 148.461 218.635C146.323 219.085 144.524 219.292 142.821 219.292C141.133 219.292 139.5 219.085 137.832 218.656C131.978 217.154 125.846 216.967 119.916 216.78H119.819C118.816 216.746 117.812 216.718 116.809 216.676C115.681 216.635 114.49 216.614 113.279 216.614C108.082 216.614 102.823 217.002 97.7369 217.382C95.8338 217.521 93.8616 217.673 91.9032 217.797C90.45 217.887 88.9276 218.06 87.6681 219.05C87.592 219.112 87.4951 219.168 87.3913 219.237C87.0245 219.465 86.4778 219.818 86.6716 220.489L86.7547 220.766L87.0384 220.739C96.9618 219.652 105.19 219.154 112.933 219.154C121.196 219.154 128.746 219.735 135.964 220.939C134.019 220.932 132.178 220.925 130.372 220.925C112.691 220.925 98.0483 221.292 84.3188 222.088C85.2045 220.884 85.9035 219.666 86.5678 218.15C87.3013 216.483 88.0003 214.773 88.6854 213.106C89.7234 210.573 90.7891 207.95 92.0139 205.445C92.18 205.099 92.2907 204.732 92.3876 204.386C92.5191 203.902 92.3669 203.473 91.9655 203.21C91.7787 203.085 91.578 203.023 91.3773 203.023C91.0659 203.023 90.7683 203.175 90.5538 203.452C90.3254 203.743 90.1455 204.054 89.9656 204.359C89.8895 204.497 89.8064 204.629 89.7234 204.767C88.1387 207.32 86.9692 210.116 85.8412 212.822C84.6855 215.59 83.4884 218.455 81.8483 221.029C81.5646 221.472 81.4677 221.977 81.5715 222.399C81.6614 222.766 81.9037 223.064 82.2635 223.257C83.2669 223.811 84.3949 224.434 85.8827 224.434C85.9519 224.434 86.0211 224.434 86.1042 224.434C95.2733 224.088 105.66 223.693 115.944 223.693H116.124C118.04 223.693 119.964 223.687 121.895 223.673C123.819 223.666 125.736 223.652 127.659 223.652C132.379 223.652 137.97 223.7 143.645 224.046C144.192 224.081 144.752 224.095 145.354 224.095C147.112 224.095 148.897 223.949 150.627 223.804C152.35 223.666 154.129 223.52 155.88 223.52C156.177 223.52 156.475 223.52 156.772 223.534C160.156 223.638 163.589 223.652 166.91 223.673H166.966C169.187 223.687 171.491 223.7 173.747 223.735C175.526 223.763 177.339 223.776 179.09 223.783H179.166C183.948 223.804 188.889 223.832 193.74 224.275C194.888 224.379 196.155 224.427 197.726 224.427C198.535 224.427 199.386 224.413 200.072 224.406L201.11 224.392C202.618 224.372 203.663 223.922 204.141 223.078C204.604 222.254 204.459 221.168 203.732 219.936C202.701 218.185 201.746 216.199 200.743 213.68C199.331 210.137 197.864 207.078 196.252 204.324C196.203 204.248 196.162 204.158 196.113 204.068C195.885 203.632 195.573 203.03 194.923 203.03C194.84 203.03 194.757 203.044 194.667 203.065C195.698 202.566 196.611 201.944 197.393 201.355C199.753 199.577 201.975 197.563 204.127 195.605C205.559 194.304 207.04 192.954 208.549 191.695C211.241 189.446 212.604 186.512 212.715 182.719C212.597 179.875 212.154 177.183 211.282 174" fill="#264964"/>
<path d="M86.8792 197.798C87.3152 198.165 87.8619 198.622 88.4432 198.622C88.803 198.622 89.1352 198.449 89.4327 198.11C90.4154 196.989 89.4466 196.13 88.7407 195.508C87.2944 194.22 85.8274 192.774 83.9935 190.83C80.2221 186.823 79.011 182.595 80.2774 177.903C80.8103 175.931 81.3154 173.91 81.8068 171.945C81.9521 171.35 82.1043 170.754 82.2497 170.159C82.5195 169.094 82.7825 168.028 83.0524 166.969C84.9277 159.468 86.8723 151.71 89.239 144.216C89.7441 142.624 90.2355 141.033 90.7268 139.441C92.5191 133.663 94.3806 127.684 96.6227 121.947C98.1798 117.968 100.685 115.366 104.269 114.003C105.764 113.435 107.335 112.778 108.761 111.816C108.858 111.837 108.954 111.85 109.058 111.85C109.453 111.85 109.868 111.684 110.228 111.518C110.498 111.394 110.754 111.248 110.975 111.117C111.543 110.785 112.11 110.46 112.677 110.127C117.03 107.602 121.535 104.993 125.051 101.193C125.327 100.889 125.646 100.55 126.289 100.55C126.338 100.55 126.386 100.55 126.442 100.55C128.393 105.775 131.279 110.729 134.074 115.518C134.898 116.93 135.742 118.383 136.559 119.829C132.614 118.335 128.524 116.611 123.701 114.418C121.155 113.255 118.442 112.418 115.819 111.608L114.899 111.325C114.38 111.165 113.965 111.089 113.591 111.089C112.684 111.089 111.999 111.546 111.501 112.494L111.473 112.542L111.522 112.563C112.311 112.861 113.086 113.151 113.847 113.442C115.542 114.079 117.148 114.688 118.767 115.311C119.106 115.442 119.438 115.567 119.777 115.698C122.663 116.805 125.653 117.947 128.012 119.85C130.04 121.483 131.728 123.58 133.369 125.615C133.811 126.161 134.268 126.729 134.725 127.275C136.4 129.282 138.462 131.573 141.084 133.33C142.254 134.112 143.119 134.452 143.977 134.452C144.835 134.452 145.728 134.106 146.925 133.303C150.032 131.213 152.392 128.362 154.669 125.608C156.06 123.933 157.492 122.196 159.084 120.653C159.222 120.514 159.361 120.376 159.492 120.238C159.935 119.774 160.357 119.338 160.959 119.04C165.886 116.605 170.488 114.681 175.014 113.158L175.166 113.11C175.657 112.951 176.163 112.792 176.266 112.1V112.079L176.259 112.065C175.81 111.408 175.221 111.082 174.46 111.082C173.92 111.082 173.346 111.241 172.806 111.401C168.661 112.639 165.09 113.982 161.893 115.49C159.52 116.611 157.063 117.656 154.689 118.674C153.638 119.123 152.579 119.573 151.534 120.03L151.146 119.732L151.596 119.013C155.271 113.124 159.063 107.041 161.582 100.474C162.558 100.695 163.077 101.256 163.582 101.809C163.679 101.92 163.782 102.024 163.879 102.128C167.07 105.401 171.056 107.685 174.917 109.892C175.81 110.404 176.723 110.93 177.623 111.456C178.114 111.747 178.529 111.885 178.882 111.885C179.318 111.885 179.671 111.677 179.941 111.262C180.543 110.335 179.899 109.643 179.194 109.096C178.868 108.847 178.502 108.64 178.149 108.446L177.927 108.321L176.799 107.691C172.571 105.332 168.204 102.889 164.551 99.5811C163.706 98.813 162.952 98.46 162.177 98.46C161.637 98.46 161.077 98.633 160.475 98.9929C160.184 97.6781 159.949 96.467 159.769 95.3183L159.755 95.2422L159.693 95.2837C159.042 95.7612 158.336 96.2525 157.554 96.5916L157.527 96.6054V96.6401C157.679 98.204 157.928 99.7887 158.288 101.47C156.745 104.093 154.987 107.096 153.285 110.127C152.62 111.304 151.956 112.508 151.319 113.67C149.119 117.67 146.842 121.808 143.915 125.954C143.327 124.985 142.759 124.058 142.206 123.158C141.008 121.213 139.88 119.373 138.808 117.511C137.41 115.082 136.005 112.598 134.649 110.197C133.078 107.422 131.466 104.564 129.832 101.747C130.234 99.9133 130.511 98.1763 130.663 96.467V96.4394L130.614 96.4048C130.517 96.3425 130.414 96.2733 130.31 96.1972C129.687 95.9619 129.057 95.7058 128.441 95.4636L128.386 95.4429V95.4982C128.206 96.5639 127.985 97.685 127.729 98.8891C127.251 98.55 126.746 98.377 126.213 98.377C125.41 98.377 124.525 98.7645 123.584 99.5257C120.947 101.657 117.39 104.377 113.314 106.48C111.909 107.2 110.463 108.051 108.761 109.159C108.491 109.332 108.179 109.588 107.992 109.92C107.48 110.141 106.968 110.383 106.463 110.619C105.432 111.096 104.366 111.594 103.28 111.954C99.2662 113.283 96.4497 116.106 94.1384 121.103C92.6921 124.231 91.6333 127.545 90.6092 130.749C90.104 132.334 89.5781 133.967 89.0175 135.559C87.3775 140.188 86.028 144.852 84.9139 148.811C83.2808 154.644 81.6822 160.686 80.1667 166.775C79.8415 168.083 79.4609 169.405 79.0872 170.699C78.0492 174.298 76.9765 178.014 76.9004 182.103C76.8243 183.584 76.9904 185.778 78.2291 187.84C80.4228 191.501 83.26 194.767 86.9 197.819M140.572 125.995C142.123 128.348 143.098 129.261 144.053 129.261C145.015 129.261 145.963 128.306 147.326 125.967C148.309 124.286 149.859 123.85 151.354 123.428C152.06 123.227 152.786 123.026 153.451 122.694C152.904 123.338 152.364 123.995 151.838 124.639C149.928 126.985 147.949 129.414 145.264 131.137C144.759 131.462 144.365 131.607 143.984 131.607C143.603 131.607 143.209 131.462 142.697 131.144C140.351 129.656 138.559 127.587 136.829 125.594C136.033 124.673 135.209 123.725 134.344 122.84C136.642 122.902 139.472 124.327 140.565 125.995" fill="#264964"/>
<path d="M86.8515 178C86.2772 178.194 85.6336 178.422 85.4052 178.941C85.2737 179.246 85.3014 179.592 85.4883 180C85.7305 180.533 86.0972 180.803 86.5955 180.803C87.0522 180.803 87.5228 180.574 87.9864 180.36C88.1456 180.284 88.3186 180.201 88.4708 180.138C88.8514 179.986 89.2251 179.834 89.5988 179.682C92.2492 178.602 94.9827 177.495 97.9652 177.495C98.159 177.495 98.3597 177.495 98.5604 177.509C98.595 177.509 98.6296 177.509 98.6642 177.509C99.2247 177.509 99.6537 177.273 99.8475 176.872C100.055 176.436 99.9444 175.889 99.5499 175.398C99.114 174.858 98.5673 174.395 98.0068 174.09C95.2179 172.575 92.3115 171.751 89.3566 171.633H89.322C89.1836 171.627 89.0452 171.62 88.8999 171.62C88.2425 171.62 87.4605 171.737 86.7131 172.609L86.5194 172.831L86.7962 172.934C87.9103 173.35 89.0729 173.585 90.2009 173.813C91.7648 174.132 93.3703 174.457 94.9204 175.273C91.8894 176.035 89.5642 176.81 87.3913 177.799C87.2321 177.868 87.0453 177.938 86.8515 178Z" fill="#264964"/>
<path d="M179.879 188.857L179.892 188.809L179.872 188.768C179.588 188.249 179.228 188.117 178.979 188.103C178.758 188.089 178.529 188.152 178.301 188.29C175.111 190.179 171.734 190.069 168.156 189.951C167.762 189.937 167.36 189.923 166.966 189.916C166.108 189.896 165.263 189.958 164.447 190.103C162.094 189.923 159.686 189.764 157.312 189.764C152.454 189.764 148.551 190.484 145.05 192.02C144.953 192.062 144.856 192.11 144.745 192.158C144.219 192.401 143.68 192.643 143.084 192.643C142.787 192.643 142.496 192.581 142.192 192.463C140.406 191.743 138.656 191.051 136.815 190.608C134.441 190.034 131.929 189.764 128.919 189.764C127.929 189.764 126.947 189.792 125.957 189.84C124.843 189.896 123.625 189.854 122.552 190.179C122.033 190.331 120.982 191.148 121.404 191.805C121.507 191.965 121.687 192.062 121.867 192.138C122.663 192.47 123.542 192.435 124.386 192.352C125.175 192.269 125.964 192.352 126.753 192.304C127.611 192.241 128.462 192.214 129.286 192.214C133.23 192.214 136.759 192.878 140.067 194.255C141.015 194.65 142.053 194.857 143.084 194.857C144.115 194.857 145.105 194.657 146.032 194.269C149.527 192.795 153.319 192.11 157.963 192.11C158.454 192.11 158.966 192.117 159.492 192.138C157.201 193.736 155.534 196.103 154.939 198.899C154.371 201.584 154.253 204.338 154.143 207.009C154.067 208.905 155.492 210.725 157.132 210.822C157.208 210.822 157.278 210.822 157.354 210.822H157.52C157.838 210.801 158.136 210.794 158.426 210.808C159.021 210.843 159.478 211.002 159.893 211.334C160.101 211.493 160.343 211.59 160.585 211.604C161.035 211.632 161.471 211.396 161.769 210.953C162.025 210.587 162.149 210.026 161.326 209.445C160.537 208.884 160.267 208.144 160.399 206.891C160.661 204.476 160.862 202.442 160.994 200.373C160.994 200.296 161.008 200.213 161.008 200.137C161.077 199.258 161.146 198.269 160.129 197.369L160.018 197.272L159.949 197.404C159.16 198.975 158.862 200.539 158.572 202.047C158.523 202.296 158.475 202.539 158.426 202.781C158.17 204.047 158.018 205.3 157.859 206.628C157.797 207.154 157.734 207.68 157.658 208.206C156.765 207.826 156.731 207.196 156.793 206.421C156.835 205.867 156.89 205.3 156.945 204.753C157.056 203.618 157.174 202.449 157.16 201.3C157.105 197.051 161.27 192.705 165.582 192.518C167.263 192.442 168.952 192.532 170.405 192.615H170.543C172.972 192.767 175.284 192.241 177.602 191.017C178.585 190.498 179.498 189.944 179.865 188.878" fill="#264964"/>
<path d="M165.845 204.802C166.032 203.348 166.218 201.84 166.391 200.359C166.488 199.549 166.239 199.072 165.651 198.94C165.575 198.919 165.499 198.913 165.429 198.906C165.028 198.885 164.516 199.065 164.343 200.068C164.17 201.078 163.935 202.096 163.706 203.078C163.277 204.926 162.841 206.829 162.793 208.774C162.744 210.843 163.748 212.185 165.416 212.282C166.073 212.324 166.786 212.158 167.54 211.805C167.865 211.652 168.177 211.514 168.495 211.535C168.758 211.549 169.021 211.673 169.312 211.915C170.087 212.552 170.986 212.919 171.914 212.974C173.664 213.078 175.298 212.068 176.176 210.338C176.197 210.289 176.225 210.241 176.253 210.192C176.488 209.749 176.778 209.196 176.266 208.739C176.086 208.58 175.9 208.497 175.713 208.483C175.242 208.455 174.862 208.884 174.619 209.203C173.851 210.22 172.938 210.656 171.741 210.587C171.222 210.559 170.64 210.428 169.907 210.185C169.803 209.867 169.921 209.611 170.045 209.341C170.087 209.258 170.121 209.175 170.156 209.092C170.91 207.12 171.588 205.182 171.699 203.085C171.72 202.732 171.748 202.13 171.152 201.944C171.076 201.923 171 201.902 170.931 201.902C170.564 201.881 170.225 202.117 170.018 202.552C169.81 202.975 169.637 203.417 169.471 203.853L169.339 204.186C169.166 204.622 168.986 205.058 168.813 205.5C168.294 206.795 167.755 208.123 167.256 209.452C167.07 209.95 166.765 210.033 166.364 210.005C166.274 210.005 166.184 209.992 166.094 209.978C165.602 209.909 165.353 209.611 165.374 209.12C165.395 208.531 165.464 207.929 165.533 207.369C165.637 206.504 165.748 205.646 165.859 204.788" fill="#264964"/>
<path d="M89.5711 194.968C89.6888 195.508 89.8825 196.407 91.0036 196.47H91.1974L91.3358 196.352C92.0416 195.708 91.9171 194.892 91.8202 194.29C91.7994 194.165 91.7856 194.048 91.7717 193.93C91.5849 191.778 92.5468 190.255 94.8166 189.148C94.9412 189.086 95.0657 189.031 95.1903 188.968C95.9653 188.602 96.7611 188.221 97.3701 187.57C98.6088 186.249 100.021 185.605 101.681 185.605C101.778 185.605 101.868 185.605 101.965 185.605C102.007 185.605 102.048 185.605 102.09 185.605C102.616 185.605 103.01 185.467 103.273 185.19C103.494 184.955 103.598 184.643 103.571 184.27C103.522 183.529 103.003 183.128 102.02 183.079C101.827 183.072 101.633 183.065 101.446 183.065C99.4323 183.065 97.8614 183.626 96.6435 184.775C95.564 185.792 94.3391 186.505 93.2872 187.065C90.0002 188.823 88.7753 191.376 89.5504 194.871L89.5711 194.961V194.968Z" fill="#264964"/>
<path d="M121.12 199.722C120.352 197.812 119.577 195.895 118.795 193.978C119.016 193.812 119.203 193.619 119.362 193.397C120.615 191.619 120.85 189.508 120.013 187.605C119.189 185.737 117.452 184.373 115.252 183.854L115.203 183.84C115.023 183.799 114.823 183.751 114.622 183.73L114.774 184.138C114.788 184.18 114.795 184.214 114.802 184.256C112.906 179.661 111.01 175.093 109.134 170.602C108.172 168.298 107.217 165.987 106.256 163.682C106.235 163.634 106.214 163.578 106.193 163.516C106.055 163.136 105.82 162.478 104.92 162.36C104.885 162.36 104.858 162.367 104.823 162.36C104.809 162.36 104.795 162.354 104.788 162.34C104.761 162.34 104.733 162.34 104.699 162.333C104.719 162.326 104.733 162.312 104.754 162.298C104.754 162.298 104.754 162.298 104.754 162.291C104.74 162.257 104.733 162.222 104.747 162.187C104.747 162.187 104.754 162.153 104.754 162.167C104.754 162.16 104.754 162.146 104.754 162.139C104.754 162.118 104.761 162.098 104.768 162.07C104.768 162.049 104.768 162.028 104.768 162.008C104.768 162.008 104.768 161.987 104.768 161.98C104.768 161.973 104.768 161.959 104.768 161.952C104.768 161.931 104.768 161.911 104.768 161.883V161.869C104.768 161.855 104.768 161.848 104.761 161.835C104.761 161.814 104.747 161.793 104.74 161.772C104.74 161.765 104.74 161.752 104.733 161.745C104.74 161.772 104.733 161.731 104.726 161.731C104.712 161.703 104.705 161.668 104.712 161.641C104.602 161.392 104.532 161.108 104.456 160.886C104.269 160.333 104.034 159.793 103.82 159.246C103.64 158.866 103.481 158.471 103.321 158.063C103.148 157.62 102.962 157.163 102.747 156.721C102.27 155.745 101.584 155.274 100.719 155.323C100.401 155.343 100.048 155.433 99.6468 155.6C98.9756 155.876 98.5327 156.271 98.3251 156.769C98.1175 157.267 98.159 157.862 98.4358 158.541C98.5811 158.887 98.6919 159.267 98.8026 159.627C98.941 160.084 99.0863 160.561 99.2939 161.018C99.806 162.104 99.723 162.928 99.024 163.779C98.3113 164.644 98.1313 165.558 98.4912 166.485C98.8372 167.391 99.1832 168.305 99.5292 169.218V169.246C99.9583 170.367 100.401 171.53 100.837 172.665C100.962 172.976 101.28 173.806 102.263 173.751L102.422 173.737L102.519 173.668C103.501 172.962 103.093 172.056 102.851 171.509C102.816 171.44 102.789 171.364 102.761 171.294C102.048 169.571 101.328 167.897 100.623 166.326C100.56 166.18 100.36 165.744 100.422 165.62C100.422 165.606 100.457 165.571 100.553 165.516C100.65 165.731 100.747 165.938 100.823 166.146C101.827 168.665 102.816 171.191 103.813 173.716L103.868 173.855C105.397 177.737 106.961 181.702 108.546 185.66C108.435 185.598 108.332 185.536 108.221 185.474C107.951 185.321 107.64 185.155 107.307 185.155C107.058 185.155 106.698 185.252 106.442 185.716C106 186.519 106.712 187.107 106.948 187.301C107.1 187.425 107.259 187.536 107.418 187.653C107.584 187.771 107.757 187.896 107.909 188.027C108.269 188.345 108.65 188.65 109.017 188.941C110.311 189.979 111.653 191.058 112.241 192.761C113.439 196.241 114.283 199.099 114.885 201.771L114.926 201.944C115.058 202.518 115.189 203.058 114.926 203.542C113.909 203.528 113.335 203.058 112.878 201.895C112.138 200.006 111.314 198.124 110.511 196.304L110.498 196.276C110.131 195.439 109.764 194.608 109.404 193.771C108.954 192.726 108.456 191.619 107.723 190.622L107.695 190.588C107.432 190.235 107.079 189.75 106.519 189.75C106.325 189.75 106.124 189.813 105.923 189.937C105.148 190.415 105.474 191.169 105.667 191.619L105.709 191.709C106.38 193.273 107.003 194.885 107.605 196.442C108.553 198.885 109.529 201.418 110.705 203.819L110.761 203.923C110.844 204.082 110.885 204.172 110.878 204.241C110.608 204.31 110.421 204.345 110.283 204.345C110.082 204.345 109.958 204.241 109.473 203.784L109.404 203.722C107.736 202.186 106.332 200.366 104.968 198.608C104.166 197.577 103.335 196.504 102.463 195.501C102.408 195.439 102.36 195.376 102.297 195.3C101.841 194.754 101.28 194.075 99.889 193.923L99.3147 193.861L99.5569 194.387C101.626 198.947 104.546 202.463 107.397 205.66C107.176 205.687 106.961 205.701 106.754 205.701C105.806 205.701 105.045 205.39 104.366 204.718C103.494 203.86 102.609 202.975 101.757 202.123C100.809 201.175 99.8337 200.2 98.858 199.245C98.8026 199.189 98.7472 199.134 98.678 199.065C98.2005 198.58 97.5985 197.971 96.4982 197.971C96.3805 197.971 96.256 197.978 96.1314 197.992L95.6747 198.041L95.8685 198.456C96.6643 200.144 97.7992 201.473 98.9064 202.753C99.4462 203.383 99.9652 203.985 100.436 204.622C99.031 204.13 97.6123 203.487 96.0276 202.601C95.1834 202.13 94.7474 201.307 94.2907 200.435C93.7855 199.473 93.2665 198.477 92.1593 197.764L91.668 197.445L91.6541 198.034C91.5849 200.899 92.2216 202.719 93.7924 204.11C95.8339 205.923 98.2697 206.898 100.602 207.687C101.038 207.833 101.425 207.909 101.771 207.909C102.214 207.909 102.609 207.791 102.955 207.57C103.086 207.487 103.197 207.445 103.315 207.445C103.474 207.445 103.654 207.514 103.847 207.59C103.917 207.618 103.993 207.646 104.062 207.673L104.387 207.791C105.245 208.102 106.138 208.428 107.024 208.428C108.02 208.428 108.858 208.019 109.577 207.182C109.598 207.161 109.695 207.127 109.785 207.127C109.806 207.127 109.812 207.127 109.812 207.127C110.062 207.175 110.304 207.203 110.539 207.203C111.563 207.203 112.428 206.746 113.252 205.763C113.812 206.186 114.394 206.407 114.982 206.407C115.487 206.407 115.992 206.248 116.483 205.93C117.058 205.563 117.383 205.085 117.57 204.587C117.542 204.947 117.487 205.3 117.411 205.646C117.902 206.359 118.428 207.051 119.009 207.715C119.383 208.144 119.736 208.601 120.089 209.064C120.483 209.369 120.857 209.729 121.314 209.936C121.369 209.964 121.431 209.985 121.494 210.005C121.528 209.936 121.591 209.888 121.687 209.881C121.722 209.881 121.757 209.881 121.791 209.874C121.805 209.874 121.84 209.86 121.854 209.86C121.895 209.846 121.937 209.832 121.978 209.812C121.999 209.798 122.02 209.784 122.047 209.777C122.047 209.777 122.054 209.777 122.061 209.77C122.096 209.736 122.137 209.708 122.165 209.666C122.172 209.653 122.186 209.646 122.193 209.632C122.193 209.632 122.22 209.597 122.22 209.59C122.248 209.542 122.276 209.493 122.296 209.438C122.303 209.417 122.317 209.396 122.324 209.376V209.355H122.331C122.345 209.3 122.359 209.244 122.373 209.196C122.386 209.14 122.393 209.085 122.4 209.03C122.4 209.002 122.407 208.974 122.407 208.947C122.407 208.836 122.414 208.725 122.421 208.615C122.421 208.594 122.421 208.58 122.421 208.559C122.421 208.448 122.414 208.338 122.4 208.234C122.4 208.22 122.393 208.082 122.386 208.082C122.393 208.151 122.4 208.165 122.386 208.123C122.386 208.109 122.386 208.095 122.386 208.082C122.386 208.054 122.379 208.033 122.373 208.006C122.352 207.895 122.366 207.756 122.435 207.666C122.386 205.307 122.179 202.324 121.127 199.701M116.691 186.74C118.248 188.02 118.615 189.84 117.784 191.508C117.023 189.64 116.255 187.778 115.494 185.917C115.909 186.152 116.31 186.422 116.691 186.74ZM101.841 160.513C101.259 160.298 101.107 159.772 100.906 159.115C100.803 158.769 100.699 158.409 100.512 158.084C100.491 158.049 100.463 157.98 100.505 157.918C100.526 157.883 100.553 157.869 100.56 157.869C101.162 157.973 101.273 158.347 101.425 159.046C101.515 159.454 101.605 159.869 101.875 160.208C101.889 160.361 101.875 160.457 101.847 160.513M116.4 196.781L116.269 196.331L116.241 196.297C116.241 196.297 116.207 196.248 116.193 196.221C116.048 195.923 115.978 195.612 115.909 195.273C115.861 195.051 115.812 194.823 115.736 194.594L115.715 194.539C115.535 193.978 115.342 193.404 115.141 192.823V192.809L115.134 192.795C115.003 192.511 114.871 192.207 114.753 191.889C114.158 190.214 113.183 188.989 111.944 187.944C110.498 184.449 109.051 180.955 107.605 177.46C107.328 176.803 106.657 175.17 106.657 175.17C105.224 171.703 103.737 168.118 102.2 164.623C101.889 163.918 101.813 163.412 101.979 163.122C102.124 162.852 102.533 162.672 103.183 162.575C103.218 162.575 103.259 162.568 103.294 162.561C103.384 162.561 103.474 162.561 103.564 162.561C103.626 162.561 103.688 162.561 103.757 162.561L118.705 200.137L117.515 200.663C117.432 200.29 117.328 199.895 117.21 199.494C116.94 198.601 116.677 197.701 116.407 196.781M119.099 204.033C118.94 203.798 118.774 203.549 118.594 203.314C118.788 203.044 119.051 202.94 119.577 202.898L119.888 205.085C119.584 204.746 119.341 204.379 119.099 204.026" fill="#264964"/>
<path d="M104.304 154.298C104.449 155.364 105.114 155.593 105.647 155.593C105.674 155.593 105.695 155.593 105.723 155.593C106.262 155.572 106.934 155.316 107.065 154.229C107.114 153.856 107.107 153.482 107.1 153.115V153.053C107.079 151.904 107.065 150.762 107.044 149.607C107.01 146.942 106.975 144.188 106.865 141.482C106.615 135.206 106.083 127.808 103.986 120.528C103.958 120.431 103.93 120.328 103.903 120.231C103.64 119.297 103.377 118.328 102.394 117.594L102.242 117.477L102.11 117.608C101.64 118.079 101.709 118.508 101.757 118.847C101.771 118.944 101.785 119.027 101.792 119.117C101.854 121.089 102.221 123.047 102.574 124.943C102.83 126.32 103.093 127.746 103.238 129.158C104.069 137.24 104.193 145.545 104.249 152.693C104.249 152.818 104.249 152.935 104.249 153.06C104.249 153.468 104.249 153.89 104.304 154.298Z" fill="#264964"/>
<path d="M184.1 151.78C184.84 141.13 185.609 130.12 186.875 119.331L186.896 119.172C186.965 118.688 187.055 118.03 186.28 117.553L186.141 117.47L185.996 117.539C185.145 117.947 185.013 118.681 184.889 119.331V119.359C184.861 119.463 184.847 119.567 184.82 119.67C184.231 122.279 183.906 124.964 183.595 127.566C183.533 128.064 183.477 128.563 183.415 129.054C182.82 133.829 182.488 138.708 182.162 143.434C181.858 147.904 181.54 152.527 181 157.053C180.149 164.229 179.865 170.104 180.121 175.529V175.675C180.156 176.36 180.197 177.509 181.36 177.55C181.387 177.55 181.408 177.55 181.436 177.55C182.709 177.55 182.73 176.304 182.737 175.564V175.488C182.751 174.72 182.744 173.945 182.737 173.197C182.723 172.132 182.716 171.031 182.771 169.952C183.263 172.346 183.65 174.761 183.962 177.183C183.996 177.439 184.114 177.64 184.28 177.778C184.28 177.778 184.28 177.792 184.28 177.799C184.328 178.394 184.363 178.969 184.176 179.543C183.837 180.567 183 181.335 182.335 182.152C181.892 182.699 181.45 183.245 180.993 183.778C180.778 184.152 180.702 184.498 180.771 184.802C180.834 185.1 181.027 185.356 181.353 185.557C181.553 185.681 181.761 185.75 181.962 185.75C182.481 185.75 182.875 185.342 183.159 185.045C183.574 184.616 183.982 184.18 184.391 183.744C185.193 182.886 186.031 182 186.889 181.183L186.986 181.093C187.553 180.553 188.093 180.048 188.107 179.384C188.114 179.017 187.954 178.643 187.622 178.263C189.574 176.74 191.269 175.855 193.131 175.398C195.615 174.789 197.539 174.519 199.373 174.519C199.975 174.519 200.57 174.547 201.137 174.609C201.269 174.623 201.386 174.63 201.497 174.63C202.238 174.63 202.667 174.318 202.791 173.703C202.93 172.983 202.473 172.436 201.573 172.249C200.902 172.104 200.252 172.035 199.636 172.035C199.566 172.035 199.49 172.035 199.421 172.035C195.435 172.146 190.792 172.754 186.577 176.388C185.92 172.727 185.235 169.066 184.488 165.419C184.349 164.727 184.218 163.952 183.844 163.343C183.692 163.101 183.505 162.942 183.297 162.859C183.574 159.15 183.837 155.433 184.086 151.8V151.766L184.1 151.78Z" fill="#264964"/>
<path d="M144.365 201.674C144.337 200.338 144.275 198.989 144.212 197.674L144.178 196.975C144.129 195.902 143.569 195.674 143.112 195.674C142.212 195.688 142.102 196.58 142.053 196.968C142.032 197.148 142.026 197.328 142.019 197.508V197.605C141.825 203.625 141.776 209.694 141.873 215.652C141.88 216.178 141.956 216.663 142.081 217.085C142.233 217.576 142.628 217.887 143.112 217.887C143.16 217.887 143.209 217.887 143.257 217.88C143.721 217.825 144.081 217.507 144.192 217.05C144.323 216.503 144.385 216.054 144.392 215.638C144.406 213.382 144.406 211.05 144.399 208.995V206.504H144.371C144.371 206.096 144.371 205.687 144.371 205.272C144.371 204.096 144.385 202.885 144.358 201.687" fill="#264964"/>
<path d="M150.98 87.1525C150.773 86.9795 150.551 86.8965 150.309 86.8965C150.005 86.8965 149.707 87.028 149.465 87.1595C149.299 87.2494 149.133 87.3394 148.966 87.4293L148.925 87.4501C147.977 87.9622 146.994 88.495 145.949 88.8272C145.313 89.0279 144.669 89.1386 144.039 89.1524C143.403 89.1386 142.759 89.0279 142.122 88.8272C141.078 88.495 140.095 87.9622 139.147 87.4501C138.967 87.3532 138.787 87.2563 138.607 87.1595C138.358 87.028 138.067 86.8965 137.763 86.8965C137.514 86.8965 137.292 86.9795 137.092 87.1525C136.925 87.2979 136.836 87.457 136.829 87.6439C136.822 87.9968 137.126 88.2805 137.292 88.4327C138.635 89.6784 140.303 90.5157 142.24 90.9171C142.752 91.0209 143.271 91.0901 143.79 91.1177V91.1316H144.012H144.032H144.067H144.185H144.288C144.808 91.097 145.327 91.0278 145.839 90.924C147.776 90.5226 149.437 89.6853 150.786 88.4397C150.953 88.2874 151.257 88.0037 151.25 87.6508C151.25 87.4709 151.16 87.3048 150.987 87.1595" fill="#264964"/>
<path d="M144.143 92.481H144.012C143.922 92.481 143.832 92.481 143.742 92.481C143.34 92.481 142.925 92.481 142.662 92.7371C142.517 92.8824 142.448 93.0831 142.455 93.3391C142.475 94.1003 143.25 94.1004 143.583 94.1004C143.631 94.1004 143.686 94.1004 143.735 94.1004H143.887C143.956 94.1004 144.026 94.1004 144.102 94.1004C144.178 94.1004 144.261 94.1004 144.337 94.1004C144.662 94.1004 145.43 94.1004 145.513 93.3807C145.541 93.1385 145.486 92.9378 145.354 92.7855C145.084 92.488 144.586 92.481 144.143 92.4741" fill="#264964"/>
<path d="M141.278 77.3954L141.264 77.4092C141.195 77.513 141.119 77.6168 141.022 77.7483C140.835 77.9974 140.649 78.2534 140.552 78.6064C140.406 79.1323 140.566 79.6928 140.988 80.1426C141.41 80.5994 142.033 80.8139 142.475 80.9108C142.752 80.973 143.029 80.9938 143.292 81.0215H143.375C143.444 81.0353 143.513 81.0422 143.59 81.0422C143.68 81.0422 143.77 81.0492 143.853 81.0492C143.894 81.0492 143.936 81.0492 143.977 81.0492C144.164 81.0423 144.337 81.0215 144.496 80.98C145.417 80.7447 145.354 80.198 145.313 80.0319V80.0181C145.23 79.7828 145.022 79.6375 144.835 79.5198L144.808 79.4991C144.648 79.3953 144.475 79.3191 144.344 79.2569C144.233 79.2084 144.116 79.1669 144.026 79.1323C143.915 79.0908 143.811 79.0562 143.735 79.0147C143.603 78.9455 143.493 78.8486 143.424 78.7448C143.368 78.6687 143.368 78.6271 143.368 78.6271C143.368 78.5649 143.479 78.4057 143.534 78.3226C143.659 78.1427 143.776 77.949 143.887 77.7414C144.275 77.1739 144.385 76.6065 144.192 76.1843C144.033 75.8314 143.686 75.603 143.257 75.5615C143.237 75.5615 143.216 75.5615 143.188 75.5615C143.174 75.5615 143.161 75.5615 143.154 75.5615C142.738 75.5754 142.517 75.8452 142.399 75.9837L141.943 76.5303C141.825 76.6757 141.687 76.8348 141.562 77.0078C141.458 77.1393 141.361 77.2846 141.278 77.4023" fill="#264964"/>
<path d="M158.129 70.2677C157.153 70.2677 156.295 70.6621 155.824 71.3126L155.79 71.3541L155.451 72.3091L155.464 72.406C155.727 73.9284 156.717 74.8349 158.101 74.8349C158.793 74.8349 159.533 74.5997 160.177 74.1637L160.253 74.1152L160.295 74.0391C161.035 72.8004 160.834 71.9423 160.53 71.4372C160.101 70.7106 159.174 70.2607 158.122 70.2607" fill="#264964"/>
<path d="M133.458 71.3125C132.988 70.6551 132.13 70.2676 131.154 70.2676C130.102 70.2676 129.175 70.7174 128.746 71.444C128.448 71.9492 128.241 72.8073 128.981 74.046L129.023 74.1221L129.099 74.1705C129.742 74.5996 130.483 74.8418 131.175 74.8418C132.566 74.8418 133.548 73.9352 133.811 72.4128L133.825 72.3159L133.486 71.361L133.458 71.3194V71.3125Z" fill="#264964"/>
<path d="M130.891 61.2783C131.341 61.2783 131.812 61.3198 132.324 61.4098C132.434 61.4306 132.545 61.4375 132.642 61.4375C132.69 61.4375 132.739 61.4375 132.78 61.4375C133.216 61.396 133.5 61.1607 133.638 60.7386C133.881 59.9843 133.355 59.5691 132.87 59.3545C132.393 59.14 131.895 59.05 131.244 59.05C130.933 59.05 130.573 59.0708 130.109 59.1192L129.805 59.1538C128.628 59.2992 127.41 59.5621 126.428 60.4894C125.874 61.0154 125.784 61.5344 126.158 62.0465C126.365 62.3302 126.649 62.4824 126.961 62.4824C126.995 62.4824 127.03 62.4824 127.057 62.4824C127.244 62.4617 127.445 62.3925 127.618 62.2679C128.421 61.7281 129.279 61.4167 130.241 61.3268C130.448 61.306 130.663 61.2991 130.884 61.2991" fill="#264964"/>
<path d="M158.758 59.147L158.454 59.1124C157.99 59.064 157.63 59.0432 157.319 59.0432C156.669 59.0432 156.163 59.1401 155.693 59.3477C155.208 59.5622 154.683 59.9774 154.925 60.7317C155.056 61.1538 155.347 61.3822 155.776 61.4307C155.824 61.4307 155.866 61.4307 155.914 61.4307C156.018 61.4307 156.122 61.4237 156.233 61.403C156.745 61.313 157.208 61.2715 157.665 61.2715C157.88 61.2715 158.094 61.2853 158.309 61.2992C159.271 61.3961 160.129 61.7005 160.931 62.2403C161.111 62.3579 161.305 62.4341 161.492 62.4548C161.527 62.4548 161.561 62.4548 161.589 62.4548C161.907 62.4548 162.184 62.3026 162.392 62.0189C162.765 61.5137 162.675 60.9878 162.122 60.4618C161.139 59.5345 159.921 59.2716 158.752 59.1263" fill="#264964"/>
<path d="M183.719 100.259C183.297 93.3324 180.162 87.4088 176.329 81.7758C176.232 81.6305 176.128 81.4852 176.024 81.3398C176.294 81.2222 176.557 81.1046 176.82 80.9731C180.1 79.3953 182.231 77.0632 182.28 73.3609C182.231 72.925 182.225 72.3714 182.093 71.8385C181.671 70.1085 180.917 68.6068 179.187 67.8664C179.879 65.9703 180.384 63.2645 180.529 61.8528C181.712 45.8466 174.626 27.0723 156.15 21.211C152.35 19.6609 148.295 18.8789 144.095 18.8789C135.32 18.8789 126.345 22.3805 119.473 28.4909C112.297 34.8713 108.172 43.2861 107.854 52.22C107.563 54.0608 107.224 58.2059 107.487 62.0673C107.66 64.607 108.069 66.5792 108.678 67.9217C107.916 68.2539 107.28 68.7729 106.83 69.5341C104.733 73.0495 105.66 77.1947 109.065 79.6721C110.124 80.4471 111.252 81.0769 112.456 81.5405C112.408 81.6028 112.359 81.6651 112.311 81.7204C110.082 84.4816 108.643 87.6856 107.204 90.8688C104.705 96.3842 104.249 102.142 105.294 108.024C105.494 109.131 105.314 111.055 107.127 110.73C108.809 110.425 108.138 108.709 107.958 107.539C106.982 101.339 107.709 95.3807 110.491 89.6924C111.722 87.1735 112.85 84.5992 114.525 82.1633C114.926 82.2464 115.335 82.3156 115.75 82.364C116.705 82.4747 117.328 82.8346 117.632 83.7342C117.957 84.7099 118.414 85.6511 118.857 86.5853C119.487 87.9139 120.123 89.2564 120.919 90.4882C120.815 90.8412 120.843 91.284 120.802 91.6162C120.345 95.8029 119.771 99.9549 118.532 104.003C118.463 104.232 118.386 104.495 118.331 104.751C118.483 104.64 118.643 104.536 118.795 104.432C119.75 103.782 120.753 103.2 121.77 102.661C122.622 100.142 122.905 97.4845 123.065 94.7026C123.023 94.1628 122.995 93.5608 122.947 92.9379C123.065 93.0487 123.182 93.1525 123.307 93.2563C125.867 95.3807 128.642 97.2769 131.742 98.7508C135.431 100.509 139.382 101.637 143.195 103.083C143.804 103.311 144.441 103.235 145.05 102.986C145.666 102.737 146.288 102.495 146.932 102.294C153.029 100.384 158.814 97.9481 163.755 94.0382C164.481 93.4639 165.111 92.8411 165.692 92.1767C165.609 92.9725 165.561 93.7407 165.499 94.4119C165.658 97.699 165.997 100.792 167.194 103.699C167.803 104.197 168.474 104.633 169.118 105.062C169.464 105.29 169.817 105.512 170.163 105.74C170.412 105.256 170.163 104.557 170.052 104.01C169.616 102.024 169 100.066 168.64 98.0657C168.232 95.8098 168.038 93.5123 167.72 91.2356C167.658 90.8066 167.685 90.2322 167.312 89.9831C168.585 87.9831 169.498 85.831 170.384 83.6788C170.73 82.8346 171.284 82.4332 172.19 82.3709C172.82 82.3294 173.422 82.2187 174.003 82.0595C174.356 82.5785 174.689 83.0768 174.993 83.5889C179.588 91.3532 182.398 99.4844 180.467 108.598C180.28 109.477 180.259 110.619 181.553 110.778C182.716 110.923 182.903 109.871 183.103 109.055C183.816 106.155 183.892 103.214 183.705 100.253M171.09 80.1842C169.796 80.2326 168.966 80.7516 168.537 81.935C168.052 83.2844 167.464 84.613 166.807 85.9002C165.561 88.343 164.281 90.7235 161.914 92.5435C156.869 96.4326 150.966 98.6955 144.828 100.578C144.323 100.73 143.839 100.778 143.313 100.619C137.175 98.7439 131.23 96.5364 126.213 92.6196C124.85 91.5608 123.777 90.3567 122.871 88.9589C121.438 86.7444 120.518 84.3293 119.494 81.9557C118.995 80.807 118.248 80.2326 116.947 80.1911C114.421 80.1011 112.276 79.1669 110.331 77.7275C109.037 76.7726 108.394 75.5062 108.221 74.053C107.958 71.8039 108.761 70.5445 110.864 69.631C111.48 69.368 111.819 68.9528 111.66 68.3231C111.556 67.9148 111.293 67.6519 110.94 67.5481C110.588 66.344 110.304 65.0222 110.11 63.569C109.086 59.5207 109.743 55.341 110.38 51.2858C110.511 50.4761 110.636 49.6665 110.747 48.8637C112.138 36.6774 121.591 26.5395 135.403 22.4151C138.047 21.5708 140.884 21.1418 143.825 21.1418C157.118 21.1418 170.211 29.529 174.952 41.0648C175.166 41.5976 175.304 42.1789 175.477 42.7325C175.657 43.3069 175.83 43.8882 175.996 44.4626C176.342 45.639 176.661 46.8223 176.951 48.0126C177.533 50.4139 177.989 52.8567 178.183 55.3271C178.377 57.7838 178.315 60.2681 177.879 62.6901C177.54 64.5655 176.903 66.3509 176.329 68.157C176.28 68.3162 176.287 68.4477 176.315 68.5861C176.273 69.195 176.765 69.541 177.443 69.721C178.1 69.894 178.702 70.1223 179.069 70.7313C180.446 73.0149 179.851 76.0459 177.678 77.6999C175.761 79.16 173.602 80.0942 171.076 80.1842" fill="#264964"/>
<path d="M120.622 49.092C120.4 49.092 120.151 49.1473 119.895 49.2304C119.757 49.3688 119.625 49.521 119.494 49.6871C119.424 49.9431 119.355 50.1923 119.279 50.4345C117.57 55.8737 116.442 61.4997 113.515 66.5376C112.899 67.6033 111.093 68.9735 113.702 70.0253C113.902 70.1084 113.861 70.7727 113.916 71.174C114.138 72.7242 114.449 74.2604 115.141 75.679C115.508 76.4264 115.805 77.3745 117.044 77.2845C117.653 76.6686 117.591 75.9074 117.425 75.1877C116.954 73.1394 116.477 71.0841 115.888 69.0634C115.708 68.4475 115.528 67.9839 115.888 67.3611C118.324 63.2298 119.57 58.7317 120.615 54.1713C120.608 53.9499 120.615 53.7284 120.656 53.5139C120.885 52.3513 121.099 51.1749 121.071 49.9847C121.065 49.6179 121.065 49.3411 121.023 49.1335C120.885 49.0989 120.746 49.0781 120.601 49.0781" fill="#264964"/>
<path d="M171.505 59.4514C170.46 55.9982 169.471 52.5312 168.419 49.0781C168.135 48.137 167.955 47.1128 167.021 46.3101C166.08 47.1405 166.232 47.9986 166.371 48.7736C167.505 54.9325 168.806 61.0499 171.796 66.676C172.301 67.6309 172.509 68.3645 172.087 69.4786C171.408 71.2432 171.097 73.1532 170.716 75.0147C170.543 75.8313 170.26 76.7655 171.277 77.3606C172.384 77.1668 172.696 76.288 173.048 75.4991C173.692 74.0597 174.017 72.5235 174.211 70.9664C174.266 70.5305 174.045 69.9215 174.709 69.7692C176.391 69.3886 175.72 68.4337 175.235 67.624C173.692 65.022 172.377 62.3301 171.505 59.4514Z" fill="#264964"/>
<path d="M165.602 57.0778C165.374 56.7664 165.083 56.4757 164.786 56.1782C161.097 52.5174 158.689 47.9363 157.63 42.5525C157.423 41.5075 157.153 40.4487 156.814 39.4176C156.689 39.037 156.378 38.6218 155.866 38.6218C155.817 38.6218 155.762 38.6218 155.707 38.6357C155.202 38.7118 154.876 39.0924 154.814 39.6668C154.786 39.9574 154.786 40.2619 154.793 40.7255C154.793 40.9885 154.8 41.2999 154.8 41.6805C155.16 46.7876 157.111 51.597 160.447 55.5761C161.61 56.9601 163.014 57.9082 164.62 58.3995C164.848 58.4687 165.021 58.4964 165.187 58.4964C165.457 58.4964 165.665 58.3995 165.831 58.2057C166.121 57.8528 165.942 57.5414 165.63 57.1193L165.602 57.0778Z" fill="#264964"/>
<path d="M138.96 56.725C139.839 57.2025 140.78 57.7976 141.79 57.0571C142.039 56.4413 141.728 56.033 141.382 55.7216C136.787 51.5833 135.583 45.985 134.337 40.4004C134.192 39.7361 134.067 39.0718 133.881 38.4213C133.763 38.0199 133.5 37.667 133.009 37.667C132.524 37.667 132.241 38.0268 132.137 38.4213C132.005 38.9403 131.922 39.487 131.929 40.0198C131.998 44.4971 133.078 48.7392 135.202 52.7182C136.081 54.3652 137.258 55.8046 138.953 56.725" fill="#264964"/>
<path d="M131.424 57.7767C131.32 56.6834 130.753 56.2474 130.268 55.7768C127.909 53.4863 126.601 50.6836 125.943 47.5488C125.438 45.1337 125.41 42.6909 125.452 40.2412C125.459 39.7152 125.625 39.044 124.926 38.8502C124.158 38.6426 123.805 39.2447 123.549 39.826C122.975 41.0993 122.912 42.4694 122.871 43.8258C122.725 48.0886 123.639 52.0953 126.365 55.5277C127.563 57.0294 129.037 58.275 131.431 57.7767" fill="#264964"/>
<path d="M145.091 39.1686C144.967 38.4904 144.967 37.6046 143.922 37.4939C143.237 37.833 143.105 38.4835 143.091 39.0648C142.946 45.2444 144.621 50.8843 148.717 55.6938C149.423 56.5242 150.461 57.2923 151.748 56.7872C152.032 56.2474 151.859 55.8599 151.596 55.5416C147.693 50.7321 146.164 45.0437 145.091 39.1755" fill="#264964"/>
<path d="M81.1009 193.169C80.3812 192.733 79.191 192.726 78.2222 192.726C74.6514 192.719 71.0806 192.712 67.5167 192.712C64.3127 192.712 61.1087 192.712 57.8839 192.719C56.756 192.719 54.6453 192.719 54.5138 193.916C54.4723 194.304 54.6453 194.622 55.0328 194.857C55.7595 195.3 56.9497 195.307 57.9116 195.314C59.4133 195.321 60.9149 195.328 62.4166 195.328C63.2955 195.328 66.797 195.328 67.6759 195.328C67.6759 195.328 69.8211 195.328 70.7 195.328C71.7449 195.328 72.7899 195.328 73.8417 195.328C75.3088 195.328 76.7759 195.328 78.2429 195.314H78.2983C79.4193 195.307 81.5023 195.293 81.6338 194.11C81.6753 193.722 81.5023 193.404 81.1148 193.162" fill="#264964"/>
<path d="M212.978 193.127C212.645 193.113 212.292 193.113 211.863 193.113C211.593 193.113 211.324 193.113 211.054 193.113C210.936 193.113 210.818 193.113 210.701 193.113V193.079C210.701 193.079 208.964 193.079 208.708 193.079C208.369 193.079 208.03 193.079 207.684 193.079C206.666 193.093 206.057 193.605 206.064 194.442C206.064 195.224 206.673 195.757 207.566 195.764C208.203 195.764 208.839 195.771 209.476 195.771C210.728 195.771 211.884 195.757 213.012 195.736C213.51 195.729 213.912 195.577 214.175 195.293C214.396 195.058 214.514 194.754 214.5 194.401C214.479 193.626 213.912 193.148 212.978 193.113" fill="#264964"/>
</g>
<defs>
<clipPath id="clip0_66_343">
<rect width="160" height="205.534" fill="white" transform="translate(54.5 18.8857)"/>
</clipPath>
</defs>
</svg>
